<?xml version="1.0" standalone="no"?>
<!DOCTYPE svg PUBLIC "-//W3C//DTD SVG 1.1//EN" "http://www.w3.org/Graphics/SVG/1.1/DTD/svg11.dtd" >
<svg>
<metadata>
Created by FontForge 20090914 at Mon May  1 15:26:23 2017
 By www-data
Copyright (c) 2010 by TypeTogether. All rights reserved.This font is ONLY licensed for use when accessed from the Extensis WebINK font service. Any other use of this font file is illegal under United States and international copyright laws. Please respect the rights of the people who design and license fonts.
</metadata>
<defs>
<font id="AdelleCyrillic-Italic" horiz-adv-x="500" >
  <font-face 
    font-family="Adelle Cyrillic"
    font-weight="400"
    font-style="italic"
    font-stretch="normal"
    units-per-em="1000"
    panose-1="2 0 5 3 0 0 0 9 0 4"
    ascent="755"
    descent="-245"
    x-height="513.999"
    cap-height="724.002"
    bbox="-143 -236 1075 941"
    underline-thickness="50"
    underline-position="-50"
    unicode-range="U+000D-U+25CA"
  />
<missing-glyph 
 />
    <glyph glyph-name=".notdef" 
 />
    <glyph glyph-name="NULL" horiz-adv-x="0" 
 />
    <glyph glyph-name="NULL" horiz-adv-x="0" 
 />
    <glyph glyph-name="nonmarkingreturn" unicode="&#xd;" 
 />
    <glyph glyph-name="space" unicode=" " horiz-adv-x="222" 
 />
    <glyph glyph-name="exclam" unicode="!" horiz-adv-x="264" 
d="M98 187l39 371l23 166h101l-23 -166l-64 -371h-76zM184 62c0 -49.333 -25.333 -74 -76 -74c-38.667 0 -58 17.333 -58 52c0 49.333 25.333 74 76 74c38.667 0 58 -17.333 58 -52z" />
    <glyph glyph-name="quotedbl" unicode="&#x22;" horiz-adv-x="373" 
d="M253 447l37 259h90l-37 -259h-90zM83 447l37 259h90l-37 -259h-90z" />
    <glyph glyph-name="numbersign" unicode="#" horiz-adv-x="607" 
d="M408 139l-40 -139h-72l40 139h-121l-40 -139h-72l39 139h-114l24 66h111l43 148h-115l25 67h110l35 123h73l-36 -123h120l35 123h72l-36 -123h116l-24 -67h-111l-43 -148h114l-23 -66h-110zM398 353h-120l-44 -148h122z" />
    <glyph glyph-name="dollar" unicode="$" horiz-adv-x="513" 
d="M351 627c32 -1.33301 61.832 -5.50098 89.499 -12.501s48.5 -13.167 62.5 -18.5l-20 -152l-65 5l-3 73c-0.666992 8 -1.66699 13.833 -3 17.5s-5 6.83398 -11 9.50098c-14.667 6 -34.334 9.66699 -59.001 11l-30 -216c17.333 -6 34.5 -13 51.5 -21
s32.333 -17.833 46 -29.5s24.667 -25.667 33 -42s12.5 -36.166 12.5 -59.499c0 -54.667 -17.5 -98 -52.5 -130s-81.833 -51.667 -140.5 -59l-11 -83h-69l10 80c-37.333 1.33301 -72.166 6 -104.499 14s-56.166 16.333 -71.499 25l20 138h65l7 -72
c1.33301 -10 2.83301 -16.667 4.5 -20s6.16699 -6 13.5 -8c20 -6.66699 45 -10.334 75 -11.001l30 219c-18 6 -35.5 13 -52.5 21s-32.167 17.667 -45.5 29s-24 25.5 -32 42.5s-12 37.5 -12 61.5c0 29.333 5 54.833 15 76.5s23.5 40 40.5 55s37.167 27 60.5 36
s48 15.167 74 18.5l11 75h71zM176.999 457.999c0 -22.667 5.5 -40.667 16.5 -54s27.833 -25.333 50.5 -36l25 188c-29.333 -6 -52 -17.5 -68 -34.5s-24 -38.167 -24 -63.5zM367.999 172.999c0 21.333 -5.5 38.833 -16.5 52.5s-29.167 25.167 -54.5 34.5l-26 -193
c34 6 58.667 18.833 74 38.5s23 42.167 23 67.5z" />
    <glyph glyph-name="percent" unicode="%" horiz-adv-x="879" 
d="M221 257c-26 0 -48.001 4.00195 -66.001 12.002s-32.5 18.667 -43.5 32s-18.833 28.833 -23.5 46.5s-7 36.167 -7 55.5c0 31.333 4 60.166 12 86.499s20.167 49.166 36.5 68.499s36.5 34.5 60.5 45.5s52 16.5 84 16.5c48.667 0 84 -13.167 106 -39.5s33 -61.5 33 -105.5
c0 -32 -4.16699 -61.333 -12.5 -88s-20.666 -49.667 -36.999 -69s-36.333 -34.333 -60 -45s-51.167 -16 -82.5 -16zM174.999 -16.998l466 638h86l-465 -638h-87zM229.999 318.002c24.667 0 43.8311 5.83398 57.498 17.501s23.834 25.667 30.501 42
s10.834 33.166 12.501 50.499s2.5 32 2.5 44c0 25.333 -5 46 -15 62s-27.667 24 -53 24c-20 0 -36.833 -4.33301 -50.5 -13s-24.5 -20 -32.5 -34s-13.667 -29.833 -17 -47.5s-5 -35.5 -5 -53.5c0 -24.667 5 -46.167 15 -64.5s28.333 -27.5 55 -27.5zM633.996 -11.9971
c-26 0 -48.001 4.00195 -66.001 12.002s-32.5 18.667 -43.5 32s-19 28.833 -24 46.5s-7.5 36.167 -7.5 55.5c0 31.333 4.16699 60.166 12.5 86.499s20.5 49.166 36.5 68.499s36.167 34.5 60.5 45.5s52.5 16.5 84.5 16.5c48.667 0 84 -13.167 106 -39.5s33 -61.5 33 -105.5
c0 -32 -4.16699 -61.333 -12.5 -88s-20.666 -49.667 -36.999 -69s-36.333 -34.333 -60 -45s-51.167 -16 -82.5 -16zM642.995 49.0049c24.667 0 43.8311 5.83398 57.498 17.501s23.834 25.667 30.501 42s10.834 33.166 12.501 50.499s2.5 32 2.5 44c0 25.333 -5 46 -15 62
s-27.667 24 -53 24c-20 0 -36.833 -4.33301 -50.5 -13s-24.5 -20 -32.5 -34s-13.667 -29.833 -17 -47.5s-5 -35.5 -5 -53.5c0 -24.667 5 -46.167 15 -64.5s28.333 -27.5 55 -27.5z" />
    <glyph glyph-name="ampersand" unicode="&#x26;" horiz-adv-x="692" 
d="M602 321c-11.333 -0.666992 -17.335 -5.33594 -18.002 -14.0029l-37 -268c-11.333 -8 -25.5 -15.167 -42.5 -21.5s-35.667 -11.666 -56 -15.999s-41.666 -7.66602 -63.999 -9.99902s-44.5 -3.5 -66.5 -3.5c-84.667 0 -146 15.333 -184 46s-57 72 -57 124
c0 27.333 4.16699 51.5 12.5 72.5s19.5 39.167 33.5 54.5s30.333 28.166 49 38.499s38 18.166 58 23.499c-26.667 10 -48.5 26.667 -65.5 50s-25.5 51 -25.5 83c0 29.333 5.66699 56 17 80s27.333 44.5 48 61.5s45.5 30.167 74.5 39.5s61.5 14 97.5 14
c20.667 0 41 -1.33301 61 -4s38.667 -6.16699 56 -10.5s32.833 -9.16602 46.5 -14.499s24.5 -10.666 32.5 -15.999l-23 -137l-66 5l-4 71c-0.666992 6 -1.5 10.5 -2.5 13.5s-4.16699 5.5 -9.5 7.5c-12.667 4.66699 -27 7.66699 -43 9s-30.667 2 -44 2
c-15.333 0 -31.666 -1.5 -48.999 -4.5s-33.333 -8.83301 -48 -17.5s-26.834 -20.667 -36.501 -36s-14.5 -35.666 -14.5 -60.999c0 -32 10.333 -56.833 31 -74.5s49.334 -26.5 86.001 -26.5h56l-10 -72c-30.667 0 -59.5 -1.83301 -86.5 -5.5s-50.5 -10.5 -70.5 -20.5
s-35.833 -23.833 -47.5 -41.5s-17.5 -40.167 -17.5 -67.5c0 -22.667 3.83301 -41.334 11.5 -56.001s18.334 -26.167 32.001 -34.5s29.667 -14.166 48 -17.499s37.833 -5 58.5 -5c28.667 0 52.5 1.5 71.5 4.5s34.167 6.83301 45.5 11.5c10 4 16.667 8.33301 20 13
s5.66602 11.667 6.99902 21l37 257l23 12h124l-8 -55z" />
    <glyph glyph-name="quotesingle" unicode="'" horiz-adv-x="203" 
d="M83 447l37 259h90l-37 -259h-90z" />
    <glyph glyph-name="parenleft" unicode="(" horiz-adv-x="315" 
d="M155 -158c-24.667 46 -46.334 99.832 -65.001 161.499s-28 128.5 -28 200.5c0 54.667 6.5 106.5 19.5 155.5s30.333 95.5 52 139.5s46 85.167 73 123.5s54.5 73.833 82.5 106.5l62 -42c-32.667 -42.667 -61.167 -83.5 -85.5 -122.5s-44.666 -77.667 -60.999 -116
s-28.5 -77.666 -36.5 -117.999s-12 -83.5 -12 -129.5c0 -64.667 7.5 -122.5 22.5 -173.5s32.5 -99.833 52.5 -146.5z" />
    <glyph glyph-name="parenright" unicode=")" horiz-adv-x="311" 
d="M-19 -116c32.667 42.667 61.167 83.501 85.5 122.501s44.666 77.667 60.999 116s28.5 77.666 36.5 117.999s12 83.5 12 129.5c0 64.667 -7.5 122.5 -22.5 173.5s-32.5 99.833 -52.5 146.5l76 39c24.667 -46 46.334 -99.833 65.001 -161.5s28 -128.5 28 -200.5
c0 -54.667 -6.5 -106.5 -19.5 -155.5s-30.333 -95.5 -52 -139.5s-46 -85.167 -73 -123.5s-54.5 -73.833 -82.5 -106.5z" />
    <glyph glyph-name="asterisk" unicode="*" horiz-adv-x="471" 
d="M117 443l48 50l90 65l-101 13l-59 22l35 71l59 -22l80 -54l-7 102l10 65h75l-10 -65l-35 -102h-33l-14 -30l27 -20l-62 -92l-48 -51zM350 397l-34 49l-34 92l26 19l-6 31l96 54l64 22l16 -71l-65 -22l-105 -14l70 -66l35 -50z" />
    <glyph glyph-name="plus" unicode="+" horiz-adv-x="570" 
d="M225 128l22 153h-147l11 81h147l21 150h83l-21 -150h147l-11 -81h-147l-22 -153h-83z" />
    <glyph glyph-name="comma" unicode="," horiz-adv-x="205" 
d="M13 -101l44.999 105.001c2 5.33301 0.666992 8.66602 -4 9.99902l-32 14l33 83c29.333 -0.666992 53.5 -4.16699 72.5 -10.5s28.5 -20.5 28.5 -42.5c0 -11.333 -2.16699 -22 -6.5 -32s-10.166 -20.667 -17.499 -32l-74 -112z" />
    <glyph glyph-name="hyphen" unicode="-" horiz-adv-x="311" 
d="M33 247l13 89h271l-13 -89h-271z" />
    <glyph glyph-name="period" unicode="." horiz-adv-x="232" 
d="M172 64c0 -21.333 -6.16699 -39.333 -18.5 -54s-31.5 -22 -57.5 -22c-38.667 0 -58 16.333 -58 49c0 22 6 40.333 18 55s31.333 22 58 22c38.667 0 58 -16.667 58 -50z" />
    <glyph glyph-name="slash" unicode="/" horiz-adv-x="387" 
d="M-31 -92l398 847h86l-397 -847h-87z" />
    <glyph glyph-name="zero" unicode="0" horiz-adv-x="552" 
d="M526 288c-5.33301 -41.333 -13.8291 -80.3359 -25.4961 -117.003s-28.334 -68.5 -50.001 -95.5s-48.834 -48.333 -81.501 -64s-72.667 -23.5 -120 -23.5c-38.667 0 -71 5.5 -97 16.5s-46.833 26.167 -62.5 45.5s-26.834 42 -33.501 68s-10 54 -10 84
c0 28.667 2 57.334 6 86.001c5.33301 40.667 14.333 79 27 115s30.167 67.333 52.5 94s50.166 47.834 83.499 63.501s73 23.5 119 23.5c37.333 0 68.5 -5.66699 93.5 -17s45.167 -26.666 60.5 -45.999s26.333 -41.833 33 -67.5s10 -53.167 10 -82.5
c0 -13.333 -0.333008 -27 -1 -41s-2 -28 -4 -42zM256.004 57.9971c27.333 0 51.165 5.33398 71.498 16.001s37.5 25.667 51.5 45s25.333 43.166 34 71.499s15.334 59.833 20.001 94.5c4 30 6 57.333 6 82c0 43.333 -8.5 78.166 -25.5 104.499s-46.833 39.5 -89.5 39.5
c-55.333 0 -96.666 -19.667 -123.999 -59s-46 -95.666 -56 -168.999c-2 -14 -3.33301 -27.333 -4 -40s-1 -24.667 -1 -36c0 -22 2 -42.167 6 -60.5s10.5 -34 19.5 -47s21 -23.167 36 -30.5s33.5 -11 55.5 -11z" />
    <glyph glyph-name="one" unicode="1" horiz-adv-x="347" 
d="M0 0l6.99902 50.999l98 6c6 0.666992 9.83301 2.33398 11.5 5.00098s3.16699 7.66699 4.5 15l56 402c1.33301 7.33301 1 12.333 -1 15s-5.66699 4.66699 -11 6l-89 18l9 51h193l-68 -492c-1.33301 -8 -1.16602 -13.167 0.500977 -15.5s6.16699 -3.83301 13.5 -4.5l83 -7
l-7 -50h-300z" />
    <glyph glyph-name="two" unicode="2" horiz-adv-x="490" 
d="M13 0l8.99805 61.998l196 174l66 59.5c18.667 17 34.167 33 46.5 48s21.5 29.833 27.5 44.5s9 30.334 9 47.001c0 25.333 -7.83301 44.5 -23.5 57.5s-43.5 19.5 -83.5 19.5c-36 0 -62.667 -7 -80 -21s-28.666 -41.667 -33.999 -83l-84 10c4 36 13 64.833 27 86.5
s30.667 38.334 50 50.001s40.333 19.5 63 23.5s45.334 6 68.001 6c34.667 0 63.834 -3.33301 87.501 -10s42.667 -16 57 -28s24.666 -26.5 30.999 -43.5s9.5 -36.167 9.5 -57.5c0 -29.333 -5.33301 -55.833 -16 -79.5s-25 -46 -43 -67s-38.667 -41.5 -62 -61.5l-73 -62
l-126 -107h205c5.33301 0 9 0.5 11 1.5s3.66699 4.16699 5 9.5l28 85h64l-23 -164h-412z" />
    <glyph glyph-name="three" unicode="3" horiz-adv-x="487" 
d="M322 262c30.667 -7.33301 56.3379 -22.001 77.0049 -44.001s31 -53.333 31 -94c0 -30.667 -5.33301 -58.834 -16 -84.501s-26 -47.5 -46 -65.5s-44.667 -32 -74 -42s-63 -15 -101 -15c-48 0 -90 8.83301 -126 26.5s-62.333 38.167 -79 61.5l59 56
c15.333 -18.667 35 -34.667 59 -48s54 -20 90 -20c18 0 35.5 2 52.5 6s32.167 11 45.5 21s24 23.333 32 40s12 37.334 12 62.001c0 34.667 -10.5 60.5 -31.5 77.5s-50.833 25.5 -89.5 25.5c-11.333 0 -22.333 -0.5 -33 -1.5s-22.667 -2.5 -36 -4.5l9 69l58 6
c49.333 5.33301 86.666 20 111.999 44s38 55 38 93c0 24 -7 43.5 -21 58.5s-38 22.5 -72 22.5c-20 0 -37.167 -1.5 -51.5 -4.5s-26.333 -8.33301 -36 -16s-17.334 -18.167 -23.001 -31.5s-9.83398 -30.666 -12.501 -51.999l-85 10c3.33301 35.333 12 63.833 26 85.5
s31.167 38.5 51.5 50.5s42.666 20 66.999 24s48.5 6 72.5 6c63.333 0 108.5 -13.167 135.5 -39.5s40.5 -61.166 40.5 -104.499c0 -42 -11.833 -77.833 -35.5 -107.5s-56.834 -51.834 -99.501 -66.501v-4z" />
    <glyph glyph-name="four" unicode="4" horiz-adv-x="501" 
d="M285 -67l20 146h-282l10 66l281 432l66 -39l-251 -385h187l27 197l86 11l-29 -208h87l-11 -74h-88l-18 -146h-85z" />
    <glyph glyph-name="five" unicode="5" horiz-adv-x="495" 
d="M198 491l-41.9971 -194c17.333 11.333 37.5 20.833 60.5 28.5s47.5 11.5 73.5 11.5c50 0 89.833 -14.667 119.5 -44s44.5 -72.666 44.5 -129.999c0 -34 -5.83301 -66 -17.5 -96s-28.334 -56.167 -50.001 -78.5s-48.167 -39.833 -79.5 -52.5s-67 -19 -107 -19
c-48.667 0 -90.667 8.16699 -126 24.5s-63.333 37.166 -84 62.499l60 58c18.667 -21.333 40 -38.333 64 -51s52.667 -19 86 -19c20 0 39.5 3 58.5 9s36.167 15.5 51.5 28.5s27.666 29.667 36.999 50s14 44.833 14 73.5c0 21.333 -2.83301 39 -8.5 53
s-13.167 25.167 -22.5 33.5s-19.833 14.333 -31.5 18s-23.834 5.5 -36.501 5.5c-27.333 0 -52 -4.66699 -74 -14s-41.333 -20 -58 -32l-60 29l65 323h342l-10 -78h-269z" />
    <glyph glyph-name="six" unicode="6" horiz-adv-x="533" 
d="M476 527c-17.333 16.667 -35.333 28.5029 -54 35.5029s-38.667 10.5 -60 10.5c-32.667 0 -60.667 -7.83301 -84 -23.5s-42.833 -35.334 -58.5 -59.001s-27.667 -49 -36 -76s-14.166 -51.833 -17.499 -74.5c19.333 15.333 43.666 29.666 72.999 42.999s62.333 20 99 20
c51.333 0 90.166 -14.667 116.499 -44s39.5 -69 39.5 -119c0 -38.667 -5.33301 -73.5 -16 -104.5s-26.334 -57.5 -47.001 -79.5s-45.667 -38.833 -75 -50.5s-62.666 -17.5 -99.999 -17.5c-36 0 -66.167 6.33301 -90.5 19s-43.833 30.167 -58.5 52.5s-25.167 48.5 -31.5 78.5
s-9.5 62.333 -9.5 97c0 24.667 2 52 6 82s10.5 60.167 19.5 90.5s21 60 36 89s33.5 54.667 55.5 77s47.833 40.333 77.5 54s63.834 20.5 102.501 20.5c30 0 59.333 -4.83301 88 -14.5s54 -25.834 76 -48.501zM161 269.003l-2.00098 -24.501
c-0.666992 -8.33301 -1 -17.166 -1 -26.499c0 -18 1.33301 -36.333 4 -55s7.83398 -35.834 15.501 -51.501s18.5 -28.334 32.5 -38.001s32.333 -14.5 55 -14.5c44.667 0 78.5 15.833 101.5 47.5s34.5 72.834 34.5 123.501c0 34 -7 59.5 -21 76.5s-36.667 25.5 -68 25.5
c-15.333 0 -30.333 -2 -45 -6s-28.667 -9.16699 -42 -15.5s-25.5 -13.166 -36.5 -20.499s-20.167 -14.333 -27.5 -21z" />
    <glyph glyph-name="seven" unicode="7" horiz-adv-x="494" 
d="M115 -67c14 68.667 32.832 131.834 56.499 189.501s49.167 109.667 76.5 156s55.166 87.333 83.499 123s54.166 65.5 77.499 89.5h-239c-5.33301 0 -9.16602 -0.666992 -11.499 -2s-4.16602 -4.33301 -5.49902 -9l-29 -91l-61 -4l23 184h437l-9 -68
c-31.333 -28.667 -63.166 -65 -95.499 -109s-62.5 -91.5 -90.5 -142.5s-52.5 -103.833 -73.5 -158.5s-35.5 -107.334 -43.5 -158.001h-96z" />
    <glyph glyph-name="eight" unicode="8" horiz-adv-x="485" 
d="M362 329c25.333 -16 47.165 -34.6689 65.498 -56.002s27.5 -50.666 27.5 -87.999c0 -32 -6.16699 -60.333 -18.5 -85s-29.5 -45.167 -51.5 -61.5s-47.833 -28.833 -77.5 -37.5s-61.834 -13 -96.501 -13c-55.333 0 -99.833 12.167 -133.5 36.5s-50.5 60.5 -50.5 108.5
c0 24 4 46 12 66s18.5 38.667 31.5 56s28.333 33.5 46 48.5s35.834 28.833 54.501 41.5c-21.333 13.333 -39 29.833 -53 49.5s-21 44.834 -21 75.501c0 28.667 5.66699 54.167 17 76.5s26.833 41 46.5 56s42.334 26.333 68.001 34s52.5 11.5 80.5 11.5
c56.667 0 99.334 -12.5 128.001 -37.5s43 -56.5 43 -94.5c0 -19.333 -3.5 -38 -10.5 -56s-16.167 -35 -27.5 -51s-24 -30.833 -38 -44.5s-28 -25.5 -42 -35.5zM231.999 308.998c-39.333 -26 -69.167 -52.167 -89.5 -78.5s-30.5 -54.166 -30.5 -83.499
c0 -28.667 10.167 -50.834 30.5 -66.501s48.5 -23.5 84.5 -23.5c40 0 72.5 11 97.5 33s37.5 49.667 37.5 83c0 31.333 -11.833 57 -35.5 77s-55.167 39.667 -94.5 59zM298.998 361.998c26.667 21.333 49.335 43.834 68.002 67.501s28 49.5 28 77.5
c0 26.667 -9.33301 45.334 -28 56.001s-40.667 16 -66 16c-32 0 -59 -8.16699 -81 -24.5s-33 -39.5 -33 -69.5c0 -14.667 3.16699 -27.834 9.5 -39.501s14.666 -22.334 24.999 -32.001s22.166 -18.667 35.499 -27s27.333 -16.5 42 -24.5z" />
    <glyph glyph-name="nine" unicode="9" horiz-adv-x="526" 
d="M77 47c17.333 -16 36.502 -29.1699 57.502 -39.5029s43.833 -15.5 68.5 -15.5c34 0 62.5 8 85.5 24s41.5 35.667 55.5 59s24.667 48.5 32 75.5s12.666 51.5 15.999 73.5c-19.333 -15.333 -43.5 -29.5 -72.5 -42.5s-62.5 -19.5 -100.5 -19.5
c-51.333 0 -90.166 14.833 -116.499 44.5s-39.5 68.834 -39.5 117.501c0 38.667 5.33301 74 16 106s26 59.333 46 82s44.833 40.334 74.5 53.001s63.5 19 101.5 19c36 0 66.167 -6.33301 90.5 -19s43.666 -30 57.999 -52s24.666 -48.167 30.999 -78.5
s9.5 -63.166 9.5 -98.499c0 -23.333 -1.5 -50 -4.5 -80s-8.5 -60.5 -16.5 -91.5s-18.833 -61.333 -32.5 -91s-31.167 -56.167 -52.5 -79.5s-47 -42 -77 -56s-65 -21 -105 -21c-30 0 -61.333 5.66699 -94 17s-59.667 29 -81 53zM396.002 296.997
c0.666992 7.33301 1.16797 15.5029 1.50098 24.5029s0.5 20.5 0.5 34.5c0 18 -1.33301 36.333 -4 55s-7.83398 35.5 -15.501 50.5s-18.5 27.333 -32.5 37s-32 14.5 -54 14.5c-42.667 0 -76 -15.833 -100 -47.5s-36 -73.834 -36 -126.501c0 -34 6.66699 -60.167 20 -78.5
s36 -27.5 68 -27.5c15.333 0 30.333 2.16699 45 6.5s28.667 9.66602 42 15.999s25.5 13.166 36.5 20.499s20.5 14.333 28.5 21z" />
    <glyph glyph-name="colon" unicode=":" horiz-adv-x="232" 
d="M228 454c0 -21.333 -6.16699 -39.333 -18.5 -54s-31.5 -22 -57.5 -22c-38.667 0 -58 16.333 -58 49c0 22 6 40.333 18 55s31.333 22 58 22c38.667 0 58 -16.667 58 -50zM172 64c0 -21.333 -6.16699 -39.333 -18.5 -54s-31.5 -22 -57.5 -22c-38.667 0 -58 16.333 -58 49
c0 22 6 40.333 18 55s31.333 22 58 22c38.667 0 58 -16.667 58 -50z" />
    <glyph glyph-name="semicolon" unicode=";" horiz-adv-x="205" 
d="M13 -101l44.999 105.001c2 5.33301 0.666992 8.66602 -4 9.99902l-32 14l33 83c29.333 -0.666992 53.5 -4.16699 72.5 -10.5s28.5 -20.5 28.5 -42.5c0 -11.333 -2.16699 -22 -6.5 -32s-10.166 -20.667 -17.499 -32l-74 -112zM218.999 454.001
c0 -21.333 -6.16699 -39.333 -18.5 -54s-31.5 -22 -57.5 -22c-38.667 0 -58 16.333 -58 49c0 22 6 40.333 18 55s31.333 22 58 22c38.667 0 58 -16.667 58 -50z" />
    <glyph glyph-name="less" unicode="&#x3c;" horiz-adv-x="570" 
d="M110 239l14 100l393 154l16 -78l-333 -125l302 -121l-35 -75z" />
    <glyph glyph-name="equal" unicode="=" horiz-adv-x="570" 
d="M94 159l11 83h374l-11 -83h-374zM116 321l12 83h374l-12 -83h-374z" />
    <glyph glyph-name="greater" unicode="&#x3e;" horiz-adv-x="570" 
d="M83 94l-10 80l336 120l-298 126l34 73l350 -154l-14 -100z" />
    <glyph glyph-name="question" unicode="?" horiz-adv-x="477" 
d="M149 186l25.0049 176.998c30 3.33301 59.167 8.5 87.5 15.5s53.333 17.833 75 32.5s39.167 33.5 52.5 56.5s20 51.833 20 86.5c0 63.333 -37.667 95 -113 95c-19.333 0 -35.333 -0.666992 -48 -2s-23.334 -3 -32.001 -5c-7.33301 -2 -12.333 -4.5 -15 -7.5
s-4.66699 -7.16699 -6 -12.5l-21 -67l-72 -4l19 137c17.333 6.66699 42.666 14.334 75.999 23.001s69.666 13 108.999 13c29.333 0 56.166 -2.83301 80.499 -8.5s45.333 -15.167 63 -28.5s31.5 -30.833 41.5 -52.5s15 -48.5 15 -80.5
c0 -37.333 -6.16699 -70.166 -18.5 -98.499s-29.5 -52.833 -51.5 -73.5s-48.333 -37.5 -79 -50.5s-64.334 -22.5 -101.001 -28.5l-16 -117h-91zM243.005 61.998c0 -49.333 -25.333 -74 -76 -74c-38.667 0 -58 17.333 -58 52c0 49.333 25.333 74 76 74
c38.667 0 58 -17.333 58 -52z" />
    <glyph glyph-name="at" unicode="@" horiz-adv-x="829" 
d="M567 -143c-17.333 -7.33301 -43.166 -14.999 -77.499 -22.999s-76.5 -12 -126.5 -12c-48 0 -91.333 6 -130 18s-71.834 30.167 -99.501 54.5s-48.834 55.166 -63.501 92.499s-22 81 -22 131c0 65.333 11.833 125.5 35.5 180.5s55.834 102.5 96.501 142.5
s88.334 71.167 143.001 93.5s112.667 33.5 174 33.5c45.333 0 86.333 -5.83301 123 -17.5s68 -28.667 94 -51s46 -49.833 60 -82.5s21 -70 21 -112c0 -34 -4 -69.667 -12 -107s-21.167 -71.5 -39.5 -102.5s-42.5 -56.667 -72.5 -77s-67.333 -30.5 -112 -30.5
c-33.333 0 -57 6.83301 -71 20.5s-21.333 31.5 -22 53.5c-22.667 -19.333 -46 -36.5 -70 -51.5s-49 -22.5 -75 -22.5c-60.667 0 -91 34.667 -91 104c0 33.333 5.83301 67.833 17.5 103.5s28.5 68.5 50.5 98.5s48.833 54.667 80.5 74s67.5 29 107.5 29
c25.333 0 49.333 -3.16699 72 -9.5s41.667 -13.833 57 -22.5l-36 -121c-8 -25.333 -15.667 -50.833 -23 -76.5s-12.666 -46.167 -15.999 -61.5c-0.666992 -3.33301 -1.16699 -6.5 -1.5 -9.5s-0.5 -6.16699 -0.5 -9.5c0 -11.333 3.16699 -20.5 9.5 -27.5
s17.833 -10.5 34.5 -10.5c19.333 0 37.166 6.66699 53.499 20s30.833 31.166 43.5 53.499s22.5 48 29.5 77s10.5 58.833 10.5 89.5c0 70.667 -19.833 123.834 -59.5 159.501s-98.834 53.5 -177.501 53.5c-53.333 0 -101.833 -10.167 -145.5 -30.5
s-81.167 -47.833 -112.5 -82.5s-55.5 -75 -72.5 -121s-25.5 -95 -25.5 -147c0 -74.667 21.5 -132.167 64.5 -172.5s106.5 -60.5 190.5 -60.5c30 0 59.833 2.83301 89.5 8.5s58.167 13.167 85.5 22.5zM529 321.001c-7.33301 5.33301 -16.168 9.5 -26.501 12.5
s-21.166 4.5 -32.499 4.5c-18 0 -36.5 -6 -55.5 -18s-36.5 -28 -52.5 -48s-29 -43.5 -39 -70.5s-15 -55.5 -15 -85.5c0 -16 2.16699 -29.667 6.5 -41s15.166 -17 32.499 -17c9.33301 0 19.5 2.16699 30.5 6.5s22 9.83301 33 16.5s21.833 14.167 32.5 22.5
s20.334 16.833 29.001 25.5z" />
    <glyph glyph-name="A" unicode="A" horiz-adv-x="699" 
d="M428 0l6.99902 47.001l85 9l-31 165h-274l-75 -165l77 -9l-8 -47h-223l7 47l43 11c7.33301 2 13.333 5 18 9s8.33398 8.66699 11.001 14l302 643h113l132 -649c2 -8.66699 9 -14.334 21 -17.001l43 -11l-7 -47h-241zM408.999 643.001l-162 -349h230z" />
    <glyph glyph-name="B" unicode="B" horiz-adv-x="646" 
d="M35 0l7.00293 48.0049l62 7c7.33301 1.33301 12 3.16602 14 5.49902s3.66699 7.16602 5 14.499l79 572c1.33301 7.33301 1.16602 12.333 -0.500977 15s-5.83398 4.33398 -12.501 5.00098l-61 8l7 49h292c36.667 0 67.167 -4 91.5 -12s44 -18.833 59 -32.5
s25.667 -29.834 32 -48.501s9.5 -38.667 9.5 -60c0 -28.667 -4.16699 -53.834 -12.5 -75.501s-19.5 -40.334 -33.5 -56.001s-29.667 -28.334 -47 -38.001s-35 -17.167 -53 -22.5l-1 -4c48 -5.33301 84 -21.5 108 -48.5s36 -61.5 36 -103.5s-7.16699 -77.167 -21.5 -105.5
s-34.5 -51.333 -60.5 -69s-56.833 -30.167 -92.5 -37.5s-74.834 -11 -117.501 -11h-289zM323.003 73.0049c28.667 0 55.167 1.83301 79.5 5.5s45.5 10.667 63.5 21s32 25.333 42 45s15 45.5 15 77.5c0 20.667 -3.66699 38.167 -11 52.5s-17.5 26 -30.5 35
s-28.167 15.5 -45.5 19.5s-36.333 6 -57 6h-132l-35 -262h111zM344.003 405.005c21.333 0 42.832 2 64.499 6s41.334 11.667 59.001 23s32 26.833 43 46.5s16.5 45.167 16.5 76.5c0 37.333 -11.5 62.333 -34.5 75s-56.5 19 -100.5 19h-101l-33 -246h86z" />
    <glyph glyph-name="C" unicode="C" horiz-adv-x="662" 
d="M595 41c-29.333 -18 -65.8369 -31.333 -109.504 -40s-88.167 -13 -133.5 -13c-51.333 0 -95.166 7.66699 -131.499 23s-66.166 36.833 -89.499 64.5s-40.5 60.5 -51.5 98.5s-16.5 79.667 -16.5 125c0 63.333 8.83301 121.833 26.5 175.5s43.667 100 78 139
s77 69.333 128 91s109.833 32.5 176.5 32.5c43.333 0 83.5 -4.83301 120.5 -14.5s66.833 -22.834 89.5 -39.501l-22 -160l-66 4l-4 96c0 5.33301 -0.5 9.33301 -1.5 12s-4.16699 5 -9.5 7c-15.333 6 -32.833 10.833 -52.5 14.5s-41.167 5.5 -64.5 5.5
c-44 0 -84.5 -7.83301 -121.5 -23.5s-69 -38.667 -96 -69s-48 -67.5 -63 -111.5s-22.5 -94.333 -22.5 -151c0 -80 17.333 -140.833 52 -182.5s87.334 -62.5 158.001 -62.5c23.333 0 47.833 1.5 73.5 4.5s48.167 8.83301 67.5 17.5
c6.66699 2.66699 11.334 8.33398 14.001 17.001l29 91h63z" />
    <glyph glyph-name="D" unicode="D" horiz-adv-x="752" 
d="M35 0l8.00293 49.9971l62 7c6 0.666992 10 2 12 4s3.66699 6.66699 5 14l80 573c1.33301 7.33301 1.16602 12.333 -0.500977 15s-5.83398 4.33398 -12.501 5.00098l-61 7l7 49h293c54 0 100.333 -7 139 -21s70.667 -33.833 96 -59.5s44 -56.667 56 -93
s18 -76.833 18 -121.5c0 -62 -8.33301 -119.167 -25 -171.5s-42.334 -97.666 -77.001 -135.999s-78.667 -68.166 -132 -89.499s-116.333 -32 -189 -32h-279zM320.003 70.9971c52.667 0 99 8.33105 139 24.998s73.667 40.334 101 71.001s48 68 62 112s21 93 21 147
c0 42.667 -5.5 78.5 -16.5 107.5s-27 52.333 -48 70s-46.333 30.334 -76 38.001s-63.167 11.5 -100.5 11.5h-109l-80 -582h107z" />
    <glyph glyph-name="E" unicode="E" horiz-adv-x="616" 
d="M36 0l6.00098 49.001l63 7c7.33301 1.33301 11.833 3.16602 13.5 5.49902s3.16699 7.16602 4.5 14.499l79 571c1.33301 7.33301 1.33301 12.333 0 15s-5.66602 4.33398 -12.999 5.00098l-60 7l6 50h492l-23 -165l-62 4l-3 77c-0.666992 8.66699 -6 13 -16 13h-230
l-34 -252h261l-10 -72h-262l-35 -258h252c5.33301 0 9.16602 0.5 11.499 1.5s4.16602 4.16699 5.49902 9.5l28 87h62l-23 -169h-513z" />
    <glyph glyph-name="F" unicode="F" horiz-adv-x="591" 
d="M37 0l6 49.001l62 7c7.33301 1.33301 12 3.16602 14 5.49902s3.66699 7.16602 5 14.499l78 571c1.33301 7.33301 1.33301 12.333 0 15s-5.66602 4.33398 -12.999 5.00098l-60 7l7 50h488l-23 -165l-63 4l-3 77c-0.666992 8.66699 -5.66699 13 -15 13h-227l-34 -249h258
l-10 -72h-258l-35 -255c-1.33301 -8 -1.33301 -13.167 0 -15.5s5.66602 -3.83301 12.999 -4.5l143 -8l-6 -49h-327z" />
    <glyph glyph-name="G" unicode="G" horiz-adv-x="715" 
d="M670 278c-11.333 -0.666992 -17.332 -5.33594 -17.999 -14.0029l-32 -235c-16 -7.33301 -34 -13.666 -54 -18.999s-40.5 -9.66602 -61.5 -12.999s-42.333 -5.66602 -64 -6.99902s-42.5 -2 -62.5 -2c-56.667 0 -105.167 7.83301 -145.5 23.5s-73 37.5 -98 65.5
s-43.333 61.167 -55 99.5s-17.5 79.833 -17.5 124.5c0 62 8.66699 119.5 26 172.5s43.333 99 78 138s77.5 69.667 128.5 92s109.833 33.5 176.5 33.5c42 0 82 -4.66699 120 -14s68.333 -22.666 91 -39.999l-21 -159l-66 5l-4 92c0 4.66699 -0.5 8.5 -1.5 11.5
s-4.16699 5.5 -9.5 7.5c-15.333 6 -34 11.167 -56 15.5s-44.667 6.5 -68 6.5c-44 0 -84.333 -8 -121 -24s-68.167 -39.167 -94.5 -69.5s-46.833 -67.333 -61.5 -111s-22 -92.834 -22 -147.501c0 -82.667 19.667 -144.5 59 -185.5s96.666 -61.5 171.999 -61.5
c24.667 0 49.667 1.5 75 4.5s46 6.83301 62 11.5c3.33301 1.33301 6.33301 3 9 5s4.66699 6 6 12l24 176h-133l20 65h268l-8 -55z" />
    <glyph glyph-name="H" unicode="H" horiz-adv-x="792" 
d="M463 0l8 49.002l62 7c7.33301 1.33301 11.833 3.16602 13.5 5.49902s3.16699 7.16602 4.5 14.499l36 261h-336l-38 -260c-1.33301 -8 -1.33301 -13 0 -15s5.66602 -3.66699 12.999 -5l65 -8l-7 -49h-249l7 49l63 7c7.33301 1.33301 11.833 3.16602 13.5 5.49902
s3.16699 7.16602 4.5 14.499l80 572c1.33301 7.33301 1.33301 12.333 0 15s-5.66602 4.33398 -12.999 5.00098l-60 7l6 49h249l-7 -49l-67 -8c-7.33301 -1.33301 -11.833 -3 -13.5 -5s-3.16699 -6.66699 -4.5 -14l-32 -239h336l34 239c1.33301 7.33301 1.33301 12.333 0 15
s-5.33301 4.33398 -12 5.00098l-61 7l5 49h249l-6 -49l-66 -8c-7.33301 -1.33301 -12 -3 -14 -5s-3.66699 -6.66699 -5 -14l-79 -571c-1.33301 -8 -1.33301 -13 0 -15s5.33301 -3.66699 12 -5l65 -8l-7 -49h-249z" />
    <glyph glyph-name="I" unicode="I" horiz-adv-x="364" 
d="M27 0l5 48.998l73 7c7.33301 0.666992 11.833 2.33398 13.5 5.00098s3.16699 7.66699 4.5 15l80 572c1.33301 7.33301 1.33301 12.333 0 15s-5.66602 4.33398 -12.999 5.00098l-70 7l6 49h268l-6 -49l-76 -8c-7.33301 -1.33301 -11.833 -3 -13.5 -5
s-3.16699 -6.66699 -4.5 -14l-81 -571c-1.33301 -8 -1.33301 -13 0 -15s5.66602 -3.66699 12.999 -5l74 -8l-5 -49h-268z" />
    <glyph glyph-name="J" unicode="J" horiz-adv-x="484" 
d="M342 649c1.33301 7.33301 1.16602 12.168 -0.500977 14.501s-5.83398 3.83301 -12.501 4.5l-83 7l7 49h271l-7 -49l-67 -8c-7.33301 -1.33301 -11.666 -2.83301 -12.999 -4.5s-2.66602 -6.16699 -3.99902 -13.5l-71 -502c-7.33301 -54 -24.833 -94 -52.5 -120
s-71.167 -39 -130.5 -39c-38 0 -71.167 4.16699 -99.5 12.5s-47.166 15.833 -56.499 22.5l18 138l64 -4v-72c0 -3.33301 0.5 -6 1.5 -8s3.5 -4 7.5 -6c4.66699 -2 13.167 -4.33301 25.5 -7s27.166 -4 44.499 -4c30.667 0 52 7.66699 64 23s20.333 38.666 25 69.999z" />
    <glyph glyph-name="K" unicode="K" horiz-adv-x="716" 
d="M530 0l-4 3.99512l-54 99l-142 239l-91 -88l-26 -177c-1.33301 -8 -1.33301 -13 0 -15s5.66602 -3.66699 12.999 -5l67 -8l-7 -49h-248l6 49l61 7c6.66699 1.33301 11 3 13 5s3.66699 7.33301 5 16l80 571c1.33301 7.33301 1.33301 12.333 0 15
s-5.66602 4.33398 -12.999 5.00098l-60 7l7 49h248l-6 -49l-68 -8c-7.33301 -1.33301 -11.833 -3 -13.5 -5s-3.16699 -6.66699 -4.5 -14l-41 -289l314 307l-57 8l7 50h220l-7 -49l-50 -9c-9.33301 -1.33301 -15.666 -3.16602 -18.999 -5.49902
s-7.66602 -6.16602 -12.999 -11.499l-245 -239l195 -334c3.33301 -5.33301 6.66602 -9.16602 9.99902 -11.499s8.66602 -4.16602 15.999 -5.49902l58 -10l-7 -49h-144z" />
    <glyph glyph-name="L" unicode="L" horiz-adv-x="600" 
d="M37 0l6.00098 49l62 7c7.33301 1.33301 11.833 3.16602 13.5 5.49902s3.16699 7.16602 4.5 14.499l80 571c1.33301 7.33301 1.33301 12.333 0 15s-5.66602 4.33398 -12.999 5.00098l-60 7l6 50h265l-7 -50l-83 -8c-7.33301 -0.666992 -11.833 -2.16699 -13.5 -4.5
s-3.16699 -7.16602 -4.5 -14.499l-81 -576h253c5.33301 0 9.16602 0.5 11.499 1.5s4.16602 4.16699 5.49902 9.5l29 90h62l-23 -172h-513z" />
    <glyph glyph-name="M" unicode="M" horiz-adv-x="923" 
d="M578 0l4.99902 48.9961l85 7c6 0.666992 10 2.33398 12 5.00098s3.66699 7.66699 5 15l69 498l-250 -404h-89l-141 406l-70 -499c-1.33301 -8 -1.5 -13.167 -0.5 -15.5s5.16699 -3.83301 12.5 -4.5l86 -8l-6 -49h-259l5 49l63 7c7.33301 1.33301 12 3.16602 14 5.49902
s3.66699 7.5 5 15.5l79 570c1.33301 7.33301 1.33301 12.333 0 15s-5.66602 4.33398 -12.999 5.00098l-60 7l6 50h179l158 -469l282 469h189l-7 -49l-66 -8c-7.33301 -1.33301 -12 -3.16602 -14 -5.49902s-3.66699 -8.16602 -5 -17.499l-80 -568
c-1.33301 -6.66699 -1 -11.167 1 -13.5s6.33301 -4.16602 13 -5.49902l65 -8l-7 -49h-266z" />
    <glyph glyph-name="N" unicode="N" horiz-adv-x="815" 
d="M551 0l-273.998 611.003l-75 -534c-1.33301 -8 -1.33301 -13 0 -15s5.66602 -3.66699 12.999 -5l65 -8l-5 -49h-238l5 49l63 7c7.33301 1.33301 11.833 3.16602 13.5 5.49902s3.16699 7.16602 4.5 14.499l80 571c1.33301 7.33301 1.33301 12.166 0 14.499
s-5.66602 4.16602 -12.999 5.49902l-60 7l6 50h191l268 -608l73 532c1.33301 7.33301 1.16602 12.333 -0.500977 15s-5.83398 4.33398 -12.501 5.00098l-61 7l6 49h238l-7 -49l-67 -8c-7.33301 -1.33301 -11.833 -3 -13.5 -5s-3.16699 -6.66699 -4.5 -14l-90 -648h-105z" />
    <glyph glyph-name="O" unicode="O" horiz-adv-x="752" 
d="M348 -12c-50 0 -92.998 7.33301 -128.998 22s-65.833 35.167 -89.5 61.5s-41 57.833 -52 94.5s-16.5 76.667 -16.5 120c0 64.667 8.5 124.5 25.5 179.5s42.167 102.667 75.5 143s74.666 71.833 123.999 94.5s106.333 34 171 34c49.333 0 91.666 -7.5 126.999 -22.5
s64.5 -35.833 87.5 -62.5s39.833 -58.167 50.5 -94.5s16 -75.833 16 -118.5c0 -70 -9 -132.833 -27 -188.5s-43.833 -103 -77.5 -142s-74.5 -68.833 -122.5 -89.5s-102.333 -31 -163 -31zM360.002 65c39.333 0 76.001 7.33398 110.001 22.001s63.667 37 89 67
s45.5 67.667 60.5 113s22.833 98.333 23.5 159c0 32.667 -3.66699 63 -11 91c-12 46.667 -33.333 82.167 -64 106.5s-71.334 36.5 -122.001 36.5c-40 0 -77.333 -7.5 -112 -22.5s-65 -37.333 -91 -67s-46.5 -66.834 -61.5 -111.501s-23.167 -96.667 -24.5 -156
c0 -33.333 3.66699 -64 11 -92c23.333 -97.333 87.333 -146 192 -146z" />
    <glyph glyph-name="P" unicode="P" horiz-adv-x="639" 
d="M35 0l7.00195 49.001l63 7c7.33301 1.33301 12 3.16602 14 5.49902s3.66699 7.16602 5 14.499l79 572c1.33301 7.33301 1.16602 12.333 -0.500977 15s-6.16699 4.33398 -13.5 5.00098l-60 7l6 49h298c39.333 0 72.666 -4.66699 99.999 -14s49.5 -22.333 66.5 -39
s29.167 -36 36.5 -58s11 -46 11 -72c0 -46.667 -7 -87 -21 -121s-34.167 -61.833 -60.5 -83.5s-58.166 -37.667 -95.499 -48s-79.333 -15.5 -126 -15.5h-105l-27 -196c-0.666992 -8 -0.333984 -13.167 0.999023 -15.5s5.33301 -3.83301 12 -4.5l139 -8l-6 -49h-323z
M342.002 345.001c28 0 54.834 2.33105 80.501 6.99805s48.167 13.834 67.5 27.501s34.666 32.667 45.999 57s17 56.5 17 96.5c0 42.667 -13 73.334 -39 92.001s-64 28 -114 28h-108l-43 -308h93z" />
    <glyph glyph-name="Q" unicode="Q" horiz-adv-x="752" 
d="M654 -140c-11.333 -1.33301 -22.333 -2.33105 -33 -2.99805s-21 -1 -31 -1c-44 0 -81.5 5 -112.5 15s-58 21 -81 33l-61 33c-17.667 10 -35.167 15 -52.5 15c-16 0 -32.167 -2.83301 -48.5 -8.5s-35.166 -14.167 -56.499 -25.5l-32 57
c12.667 8.66699 25.834 15.834 39.501 21.501s26.5 10.167 38.5 13.5v3c-56.667 22 -98 57.167 -124 105.5s-39 104.166 -39 167.499c0 64.667 8.5 124.5 25.5 179.5s42.167 102.667 75.5 143s74.666 71.833 123.999 94.5s106.333 34 171 34
c49.333 0 91.666 -7.5 126.999 -22.5s64.5 -35.833 87.5 -62.5s39.833 -58.167 50.5 -94.5s16 -75.5 16 -117.5c0 -66.667 -8 -126.834 -24 -180.501s-39.5 -99.334 -70.5 -137.001s-69 -67 -114 -88s-96.5 -32.5 -154.5 -34.5v-3c36 -19.333 72 -35.5 108 -48.5
s73 -19.5 111 -19.5c10 0 20.333 0.5 31 1.5s21.667 2.16699 33 3.5zM356 65.002c39.333 0 76.167 7.33203 110.5 21.999s64.5 36.834 90.5 66.501s46.667 66.667 62 111s23.333 95.833 24 154.5c0 20.667 -1 38.834 -3 54.501s-4.66699 30.167 -8 43.5
c-12 46.667 -33.333 82.167 -64 106.5s-71.334 36.5 -122.001 36.5c-40 0 -77.333 -7.5 -112 -22.5s-65 -37.333 -91 -67s-46.5 -66.834 -61.5 -111.501s-23.167 -96.667 -24.5 -156c0 -33.333 3.66699 -64 11 -92c11.333 -48.667 32.333 -85.167 63 -109.5
s72.334 -36.5 125.001 -36.5z" />
    <glyph glyph-name="R" unicode="R" horiz-adv-x="660" 
d="M486 0l-6.00391 7l-69 260c-3.33301 14 -9.16602 24.5 -17.499 31.5s-21.166 10.5 -38.499 10.5h-109l-34 -232c-1.33301 -8 -1.33301 -13 0 -15s5.66602 -3.66699 12.999 -5l66 -8l-7 -49h-247l6 49l62 7c7.33301 1.33301 11.833 3.16602 13.5 5.49902
s3.16699 7.5 4.5 15.5l80 570c1.33301 7.33301 1.33301 12.333 0 15s-5.66602 4.33398 -12.999 5.00098l-60 7l6 50h295c38.667 0 70.834 -4.66699 96.501 -14s46.334 -22 62.001 -38s26.834 -34.5 33.501 -55.5s10 -43.167 10 -66.5c0 -50 -13.333 -93.667 -40 -131
s-68.667 -66 -126 -86c13.333 -6.66699 23.166 -17.5 29.499 -32.5s13.5 -39.167 21.5 -72.5l37 -150c2 -7.33301 5 -12 9 -14s9.66699 -3.66699 17 -5l60 -10l-7 -49h-148zM343.996 381c27.333 0 52.667 2.83301 76 8.5s43.833 15 61.5 28s31.5 29.667 41.5 50
s15 44.833 15 73.5c0 44 -14 73.333 -42 88s-70.333 22 -127 22h-76l-37 -270h88z" />
    <glyph glyph-name="S" unicode="S" horiz-adv-x="567" 
d="M481 538l-2.99707 85.999c0 4.66699 -1.16699 9.16699 -3.5 13.5s-6.83301 8.33301 -13.5 12s-16 6.5 -28 8.5s-28 3 -48 3c-22 0 -43.5 -2.5 -64.5 -7.5s-39.5 -12.667 -55.5 -23s-28.833 -23.666 -38.5 -39.999s-14.5 -35.833 -14.5 -58.5c0 -18 3.5 -33.333 10.5 -46
s16.5 -23.667 28.5 -33s25.833 -17.333 41.5 -24s32.167 -13.334 49.5 -20.001l64 -25c21.333 -8.66699 40.5 -20 57.5 -34s31 -31.5 42 -52.5s16.5 -47.167 16.5 -78.5c0 -41.333 -7.5 -76.666 -22.5 -105.999s-35.333 -53.166 -61 -71.499s-55.834 -31.833 -90.501 -40.5
s-71.667 -13 -111 -13c-22.667 0 -44.834 1.33301 -66.501 4s-41.667 5.83398 -60 9.50098s-34.5 7.66699 -48.5 12s-24.667 8.5 -32 12.5l22 164h66l6 -90c1.33301 -12 11.833 -21.333 31.5 -28s50.5 -10 92.5 -10c56 0 99.833 11.667 131.5 35s47.5 59.333 47.5 108
c0 20 -3.83301 36.833 -11.5 50.5s-18 25.334 -31 35.001s-27.667 18 -44 25s-33.5 13.5 -51.5 19.5c-20.667 7.33301 -41.334 15.166 -62.001 23.499s-39.167 19.166 -55.5 32.499s-29.5 30.166 -39.5 50.499s-15 45.833 -15 76.5c0 37.333 7.33301 69.833 22 97.5
s34.5 50.5 59.5 68.5s54 31.333 87 40s67.833 13 104.5 13c44 0 81.167 -4.16699 111.5 -12.5s53.5 -15.833 69.5 -22.5l-24 -170z" />
    <glyph glyph-name="T" unicode="T" horiz-adv-x="636" 
d="M134 0l7 50.998l100 7c6.66699 0.666992 11 2.33398 13 5.00098s3.66699 7.66699 5 15l80 575h-154c-5.33301 0 -9.16602 -0.5 -11.499 -1.5s-4.16602 -4.16699 -5.49902 -9.5l-27 -87h-63l23 169h588l-23 -169h-63l-4 87c-0.666992 5.33301 -1.83398 8.5 -3.50098 9.5
s-5.16699 1.5 -10.5 1.5h-155l-81 -575c-1.33301 -7.33301 -1.33301 -12.166 0 -14.499s5.66602 -3.83301 12.999 -4.5l109 -8l-7 -51h-330z" />
    <glyph glyph-name="U" unicode="U" horiz-adv-x="770" 
d="M622 648c0.666992 7.33301 0.5 12.3311 -0.5 14.998s-5.16699 4.33398 -12.5 5.00098l-61 7l7 49h243l-7 -49l-67 -8c-7.33301 -1.33301 -11.833 -3 -13.5 -5s-3.16699 -6.66699 -4.5 -14l-56 -408c-12 -88.667 -41.667 -152.834 -89 -192.501s-114 -59.5 -200 -59.5
c-80 0 -138.167 16.5 -174.5 49.5s-54.5 82.167 -54.5 147.5c0 9.33301 0.333008 18.833 1 28.5s1.66699 19.834 3 30.501l54 404c1.33301 7.33301 1.33301 12.333 0 15s-5.33301 4.33398 -12 5.00098l-61 7l7 49h249l-7 -49l-67 -8c-7.33301 -1.33301 -11.833 -3 -13.5 -5
s-3.16699 -6.66699 -4.5 -14l-55 -394c-1.33301 -10.667 -2.33301 -21 -3 -31s-1 -19 -1 -27c0 -48.667 12.833 -82.667 38.5 -102s62.5 -29 110.5 -29c58 0 103 13.833 135 41.5s52.667 76.167 62 145.5z" />
    <glyph glyph-name="V" unicode="V" horiz-adv-x="677" 
d="M261 0l-124 647c-1.33301 6 -3.83301 10 -7.5 12s-8.16699 3.66699 -13.5 5l-43 11l8 49h238l-7 -49l-82 -9l104 -584l258 584l-77 9l8 49h224l-8 -49l-42 -11c-7.33301 -2 -13.5 -5 -18.5 -9s-9.16699 -10 -12.5 -18l-284 -637h-121z" />
    <glyph glyph-name="W" unicode="W" horiz-adv-x="958" 
d="M586 0l-65 457l-193 -457h-111l-74 644c-1.33301 7.33301 -3 12.333 -5 15s-6.33301 4.66699 -13 6l-56 10l9 49h252l-7 -49l-88 -10l57 -563l199 476h100l67 -486l212 573l-85 10l7 49h240l-8 -49l-52 -9c-6 -1.33301 -11 -3.5 -15 -6.5s-7.66699 -9.16699 -11 -18.5
l-242 -641h-118z" />
    <glyph glyph-name="X" unicode="X" horiz-adv-x="685" 
d="M399 0l8 49.002l75 9l-131 248l-193 -248l70 -9l-7 -49h-225l5 47l52 11c10.667 2.66699 20 9 28 19l228 293l-146 277c-2.66699 5.33301 -5.5 9.16602 -8.5 11.499s-7.16699 4.16602 -12.5 5.49902l-42 11l8 49h229l-7 -49l-74 -9l118 -236l185 236l-70 9l9 49h214
l-7 -49l-44 -11c-11.333 -2.66699 -20.666 -9 -27.999 -19l-218 -274l161 -294c5.33301 -9.33301 12.666 -15.333 21.999 -18l49 -10l-7 -49h-241z" />
    <glyph glyph-name="Y" unicode="Y" horiz-adv-x="607" 
d="M133 0l6 48.999l95 7c6.66699 0.666992 10.834 2.33398 12.501 5.00098s3.16699 8 4.5 16l28 203l-146 367c-2.66699 5.33301 -5.5 9 -8.5 11s-7.16699 4 -12.5 6l-43 11l8 49h229l-8 -49l-74 -9l113 -303l194 303l-72 9l8 49h214l-7 -49l-42 -11
c-7.33301 -2 -13 -4.33301 -17 -7s-7.66699 -7 -11 -13l-234 -361l-28 -206c-1.33301 -8 -1.33301 -13.167 0 -15.5s5.66602 -3.83301 12.999 -4.5l96 -8l-6 -49h-312z" />
    <glyph glyph-name="Z" unicode="Z" horiz-adv-x="631" 
d="M25 0l7.99902 61l485 592h-293c-5.33301 0 -9.16602 -0.5 -11.499 -1.5s-4.16602 -4.16699 -5.49902 -9.5l-31 -93l-66 -3l25 178h505l-8 -63l-484 -590h321c5.33301 0 9.16602 0.5 11.499 1.5s4.5 4.16699 6.5 9.5l33 107h64l-25 -189h-535z" />
    <glyph glyph-name="bracketleft" unicode="[" horiz-adv-x="270" 
d="M42 -143l122.001 866.998h167l-6 -48l-67 -9c-7.33301 -1.33301 -12 -3 -14 -5s-3.66699 -6.66699 -5 -14l-100 -713c-1.33301 -7.33301 -1.33301 -12.166 0 -14.499s5.66602 -4.16602 12.999 -5.49902l65 -9l-8 -49h-167z" />
    <glyph glyph-name="backslash" unicode="\" horiz-adv-x="377" 
d="M259 -92l-161 847h82l162 -847h-83z" />
    <glyph glyph-name="bracketright" unicode="]" horiz-adv-x="262" 
d="M-31 -143l5.99902 48.002l67 9c7.33301 1.33301 12 3 14 5s3.66699 6.66699 5 14l100 713c1.33301 7.33301 1.33301 12.166 0 14.499s-5.66602 4.16602 -12.999 5.49902l-65 9l8 49h168l-122 -867h-168z" />
    <glyph glyph-name="asciicircum" unicode="^" horiz-adv-x="550" 
d="M447 299l-119 285l-194 -285h-90l248 365h93l148 -365h-86z" />
    <glyph glyph-name="underscore" unicode="_" 
d="M-43 -181l9 68h499l-9 -68h-499z" />
    <glyph glyph-name="grave" unicode="`" 
d="M398 567l-156 141l69 60l132 -164z" />
    <glyph glyph-name="a" unicode="a" horiz-adv-x="580" 
d="M376 0l11.9971 89.9971l-3 1c-28.667 -28.667 -58.167 -53 -88.5 -73s-64.5 -30 -102.5 -30c-48 0 -85 15.5 -111 46.5s-39 79.167 -39 144.5c0 38.667 4.33301 78.334 13 119.001s22.834 77.834 42.501 111.501s45.5 61.167 77.5 82.5s71.333 32 118 32
c29.333 0 56.166 -5.66699 80.499 -17s44.833 -24.333 61.5 -39l16 46h84c-5.33301 -20 -10.166 -40.167 -14.499 -60.5s-8.16602 -41.166 -11.499 -62.499l-44 -315c-1.33301 -8 -1.16602 -13 0.500977 -15s6.16699 -3.66699 13.5 -5l49 -7l-8 -49h-146zM423.997 395.997
c-13.333 13.333 -31.333 25.667 -54 37s-46.667 17 -72 17c-31.333 0 -57.5 -8.83301 -78.5 -26.5s-37.667 -39.667 -50 -66s-21.166 -54.833 -26.499 -85.5s-8 -59 -8 -85c0 -45.333 7.83301 -76.833 23.5 -94.5s36.5 -26.5 62.5 -26.5c15.333 0 30.666 3.66699 45.999 11
s30.5 16.5 45.5 27.5s29.333 23.333 43 37l38.5 39.5z" />
    <glyph glyph-name="b" unicode="b" horiz-adv-x="580" 
d="M56 0c5.33301 18.667 11.001 41.167 17.001 67.5s10.667 51.5 14 75.5l75 528c2 11.333 -1.33301 18.333 -10 21l-54 15l7 48h156l-47 -334c30.667 28 62.5 52.167 95.5 72.5s67.167 30.5 102.5 30.5c20 0 38.667 -3.5 56 -10.5s32.166 -18.333 44.499 -34
s22 -35.667 29 -60s10.5 -53.833 10.5 -88.5c0 -36 -4 -74 -12 -114s-21.5 -76.833 -40.5 -110.5s-44 -61.5 -75 -83.5s-69.5 -33 -115.5 -33c-30.667 0 -58 5.33301 -82 16s-46.667 26.667 -68 48l-3 -1l-12 -53h-88zM173.001 127
c15.333 -17.333 33.8311 -32.666 55.498 -45.999s44.834 -20 69.501 -20c30 0 55.167 8.33301 75.5 25s36.833 37.5 49.5 62.5s21.834 52.667 27.501 83s8.5 58.833 8.5 85.5c0 47.333 -7 80.166 -21 98.499s-32.667 27.5 -56 27.5c-15.333 0 -31.333 -3.83301 -48 -11.5
s-33 -17.167 -49 -28.5s-31.167 -23.333 -45.5 -36s-26.5 -24 -36.5 -34z" />
    <glyph glyph-name="c" unicode="c" horiz-adv-x="488" 
d="M431 32c-10 -6 -22.165 -11.666 -36.498 -16.999s-29.5 -10 -45.5 -14s-32.5 -7.16699 -49.5 -9.5s-33.5 -3.5 -49.5 -3.5c-36.667 0 -68 5 -94 15s-47.333 24.167 -64 42.5s-28.834 40.333 -36.501 66s-11.5 54.167 -11.5 85.5c0 58 8 107.5 24 148.5
s37.5 74.833 64.5 101.5s58.333 46.167 94 58.5s73.5 18.5 113.5 18.5c36.667 0 67.167 -3.83301 91.5 -11.5s41.833 -14.167 52.5 -19.5l-19 -133l-63 3l-3 66c0 7.33301 -4 12.333 -12 15c-14.667 5.33301 -35.334 8 -62.001 8c-23.333 0 -46.166 -4.33301 -68.499 -13
s-42.333 -22.667 -60 -42s-32 -44.5 -43 -75.5s-16.5 -68.833 -16.5 -113.5c0 -51.333 10.833 -88.833 32.5 -112.5s52.834 -35.5 93.501 -35.5c27.333 0 54.166 3.66699 80.499 11s48.166 15.666 65.499 24.999z" />
    <glyph glyph-name="d" unicode="d" horiz-adv-x="584" 
d="M376 0l11.999 88.998l-3 2l-41 -38c-14 -12.667 -28.833 -23.667 -44.5 -33s-32 -17 -49 -23s-35.167 -9 -54.5 -9c-48 0 -85.333 15.333 -112 46s-40 78.667 -40 144c0 36.667 4.16699 75.334 12.5 116.001s22.166 78 41.499 112s44.833 62.167 76.5 84.5
s71.167 33.5 118.5 33.5c30 0 57.167 -5.33301 81.5 -16s44.833 -22.667 61.5 -36l27 201c0.666992 10.667 -2.66602 17.334 -9.99902 20.001l-54 14l7 48h156l-95 -679c-1.33301 -8 -1.16602 -13 0.500977 -15s6.16699 -3.66699 13.5 -5l49 -7l-7 -49h-147z
M424.999 395.998c-13.333 13.333 -31.334 25.668 -54.001 37.001s-46.667 17 -72 17c-32 0 -58.5 -8.83301 -79.5 -26.5s-37.667 -39.834 -50 -66.501s-21.166 -55.667 -26.499 -87s-8 -60.333 -8 -87c0 -44 7.83301 -74.5 23.5 -91.5s36.167 -25.5 61.5 -25.5
c16 0 31.833 3.66699 47.5 11s31 16.5 46 27.5s29.333 23.5 43 37.5l38.5 40z" />
    <glyph glyph-name="e" unicode="e" horiz-adv-x="482" 
d="M420 30c-26.667 -13.333 -55.333 -23.665 -86 -30.998s-62 -11 -94 -11c-36 0 -66.5 5.16699 -91.5 15.5s-45.333 24.5 -61 42.5s-26.834 39.667 -33.501 65s-10 53 -10 83c0 45.333 6.83301 88 20.5 128s32.834 75 57.501 105s54.167 53.667 88.5 71
s72.166 26 113.499 26c26 0 47.833 -3.16699 65.5 -9.5s32.167 -14.833 43.5 -25.5s19.5 -23.334 24.5 -38.001s7.5 -30.334 7.5 -47.001c0 -38 -12 -69.167 -36 -93.5s-53 -43.833 -87 -58.5s-69.833 -25.5 -107.5 -32.5s-70.5 -12.167 -98.5 -15.5
c0 -22 1.83301 -41.833 5.5 -59.5s10 -32.667 19 -45s21.667 -21.833 38 -28.5s36.833 -10 61.5 -10s48.334 3.33301 71.001 10s46.667 15.667 72 27zM142.001 272.001c16.667 2 38.332 5.33301 64.999 10s52.834 11.834 78.501 21.501s47.667 22.167 66 37.5
s27.5 34.666 27.5 57.999c0 15.333 -5.16699 27.833 -15.5 37.5s-27.166 14.5 -50.499 14.5c-22.667 0 -43.334 -4.83301 -62.001 -14.5s-35.167 -22.667 -49.5 -39s-26.5 -35.333 -36.5 -57s-17.667 -44.5 -23 -68.5z" />
    <glyph glyph-name="f" unicode="f" horiz-adv-x="387" 
d="M46 -212l92 647.001c1.33301 6.66699 -1 10 -7 10h-70l10 69h78l13 91c8 57.333 26.833 98.5 56.5 123.5s68.834 37.5 117.501 37.5c34.667 0 65.167 -5.5 91.5 -16.5s45.166 -21.5 56.499 -31.5l-38 -61c-4 2.66699 -9.33301 6 -16 10s-14.5 8 -23.5 12
s-19.167 7.5 -30.5 10.5s-23 4.5 -35 4.5c-30 0 -51.667 -8.33301 -65 -25s-22.333 -41.334 -27 -74.001l-10 -71c-0.666992 -3.33301 -0.666992 -5.83301 0 -7.5s3 -2.5 7 -2.5h161l-10 -69h-168l-94 -657h-89z" />
    <glyph glyph-name="g" unicode="g" horiz-adv-x="570" 
d="M387 94l-40.001 -36.502c-14 -12.333 -29 -23.5 -45 -33.5s-32.833 -18.167 -50.5 -24.5s-36.167 -9.5 -55.5 -9.5c-48 0 -85.333 15.167 -112 45.5s-40 78.166 -40 143.499c0 36.667 4.16699 75.334 12.5 116.001s22.166 78 41.499 112s44.833 62 76.5 84
s71.167 33 118.5 33c30 0 57.5 -5.66699 82.5 -17s45.833 -24.333 62.5 -39l16 46h84c-6 -24 -11.333 -46.5 -16 -67.5s-8.66699 -42.167 -12 -63.5l-56 -417c-9.33301 -65.333 -33.333 -113.166 -72 -143.499s-87.667 -45.5 -147 -45.5c-46 0 -86.167 5 -120.5 15
s-59.166 19.667 -74.499 29l33 65c4 -2.66699 10.833 -6.16699 20.5 -10.5s21.167 -8.66602 34.5 -12.999s28.333 -8 45 -11s34 -4.5 52 -4.5c42 0 74.833 9.83301 98.5 29.5s38.834 51.5 45.501 95.5zM424.999 394.998c-13.333 14 -31.501 26.668 -54.501 38.001
s-47.167 17 -72.5 17c-31.333 0 -57.5 -9 -78.5 -27s-37.667 -40.167 -50 -66.5s-21.166 -55 -26.499 -86s-8 -59.5 -8 -85.5c0 -44.667 8 -75.334 24 -92.001s36.333 -25 61 -25c16 0 31.833 3.5 47.5 10.5s31 16 46 27s29.333 23.333 43 37l38.5 39.5z" />
    <glyph glyph-name="h" unicode="h" horiz-adv-x="618" 
d="M402 0l-2.00391 3.00586l18 99l31 222c1.33301 9.33301 2.5 19.166 3.5 29.499s1.5 20.166 1.5 29.499c0 7.33301 -0.5 14.666 -1.5 21.999s-3.33301 14 -7 20s-8.5 11 -14.5 15s-14 6 -24 6c-14 0 -29 -3.33301 -45 -10s-32.333 -15.334 -49 -26.001
s-33.5 -22.834 -50.5 -36.501l-50.5 -42.5l-35 -254c-1.33301 -8 -1.16602 -13 0.500977 -15s6.16699 -3.66699 13.5 -5l62 -8l-7 -49h-233l7 50l49 7c7.33301 1.33301 12 3 14 5s3.66699 7 5 15l83 594c2 12 -1 19 -9 21l-54 15l7 48h155l-48 -338l47 38
c16 12.667 32.667 24.167 50 34.5s35.333 18.666 54 24.999s38 9.5 58 9.5c38.667 0 67.334 -10 86.001 -30s28.334 -49 29.001 -87c0 -8.66699 -0.5 -18.667 -1.5 -30s-2.16699 -22 -3.5 -32l-38 -268c-1.33301 -8 -1.16602 -13 0.500977 -15s6.16699 -3.66699 13.5 -5
l55 -8l-7 -49h-163z" />
    <glyph glyph-name="i" unicode="i" horiz-adv-x="295" 
d="M192 625c-17.333 0 -31 4.66699 -41 14s-15 22.333 -15 39c0 21.333 6.5 39 19.5 53s31.167 21 54.5 21c18 0 31.833 -4.66699 41.5 -14s14.5 -22.333 14.5 -39c0 -21.333 -6.5 -39 -19.5 -53s-31.167 -21 -54.5 -21zM73 0l-2.00098 4l21 115l45 312
c2 11.333 -1.66699 18.333 -11 21l-53 14l7 48h157l-61 -437c-1.33301 -8 -1.16602 -13 0.500977 -15s6.16699 -3.66699 13.5 -5l59 -8l-7 -49h-169z" />
    <glyph glyph-name="j" unicode="j" horiz-adv-x="286" 
d="M135 430c2 11.333 -0.999023 18.334 -8.99902 21.001l-57 15l7 48h160l-80 -579c-8 -56 -24.833 -96.333 -50.5 -121s-62.834 -37 -111.501 -37c-16 0 -31 1.66699 -45 5s-26.833 7.16602 -38.5 11.499s-21.5 9 -29.5 14s-14 9.5 -18 13.5l37 57
c7.33301 -5.33301 19 -11.5 35 -18.5s32.667 -10.5 50 -10.5c28 0 47.5 8.33301 58.5 25s19.167 43 24.5 79zM193.001 625.001c-18 0 -31.999 4.66699 -41.999 14s-15 22.333 -15 39c0 21.333 6.66699 39 20 53s31.666 21 54.999 21c17.333 0 31 -4.66699 41 -14
s15 -22.333 15 -39c0 -21.333 -6.66699 -39 -20 -53s-31.333 -21 -54 -21z" />
    <glyph glyph-name="k" unicode="k" horiz-adv-x="581" 
d="M399 0l-2.99902 3.00098l-35 100l-70 169l-100 -95l-14 -100c-1.33301 -8 -1.33301 -13 0 -15s5.66602 -3.66699 12.999 -5l63 -8l-7 -49h-233l7 50l50 7c6.66699 1.33301 11 3.16602 13 5.49902s3.66699 7.16602 5 14.499l83 595c2 10.667 -1.33301 17.334 -10 20.001
l-53 15l6 48h158l-67 -476l204 195c19.333 18 37.166 30.833 53.499 38.5s36.166 11.5 59.499 11.5c6.66699 0 13.667 -0.333008 21 -1s15 -1.66699 23 -3l-8 -60c-19.333 0.666992 -36.666 -1.83301 -51.999 -7.5s-33.666 -18.5 -54.999 -38.5l-86 -83l102 -257
c2.66699 -6 5.66699 -9.83301 9 -11.5s9.33301 -3.16699 18 -4.5l54 -9l-7 -49h-142z" />
    <glyph glyph-name="l" unicode="l" horiz-adv-x="294" 
d="M69 0l-2.00098 4l21 115l78 553c2 11.333 -1.33301 18.333 -10 21l-53 14l7 48h158l-96 -678c-1.33301 -8 -1.16602 -13 0.500977 -15s6.16699 -3.66699 13.5 -5l59 -8l-7 -49h-169z" />
    <glyph glyph-name="m" unicode="m" horiz-adv-x="895" 
d="M682 0l-2.00098 2.00195l21 132l26 190l4.5 35.5c1.66699 13 2.5 25.167 2.5 36.5c0 16 -3 27.667 -9 35s-16.667 11 -32 11c-24.667 0 -51.334 -10.5 -80.001 -31.5s-60.334 -47.5 -95.001 -79.5l-36 -254c-1.33301 -8 -1.16602 -13 0.500977 -15
s6.16699 -3.66699 13.5 -5l56 -8l-8 -49h-162l-1 2l20 128l27 194l5.5 41c1.66699 12 2.5 22 2.5 30c0 11.333 -2.16699 22.166 -6.5 32.499s-15.166 15.5 -32.499 15.5c-28 0 -56.333 -10.667 -85 -32s-61.334 -48 -98.001 -80l-35 -254
c-1.33301 -8 -1.16602 -13 0.500977 -15s6.16699 -3.66699 13.5 -5l62 -8l-7 -49h-233l7 50l48 7c7.33301 1.33301 12 3.16602 14 5.49902s3.66699 7.16602 5 14.499l48 352c2 11.333 -1 18.333 -9 21l-53 16l7 48h151l-14 -99l58 47.5c17.333 13.667 33.666 25 48.999 34
s30.666 15.667 45.999 20s32 6.5 50 6.5c35.333 0 61.5 -8.83301 78.5 -26.5s24.167 -45.5 21.5 -83.5l43 38c15.333 13.333 31.333 25.333 48 36s33.834 19.5 51.501 26.5s35.834 10.5 54.501 10.5c40 0 67.5 -9.16699 82.5 -27.5s22.833 -44.166 23.5 -77.499
c0 -10.667 -0.666992 -22 -2 -34s-3 -24.667 -5 -38l-37 -270c-1.33301 -8 -1.16602 -13 0.500977 -15s6.16699 -3.66699 13.5 -5l55 -8l-7 -49h-161z" />
    <glyph glyph-name="n" unicode="n" horiz-adv-x="619" 
d="M406 0l-2.00195 2.00195l19 121l28 201l4 32.5c1.33301 10.333 2 20.166 2 29.499c0 17.333 -3.33301 31.5 -10 42.5s-20.334 16.5 -41.001 16.5c-29.333 0 -59.166 -10.5 -89.499 -31.5s-64.5 -48.5 -102.5 -82.5l-35 -254c-1.33301 -8 -1.16602 -13 0.500977 -15
s6.16699 -3.66699 13.5 -5l62 -8l-7 -49h-233l7 50l48 7c7.33301 1.33301 12 3.16602 14 5.49902s3.66699 7.16602 5 14.499l48 352c2 12 -1 19 -9 21l-53 16l7 48h151l-14 -99c15.333 13.333 31.333 26.333 48 39s33.667 24.334 51 35.001s35.333 19.167 54 25.5
s38 9.5 58 9.5c40.667 0 70.334 -10 89.001 -30s28.334 -50 29.001 -90c0 -8 -0.5 -17.5 -1.5 -28.5s-2.16699 -21.167 -3.5 -30.5l-38 -268c-1.33301 -8 -1.33301 -13 0 -15s5.66602 -3.66699 12.999 -5l56 -8l-7 -49h-161z" />
    <glyph glyph-name="o" unicode="o" horiz-adv-x="559" 
d="M253 -12c-36 0 -67.001 4.99707 -93.001 14.9971s-47.5 24.167 -64.5 42.5s-29.667 40.333 -38 66s-12.5 54.167 -12.5 85.5c0 47.333 6.16699 91 18.5 131s30.5 74.5 54.5 103.5s53.667 51.667 89 68s76 24.5 122 24.5c37.333 0 68.833 -5.33301 94.5 -16
s46.5 -25.5 62.5 -44.5s27.667 -41.167 35 -66.5s11 -52.666 11 -81.999c0 -50 -6.16699 -95.167 -18.5 -135.5s-30.166 -74.666 -53.499 -102.999s-52.333 -50.166 -87 -65.499s-74.667 -23 -120 -23zM260.999 56.9971c52 0 94.666 21.332 127.999 63.999
s50 107.667 50 195c0 46 -10.167 80 -30.5 102s-50.166 33 -89.499 33c-26.667 0 -51.167 -5.16699 -73.5 -15.5s-41.5 -25.833 -57.5 -46.5s-28.5 -46.667 -37.5 -78s-13.5 -68 -13.5 -110c0 -47.333 10.333 -83.166 31 -107.499s51.667 -36.5 93 -36.5z" />
    <glyph glyph-name="p" unicode="p" horiz-adv-x="585" 
d="M42 -212l-4.00098 4l29 169l64 468c2 12 -1 19 -9 21l-53 16l6 48h154l-14 -93c14 12.667 28.833 25.167 44.5 37.5s32 23.333 49 33s34.667 17.5 53 23.5s37.166 9 56.499 9c20 0 38.333 -3.66699 55 -11s31.167 -18.833 43.5 -34.5s22 -35.834 29 -60.501
s10.5 -54.667 10.5 -90c0 -38.667 -4.66699 -78.167 -14 -118.5s-23.666 -77 -42.999 -110s-44.166 -59.833 -74.499 -80.5s-66.5 -31 -108.5 -31c-28 0 -55 5.33301 -81 16s-48.667 25.667 -68 45l-24 -181c-1.33301 -7.33301 -1.33301 -12.166 0 -14.499
s5.33301 -3.83301 12 -4.5l92 -8l-7 -53h-198zM177.999 127c15.333 -17.333 33.666 -32.668 54.999 -46.001s45.333 -20 72 -20c29.333 0 54 8.33301 74 25s36.333 37.834 49 63.501s21.834 53.667 27.501 84s8.5 58.833 8.5 85.5c0 45.333 -7 77.333 -21 96s-32 28 -54 28
c-16 0 -32.5 -3.83301 -49.5 -11.5s-33.5 -17.167 -49.5 -28.5s-31.167 -23.333 -45.5 -36l-37.5 -34z" />
    <glyph glyph-name="q" unicode="q" horiz-adv-x="571" 
d="M255 -212l6.99902 52.998l75 7c7.33301 0.666992 12 2.33398 14 5.00098s3.66699 7.66699 5 15l32 224c-12.667 -12 -26.167 -24.167 -40.5 -36.5s-29.5 -23.333 -45.5 -33s-32.667 -17.667 -50 -24s-35.666 -9.5 -54.999 -9.5c-28.667 0 -52.667 4.83301 -72 14.5
s-35 23 -47 40s-20.5 37.167 -25.5 60.5s-7.5 48.333 -7.5 75c0 22 1.33301 44.667 4 68s7 46.333 13 69s13.833 44.5 23.5 65.5s21.167 40.167 34.5 57.5c21.333 27.333 46.333 48.166 75 62.499s63.667 21.5 105 21.5c29.333 0 55.833 -5.83301 79.5 -17.5
s43.167 -24.167 58.5 -37.5l16 46h84c-6 -24 -11.167 -46.5 -15.5 -67.5s-8.16602 -42.167 -11.499 -63.5l-71 -515c-1.33301 -7.33301 -1.33301 -12.166 0 -14.499s5.66602 -4.16602 12.999 -5.49902l49 -6l-7 -54h-240zM424.999 394.998
c-13.333 14 -31.334 26.667 -54.001 38s-46.667 17 -72 17c-32 0 -58.5 -9 -79.5 -27s-37.667 -40.167 -50 -66.5s-21.166 -55 -26.499 -86s-8 -59.5 -8 -85.5c0 -44.667 7.5 -75.667 22.5 -93s35.167 -26 60.5 -26c15.333 0 31 3.66699 47 11s31.667 16.5 47 27.5
s30 23.5 44 37.5l39 40z" />
    <glyph glyph-name="r" unicode="r" horiz-adv-x="437" 
d="M15 0l6.99805 50l50 6c6.66699 0.666992 10.834 2.33398 12.501 5.00098s3.16699 7.66699 4.5 15l49 353c2 12 -1 19 -9 21l-54 16l7 48h148l-13 -101c8.66699 12 19.167 24.5 31.5 37.5s25.666 25 39.999 36s29.833 20 46.5 27s33.334 10.5 50.001 10.5
c11.333 0 22.666 -0.833008 33.999 -2.5s21.333 -3.83398 30 -6.50098l-20 -151l-70 3l-2 68c0 4 -0.5 6.66699 -1.5 8s-3.83301 2 -8.5 2c-13.333 0 -31.666 -9.83301 -54.999 -29.5s-49 -45.5 -77 -77.5l-36 -262c-1.33301 -8 -1.16602 -13.167 0.500977 -15.5
s6.16699 -3.83301 13.5 -4.5l89 -7l-7 -49h-260z" />
    <glyph glyph-name="s" unicode="s" horiz-adv-x="451" 
d="M355 372l-2.99707 61.998c-0.666992 5.33301 -1.83398 9.33301 -3.50098 12s-5.16699 5 -10.5 7c-14 4.66699 -36 7 -66 7c-28.667 0 -53.834 -6 -75.501 -18s-32.5 -31.667 -32.5 -59c0 -23.333 8.83301 -41 26.5 -53s40.834 -23 69.501 -33
c16 -5.33301 32.333 -11.5 49 -18.5s32 -16 46 -27s25.333 -24.5 34 -40.5s13 -36 13 -60c0 -26.667 -5.16699 -50.167 -15.5 -70.5s-24.5 -37.333 -42.5 -51s-39.167 -24 -63.5 -31s-50.833 -10.5 -79.5 -10.5c-22.667 0 -44.167 1.16699 -64.5 3.5s-38.333 5.33301 -54 9
s-28.834 7.33398 -39.501 11.001s-18 6.83398 -22 9.50098l19 127l62 -4l3 -65c0 -7.33301 3.33301 -12.333 10 -15c8 -3.33301 19.167 -6.5 33.5 -9.5s33.5 -4.5 57.5 -4.5c33.333 0 60 7.33301 80 22s30 36 30 64c0 27.333 -9 46.833 -27 58.5s-43 22.834 -75 33.501
c-16 5.33301 -32.167 11.333 -48.5 18s-30.833 15.167 -43.5 25.5s-23 23.166 -31 38.499s-12 34.333 -12 57c0 27.333 5.16699 50.833 15.5 70.5s24.5 35.834 42.5 48.501s39.5 22.167 64.5 28.5s52.167 9.5 81.5 9.5c37.333 0 69.666 -3.33301 96.999 -10
s46 -12.334 56 -17.001l-18 -129z" />
    <glyph glyph-name="t" unicode="t" horiz-adv-x="400" 
d="M353 19c-18.667 -8.66699 -40.8311 -16.001 -66.498 -22.001s-50.167 -9 -73.5 -9c-42 0 -72.833 8.5 -92.5 25.5s-29.5 42.833 -29.5 77.5c0 4.66699 0.166992 9.83398 0.5 15.501s0.833008 11.167 1.5 16.5l43 312c0.666992 3.33301 0.666992 5.83301 0 7.5
s-2.66699 2.5 -6 2.5h-72l9 59c18 2.66699 33.667 6.83398 47 12.501s25.166 14 35.499 25s19.333 25 27 42s14.5 37.833 20.5 62.5h59l-18 -122c-0.666992 -3.33301 -0.666992 -5.83301 0 -7.5s3 -2.5 7 -2.5h143l-9 -69h-152l-40 -295c-2 -14 -3 -26 -3 -36
c0 -18 4.33301 -31.333 13 -40s24.667 -13 48 -13c15.333 0 31.166 2.16699 47.499 6.5s31.5 9.16602 45.5 14.499z" />
    <glyph glyph-name="u" unicode="u" horiz-adv-x="617" 
d="M405 0l15.0029 99l-44 -36.5c-16 -13 -32.833 -25 -50.5 -36s-35.5 -20 -53.5 -27s-36 -10.5 -54 -10.5c-42 0 -73.5 9 -94.5 27s-31.5 49.333 -31.5 94c0 7.33301 0.333008 16.333 1 27s1.66699 20.667 3 30l39 270c1.33301 8 1.16602 13 -0.500977 15
s-6.16699 3.66699 -13.5 5l-52 8l8 49h154l3 -4l-45 -321c-1.33301 -9.33301 -2.5 -18.833 -3.5 -28.5s-1.5 -20.5 -1.5 -32.5c0 -20 3.66699 -34.5 11 -43.5s21.333 -13.5 42 -13.5c15.333 0 30.666 3 45.999 9s30.833 14.167 46.5 24.5s31.5 22.166 47.5 35.499l49 42
l34 255c1.33301 8 1.16602 13 -0.500977 15s-6.16699 3.66699 -13.5 5l-58 8l7 49h163l3 -4l-61 -434c-2 -11.333 1 -17.666 9 -18.999l55 -9l-6 -48h-153z" />
    <glyph glyph-name="v" unicode="v" horiz-adv-x="544" 
d="M191 0l-95 439c-1.33301 6 -3.33301 10 -6 12s-6.66699 3.66699 -12 5l-41 9l7 49h135l5 -6l16 -102l61 -319l182 368l-64 11l6 48h161l7 -14l-256 -500h-106z" />
    <glyph glyph-name="w" unicode="w" horiz-adv-x="812" 
d="M489 0l-54 400l-164 -400h-108l-68 439c-0.666992 9.33301 -5.66699 15 -15 17l-43 9l8 49h132l5 -6l8 -85l43 -331l171 419h100l56 -425l161 371l-61 8l8 49h146l6 -12l-225 -502h-106z" />
    <glyph glyph-name="x" unicode="x" horiz-adv-x="560" 
d="M387 0l-7.00098 7.00195l-38 74l-68 126l-125 -149l62 -9l-5 -49h-215l6 48l53 11c6 1.33301 10.5 3 13.5 5s6.83301 5.66699 11.5 11l161 189l-96 177c-3.33301 5.33301 -6.16602 9.16602 -8.49902 11.499s-6.16602 4.16602 -11.499 5.49902l-39 6l7 50h115l6 -5l39 -82
l55 -104l119 134l-56 8l8 49h196l-7 -49l-42 -10c-6.66699 -1.33301 -11.834 -3.5 -15.501 -6.5s-7.5 -7.16699 -11.5 -12.5l-153 -169l104 -190c5.33301 -10 13 -16 23 -18l60 -10l-8 -49h-133z" />
    <glyph glyph-name="y" unicode="y" horiz-adv-x="528" 
d="M199 15l-108 424.999c-1.33301 6 -3.16602 10 -5.49902 12s-6.16602 3.66699 -11.499 5l-41 9l9 48h130l5 -6l23 -126l60 -259l166 333l-62 10l6 48h159l7 -14l-296 -577c-12.667 -24.667 -25.167 -46.167 -37.5 -64.5s-25.5 -33.5 -39.5 -45.5s-29.833 -21 -47.5 -27
s-38.5 -9 -62.5 -9c-15.333 0 -29.833 1.5 -43.5 4.5s-26.167 6.83301 -37.5 11.5s-21.166 9.5 -29.499 14.5s-14.5 9.5 -18.5 13.5l37 57c11.333 -8 24.5 -14.833 39.5 -20.5s31.833 -8.5 50.5 -8.5c14 0 26.167 2.33301 36.5 7s19.666 11.334 27.999 20.001
s16.166 18.667 23.499 30s14.666 24 21.999 38z" />
    <glyph glyph-name="z" unicode="z" horiz-adv-x="498" 
d="M20 0l6.99902 54l344 393h-194c-4.66699 0 -7.66699 -1.33301 -9 -4s-2.66602 -5.66699 -3.99902 -9l-20 -63l-64 -3l19 146h394l-8 -56l-341 -391h207c4 0 6.83301 1.33301 8.5 4s3.16699 5.66699 4.5 9l22 74l65 3l-22 -157h-409z" />
    <glyph glyph-name="braceleft" unicode="{" horiz-adv-x="287" 
d="M210 -147c-52 4 -90.168 13.0039 -114.501 27.0039s-36.5 38.333 -36.5 73c0 19.333 2.66699 40.5 8 63.5l17 70.5c4 16 8 33.667 12 53s6 37 6 53c0 27.333 -7 45 -21 53s-31.667 12.333 -53 13l9 59c19.333 1.33301 36.5 5.16602 51.5 11.499
s26.833 19.166 35.5 38.499c9.33301 20.667 15.166 48 17.499 82s3.5 74 3.5 120c0 28 2.5 51.333 7.5 70s14 34 27 46s31 21.167 54 27.5s52.833 10.833 89.5 13.5l5 -58c-23.333 -2.66699 -41.333 -6.5 -54 -11.5s-22 -12 -28 -21s-9.66699 -20.5 -11 -34.5
s-2 -31.667 -2 -53c0 -10 -0.166992 -21 -0.5 -33l-1 -36c-0.333008 -12 -0.833008 -23.833 -1.5 -35.5s-1.66699 -21.834 -3 -30.501c-4 -36 -13.667 -62.833 -29 -80.5s-34.666 -32.834 -57.999 -45.501c14.667 -6 27.334 -15.667 38.001 -29s16 -32.666 16 -57.999
c0 -18 -2 -37.333 -6 -58s-8.66699 -41.334 -14 -62.001c-4.66699 -17.333 -9.66699 -37 -15 -59s-8 -40.667 -8 -56c0 -17.333 6 -29.333 18 -36s31.667 -13 59 -19z" />
    <glyph glyph-name="bar" unicode="|" horiz-adv-x="281" 
d="M59 -143l127 899h82l-127 -899h-82z" />
    <glyph glyph-name="braceright" unicode="}" horiz-adv-x="298" 
d="M110 727c52 -4 90.168 -13.0039 114.501 -27.0039s36.5 -38.333 36.5 -73c0 -19.333 -2.66699 -40.5 -8 -63.5l-17 -70.5c-4 -16 -8 -33.667 -12 -53s-6 -37 -6 -53c0 -26.667 7.16699 -44 21.5 -52s31.833 -12.667 52.5 -14l-9 -59
c-19.333 -1.33301 -36.5 -5.16602 -51.5 -11.499s-26.833 -19.166 -35.5 -38.499c-9.33301 -20.667 -15.166 -48 -17.499 -82s-3.5 -74 -3.5 -120c0 -28 -2.5 -51.333 -7.5 -70s-14 -34 -27 -46s-31 -21.167 -54 -27.5s-52.833 -10.833 -89.5 -13.5l-5 58
c23.333 2.66699 41.333 6.5 54 11.5s22 12 28 21s9.66699 20.5 11 34.5s2 31.667 2 53c0 10 0.166992 21 0.5 33l1 36c0.333008 12 1 23.833 2 35.5s1.83301 21.834 2.5 30.501c4 36 13.667 62.833 29 80.5s34.666 32.834 57.999 45.501
c-14.667 6 -27.334 15.667 -38.001 29s-16 32.666 -16 57.999c0 18 2 37.333 6 58s8.66699 41.334 14 62.001c4.66699 17.333 9.66699 37 15 59s8 40.667 8 56c0 17.333 -6 29.333 -18 36s-31.667 13 -59 19z" />
    <glyph glyph-name="asciitilde" unicode="~" horiz-adv-x="482" 
d="M503 407c-11.333 -34 -25.333 -61.168 -42 -81.501s-40.667 -30.5 -72 -30.5c-18 0 -36.833 2.33301 -56.5 7s-39 10 -58 16s-37.5 11.333 -55.5 16s-34.333 7 -49 7c-16 0 -29.667 -4.16699 -41 -12.5s-24 -21.833 -38 -40.5l-47 23c16 30.667 34.167 56 54.5 76
s45.5 30 75.5 30c19.333 0 38.333 -2.33301 57 -7s37 -10 55 -16s35.667 -11.333 53 -16s34 -7 50 -7c16.667 0 29 4.33301 37 13s16.667 22.334 26 41.001z" />
    <glyph glyph-name="uni00A0" unicode="&#xa0;" horiz-adv-x="222" 
 />
    <glyph glyph-name="sterling" unicode="&#xa3;" horiz-adv-x="541" 
d="M39 0l-4.99805 59.0049c20 14 36 27.833 48 41.5s21.667 28.5 29 44.5s12.833 33.667 16.5 53s7.16699 41.666 10.5 66.999l4 32h-79l9 71h79l8 63c4 32 10.667 61.333 20 88s22.666 49.5 39.999 68.5s39.166 33.833 65.499 44.5s58.833 16 97.5 16
c39.333 0 73.166 -5.83301 101.499 -17.5s48.5 -23.167 60.5 -34.5l-44 -59c-9.33301 7.33301 -24.5 15.666 -45.5 24.999s-44.167 14 -69.5 14c-43.333 0 -75.166 -11 -95.499 -33s-33.166 -54.333 -38.499 -97l-11 -78h178l-10 -71h-177
c-4 -28.667 -7.83301 -53.834 -11.5 -75.501s-8.83398 -41.334 -15.501 -59.001s-15.334 -33.834 -26.001 -48.501s-24.667 -30 -42 -46h256c8.66699 0 14.334 3.66699 17.001 11l26 85h65l-22 -164h-439z" />
    <glyph glyph-name="currency" unicode="&#xa4;" horiz-adv-x="570" 
d="M504 7l-90.001 87.999c-17.333 -12 -36.5 -21 -57.5 -27s-45.167 -9 -72.5 -9c-28 0 -53 3.33301 -75 10s-41.667 16 -59 28l-90 -90l-57 59l93 93c-9.33301 18 -16.666 37.833 -21.999 59.5s-8 43.167 -8 64.5c0 20 2.83301 39.833 8.5 59.5s13.5 38.834 23.5 57.501
l-92 91l61 61l88 -87c17.333 13.333 37.5 23.5 60.5 30.5s47.833 10.5 74.5 10.5s51.5 -3.5 74.5 -10.5s43.167 -16.5 60.5 -28.5l84 84l58 -59l-88 -88c9.33301 -16.667 16.5 -35 21.5 -55s7.5 -40.667 7.5 -62c0 -23.333 -3 -46 -9 -68s-14.667 -42.333 -26 -61l93 -92z
M288.999 135.999c20.667 0 38.999 3.83398 54.999 11.501s29.333 18.167 40 31.5s18.667 28.833 24 46.5s8 36.834 8 57.501c0 45.333 -10.833 80.666 -32.5 105.999s-54.167 38 -97.5 38c-42 0 -73.667 -13.5 -95 -40.5s-32 -61.5 -32 -103.5
c0 -20.667 2.5 -39.834 7.5 -57.501s12.667 -33.167 23 -46.5s23.833 -23.833 40.5 -31.5s36.334 -11.5 59.001 -11.5z" />
    <glyph glyph-name="brokenbar" unicode="&#xa6;" horiz-adv-x="281" 
d="M59 -143l55 388h82l-55 -388h-82zM137 408l48 348h82l-48 -348h-82z" />
    <glyph glyph-name="section" unicode="&#xa7;" horiz-adv-x="548" 
d="M117 -48c0 -7.33301 2.99707 -12.332 8.99707 -14.999c10.667 -4.66699 23.834 -8.33398 39.501 -11.001s33.167 -4 52.5 -4c36 0 63.667 7.16699 83 21.5s29 35.5 29 63.5c0 14 -3.16699 25.667 -9.5 35s-14.833 17.166 -25.5 23.499s-23 11.666 -37 15.999
s-28.333 8.5 -43 12.5c-16.667 4.66699 -33.5 10 -50.5 16s-32 13.833 -45 23.5s-23.667 21.834 -32 36.501s-12.5 33.334 -12.5 56.001c0 17.333 2.83301 33.166 8.5 47.499s13 27.5 22 39.5s19.167 23.333 30.5 34s23 20.667 35 30c-11.333 9.33301 -21 21.833 -29 37.5
s-12 34.167 -12 55.5c0 27.333 5.83301 51 17.5 71s27.334 36.5 47.001 49.5s42.334 22.5 68.001 28.5s52.5 9 80.5 9c40 0 73.5 -3.5 100.5 -10.5s45.833 -12.833 56.5 -17.5l-18 -129l-65 4l-3 62c0 5.33301 -0.833008 9 -2.5 11s-5.16699 4 -10.5 6
c-14.667 5.33301 -38.667 8 -72 8c-40 0 -68.667 -7.83301 -86 -23.5s-26 -34.167 -26 -55.5c0 -12.667 2.83301 -23.5 8.5 -32.5s13.334 -16.667 23.001 -23s20.834 -11.666 33.501 -15.999s26 -8.5 40 -12.5c18 -5.33301 36 -11 54 -17s34.333 -14 49 -24
s26.667 -22.833 36 -38.5s14 -35.5 14 -59.5c0 -16 -2.66699 -31.167 -8 -45.5s-12.5 -27.833 -21.5 -40.5s-19.167 -24 -30.5 -34s-23 -19 -35 -27c13.333 -13.333 23.166 -27.5 29.499 -42.5s9.5 -32.833 9.5 -53.5c0 -28.667 -5.83301 -53 -17.5 -73
s-27.334 -36.333 -47.001 -49s-42.334 -22 -68.001 -28s-52.167 -9 -79.5 -9c-19.333 0 -38.666 1.33301 -57.999 4s-37 6 -53 10s-29.667 8 -41 12s-19 7.33301 -23 10l17 125l66 -4zM319.997 145.001c16 10.667 31.5 24.6699 46.5 42.0029s22.5 36.666 22.5 57.999
c0 20.667 -7.5 36.667 -22.5 48s-39.5 21.666 -73.5 30.999l-67 19c-16.667 -11.333 -32 -25.833 -46 -43.5s-21 -35.167 -21 -52.5c0 -22.667 8 -39.334 24 -50.001s35.667 -19.667 59 -27z" />
    <glyph glyph-name="dieresis" unicode="&#xa8;" 
d="M297 668c0 -18 -5.66699 -32.999 -17 -44.999s-27 -18 -47 -18c-15.333 0 -27.333 4.16699 -36 12.5s-13 19.5 -13 33.5c0 17.333 5.66699 32.166 17 44.499s27 18.5 47 18.5c15.333 0 27.333 -4.16699 36 -12.5s13 -19.5 13 -33.5zM499 668.001
c0 -18 -5.66699 -32.999 -17 -44.999s-27 -18 -47 -18c-15.333 0 -27.333 4.16699 -36 12.5s-13 19.5 -13 33.5c0 17.333 5.66699 32.166 17 44.499s27 18.5 47 18.5c15.333 0 27.333 -4.16699 36 -12.5s13 -19.5 13 -33.5z" />
    <glyph glyph-name="copyright" unicode="&#xa9;" horiz-adv-x="762" 
d="M722 319c0 -50 -8 -95.333 -24 -136s-38.667 -75.5 -68 -104.5s-64.333 -51.5 -105 -67.5s-85.667 -24 -135 -24c-54.667 0 -102.834 8.16699 -144.501 24.5s-76.167 38.666 -103.5 66.999s-48 62 -62 101s-21 80.833 -21 125.5c0 52 8.66699 98.5 26 139.5
s41 75.667 71 104s65.333 50 106 65s84 22.5 130 22.5c51.333 0 97.333 -7.5 138 -22.5s75.334 -36.167 104.001 -63.5s50.5 -60.666 65.5 -99.999s22.5 -83 22.5 -131zM392 38c42 0 80 6.33203 114 18.999s62.667 30.834 86 54.501s41.333 52.5 54 86.5s19 72.333 19 115
c0 44 -6.83301 83 -20.5 117s-32.5 62.5 -56.5 85.5s-52.667 40.333 -86 52s-70 17.5 -110 17.5c-39.333 0 -75.666 -6.16699 -108.999 -18.5s-62.333 -30.5 -87 -54.5s-43.834 -53.333 -57.501 -88s-20.5 -74 -20.5 -118c0 -84 24.167 -149.667 72.5 -197
s115.5 -71 201.5 -71zM516 143.999c-13.333 -8 -30.667 -14.0029 -52 -18.0029s-42 -6 -62 -6c-34 0 -62.833 4.83301 -86.5 14.5s-43 23.334 -58 41.001s-26 38.334 -33 62.001s-10.5 49.5 -10.5 77.5s4 54 12 78s20 44.5 36 61.5s35.833 30.333 59.5 40
s51.5 14.5 83.5 14.5c20.667 0 41.5 -2.16699 62.5 -6.5s37.5 -8.83301 49.5 -13.5v-105l-43 2l-9 49c-0.666992 2.66699 -1.33398 4.83398 -2.00098 6.50098s-2.66699 3.5 -6 5.5c-7.33301 3.33301 -15.833 6 -25.5 8s-21.167 3 -34.5 3c-15.333 0 -30 -2.5 -44 -7.5
s-26.167 -13.333 -36.5 -25s-18.5 -26.667 -24.5 -45s-9 -40.833 -9 -67.5c0 -20 2.16699 -38.667 6.5 -56s11.333 -32.5 21 -45.5s22.167 -23.167 37.5 -30.5s34 -11 56 -11c11.333 0 21.333 0.833008 30 2.5s15.334 3.5 20.001 5.5c4 1.33301 7.33301 6.33301 10 15l14 51
h38v-100z" />
    <glyph glyph-name="guillemotleft" unicode="&#xab;" horiz-adv-x="436" 
d="M286 103l-65.001 156l110 149h83l-96 -139c-3.33301 -4.66699 -5.16602 -8 -5.49902 -10s0.166992 -5 1.5 -9l54 -147h-82zM127.999 103l-65.001 156l110 149h83l-96 -139c-3.33301 -4.66699 -5.16602 -8 -5.49902 -10s0.166992 -5 1.5 -9l54 -147h-82z" />
    <glyph glyph-name="logicalnot" unicode="&#xac;" horiz-adv-x="570" 
d="M387 191l14 94h-296l11 81h377l-25 -175h-81z" />
    <glyph glyph-name="uni00AD" unicode="&#xad;" horiz-adv-x="311" 
d="M33 247l13 89h271l-13 -89h-271z" />
    <glyph glyph-name="registered" unicode="&#xae;" horiz-adv-x="449" 
d="M456 480c0 -27.333 -4.5 -52.335 -13.5 -75.002s-21.667 -42 -38 -58s-35.833 -28.5 -58.5 -37.5s-47.667 -13.5 -75 -13.5c-30 0 -56.5 4.5 -79.5 13.5s-42.167 21.5 -57.5 37.5s-26.833 34.833 -34.5 56.5s-11.5 44.834 -11.5 69.501
c0 28.667 4.83301 54.334 14.5 77.001s22.834 42 39.501 58s36.167 28.333 58.5 37s46.166 13 71.499 13c57.333 0 102.333 -16.167 135 -48.5s49 -75.5 49 -129.5zM415 476.998c0 46.667 -13.5 82.001 -40.5 106.001s-61.167 36 -102.5 36c-20 0 -38.5 -3.16699 -55.5 -9.5
s-32 -15.833 -45 -28.5s-23.167 -27.834 -30.5 -45.501s-11 -38.167 -11 -61.5c0 -44 12.667 -78.167 38 -102.5s60 -36.5 104 -36.5s78.833 12.667 104.5 38s38.5 60 38.5 104zM288 383.999l-0.000976562 20.999l18 2l-24 42c-4 6.66699 -9.66699 10 -17 10h-15v-46
c0 -2.66699 2 -4.66699 6 -6l15 -2v-21h-80v21l14 2c4 0.666992 6 3 6 7v131c0 4 -2.33301 6.33301 -7 7l-13 2v21h87c26.667 0 44.334 -5.5 53.001 -16.5s13 -23.5 13 -37.5c0 -26 -12.333 -43.333 -37 -52c5.33301 -1.33301 11 -7.66602 17 -18.999l19 -36
c1.33301 -3.33301 4 -5.33301 8 -6l17 -3v-21h-80zM262.999 488.998c10.667 0 20.167 1.83203 28.5 5.49902s12.5 11.834 12.5 24.501c0 11.333 -3.16699 18.5 -9.5 21.5s-14.833 4.5 -25.5 4.5h-19v-56h13z" />
    <glyph glyph-name="macron" unicode="&#xaf;" 
d="M182 611l10 69h307l-10 -69h-307z" />
    <glyph glyph-name="degree" unicode="&#xb0;" horiz-adv-x="287" 
d="M201 612c18.667 0 33.167 6 43.5 18s15.5 27.667 15.5 47c0 29.333 -14.667 44 -44 44c-17.333 0 -31.333 -5.66699 -42 -17s-16 -27.333 -16 -48c0 -13.333 3.33301 -24 10 -32s17.667 -12 33 -12zM314 683c0 -36 -11.168 -64.999 -33.501 -86.999
s-51.166 -33 -86.499 -33c-28.667 0 -51.167 7.66699 -67.5 23s-24.5 36.666 -24.5 63.999c0 20 3.33301 37.5 10 52.5s15.5 27.5 26.5 37.5s23.833 17.5 38.5 22.5s30 7.5 46 7.5c27.333 0 49.333 -7.5 66 -22.5s25 -36.5 25 -64.5z" />
    <glyph glyph-name="plusminus" unicode="&#xb1;" horiz-adv-x="570" 
d="M61 0l11 80h377l-11 -80h-377zM330 281l-21 -149h-83l21 149h-147l11 81h147l21 150h84l-22 -150h147l-11 -81h-147z" />
    <glyph glyph-name="mu" unicode="&#xb5;" horiz-adv-x="632" 
d="M418 0l8.99902 67.998h-4c-25.333 -20 -53.5 -37.833 -84.5 -53.5s-60.833 -23.5 -89.5 -23.5c-37.333 0 -64.666 13.333 -81.999 40l-3 -1l-19 -206h-93l97 690h91l-48 -340c-2 -13.333 -3.16699 -26.666 -3.5 -39.999s1.5 -25.166 5.5 -35.499
s11.167 -18.666 21.5 -24.999s25.5 -9.5 45.5 -9.5c28 0 55.833 7.5 83.5 22.5s55.5 35.833 83.5 62.5l51 365h91l-60 -435c-2 -12.667 1.33301 -19.334 10 -20.001l53 -7l-7 -52h-148z" />
    <glyph glyph-name="paragraph" unicode="&#xb6;" horiz-adv-x="613" 
d="M480 579h-77l-74 -523h-39c-36 0 -68.333 6 -97 18s-53 29 -73 51s-35.5 48.5 -46.5 79.5s-16.5 65.167 -16.5 102.5c0 52 8 98.833 24 140.5s39 77.167 69 106.5s66.667 51.833 110 67.5s92.333 23.5 147 23.5h247l-7 -53l-68 -8c-7.33301 -1.33301 -12 -3 -14 -5
s-3.66699 -6.66699 -5 -14l-75 -532c-9.33301 -64 -32.833 -110.833 -70.5 -140.5s-85.5 -44.5 -143.5 -44.5c-46.667 0 -86.5 5.16699 -119.5 15.5s-57.167 20.166 -72.5 29.499l32 63c4 -2.66699 10.667 -6.16699 20 -10.5s20.833 -8.66602 34.5 -12.999s28.667 -8 45 -11
s33.5 -4.5 51.5 -4.5c40.667 0 73 9.83301 97 29.5s39.333 51.5 46 95.5z" />
    <glyph glyph-name="periodcentered" unicode="&#xb7;" horiz-adv-x="194" 
d="M196 321c0 -21.333 -6.16699 -39.333 -18.5 -54s-31.5 -22 -57.5 -22c-38.667 0 -58 16.333 -58 49c0 22 6 40.333 18 55s31.333 22 58 22c38.667 0 58 -16.667 58 -50z" />
    <glyph glyph-name="cedilla" unicode="&#xb8;" 
d="M136 -177c3.33301 -1.33301 8.16992 -2.33301 14.5029 -3s14.166 -1 23.499 -1c8 0 16.5 1 25.5 3s17 5.16699 24 9.5s12.833 10 17.5 17s7 15.5 7 25.5c0 28 -21.667 42 -65 42l32 114l56 -8l-18 -66c16.667 -4.66699 31.5 -13 44.5 -25s19.5 -29.333 19.5 -52
c0 -19.333 -3.83301 -36.166 -11.5 -50.499s-17.834 -26.333 -30.501 -36s-27.334 -16.834 -44.001 -21.501s-33.667 -7 -51 -7c-14 0 -26 0.833008 -36 2.5s-16.667 3.16699 -20 4.5z" />
    <glyph glyph-name="guillemotright" unicode="&#xbb;" horiz-adv-x="436" 
d="M205 103l96 145c3.33301 4.66699 5 8 5 10s-0.666992 5 -2 9l-55 141h82l66 -153l-107 -152h-85zM47 103l96 145c3.33301 4.66699 5 8 5 10s-0.666992 5 -2 9l-55 141h82l66 -153l-107 -152h-85z" />
    <glyph glyph-name="multiply" unicode="&#xd7;" horiz-adv-x="570" 
d="M294 262l-119 -106l-50 58l120 106l-90 107l67 59l89 -106l121 106l50 -59l-121 -107l91 -106l-67 -58z" />
    <glyph glyph-name="divide" unicode="&#xf7;" horiz-adv-x="570" 
d="M337 177c0 -23.333 -6.33301 -41.168 -19 -53.501s-30.667 -18.5 -54 -18.5c-38 0 -57 17 -57 51c0 22.667 6.5 40.334 19.5 53.001s31.167 19 54.5 19c18.667 0 32.667 -4.5 42 -13.5s14 -21.5 14 -37.5zM105 280.998l12 80h377l-12 -80h-377zM380 486.998
c0 -23.333 -6.16699 -41.166 -18.5 -53.499s-30.5 -18.5 -54.5 -18.5c-37.333 0 -56 17 -56 51c0 23.333 6.33301 41.166 19 53.499s30.667 18.5 54 18.5c37.333 0 56 -17 56 -51z" />
    <glyph glyph-name="florin" unicode="&#x192;" horiz-adv-x="514" 
d="M280 311l-72.999 -238c-9.33301 -30 -19.333 -55.333 -30 -76s-23 -37.5 -37 -50.5s-30.5 -22.5 -49.5 -28.5s-41.167 -9 -66.5 -9c-12.667 0 -25.5 1.16699 -38.5 3.5s-25.167 5.5 -36.5 9.5s-21.833 8.33301 -31.5 13s-17.167 9.33398 -22.5 14.001l35 60
c10 -7.33301 24.167 -14.333 42.5 -21s36.833 -10 55.5 -10c21.333 0 39.166 6.16699 53.499 18.5s26.166 34.166 35.499 65.499l75 239c1.33301 6.66699 -1 10 -7 10h-89l20 67h101l34 110c8.66699 28 18.5 52.167 29.5 72.5s24 37 39 50s32.833 22.5 53.5 28.5s45 9 73 9
c32 0 58.167 -3.83301 78.5 -11.5s35.833 -14.834 46.5 -21.501l-39 -128l-57 5l9 68c0.666992 6.66699 -1.66602 11 -6.99902 13s-11 3.66699 -17 5s-14.667 2 -26 2c-30 0 -52 -9.16699 -66 -27.5s-26 -43.166 -36 -74.499l-28 -90
c-1.33301 -3.33301 -1.83301 -5.83301 -1.5 -7.5s2.5 -2.5 6.5 -2.5h138l-20 -67h-147z" />
    <glyph glyph-name="circumflex" unicode="&#x2c6;" 
d="M455 572l-110 101l-140 -101l-39 38l145 123h84l110 -123z" />
    <glyph glyph-name="caron" unicode="&#x2c7;" 
d="M370 579h-84l-108 122l49 39l109 -101l141 101l39 -38z" />
    <glyph glyph-name="uni02C9" unicode="&#x2c9;" 
d="M182 611l9 69h307l-9 -69h-307z" />
    <glyph glyph-name="breve" unicode="&#x2d8;" 
d="M516 706c-17.333 -41.333 -40.6689 -73.833 -70.002 -97.5s-67.666 -35.5 -114.999 -35.5s-82.666 11.833 -105.999 35.5s-37.666 56.167 -42.999 97.5l58 22c6 -31.333 17 -54.166 33 -68.499s38 -21.5 66 -21.5s51.667 7.16699 71 21.5s36.666 37.166 51.999 68.499z
" />
    <glyph glyph-name="dotaccent" unicode="&#x2d9;" 
d="M412 702c0 -20.667 -6.16699 -38.5 -18.5 -53.5s-30.833 -22.5 -55.5 -22.5c-37.333 0 -56 17 -56 51c0 21.333 5.83301 39.333 17.5 54s30.5 22 56.5 22c37.333 0 56 -17 56 -51z" />
    <glyph glyph-name="ring" unicode="&#x2da;" 
d="M356 764c24.667 0 44.833 -6.66602 60.5 -19.999s23.5 -32.333 23.5 -57c0 -31.333 -10 -58 -30 -80s-47.333 -33 -82 -33c-24.667 0 -45 6.66699 -61 20s-24 33.666 -24 60.999c0 32 10.667 58.167 32 78.5s48.333 30.5 81 30.5zM335.999 623.001
c16 0 28.167 5.5 36.5 16.5s12.5 24.167 12.5 39.5c0 12 -3.33301 21 -10 27s-15.667 9 -27 9c-16 0 -28.167 -5.5 -36.5 -16.5s-12.5 -24.167 -12.5 -39.5c0 -24 12.333 -36 37 -36z" />
    <glyph glyph-name="ogonek" unicode="&#x2db;" 
d="M323 -196c-32.667 -14.667 -64.667 -21.999 -96 -21.999c-25.333 0 -45 5.33301 -59 16s-21 26.667 -21 48c0 18.667 4.16699 36 12.5 52s19 31.167 32 45.5s27.667 27.833 44 40.5l48.5 36l56 -16l-30 -23c-12 -9.33301 -23.667 -19.833 -35 -31.5s-21 -24 -29 -37
s-12 -25.833 -12 -38.5c0 -17.333 8.66699 -26 26 -26c7.33301 0 15.333 1.16699 24 3.5s17.667 5.16602 27 8.49902z" />
    <glyph glyph-name="tilde" unicode="&#x2dc;" 
d="M491 638c-14.667 -18 -27.168 -30.833 -37.501 -38.5s-21.166 -11.5 -32.499 -11.5s-25.666 2.66699 -42.999 8c-10.667 2.66699 -22 5.66699 -34 9l-34 9.5l-29 8l-21 5.5c-6 2 -11.667 0.666992 -17 -4l-44 -39l-38 30l35 44c12.667 15.333 24 26.166 34 32.499
s20.667 9.5 32 9.5s25 -2.33301 41 -7l33 -9l34.5 -9.5l30.5 -8c9.33301 -2.33301 16.333 -4.16602 21 -5.49902c5.33301 -2 10.666 -0.666992 15.999 4l40 37l41 -30z" />
    <glyph glyph-name="hungarumlaut" unicode="&#x2dd;" 
d="M189 568l-38 34l157 177l59 -55zM360 568l-39 34l158 176l59 -54z" />
    <glyph glyph-name="uni0394" unicode="&#x394;" horiz-adv-x="670" 
d="M10 0l352 724h116l154 -724h-622zM408 641l-271 -565h377z" />
    <glyph glyph-name="uni03A9" unicode="&#x3a9;" horiz-adv-x="845" 
d="M465 0l21.998 149.999c20.667 8 43.5 19.833 68.5 35.5s48.333 35.834 70 60.501s39.834 54.334 54.501 89.001s22 74.667 22 120c0 67.333 -18.5 118.333 -55.5 153s-86.833 52 -149.5 52c-42 0 -80.667 -6.16699 -116 -18.5s-65.666 -30.833 -90.999 -55.5
s-45.166 -55.167 -59.499 -91.5s-21.5 -78.5 -21.5 -126.5c0 -58 12.833 -104.833 38.5 -140.5s58.5 -61.5 98.5 -77.5l-22 -150h-290l23 160h65l4 -79c0 -5.33301 1 -8.5 3 -9.5s5.66699 -1.5 11 -1.5h120l8 50c-50 22 -88.167 55 -114.5 99s-39.5 93.333 -39.5 148
c0 53.333 9.16699 102.666 27.5 147.999s44.5 84.5 78.5 117.5s75.167 58.667 123.5 77s102.166 27.5 161.499 27.5c50 0 93.333 -6.83301 130 -20.5s67 -32.5 91 -56.5s41.833 -52.667 53.5 -86s17.5 -70 17.5 -110c0 -42.667 -6.33301 -82 -19 -118s-30 -68.5 -52 -97.5
s-47.667 -54.333 -77 -76s-60.666 -39.5 -93.999 -53.5l-7 -49h114c5.33301 0 9.16602 0.5 11.499 1.5s4.5 4.16699 6.5 9.5l26 79h66l-23 -160h-284z" />
    <glyph glyph-name="uni03BC" unicode="&#x3bc;" horiz-adv-x="629" 
d="M418 0l8.99902 67.998h-4c-25.333 -20 -53.5 -37.833 -84.5 -53.5s-60.833 -23.5 -89.5 -23.5c-37.333 0 -64.666 13.333 -81.999 40l-3 -1l-19 -206h-93l97 690h91l-48 -340c-2 -13.333 -3.16699 -26.666 -3.5 -39.999s1.5 -25.166 5.5 -35.499
s11.167 -18.666 21.5 -24.999s25.5 -9.5 45.5 -9.5c28 0 55.833 7.5 83.5 22.5s55.5 35.833 83.5 62.5l51 365h91l-60 -435c-2 -12.667 1.33301 -19.334 10 -20.001l53 -7l-7 -52h-148z" />
    <glyph glyph-name="pi" unicode="&#x3c0;" horiz-adv-x="695" 
d="M436 0l62.001 443.003h-234l-62 -443h-157l7 53l51 7c6 0.666992 10.167 1.66699 12.5 3s3.83301 4.66602 4.5 9.99902l51 360c1.33301 7.33301 1.16602 12.166 -0.500977 14.499s-5.83398 4.16602 -12.501 5.49902l-58 7l7 54h570l-7 -54l-63 -8
c-7.33301 -1.33301 -12 -3 -14 -5s-3.66699 -6.66699 -5 -14l-50 -353c-1.33301 -8 -1.16602 -13 0.500977 -15s6.16699 -3.66699 13.5 -5l48 -7l-7 -53h-157z" />
    <glyph glyph-name="afii10023" unicode="&#x401;" horiz-adv-x="616" 
d="M364 845c0 -18 -5.66699 -32.999 -17 -44.999s-27 -18 -47 -18c-15.333 0 -27.333 4.16699 -36 12.5s-13 19.5 -13 33.5c0 17.333 5.66699 32.166 17 44.499s27 18.5 47 18.5c15.333 0 27.333 -4.16699 36 -12.5s13 -19.5 13 -33.5zM566 845.001
c0 -18 -5.66699 -32.999 -17 -44.999s-27 -18 -47 -18c-15.333 0 -27.333 4.16699 -36 12.5s-13 19.5 -13 33.5c0 17.333 5.66699 32.166 17 44.499s27 18.5 47 18.5c15.333 0 27.333 -4.16699 36 -12.5s13 -19.5 13 -33.5zM36 0.00195312l6.00098 49.001l63 7
c7.33301 1.33301 11.833 3.16602 13.5 5.49902s3.16699 7.16602 4.5 14.499l79 571c1.33301 7.33301 1.33301 12.333 0 15s-5.66602 4.33398 -12.999 5.00098l-60 7l6 50h492l-23 -165l-62 4l-3 77c-0.666992 8.66699 -6 13 -16 13h-230l-34 -252h261l-10 -72h-262l-35 -258
h252c5.33301 0 9.16602 0.5 11.499 1.5s4.16602 4.16699 5.49902 9.5l28 87h62l-23 -169h-513z" />
    <glyph glyph-name="afii10051" unicode="&#x402;" horiz-adv-x="811" 
d="M766 219c0 -32.667 -5.00391 -63.1641 -15.0039 -91.4971s-24.667 -52.833 -44 -73.5s-43.166 -36.834 -71.499 -48.501s-61.166 -17.5 -98.499 -17.5c-30 0 -57.833 2.66699 -83.5 8s-44.167 10.666 -55.5 15.999l17 134h55l9 -67c0.666992 -5.33301 2 -8.83301 4 -10.5
s4.66699 -3.16699 8 -4.5c6.66699 -2 14 -3.33301 22 -4s18.333 -1 31 -1c36.667 0 67.334 13.833 92.001 41.5s37 66.5 37 116.5c0 24 -3.66699 44 -11 60s-17.5 28.833 -30.5 38.5s-28.167 16.5 -45.5 20.5s-36 6 -56 6c-28 0 -54.167 -1.83301 -78.5 -5.5
s-48.166 -7.83398 -71.499 -12.501l-44 -324h-170l7 52l64 7c7.33301 0.666992 11.833 2.16699 13.5 4.5s3.16699 7.5 4.5 15.5l81 574h-145c-5.33301 0 -9.33301 -0.5 -12 -1.5s-4.66699 -4.16699 -6 -9.5l-28 -86l-67 -1l24 169h626l-24 -170l-66 1l-4 84
c0 9.33301 -5 14 -15 14h-192l-36 -255c19.333 4 41.666 8 66.999 12s55 6 89 6c72.667 0 127.334 -18 164.001 -54s55 -83.667 55 -143z" />
    <glyph glyph-name="afii10052" unicode="&#x403;" horiz-adv-x="586" 
d="M320 766l-25 48l204 127l37 -75zM33 0l8 50.9971l64 8c7.33301 0.666992 11.833 2.33398 13.5 5.00098s3.16699 7.66699 4.5 15l79 567c1.33301 7.33301 1.33301 12.333 0 15s-5.66602 4.33398 -12.999 5.00098l-62 7l7 51h490l-25 -179l-65 3l-4 92
c0 8.66699 -5 13 -15 13h-220l-80 -574c-1.33301 -7.33301 -1.33301 -12.166 0 -14.499s5.66602 -3.83301 12.999 -4.5l145 -9l-8 -51h-332z" />
    <glyph glyph-name="afii10053" unicode="&#x404;" horiz-adv-x="662" 
d="M595 38c-30 -19.333 -66.6699 -32.499 -110.003 -39.499s-87.666 -10.5 -132.999 -10.5c-51.333 0 -95.166 7.66699 -131.499 23s-66.166 36.833 -89.499 64.5s-40.5 60.5 -51.5 98.5s-16.5 79.667 -16.5 125c0 63.333 8.83301 121.833 26.5 175.5s43.667 100 78 139
s77 69.333 128 91s109.833 32.5 176.5 32.5c43.333 0 83.5 -4.83301 120.5 -14.5s66.833 -22.834 89.5 -39.501l-22 -160l-66 4l-4 94c0 5.33301 -0.833008 9.33301 -2.5 12s-5.83398 5.66699 -12.501 9c-13.333 6 -30.833 10.833 -52.5 14.5s-41.834 5.5 -60.501 5.5
c-38 0 -73.5 -5.83301 -106.5 -17.5s-62.333 -28.667 -88 -51s-47.167 -50 -64.5 -83s-29.666 -70.833 -36.999 -113.5h307l-10 -72h-304v-23c0.666992 -78 18.334 -137.5 53.001 -178.5s87 -61.5 157 -61.5c9.33301 0 20.333 0.333008 33 1s25.5 1.83398 38.5 3.50098
s25.5 3.66699 37.5 6s22 5.16602 30 8.49902c5.33301 2 8.83301 4.5 10.5 7.5s3.5 7.16699 5.5 12.5l29 91h63z" />
    <glyph glyph-name="afii10054" unicode="&#x405;" horiz-adv-x="567" 
d="M481 538l-2.99707 85.999c0 4.66699 -1.16699 9.16699 -3.5 13.5s-6.83301 8.33301 -13.5 12s-16 6.5 -28 8.5s-28 3 -48 3c-22 0 -43.5 -2.5 -64.5 -7.5s-39.5 -12.667 -55.5 -23s-28.833 -23.666 -38.5 -39.999s-14.5 -35.833 -14.5 -58.5c0 -18 3.5 -33.333 10.5 -46
s16.5 -23.667 28.5 -33s25.833 -17.333 41.5 -24s32.167 -13.334 49.5 -20.001l64 -25c21.333 -8.66699 40.5 -20 57.5 -34s31 -31.5 42 -52.5s16.5 -47.167 16.5 -78.5c0 -41.333 -7.5 -76.666 -22.5 -105.999s-35.333 -53.166 -61 -71.499s-55.834 -31.833 -90.501 -40.5
s-71.667 -13 -111 -13c-22.667 0 -44.834 1.33301 -66.501 4s-41.667 5.83398 -60 9.50098s-34.5 7.66699 -48.5 12s-24.667 8.5 -32 12.5l22 164h66l6 -90c1.33301 -12 11.833 -21.333 31.5 -28s50.5 -10 92.5 -10c56 0 99.833 11.667 131.5 35s47.5 59.333 47.5 108
c0 20 -3.83301 36.833 -11.5 50.5s-18 25.334 -31 35.001s-27.667 18 -44 25s-33.5 13.5 -51.5 19.5c-20.667 7.33301 -41.334 15.166 -62.001 23.499s-39.167 19.166 -55.5 32.499s-29.5 30.166 -39.5 50.499s-15 45.833 -15 76.5c0 37.333 7.33301 69.833 22 97.5
s34.5 50.5 59.5 68.5s54 31.333 87 40s67.833 13 104.5 13c44 0 81.167 -4.16699 111.5 -12.5s53.5 -15.833 69.5 -22.5l-24 -170z" />
    <glyph glyph-name="afii10055" unicode="&#x406;" horiz-adv-x="364" 
d="M27 0l5 48.998l73 7c7.33301 0.666992 11.833 2.33398 13.5 5.00098s3.16699 7.66699 4.5 15l80 572c1.33301 7.33301 1.33301 12.333 0 15s-5.66602 4.33398 -12.999 5.00098l-70 7l6 49h268l-6 -49l-76 -8c-7.33301 -1.33301 -11.833 -3 -13.5 -5
s-3.16699 -6.66699 -4.5 -14l-81 -571c-1.33301 -8 -1.33301 -13 0 -15s5.66602 -3.66699 12.999 -5l74 -8l-5 -49h-268z" />
    <glyph glyph-name="afii10056" unicode="&#x407;" horiz-adv-x="364" 
d="M229 845c0 -18 -5.66699 -32.999 -17 -44.999s-27 -18 -47 -18c-15.333 0 -27.333 4.16699 -36 12.5s-13 19.5 -13 33.5c0 17.333 5.66699 32.166 17 44.499s27 18.5 47 18.5c15.333 0 27.333 -4.16699 36 -12.5s13 -19.5 13 -33.5zM431 845.001
c0 -18 -5.66699 -32.999 -17 -44.999s-27 -18 -47 -18c-15.333 0 -27.333 4.16699 -36 12.5s-13 19.5 -13 33.5c0 17.333 5.66699 32.166 17 44.499s27 18.5 47 18.5c15.333 0 27.333 -4.16699 36 -12.5s13 -19.5 13 -33.5zM27 0.00195312l5 48.998l73 7
c7.33301 0.666992 11.833 2.33398 13.5 5.00098s3.16699 7.66699 4.5 15l80 572c1.33301 7.33301 1.33301 12.333 0 15s-5.66602 4.33398 -12.999 5.00098l-70 7l6 49h268l-6 -49l-76 -8c-7.33301 -1.33301 -11.833 -3 -13.5 -5s-3.16699 -6.66699 -4.5 -14l-81 -571
c-1.33301 -8 -1.33301 -13 0 -15s5.66602 -3.66699 12.999 -5l74 -8l-5 -49h-268z" />
    <glyph glyph-name="afii10057" unicode="&#x408;" horiz-adv-x="484" 
d="M342 649c1.33301 7.33301 1.16602 12.168 -0.500977 14.501s-5.83398 3.83301 -12.501 4.5l-83 7l7 49h271l-7 -49l-67 -8c-7.33301 -1.33301 -11.666 -2.83301 -12.999 -4.5s-2.66602 -6.16699 -3.99902 -13.5l-71 -502c-7.33301 -54 -24.833 -94 -52.5 -120
s-71.167 -39 -130.5 -39c-38 0 -71.167 4.16699 -99.5 12.5s-47.166 15.833 -56.499 22.5l18 138l64 -4v-72c0 -3.33301 0.5 -6 1.5 -8s3.5 -4 7.5 -6c4.66699 -2 13.167 -4.33301 25.5 -7s27.166 -4 44.499 -4c30.667 0 52 7.66699 64 23s20.333 38.666 25 69.999z" />
    <glyph glyph-name="afii10058" unicode="&#x409;" horiz-adv-x="1026" 
d="M223 724l578.002 -0.000976562l-8 -50l-99 -10c-7.33301 -0.666992 -12 -2.16699 -14 -4.5s-3.66699 -7.5 -5 -15.5l-30 -219h130c37.333 0 69.5 -4.5 96.5 -13.5s49.167 -21.333 66.5 -37s30 -34.334 38 -56.001s12 -45.167 12 -70.5
c0 -40.667 -6.66699 -76.5 -20 -107.5s-32.333 -57 -57 -78s-54.5 -36.667 -89.5 -47s-74.167 -15.5 -117.5 -15.5h-289l8 52l64 7c7.33301 0.666992 11.833 2.33398 13.5 5.00098s3.16699 7.66699 4.5 15l80 575h-206c-19.333 -154 -43 -286.333 -71 -397
c-10.667 -43.333 -23.834 -81.666 -39.501 -114.999s-35 -61.5 -58 -84.5s-50.167 -40.5 -81.5 -52.5s-68 -18.333 -110 -19l-6 82c28 1.33301 52.5 5.5 73.5 12.5s39.5 17.667 55.5 32s30 32.5 42 54.5s23 48.667 33 80c6 19.333 12.333 43.333 19 72s13.5 60.5 20.5 95.5
s13.667 72 20 111s11.833 78.167 16.5 117.5c1.33301 8 1.16602 13.5 -0.500977 16.5s-6.16699 5.16699 -13.5 6.5l-64 7zM699.002 71.999c25.333 0 49.499 2.83301 72.499 8.5s43.333 15 61 28s31.834 30.333 42.501 52s16 48.5 16 80.5c0 39.333 -11.5 68 -34.5 86
s-56.5 27 -100.5 27h-122l-39 -282h104z" />
    <glyph glyph-name="afii10059" unicode="&#x40a;" horiz-adv-x="1058" 
d="M675 408l131.001 -0.00195312c74.667 0 129 -15.167 163 -45.5s51 -71.166 51 -122.499c0 -40.667 -6.66699 -76.167 -20 -106.5s-32.333 -55.333 -57 -75s-54.334 -34.334 -89.001 -44.001s-73.667 -14.5 -117 -14.5h-287l7 52l64 7
c7.33301 0.666992 11.833 2.33398 13.5 5.00098s3.16699 7.66699 4.5 15l36 257h-326l-37 -259c-1.33301 -8 -1.33301 -13 0 -15s5.66602 -3.66699 12.999 -5l65 -8l-8 -49h-248l6 49l63 7c7.33301 1.33301 11.833 3.16602 13.5 5.49902s3.16699 7.16602 4.5 14.499l80 572
c1.33301 7.33301 1.33301 12.333 0 15s-5.66602 4.33398 -12.999 5.00098l-60 7l7 49h248l-6 -49l-67 -8c-7.33301 -1.33301 -11.833 -3 -13.5 -5s-3.16699 -6.66699 -4.5 -14l-33 -240h326l34 240c1.33301 7.33301 1.33301 12.333 0 15s-5.33301 4.33398 -12 5.00098l-61 7
l5 49h254l-6 -50l-72 -8c-7.33301 -0.666992 -12 -2.16699 -14 -4.5s-3.66699 -7.16602 -5 -14.499zM731.001 71.998c25.333 0 49.666 2.33301 72.999 7s43.833 13 61.5 25s31.834 28.5 42.501 49.5s16 47.5 16 79.5c0 39.333 -12 66.5 -36 81.5s-58 22.5 -102 22.5h-121
l-37 -265h103z" />
    <glyph glyph-name="afii10060" unicode="&#x40b;" horiz-adv-x="849" 
d="M392 410c26 7.33301 54.8291 13.333 86.4961 18s62.5 7 92.5 7c66 0 112.833 -15.167 140.5 -45.5s36.834 -77.833 27.501 -142.5l-24 -169c-1.33301 -8 -1.16602 -13 0.500977 -15s6.16699 -3.66699 13.5 -5l63 -7l-8 -51h-237v0l6 51l53 7c6 1.33301 10 3 12 5
s3.66699 6.66699 5 14l22 150c3.33301 22.667 4.5 42.5 3.5 59.5s-5 31 -12 42s-18 19.167 -33 24.5s-34.833 8 -59.5 8c-24 0 -51.333 -2.33301 -82 -7s-57.667 -10.334 -81 -17.001l-36 -259c-1.33301 -8 -1.16602 -13 0.500977 -15s6.16699 -3.66699 13.5 -5l62 -7
l-8 -51h-253l8 51l67 8c7.33301 1.33301 12.166 3 14.499 5s4.16602 7.33301 5.49902 16l80 573h-146c-5.33301 0 -9.16602 -0.5 -11.499 -1.5s-4.16602 -4.16699 -5.49902 -9.5l-28 -86l-66 -1l24 169h623l-25 -179l-64 4l-3 86c0 6.66699 -1.16699 11.334 -3.5 14.001
s-7.16602 4 -14.499 4h-190z" />
    <glyph glyph-name="afii10061" unicode="&#x40c;" horiz-adv-x="721" 
d="M413 766l-25 48l204 127l37 -75zM214 78c-1.33301 -8 -1.33008 -13.1641 0.00292969 -15.4971s5.66602 -4.16602 12.999 -5.49902l66 -8l-8 -49h-249l7 49l61 7c7.33301 1.33301 12 3.16602 14 5.49902s3.66699 7.16602 5 14.499l80 572
c1.33301 7.33301 1.16602 12.166 -0.500977 14.499s-6.16699 4.16602 -13.5 5.49902l-62 7l7 49h252l-6 -49l-68 -8c-11.333 -1.33301 -17.666 -7 -18.999 -17s-2.66602 -20.667 -3.99902 -32l-30 -213h74c15.333 0 28.666 1.5 39.999 4.5s21.833 8.16699 31.5 15.5
s19 17.166 28 29.499s18.167 27.5 27.5 45.5l71 135c8 14.667 16 28.167 24 40.5s17.167 23 27.5 32s22.666 16.167 36.999 21.5s31.5 8 51.5 8c10 0 19.333 -0.666992 28 -2s17.334 -3 26.001 -5l-13 -68c-5.33301 1.33301 -10 2 -14 2h-12
c-12 0 -22.167 -1.66699 -30.5 -5s-15.333 -7.66602 -21 -12.999s-10.5 -11.833 -14.5 -19.5l-13 -25.5l-69 -134c-15.333 -29.333 -33 -50.833 -53 -64.5s-38.333 -22.834 -55 -27.501v0c17.333 -7.33301 31.5 -18.333 42.5 -33s22.167 -37 33.5 -67l74 -189
c3.33301 -8 6.5 -13.667 9.5 -17s7.83301 -5.66602 14.5 -6.99902l67 -11l-8 -51h-158c-6.66699 22.667 -14.334 46.667 -23.001 72s-17.5 49.833 -26.5 73.5l-26 66l-20.5 49.5c-6 14.667 -11.833 26.667 -17.5 36s-11.834 16.833 -18.501 22.5s-14.5 9.5 -23.5 11.5
s-20.167 3 -33.5 3h-67z" />
    <glyph glyph-name="afii10062" unicode="&#x40e;" horiz-adv-x="659" 
d="M594 900c-16.667 -42.667 -38.834 -73.001 -66.501 -91.001s-61.167 -27 -100.5 -27c-40 0 -72.833 9.16699 -98.5 27.5s-41.834 48.5 -48.501 90.5l69 20c4.66699 -29.333 13.834 -49.666 27.501 -60.999s30.834 -17 51.501 -17c19.333 0 37.5 5.16699 54.5 15.5
s31.5 31.5 43.5 63.5zM155 636.999c-2 7.33301 -4.5 13.001 -7.5 17.001s-8.83301 7 -17.5 9l-42 11l17 50h220l-8 -50l-74 -9l109 -427h3l226 426l-71 9l17 51h205l-7 -51l-44 -11c-9.33301 -2.66699 -16 -6 -20 -10s-9 -11.667 -15 -23l-264 -485
c-16 -29.333 -31 -54 -45 -74s-28.5 -36 -43.5 -48s-31.167 -20.667 -48.5 -26s-37 -8 -59 -8c-23.333 0 -46.833 3.16699 -70.5 9.5s-42.167 13.833 -55.5 22.5l31 67c9.33301 -5.33301 22 -11 38 -17s33.667 -9 53 -9c14.667 0 27.167 2 37.5 6s19.5 9.66699 27.5 17
s15.5 16.666 22.5 27.999l22.5 38z" />
    <glyph glyph-name="afii10145" unicode="&#x40f;" horiz-adv-x="768" 
d="M526 70l79.999 574.001c1.33301 7.33301 1.33301 12.166 0 14.499s-5.66602 4.16602 -12.999 5.49902l-61 7l8 53h251l-7 -53l-67 -8c-7.33301 -1.33301 -12 -3 -14 -5s-3.66699 -7 -5 -15l-79 -562c-1.33301 -7.33301 -1.33301 -12.166 0 -14.499
s5.66602 -4.16602 12.999 -5.49902l66 -8l-8 -53h-263c-8.66699 0 -14 -4.33301 -16 -13l-34 -143l-60 3l3 140c0 8.66699 -3.66699 13 -11 13h-276l7 53l65 7c7.33301 0.666992 11.833 2.33398 13.5 5.00098s3.16699 7.66699 4.5 15l79 564
c1.33301 7.33301 1.33301 12.166 0 14.499s-5.66602 4.16602 -12.999 5.49902l-63 7l8 53h251l-7 -53l-66 -8c-7.33301 -1.33301 -12 -3 -14 -5s-3.66699 -7 -5 -15l-80 -573h313z" />
    <glyph glyph-name="afii10017" unicode="&#x410;" horiz-adv-x="699" 
d="M428 0l6.99902 47.001l85 9l-31 165h-274l-75 -165l77 -9l-8 -47h-223l7 47l43 11c7.33301 2 13.333 5 18 9s8.33398 8.66699 11.001 14l302 643h113l132 -649c2 -8.66699 9 -14.334 21 -17.001l43 -11l-7 -47h-241zM408.999 643.001l-162 -349h230z" />
    <glyph glyph-name="afii10018" unicode="&#x411;" horiz-adv-x="668" 
d="M336 73c26 0 50.667 2 74 6s44 11.667 62 23s32.167 27 42.5 47s15.5 46 15.5 78c0 20 -3.66699 36.667 -11 50s-17.5 24 -30.5 32s-28.5 13.5 -46.5 16.5s-38 4.5 -60 4.5h-133l-36 -257h123zM259 401l141 -0.00195312c79.333 0 136.833 -15 172.5 -45
s53.5 -72.333 53.5 -127c0 -41.333 -7.33301 -76.5 -22 -105.5s-34.667 -52.667 -60 -71s-55.5 -31.666 -90.5 -39.999s-72.5 -12.5 -112.5 -12.5h-308l8 51l64 7c7.33301 0.666992 11.833 2.33398 13.5 5.00098s3.16699 7.66699 4.5 15l79 568c1.33301 6 1 10.333 -1 13
s-6.66699 4.66699 -14 6l-60 8l7 51h494l-25 -179l-66 4l-3 89c0 10 -5.33301 15 -16 15h-224z" />
    <glyph glyph-name="afii10019" unicode="&#x412;" horiz-adv-x="646" 
d="M35 0l7.00293 48.0049l62 7c7.33301 1.33301 12 3.16602 14 5.49902s3.66699 7.16602 5 14.499l79 572c1.33301 7.33301 1.16602 12.333 -0.500977 15s-5.83398 4.33398 -12.501 5.00098l-61 8l7 49h292c36.667 0 67.167 -4 91.5 -12s44 -18.833 59 -32.5
s25.667 -29.834 32 -48.501s9.5 -38.667 9.5 -60c0 -28.667 -4.16699 -53.834 -12.5 -75.501s-19.5 -40.334 -33.5 -56.001s-29.667 -28.334 -47 -38.001s-35 -17.167 -53 -22.5l-1 -4c48 -5.33301 84 -21.5 108 -48.5s36 -61.5 36 -103.5s-7.16699 -77.167 -21.5 -105.5
s-34.5 -51.333 -60.5 -69s-56.833 -30.167 -92.5 -37.5s-74.834 -11 -117.501 -11h-289zM323.003 73.0049c28.667 0 55.167 1.83301 79.5 5.5s45.5 10.667 63.5 21s32 25.333 42 45s15 45.5 15 77.5c0 20.667 -3.66699 38.167 -11 52.5s-17.5 26 -30.5 35
s-28.167 15.5 -45.5 19.5s-36.333 6 -57 6h-132l-35 -262h111zM344.003 405.005c21.333 0 42.832 2 64.499 6s41.334 11.667 59.001 23s32 26.833 43 46.5s16.5 45.167 16.5 76.5c0 37.333 -11.5 62.333 -34.5 75s-56.5 19 -100.5 19h-101l-33 -246h86z" />
    <glyph glyph-name="afii10020" unicode="&#x413;" horiz-adv-x="586" 
d="M33 0l8 50.9971l64 8c7.33301 0.666992 11.833 2.33398 13.5 5.00098s3.16699 7.66699 4.5 15l79 567c1.33301 7.33301 1.33301 12.333 0 15s-5.66602 4.33398 -12.999 5.00098l-62 7l7 51h490l-25 -179l-65 3l-4 92c0 8.66699 -5 13 -15 13h-220l-80 -574
c-1.33301 -7.33301 -1.33301 -12.166 0 -14.499s5.66602 -3.83301 12.999 -4.5l145 -9l-8 -51h-332z" />
    <glyph glyph-name="afii10021" unicode="&#x414;" horiz-adv-x="773" 
d="M123 0c-10 0 -16.0029 -4.33496 -18.0029 -13.002l-36 -130l-67 -4l29 218h60c24 26.667 45.5 54.834 64.5 84.501s36 63.334 51 101.001s28.333 80.5 40 128.5s21.834 104 30.501 168l13 92c1.33301 7.33301 1.33301 12.5 0 15.5s-5.66602 5.16699 -12.999 6.5l-62 7
l7 50h573l-7 -50l-68 -8c-6.66699 -1.33301 -11.167 -3.33301 -13.5 -6s-4.16602 -8 -5.49902 -16l-80 -573h74l-29 -218l-66 4l-1 130c0 8.66699 -4.66699 13 -14 13h-462zM379.997 653.998l-10.999 -88c-14.667 -119.333 -36.834 -219 -66.501 -299
s-67.167 -145.333 -112.5 -196h339l81 583h-230z" />
    <glyph glyph-name="afii10022" unicode="&#x415;" horiz-adv-x="616" 
d="M36 0l6.00098 49.001l63 7c7.33301 1.33301 11.833 3.16602 13.5 5.49902s3.16699 7.16602 4.5 14.499l79 571c1.33301 7.33301 1.33301 12.333 0 15s-5.66602 4.33398 -12.999 5.00098l-60 7l6 50h492l-23 -165l-62 4l-3 77c-0.666992 8.66699 -6 13 -16 13h-230
l-34 -252h261l-10 -72h-262l-35 -258h252c5.33301 0 9.16602 0.5 11.499 1.5s4.16602 4.16699 5.49902 9.5l28 87h62l-23 -169h-513z" />
    <glyph glyph-name="afii10024" unicode="&#x416;" horiz-adv-x="1023" 
d="M529 648c1.33301 7.33301 1.33691 12.1631 0.00390625 14.4961s-5.66602 4.16602 -12.999 5.49902l-62 7l7 49h250l-7 -49l-67 -8c-7.33301 -1.33301 -12 -3 -14 -5s-3.66699 -6.66699 -5 -14l-33 -240h57c14.667 0 27.334 1.33301 38.001 4s20.5 7.83398 29.5 15.501
s17.667 18.167 26 31.5s17.5 30.666 27.5 51.999l54 114c7.33301 16 15 30.833 23 44.5s17.333 25.5 28 35.5s23.5 17.833 38.5 23.5s32.833 8.5 53.5 8.5c8 0 15.667 -0.333008 23 -1s13.666 -1.33398 18.999 -2.00098c6 -1.33301 11.667 -2.66602 17 -3.99902l-13 -70
c-5.33301 1.33301 -10.166 2 -14.499 2h-16.5c-22 -0.666992 -38.167 -7 -48.5 -19s-21.166 -30.333 -32.499 -55l-59 -125c-12.667 -26.667 -27.334 -46.334 -44.001 -59.001s-33 -21 -49 -25v-1c8 -3.33301 15.333 -7.66602 22 -12.999s13.167 -12.333 19.5 -21
s12.5 -19.667 18.5 -33s12.667 -29.666 20 -48.999l65 -176c4.66699 -13.333 12.667 -21 24 -23l65 -11l-7 -52h-160c-6.66699 23.333 -14.167 47.833 -22.5 73.5l-25.5 75l-24.5 68c-7.66699 21 -14.167 37.833 -19.5 50.5c-6 14.667 -11.667 26.5 -17 35.5
s-11.166 16 -17.499 21s-13.833 8.33301 -22.5 10s-19.334 2.5 -32.001 2.5h-53l-37 -258c-1.33301 -8 -1.33301 -13.167 0 -15.5s5.66602 -4.16602 12.999 -5.49902l64 -8l-7 -49h-246l6 49l64 8c7.33301 1.33301 11.666 3 12.999 5s2.66602 6.66699 3.99902 14l36 260h-53
c-12.667 0 -23.5 -1 -32.5 -3s-17.333 -5.5 -25 -10.5s-15.334 -12 -23.001 -21s-16.5 -20.5 -26.5 -34.5l-33.5 -50l-43.5 -67.5l-46 -75.5l-43 -74h-161l7 52l67 11c7.33301 1.33301 13.166 3.5 17.499 6.5s9.16602 8.5 14.499 16.5l130 208
c15.333 23.333 29.833 41.5 43.5 54.5s31.167 22.833 52.5 29.5v1c-14 4.66699 -26.833 13.834 -38.5 27.501s-20.5 34.5 -26.5 62.5l-27 129c-5.33301 25.333 -12.166 42.333 -20.499 51s-21.833 13.334 -40.5 14.001c-4 0 -8.16699 -0.166992 -12.5 -0.5
s-9.16602 -0.833008 -14.499 -1.5l6 69c9.33301 2.66699 18.666 4.5 27.999 5.5s18.333 1.5 27 1.5c33.333 0 57.166 -7 71.499 -21s25.166 -36.667 32.499 -68l34 -145c4.66699 -19.333 9.33398 -35.166 14.001 -47.499s10.5 -22 17.5 -29s15.167 -11.833 24.5 -14.5
s21 -4 35 -4h56z" />
    <glyph glyph-name="afii10025" unicode="&#x417;" horiz-adv-x="611" 
d="M385 737c66.667 0 117.332 -13.667 151.999 -41s52 -68 52 -122c0 -26.667 -4.33301 -50.834 -13 -72.501s-20.834 -40.5 -36.501 -56.5s-34 -29.5 -55 -40.5s-43.833 -19.5 -68.5 -25.5l-1 -4c42.667 -7.33301 76.5 -24.166 101.5 -50.499s37.5 -62.833 37.5 -109.5
c0 -30.667 -5.83301 -59.834 -17.5 -87.501s-29.334 -51.834 -53.001 -72.501s-53 -37 -88 -49s-75.833 -18 -122.5 -18c-46 0 -89 5.33301 -129 16s-72.333 24.667 -97 42l22 156h66l3 -98c0 -10.667 4 -17.667 12 -21c16.667 -8 36 -13.667 58 -17s44.667 -5 68 -5
c24.667 0 48.167 3.33301 70.5 10s41.833 16.667 58.5 30s29.834 29.833 39.501 49.5s14.5 42.834 14.5 69.501c0 74 -48 111 -144 111h-112l10 73h74c30.667 0 58.667 3.83301 84 11.5s47 18.5 65 32.5s32 30.667 42 50s15 40.333 15 63c0 38.667 -11.667 65.5 -35 80.5
s-53.666 22.5 -90.999 22.5c-19.333 0 -40.5 -1.5 -63.5 -4.5s-40.167 -7.16699 -51.5 -12.5c-4.66699 -2 -8.16699 -4.16699 -10.5 -6.5s-4.16602 -6.16602 -5.49902 -11.499l-30 -99h-68l22 152c26.667 16 60.167 29.167 100.5 39.5s81.833 15.5 124.5 15.5z" />
    <glyph glyph-name="afii10026" unicode="&#x418;" horiz-adv-x="810" 
d="M478 0l8 50.0029l64 7c7.33301 1.33301 11.833 3.16602 13.5 5.49902s3.16699 7.16602 4.5 14.499l74 518l-3 -1l-427 -594h-178l7 50l63 7c7.33301 1.33301 12 3.16602 14 5.49902s3.66699 7.16602 5 14.499l78 570c1.33301 7.33301 1.33301 12.333 0 15
s-5.66602 4.33398 -12.999 5.00098l-62 7l8 50h253l-7 -50l-68 -8c-7.33301 -1.33301 -12 -3 -14 -5s-3.66699 -6.66699 -5 -14l-73 -515h4l423 592h186l-8 -50l-68 -8c-7.33301 -1.33301 -12 -3 -14 -5s-3.66699 -6.66699 -5 -14l-78 -569c-1.33301 -8 -1.33301 -13 0 -15
s5.66602 -3.66699 12.999 -5l66 -8l-7 -50h-254z" />
    <glyph glyph-name="afii10027" unicode="&#x419;" horiz-adv-x="810" 
d="M670 900c-16.667 -42.667 -38.834 -73.001 -66.501 -91.001s-61.167 -27 -100.5 -27c-40 0 -72.833 9.16699 -98.5 27.5s-41.834 48.5 -48.501 90.5l69 20c4.66699 -29.333 13.834 -49.666 27.501 -60.999s30.834 -17 51.501 -17c19.333 0 37.5 5.16699 54.5 15.5
s31.5 31.5 43.5 63.5zM478 -0.000976562l8 50.0029l64 7c7.33301 1.33301 11.833 3.16602 13.5 5.49902s3.16699 7.16602 4.5 14.499l74 518l-3 -1l-427 -594h-178l7 50l63 7c7.33301 1.33301 12 3.16602 14 5.49902s3.66699 7.16602 5 14.499l78 570
c1.33301 7.33301 1.33301 12.333 0 15s-5.66602 4.33398 -12.999 5.00098l-62 7l8 50h253l-7 -50l-68 -8c-7.33301 -1.33301 -12 -3 -14 -5s-3.66699 -6.66699 -5 -14l-73 -515h4l423 592h186l-8 -50l-68 -8c-7.33301 -1.33301 -12 -3 -14 -5s-3.66699 -6.66699 -5 -14
l-78 -569c-1.33301 -8 -1.33301 -13 0 -15s5.66602 -3.66699 12.999 -5l66 -8l-7 -50h-254z" />
    <glyph glyph-name="afii10028" unicode="&#x41a;" horiz-adv-x="721" 
d="M214 78c-1.33301 -8 -1.33008 -13.1641 0.00292969 -15.4971s5.66602 -4.16602 12.999 -5.49902l66 -8l-8 -49h-249l7 49l61 7c7.33301 1.33301 12 3.16602 14 5.49902s3.66699 7.16602 5 14.499l80 572c1.33301 7.33301 1.16602 12.166 -0.500977 14.499
s-6.16699 4.16602 -13.5 5.49902l-62 7l7 49h252l-6 -49l-68 -8c-11.333 -1.33301 -17.666 -7 -18.999 -17s-2.66602 -20.667 -3.99902 -32l-30 -213h74c15.333 0 28.666 1.5 39.999 4.5s21.833 8.16699 31.5 15.5s19 17.166 28 29.499s18.167 27.5 27.5 45.5l71 135
c8 14.667 16 28.167 24 40.5s17.167 23 27.5 32s22.666 16.167 36.999 21.5s31.5 8 51.5 8c10 0 19.333 -0.666992 28 -2s17.334 -3 26.001 -5l-13 -68c-5.33301 1.33301 -10 2 -14 2h-12c-12 0 -22.167 -1.66699 -30.5 -5s-15.333 -7.66602 -21 -12.999
s-10.5 -11.833 -14.5 -19.5l-13 -25.5l-69 -134c-15.333 -29.333 -33 -50.833 -53 -64.5s-38.333 -22.834 -55 -27.501v0c17.333 -7.33301 31.5 -18.333 42.5 -33s22.167 -37 33.5 -67l74 -189c3.33301 -8 6.5 -13.667 9.5 -17s7.83301 -5.66602 14.5 -6.99902l67 -11
l-8 -51h-158c-6.66699 22.667 -14.334 46.667 -23.001 72s-17.5 49.833 -26.5 73.5l-26 66l-20.5 49.5c-6 14.667 -11.833 26.667 -17.5 36s-11.834 16.833 -18.501 22.5s-14.5 9.5 -23.5 11.5s-20.167 3 -33.5 3h-67z" />
    <glyph glyph-name="afii10029" unicode="&#x41b;" horiz-adv-x="761" 
d="M599 654h-220c-9.33301 -76.667 -19.833 -148.167 -31.5 -214.5s-24.5 -127.166 -38.5 -182.499c-10.667 -43.333 -24 -81.666 -40 -114.999s-35.5 -61.333 -58.5 -84s-50.167 -40 -81.5 -52s-68 -18.333 -110 -19l-6 81c28 1.33301 52.5 5.5 73.5 12.5
s39.667 17.667 56 32s30.5 32.5 42.5 54.5s23 48.667 33 80c6 19.333 12.333 43.333 19 72s13.334 60.5 20.001 95.5s13.167 72 19.5 111s11.833 78.167 16.5 117.5c1.33301 8 1.16602 13.5 -0.500977 16.5s-6.16699 5.16699 -13.5 6.5l-64 7l8 51h560l-7 -51l-68 -8
c-6.66699 -1.33301 -11.167 -3.33301 -13.5 -6s-4.16602 -8 -5.49902 -16l-78 -565c-1.33301 -8 -1.33301 -13 0 -15s5.66602 -3.66699 12.999 -5l66 -8l-9 -50h-251l8 50l62 7c7.33301 1.33301 11.833 3.16602 13.5 5.49902s3.16699 7.16602 4.5 14.499z" />
    <glyph glyph-name="afii10030" unicode="&#x41c;" horiz-adv-x="923" 
d="M578 0l4.99902 48.9961l85 7c6 0.666992 10 2.33398 12 5.00098s3.66699 7.66699 5 15l69 498l-250 -404h-89l-141 406l-70 -499c-1.33301 -8 -1.5 -13.167 -0.5 -15.5s5.16699 -3.83301 12.5 -4.5l86 -8l-6 -49h-259l5 49l63 7c7.33301 1.33301 12 3.16602 14 5.49902
s3.66699 7.5 5 15.5l79 570c1.33301 7.33301 1.33301 12.333 0 15s-5.66602 4.33398 -12.999 5.00098l-60 7l6 50h179l158 -469l282 469h189l-7 -49l-66 -8c-7.33301 -1.33301 -12 -3.16602 -14 -5.49902s-3.66699 -8.16602 -5 -17.499l-80 -568
c-1.33301 -6.66699 -1 -11.167 1 -13.5s6.33301 -4.16602 13 -5.49902l65 -8l-7 -49h-266z" />
    <glyph glyph-name="afii10031" unicode="&#x41d;" horiz-adv-x="792" 
d="M463 0l8 49.002l62 7c7.33301 1.33301 11.833 3.16602 13.5 5.49902s3.16699 7.16602 4.5 14.499l36 261h-336l-38 -260c-1.33301 -8 -1.33301 -13 0 -15s5.66602 -3.66699 12.999 -5l65 -8l-7 -49h-249l7 49l63 7c7.33301 1.33301 11.833 3.16602 13.5 5.49902
s3.16699 7.16602 4.5 14.499l80 572c1.33301 7.33301 1.33301 12.333 0 15s-5.66602 4.33398 -12.999 5.00098l-60 7l6 49h249l-7 -49l-67 -8c-7.33301 -1.33301 -11.833 -3 -13.5 -5s-3.16699 -6.66699 -4.5 -14l-32 -239h336l34 239c1.33301 7.33301 1.33301 12.333 0 15
s-5.33301 4.33398 -12 5.00098l-61 7l5 49h249l-6 -49l-66 -8c-7.33301 -1.33301 -12 -3 -14 -5s-3.66699 -6.66699 -5 -14l-79 -571c-1.33301 -8 -1.33301 -13 0 -15s5.33301 -3.66699 12 -5l65 -8l-7 -49h-249z" />
    <glyph glyph-name="afii10032" unicode="&#x41e;" horiz-adv-x="752" 
d="M348 -12c-50 0 -92.998 7.33301 -128.998 22s-65.833 35.167 -89.5 61.5s-41 57.833 -52 94.5s-16.5 76.667 -16.5 120c0 64.667 8.5 124.5 25.5 179.5s42.167 102.667 75.5 143s74.666 71.833 123.999 94.5s106.333 34 171 34c49.333 0 91.666 -7.5 126.999 -22.5
s64.5 -35.833 87.5 -62.5s39.833 -58.167 50.5 -94.5s16 -75.833 16 -118.5c0 -70 -9 -132.833 -27 -188.5s-43.833 -103 -77.5 -142s-74.5 -68.833 -122.5 -89.5s-102.333 -31 -163 -31zM360.002 65c39.333 0 76.001 7.33398 110.001 22.001s63.667 37 89 67
s45.5 67.667 60.5 113s22.833 98.333 23.5 159c0 32.667 -3.66699 63 -11 91c-12 46.667 -33.333 82.167 -64 106.5s-71.334 36.5 -122.001 36.5c-40 0 -77.333 -7.5 -112 -22.5s-65 -37.333 -91 -67s-46.5 -66.834 -61.5 -111.501s-23.167 -96.667 -24.5 -156
c0 -33.333 3.66699 -64 11 -92c23.333 -97.333 87.333 -146 192 -146z" />
    <glyph glyph-name="afii10033" unicode="&#x41f;" horiz-adv-x="777" 
d="M294 654l-79.999 -575.997c-1.33301 -8 -1.33301 -13 0 -15s5.66602 -3.66699 12.999 -5l64 -8l-7 -50h-251l7 50l64 7c7.33301 1.33301 11.833 3.16602 13.5 5.49902s3.16699 7.16602 4.5 14.499l80 569c1.33301 7.33301 1.33301 12.333 0 15
s-5.66602 4.33398 -12.999 5.00098l-62 7l7 51h665l-7 -51l-68 -8c-7.33301 -1.33301 -12 -3 -14 -5s-3.66699 -6.66699 -5 -14l-78 -568c-1.33301 -8 -1.33301 -13 0 -15s5.66602 -3.66699 12.999 -5l66 -8l-8 -50h-251l7 50l62 7
c7.33301 1.33301 11.833 3.16602 13.5 5.49902s3.16699 7.16602 4.5 14.499l81 577h-321z" />
    <glyph glyph-name="afii10034" unicode="&#x420;" horiz-adv-x="641" 
d="M35 0l7.00195 49.001l63 7c7.33301 1.33301 12 3.16602 14 5.49902s3.66699 7.16602 5 14.499l79 572c1.33301 7.33301 1.16602 12.333 -0.500977 15s-6.16699 4.33398 -13.5 5.00098l-60 7l6 49h298c39.333 0 72.666 -4.66699 99.999 -14s49.5 -22.333 66.5 -39
s29.167 -36 36.5 -58s11 -46 11 -72c0 -46.667 -7 -87 -21 -121s-34.167 -61.833 -60.5 -83.5s-58.166 -37.667 -95.499 -48s-79.333 -15.5 -126 -15.5h-105l-27 -196c-0.666992 -8 -0.333984 -13.167 0.999023 -15.5s5.33301 -3.83301 12 -4.5l139 -8l-6 -49h-323z
M342.002 345.001c28 0 54.834 2.33105 80.501 6.99805s48.167 13.834 67.5 27.501s34.666 32.667 45.999 57s17 56.5 17 96.5c0 42.667 -13 73.334 -39 92.001s-64 28 -114 28h-108l-43 -308h93z" />
    <glyph glyph-name="afii10035" unicode="&#x421;" horiz-adv-x="662" 
d="M595 41c-29.333 -18 -65.8369 -31.333 -109.504 -40s-88.167 -13 -133.5 -13c-51.333 0 -95.166 7.66699 -131.499 23s-66.166 36.833 -89.499 64.5s-40.5 60.5 -51.5 98.5s-16.5 79.667 -16.5 125c0 63.333 8.83301 121.833 26.5 175.5s43.667 100 78 139
s77 69.333 128 91s109.833 32.5 176.5 32.5c43.333 0 83.5 -4.83301 120.5 -14.5s66.833 -22.834 89.5 -39.501l-22 -160l-66 4l-4 96c0 5.33301 -0.5 9.33301 -1.5 12s-4.16699 5 -9.5 7c-15.333 6 -32.833 10.833 -52.5 14.5s-41.167 5.5 -64.5 5.5
c-44 0 -84.5 -7.83301 -121.5 -23.5s-69 -38.667 -96 -69s-48 -67.5 -63 -111.5s-22.5 -94.333 -22.5 -151c0 -80 17.333 -140.833 52 -182.5s87.334 -62.5 158.001 -62.5c23.333 0 47.833 1.5 73.5 4.5s48.167 8.83301 67.5 17.5
c6.66699 2.66699 11.334 8.33398 14.001 17.001l29 91h63z" />
    <glyph glyph-name="afii10036" unicode="&#x422;" horiz-adv-x="636" 
d="M134 0l7 50.998l100 7c6.66699 0.666992 11 2.33398 13 5.00098s3.66699 7.66699 5 15l80 575h-154c-5.33301 0 -9.16602 -0.5 -11.499 -1.5s-4.16602 -4.16699 -5.49902 -9.5l-27 -87h-63l23 169h588l-23 -169h-63l-4 87c-0.666992 5.33301 -1.83398 8.5 -3.50098 9.5
s-5.16699 1.5 -10.5 1.5h-155l-81 -575c-1.33301 -7.33301 -1.33301 -12.166 0 -14.499s5.66602 -3.83301 12.999 -4.5l109 -8l-7 -51h-330z" />
    <glyph glyph-name="afii10037" unicode="&#x423;" horiz-adv-x="659" 
d="M155 637c-2 7.33301 -4.5 13.001 -7.5 17.001s-8.83301 7 -17.5 9l-42 11l17 50h220l-8 -50l-74 -9l109 -427h3l226 426l-71 9l17 51h205l-7 -51l-44 -11c-9.33301 -2.66699 -16 -6 -20 -10s-9 -11.667 -15 -23l-264 -485c-16 -29.333 -31 -54 -45 -74
s-28.5 -36 -43.5 -48s-31.167 -20.667 -48.5 -26s-37 -8 -59 -8c-23.333 0 -46.833 3.16699 -70.5 9.5s-42.167 13.833 -55.5 22.5l31 67c9.33301 -5.33301 22 -11 38 -17s33.667 -9 53 -9c14.667 0 27.167 2 37.5 6s19.5 9.66699 27.5 17s15.5 16.666 22.5 27.999l22.5 38z
" />
    <glyph glyph-name="afii10038" unicode="&#x424;" horiz-adv-x="809" 
d="M606 687l-73.001 -8.00293c-7.33301 -1.33301 -12.166 -3 -14.499 -5s-4.16602 -6.66699 -5.49902 -14l-7 -55c96.667 -1.33301 168.667 -18.666 216 -51.999s71 -81.333 71 -144c0 -50.667 -8.33301 -93.167 -25 -127.5s-40.167 -62.166 -70.5 -83.499
s-67.333 -37 -111 -47s-92.5 -15.667 -146.5 -17l-8 -62c-0.666992 -9.33301 3.66602 -14.333 12.999 -15l75 -7l-7 -50h-265l7 50l72 6c7.33301 0.666992 12 2.33398 14 5.00098s3.66699 7.66699 5 15l9 58c-93.333 1.33301 -164.833 17.166 -214.5 47.499
s-74.5 81.833 -74.5 154.5c0 47.333 7.83301 87.5 23.5 120.5s38.667 60.333 69 82s67.5 37.667 111.5 48s94.333 16.5 151 18.5l7 54c2 12.667 -2.66699 19.334 -14 20.001l-73 8l7 50h265zM157.999 343.997c0 -26 3.83203 -47.8311 11.499 -65.498s19.834 -32 36.501 -43
s38.167 -18.833 64.5 -23.5s57.833 -7.33398 94.5 -8.00098l47 331c-40 -0.666992 -75.667 -4.33398 -107 -11.001s-58 -17.334 -80 -32.001s-38.667 -34.167 -50 -58.5s-17 -54.166 -17 -89.499zM702.998 399.999c0 48 -16.334 82.667 -49.001 104s-85.667 32 -159 32
l-46 -332c40 0.666992 75.833 4.5 107.5 11.5s58.334 18.167 80.001 33.5s38.167 35.333 49.5 60s17 55 17 91z" />
    <glyph glyph-name="afii10039" unicode="&#x425;" horiz-adv-x="685" 
d="M399 0l8 49.002l75 9l-131 248l-193 -248l70 -9l-7 -49h-225l5 47l52 11c10.667 2.66699 20 9 28 19l228 293l-146 277c-2.66699 5.33301 -5.5 9.16602 -8.5 11.499s-7.16699 4.16602 -12.5 5.49902l-42 11l8 49h229l-7 -49l-74 -9l118 -236l185 236l-70 9l9 49h214
l-7 -49l-44 -11c-11.333 -2.66699 -20.666 -9 -27.999 -19l-218 -274l161 -294c5.33301 -9.33301 12.666 -15.333 21.999 -18l49 -10l-7 -49h-241z" />
    <glyph glyph-name="afii10040" unicode="&#x426;" horiz-adv-x="763" 
d="M29 0l6.99805 50.9961l68 8c7.33301 1.33301 11.833 3 13.5 5s3.16699 6.66699 4.5 14l79 568c1.33301 8 1.33301 13 0 15s-5.66602 3.66699 -12.999 5l-66 8l8 50h251l-7 -50l-62 -7c-7.33301 -1.33301 -12 -3.16602 -14 -5.49902s-3.66699 -7.16602 -5 -14.499
l-81 -577h307l81 576c1.33301 8 1.33301 13 0 15s-5.66602 3.66699 -12.999 5l-63 8l7 50h250l-7 -50l-64 -7c-7.33301 -1.33301 -12 -3.16602 -14 -5.49902s-3.66699 -7.16602 -5 -14.499l-80 -577h79l-29 -225l-65 4l-2 138c0 8.66699 -4.66699 13 -14 13h-551z" />
    <glyph glyph-name="afii10041" unicode="&#x427;" horiz-adv-x="723" 
d="M346 0l8.00195 53.999l109 7c7.33301 0.666992 12 2.16699 14 4.5s3.66699 7.5 5 15.5l30 215c-24.667 -7.33301 -52.667 -13 -84 -17s-61 -6 -89 -6c-61.333 0 -107.333 11.5 -138 34.5s-46 59.833 -46 110.5c0 12.667 1 26.334 3 41.001l25 188
c1.33301 8 1.33301 13 0 15s-5.66602 3.66699 -12.999 5l-60 7l8 50h247l-8 -50l-63 -8c-7.33301 -1.33301 -12 -3 -14 -5s-3.66699 -6.66699 -5 -14l-22 -168c-1.33301 -8.66699 -2.33301 -16.5 -3 -23.5s-1 -14.167 -1 -21.5c0 -30 7.83301 -52.5 23.5 -67.5
s44.5 -22.5 86.5 -22.5c12 0 25.5 0.666992 40.5 2s30 3 45 5s29.333 4.5 43 7.5s25.167 6.5 34.5 10.5l39 278c1.33301 8 1.16602 13 -0.500977 15s-5.83398 3.66699 -12.501 5l-56 7l7 50h246l-7 -50l-67 -8c-7.33301 -1.33301 -12 -3 -14 -5s-3.66699 -6.66699 -5 -14
l-79 -568c-1.33301 -8 -1.33301 -13 0 -15s5.66602 -3.66699 12.999 -5l66 -8l-8 -51h-298z" />
    <glyph glyph-name="afii10042" unicode="&#x428;" horiz-adv-x="1056" 
d="M464 70l79.9971 576.994c1.33301 7.33301 1.33301 12.333 0 15s-5.66602 4.33398 -12.999 5.00098l-64 7l7 50h257l-7 -50l-70 -8c-7.33301 -1.33301 -12 -3 -14 -5s-3.66699 -6.66699 -5 -14l-80 -577h258l80 576c1.33301 8 1.33301 13 0 15s-5.66602 3.66699 -12.999 5
l-60 8l8 50h247l-8 -50l-64 -7c-7.33301 -1.33301 -12 -3.16602 -14 -5.49902s-3.66699 -7.16602 -5 -14.499l-79 -569c-1.33301 -7.33301 -1 -12.166 1 -14.499s6.33301 -3.83301 13 -4.5l63 -7l-7 -52h-946l7 52l68 8c7.33301 1.33301 11.833 3 13.5 5
s3.16699 6.66699 4.5 14l79 567c1.33301 8 1.33301 13 0 15s-5.66602 3.66699 -12.999 5l-66 8l8 50h247l-7 -50l-58 -7c-7.33301 -1.33301 -12 -3.16602 -14 -5.49902s-3.66699 -7.16602 -5 -14.499l-81 -577h252z" />
    <glyph glyph-name="afii10043" unicode="&#x429;" horiz-adv-x="1049" 
d="M29 0l6.99707 51.9932l68 8c7.33301 1.33301 11.833 3 13.5 5s3.16699 6.66699 4.5 14l79 566c1.33301 8 1.33301 13 0 15s-5.66602 3.66699 -12.999 5l-66 8l8 51h247l-7 -51l-58 -7c-7.33301 -1.33301 -12 -3.16602 -14 -5.49902s-3.66699 -7.16602 -5 -14.499
l-81 -576h248l80 576c1.33301 7.33301 1.33301 12.333 0 15s-5.66602 4.33398 -12.999 5.00098l-64 7l7 51h257l-7 -51l-70 -7c-7.33301 -1.33301 -12 -3.16602 -14 -5.49902s-3.66699 -7.16602 -5 -14.499l-80 -576h254l80 575c1.33301 8 1.33301 13 0 15
s-5.66602 3.66699 -12.999 5l-60 8l8 51h247l-8 -51l-64 -7c-7.33301 -1.33301 -12 -3.16602 -14 -5.49902s-3.66699 -7.16602 -5 -14.499l-80 -575h78l-29 -226l-65 4l-1 137c0 9.33301 -5 14 -15 14h-835z" />
    <glyph glyph-name="afii10044" unicode="&#x42a;" horiz-adv-x="774" 
d="M448 71c25.333 0 49.499 3 72.499 9s43.333 15.833 61 29.5s31.834 31.167 42.501 52.5s16 47.333 16 78c0 43.333 -11.5 73.5 -34.5 90.5s-56.833 25.5 -101.5 25.5h-130l-40 -285h114zM208.999 654c-9.33301 0 -15.333 -4.33203 -18 -12.999l-31 -93l-66 -3l25 179h422
l-8 -54l-100 -8c-7.33301 -0.666992 -11.833 -2.16699 -13.5 -4.5s-3.16699 -7.16602 -4.5 -14.499l-30 -216h135c38.667 0 71.667 -4.16699 99 -12.5s49.666 -20.166 66.999 -35.499s30 -33.833 38 -55.5s12 -45.834 12 -72.501c0 -42 -7 -78.667 -21 -110
s-33.667 -57.5 -59 -78.5s-55.666 -36.667 -90.999 -47s-74.333 -15.5 -117 -15.5h-293l8 51l64 7c7.33301 1.33301 11.833 3.16602 13.5 5.49902s3.16699 7.16602 4.5 14.499l81 576h-117z" />
    <glyph glyph-name="afii10045" unicode="&#x42b;" horiz-adv-x="956" 
d="M262 427l130.998 -0.000976562c37.333 0 69.5 -4.5 96.5 -13.5s49 -21.5 66 -37.5s29.5 -34.833 37.5 -56.5s12 -45.5 12 -71.5c0 -40.667 -6.66699 -76.5 -20 -107.5s-32.333 -57 -57 -78s-54.5 -36.667 -89.5 -47s-74.167 -15.5 -117.5 -15.5h-9h-280l8 52l64 7
c5.33301 0.666992 9.5 3 12.5 7s5.16699 8.83301 6.5 14.5s2.33301 11.834 3 18.501s1.33398 13 2.00098 19l73 529c1.33301 7.33301 1.33301 12 0 14s-5.66602 3.66699 -12.999 5l-64 7l8 51h286l-7 -50l-100 -10c-7.33301 -0.666992 -12 -2.16699 -14 -4.5
s-3.66699 -7.5 -5 -15.5zM315.998 71.999c25.333 0 49.501 2.83203 72.501 8.49902s43.333 15 61 28s31.834 30.333 42.501 52s16 48.834 16 81.501c0 23.333 -3.66699 42.5 -11 57.5s-18.333 26.667 -33 35s-32.834 14 -54.501 17s-46.834 4.5 -75.501 4.5h-82l-40 -284
h104zM618.999 -0.00195312l5 48.998l73 7c7.33301 0.666992 11.833 2.33398 13.5 5.00098s3.16699 7.66699 4.5 15l80 572c1.33301 7.33301 1.33301 12.333 0 15s-5.66602 4.33398 -12.999 5.00098l-70 7l6 49h268l-6 -49l-76 -8c-7.33301 -1.33301 -11.833 -3 -13.5 -5
s-3.16699 -6.66699 -4.5 -14l-81 -571c-1.33301 -8 -1.33301 -13 0 -15s5.66602 -3.66699 12.999 -5l74 -8l-5 -49h-268z" />
    <glyph glyph-name="afii10046" unicode="&#x42c;" horiz-adv-x="643" 
d="M316 72c25.333 0 49.499 2.83301 72.499 8.5s43.333 15 61 28s31.834 30.333 42.501 52s16 48.834 16 81.501c0 39.333 -11.5 68.166 -34.5 86.499s-56.833 27.5 -101.5 27.5h-120l-40 -284h104zM261.999 427l130.999 -0.000976562c37.333 0 69.5 -4.5 96.5 -13.5
s49 -21.5 66 -37.5s29.5 -34.833 37.5 -56.5s12 -45.5 12 -71.5c0 -40.667 -6.66699 -76.5 -20 -107.5s-32.333 -57 -57 -78s-54.5 -36.667 -89.5 -47s-74.167 -15.5 -117.5 -15.5h-289l8 52l64 7c7.33301 0.666992 11.833 2.33398 13.5 5.00098s3.16699 7.66699 4.5 15
l79 568c1.33301 7.33301 1.33301 12 0 14s-5.66602 3.66699 -12.999 5l-64 7l8 51h286l-7 -50l-100 -10c-7.33301 -0.666992 -12 -2.16699 -14 -4.5s-3.66699 -7.5 -5 -15.5z" />
    <glyph glyph-name="afii10047" unicode="&#x42d;" horiz-adv-x="687" 
d="M139 685c29.333 16.667 65.999 29.4961 109.999 38.4961s88 13.5 132 13.5c52 0 96.5 -7.83301 133.5 -23.5s67.333 -37.5 91 -65.5s40.834 -61 51.501 -99s16 -79.333 16 -124c0 -63.333 -8.33301 -121.666 -25 -174.999s-41.834 -99.5 -75.501 -138.5
s-75.5 -69.333 -125.5 -91s-108.333 -32.5 -175 -32.5c-46 0 -89 4.83301 -129 14.5s-71 22.5 -93 38.5l22 159l67 -3l4 -90c0 -6.66699 0.833008 -11.667 2.5 -15s5.5 -6.33301 11.5 -9c15.333 -6.66699 34.5 -11.667 57.5 -15s43.167 -5 60.5 -5
c77.333 0 142 23.167 194 69.5s85.333 111.5 100 195.5h-344l10 72h341c0.666992 3.33301 1 7 1 11v12c0 78.667 -17.833 138.5 -53.5 179.5s-88.834 61.5 -159.501 61.5c-8.66699 0 -19.167 -0.166992 -31.5 -0.5s-24.666 -1.16602 -36.999 -2.49902
s-24.5 -3.16602 -36.5 -5.49902s-22.333 -5.5 -31 -9.5c-6 -2.66699 -10.167 -5.66699 -12.5 -9s-4.16602 -7.66602 -5.49902 -12.999l-29 -91h-63z" />
    <glyph glyph-name="afii10048" unicode="&#x42e;" horiz-adv-x="1060" 
d="M685 -12c-42 0 -78.1699 5.66699 -108.503 17s-55.666 26.5 -75.999 45.5s-36.666 40.667 -48.999 65s-21.333 49.333 -27 75s-9 51 -10 76s-0.5 47.833 1.5 68.5h-167l-36 -258c-1.33301 -8 -1.5 -13 -0.5 -15s5.16699 -3.66699 12.5 -5l75 -8l-6 -49h-268l5 49l73 7
c7.33301 0.666992 11.833 2.33398 13.5 5.00098s3.16699 7.66699 4.5 15l80 572c1.33301 7.33301 1.33301 12.333 0 15s-5.66602 4.33398 -12.999 5.00098l-70 7l6 49h268l-5 -49l-77 -8c-7.33301 -1.33301 -11.833 -3 -13.5 -5s-3.16699 -6.66699 -4.5 -14l-34 -241h166
c8.66699 49.333 23 94.166 43 134.499s45.333 75 76 104s66.334 51.5 107.001 67.5s86 24 136 24c48.667 0 89.667 -7.5 123 -22.5s60.166 -35.833 80.499 -62.5s34.833 -57.834 43.5 -93.501s13 -74.5 13 -116.5c0 -68 -7.66699 -129.833 -23 -185.5s-38 -103.5 -68 -143.5
s-67.667 -70.833 -113 -92.5s-98 -32.5 -158 -32.5zM692.997 64c40.667 0 77 8.83203 109 26.499s59.167 42.834 81.5 75.501s39.5 72 51.5 118s18 97.333 18 154c0 30 -2.5 58.5 -7.5 85.5s-14.167 50.5 -27.5 70.5s-31.333 36 -54 48s-51.667 18 -87 18
c-40 0 -76.5 -8.66699 -109.5 -26s-61.333 -41.833 -85 -73.5s-42 -70.167 -55 -115.5s-19.5 -96 -19.5 -152c0 -28.667 3 -56.667 9 -84s16.167 -51.833 30.5 -73.5s33.333 -39 57 -52s53.167 -19.5 88.5 -19.5z" />
    <glyph glyph-name="afii10049" unicode="&#x42f;" horiz-adv-x="710" 
d="M10 0l8.00293 51.999l67 11c7.33301 1.33301 12.833 3 16.5 5s7.5 6.66699 11.5 14l88 152c14.667 25.333 29 46.333 43 63s33 29.667 57 39v0c-18.667 4.66699 -36.334 11.5 -53.001 20.5s-31.334 20.5 -44.001 34.5s-22.834 30.667 -30.501 50
s-11.5 41.666 -11.5 66.999c0 39.333 7.5 72.833 22.5 100.5s35 50 60 67s53.833 29.333 86.5 37s67 11.5 103 11.5h296l-7 -52l-67 -7c-6.66699 -0.666992 -10.834 -2.5 -12.501 -5.5s-3.16699 -8.16699 -4.5 -15.5l-78 -567
c-1.33301 -7.33301 -1.16602 -12.166 0.500977 -14.499s6.16699 -4.16602 13.5 -5.49902l62 -7l-8 -50h-249l7 50l65 8c7.33301 1.33301 12.166 3.16602 14.499 5.49902s4.16602 7.5 5.49902 15.5l31 229h-101c-23.333 0 -40.666 -3.66699 -51.999 -11
s-22.666 -19.666 -33.999 -36.999l-30.5 -50.5l-36.5 -64l-39 -71.5l-39 -74h-161zM513.003 378.999l38 272.001h-115c-24 0 -46.833 -2.33301 -68.5 -7s-40.5 -12.5 -56.5 -23.5s-28.833 -25.5 -38.5 -43.5s-14.5 -40.667 -14.5 -68c0 -26 4.5 -47.5 13.5 -64.5
s21.167 -30.333 36.5 -40s33 -16.334 53 -20.001s41.333 -5.5 64 -5.5h88z" />
    <glyph glyph-name="afii10065" unicode="&#x430;" horiz-adv-x="580" 
d="M376 0l11.9971 89.9971l-3 1c-28.667 -28.667 -58.167 -53 -88.5 -73s-64.5 -30 -102.5 -30c-48 0 -85 15.5 -111 46.5s-39 79.167 -39 144.5c0 38.667 4.33301 78.334 13 119.001s22.834 77.834 42.501 111.501s45.5 61.167 77.5 82.5s71.333 32 118 32
c29.333 0 56.166 -5.66699 80.499 -17s44.833 -24.333 61.5 -39l16 46h84c-5.33301 -20 -10.166 -40.167 -14.499 -60.5s-8.16602 -41.166 -11.499 -62.499l-44 -315c-1.33301 -8 -1.16602 -13 0.500977 -15s6.16699 -3.66699 13.5 -5l49 -7l-8 -49h-146zM423.997 395.997
c-13.333 13.333 -31.333 25.667 -54 37s-46.667 17 -72 17c-31.333 0 -57.5 -8.83301 -78.5 -26.5s-37.667 -39.667 -50 -66s-21.166 -54.833 -26.499 -85.5s-8 -59 -8 -85c0 -45.333 7.83301 -76.833 23.5 -94.5s36.5 -26.5 62.5 -26.5c15.333 0 30.666 3.66699 45.999 11
s30.5 16.5 45.5 27.5s29.333 23.333 43 37l38.5 39.5z" />
    <glyph glyph-name="afii10066" unicode="&#x431;" horiz-adv-x="552" 
d="M250 -12c-34.667 0 -64.5049 5.66699 -89.5049 17s-45.333 27.333 -61 48s-27.167 45.5 -34.5 74.5s-11 60.833 -11 95.5c0 36.667 3.16699 76 9.5 118s15.833 81.667 28.5 119c20 58.667 53.833 109.334 101.5 152.001s111.834 72 192.501 88
c21.333 4 38.166 7.5 50.499 10.5s21.833 5.83301 28.5 8.5s11.334 5.83398 14.001 9.50098s5 8.16699 7 13.5l68 3c0.666992 -20.667 -1.66602 -37.834 -6.99902 -51.501s-14 -24.834 -26 -33.501s-27.333 -15.667 -46 -21s-40.667 -10.333 -66 -15
c-43.333 -8 -80.333 -18.167 -111 -30.5s-56.5 -27.833 -77.5 -46.5s-38 -40.5 -51 -65.5s-24.167 -54.167 -33.5 -87.5l4 -2c24 38 53.833 66.333 89.5 85s73.834 28 114.501 28c30 0 56 -4.83301 78 -14.5s40.333 -23 55 -40s25.5 -37 32.5 -60s10.5 -47.833 10.5 -74.5
c0 -40.667 -4.83301 -80.5 -14.5 -119.5s-25.167 -74 -46.5 -105s-49.166 -56 -83.499 -75s-76.166 -28.5 -125.499 -28.5zM258.995 57c31.333 0 57.666 7.99805 78.999 23.998s38.5 36.333 51.5 61s22.333 52 28 82s8.5 59.333 8.5 88c0 40 -8.33301 70.167 -25 90.5
s-43.667 30.5 -81 30.5c-30 0 -56.167 -6.5 -78.5 -19.5s-40.666 -30 -54.999 -51s-25 -45.167 -32 -72.5s-10.5 -55.666 -10.5 -84.999c0 -21.333 2 -41 6 -59s10.5 -33.667 19.5 -47s20.833 -23.666 35.5 -30.999s32.667 -11 54 -11z" />
    <glyph glyph-name="afii10067" unicode="&#x432;" horiz-adv-x="533" 
d="M266 -12c-20 0 -40.168 0.836914 -60.501 2.50391s-39.5 4 -57.5 7s-34.333 6.33301 -49 10s-26.667 7.16699 -36 10.5l47 346c4.66699 34 14.334 61.5 29.001 82.5s32.5 37.167 53.5 48.5s43.667 19 68 23s48.166 6 71.499 6c30 0 55.333 -3.16699 76 -9.5
s37.5 -15 50.5 -26s22.5 -23.833 28.5 -38.5s9 -30.334 9 -47.001c0 -33.333 -9.66699 -61.5 -29 -84.5s-45.666 -39.833 -78.999 -50.5v-2c34 -4.66699 60.333 -15.834 79 -33.501s28 -42.167 28 -73.5c0 -30.667 -6 -56.834 -18 -78.501s-28.333 -39.334 -49 -53.001
s-45 -23.667 -73 -30s-57.667 -9.5 -89 -9.5zM158.999 72.0039c7.33301 -3.33301 20.9961 -6.66699 40.9961 -10s43.667 -5 71 -5c18.667 0 36 1.83301 52 5.5s29.833 9.5 41.5 17.5s20.834 18.5 27.501 31.5s10 28.833 10 47.5c0 16 -3.16699 28.667 -9.5 38
s-15.166 16.333 -26.499 21s-24.666 7.5 -39.999 8.5s-31.666 1.5 -48.999 1.5h-95zM287.995 293.003c14.667 0 29 1.66699 43 5s26.5 8.83301 37.5 16.5s20 17.5 27 29.5s10.5 26.333 10.5 43c0 24.667 -7.16699 42.167 -21.5 52.5s-34.833 15.5 -61.5 15.5
c-32 0 -59 -6.16699 -81 -18.5s-35.667 -36.5 -41 -72.5l-11 -71h98z" />
    <glyph glyph-name="afii10068" unicode="&#x433;" horiz-adv-x="456" 
d="M273 461c-34 0 -61.666 -3.99805 -82.999 -11.998c-4.66699 -1.33301 -7.66699 -3.33301 -9 -6s-2.66602 -5.66699 -3.99902 -9l-21 -68h-67l16 118c19.333 10.667 45.666 20 78.999 28s68 12 104 12c44.667 0 81.5 -10.333 110.5 -31s43.5 -52.334 43.5 -95.001
c0 -28.667 -5.66699 -52.5 -17 -71.5s-26 -34.667 -44 -47s-38 -22.5 -60 -30.5l-65 -23c-18 -6 -34.333 -11.833 -49 -17.5s-27.5 -12.167 -38.5 -19.5s-19.5 -15.833 -25.5 -25.5s-9 -21.5 -9 -35.5c0 -24 7.83301 -41.5 23.5 -52.5s36.167 -16.5 61.5 -16.5
c30 0 57.167 6.33301 81.5 19s47.166 28.667 68.499 48l43 -55c-25.333 -25.333 -56 -45.5 -92 -60.5s-73 -22.5 -111 -22.5c-50 0 -90.167 11.667 -120.5 35s-45.5 57 -45.5 101c0 29.333 6 53.333 18 72s27.333 34.167 46 46.5s39.5 22.333 62.5 30l67.5 22.5l44 16
c14 5.33301 26.333 11.833 37 19.5s19 16.667 25 27s9 22.833 9 37.5c0 21.333 -7 37.666 -21 48.999s-33.333 17 -58 17z" />
    <glyph glyph-name="afii10069" unicode="&#x434;" horiz-adv-x="547" 
d="M187 747c71.333 -8.66699 128.834 -25.668 172.501 -51.001s77.5 -54.666 101.5 -87.999s40 -68.833 48 -106.5s12 -73.167 12 -106.5c0 -22 -1 -47.333 -3 -76s-6.16699 -58 -12.5 -88s-15.5 -59.5 -27.5 -88.5s-28 -55 -48 -78s-44.833 -41.5 -74.5 -55.5
s-65.167 -21 -106.5 -21c-36 0 -67 5.16699 -93 15.5s-47.167 24.833 -63.5 43.5s-28.5 41 -36.5 67s-12 54.667 -12 86c0 42.667 5.5 82.5 16.5 119.5s27 69 48 96s46.833 48.167 77.5 63.5s66 23 106 23c30 0 56.667 -5 80 -15s44.666 -23 63.999 -39
c0 0.666992 0.333008 1 1 1c-12.667 71.333 -42.5 124.5 -89.5 159.5s-111.833 58.833 -194.5 71.5zM431.001 374.999c-12 13.333 -28.832 26.167 -50.499 38.5s-49.167 18.5 -82.5 18.5c-27.333 0 -51 -5.83301 -71 -17.5s-36.667 -28 -50 -49s-23.333 -45.833 -30 -74.5
s-10 -60 -10 -94c0 -17.333 1.66699 -34.333 5 -51s9.5 -31.667 18.5 -45s21 -24 36 -32s33.833 -12 56.5 -12c35.333 0 64.333 9 87 27s40.667 42 54 72s22.666 64 27.999 102s8.33301 77 9 117z" />
    <glyph glyph-name="afii10070" unicode="&#x435;" horiz-adv-x="480" 
d="M420 30c-26.667 -13.333 -55.333 -23.665 -86 -30.998s-62 -11 -94 -11c-36 0 -66.5 5.16699 -91.5 15.5s-45.333 24.5 -61 42.5s-26.834 39.667 -33.501 65s-10 53 -10 83c0 45.333 6.83301 88 20.5 128s32.834 75 57.501 105s54.167 53.667 88.5 71
s72.166 26 113.499 26c26 0 47.833 -3.16699 65.5 -9.5s32.167 -14.833 43.5 -25.5s19.5 -23.334 24.5 -38.001s7.5 -30.334 7.5 -47.001c0 -38 -12 -69.167 -36 -93.5s-53 -43.833 -87 -58.5s-69.833 -25.5 -107.5 -32.5s-70.5 -12.167 -98.5 -15.5
c0 -22 1.83301 -41.833 5.5 -59.5s10 -32.667 19 -45s21.667 -21.833 38 -28.5s36.833 -10 61.5 -10s48.334 3.33301 71.001 10s46.667 15.667 72 27zM142.001 272.001c16.667 2 38.332 5.33301 64.999 10s52.834 11.834 78.501 21.501s47.667 22.167 66 37.5
s27.5 34.666 27.5 57.999c0 15.333 -5.16699 27.833 -15.5 37.5s-27.166 14.5 -50.499 14.5c-22.667 0 -43.334 -4.83301 -62.001 -14.5s-35.167 -22.667 -49.5 -39s-26.5 -35.333 -36.5 -57s-17.667 -44.5 -23 -68.5z" />
    <glyph glyph-name="afii10072" unicode="&#x436;" horiz-adv-x="788" 
d="M471 295l33.999 -0.00488281c10 0 18.667 0.666992 26 2s13.833 4 19.5 8s11.167 10 16.5 18s11.333 18.667 18 32l42 83c6.66699 13.333 13.167 25.333 19.5 36s13.833 19.667 22.5 27s19 13 31 17s27 6 45 6c7.33301 0 16.166 -0.833008 26.499 -2.5
s18.166 -3.5 23.499 -5.5l-12 -61c-10 2 -18.333 3 -25 3c-12.667 0 -22.667 -2.83301 -30 -8.5s-14.666 -15.834 -21.999 -30.501l-45 -92c-9.33301 -18 -19.166 -31.5 -29.499 -40.5s-22.166 -15.167 -35.499 -18.5v-1c10 -3.33301 19.333 -9.66602 28 -18.999
s16.667 -24.333 24 -45l47 -126c2 -5.33301 4.16699 -9.5 6.5 -12.5s6.83301 -5.16699 13.5 -6.5l54 -8l-7 -50h-137c-13.333 42 -26 78.833 -38 110.5s-23 58.834 -33 81.501c-6.66699 14.667 -14 25.334 -22 32.001s-19.667 10 -35 10h-35l-33 -234h-86l34 234h-51
c-15.333 0 -27.5 -3.5 -36.5 -10.5s-20.167 -20.167 -33.5 -39.5c-14.667 -21.333 -30.834 -46.833 -48.501 -76.5l-61.5 -107.5h-141l7 51l54 8c5.33301 0.666992 9.5 1.83398 12.5 3.50098s6.16699 5.16699 9.5 10.5l86 137c13.333 20.667 24.833 35 34.5 43
s20.834 13.667 33.501 17v0c-10 4 -19.5 10.833 -28.5 20.5s-15.833 24.167 -20.5 43.5l-22 91c-3.33301 11.333 -7.5 19.833 -12.5 25.5s-13.167 8.5 -24.5 8.5c-7.33301 0 -16.666 -1 -27.999 -3l5 60c7.33301 2 17.166 3.83301 29.499 5.5s23.166 2.5 32.499 2.5
c26 0 43.667 -6.5 53 -19.5s16.666 -29.167 21.999 -48.5l28 -98c4 -13.333 7.66699 -24.166 11 -32.499s7.33301 -14.666 12 -18.999s10.334 -7.33301 17.001 -9s15.334 -2.5 26.001 -2.5h43l19 137c2 10 -1.33301 16.333 -10 19l-43 14l13 49h134l3 -5z" />
    <glyph glyph-name="afii10073" unicode="&#x437;" horiz-adv-x="476" 
d="M287 524c58.667 0 100.999 -11.168 126.999 -33.501s39 -50.833 39 -85.5c0 -36 -11.5 -65.667 -34.5 -89s-52.167 -39.666 -87.5 -48.999v-3c28.667 -5.33301 52.834 -16.333 72.501 -33s29.5 -43 29.5 -79c0 -26.667 -5.83301 -50.334 -17.5 -71.001
s-27.5 -37.834 -47.5 -51.501s-43.5 -24 -70.5 -31s-55.5 -10.5 -85.5 -10.5c-40.667 0 -78.5 6 -113.5 18s-61.167 27.333 -78.5 46l43 59c15.333 -13.333 36.166 -25.166 62.499 -35.499s56.5 -15.5 90.5 -15.5c14 0 28.5 1.5 43.5 4.5s28.5 8 40.5 15s22 16.333 30 28
s12 26.5 12 44.5c0 25.333 -8 43.833 -24 55.5s-39 17.5 -69 17.5h-103l9 67h67c42.667 0 76.5 8.66699 101.5 26s37.5 40.666 37.5 69.999c0 26 -8.66699 44.167 -26 54.5s-38 15.5 -62 15.5c-16 0 -31.167 -0.833008 -45.5 -2.5s-26.5 -4.5 -36.5 -8.5
c-4 -1.33301 -6.66699 -3.16602 -8 -5.49902s-2.66602 -5.16602 -3.99902 -8.49902l-21 -65l-67 -1l16 117c20.667 11.333 47 20.833 79 28.5s65.667 11.5 101 11.5z" />
    <glyph glyph-name="afii10074" unicode="&#x438;" horiz-adv-x="617" 
d="M405 0l15.0029 99l-44 -36.5c-16 -13 -32.833 -25 -50.5 -36s-35.5 -20 -53.5 -27s-36 -10.5 -54 -10.5c-42 0 -73.5 9 -94.5 27s-31.5 49.333 -31.5 94c0 7.33301 0.333008 16.333 1 27s1.66699 20.667 3 30l39 270c1.33301 8 1.16602 13 -0.500977 15
s-6.16699 3.66699 -13.5 5l-52 8l8 49h154l3 -4l-45 -321c-1.33301 -9.33301 -2.5 -18.833 -3.5 -28.5s-1.5 -20.5 -1.5 -32.5c0 -20 3.66699 -34.5 11 -43.5s21.333 -13.5 42 -13.5c15.333 0 30.666 3 45.999 9s30.833 14.167 46.5 24.5s31.5 22.166 47.5 35.499l49 42
l34 255c1.33301 8 1.16602 13 -0.500977 15s-6.16699 3.66699 -13.5 5l-58 8l7 49h163l3 -4l-61 -434c-2 -11.333 1 -17.666 9 -18.999l55 -9l-6 -48h-153z" />
    <glyph glyph-name="afii10075" unicode="&#x439;" horiz-adv-x="617" 
d="M405 0l15.0029 99l-44 -36.5c-16 -13 -32.833 -25 -50.5 -36s-35.5 -20 -53.5 -27s-36 -10.5 -54 -10.5c-42 0 -73.5 9 -94.5 27s-31.5 49.333 -31.5 94c0 7.33301 0.333008 16.333 1 27s1.66699 20.667 3 30l39 270c1.33301 8 1.16602 13 -0.500977 15
s-6.16699 3.66699 -13.5 5l-52 8l8 49h154l3 -4l-45 -321c-1.33301 -9.33301 -2.5 -18.833 -3.5 -28.5s-1.5 -20.5 -1.5 -32.5c0 -20 3.66699 -34.5 11 -43.5s21.333 -13.5 42 -13.5c15.333 0 30.666 3 45.999 9s30.833 14.167 46.5 24.5s31.5 22.166 47.5 35.499l49 42
l34 255c1.33301 8 1.16602 13 -0.500977 15s-6.16699 3.66699 -13.5 5l-58 8l7 49h163l3 -4l-61 -434c-2 -11.333 1 -17.666 9 -18.999l55 -9l-6 -48h-153zM535.003 706c-30 -89.333 -92 -134 -186 -134c-48 0 -84.167 11.833 -108.5 35.5s-38.833 56.5 -43.5 98.5l74 22
c4 -32 12 -55.667 24 -71s32.333 -23 61 -23c28 0 50.167 7.5 66.5 22.5s30.5 38.167 42.5 69.5z" />
    <glyph glyph-name="afii10076" unicode="&#x43a;" horiz-adv-x="545" 
d="M205 289l46.9971 -0.00292969c21.333 0 37.833 4 49.5 12s23.834 23.333 36.501 46l58 105c12.667 22.667 27.334 40.334 44.001 53.001s39.334 19 68.001 19c15.333 0 30.333 -2 45 -6l-9 -61c-3.33301 0.666992 -6.66602 1 -9.99902 1h-10
c-15.333 0 -27 -3.16699 -35 -9.5s-16 -17.166 -24 -32.499l-45 -86c-18 -33.333 -44.333 -54.666 -79 -63.999v-1c11.333 -3.33301 20.833 -9.5 28.5 -18.5s16.167 -23.5 25.5 -43.5l54 -124c2.66699 -5.33301 5.16699 -9.5 7.5 -12.5s6.16602 -5.16699 11.499 -6.5l48 -8
l-6 -52h-128c-4.66699 16 -10.334 32.667 -17.001 50l-19.5 49.5l-18 43.5l-14.5 33c-9.33301 21.333 -18.166 35.333 -26.499 42s-21.833 10 -40.5 10h-48l-33 -228h-89l62 439c1.33301 5.33301 1.33301 9 0 11s-4.33301 3.66699 -9 5l-44 10l6 49h142l3 -6z" />
    <glyph glyph-name="afii10077" unicode="&#x43b;" horiz-adv-x="597" 
d="M388 0l-3.00098 6.00195l61 441h-150c-7.33301 -50.667 -14.666 -94.834 -21.999 -132.501s-15 -73.5 -23 -107.5c-8 -32 -17.167 -61.5 -27.5 -88.5s-24 -50.167 -41 -69.5s-38.167 -34 -63.5 -44s-56.666 -14 -93.999 -12l-10 72c27.333 0 50.333 3.33301 69 10
s35.334 22.667 50.001 48s28.167 63 40.5 113s25.5 118 39.5 204c1.33301 5.33301 1.5 9.16602 0.5 11.499s-4.16699 3.83301 -9.5 4.5l-49 6l8 52h376l4 -6l-59 -435c-0.666992 -5.33301 -0.333984 -9 0.999023 -11s4.66602 -3.66699 9.99902 -5l52 -10l-8 -47h-152z" />
    <glyph glyph-name="afii10078" unicode="&#x43c;" horiz-adv-x="774" 
d="M569 0l-3.00098 5.00098l55 385h-2l-174 -277h-87l-70 272l-10.5 -44l-11.5 -48l-11.5 -46c-3.66699 -14.667 -7.16699 -28 -10.5 -40c-8 -27.333 -16.833 -54 -26.5 -80s-22.5 -49.167 -38.5 -69.5s-36.333 -36.5 -61 -48.5s-56.667 -17.333 -96 -16l-10 71
c24 -0.666992 45.667 2.83301 65 10.5s37.333 25 54 52s32.167 66.167 46.5 117.5s28.5 120.666 42.5 207.999l-55 10l7 52h159l83 -329h1l199 329h103l4 -7l-60 -436c-1.33301 -8 2.33398 -12.667 11.001 -14l53 -8l-7 -49h-149z" />
    <glyph glyph-name="afii10079" unicode="&#x43d;" horiz-adv-x="623" 
d="M438 231l-238 0.000976562l-33 -231h-85l-4 5l61 428c2 11.333 -1.66699 18.333 -11 21l-52 12l6 48h155l3 -6l-30 -208h238l32 214h84l4 -5l-61 -432c-2 -10.667 1.66699 -17.334 11 -20.001l53 -10l-6 -47h-157l-3 7l16 102z" />
    <glyph glyph-name="afii10080" unicode="&#x43e;" horiz-adv-x="559" 
d="M253 -12c-36 0 -67.001 4.99707 -93.001 14.9971s-47.5 24.167 -64.5 42.5s-29.667 40.333 -38 66s-12.5 54.167 -12.5 85.5c0 47.333 6.16699 91 18.5 131s30.5 74.5 54.5 103.5s53.667 51.667 89 68s76 24.5 122 24.5c37.333 0 68.833 -5.33301 94.5 -16
s46.5 -25.5 62.5 -44.5s27.667 -41.167 35 -66.5s11 -52.666 11 -81.999c0 -50 -6.16699 -95.167 -18.5 -135.5s-30.166 -74.666 -53.499 -102.999s-52.333 -50.166 -87 -65.499s-74.667 -23 -120 -23zM260.999 56.9971c52 0 94.666 21.332 127.999 63.999
s50 107.667 50 195c0 46 -10.167 80 -30.5 102s-50.166 33 -89.499 33c-26.667 0 -51.167 -5.16699 -73.5 -15.5s-41.5 -25.833 -57.5 -46.5s-28.5 -46.667 -37.5 -78s-13.5 -68 -13.5 -110c0 -47.333 10.333 -83.166 31 -107.499s51.667 -36.5 93 -36.5z" />
    <glyph glyph-name="afii10081" unicode="&#x43f;" horiz-adv-x="619" 
d="M406 0l-2.00195 2.00195l19 121l28 201l4 32.5c1.33301 10.333 2 20.166 2 29.499c0 17.333 -3.33301 31.5 -10 42.5s-20.334 16.5 -41.001 16.5c-29.333 0 -59.166 -10.5 -89.499 -31.5s-64.5 -48.5 -102.5 -82.5l-35 -254c-1.33301 -8 -1.16602 -13 0.500977 -15
s6.16699 -3.66699 13.5 -5l62 -8l-7 -49h-233l7 50l48 7c7.33301 1.33301 12 3.16602 14 5.49902s3.66699 7.16602 5 14.499l48 352c2 12 -1 19 -9 21l-53 16l7 48h151l-14 -99c15.333 13.333 31.333 26.333 48 39s33.667 24.334 51 35.001s35.333 19.167 54 25.5
s38 9.5 58 9.5c40.667 0 70.334 -10 89.001 -30s28.334 -50 29.001 -90c0 -8 -0.5 -17.5 -1.5 -28.5s-2.16699 -21.167 -3.5 -30.5l-38 -268c-1.33301 -8 -1.33301 -13 0 -15s5.66602 -3.66699 12.999 -5l56 -8l-7 -49h-161z" />
    <glyph glyph-name="afii10082" unicode="&#x440;" horiz-adv-x="585" 
d="M42 -212l-4.00098 4l29 169l64 468c2 12 -1 19 -9 21l-53 16l6 48h154l-14 -93c14 12.667 28.833 25.167 44.5 37.5s32 23.333 49 33s34.667 17.5 53 23.5s37.166 9 56.499 9c20 0 38.333 -3.66699 55 -11s31.167 -18.833 43.5 -34.5s22 -35.834 29 -60.501
s10.5 -54.667 10.5 -90c0 -38.667 -4.66699 -78.167 -14 -118.5s-23.666 -77 -42.999 -110s-44.166 -59.833 -74.499 -80.5s-66.5 -31 -108.5 -31c-28 0 -55 5.33301 -81 16s-48.667 25.667 -68 45l-24 -181c-1.33301 -7.33301 -1.33301 -12.166 0 -14.499
s5.33301 -3.83301 12 -4.5l92 -8l-7 -53h-198zM177.999 127c15.333 -17.333 33.666 -32.668 54.999 -46.001s45.333 -20 72 -20c29.333 0 54 8.33301 74 25s36.333 37.834 49 63.501s21.834 53.667 27.501 84s8.5 58.833 8.5 85.5c0 45.333 -7 77.333 -21 96s-32 28 -54 28
c-16 0 -32.5 -3.83301 -49.5 -11.5s-33.5 -17.167 -49.5 -28.5s-31.167 -23.333 -45.5 -36l-37.5 -34z" />
    <glyph glyph-name="afii10083" unicode="&#x441;" horiz-adv-x="488" 
d="M431 32c-10 -6 -22.165 -11.666 -36.498 -16.999s-29.5 -10 -45.5 -14s-32.5 -7.16699 -49.5 -9.5s-33.5 -3.5 -49.5 -3.5c-36.667 0 -68 5 -94 15s-47.333 24.167 -64 42.5s-28.834 40.333 -36.501 66s-11.5 54.167 -11.5 85.5c0 58 8 107.5 24 148.5
s37.5 74.833 64.5 101.5s58.333 46.167 94 58.5s73.5 18.5 113.5 18.5c36.667 0 67.167 -3.83301 91.5 -11.5s41.833 -14.167 52.5 -19.5l-19 -133l-63 3l-3 66c0 7.33301 -4 12.333 -12 15c-14.667 5.33301 -35.334 8 -62.001 8c-23.333 0 -46.166 -4.33301 -68.499 -13
s-42.333 -22.667 -60 -42s-32 -44.5 -43 -75.5s-16.5 -68.833 -16.5 -113.5c0 -51.333 10.833 -88.833 32.5 -112.5s52.834 -35.5 93.501 -35.5c27.333 0 54.166 3.66699 80.499 11s48.166 15.666 65.499 24.999z" />
    <glyph glyph-name="afii10084" unicode="&#x442;" horiz-adv-x="895" 
d="M682 0l-2.00098 2.00195l21 132l26 190l4.5 35.5c1.66699 13 2.5 25.167 2.5 36.5c0 16 -3 27.667 -9 35s-16.667 11 -32 11c-24.667 0 -51.334 -10.5 -80.001 -31.5s-60.334 -47.5 -95.001 -79.5l-36 -254c-1.33301 -8 -1.16602 -13 0.500977 -15
s6.16699 -3.66699 13.5 -5l56 -8l-8 -49h-162l-1 2l20 128l27 194l5.5 41c1.66699 12 2.5 22 2.5 30c0 11.333 -2.16699 22.166 -6.5 32.499s-15.166 15.5 -32.499 15.5c-28 0 -56.333 -10.667 -85 -32s-61.334 -48 -98.001 -80l-35 -254
c-1.33301 -8 -1.16602 -13 0.500977 -15s6.16699 -3.66699 13.5 -5l62 -8l-7 -49h-233l7 50l48 7c7.33301 1.33301 12 3.16602 14 5.49902s3.66699 7.16602 5 14.499l48 352c2 11.333 -1 18.333 -9 21l-53 16l7 48h151l-14 -99l58 47.5c17.333 13.667 33.666 25 48.999 34
s30.666 15.667 45.999 20s32 6.5 50 6.5c35.333 0 61.5 -8.83301 78.5 -26.5s24.167 -45.5 21.5 -83.5l43 38c15.333 13.333 31.333 25.333 48 36s33.834 19.5 51.501 26.5s35.834 10.5 54.501 10.5c40 0 67.5 -9.16699 82.5 -27.5s22.833 -44.166 23.5 -77.499
c0 -10.667 -0.666992 -22 -2 -34s-3 -24.667 -5 -38l-37 -270c-1.33301 -8 -1.16602 -13 0.500977 -15s6.16699 -3.66699 13.5 -5l55 -8l-7 -49h-161z" />
    <glyph glyph-name="afii10085" unicode="&#x443;" horiz-adv-x="526" 
d="M199 15l-108 424.999c-1.33301 6 -3.16602 10 -5.49902 12s-6.16602 3.66699 -11.499 5l-41 9l9 48h130l5 -6l23 -126l60 -259l166 333l-62 10l6 48h159l7 -14l-296 -577c-12.667 -24.667 -25.167 -46.167 -37.5 -64.5s-25.5 -33.5 -39.5 -45.5s-29.833 -21 -47.5 -27
s-38.5 -9 -62.5 -9c-15.333 0 -29.833 1.5 -43.5 4.5s-26.167 6.83301 -37.5 11.5s-21.166 9.5 -29.499 14.5s-14.5 9.5 -18.5 13.5l37 57c11.333 -8 24.5 -14.833 39.5 -20.5s31.833 -8.5 50.5 -8.5c14 0 26.167 2.33301 36.5 7s19.666 11.334 27.999 20.001
s16.166 18.667 23.499 30s14.666 24 21.999 38z" />
    <glyph glyph-name="afii10086" unicode="&#x444;" horiz-adv-x="758" 
d="M471 522c38 -0.666992 72.6689 -4.99707 104.002 -12.9971s58.166 -20.5 80.499 -37.5s39.5 -39 51.5 -66s18 -59.5 18 -97.5c0 -104.667 -26.833 -183.334 -80.5 -236.001s-136.5 -80.334 -248.5 -83.001l-17 -121c-1.33301 -7.33301 -1.33301 -12.333 0 -15
s5.66602 -4.33398 12.999 -5.00098l62 -7l-7 -53h-246l8 54l60 6c8 1.33301 13 3.16602 15 5.49902s3.66699 7.5 5 15.5l16 119c-90 6 -154.833 28.333 -194.5 67s-59.5 90.334 -59.5 155.001c0 61.333 9.5 112.166 28.5 152.499s44 72.333 75 96
s66.167 40.334 105.5 50.001s79.333 14.5 120 14.5l20 139c2 11.333 -1.66699 18.333 -11 21l-56 19l16 53h154zM405.002 60.0029c22.667 0 47.168 2.49902 73.501 7.49902s51 15.667 74 32s42.167 40.5 57.5 72.5s23 75.333 23 130c0 30 -4.33301 54.5 -13 73.5
s-20.834 34.167 -36.501 45.5s-34 19.333 -55 24s-43.5 7.33398 -67.5 8.00098zM369.003 452.002c-24 -0.666992 -49.333 -3.66992 -76 -9.00293s-51.167 -16.166 -73.5 -32.499s-40.666 -40.166 -54.999 -71.499s-21.5 -73.666 -21.5 -126.999
c0 -30.667 5.16699 -55.834 15.5 -75.501s23.666 -35.167 39.999 -46.5s34.833 -19.166 55.5 -23.499s41 -6.83301 61 -7.5z" />
    <glyph glyph-name="afii10087" unicode="&#x445;" horiz-adv-x="560" 
d="M387 0l-7.00098 7.00195l-38 74l-68 126l-125 -149l62 -9l-5 -49h-215l6 48l53 11c6 1.33301 10.5 3 13.5 5s6.83301 5.66699 11.5 11l161 189l-96 177c-3.33301 5.33301 -6.16602 9.16602 -8.49902 11.499s-6.16602 4.16602 -11.499 5.49902l-39 6l7 50h115l6 -5l39 -82
l55 -104l119 134l-56 8l8 49h196l-7 -49l-42 -10c-6.66699 -1.33301 -11.834 -3.5 -15.501 -6.5s-7.5 -7.16699 -11.5 -12.5l-153 -169l104 -190c5.33301 -10 13 -16 23 -18l60 -10l-8 -49h-133z" />
    <glyph glyph-name="afii10088" unicode="&#x446;" horiz-adv-x="619" 
d="M501 84c-1.33301 -12 0.171875 -20.499 4.50488 -25.499s12.5 -7.5 24.5 -7.5h36l-24 -181l-67 7l5 117c-24.667 2 -41.834 9.5 -51.501 22.5s-12.834 29.833 -9.50098 50.5l5 33l-45 -36.5c-16.667 -13 -34 -25 -52 -36s-36.333 -20.167 -55 -27.5s-36.667 -11 -54 -11
c-42 0 -73.5 9 -94.5 27s-31.5 49.333 -31.5 94c0 7.33301 0.333008 16.333 1 27s1.66699 20.667 3 30l39 270c1.33301 8 1.16602 13 -0.500977 15s-6.16699 3.66699 -13.5 5l-52 8l8 49h154l3 -4l-45 -321c-1.33301 -9.33301 -2.5 -18.833 -3.5 -28.5
s-1.5 -20.5 -1.5 -32.5c0 -20 3.66699 -34.5 11 -43.5s21.333 -13.5 42 -13.5c15.333 0 30.666 3 45.999 9s30.833 14.167 46.5 24.5s31.5 22.166 47.5 35.499l49 42l34 255c1.33301 8 1.16602 13 -0.500977 15s-6.16699 3.66699 -13.5 5l-58 8l7 49h163l3 -4z" />
    <glyph glyph-name="afii10089" unicode="&#x447;" horiz-adv-x="570" 
d="M197 171c-26.667 0 -47.835 3.66602 -63.502 10.999s-27.167 17.5 -34.5 30.5s-11.166 28.333 -11.499 46s1.16699 37.167 4.5 58.5l17 123c2 9.33301 -1 15 -9 17l-47 7l7 50h144l4 -6l-28 -203c-2.66699 -18 -1.33398 -32.667 3.99902 -44s19 -17 41 -17
c24 0 48.667 5.83301 74 17.5s58 31.834 98 60.501l17 118c1.33301 5.33301 1.5 9.16602 0.5 11.499s-4.16699 3.83301 -9.5 4.5l-48 8l7 50h144l5 -4l-59 -434c-1.33301 -6 -1.16602 -10.167 0.500977 -12.5s5.16699 -4.16602 10.5 -5.49902l52 -9l-7 -49h-156l-3 7l37 237
h-1c-11.333 -8 -24.166 -16.333 -38.499 -25s-29.666 -16.5 -45.999 -23.5s-33.333 -12.833 -51 -17.5s-35.834 -7 -54.501 -7z" />
    <glyph glyph-name="afii10090" unicode="&#x448;" horiz-adv-x="893" 
d="M232 514l1.99805 -4.00293l-45 -320l-5.5 -39c-1.66699 -11.333 -2.5 -21.666 -2.5 -30.999c0.666992 -15.333 3.83398 -27.166 9.50098 -35.499s17.834 -12.5 36.501 -12.5c22 0 45.833 9.16699 71.5 27.5s58.5 45.833 98.5 82.5l37 254c1.33301 8 1.33301 13 0 15
s-5.66602 3.66699 -12.999 5l-54 9l8 49h157l2 -4l-46 -320c-1.33301 -10.667 -2.66602 -23.167 -3.99902 -37.5s-2 -25.5 -2 -33.5c0 -13.333 2.83301 -24.333 8.5 -33s16.167 -13 31.5 -13c16 0 31.833 3.33301 47.5 10s31.167 15.334 46.5 26.001
s30.333 22.334 45 35.001l43 38l34 254c1.33301 8 1.16602 13 -0.500977 15s-6.16699 3.66699 -13.5 5l-59 9l8 49h158l5 -4l-58 -428c-1.33301 -5.33301 -1.5 -9.83301 -0.5 -13.5s4.16699 -6.16699 9.5 -7.5l54 -14l-7 -47h-152l14 98l-46 -38.5
c-16 -13 -32.5 -24.667 -49.5 -35s-35 -18.666 -54 -24.999s-39.167 -9.5 -60.5 -9.5c-34 0 -58 10.167 -72 30.5s-20.333 47.166 -19 80.499c-13.333 -12.667 -27.666 -25.5 -42.999 -38.5s-31.5 -24.833 -48.5 -35.5s-34.333 -19.5 -52 -26.5s-35.834 -10.5 -54.501 -10.5
c-40.667 0 -68.667 9.16699 -84 27.5s-23 44.5 -23 78.5c0 9.33301 0.666992 20.166 2 32.499l4 37.5l39 270c1.33301 8 1.16602 13 -0.500977 15s-6.16699 3.66699 -13.5 5l-56 9l7 49h160z" />
    <glyph glyph-name="afii10091" unicode="&#x449;" horiz-adv-x="895" 
d="M232 514l1.99805 -4.00098l-45 -320l-5.5 -39c-1.66699 -11.333 -2.5 -21.666 -2.5 -30.999c0.666992 -15.333 3.83398 -27.166 9.50098 -35.499s17.834 -12.5 36.501 -12.5c22 0 45.833 9.16699 71.5 27.5s58.5 45.833 98.5 82.5l37 254c1.33301 8 1.33301 13 0 15
s-5.66602 3.66699 -12.999 5l-54 9l8 49h157l2 -4l-46 -320c-1.33301 -10.667 -2.66602 -23.167 -3.99902 -37.5s-2 -25.5 -2 -33.5c0 -13.333 2.83301 -24.333 8.5 -33s16.167 -13 31.5 -13c16 0 31.833 3.33301 47.5 10s31.167 15.334 46.5 26.001
s30.333 22.334 45 35.001l43 38l34 254c1.33301 8 1.16602 13 -0.500977 15s-6.16699 3.66699 -13.5 5l-59 9l8 49h158l5 -4l-58 -428c-1.33301 -12 0.166992 -20.167 4.5 -24.5s12.833 -6.5 25.5 -6.5h36l-25 -181l-67 8l6 116c-22 2.66699 -38.833 9.66699 -50.5 21
s-16.167 27.666 -13.5 48.999l4 35l-47 -38.5c-16 -13 -32.667 -24.667 -50 -35s-35.5 -18.833 -54.5 -25.5s-39.167 -10 -60.5 -10c-34 0 -58 10.167 -72 30.5s-20.333 47.166 -19 80.499c-13.333 -12.667 -27.666 -25.5 -42.999 -38.5s-31.5 -24.833 -48.5 -35.5
s-34.333 -19.5 -52 -26.5s-35.834 -10.5 -54.501 -10.5c-40.667 0 -68.667 9.16699 -84 27.5s-23 44.5 -23 78.5c0 9.33301 0.666992 20.166 2 32.499l4 37.5l39 270c1.33301 8 1.16602 13 -0.500977 15s-6.16699 3.66699 -13.5 5l-56 9l7 49h160z" />
    <glyph glyph-name="afii10092" unicode="&#x44a;" horiz-adv-x="588" 
d="M400 315c50 0 89.1689 -12.333 117.502 -37s42.5 -59 42.5 -103c0 -34 -6.5 -63 -19.5 -87s-30.167 -43.333 -51.5 -58s-45.333 -25.334 -72 -32.001s-54 -10 -82 -10c-32.667 0 -64.5 2.83301 -95.5 8.5s-55.167 11.834 -72.5 18.501l59 432h-72
c-5.33301 0 -9 -0.833008 -11 -2.5s-4 -5.16699 -6 -10.5l-18 -61l-68 -3l20 144h251l4 -6l-30 -204c13.333 2.66699 29.166 5.16699 47.499 7.5s37.166 3.5 56.499 3.5zM263.002 68c8 -2.66699 19.666 -5.33398 34.999 -8.00098s30.666 -4 45.999 -4c16 0 31.5 2 46.5 6
s28.333 10.5 40 19.5s21 20.833 28 35.5s10.5 32.334 10.5 53.001c0 16 -2.83301 29.167 -8.5 39.5s-13.167 18.5 -22.5 24.5s-19.666 10.167 -30.999 12.5s-22.666 3.5 -33.999 3.5c-19.333 0 -36.5 -1.16699 -51.5 -3.5s-26.5 -4.5 -34.5 -6.5z" />
    <glyph glyph-name="afii10093" unicode="&#x44b;" horiz-adv-x="763" 
d="M306 315c50 0 89.3311 -12.332 117.998 -36.999s43 -60.334 43 -107.001c0 -32.667 -6.5 -60.667 -19.5 -84s-30.167 -42.333 -51.5 -57s-45.5 -25.334 -72.5 -32.001s-54.167 -10 -81.5 -10c-33.333 0 -64.666 2.83301 -93.999 8.5s-53 11.834 -71 18.501l58 422
c0.666992 9.33301 -2.66602 14.333 -9.99902 15l-51 11l7 51h152l3 -4l-30 -205c14 2.66699 29.5 5 46.5 7s34.833 3 53.5 3zM173.998 68.001c8 -2.66699 18.835 -5.33398 32.502 -8.00098s28.167 -4 43.5 -4c16 0 31.667 2 47 6s28.666 10.5 39.999 19.5
s20.5 20.333 27.5 34s10.5 30.5 10.5 50.5c0 16.667 -2.83301 30.334 -8.5 41.001s-12.834 19 -21.501 25s-18.5 10.333 -29.5 13s-21.833 4 -32.5 4c-30 0 -58.667 -3.33301 -86 -10zM544 0.000976562l-2.00098 4l21 115l45 312c2 11.333 -1.66699 18.333 -11 21l-53 14
l7 48h158l-62 -437c-1.33301 -8 -1.16602 -13 0.500977 -15s6.16699 -3.66699 13.5 -5l59 -8l-7 -49h-169z" />
    <glyph glyph-name="afii10094" unicode="&#x44c;" horiz-adv-x="507" 
d="M314 317c54 0 94.9971 -12.6641 122.997 -37.9971s42 -60 42 -104c0 -34 -6.5 -63 -19.5 -87s-30.167 -43.333 -51.5 -58s-45.5 -25.334 -72.5 -32.001s-54.167 -10 -81.5 -10c-16.667 0 -33.5 0.833008 -50.5 2.5s-33.333 3.66699 -49 6s-30.167 5.16602 -43.5 8.49902
s-24.666 6.66602 -33.999 9.99902l58 422c0.666992 9.33301 -2.66602 14.333 -9.99902 15l-51 11l7 51h152l3 -4l-30 -204c14 2.66699 30.833 5.16699 50.5 7.5s38.834 3.5 57.501 3.5zM173.997 68.0029c8 -2.66699 20.834 -5.33398 38.501 -8.00098s34.167 -4 49.5 -4
c16 0 31.667 2 47 6s28.666 10.5 39.999 19.5s20.5 20.833 27.5 35.5s10.5 32.334 10.5 53.001c0 16 -2.83301 29.167 -8.5 39.5s-13.167 18.333 -22.5 24s-19.5 9.66699 -30.5 12s-22.167 3.5 -33.5 3.5c-19.333 0 -38 -1.16699 -56 -3.5s-31 -4.5 -39 -6.5z" />
    <glyph glyph-name="afii10095" unicode="&#x44d;" horiz-adv-x="540" 
d="M425 292c3.33301 54 -8.16309 94.667 -34.4961 122s-63.166 41 -110.499 41c-17.333 0 -34.333 -1.33301 -51 -4s-31 -6.33398 -43 -11.001c-4.66699 -1.33301 -7.83398 -3.33301 -9.50098 -6s-3.16699 -6.66699 -4.5 -12l-19 -62h-64l17 125
c21.333 10.667 49.166 19.834 83.499 27.501s70.166 11.5 107.499 11.5s69.666 -5.33301 96.999 -16s49.833 -25.667 67.5 -45s30.667 -42.5 39 -69.5s12.5 -57.167 12.5 -90.5c0 -42.667 -6.33301 -83.167 -19 -121.5s-31.334 -71.833 -56.001 -100.5
s-55.334 -51.334 -92.001 -68.001s-79 -25 -127 -25c-44 0 -82.667 6.33301 -116 19s-57.333 25.334 -72 38.001l38 65c12.667 -10 31.834 -20.667 57.501 -32s55.5 -17 89.5 -17c48 0 89.667 13.5 125 40.5s60 68.167 74 123.5h-219l10 67h219z" />
    <glyph glyph-name="afii10096" unicode="&#x44e;" horiz-adv-x="786" 
d="M71 0l61.999 430.999c2 11.333 -1.33301 18.333 -10 21l-53 14l6 48h158l-32 -225h108c7.33301 35.333 18.166 67.5 32.499 96.5s32.5 53.667 54.5 74s47.5 36.166 76.5 47.499s61.833 17 98.5 17c34 0 63 -5.5 87 -16.5s43.333 -26.167 58 -45.5
s25.334 -41.666 32.001 -66.999s10 -52.666 10 -81.999c0 -47.333 -5.83301 -91 -17.5 -131s-28.5 -74.333 -50.5 -103s-49.167 -51 -81.5 -67s-69.166 -24 -110.499 -24c-36 0 -66.5 5.66699 -91.5 17s-45.333 26.5 -61 45.5s-27 41.167 -34 66.5s-10.5 52 -10.5 80v12
c0 4 0.333008 8.33301 1 13h-110l-33 -222h-89zM502.999 59.999c22.667 0 44.0029 5.1709 64.0029 15.5039s37.333 25.666 52 45.999s26.167 46.166 34.5 77.499s12.5 68 12.5 110c0 19.333 -1.66699 37.666 -5 54.999s-9 32.333 -17 45s-19 22.667 -33 30
s-31.667 11 -53 11c-22.667 0 -44 -5.33301 -64 -16s-37.5 -26.167 -52.5 -46.5s-26.833 -45.833 -35.5 -76.5s-13 -66 -13 -106c0 -18.667 1.66699 -36.834 5 -54.501s9.16602 -33.167 17.499 -46.5s19.666 -24 33.999 -32s32.166 -12 53.499 -12z" />
    <glyph glyph-name="afii10097" unicode="&#x44f;" horiz-adv-x="579" 
d="M432 443c-10 5.33301 -24.5 9 -43.5 11s-37.167 3 -54.5 3c-35.333 0 -64.333 -7.5 -87 -22.5s-34 -40.833 -34 -77.5c0 -16 3.16699 -29.167 9.5 -39.5s14.833 -18.5 25.5 -24.5s23 -10.167 37 -12.5s28.667 -3.5 44 -3.5h81zM17 54l51.0039 8.00098
c7.33301 1.33301 12.166 3.16602 14.499 5.49902s6.16602 7.5 11.499 15.5l52 86c10.667 17.333 21 31.833 31 43.5s24 20.5 42 26.5v1c-12.667 3.33301 -25 7.83301 -37 13.5s-22.667 13.167 -32 22.5s-16.833 21 -22.5 35s-8.5 30.333 -8.5 49
c0 56.667 20.167 98.167 60.5 124.5s95.833 39.5 166.5 39.5c12.667 0 27.667 -0.666992 45 -2s34.666 -3.5 51.999 -6.5s33.666 -6.33301 48.999 -10s27.333 -8.16699 36 -13.5l-57 -421c-0.666992 -4.66699 -0.5 -7.66699 0.5 -9s3.83301 -2.33301 8.5 -3l47 -6l-7 -53
h-146l-4 6l31 207h-101c-12.667 0 -23 -2.66699 -31 -8s-16 -14.333 -24 -27l-46.5 -80.5l-53.5 -97.5h-135z" />
    <glyph glyph-name="afii10071" unicode="&#x451;" horiz-adv-x="480" 
d="M420 30c-26.667 -13.333 -55.333 -23.665 -86 -30.998s-62 -11 -94 -11c-36 0 -66.5 5.16699 -91.5 15.5s-45.333 24.5 -61 42.5s-26.834 39.667 -33.501 65s-10 53 -10 83c0 45.333 6.83301 88 20.5 128s32.834 75 57.501 105s54.167 53.667 88.5 71
s72.166 26 113.499 26c26 0 47.833 -3.16699 65.5 -9.5s32.167 -14.833 43.5 -25.5s19.5 -23.334 24.5 -38.001s7.5 -30.334 7.5 -47.001c0 -38 -12 -69.167 -36 -93.5s-53 -43.833 -87 -58.5s-69.833 -25.5 -107.5 -32.5s-70.5 -12.167 -98.5 -15.5
c0 -22 1.83301 -41.833 5.5 -59.5s10 -32.667 19 -45s21.667 -21.833 38 -28.5s36.833 -10 61.5 -10s48.334 3.33301 71.001 10s46.667 15.667 72 27zM142.001 272.001c16.667 2 38.332 5.33301 64.999 10s52.834 11.834 78.501 21.501s47.667 22.167 66 37.5
s27.5 34.666 27.5 57.999c0 15.333 -5.16699 27.833 -15.5 37.5s-27.166 14.5 -50.499 14.5c-22.667 0 -43.334 -4.83301 -62.001 -14.5s-35.167 -22.667 -49.5 -39s-26.5 -35.333 -36.5 -57s-17.667 -44.5 -23 -68.5zM285.999 668.001c0 -18 -5.66699 -32.999 -17 -44.999
s-27 -18 -47 -18c-15.333 0 -27.333 4.16699 -36 12.5s-13 19.5 -13 33.5c0 17.333 5.66699 32.166 17 44.499s27 18.5 47 18.5c15.333 0 27.333 -4.16699 36 -12.5s13 -19.5 13 -33.5zM487.999 668.002c0 -18 -5.66699 -32.999 -17 -44.999s-27 -18 -47 -18
c-15.333 0 -27.333 4.16699 -36 12.5s-13 19.5 -13 33.5c0 17.333 5.66699 32.166 17 44.499s27 18.5 47 18.5c15.333 0 27.333 -4.16699 36 -12.5s13 -19.5 13 -33.5z" />
    <glyph glyph-name="afii10099" unicode="&#x452;" horiz-adv-x="590" 
d="M260 -149c32.667 0 61.5 11.8301 86.5 35.4971s46 55.834 63 96.501s29.833 87.667 38.5 141s13 110 13 170c0 26 -1.83301 47.5 -5.5 64.5s-8.83398 30.333 -15.501 40s-14.667 16.334 -24 20.001s-19.666 5.5 -30.999 5.5c-16 0 -32.167 -2.5 -48.5 -7.5
s-32 -11 -47 -18s-28.667 -14.667 -41 -23s-22.833 -15.833 -31.5 -22.5l-40 -279c-1.33301 -6 -1 -10.167 1 -12.5s6.33301 -3.83301 13 -4.5l56 -7l-7 -50h-228l8 51l50 6c7.33301 0.666992 11.833 2.33398 13.5 5.00098s3.16699 7.66699 4.5 15l69 490h-68l9 62h67l6 47
c1.33301 8 -2 13 -10 15l-55 14l11 50h155l-18 -126h185l-9 -62h-185l-20 -137c11.333 8 24 16 38 24s29 15.5 45 22.5s32.167 12.667 48.5 17s32.5 6.5 48.5 6.5c48 0 83.833 -15 107.5 -45s35.5 -80 35.5 -150c0 -64 -4.83301 -127.5 -14.5 -190.5
s-25.5 -119.5 -47.5 -169.5s-51 -90.5 -87 -121.5s-80.333 -46.5 -133 -46.5c-19.333 0 -39 2.33301 -59 7s-36.333 10 -49 16l26 67c28 -10.667 53.333 -16 76 -16z" />
    <glyph glyph-name="afii10100" unicode="&#x453;" horiz-adv-x="456" 
d="M436 700l-56 64l-165 -156l36 -41zM273 461c-34 0 -61.666 -3.99805 -82.999 -11.998c-4.66699 -1.33301 -7.66699 -3.33301 -9 -6s-2.66602 -5.66699 -3.99902 -9l-21 -68h-67l16 118c19.333 10.667 45.666 20 78.999 28s68 12 104 12c44.667 0 81.5 -10.333 110.5 -31
s43.5 -52.334 43.5 -95.001c0 -28.667 -5.66699 -52.5 -17 -71.5s-26 -34.667 -44 -47s-38 -22.5 -60 -30.5l-65 -23c-18 -6 -34.333 -11.833 -49 -17.5s-27.5 -12.167 -38.5 -19.5s-19.5 -15.833 -25.5 -25.5s-9 -21.5 -9 -35.5c0 -24 7.83301 -41.5 23.5 -52.5
s36.167 -16.5 61.5 -16.5c30 0 57.167 6.33301 81.5 19s47.166 28.667 68.499 48l43 -55c-25.333 -25.333 -56 -45.5 -92 -60.5s-73 -22.5 -111 -22.5c-50 0 -90.167 11.667 -120.5 35s-45.5 57 -45.5 101c0 29.333 6 53.333 18 72s27.333 34.167 46 46.5
s39.5 22.333 62.5 30l67.5 22.5l44 16c14 5.33301 26.333 11.833 37 19.5s19 16.667 25 27s9 22.833 9 37.5c0 21.333 -7 37.666 -21 48.999s-33.333 17 -58 17z" />
    <glyph glyph-name="afii10101" unicode="&#x454;" horiz-adv-x="518" 
d="M457 31c-21.333 -13.333 -48.8281 -23.835 -82.4951 -31.502s-68.834 -11.5 -105.501 -11.5c-78.667 0 -135.834 19.833 -171.501 59.5s-53.5 93.5 -53.5 161.5c0 54 8.16699 100.833 24.5 140.5s38.833 72.5 67.5 98.5s62.167 45.167 100.5 57.5s79.5 18.5 123.5 18.5
c40 0 73.167 -3.66699 99.5 -11s45.166 -13.666 56.499 -18.999l-19 -133l-63 4l-3 62c0 10 -4.33301 16.333 -13 19c-7.33301 2 -17 3.66699 -29 5s-26.667 2 -44 2c-23.333 0 -45.833 -3 -67.5 -9s-41.334 -15.5 -59.001 -28.5s-32.834 -29.667 -45.501 -50
s-22 -44.833 -28 -73.5h215l-10 -67h-214c0.666992 -57.333 12.667 -99.166 36 -125.499s60 -39.5 110 -39.5c33.333 0 63 3.83301 89 11.5s47.667 16.5 65 26.5z" />
    <glyph glyph-name="afii10102" unicode="&#x455;" horiz-adv-x="451" 
d="M355 372l-2.99707 61.998c-0.666992 5.33301 -1.83398 9.33301 -3.50098 12s-5.16699 5 -10.5 7c-14 4.66699 -36 7 -66 7c-28.667 0 -53.834 -6 -75.501 -18s-32.5 -31.667 -32.5 -59c0 -23.333 8.83301 -41 26.5 -53s40.834 -23 69.501 -33
c16 -5.33301 32.333 -11.5 49 -18.5s32 -16 46 -27s25.333 -24.5 34 -40.5s13 -36 13 -60c0 -26.667 -5.16699 -50.167 -15.5 -70.5s-24.5 -37.333 -42.5 -51s-39.167 -24 -63.5 -31s-50.833 -10.5 -79.5 -10.5c-22.667 0 -44.167 1.16699 -64.5 3.5s-38.333 5.33301 -54 9
s-28.834 7.33398 -39.501 11.001s-18 6.83398 -22 9.50098l19 127l62 -4l3 -65c0 -7.33301 3.33301 -12.333 10 -15c8 -3.33301 19.167 -6.5 33.5 -9.5s33.5 -4.5 57.5 -4.5c33.333 0 60 7.33301 80 22s30 36 30 64c0 27.333 -9 46.833 -27 58.5s-43 22.834 -75 33.501
c-16 5.33301 -32.167 11.333 -48.5 18s-30.833 15.167 -43.5 25.5s-23 23.166 -31 38.499s-12 34.333 -12 57c0 27.333 5.16699 50.833 15.5 70.5s24.5 35.834 42.5 48.501s39.5 22.167 64.5 28.5s52.167 9.5 81.5 9.5c37.333 0 69.666 -3.33301 96.999 -10
s46 -12.334 56 -17.001l-18 -129z" />
    <glyph glyph-name="afii10103" unicode="&#x456;" horiz-adv-x="295" 
d="M192 625c-17.333 0 -31 4.66699 -41 14s-15 22.333 -15 39c0 21.333 6.5 39 19.5 53s31.167 21 54.5 21c18 0 31.833 -4.66699 41.5 -14s14.5 -22.333 14.5 -39c0 -21.333 -6.5 -39 -19.5 -53s-31.167 -21 -54.5 -21zM73 0l-2.00098 4l21 115l45 312
c2 11.333 -1.66699 18.333 -11 21l-53 14l7 48h157l-61 -437c-1.33301 -8 -1.16602 -13 0.500977 -15s6.16699 -3.66699 13.5 -5l59 -8l-7 -49h-169z" />
    <glyph glyph-name="afii10104" unicode="&#x457;" horiz-adv-x="296" 
d="M74 0l-1.99902 4l21 115l44 312c2 11.333 -1.66699 18.333 -11 21l-52 14l6 48h158l-61 -437c-1.33301 -8 -1.33301 -13 0 -15s5.66602 -3.66699 12.999 -5l60 -8l-7 -49h-169zM259.001 606c-15.333 0 -27.5 4.16699 -36.5 12.5s-13.5 19.833 -13.5 34.5
c0 18 5.83301 33 17.5 45s27.5 18 47.5 18c32.667 0 49 -15.333 49 -46c0 -18 -5.83301 -33.167 -17.5 -45.5s-27.167 -18.5 -46.5 -18.5zM104.001 606c-15.333 0 -27.5 4.16699 -36.5 12.5s-13.5 19.833 -13.5 34.5c0 18 5.83301 33 17.5 45s27.5 18 47.5 18
c32.667 0 49 -15.333 49 -46c0 -18 -5.83301 -33.167 -17.5 -45.5s-27.167 -18.5 -46.5 -18.5z" />
    <glyph glyph-name="afii10105" unicode="&#x458;" horiz-adv-x="286" 
d="M135 430c2 11.333 -0.999023 18.334 -8.99902 21.001l-57 15l7 48h160l-80 -579c-8 -56 -24.833 -96.333 -50.5 -121s-62.834 -37 -111.501 -37c-16 0 -31 1.66699 -45 5s-26.833 7.16602 -38.5 11.499s-21.5 9 -29.5 14s-14 9.5 -18 13.5l37 57
c7.33301 -5.33301 19 -11.5 35 -18.5s32.667 -10.5 50 -10.5c28 0 47.5 8.33301 58.5 25s19.167 43 24.5 79zM193.001 625.001c-18 0 -31.999 4.66699 -41.999 14s-15 22.333 -15 39c0 21.333 6.66699 39 20 53s31.666 21 54.999 21c17.333 0 31 -4.66699 41 -14
s15 -22.333 15 -39c0 -21.333 -6.66699 -39 -20 -53s-31.333 -21 -54 -21z" />
    <glyph glyph-name="afii10106" unicode="&#x459;" horiz-adv-x="794" 
d="M523 514l2.99609 -5l-29 -207c13.333 2.66699 29.833 5 49.5 7s37.834 3 54.501 3c52 0 92.333 -12.333 121 -37s43 -60 43 -106c0 -29.333 -5.5 -55.166 -16.5 -77.499s-26.5 -41.166 -46.5 -56.499s-43.833 -26.833 -71.5 -34.5s-58.167 -11.5 -91.5 -11.5
c-28.667 0 -57.334 1.66699 -86.001 5s-57 10.666 -85 21.999l58 431h-138c-7.33301 -50.667 -14.666 -94.834 -21.999 -132.501s-15 -73.5 -23 -107.5c-9.33301 -39.333 -20.166 -72.666 -32.499 -99.999s-26.333 -49.5 -42 -66.5s-33.667 -29.333 -54 -37
s-43.166 -11.5 -68.499 -11.5c-3.33301 0 -6.83301 0.166992 -10.5 0.5s-7.16699 0.5 -10.5 0.5l-10 73c18.667 0 35.167 1.5 49.5 4.5s27.333 10 39 21s22.334 27 32.001 48s19.167 49.5 28.5 85.5c7.33301 26.667 14.333 57.667 21 93s13.667 76 21 122
c1.33301 5.33301 1.5 9.16602 0.5 11.499s-4.16699 3.83301 -9.5 4.5l-49 6l8 52h367zM464.996 68c8 -2.66699 19.999 -5.16895 35.999 -7.50195s30.667 -3.5 44 -3.5c36.667 0 67.167 8.33301 91.5 25s36.5 44.334 36.5 83.001c0 16.667 -2.83301 30.167 -8.5 40.5
s-13 18.333 -22 24s-19.167 9.5 -30.5 11.5s-22.666 3 -33.999 3c-13.333 0 -28.333 -0.666992 -45 -2s-31.667 -3.66602 -45 -6.99902z" />
    <glyph glyph-name="afii10107" unicode="&#x45a;" horiz-adv-x="830" 
d="M577 -12c-16 0 -32.5 0.833008 -49.5 2.5s-33.167 3.83398 -48.5 6.50098s-29.5 5.66699 -42.5 9s-23.833 6.66602 -32.5 9.99902l28 215h-228l-33 -231h-85l-4 5l61 428c2 12 -1.66699 19 -11 21l-52 12l6 48h155l3 -6l-30 -208h228l31 214h86l2 -5l-29 -208
c13.333 2.66699 30 5 50 7s38.667 3 56 3c52 0 92.167 -12.167 120.5 -36.5s42.5 -59.5 42.5 -105.5c0 -32.667 -6.5 -60.5 -19.5 -83.5s-30 -41.667 -51 -56s-44.833 -24.833 -71.5 -31.5s-54 -10 -82 -10zM501 68c8 -2.66699 20.168 -5.16797 36.501 -7.50098
s32.166 -3.5 47.499 -3.5c16 0 31.5 2 46.5 6s28.333 10.333 40 19s20.834 19.834 27.501 33.501s10 30.167 10 49.5c0 16.667 -2.83301 30.167 -8.5 40.5s-12.834 18.5 -21.501 24.5s-18.5 10 -29.5 12s-22.167 3 -33.5 3c-19.333 0 -37.5 -1.33301 -54.5 -4
s-29.5 -5 -37.5 -7z" />
    <glyph glyph-name="afii10108" unicode="&#x45b;" horiz-adv-x="617" 
d="M402 0l-2.00293 2.00098l18 100l28 202c1.33301 9.33301 2.5 19.166 3.5 29.499s1.5 20.166 1.5 29.499c0 14 -2.83301 27.167 -8.5 39.5s-18.5 18.5 -38.5 18.5c-18 0 -35.167 -3 -51.5 -9s-32.333 -14 -48 -24s-31.334 -21.667 -47.001 -35l-48.5 -42l-32 -234
c-1.33301 -8 -1.16602 -13 0.500977 -15s6.16699 -3.66699 13.5 -5l62 -8l-7 -49h-233l7 50l49 7c7.33301 1.33301 12 3 14 5s3.66699 7 5 15l68 490h-67l9 65h67l6 39c2 12 -1 19 -9 21l-54 15l7 48h155l-18 -123h187l-9 -65h-187l-24 -171l52 42.5
c16.667 13 33.167 24.333 49.5 34s33.333 17.334 51 23.001s36.5 8.5 56.5 8.5c38.667 0 67.334 -10 86.001 -30s28.334 -49 29.001 -87c0 -8.66699 -0.5 -18.667 -1.5 -30s-2.16699 -22 -3.5 -32l-35 -248c-1.33301 -8 -1.16602 -13 0.500977 -15s6.16699 -3.66699 13.5 -5
l55 -8l-7 -49h-163z" />
    <glyph glyph-name="afii10109" unicode="&#x45c;" horiz-adv-x="545" 
d="M311 567l-36 41l165 156l56 -64zM205 289l46.9971 -0.00292969c21.333 0 37.833 4 49.5 12s23.834 23.333 36.501 46l58 105c12.667 22.667 27.334 40.334 44.001 53.001s39.334 19 68.001 19c15.333 0 30.333 -2 45 -6l-9 -61c-3.33301 0.666992 -6.66602 1 -9.99902 1
h-10c-15.333 0 -27 -3.16699 -35 -9.5s-16 -17.166 -24 -32.499l-45 -86c-18 -33.333 -44.333 -54.666 -79 -63.999v-1c11.333 -3.33301 20.833 -9.5 28.5 -18.5s16.167 -23.5 25.5 -43.5l54 -124c2.66699 -5.33301 5.16699 -9.5 7.5 -12.5s6.16602 -5.16699 11.499 -6.5
l48 -8l-6 -52h-128c-4.66699 16 -10.334 32.667 -17.001 50l-19.5 49.5l-18 43.5l-14.5 33c-9.33301 21.333 -18.166 35.333 -26.499 42s-21.833 10 -40.5 10h-48l-33 -228h-89l62 439c1.33301 5.33301 1.33301 9 0 11s-4.33301 3.66699 -9 5l-44 10l6 49h142l3 -6z" />
    <glyph glyph-name="afii10110" unicode="&#x45e;" horiz-adv-x="526" 
d="M199 15l-108 424.999c-1.33301 6 -3.16602 10 -5.49902 12s-6.16602 3.66699 -11.499 5l-41 9l9 48h130l5 -6l23 -126l60 -259l166 333l-62 10l6 48h159l7 -14l-296 -577c-12.667 -24.667 -25.167 -46.167 -37.5 -64.5s-25.5 -33.5 -39.5 -45.5s-29.833 -21 -47.5 -27
s-38.5 -9 -62.5 -9c-15.333 0 -29.833 1.5 -43.5 4.5s-26.167 6.83301 -37.5 11.5s-21.166 9.5 -29.499 14.5s-14.5 9.5 -18.5 13.5l37 57c11.333 -8 24.5 -14.833 39.5 -20.5s31.833 -8.5 50.5 -8.5c14 0 26.167 2.33301 36.5 7s19.666 11.334 27.999 20.001
s16.166 18.667 23.499 30s14.666 24 21.999 38zM483 705.999c-30 -89.333 -92 -134 -186 -134c-48 0 -84.167 11.833 -108.5 35.5s-38.833 56.5 -43.5 98.5l74 22c4 -32 12 -55.667 24 -71s32.333 -23 61 -23c28 0 50.167 7.5 66.5 22.5s30.5 38.167 42.5 69.5z" />
    <glyph glyph-name="afii10193" unicode="&#x45f;" horiz-adv-x="617" 
d="M308 -38l-37 -147l-71 -5l23 141zM405 0l15.0029 99l-44 -36.5c-16 -13 -32.833 -25 -50.5 -36s-35.5 -20 -53.5 -27s-36 -10.5 -54 -10.5c-42 0 -73.5 9 -94.5 27s-31.5 49.333 -31.5 94c0 7.33301 0.333008 16.333 1 27s1.66699 20.667 3 30l39 270
c1.33301 8 1.16602 13 -0.500977 15s-6.16699 3.66699 -13.5 5l-52 8l8 49h154l3 -4l-45 -321c-1.33301 -9.33301 -2.5 -18.833 -3.5 -28.5s-1.5 -20.5 -1.5 -32.5c0 -20 3.66699 -34.5 11 -43.5s21.333 -13.5 42 -13.5c15.333 0 30.666 3 45.999 9s30.833 14.167 46.5 24.5
s31.5 22.166 47.5 35.499l49 42l34 255c1.33301 8 1.16602 13 -0.500977 15s-6.16699 3.66699 -13.5 5l-58 8l7 49h163l3 -4l-61 -434c-2 -11.333 1 -17.666 9 -18.999l55 -9l-6 -48h-153z" />
    <glyph glyph-name="afii10050" unicode="&#x490;" horiz-adv-x="546" 
d="M294 653l-80 -573.997c-1.33301 -7.33301 -1.33301 -12.166 0 -14.499s5.66602 -3.83301 12.999 -4.5l145 -11l-8 -49h-332l8 51l64 7c7.33301 1.33301 11.833 3.16602 13.5 5.49902s3.16699 7.16602 4.5 14.499l79 565c1.33301 7.33301 1.33301 12.166 0 14.499
s-5.66602 4.16602 -12.999 5.49902l-62 7l7 54h365c10.667 0 17 4.33301 19 13l31 94l66 4l-26 -182h-294z" />
    <glyph glyph-name="afii10098" unicode="&#x491;" horiz-adv-x="437" 
d="M24 0l7.00195 47.999l47 5c5.33301 0.666992 8.66602 1.83398 9.99902 3.50098s2.66602 5.16699 3.99902 10.5l52 377c0.666992 5.33301 0.5 8.83301 -0.5 10.5s-4.16699 2.83398 -9.5 3.50098l-45 5l7 51h270c7.33301 0 12 3 14 9l23 67l67 5l-21 -148h-213l-53 -378
c-1.33301 -5.33301 -1.5 -8.83301 -0.5 -10.5s4.16699 -2.83398 9.5 -3.50098l104 -8l-6 -47h-266z" />
    <glyph glyph-name="thinspace" unicode="&#x2009;" horiz-adv-x="125" 
 />
    <glyph glyph-name="endash" unicode="&#x2013;" 
d="M12 247l10 69h499l-10 -69h-499z" />
    <glyph glyph-name="emdash" unicode="&#x2014;" horiz-adv-x="1000" 
d="M7 247l10 69h999l-10 -69h-999z" />
    <glyph glyph-name="quoteleft" unicode="&#x2018;" horiz-adv-x="185" 
d="M191 553c-26 1.33301 -47.833 5.50098 -65.5 12.501s-26.5 20.833 -26.5 41.5c0 10 2 19.167 6 27.5s9.33301 17.166 16 26.499l66 101l41 -17l-41 -95c-2 -4.66699 -0.333008 -8 5 -10l29 -13z" />
    <glyph glyph-name="quoteright" unicode="&#x2019;" horiz-adv-x="189" 
d="M98 568l41 95c2 4 0.333008 7 -5 9l-29 14l30 74c26 -1.33301 47.833 -5.5 65.5 -12.5s26.5 -20.5 26.5 -40.5c0 -10 -2 -19.333 -6 -28s-9.33301 -17.667 -16 -27l-66 -101z" />
    <glyph glyph-name="quotesinglbase" unicode="&#x201a;" horiz-adv-x="180" 
d="M7 -106l41 95c2 4 0.666992 7 -4 9l-29 14l30 74c26 -1.33301 47.833 -5.5 65.5 -12.5s26.5 -20.5 26.5 -40.5c0 -10 -2 -19.333 -6 -28s-9.33301 -17.667 -16 -27l-66 -101z" />
    <glyph glyph-name="quotedblleft" unicode="&#x201c;" horiz-adv-x="338" 
d="M344 553c-26 1.33301 -47.833 5.50098 -65.5 12.501s-26.5 20.833 -26.5 41.5c0 10 2 19.167 6 27.5s9.33301 17.166 16 26.499l66 101l41 -17l-41 -95c-2 -4.66699 -0.333008 -8 5 -10l29 -13zM191 553.001c-26 1.33301 -47.833 5.50098 -65.5 12.501
s-26.5 20.833 -26.5 41.5c0 10 2 19.167 6 27.5s9.33301 17.166 16 26.499l66 101l41 -17l-41 -95c-2 -4.66699 -0.333008 -8 5 -10l29 -13z" />
    <glyph glyph-name="quotedblright" unicode="&#x201d;" horiz-adv-x="342" 
d="M251 568l41 95c2 4 0.333008 7 -5 9l-29 14l30 74c26 -1.33301 47.833 -5.5 65.5 -12.5s26.5 -20.5 26.5 -40.5c0 -10 -2 -19.333 -6 -28s-9.33301 -17.667 -16 -27l-66 -101zM98 568l41 95c2 4 0.333008 7 -5 9l-29 14l30 74c26 -1.33301 47.833 -5.5 65.5 -12.5
s26.5 -20.5 26.5 -40.5c0 -10 -2 -19.333 -6 -28s-9.33301 -17.667 -16 -27l-66 -101z" />
    <glyph glyph-name="quotedblbase" unicode="&#x201e;" horiz-adv-x="333" 
d="M160 -106l41 95c2 4 0.666992 7 -4 9l-29 14l30 74c26 -1.33301 47.833 -5.5 65.5 -12.5s26.5 -20.5 26.5 -40.5c0 -10 -2 -19.333 -6 -28s-9.33301 -17.667 -16 -27l-66 -101zM7 -106l41 95c2 4 0.666992 7 -4 9l-29 14l30 74c26 -1.33301 47.833 -5.5 65.5 -12.5
s26.5 -20.5 26.5 -40.5c0 -10 -2 -19.333 -6 -28s-9.33301 -17.667 -16 -27l-66 -101z" />
    <glyph glyph-name="dagger" unicode="&#x2020;" horiz-adv-x="393" 
d="M122 -83l27 191l14 212l48 112h34l17 -112l-44 -213l-27 -190h-69zM125 411h-74l10 75h74l81 -21l-5 -33zM216 465l-8 96l12 84h75l-12 -84l-34 -96h-33zM326 411l-81 21l4 33l87 21h74l-11 -75h-73z" />
    <glyph glyph-name="daggerdbl" unicode="&#x2021;" horiz-adv-x="410" 
d="M293 76l-81 21l5 33h-33l-5 -33h33l8 -96l-12 -84h-75l12 84l34 96l-87 -21h-74l11 75h74l81 -21l-17 116l11 77l48 109h33l18 -109l-11 -77l-49 -116l87 21h74l-11 -75h-74zM139 411h-74l11 75h74l81 -21l-8 96l12 84h75l-12 -84l-34 -96l87 21h74l-11 -75h-74l-81 21
l5 33h-33l-5 -33z" />
    <glyph glyph-name="bullet" unicode="&#x2022;" horiz-adv-x="371" 
d="M338 280c0 -44.667 -12 -78.167 -36 -100.5s-58 -33.5 -102 -33.5s-77.833 11.167 -101.5 33.5s-35.5 55.833 -35.5 100.5s11.833 78.167 35.5 100.5s57.5 33.5 101.5 33.5s78 -11.167 102 -33.5s36 -55.833 36 -100.5z" />
    <glyph glyph-name="ellipsis" unicode="&#x2026;" horiz-adv-x="618" 
d="M365 64c0 -21.333 -6.16699 -39.333 -18.5 -54s-31.5 -22 -57.5 -22c-38.667 0 -58 16.333 -58 49c0 22 6 40.333 18 55s31.333 22 58 22c38.667 0 58 -16.667 58 -50zM558 64c0 -21.333 -6.16699 -39.333 -18.5 -54s-31.5 -22 -57.5 -22c-38.667 0 -58 16.333 -58 49
c0 22 6 40.333 18 55s31.333 22 58 22c38.667 0 58 -16.667 58 -50zM172 64c0 -21.333 -6.16699 -39.333 -18.5 -54s-31.5 -22 -57.5 -22c-38.667 0 -58 16.333 -58 49c0 22 6 40.333 18 55s31.333 22 58 22c38.667 0 58 -16.667 58 -50z" />
    <glyph glyph-name="perthousand" unicode="&#x2030;" horiz-adv-x="1088" 
d="M204 295c-22 0 -40.8311 3.33105 -56.498 9.99805s-28.5 15.834 -38.5 27.501s-17.167 25.334 -21.5 41.001s-6.5 32.5 -6.5 50.5c0 28.667 3.83301 55 11.5 79s18.667 44.667 33 62s32.166 30.833 53.499 40.5s46 14.5 74 14.5c43.333 0 74.666 -11.5 93.999 -34.5
s29 -53.5 29 -91.5c0 -29.333 -3.66699 -56.166 -11 -80.499s-18.333 -45.333 -33 -63s-32.667 -31.334 -54 -41.001s-46 -14.5 -74 -14.5zM116.002 -17.002l466 638h86l-465 -638h-87zM213.002 351.998c20 0 35.833 4.49902 47.5 13.499s20.5 20.333 26.5 34
s10 28.334 12 44.001s3 30.5 3 44.5c0 21.333 -4.16699 39 -12.5 53s-23.166 21 -44.499 21c-16.667 0 -30.834 -4 -42.501 -12s-21 -18.5 -28 -31.5s-12 -27.5 -15 -43.5s-4.5 -31.667 -4.5 -47c0 -22 4.33301 -40.167 13 -54.5s23.667 -21.5 45 -21.5zM534.002 -12.0029
c-22.667 0 -41.834 3.33496 -57.501 10.002s-28.334 15.667 -38.001 27s-16.667 24.666 -21 39.999s-6.5 32 -6.5 50c0 28.667 3.83301 55.167 11.5 79.5s18.834 45.166 33.501 62.499s32.834 31 54.501 41s46.5 15 74.5 15c43.333 0 74.5 -11.833 93.5 -35.5
s28.5 -54.5 28.5 -92.5c0 -58.667 -14.833 -106.167 -44.5 -142.5s-72.5 -54.5 -128.5 -54.5zM543.002 44.999c20 0 35.833 4.33301 47.5 13s20.5 19.667 26.5 33s10 27.833 12 43.5s3 30.5 3 44.5c0 21.333 -4.16699 39.333 -12.5 54s-23.166 22 -44.499 22
c-16.667 0 -30.834 -4.16699 -42.501 -12.5s-21 -19 -28 -32s-12 -27.333 -15 -43s-4.5 -31.167 -4.5 -46.5c0 -22 4.16699 -40.167 12.5 -54.5s23.5 -21.5 45.5 -21.5zM862.002 -12.001c-22.667 0 -41.8311 3.33496 -57.498 10.002s-28.334 15.667 -38.001 27
s-16.667 24.666 -21 39.999s-6.5 32 -6.5 50c0 28.667 3.83301 55.167 11.5 79.5s18.667 45.166 33 62.499s32.166 31 53.499 41s46 15 74 15c43.333 0 74.833 -11.833 94.5 -35.5s29.5 -54.5 29.5 -92.5c0 -58.667 -14.833 -106.167 -44.5 -142.5s-72.5 -54.5 -128.5 -54.5
zM871.005 45.001c20 0 35.833 4.33301 47.5 13s20.5 19.667 26.5 33s10 27.833 12 43.5s3 30.5 3 44.5c0 21.333 -4.16699 39.333 -12.5 54s-23.166 22 -44.499 22c-16.667 0 -30.834 -4.16699 -42.501 -12.5s-21 -19 -28 -32s-12 -27.333 -15 -43s-4.5 -31.167 -4.5 -46.5
c0 -22 4.16699 -40.167 12.5 -54.5s23.5 -21.5 45.5 -21.5z" />
    <glyph glyph-name="guilsinglleft" unicode="&#x2039;" horiz-adv-x="278" 
d="M128 103l-65.001 156l110 149h83l-96 -139c-3.33301 -4.66699 -5.16602 -8 -5.49902 -10s0.166992 -5 1.5 -9l54 -147h-82z" />
    <glyph glyph-name="guilsinglright" unicode="&#x203a;" horiz-adv-x="278" 
d="M47 103l96 145c3.33301 4.66699 5 8 5 10s-0.666992 5 -2 9l-55 141h82l66 -153l-107 -152h-85z" />
    <glyph glyph-name="fraction" unicode="&#x2044;" horiz-adv-x="205" 
d="M-143 -12l459 736h84l-458 -736h-85z" />
    <glyph glyph-name="Euro" unicode="&#x20ac;" horiz-adv-x="522" 
d="M180 217c9.33301 -105.333 53.9971 -157.999 133.997 -157.999c15.333 0 29.5 0.833008 42.5 2.5s23.5 4.16699 31.5 7.5c6.66699 2.66699 11 8 13 16l23 77l62 4l-19 -145c-6.66699 -2.66699 -15.667 -6 -27 -10s-24.5 -7.66699 -39.5 -11s-31 -6.16602 -48 -8.49902
s-34.5 -3.5 -52.5 -3.5c-67.333 0 -118.5 19.667 -153.5 59s-54.833 96 -59.5 170h-85l19 62h65c1.33301 24 3.33301 47 6 69h-54l19 62h48c11.333 41.333 27 77 47 107s43 54.667 69 74s54.333 33.666 85 42.999s62.334 14 95.001 14c34.667 0 65.167 -3.83301 91.5 -11.5
s45.5 -15.167 57.5 -22.5l-21 -145l-60 5l-3 77c0 8 -4 13.333 -12 16c-6.66699 2 -15.5 3.83301 -26.5 5.5s-24.5 2.5 -40.5 2.5c-41.333 0 -78.666 -13.333 -111.999 -40s-58.666 -68.334 -75.999 -125.001h198l-18 -62h-194c-2.66699 -22 -4.66699 -45 -6 -69h182
l-18 -62h-163z" />
    <glyph glyph-name="afii61352" unicode="&#x2116;" horiz-adv-x="1120" 
d="M506 0l-242.001 527l-62 -445c-1.33301 -8 -1.33301 -13 0 -15s5.66602 -3.66699 12.999 -5l66 -8l-7 -54h-240l7 54l64 7c7.33301 1.33301 12 3.16602 14 5.49902s3.66699 7.16602 5 14.499l65 466c1.33301 7.33301 1.33301 12.333 0 15
s-5.66602 4.33398 -12.999 5.00098l-62 7l8 55h193l231 -512l59 431c1.33301 7.33301 1.33301 12.333 0 15s-5.66602 4.33398 -12.999 5.00098l-62 7l8 54h239l-8 -54l-68 -8c-7.33301 -1.33301 -12 -3 -14 -5s-3.66699 -6.66699 -5 -14l-76 -548h-100zM720.999 183h308
l-10 -73h-308zM881.999 224c-26 0 -48.167 3.49902 -66.5 10.499s-33.5 16.667 -45.5 29s-20.667 27 -26 44s-8 35.167 -8 54.5c0 30 4.16699 57.833 12.5 83.5s20.5 47.834 36.5 66.501s36 33.167 60 43.5s51.667 15.5 83 15.5c51.333 0 87.833 -13.333 109.5 -40
s32.5 -60.667 32.5 -102c0 -61.333 -16 -110.833 -48 -148.5s-78.667 -56.5 -140 -56.5zM889.999 280.999c30.667 0 55.332 12.001 73.999 36.001s28.334 61.667 29.001 113c0 30 -6.16699 51.333 -18.5 64s-30.5 19 -54.5 19c-30.667 0 -56.167 -11.667 -76.5 -35
s-30.5 -60 -30.5 -110c0 -30.667 6.5 -52.834 19.5 -66.501s32.167 -20.5 57.5 -20.5z" />
    <glyph glyph-name="trademark" unicode="&#x2122;" horiz-adv-x="830" 
d="M166 348v37l60 5v287h-85l-9 -54h-36v101h320v-101h-37l-8 54h-86v-287l64 -5v-37h-183zM734 348v36l47 5v223l-96 -183h-46l-94 184v-224l50 -5v-36h-146v36l40 5v291l-40 5v39h99l116 -233l119 233h95v-39l-42 -5v-291l44 -5v-36h-146z" />
    <glyph glyph-name="partialdiff" unicode="&#x2202;" horiz-adv-x="575" 
d="M444 349c4 15.333 6.83203 33.666 8.49902 54.999s2.5 42.333 2.5 63c0 18 -1.83301 35 -5.5 51s-9.66699 30.167 -18 42.5s-19.166 22 -32.499 29s-30 10.5 -50 10.5c-28 0 -56.5 -5.33301 -85.5 -16s-53.167 -22.334 -72.5 -35.001l-31 61
c28.667 18 61.334 33 98.001 45s73 18 109 18c32 0 59 -5.5 81 -16.5s40 -26.167 54 -45.5s24.167 -42.166 30.5 -68.499s9.5 -55.166 9.5 -86.499c0 -29.333 -2 -61.333 -6 -96s-10.667 -69.334 -20 -104.001s-21.833 -68.167 -37.5 -100.5s-35 -60.833 -58 -85.5
s-50.5 -44.5 -82.5 -59.5s-68.667 -22.5 -110 -22.5c-58.667 0 -102.167 15.167 -130.5 45.5s-42.5 70.5 -42.5 120.5c0 36 5.66699 69.833 17 101.5s27.333 59 48 82s45.5 41.167 74.5 54.5s61.167 20 96.5 20c36 0 66.667 -6.66699 92 -20s45.666 -27.666 60.999 -42.999z
M428.999 276c-6 6.66699 -13.332 13.8311 -21.999 21.498s-18.667 14.667 -30 21s-23.833 11.666 -37.5 15.999s-28.5 6.5 -44.5 6.5c-26.667 0 -49.167 -5.66699 -67.5 -17s-33.333 -25.666 -45 -42.999s-20.167 -36.666 -25.5 -57.999s-8 -41.666 -8 -60.999
c0 -29.333 7 -53.833 21 -73.5s36.667 -29.5 68 -29.5c30 0 55.833 7.16699 77.5 21.5s40.167 32.333 55.5 54s27.666 45.167 36.999 70.5s16.333 49 21 71z" />
    <glyph glyph-name="product" unicode="&#x220f;" horiz-adv-x="776" 
d="M430 -176l7.00293 50.0059l64 7c7.33301 1.33301 12 3.16602 14 5.49902s3.66699 7.16602 5 14.499l105 752h-344l-105 -751c-1.33301 -8 -1.33301 -13 0 -15s5.66602 -3.66699 12.999 -5l66 -8l-7 -50h-254l7 50l64 7c7.33301 1.33301 12 3.16602 14 5.49902
s3.66699 7.16602 5 14.499l104 743c1.33301 7.33301 1.16602 12.166 -0.500977 14.499s-6.16699 4.16602 -13.5 5.49902l-62 7l8 53h690l-8 -53l-68 -8c-7.33301 -1.33301 -11.833 -3 -13.5 -5s-3.16699 -6.66699 -4.5 -14l-104 -742c-1.33301 -8 -1.33301 -13 0 -15
s5.66602 -3.66699 12.999 -5l66 -8l-7 -50h-254z" />
    <glyph glyph-name="summation" unicode="&#x2211;" horiz-adv-x="627" 
d="M-26 -176l8.00098 59l290 396l-162 389l8 56h528l-23 -165l-67 4l-3 77c-0.666992 8.66699 -6 13 -16 13h-321l151 -371l-277 -381h349c5.33301 0 9.16602 0.5 11.499 1.5s4.5 4.16699 6.5 9.5l28 87h67l-24 -175h-554z" />
    <glyph glyph-name="minus" unicode="&#x2212;" horiz-adv-x="570" 
d="M112 281l11 81h377l-11 -81h-377z" />
    <glyph glyph-name="radical" unicode="&#x221a;" horiz-adv-x="563" 
d="M244 0l-97 227c-3.33301 8 -9 10.667 -17 8l-65 -18l-17 56l144 65l100 -244l265 650l77 -19l-295 -725h-95z" />
    <glyph glyph-name="infinity" unicode="&#x221e;" horiz-adv-x="671" 
d="M212 457c36 0 64.998 -7.66895 86.998 -23.002s41.667 -33.666 59 -54.999c18.667 19.333 40.667 37.166 66 53.499s54.333 24.5 87 24.5c17.333 0 33.833 -2.66699 49.5 -8s29.5 -13.5 41.5 -24.5s21.5 -24.833 28.5 -41.5s10.5 -36.334 10.5 -59.001
c0 -20 -3.33301 -38.5 -10 -55.5s-16.334 -31.667 -29.001 -44s-27.667 -22.166 -45 -29.499s-36.666 -11 -57.999 -11c-35.333 0 -64.666 7.83301 -87.999 23.5s-43.666 33.834 -60.999 54.501c-17.333 -19.333 -37.833 -37.166 -61.5 -53.499s-51.5 -24.5 -83.5 -24.5
c-18.667 0 -36.5 2.66699 -53.5 8s-31.833 13.333 -44.5 24s-22.667 24.334 -30 41.001s-11 36.334 -11 59.001c0 20 3.66699 38.667 11 56s17.5 32.166 30.5 44.499s28.5 22.166 46.5 29.499s37.333 11 58 11zM205.998 243.998c22 0 41.499 7.16797 58.499 21.501
s33.167 31.166 48.5 50.499c-16 22.667 -32.667 41.5 -50 56.5s-37.666 22.5 -60.999 22.5c-20.667 0 -37 -7.5 -49 -22.5s-18 -32.167 -18 -51.5c0 -9.33301 1.16699 -18.5 3.5 -27.5s6.33301 -17.167 12 -24.5s13 -13.333 22 -18s20.167 -7 33.5 -7zM502.997 397.999
c-22.667 0 -42.333 -7.16699 -59 -21.5s-33 -31.5 -49 -51.5c16 -20.667 33 -38.5 51 -53.5s38 -22.5 60 -22.5c20.667 0 37 7.16699 49 21.5s18 31.5 18 51.5c0 18.667 -5.33301 36 -16 52s-28.667 24 -54 24z" />
    <glyph glyph-name="integral" unicode="&#x222b;" horiz-adv-x="508" 
d="M130 -99c12 -6.66699 24.1689 -11.334 36.502 -14.001s24.5 -4 36.5 -4c17.333 0 32 4.83301 44 14.5s16.667 28.167 14 55.5l-54 633c-2 26 0.5 48 7.5 66s16.833 32.5 29.5 43.5s27.5 19 44.5 24s34.5 7.5 52.5 7.5c20 0 38.167 -1.83301 54.5 -5.5
s32.166 -8.5 47.499 -14.5l-20 -71c-12.667 6.66699 -25 11.334 -37 14.001s-24 4 -36 4c-17.333 0 -31.833 -5 -43.5 -15s-16.5 -27.333 -14.5 -52l54 -635c2 -26.667 -0.5 -49 -7.5 -67s-16.833 -32.5 -29.5 -43.5s-27.5 -18.833 -44.5 -23.5s-34.167 -7 -51.5 -7
c-21.333 0 -40.333 2 -57 6s-32.334 9 -47.001 15z" />
    <glyph glyph-name="approxequal" unicode="&#x2248;" horiz-adv-x="530" 
d="M491 322c-5.33301 -14.667 -11.002 -28.501 -17.002 -41.501s-13.333 -24.5 -22 -34.5s-18.667 -17.833 -30 -23.5s-25 -8.5 -41 -8.5c-18 0 -36.833 2.33301 -56.5 7s-39 9.66699 -58 15l-55.5 15c-18 4.66699 -34.333 7 -49 7
c-15.333 0 -28.166 -4.16699 -38.499 -12.5s-22.166 -21.166 -35.499 -38.499l-47 22c18 30 36.167 54.333 54.5 73s42.5 28 72.5 28c19.333 0 38.333 -2.33301 57 -7s37.167 -9.66699 55.5 -15l53.5 -15c17.333 -4.66699 34 -7 50 -7c15.333 0 26.5 4.33301 33.5 13
s14.833 21.667 23.5 39zM516.998 496.999c-5.33301 -14.667 -11.167 -28.5 -17.5 -41.5s-13.833 -24.333 -22.5 -34s-18.667 -17.334 -30 -23.001s-24.666 -8.5 -39.999 -8.5c-18 0 -37 2.16699 -57 6.5s-39.667 9.33301 -59 15s-38 10.667 -56 15s-34.333 6.5 -49 6.5
c-15.333 0 -28 -4.16699 -38 -12.5s-21.667 -21.166 -35 -38.499l-48 22c18 30 36.333 54.333 55 73s43 28 73 28c19.333 0 38.333 -2.33301 57 -7s37 -9.66699 55 -15l53 -15c17.333 -4.66699 34 -7 50 -7c15.333 0 26.666 4.33301 33.999 13s15.333 21.667 24 39z" />
    <glyph glyph-name="notequal" unicode="&#x2260;" horiz-adv-x="570" 
d="M262 159l-64 -109h-80l65 109h-94l12 83h132l47 79h-168l11 83h207l57 95h76l-56 -95h90l-11 -83h-128l-47 -79h164l-12 -83h-201z" />
    <glyph glyph-name="lessequal" unicode="&#x2264;" horiz-adv-x="570" 
d="M108 251l14 100l392 154l8 -79l-326 -123l296 -120l-27 -77zM74 0l11 80h377l-11 -80h-377z" />
    <glyph glyph-name="greaterequal" unicode="&#x2265;" horiz-adv-x="570" 
d="M84 106l-3 80l328 120l-291 122l28 77l350 -154l-15 -100zM69 0l11 80h377l-11 -80h-377z" />
    <glyph glyph-name="lozenge" unicode="&#x25ca;" horiz-adv-x="538" 
d="M204 -17l-111 324l202 324h74l111 -324l-202 -324h-74zM401 307l-81 236l-147 -236l80 -239z" />
    <glyph glyph-name="breve.cyr" 
d="M430 706c-30 -89.333 -92 -134 -186 -134c-48 0 -84.167 11.833 -108.5 35.5s-38.833 56.5 -43.5 98.5l74 22c4 -32 12 -55.667 24 -71s32.333 -23 61 -23c28 0 50.167 7.5 66.5 22.5s30.5 38.167 42.5 69.5z" />
    <glyph glyph-name="breve_cyr.cap.smcp" horiz-adv-x="394" 
d="M323 693c-13.333 -34.667 -31.1689 -59.333 -53.502 -74s-49.5 -22 -81.5 -22c-34.667 0 -62.5 7.83301 -83.5 23.5s-34.167 39.5 -39.5 71.5l63 18c2.66699 -21.333 9.33398 -36.333 20.001 -45s24.334 -13 41.001 -13c15.333 0 29.333 4 42 12s23 23.667 31 47z" />
    <glyph glyph-name="hyphen.case" horiz-adv-x="311" 
d="M44 307l13 89h271l-13 -89h-271z" />
    </font>
</defs>
</svg>
