<?xml version="1.0" standalone="no"?>
<!DOCTYPE svg PUBLIC "-//W3C//DTD SVG 1.1//EN" "http://www.w3.org/Graphics/SVG/1.1/DTD/svg11.dtd" >
<svg>
<metadata>
Created by FontForge 20090914 at Mon May  1 15:27:17 2017
 By www-data
Copyright (c) 2010 by TypeTogether. All rights reserved.This font is ONLY licensed for use when accessed from the Extensis WebINK font service. Any other use of this font file is illegal under United States and international copyright laws. Please respect the rights of the people who design and license fonts.
</metadata>
<defs>
<font id="AdelleCyrillic-SemiBold" horiz-adv-x="500" >
  <font-face 
    font-family="Adelle Cyrillic"
    font-weight="600"
    font-stretch="normal"
    units-per-em="1000"
    panose-1="2 0 5 3 0 0 0 2 0 4"
    ascent="755"
    descent="-245"
    x-height="517"
    cap-height="724"
    bbox="-150 -244 1058 947"
    underline-thickness="50"
    underline-position="-50"
    unicode-range="U+000D-U+25CA"
  />
<missing-glyph 
 />
    <glyph glyph-name=".notdef" 
 />
    <glyph glyph-name="NULL" horiz-adv-x="0" 
 />
    <glyph glyph-name="NULL" horiz-adv-x="0" 
 />
    <glyph glyph-name="nonmarkingreturn" unicode="&#xd;" 
 />
    <glyph glyph-name="space" unicode=" " horiz-adv-x="214" 
 />
    <glyph glyph-name="exclam" unicode="!" horiz-adv-x="270" 
d="M87 191l-16 363v170h125v-170l-14 -363h-95zM209 57c0 -46 -24.667 -69 -74 -69s-74 23 -74 69s24.667 69 74 69s74 -23 74 -69z" />
    <glyph glyph-name="quotedbl" unicode="&#x22;" horiz-adv-x="378" 
d="M51 447v259h108v-259h-108zM219 447v259h108v-259h-108z" />
    <glyph glyph-name="numbersign" unicode="#" horiz-adv-x="607" 
d="M314 0l20 132h-107l-20 -132h-85l19 132h-108l18 80h103l21 134h-109l17 81h104l17 116h86l-18 -116h106l17 116h85l-18 -116h110l-16 -81h-106l-19 -134h109l-17 -80h-104l-20 -132h-85zM366 346h-106l-21 -134h107z" />
    <glyph glyph-name="dollar" unicode="$" horiz-adv-x="525" 
d="M477 183c0 -54 -15.6689 -95.499 -47.002 -124.499s-73 -47.167 -125 -54.5v-84h-81v80c-36.667 1.33301 -71.667 5.5 -105 12.5s-59.666 15.167 -78.999 24.5v152h76l16 -75c1.33301 -7.33301 3.16602 -12.333 5.49902 -15s7.16602 -5.66699 14.499 -9
c6.66699 -2.66699 16.5 -4.83398 29.5 -6.50098s27.167 -3.16699 42.5 -4.5v193c-20.667 6 -41.334 12.833 -62.001 20.5s-39 18 -55 31s-29 29.333 -39 49s-15 44.5 -15 74.5c0 28 4.5 52.667 13.5 74s21.333 39.333 37 54s34.334 26.5 56.001 35.5
s44.834 15.167 69.501 18.5v74h81v-72c32 -1.33301 60.667 -5 86 -11s49.333 -12.667 72 -20v-161l-85 10l-15 74c-1.33301 7.33301 -3.33301 12.333 -6 15s-7.33398 5 -14.001 7c-5.33301 1.33301 -11.166 2.66602 -17.499 3.99902s-13.166 2.33301 -20.499 3v-193
c20.667 -6.66699 41 -14.167 61 -22.5s37.833 -19 53.5 -32s28.334 -29.167 38.001 -48.5s14.5 -43.666 14.5 -72.999zM158.998 468.001c0 -22 6.5 -39.167 19.5 -51.5s29.833 -22.833 50.5 -31.5v162c-22 -5.33301 -39.167 -14.5 -51.5 -27.5s-18.5 -30.167 -18.5 -51.5z
M370.998 163.001c0 21.333 -6.16895 38.333 -18.502 51s-28.166 23 -47.499 31v-160c22.667 5.33301 39.334 14.833 50.001 28.5s16 30.167 16 49.5z" />
    <glyph glyph-name="percent" unicode="%" horiz-adv-x="874" 
d="M203 257c-30.667 0 -56.498 4.83594 -77.498 14.5029s-37.833 22.5 -50.5 38.5s-21.667 34.667 -27 56s-8 43.666 -8 66.999c0 55.333 14.167 100.333 42.5 135s71.166 52 128.499 52s98.666 -15.833 123.999 -47.5s38 -73.834 38 -126.501
c0 -56.667 -14.167 -102.334 -42.5 -137.001s-70.833 -52 -127.5 -52zM192.002 -16.9971l377 638h107l-376 -638h-108zM207.002 326.003c28 0 47.167 10.333 57.5 31s15.5 49 15.5 85c0 32.667 -5 58.834 -15 78.501s-29 29.5 -57 29.5s-47.5 -10.833 -58.5 -32.5
s-16.5 -47.834 -16.5 -78.501c0 -34 5.16699 -61.333 15.5 -82s29.833 -31 58.5 -31zM665.002 -11.9971c-30.667 0 -56.499 4.83594 -77.499 14.5029s-37.833 22.5 -50.5 38.5s-21.667 34.667 -27 56s-8 43.666 -8 66.999c0 55.333 14.167 100.333 42.5 135
s71.166 52 128.499 52s98.5 -15.833 123.5 -47.5s37.5 -73.834 37.5 -126.501c0 -56.667 -14 -102.334 -42 -137.001s-70.333 -52 -127 -52zM668.003 57.0059c28 0 47.333 10.333 58 31s16 49 16 85c0 32.667 -5 58.834 -15 78.501s-29 29.5 -57 29.5
s-47.5 -10.833 -58.5 -32.5s-16.5 -47.834 -16.5 -78.501c0 -34 5.16699 -61.333 15.5 -82s29.5 -31 57.5 -31z" />
    <glyph glyph-name="ampersand" unicode="&#x26;" horiz-adv-x="716" 
d="M542 0l-67.999 81.0049c-28.667 -32 -60.334 -55.5 -95.001 -70.5s-74 -22.5 -118 -22.5c-32.667 0 -62.5 4.5 -89.5 13.5s-50.333 22 -70 39s-34.834 38.167 -45.501 63.5s-16 54.333 -16 87c0 50 13.667 92.833 41 128.5s68 62.167 122 79.5
c-13.333 19.333 -24.333 38.666 -33 57.999s-13 42.333 -13 69c0 47.333 16.167 84.166 48.5 110.499s75.166 39.5 128.499 39.5c16.667 0 33.334 -1.33301 50.001 -4s32.167 -5.83398 46.5 -9.50098s27.5 -7.83398 39.5 -12.501s21.333 -9 28 -13v-144l-83 4l-13 68
c-1.33301 5.33301 -2.66602 9.16602 -3.99902 11.499s-4.66602 4.16602 -9.99902 5.49902c-12.667 4 -28.667 6 -48 6c-25.333 0 -44 -5.66699 -56 -17s-18 -26.666 -18 -45.999c0 -10 1.16699 -19.667 3.5 -29s6.33301 -19 12 -29s13.167 -20.833 22.5 -32.5l34 -40.5
l125 -147c8.66699 28.667 15.5 53.667 20.5 75s8.16699 43 9.5 65h147v-63l-46 -9c-6 -1.33301 -10 -2.83301 -12 -4.5s-3.66699 -5.83398 -5 -12.501c-3.33301 -22 -8.5 -44.667 -15.5 -68s-15.167 -44.666 -24.5 -63.999l67 -80c3.33301 -4 6.66602 -6.83301 9.99902 -8.5
s8 -3.16699 14 -4.5l56 -9v-64h-142zM258.001 327.005c-32 -8 -57.667 -22.667 -77 -44s-29 -50 -29 -86c0 -14.667 2.16699 -29 6.5 -43s11.333 -26.5 21 -37.5s22 -19.833 37 -26.5s33.167 -10 54.5 -10c26 0 51 5.83301 75 17.5s45 30.167 63 55.5z" />
    <glyph glyph-name="quotesingle" unicode="'" horiz-adv-x="210" 
d="M51 447v259h108v-259h-108z" />
    <glyph glyph-name="parenleft" unicode="(" horiz-adv-x="324" 
d="M204 -164c-20 28 -39.167 58.332 -57.5 90.999s-34.666 67.667 -48.999 105s-25.833 76.833 -34.5 118.5s-13 84.834 -13 129.501c0 46 4.5 90 13.5 132s21 82 36 120s32.333 74 52 108s40.167 65.667 61.5 95l87 -52c-42.667 -66 -74.834 -130.667 -96.501 -194
s-32.5 -132.666 -32.5 -207.999c0 -42.667 3.16699 -82 9.5 -118s15 -69.667 26 -101s24 -61.333 39 -90s30.833 -57.334 47.5 -86.001z" />
    <glyph glyph-name="parenright" unicode=")" horiz-adv-x="323" 
d="M116 -164l-87.999 50.001c18 29.333 34.667 58.666 50 87.999s28.5 60 39.5 92s19.667 66 26 102s9.5 75 9.5 117c0 38.667 -2.83301 75 -8.5 109s-14 67 -25 99s-24.167 63.5 -39.5 94.5s-33 62.833 -53 95.5l87 52c20 -27.333 39.667 -57.833 59 -91.5
s36.333 -69.667 51 -108s26.5 -78.5 35.5 -120.5s13.5 -85.667 13.5 -131c0 -46 -4.16699 -89.5 -12.5 -130.5s-19.833 -80.167 -34.5 -117.5s-31.334 -72.5 -50.001 -105.5s-38.667 -64.5 -60 -94.5z" />
    <glyph glyph-name="asterisk" unicode="*" horiz-adv-x="473" 
d="M85 443l42 52l84 63l-104 6l-64 22l28 82l64 -22l85 -58l-27 100v67h87v-67l-27 -100h-33l-9 -30l26 -21l-41 -95l-42 -53zM319 389l-42 53l-40 95l26 20l-10 31l86 58l63 22l28 -82l-64 -22l-103 -7l83 -62l42 -52z" />
    <glyph glyph-name="plus" unicode="+" horiz-adv-x="570" 
d="M235 125v150h-141v95h141v146h98v-146h142v-95h-142v-150h-98z" />
    <glyph glyph-name="comma" unicode="," horiz-adv-x="208" 
d="M53 -100l29 105.999c2 5.33301 0.333008 9 -5 11l-37 13l22 94c17.333 -0.666992 33.333 -1.83398 48 -3.50098s27.334 -5 38.001 -10s19.167 -11.833 25.5 -20.5s9.5 -20.667 9.5 -36c0 -9.33301 -1.83301 -19.166 -5.5 -29.499s-7.83398 -20.166 -12.501 -29.499
l-57 -113z" />
    <glyph glyph-name="hyphen" unicode="-" horiz-adv-x="317" 
d="M23 239v104h271v-104h-271z" />
    <glyph glyph-name="period" unicode="." horiz-adv-x="247" 
d="M197 57c0 -46 -24.333 -69 -73 -69c-49.333 0 -74 23 -74 69s24.667 69 74 69c48.667 0 73 -23 73 -69z" />
    <glyph glyph-name="slash" unicode="/" horiz-adv-x="401" 
d="M8 -92l281 847h104l-280 -847h-105z" />
    <glyph glyph-name="zero" unicode="0" horiz-adv-x="585" 
d="M289 -12c-49.333 0 -89.9971 7.33301 -121.997 22s-57.333 35.167 -76 61.5s-31.667 57.5 -39 93.5s-11 75.333 -11 118c0 43.333 4.33301 83.5 13 120.5s23 69 43 96s46.667 48.333 80 64s74.333 23.5 123 23.5s88.667 -7.33301 120 -22s56.166 -35 74.499 -61
s31.166 -56.667 38.499 -92s11 -73.666 11 -114.999c0 -43.333 -4 -83.833 -12 -121.5s-21.833 -70.334 -41.5 -98.001s-45.834 -49.5 -78.501 -65.5s-73.667 -24 -123 -24zM293.003 76c49.333 0 83.332 18.335 101.999 55.002s28 90 28 160
c0 68.667 -8.66699 120.5 -26 155.5s-50.666 52.5 -99.999 52.5c-50 0 -85 -17.833 -105 -53.5s-30 -89.834 -30 -162.501c0 -66.667 9.33301 -117.834 28 -153.501s53 -53.5 103 -53.5z" />
    <glyph glyph-name="one" unicode="1" horiz-adv-x="387" 
d="M35 0v64.999l95 6c7.33301 0.666992 11.833 2.33398 13.5 5.00098s2.5 7.66699 2.5 15v375c0 7.33301 -1 12.333 -3 15s-5.66699 4.66699 -11 6l-92 18l8 67h213v-481c0 -8 0.833008 -13.167 2.5 -15.5s6.16699 -3.83301 13.5 -4.5l85 -7v-64h-327z" />
    <glyph glyph-name="two" unicode="2" horiz-adv-x="497" 
d="M30 0l0.00488281 75.001l134 131l65.5 64c19.667 18.667 36.167 36.167 49.5 52.5s23.666 32.166 30.999 47.499s11 31.333 11 48c0 25.333 -7 45.5 -21 60.5s-38.667 22.5 -74 22.5c-16.667 0 -31.167 -1.33301 -43.5 -4s-22.5 -7.66699 -30.5 -15s-14 -17.5 -18 -30.5
s-6 -29.5 -6 -49.5l-105 11c0 37.333 6.33301 67.5 19 90.5s29.167 40.667 49.5 53s43 20.5 68 24.5s49.833 6 74.5 6c37.333 0 68.833 -3.83301 94.5 -11.5s46.667 -18.5 63 -32.5s28.166 -30.833 35.499 -50.5s11 -41.167 11 -64.5c0 -25.333 -4.5 -48.666 -13.5 -69.999
s-20.833 -41.5 -35.5 -60.5s-31.334 -37.5 -50.001 -55.5l-56 -55l-113 -108h187c5.33301 0 8.66602 0.666992 9.99902 2s2.66602 4.66602 3.99902 9.99902l14 82h82v-173h-437z" />
    <glyph glyph-name="three" unicode="3" horiz-adv-x="501" 
d="M329 263c87.333 -14 131.002 -65.3359 131.002 -154.003c0 -62 -20.333 -109.5 -61 -142.5s-96.667 -49.5 -168 -49.5c-48.667 0 -92.834 8 -132.501 24s-71.167 37.333 -94.5 64l65 71c20 -20.667 42 -37.167 66 -49.5s54 -18.5 90 -18.5c16 0 31.167 1.66699 45.5 5
s27 9 38 17s19.667 18.833 26 32.5s9.5 30.834 9.5 51.501c0 36 -10.667 62.167 -32 78.5s-51.333 24.5 -90 24.5c-12 0 -23.5 -0.5 -34.5 -1.5s-23.5 -2.83301 -37.5 -5.5v82l55 5c41.333 4 72.5 16.333 93.5 37s31.5 47.334 31.5 80.001
c0 25.333 -6.83301 46.166 -20.5 62.499s-38.167 24.5 -73.5 24.5c-32.667 0 -57.5 -6.5 -74.5 -19.5s-25.5 -39.5 -25.5 -79.5l-106 11c0 36.667 6.33301 66.334 19 89.001s29.167 40.334 49.5 53.001s43.166 21.167 68.499 25.5s50.333 6.5 75 6.5
c72.667 0 124.5 -14.667 155.5 -44s46.5 -68.666 46.5 -117.999c0 -40.667 -10.667 -74.334 -32 -101.001s-49 -45.667 -83 -57v-4z" />
    <glyph glyph-name="four" unicode="4" horiz-adv-x="524" 
d="M318 -67v141h-292v79l220 431l93 -46l-196 -375h175v188l107 10v-198h87v-89h-88v-141h-106z" />
    <glyph glyph-name="five" unicode="5" horiz-adv-x="523" 
d="M177 476l-13.999 -170.998c14.667 9.33301 32.334 17.833 53.001 25.5s44.667 11.5 72 11.5c59.333 0 106.5 -17.333 141.5 -52s52.5 -85.334 52.5 -152.001c0 -30.667 -5 -59.334 -15 -86.001s-25 -50 -45 -70s-44.667 -35.833 -74 -47.5s-63 -17.5 -101 -17.5
c-50.667 0 -96.5 7.83301 -137.5 23.5s-74.167 37.167 -99.5 64.5l66 72c20 -20.667 43.333 -37.167 70 -49.5s58 -18.5 94 -18.5c16 0 31.667 2.5 47 7.5s28.833 12.5 40.5 22.5s21 22.833 28 38.5s10.5 34.5 10.5 56.5c0 24 -3.5 43.5 -10.5 58.5s-16 27 -27 36
s-23 15.167 -36 18.5s-25.5 5 -37.5 5c-25.333 0 -47 -4.5 -65 -13.5s-33.667 -19.5 -47 -31.5l-80 35l22 330h263c5.33301 0 8.66602 0.833008 9.99902 2.5s2.66602 4.5 3.99902 8.5l14 55l69 5v-167h-268z" />
    <glyph glyph-name="six" unicode="6" horiz-adv-x="546" 
d="M389 482c0 33.333 -6.49902 55.665 -19.499 66.998s-34.167 17 -63.5 17c-28 0 -51 -6.66699 -69 -20s-32.333 -30.5 -43 -51.5s-18 -44.167 -22 -69.5s-6.33301 -50.333 -7 -75c19.333 12.667 41.833 24 67.5 34s55.167 15 88.5 15
c60.667 0 107.167 -16.833 139.5 -50.5s48.5 -80.5 48.5 -140.5c0 -36 -5.5 -67.667 -16.5 -95s-26.667 -50.333 -47 -69s-44.666 -32.667 -72.999 -42s-59.833 -14 -94.5 -14c-46.667 0 -84.834 8.83301 -114.501 26.5s-52.834 41.5 -69.501 71.5
s-28.167 64.833 -34.5 104.5s-9.5 81.834 -9.5 126.501c0 34 3.5 70.5 10.5 109.5s20.167 75.167 39.5 108.5s45.833 61 79.5 83s77.167 33 130.5 33c21.333 0 43 -2 65 -6s42 -11.667 60 -23s32.833 -27.166 44.5 -47.499s17.5 -46.833 17.5 -79.5zM168.001 263.999
c0.666992 -18.667 2.33398 -39.166 5.00098 -61.499s8.16699 -42.833 16.5 -61.5s20.166 -34.334 35.499 -47.001s36 -19 62 -19c36 0 62.333 11.667 79 35s25 54 25 92c0 38.667 -7 67 -21 85s-38 27 -72 27c-12 0 -24.333 -1.66699 -37 -5s-24.667 -7.5 -36 -12.5
s-22 -10.333 -32 -16s-18.333 -11.167 -25 -16.5z" />
    <glyph glyph-name="seven" unicode="7" horiz-adv-x="505" 
d="M150 -67c6 68 17.3291 130.331 33.9961 186.998s35.834 107.834 57.501 153.501s44.334 85.334 68.001 119.001s45.167 61.5 64.5 83.5h-223c-5.33301 0 -8.66602 -0.833008 -9.99902 -2.5s-2.66602 -4.5 -3.99902 -8.5l-17 -88l-80 -6v201h459v-84
c-28.667 -30 -56.5 -66.333 -83.5 -109s-50.833 -88.5 -71.5 -137.5s-37.5 -100 -50.5 -153s-20.167 -104.833 -21.5 -155.5h-122z" />
    <glyph glyph-name="eight" unicode="8" horiz-adv-x="514" 
d="M373 337c15.333 -8.66699 29.832 -18.3301 43.499 -28.9971s25.5 -22.667 35.5 -36s18 -28.333 24 -45s9 -35.334 9 -56.001c0 -30.667 -6 -57.5 -18 -80.5s-28.333 -42 -49 -57s-45.167 -26.333 -73.5 -34s-59.166 -11.5 -92.499 -11.5c-70 0 -123.667 14 -161 42
s-56 68.667 -56 122c0 21.333 2.83301 40.833 8.5 58.5s13.5 34 23.5 49s21.333 28.833 34 41.5s26 24.667 40 36c-21.333 14 -40.333 31.833 -57 53.5s-25 51.167 -25 88.5c0 28 5.5 52.833 16.5 74.5s25.833 39.667 44.5 54s40.5 25.166 65.5 32.499s51.833 11 80.5 11
c66 0 115.167 -14 147.5 -42s48.5 -65 48.5 -111c0 -33.333 -9 -63.333 -27 -90s-38.667 -50.334 -62 -71.001zM222.999 294.004c-24.667 -21.333 -44.333 -42.5 -59 -63.5s-22 -44.167 -22 -69.5c0 -28 9.66699 -50.167 29 -66.5s48 -24.5 86 -24.5
c35.333 0 62 8.83301 80 26.5s27 39.5 27 65.5c0 17.333 -4 32.5 -12 45.5s-18.667 24.5 -32 34.5s-28.5 19 -45.5 27zM288 377.004c20 18 36.334 36.832 49.001 56.499s19 40.5 19 62.5c0 28 -8.83301 47.167 -26.5 57.5s-39.834 15.5 -66.501 15.5
c-28 0 -49.833 -6.66699 -65.5 -20s-23.5 -31.666 -23.5 -54.999c0 -14.667 3 -27.667 9 -39s14 -21.5 24 -30.5s22 -17.167 36 -24.5z" />
    <glyph glyph-name="nine" unicode="9" horiz-adv-x="560" 
d="M113 61c19.333 -15.333 41.335 -28.167 66.002 -38.5s50 -15.5 76 -15.5c29.333 0 53 6.33301 71 19s31.667 29 41 49s15.666 42.167 18.999 66.5s5.33301 48.166 6 71.499c-17.333 -13.333 -38.666 -25.5 -63.999 -36.5s-56 -16.5 -92 -16.5
c-58.667 0 -104.667 17.5 -138 52.5s-50 85.167 -50 150.5c0 70.667 19.667 125.667 59 165s95 59 167 59c47.333 0 86.166 -8.66699 116.499 -26s54.166 -40.833 71.499 -70.5s29.333 -64.167 36 -103.5s10 -81 10 -125c0 -39.333 -3 -79.333 -9 -120s-18 -77.667 -36 -111
s-43.333 -60.666 -76 -81.999s-75.667 -32 -129 -32c-36 0 -72 5.66699 -108 17s-65.667 28.333 -89 51zM390.002 300.999c-0.666992 22 -2.5 44.667 -5.5 68s-8.5 44.833 -16.5 64.5s-19.833 35.834 -35.5 48.501s-36.5 19 -62.5 19c-36.667 0 -63.167 -11.833 -79.5 -35.5
s-24.5 -54.167 -24.5 -91.5c0 -41.333 7.33301 -72.333 22 -93s39.667 -31 75 -31c26.667 0 51 5.66699 73 17s40 22.666 54 33.999z" />
    <glyph glyph-name="colon" unicode=":" horiz-adv-x="247" 
d="M197 57c0 -46 -24.333 -69 -73 -69c-49.333 0 -74 23 -74 69s24.667 69 74 69c48.667 0 73 -23 73 -69zM197 451c0 -46 -24.333 -69 -73 -69c-49.333 0 -74 23 -74 69s24.667 69 74 69c48.667 0 73 -23 73 -69z" />
    <glyph glyph-name="semicolon" unicode=";" horiz-adv-x="208" 
d="M53 -100l29 105.999c2 5.33301 0.333008 9 -5 11l-37 13l22 94c17.333 -0.666992 33.333 -1.83398 48 -3.50098s27.334 -5 38.001 -10s19.167 -11.833 25.5 -20.5s9.5 -20.667 9.5 -36c0 -9.33301 -1.83301 -19.166 -5.5 -29.499s-7.83398 -20.166 -12.501 -29.499
l-57 -113zM193 450.999c0 -46 -24.333 -69 -73 -69c-49.333 0 -74 23 -74 69s24.667 69 74 69c48.667 0 73 -23 73 -69z" />
    <glyph glyph-name="less" unicode="&#x3c;" horiz-adv-x="570" 
d="M78 232v116l378 149l29 -92l-306 -114l309 -112l-28 -89z" />
    <glyph glyph-name="equal" unicode="=" horiz-adv-x="570" 
d="M96 147v97h378v-97h-378zM96 319v97h378v-97h-378z" />
    <glyph glyph-name="greater" unicode="&#x3e;" horiz-adv-x="570" 
d="M105 90l-28 89l309 112l-306 114l30 92l378 -149v-116z" />
    <glyph glyph-name="question" unicode="?" horiz-adv-x="493" 
d="M137 190l-0.000976562 178.996c24.667 2 49 5.83301 73 11.5s45.5 14.334 64.5 26.001s34.333 27.167 46 46.5s17.5 44 17.5 74c0 32.667 -9.83301 57.834 -29.5 75.501s-44.834 26.5 -75.501 26.5c-19.333 0 -35.333 -1.33301 -48 -4s-22.667 -6 -30 -10
c-4 -2 -6.66699 -4.16699 -8 -6.5s-2.66602 -7.16602 -3.99902 -14.499l-10 -60l-91 -7v157c23.333 9.33301 52 18.333 86 27s70.667 13 110 13c32.667 0 63 -3.16699 91 -9.5s52.333 -17 73 -32s36.834 -35.333 48.501 -61s17.5 -57.5 17.5 -95.5
c0 -33.333 -5.33301 -63.166 -16 -89.499s-25.5 -49 -44.5 -68s-41.667 -34.5 -68 -46.5s-55.5 -20.333 -87.5 -25v-107h-115zM268.999 56.9961c0 -46 -24.667 -69 -74 -69s-74 23 -74 69s24.667 69 74 69s74 -23 74 -69z" />
    <glyph glyph-name="at" unicode="@" horiz-adv-x="834" 
d="M613 -146c-17.333 -8 -42.5 -15.8379 -75.5 -23.5049s-74.5 -11.5 -124.5 -11.5c-53.333 0 -102 7.33301 -146 22s-81.833 36.834 -113.5 66.501s-56.167 66.667 -73.5 111s-26 95.833 -26 154.5c0 59.333 9.5 113.166 28.5 161.499s45.5 89.833 79.5 124.5
s74.833 61.5 122.5 80.5s100.167 28.5 157.5 28.5c50.667 0 97 -7 139 -21s78 -34.5 108 -61.5s53.333 -60.167 70 -99.5s25 -84.333 25 -135c0 -47.333 -5 -87.666 -15 -120.999s-23.833 -60.5 -41.5 -81.5s-38.5 -36.333 -62.5 -46s-50.333 -14.5 -79 -14.5
c-31.333 0 -55.5 6.5 -72.5 19.5s-28.167 30.5 -33.5 52.5c-19.333 -18.667 -39.5 -35.334 -60.5 -50.001s-44.167 -22 -69.5 -22c-34.667 0 -61.667 11.667 -81 35s-29 58 -29 104c0 36 5 70.333 15 103s24.167 61.334 42.5 86.001s41 44.334 68 59.001s57.5 22 91.5 22
c26 0 50.833 -3.16699 74.5 -9.5s44.167 -13.833 61.5 -22.5l-26 -160c-6.66699 -34 -10.334 -62.333 -11.001 -85c-1.33301 -13.333 -1.16602 -25 0.500977 -35s8.16699 -16.333 19.5 -19c10 -5.33301 23.667 -6 41 -2c21.333 5.33301 40.333 22.5 57 51.5
s25 70.5 25 124.5c0 80.667 -21.167 142.834 -63.5 186.501s-108.166 65.5 -197.499 65.5c-48.667 0 -91.5 -8.5 -128.5 -25.5s-68 -39.833 -93 -68.5s-44 -62.167 -57 -100.5s-19.5 -79.166 -19.5 -122.499c0 -48 6.66699 -89.667 20 -125s32.166 -64.666 56.499 -87.999
s54 -40.833 89 -52.5s74.167 -17.5 117.5 -17.5c30 0 59.333 2.83301 88 8.5s56 13.167 82 22.5zM504 317.995c-7.33301 4.66699 -15.832 8.16602 -25.499 10.499s-19.5 3.5 -29.5 3.5c-16.667 0 -32.334 -4.83301 -47.001 -14.5s-27.667 -23 -39 -40
s-20.333 -37.167 -27 -60.5s-10 -48.666 -10 -75.999c0 -25.333 3.33301 -44.333 10 -57s18 -19 34 -19c16.667 0 34.5 6.5 53.5 19.5s35.833 27.833 50.5 44.5z" />
    <glyph glyph-name="A" unicode="A" horiz-adv-x="732" 
d="M453 0v64l82 9l-46 135h-267l-46 -135l80 -9v-64h-250v63l43 11c6 1.33301 11.167 3.33301 15.5 6s7.5 7 9.5 13l220 631h141l221 -633c2 -6 5 -10 9 -12s9 -3.66699 15 -5l46 -11v-63h-273zM358 613h-3l-107 -317h216z" />
    <glyph glyph-name="B" unicode="B" horiz-adv-x="671" 
d="M52 0v64.0039l63 7c7.33301 1.33301 11.833 3.16602 13.5 5.49902s2.5 7.16602 2.5 14.499v541c0 7.33301 -0.833008 12.333 -2.5 15s-6.16699 4.33398 -13.5 5.00098l-63 7v65h313c42.667 0 78.167 -4.5 106.5 -13.5s50.833 -21.5 67.5 -37.5
s28.334 -34.833 35.001 -56.5s10 -44.834 10 -69.501c0 -24 -3.5 -45.167 -10.5 -63.5s-16.167 -34.5 -27.5 -48.5s-24.333 -25.5 -39 -34.5s-29.667 -16.167 -45 -21.5v-3c57.333 -6.66699 99.666 -25.167 126.999 -55.5s41 -70.5 41 -120.5
c0 -36.667 -6.66699 -67.834 -20 -93.501s-32 -46.334 -56 -62.001s-52.5 -27 -85.5 -34s-69.167 -10.5 -108.5 -10.5h-308zM343 87.0039c24 0 46.167 1.5 66.5 4.5s37.833 8.83301 52.5 17.5s26.167 20.834 34.5 36.501s12.5 36.167 12.5 61.5
c0 23.333 -3.83301 42.666 -11.5 57.999s-18.167 27.5 -31.5 36.5s-29 15.5 -47 19.5s-37.333 6 -58 6h-114v-240h96zM316 413.004c19.333 0 38.168 1.5 56.501 4.5s34.666 8.83301 48.999 17.5s26 20.5 35 35.5s13.5 34.833 13.5 59.5c0 22 -3.16699 40 -9.5 54
s-15.5 24.833 -27.5 32.5s-26.5 13 -43.5 16s-36.5 4.5 -58.5 4.5h-84v-224h69z" />
    <glyph glyph-name="C" unicode="C" horiz-adv-x="681" 
d="M631 42c-28 -18 -64.1699 -31.5 -108.503 -40.5s-89.5 -13.5 -135.5 -13.5c-61.333 0 -113.833 9 -157.5 27s-79.5 43.5 -107.5 76.5s-48.5 72.833 -61.5 119.5s-19.5 98.334 -19.5 155.001c0 53.333 7.5 102.666 22.5 147.999s37.833 84.5 68.5 117.5
s68.834 58.833 114.501 77.5s98.834 28 159.501 28c43.333 0 84.833 -4.83301 124.5 -14.5s72.5 -23.167 98.5 -40.5v-175l-85 6l-17 97c-0.666992 8.66699 -5.33398 14.334 -14.001 17.001c-15.333 5.33301 -32.5 9.66602 -51.5 12.999s-39.167 5 -60.5 5
c-72.667 0 -130.5 -23.667 -173.5 -71s-64.5 -116.666 -64.5 -207.999c0 -96 20.5 -167.833 61.5 -215.5s97.5 -71.5 169.5 -71.5c20.667 0 42.334 1.16699 65.001 3.5s42.334 6.83301 59.001 13.5c5.33301 1.33301 9 3.16602 11 5.49902s3.66699 6.83301 5 13.5l16 92h81
v-165z" />
    <glyph glyph-name="D" unicode="D" horiz-adv-x="761" 
d="M52 0v63.999l63 7c7.33301 1.33301 11.833 3.16602 13.5 5.49902s2.5 7.16602 2.5 14.499v541c0 7.33301 -0.833008 12.333 -2.5 15s-6.16699 4.33398 -13.5 5.00098l-63 7v65h309c62.667 0 116.667 -8.16699 162 -24.5s82.5 -39.666 111.5 -69.999
s50.5 -67.166 64.5 -110.499s21 -92 21 -146c0 -55.333 -7.5 -106 -22.5 -152s-37.833 -85.333 -68.5 -118s-69.667 -58 -117 -76s-103.333 -27 -168 -27h-292zM337 86.999c46 0 85.667 6.33398 119 19.001s60.666 31 81.999 55s37 53 47 87s15 72 15 114
c0 52 -5.5 95.5 -16.5 130.5s-27.167 63.167 -48.5 84.5s-48.166 36.666 -80.499 45.999s-69.5 14 -111.5 14h-95v-550h89z" />
    <glyph glyph-name="E" unicode="E" horiz-adv-x="633" 
d="M52 0v64.001l63 7c7.33301 1.33301 11.833 3.16602 13.5 5.49902s2.5 7.16602 2.5 14.499v541c0 7.33301 -0.833008 12.333 -2.5 15s-6.16699 4.33398 -13.5 5.00098l-63 7v65h514v-180l-85 4l-14 77c-2 8.66699 -7.66699 13 -17 13h-202v-230h254v-87h-254v-236h224
c5.33301 0 9 0.5 11 1.5s3.66699 4.16699 5 9.5l16 88h84v-184h-536z" />
    <glyph glyph-name="F" unicode="F" horiz-adv-x="605" 
d="M52 0v64.001l63 7c7.33301 1.33301 11.833 3.16602 13.5 5.49902s2.5 7.16602 2.5 14.499v541c0 7.33301 -0.833008 12.333 -2.5 15s-6.16699 4.33398 -13.5 5.00098l-63 7v65h510v-180l-85 4l-14 77c-2 8.66699 -7.66699 13 -17 13h-198v-228h250v-87h-250v-231
c0 -8 0.833008 -13 2.5 -15s6.16699 -3.66699 13.5 -5l147 -8v-64h-359z" />
    <glyph glyph-name="G" unicode="G" horiz-adv-x="732" 
d="M673 273c-10.667 -0.666992 -16.0039 -5.33008 -16.0039 -13.9971v-227c-34 -16.667 -73.5 -28.167 -118.5 -34.5s-87.833 -9.5 -128.5 -9.5c-68 0 -125.5 9.5 -172.5 28.5s-85 45.333 -114 79s-50 73.667 -63 120s-19.5 96.5 -19.5 150.5c0 53.333 7.5 102.5 22.5 147.5
s37.667 84.167 68 117.5s68.5 59.333 114.5 78s99.667 28 161 28c40 0 80.333 -4.66699 121 -14s75 -23.333 103 -42v-171l-86 7l-16 91c-1.33301 5.33301 -2.66602 9.5 -3.99902 12.5s-4.66602 5.16699 -9.99902 6.5c-15.333 5.33301 -33.333 9.66602 -54 12.999
s-41 5 -61 5c-73.333 0 -131.166 -24.333 -173.499 -73s-63.5 -117 -63.5 -205c0 -92.667 21.5 -163.834 64.5 -213.501s105.833 -74.5 188.5 -74.5c18 0 37.333 1.16699 58 3.5s38.334 5.16602 53.001 8.49902c4.66699 1.33301 8.16699 3 10.5 5s3.5 6 3.5 12v159h-126
l13 75h287v-65z" />
    <glyph glyph-name="H" unicode="H" horiz-adv-x="812" 
d="M485 0v64.002l63 7c7.33301 1.33301 11.833 3.16602 13.5 5.49902s2.5 7.16602 2.5 14.499v238h-316v-237c0 -8 0.833008 -13 2.5 -15s6.16699 -3.66699 13.5 -5l67 -8v-64h-279v64l63 7c7.33301 1.33301 11.833 3.16602 13.5 5.49902s2.5 7.16602 2.5 14.499v542
c0 7.33301 -0.833008 12.333 -2.5 15s-6.16699 4.33398 -13.5 5.00098l-63 7v64h279v-64l-67 -8c-7.33301 -1.33301 -11.833 -3 -13.5 -5s-2.5 -6.66699 -2.5 -14v-216h316v216c0 7.33301 -0.833008 12.333 -2.5 15s-6.16699 4.33398 -13.5 5.00098l-63 7v64h275v-64l-63 -8
c-7.33301 -1.33301 -11.833 -3 -13.5 -5s-2.5 -6.66699 -2.5 -14v-541c0 -8 0.833008 -13 2.5 -15s6.16699 -3.66699 13.5 -5l63 -8v-64h-275z" />
    <glyph glyph-name="I" unicode="I" horiz-adv-x="397" 
d="M51 0v63.998l73 7c7.33301 0.666992 11.833 2.33398 13.5 5.00098s2.5 7.66699 2.5 15v542c0 7.33301 -0.833008 12.333 -2.5 15s-6.16699 4.33398 -13.5 5.00098l-73 7v64h299v-64l-77 -8c-7.33301 -1.33301 -11.833 -3 -13.5 -5s-2.5 -6.66699 -2.5 -14v-541
c0 -8 0.833008 -13 2.5 -15s6.16699 -3.66699 13.5 -5l77 -8v-64h-299z" />
    <glyph glyph-name="J" unicode="J" horiz-adv-x="509" 
d="M277 634c0 6.66699 -1.00098 11.168 -3.00098 13.501s-6.33301 3.83301 -13 4.5l-87 8v64h303v-64l-67 -8c-7.33301 -1.33301 -11.833 -3 -13.5 -5s-2.5 -6.66699 -2.5 -14v-480c0 -56.667 -13.5 -98.334 -40.5 -125.001s-71.5 -40 -133.5 -40
c-19.333 0 -38.166 1.16699 -56.499 3.5s-35.333 5.33301 -51 9s-29.167 7.5 -40.5 11.5s-20 8 -26 12v155l85 -6l11 -70c0.666992 -6.66699 4.33398 -11.334 11.001 -14.001c4 -1.33301 11.167 -3.16602 21.5 -5.49902s22.166 -3.5 35.499 -3.5c26.667 0 44.5 6 53.5 18
s13.5 31.667 13.5 59v477z" />
    <glyph glyph-name="K" unicode="K" horiz-adv-x="742" 
d="M438 0l-0.00195312 64.002l62 10l-178 247l-74 -83v-146c0 -8 0.833008 -13 2.5 -15s6.16699 -3.66699 13.5 -5l67 -8v-64h-279v64l63 7c7.33301 1.33301 11.833 3.16602 13.5 5.49902s2.5 7.16602 2.5 14.499v542c0 7.33301 -0.833008 12.333 -2.5 15
s-6.16699 4.33398 -13.5 5.00098l-63 7v64h279v-64l-67 -8c-7.33301 -1.33301 -11.833 -3 -13.5 -5s-2.5 -6.66699 -2.5 -14v-271l261 289l-62 8v65h240v-64l-47 -9c-9.33301 -1.33301 -15.666 -3 -18.999 -5s-7.33301 -5.66699 -12 -11l-203 -224l227 -317
c4 -6.66699 7.83301 -11.334 11.5 -14.001s9.83398 -4.66699 18.501 -6l61 -10v-64h-286z" />
    <glyph glyph-name="L" unicode="L" horiz-adv-x="621" 
d="M52 0v64l63 7c7.33301 1.33301 11.833 3.16602 13.5 5.49902s2.5 7.16602 2.5 14.499v541c0 7.33301 -0.833008 12.333 -2.5 15s-6.16699 4.33398 -13.5 5.00098l-63 7v65h295v-65l-83 -8c-7.33301 -0.666992 -11.833 -2.16699 -13.5 -4.5s-2.5 -7.16602 -2.5 -14.499
v-547h224c5.33301 0 9 0.5 11 1.5s3.66699 4.16699 5 9.5l16 95h84v-191h-536z" />
    <glyph glyph-name="M" unicode="M" horiz-adv-x="956" 
d="M617 0v63.999l83 7c7.33301 0.666992 11.833 2.33398 13.5 5.00098s2.5 7.66699 2.5 15v455h-3l-174 -386h-130l-175 391h-2v-459c0 -8 0.833008 -13.167 2.5 -15.5s6.16699 -3.83301 13.5 -4.5l86 -8v-64h-282v64l63 7c7.33301 0.666992 11.833 2.33398 13.5 5.00098
s2.5 7.66699 2.5 15v541c0 7.33301 -0.833008 12.333 -2.5 15s-6.16699 4.33398 -13.5 5.00098l-63 7v65h225l205 -468h3l208 468h215v-64l-67 -8c-7.33301 -1.33301 -11.833 -3 -13.5 -5s-2.5 -6.66699 -2.5 -14v-542c0 -6.66699 1 -11.334 3 -14.001
s6.33301 -4.33398 13 -5.00098l67 -8v-64h-291z" />
    <glyph glyph-name="N" unicode="N" horiz-adv-x="829" 
d="M573 0l-347 572v-480c0 -8 0.833008 -13 2.5 -15s6.16699 -3.66699 13.5 -5l67 -8v-64h-257v64l63 7c7.33301 1.33301 11.833 3.16602 13.5 5.49902s2.5 7.16602 2.5 14.499v542c0 7.33301 -0.833008 12.333 -2.5 15s-6.16699 4.33398 -13.5 5.00098l-63 7v65h217
l339 -570v478c0 7.33301 -0.833008 12.333 -2.5 15s-6.16699 4.33398 -13.5 5.00098l-63 7v64h257v-64l-67 -8c-7.33301 -1.33301 -11.833 -3 -13.5 -5s-2.5 -6.66699 -2.5 -14v-633h-130z" />
    <glyph glyph-name="O" unicode="O" horiz-adv-x="768" 
d="M380 -12c-58.667 0 -109.331 9.33691 -151.998 28.0039s-77.834 44.5 -105.501 77.5s-48 72.667 -61 119s-19.5 96.833 -19.5 151.5c0 53.333 7.5 102.666 22.5 147.999s37.167 84.666 66.5 117.999s66 59.5 110 78.5s95 28.5 153 28.5s108 -9.5 150 -28.5
s76.5 -44.833 103.5 -77.5s47 -71 60 -115s19.5 -91 19.5 -141c0 -58.667 -7.16699 -111.834 -21.5 -159.501s-35.833 -88.334 -64.5 -122.001s-64.834 -59.667 -108.501 -78s-94.5 -27.5 -152.5 -27.5zM384.003 85.0039c33.333 0 63.667 5.33105 91 15.998
s50.666 27.334 69.999 50.001s34.5 51.834 45.5 87.501s16.5 78.167 16.5 127.5c0 92.667 -19 161.5 -57 206.5s-90.333 67.5 -157 67.5c-34 0 -65 -5.66699 -93 -17s-52.167 -28.5 -72.5 -51.5s-36.166 -51.667 -47.499 -86s-17 -74.5 -17 -120.5
c0 -96.667 20.167 -167.5 60.5 -212.5s93.833 -67.5 160.5 -67.5z" />
    <glyph glyph-name="P" unicode="P" horiz-adv-x="654" 
d="M52 0v64.001l63 7c7.33301 1.33301 11.833 3.16602 13.5 5.49902s2.5 7.16602 2.5 14.499v541c0 7.33301 -0.833008 12.333 -2.5 15s-6.16699 4.33398 -13.5 5.00098l-63 7v65h321c46 0 84.5 -5.66699 115.5 -17s55.833 -26.833 74.5 -46.5
s31.834 -42.334 39.501 -68.001s11.5 -52.834 11.5 -81.501c0 -43.333 -6.33301 -80.166 -19 -110.499s-30.834 -55.166 -54.501 -74.499s-52.5 -33.333 -86.5 -42s-72 -13 -114 -13h-93v-179c0 -8 0.833008 -13 2.5 -15s6.16699 -3.66699 13.5 -5l143 -8v-64h-354z
M326 357.001c22 0 43 1.66797 63 5.00098s37.667 10.166 53 20.499s27.666 25.333 36.999 45s14 45.5 14 77.5c0 25.333 -3.5 46.5 -10.5 63.5s-17.167 30.5 -30.5 40.5s-29.666 17.167 -48.999 21.5s-41.333 6.5 -66 6.5h-90v-280h79z" />
    <glyph glyph-name="Q" unicode="Q" horiz-adv-x="768" 
d="M591 -167c-15.333 -8 -33.332 -14.8301 -53.999 -20.4971s-41.667 -8.5 -63 -8.5c-54.667 0 -92.5 12.333 -113.5 37s-31.5 57.667 -31.5 99c0 8.66699 0.333008 17.5 1 26.5s1.66699 17.5 3 25.5c-50.667 4.66699 -94.5 17 -131.5 37s-67.5 46.167 -91.5 78.5
s-41.667 70.333 -53 114s-17 91.167 -17 142.5c0 53.333 7.5 102.666 22.5 147.999s37.167 84.666 66.5 117.999s66 59.5 110 78.5s95 28.5 153 28.5s107.833 -9.5 149.5 -28.5s76.167 -44.833 103.5 -77.5s47.5 -71 60.5 -115s19.5 -91 19.5 -141
c0 -53.333 -6 -102 -18 -146s-29.833 -82.5 -53.5 -115.5s-53.334 -59.833 -89.001 -80.5s-77.167 -34 -124.5 -40c-2 -13.333 -3 -26.333 -3 -39c0 -20.667 4.5 -36.334 13.5 -47.001s25.167 -16 48.5 -16c12 0 24 1.33301 36 4s23 6 33 10zM383.001 84.0029
c33.333 0 63.501 5.33301 90.501 16s50.167 27.5 69.5 50.5s34.333 52.333 45 88s16 78.167 16 127.5c0 92.667 -19 161.5 -57 206.5s-90.333 67.5 -157 67.5c-33.333 0 -64 -5.66699 -92 -17s-52.167 -28.5 -72.5 -51.5s-36.166 -51.667 -47.499 -86s-17 -74.5 -17 -120.5
c0 -48 5.33301 -89.667 16 -125s25.667 -64.5 45 -87.5s42.666 -40.167 69.999 -51.5s57.666 -17 90.999 -17z" />
    <glyph glyph-name="R" unicode="R" horiz-adv-x="679" 
d="M403 0l0.000976562 62.998l66 9l-75 189c-6 15.333 -13.5 26.333 -22.5 33s-22.167 10 -39.5 10h-85v-212c0 -8 0.833008 -13 2.5 -15s6.16699 -3.66699 13.5 -5l64 -8v-64h-275v64l63 7c7.33301 1.33301 11.833 3.16602 13.5 5.49902s2.5 7.16602 2.5 14.499v541
c0 7.33301 -0.833008 12.333 -2.5 15s-6.16699 4.33398 -13.5 5.00098l-63 7v65h320c45.333 0 82.666 -5.66699 111.999 -17s52.5 -26.166 69.5 -44.499s29 -39.333 36 -63s10.5 -48.167 10.5 -73.5c0 -52.667 -12.667 -94.167 -38 -124.5s-57.666 -53.166 -96.999 -68.499
c15.333 -7.33301 26.833 -17.666 34.5 -30.999s16.167 -32 25.5 -56l60 -153c4 -7.33301 8.16699 -12 12.5 -14s10.166 -3.66699 17.499 -5l61 -10v-64h-273zM321.001 388.998c21.333 0 41.501 1.83203 60.501 5.49902s35.833 10.334 50.5 20.001s26.167 23 34.5 40
s12.5 39.167 12.5 66.5c0 46 -13.833 76.833 -41.5 92.5s-68.834 23.5 -123.501 23.5h-67v-248h74z" />
    <glyph glyph-name="S" unicode="S" horiz-adv-x="588" 
d="M432 528l-14.001 82.998c-2 10 -5.33301 16.333 -10 19c-6 3.33301 -16.5 6.83301 -31.5 10.5s-33.833 5.5 -56.5 5.5c-46 0 -80.333 -9.33301 -103 -28s-34 -44 -34 -76c0 -18.667 4 -34.5 12 -47.5s18.833 -24 32.5 -33s29.5 -16.667 47.5 -23s36.667 -12.5 56 -18.5
c24.667 -7.33301 49.334 -15.666 74.001 -24.999s47 -21.666 67 -36.999s36.333 -35.166 49 -59.499s19 -55.166 19 -92.499c0 -40 -7.16699 -73.833 -21.5 -101.5s-33.833 -50.167 -58.5 -67.5s-53.5 -29.833 -86.5 -37.5s-67.833 -11.5 -104.5 -11.5
c-22.667 0 -45.167 1.33301 -67.5 4s-43.333 5.83398 -63 9.50098s-37 7.83398 -52 12.501s-26.833 9 -35.5 13v176h85l20 -90c1.33301 -6.66699 2.83301 -11.167 4.5 -13.5s5.83398 -4.5 12.501 -6.5c7.33301 -2 19.833 -5 37.5 -9s39.167 -6 64.5 -6
c47.333 0 84 9.16699 110 27.5s39 46.833 39 85.5c0 20 -4 36.667 -12 50s-18.667 24.666 -32 33.999s-28.833 17.166 -46.5 23.499s-36.167 12.166 -55.5 17.499c-24.667 7.33301 -49.5 15.166 -74.5 23.499s-47.667 20 -68 35s-36.833 34.333 -49.5 58s-19 54.5 -19 92.5
c0 36.667 6.66699 68.334 20 95.001s31.5 48.667 54.5 66s50.333 30.166 82 38.499s65.5 12.5 101.5 12.5c42.667 0 80.667 -4.33301 114 -13s59.666 -16.667 78.999 -24v-180z" />
    <glyph glyph-name="T" unicode="T" horiz-adv-x="667" 
d="M156 0v64.998l103 7c7.33301 0.666992 11.833 2.33398 13.5 5.00098s2.5 7.66699 2.5 15v546h-134c-5.33301 0 -9 -0.5 -11 -1.5s-3.66699 -4.16699 -5 -9.5l-16 -87h-84v184h617v-184h-83l-16 87c-1.33301 5.33301 -3 8.5 -5 9.5s-5.66699 1.5 -11 1.5h-135v-546
c0 -7.33301 0.833008 -12.166 2.5 -14.499s6.16699 -3.83301 13.5 -4.5l110 -8v-65h-362z" />
    <glyph glyph-name="U" unicode="U" horiz-adv-x="787" 
d="M560 633c0 7.33301 -0.833008 12.3311 -2.5 14.998s-6.16699 4.33398 -13.5 5.00098l-63 7v64h267v-64l-67 -8c-7.33301 -1.33301 -11.833 -3 -13.5 -5s-2.5 -6.66699 -2.5 -14v-384c0 -90 -24 -156 -72 -198s-115.333 -63 -202 -63c-95.333 0 -164 22 -206 66
s-63 110 -63 198v381c0 7.33301 -0.833008 12.333 -2.5 15s-6.16699 4.33398 -13.5 5.00098l-63 7v64h279v-64l-67 -8c-7.33301 -1.33301 -11.833 -3 -13.5 -5s-2.5 -6.66699 -2.5 -14v-364c0 -64 12 -110.667 36 -140s64.667 -44 122 -44c56.667 0 98 13.5 124 40.5
s39 73.833 39 140.5v367z" />
    <glyph glyph-name="V" unicode="V" horiz-adv-x="710" 
d="M284 0l-210 632c-2 6 -5 10 -9 12s-9 3.66699 -15 5l-45 11l10 64h261v-64l-82 -9l171 -550h4l168 550l-80 9l10 64h235v-64l-42 -11c-6 -1.33301 -11.167 -3.33301 -15.5 -6s-7.5 -7 -9.5 -13l-194 -630h-157z" />
    <glyph glyph-name="W" unicode="W" horiz-adv-x="1013" 
d="M625 0l-116.001 421h-3l-114 -421h-148l-159 632c-3.33301 10 -10.666 16 -21.999 18l-55 10l10 64h273v-64l-87 -9l122 -533h4l125 465h123l128 -471h5l123 539l-88 9l10 64h249v-64l-50 -9c-7.33301 -1.33301 -12.5 -3 -15.5 -5s-5.5 -6.66699 -7.5 -14l-153 -632h-154
z" />
    <glyph glyph-name="X" unicode="X" horiz-adv-x="728" 
d="M431 0v64l76 9l-155 222l-152 -222l75 -9v-64h-251v62l55 11c10 2.66699 18.667 9 26 19l190 268l-192 272c-3.33301 5.33301 -6.66602 9.16602 -9.99902 11.499s-8 4.16602 -14 5.49902l-49 11l10 64h263v-64l-77 -9l145 -213l150 213l-75 9l10 64h229v-64l-46 -11
c-6 -1.33301 -10.667 -3.5 -14 -6.5s-7 -7.16699 -11 -12.5l-185 -256l205 -282c3.33301 -5.33301 6.66602 -9.16602 9.99902 -11.499s8 -4.16602 14 -5.49902l52 -11v-64h-279z" />
    <glyph glyph-name="Y" unicode="Y" horiz-adv-x="642" 
d="M157 0l-0.00195312 64.001l97 7c7.33301 0.666992 11.833 2.33398 13.5 5.00098s2.5 7.66699 2.5 15v185l-199 356c-3.33301 5.33301 -6.66602 9.16602 -9.99902 11.499s-8 4.16602 -14 5.49902l-45 11l10 64h253v-64l-76 -9l142 -273h5l143 273l-75 9l10 64h226v-64
l-42 -11c-5.33301 -1.33301 -10.166 -3.33301 -14.499 -6s-7.83301 -7 -10.5 -13l-186 -352v-186c0 -8 0.833008 -13 2.5 -15s6.16699 -3.66699 13.5 -5l103 -8v-64h-349z" />
    <glyph glyph-name="Z" unicode="Z" horiz-adv-x="655" 
d="M50 0v75l400 563h-269c-5.33301 0 -9 -0.5 -11 -1.5s-3.66699 -4.16699 -5 -9.5l-19 -93l-84 -3v193h528v-78l-395 -561h290c5.33301 0 9 0.5 11 1.5s3.66699 4.16699 5 9.5l19 107h84v-203h-554z" />
    <glyph glyph-name="bracketleft" unicode="[" horiz-adv-x="280" 
d="M57 -143v866.996h190v-62l-64 -10c-7.33301 -1.33301 -11.833 -3.16602 -13.5 -5.49902s-2.5 -7.16602 -2.5 -14.499v-682c0 -7.33301 0.833008 -12.166 2.5 -14.499s6.16699 -4.16602 13.5 -5.49902l64 -10v-63h-190z" />
    <glyph glyph-name="backslash" unicode="\" horiz-adv-x="401" 
d="M288 -92l-280 847h104l281 -847h-105z" />
    <glyph glyph-name="bracketright" unicode="]" horiz-adv-x="280" 
d="M33 -143v63.0039l64 10c7.33301 1.33301 11.833 3.16602 13.5 5.49902s2.5 7.16602 2.5 14.499v682c0 7.33301 -0.833008 12.166 -2.5 14.499s-6.16699 4.16602 -13.5 5.49902l-64 10v62h190v-867h-190z" />
    <glyph glyph-name="asciicircum" unicode="^" horiz-adv-x="574" 
d="M432 299l-148 267l-145 -267h-109l197 365h117l200 -365h-112z" />
    <glyph glyph-name="underscore" unicode="_" 
d="M0 -181v83h500v-83h-500z" />
    <glyph glyph-name="grave" unicode="`" 
d="M308 564l-177 144l69 67l154 -168z" />
    <glyph glyph-name="a" unicode="a" horiz-adv-x="547" 
d="M373 0l-10 59l-3 1c-22 -21.333 -47 -38.666 -75 -51.999s-61.667 -20 -101 -20c-31.333 0 -56.5 4.83301 -75.5 14.5s-33.5 21.5 -43.5 35.5s-16.5 29.333 -19.5 46s-4.5 32 -4.5 46c0 50 15.333 87.5 46 112.5s76.667 40.167 138 45.5l127 10v51c0 16 -1 30 -3 42
s-6 22 -12 30s-14.833 14.167 -26.5 18.5s-27.167 6.5 -46.5 6.5c-14 0 -26.667 -0.5 -38 -1.5s-21 -4 -29 -9s-14.167 -12.333 -18.5 -22s-6.5 -23.167 -6.5 -40.5l-108 10c0 32 6.5 57.5 19.5 76.5s29.5 33.5 49.5 43.5s41.833 16.5 65.5 19.5s46.167 4.5 67.5 4.5
c36 0 66.667 -2.83301 92 -8.5s46 -15.334 62 -29.001s27.5 -32 34.5 -55s10.5 -51.833 10.5 -86.5v-257c0 -8 0.833008 -13 2.5 -15s6.16699 -3.66699 13.5 -5l49 -7v-64h-157zM352 225l-95 -7.99902c-38 -3.33301 -63.833 -10.833 -77.5 -22.5s-20.5 -29.5 -20.5 -53.5
s5.5 -40.667 16.5 -50s26.833 -14 47.5 -14c24.667 0 48.5 6.16699 71.5 18.5s42.167 26.166 57.5 41.499v88z" />
    <glyph glyph-name="b" unicode="b" horiz-adv-x="602" 
d="M75 0c3.33301 20 6.33496 42.998 9.00195 68.998s4 51 4 75v507c0 11.333 -4.33301 18.333 -13 21l-57 19l10 64h174v-282c23.333 14.667 48.166 27.334 74.499 38.001s56.5 16 90.5 16c27.333 0 52.666 -4.66699 75.999 -14s43.5 -24 60.5 -44s30.333 -46 40 -78
s14.5 -70.667 14.5 -116c0 -51.333 -5.16699 -95.166 -15.5 -131.499s-24.833 -66 -43.5 -89s-41 -39.833 -67 -50.5s-55 -16 -87 -16c-60 0 -109.667 19.667 -149 59h-4l-6 -47h-111zM203.002 137.998c14 -13.333 31.166 -26.167 51.499 -38.5s44.5 -18.5 72.5 -18.5
c39.333 0 67.833 16.5 85.5 49.5s26.5 78.833 26.5 137.5c0 54 -9.16699 95 -27.5 123s-44.166 42 -77.499 42c-26 0 -50.5 -5.5 -73.5 -16.5s-42.167 -21.833 -57.5 -32.5v-246z" />
    <glyph glyph-name="c" unicode="c" horiz-adv-x="495" 
d="M465 33c-21.333 -13.333 -47.8281 -24.1699 -79.4951 -32.5029s-64.834 -12.5 -99.501 -12.5c-44 0 -81.667 6.5 -113 19.5s-57.333 31.333 -78 55s-35.834 51.667 -45.501 84s-14.5 67.5 -14.5 105.5c0 47.333 6.66699 88.166 20 122.499s31.666 62.833 54.999 85.5
s51.333 39.5 84 50.5s68.334 16.5 107.001 16.5c38 0 71.333 -4.16699 100 -12.5s49.667 -16.166 63 -23.499v-142l-83 4l-12 66c-0.666992 6.66699 -4.33398 11.334 -11.001 14.001s-15.5 4.83398 -26.5 6.50098s-22.833 2.5 -35.5 2.5
c-19.333 0 -37.5 -3.16699 -54.5 -9.5s-32 -16.666 -45 -30.999s-23.167 -33 -30.5 -56s-11 -51.167 -11 -84.5c0 -34 3.66699 -62.5 11 -85.5s17.666 -41.667 30.999 -56s29.166 -24.5 47.499 -30.5s38.5 -9 60.5 -9c25.333 0 48.833 3 70.5 9s40.5 13.333 56.5 22z" />
    <glyph glyph-name="d" unicode="d" horiz-adv-x="604" 
d="M420 0l-8.99902 59l-6 1c-22 -22 -46.333 -39.5 -73 -52.5s-59 -19.5 -97 -19.5c-28.667 0 -54.834 4.83301 -78.501 14.5s-43.834 25 -60.501 46s-29.5 48 -38.5 81s-13.5 72.833 -13.5 119.5c0 50 5.5 92.5 16.5 127.5s26 63.667 45 86s41.333 38.666 67 48.999
s52.834 15.5 81.501 15.5c30 0 57.333 -4 82 -12s46.667 -19 66 -33v170c0 10.667 -4.33301 17.334 -13 20.001l-57 19l10 64h172v-664c0 -8 0.833008 -13 2.5 -15s6.16699 -3.66699 13.5 -5l49 -7v-64h-159zM399.001 387c-14.667 12 -32.168 22.999 -52.501 32.999
s-41.5 15 -63.5 15c-21.333 0 -39.666 -4.5 -54.999 -13.5s-27.833 -21.667 -37.5 -38s-16.667 -35.666 -21 -57.999s-6.5 -46.833 -6.5 -73.5c0 -62 8.83301 -105.833 26.5 -131.5s43.5 -38.5 77.5 -38.5c24.667 0 48.5 6.5 71.5 19.5s43.167 28.833 60.5 47.5v238z" />
    <glyph glyph-name="e" unicode="e" horiz-adv-x="518" 
d="M474 35c-28 -14 -57.8359 -25.333 -89.5029 -34s-65.834 -13 -102.501 -13c-46.667 0 -85.667 7 -117 21s-56.666 33.333 -75.999 58s-33.166 53.5 -41.499 86.5s-12.5 68.833 -12.5 107.5c0 45.333 6.16699 84.666 18.5 117.999s29.166 61 50.499 83
s46.333 38.333 75 49s59.334 16 92.001 16c31.333 0 60 -4.33301 86 -13s48.333 -22.667 67 -42s33.167 -44.333 43.5 -75s15.5 -67.667 15.5 -111c0 -6.66699 -0.166992 -15.667 -0.5 -27s-1.16602 -21.666 -2.49902 -30.999h-323c2.66699 -46.667 14.167 -83 34.5 -109
s54.833 -39 103.5 -39c24.667 0 47.834 2.66699 69.501 8s47.5 14.333 77.5 27zM367.997 311c0 24.667 -2.66699 45.167 -8 61.5s-12.5 29.5 -21.5 39.5s-19.5 17.167 -31.5 21.5s-24.667 6.5 -38 6.5c-28.667 0 -53.667 -10 -75 -30s-33.333 -53 -36 -99h210z" />
    <glyph glyph-name="f" unicode="f" horiz-adv-x="419" 
d="M35 0l0.000976562 64.998l61 6c7.33301 0.666992 11.833 2.33398 13.5 5.00098s2.5 7.66699 2.5 15v334c0 3.33301 -0.333008 5.83301 -1 7.5s-3 2.5 -7 2.5h-70v82h78v67c0 62.667 16.167 108.667 48.5 138s81.166 44 146.499 44c21.333 0 41.833 -1.66699 61.5 -5
s36.834 -9.66602 51.501 -18.999s26.5 -22.333 35.5 -39s13.5 -38.667 13.5 -66l-107 -13c0 26 -4.83301 42.833 -14.5 50.5s-24.834 11.5 -45.501 11.5c-32 0 -52.5 -8.33301 -61.5 -25s-13.5 -39 -13.5 -67v-67c0 -3.33301 0.333008 -5.83301 1 -7.5s3 -2.5 7 -2.5h161
v-82h-169v-341c0 -8 0.833008 -13.167 2.5 -15.5s6.16699 -3.83301 13.5 -4.5l119 -10v-64h-327z" />
    <glyph glyph-name="g" unicode="g" horiz-adv-x="554" 
d="M449 438c10 -13.333 18.8291 -27.999 26.4961 -43.999s11.5 -35.667 11.5 -59c0 -28.667 -5.33301 -54.334 -16 -77.001s-25.5 -41.5 -44.5 -56.5s-41.167 -26.5 -66.5 -34.5s-52.666 -12 -81.999 -12c-16.667 0 -32.5 0.666992 -47.5 2s-27.167 3.66602 -36.5 6.99902
l-46 -76l123 -6c44.667 -2 83.5 -4.83301 116.5 -8.5s60.333 -10 82 -19s37.834 -22.333 48.501 -40s16 -41.5 16 -71.5c0 -53.333 -22.5 -94.666 -67.5 -123.999s-111.167 -44 -198.5 -44c-44 0 -81.167 2.83301 -111.5 8.5s-55 13.834 -74 24.501s-32.667 23.5 -41 38.5
s-12.5 32.167 -12.5 51.5c0 24 5.83301 44.167 17.5 60.5s26.167 32.5 43.5 48.5c-16.667 7.33301 -28.5 16.5 -35.5 27.5s-10.5 22.5 -10.5 34.5c0 19.333 8.33301 38.333 25 57l26.5 31c9.66699 11.333 19.167 21.666 28.5 30.999
c-23.333 12.667 -42.166 31.5 -56.499 56.5s-21.5 55.167 -21.5 90.5c0 28 4.83301 53.667 14.5 77s23.834 43.5 42.501 60.5s41.667 30.333 69 40s59 14.5 95 14.5c18 0 35.5 -0.833008 52.5 -2.5s30.833 -4.16699 41.5 -7.5h182v-73zM384.996 339.001
c0 34.667 -9.83301 61.168 -29.5 79.501s-47.167 27.5 -82.5 27.5c-34 0 -61.833 -8.66699 -83.5 -26s-32.5 -45 -32.5 -83c0 -28.667 8.5 -52.5 25.5 -71.5s46.167 -28.5 87.5 -28.5c34.667 0 62.5 9.16699 83.5 27.5s31.5 43.166 31.5 74.499zM168.996 -13.998
c-9.33301 -9.33301 -18 -19.999 -26 -31.999s-12 -24.667 -12 -38c0 -23.333 12.333 -39.333 37 -48s59 -13 103 -13c12.667 0 27.5 0.666992 44.5 2s33.167 4.5 48.5 9.5s28.333 12.333 39 22s16 22.5 16 38.5c0 10.667 -2.33301 19.167 -7 25.5
s-11.167 11.166 -19.5 14.499s-18.333 5.5 -30 6.5l-39.5 3.5z" />
    <glyph glyph-name="h" unicode="h" horiz-adv-x="628" 
d="M358 0l0.00195312 63.001l47 7c8 1.33301 12.833 3.5 14.5 6.5s2.5 7.83301 2.5 14.5v232c0 12 -0.666992 24.333 -2 37s-4.33301 24.5 -9 35.5s-11.667 20 -21 27s-22.333 10.5 -39 10.5c-24.667 0 -49 -5.66699 -73 -17s-45.333 -23.666 -64 -36.999v-288
c0 -8 0.833008 -13 2.5 -15s6.16699 -3.66699 13.5 -5l53 -7v-64h-248v63l48 8c7.33301 1.33301 11.833 3.16602 13.5 5.49902s2.5 7.16602 2.5 14.499v560c0 11.333 -4.33301 18.333 -13 21l-57 19l10 64h174v-292c25.333 17.333 51.666 32.333 78.999 45
s58.666 19 93.999 19c54 0 92.667 -16.333 116 -49s35 -76.667 35 -132v-255c0 -8 0.833008 -13 2.5 -15s6.16699 -3.66699 13.5 -5l55 -7v-64h-250z" />
    <glyph glyph-name="i" unicode="i" horiz-adv-x="305" 
d="M219 690c0 -24 -6.66699 -42.5 -20 -55.5s-31.666 -19.5 -54.999 -19.5c-24 0 -42.5 6.5 -55.5 19.5s-19.5 31.5 -19.5 55.5c0 23.333 6.5 41.333 19.5 54s31.5 19 55.5 19c23.333 0 41.666 -6.33301 54.999 -19s20 -30.667 20 -54zM23 0v63.002l60 8
c7.33301 1.33301 11.833 3.16602 13.5 5.49902s2.5 7.16602 2.5 14.499v322c0 11.333 -4.33301 18.333 -13 21l-55 19l10 64h173v-426c0 -8 0.833008 -13 2.5 -15s6.16699 -3.66699 13.5 -5l59 -7v-64h-266z" />
    <glyph glyph-name="j" unicode="j" horiz-adv-x="296" 
d="M97 413c0 6 -0.667969 10.5 -2.00098 13.5s-4.66602 5.5 -9.99902 7.5l-62 19l10 64h179v-577c0 -56.667 -13 -98 -39 -124s-65 -39 -117 -39c-34.667 0 -65.5 5.16699 -92.5 15.5s-46.167 20.5 -57.5 30.5l38 68c8.66699 -6 21.167 -12.167 37.5 -18.5
s33.5 -9.5 51.5 -9.5c24.667 0 41.5 7.33301 50.5 22s13.5 40 13.5 76v452zM217.999 690c0 -24 -6.66699 -42.5 -20 -55.5s-31.666 -19.5 -54.999 -19.5s-41.666 6.5 -54.999 19.5s-20 31.5 -20 55.5c0 23.333 6.66699 41.333 20 54s31.666 19 54.999 19
s41.666 -6.33301 54.999 -19s20 -30.667 20 -54z" />
    <glyph glyph-name="k" unicode="k" horiz-adv-x="602" 
d="M338 0l0.000976562 63.0029l57 9l-109 191l-72 -80v-92c0 -8 0.833008 -13 2.5 -15s6.16699 -3.66699 13.5 -5l56 -7v-64h-260v63l57 8c7.33301 1.33301 11.833 3.16602 13.5 5.49902s2.5 7.16602 2.5 14.499v560c0 11.333 -4.33301 18.333 -13 21l-57 19l10 64h175v-459
l201 221h122v-64l-55 -11c-6.66699 -1.33301 -11.334 -2.83301 -14.001 -4.5s-6.33398 -5.16699 -11.001 -10.5l-83 -91l142 -247c4 -6.66699 7.83301 -10.834 11.5 -12.501s9.83398 -3.16699 18.501 -4.5l48 -9v-63h-256z" />
    <glyph glyph-name="l" unicode="l" horiz-adv-x="305" 
d="M26 0v63.002l57 8c7.33301 1.33301 11.833 3.16602 13.5 5.49902s2.5 7.16602 2.5 14.499v560c0 11.333 -4.33301 18.333 -13 21l-57 19l10 64h175v-664c0 -8 0.833008 -13 2.5 -15s6.16699 -3.66699 13.5 -5l56 -7v-64h-260z" />
    <glyph glyph-name="m" unicode="m" horiz-adv-x="903" 
d="M629 0l-0.00195312 63.002l52 7c7.33301 1.33301 11.833 3.5 13.5 6.5s2.5 7.5 2.5 13.5v235c0 14 -0.666992 27.5 -2 40.5s-4.16602 24.167 -8.49902 33.5s-10.666 16.833 -18.999 22.5s-19.5 8.5 -33.5 8.5c-22.667 0 -45 -4.16699 -67 -12.5s-40.667 -17.5 -56 -27.5
c1.33301 -8.66699 2.33301 -17.667 3 -27s1 -19 1 -29v-243c0 -8 0.833008 -13 2.5 -15s6.16699 -3.66699 13.5 -5l46 -7v-64h-246v63l53 7c7.33301 1.33301 11.833 3.5 13.5 6.5s2.5 7.5 2.5 13.5v230c0 14.667 -0.5 28.667 -1.5 42s-3.5 25.166 -7.5 35.499
s-10.167 18.5 -18.5 24.5s-19.833 9 -34.5 9c-24 0 -46.5 -5.16699 -67.5 -15.5s-39.833 -22.166 -56.5 -35.499v-289c0 -8 0.833008 -13 2.5 -15s6.16699 -3.66699 13.5 -5l49 -7v-64h-244v63l48 8c7.33301 1.33301 11.833 3.16602 13.5 5.49902s2.5 7.16602 2.5 14.499
v322c0 11.333 -4.33301 18.333 -13 21l-55 19l10 64h148l8 -56l4 -1c25.333 19.333 51.666 35.333 78.999 48s58 19 92 19c24 0 46.5 -4.16699 67.5 -12.5s38.167 -24.166 51.5 -47.499c24 15.333 49.833 29.166 77.5 41.499s59.834 18.5 96.501 18.5c28 0 51.333 -4 70 -12
s33.667 -19.5 45 -34.5s19.5 -33 24.5 -54s7.5 -44.5 7.5 -70.5v-265c0 -8 0.833008 -13 2.5 -15s6.16699 -3.66699 13.5 -5l55 -7v-64h-254z" />
    <glyph glyph-name="n" unicode="n" horiz-adv-x="628" 
d="M356 0l0.000976562 63.0029l50 6c7.33301 1.33301 11.833 3.5 13.5 6.5s2.5 7.5 2.5 13.5v232c0 15.333 -0.666992 29.666 -2 42.999s-4.5 25 -9.5 35s-12.167 17.833 -21.5 23.5s-22 8.5 -38 8.5c-25.333 0 -50.333 -5.66699 -75 -17s-45.334 -23 -62.001 -35v-288
c0 -8 0.833008 -13 2.5 -15s6.16699 -3.66699 13.5 -5l53 -7v-64h-248v65l48 6c7.33301 1.33301 11.833 3.16602 13.5 5.49902s2.5 7.16602 2.5 14.499v322c0 11.333 -4.33301 18.333 -13 21l-55 19l10 64h148l8 -55l4 -1c28 19.333 57.167 35.166 87.5 47.499
s63.5 18.5 99.5 18.5c54 0 92.333 -16.167 115 -48.5s34 -77.166 34 -134.499v-253c0 -8 0.833008 -13 2.5 -15s6.16699 -3.66699 13.5 -5l55 -7v-64h-252z" />
    <glyph glyph-name="o" unicode="o" horiz-adv-x="573" 
d="M284 -12c-46 0 -84.8311 6.66797 -116.498 20.001s-57.334 31.666 -77.001 54.999s-33.834 51.333 -42.501 84s-13 68 -13 106c0 41.333 5.16699 78.833 15.5 112.5s26.333 62.5 48 86.5s48.667 42.5 81 55.5s70.5 19.5 114.5 19.5s81.5 -6.5 112.5 -19.5
s56.167 -31 75.5 -54s33.5 -50.5 42.5 -82.5s13.5 -67 13.5 -105c0 -42 -5 -80.167 -15 -114.5s-25.333 -63.5 -46 -87.5s-47 -42.667 -79 -56s-70 -20 -114 -20zM287.002 73.001c42.667 0 75.334 14.668 98.001 44.001s34 77 34 143c0 64 -10.667 110 -32 138
s-53.333 42 -96 42s-76 -14 -100 -42s-36 -74.333 -36 -139s11.167 -111.834 33.5 -141.501s55.166 -44.5 98.499 -44.5z" />
    <glyph glyph-name="p" unicode="p" horiz-adv-x="610" 
d="M39 -212l-0.000976562 65.001l41 6c7.33301 1.33301 12 3.16602 14 5.49902s3 7.5 3 15.5v533c0 10.667 -4.33301 17.667 -13 21l-55 19l10 64h149l9 -56l3 -1c24 19.333 50.667 35.333 80 48s61.333 19 96 19c28 0 53.667 -4.66699 77 -14s43.333 -24 60 -44
s29.667 -46 39 -78s14 -70.667 14 -116c0 -32 -3 -65 -9 -99s-16.667 -65 -32 -93s-36.333 -50.833 -63 -68.5s-60.667 -26.5 -102 -26.5c-28 0 -54.667 4.5 -80 13.5s-48.666 21.833 -69.999 38.5v-160c0 -8 1 -13.167 3 -15.5s6.66699 -3.83301 14 -4.5l98 -8v-64h-286z
M211.999 133.001c15.333 -13.333 33.335 -25.5 54.002 -36.5s43.667 -16.5 69 -16.5c40 0 68.833 16.833 86.5 50.5s26.5 79.5 26.5 137.5c0 30.667 -2.66699 56.5 -8 77.5s-12.833 38 -22.5 51s-20.834 22.333 -33.501 28s-26.334 8.5 -41.001 8.5
c-13.333 0 -26.5 -1.83301 -39.5 -5.5s-25.333 -8.16699 -37 -13.5s-22.167 -11 -31.5 -17s-17 -11.667 -23 -17v-247z" />
    <glyph glyph-name="q" unicode="q" horiz-adv-x="590" 
d="M310 -212v64.002l80 8c7.33301 0.666992 12.166 2.16699 14.499 4.5s3.5 7.16602 3.5 14.499v178c-22.667 -20 -47 -36.5 -73 -49.5s-58 -19.5 -96 -19.5c-29.333 0 -56 4.83301 -80 14.5s-44.5 25 -61.5 46s-30.167 48 -39.5 81s-14 72.833 -14 119.5
c0 49.333 5.66699 91.666 17 126.999s26.5 64.166 45.5 86.499s41.333 38.666 67 48.999s52.834 15.5 81.501 15.5c31.333 0 59.5 -5.33301 84.5 -16s47.167 -23.667 66.5 -39l13 45h104c-3.33301 -27.333 -5.83301 -53 -7.5 -77s-2.5 -48 -2.5 -72v-489
c0 -7.33301 0.833008 -12.166 2.5 -14.499s6.16699 -4.16602 13.5 -5.49902l50 -6v-65h-269zM399 388.002c-14 11.333 -31.499 21.999 -52.499 31.999s-42.5 15 -64.5 15c-21.333 0 -39.5 -4.5 -54.5 -13.5s-27.333 -21.667 -37 -38s-16.667 -35.666 -21 -57.999
s-6.5 -46.833 -6.5 -73.5c0 -62 9.16699 -106 27.5 -132s44.5 -39 78.5 -39c24.667 0 48.167 7.16699 70.5 21.5s42.166 29.833 59.499 46.5v239z" />
    <glyph glyph-name="r" unicode="r" horiz-adv-x="449" 
d="M35 0l-0.000976562 65.0039l48 6c7.33301 1.33301 11.833 3.16602 13.5 5.49902s2.5 7.16602 2.5 14.499v322c0 10.667 -4.33301 17.667 -13 21l-55 19l10 64h149l11 -73l3 -1c16.667 21.333 36.834 40.666 60.501 57.999s52.5 26 86.5 26
c11.333 0 24.833 -0.833008 40.5 -2.5s28.167 -3.83398 37.5 -6.50098v-164l-90 4l-12 62c-0.666992 7.33301 -4.66699 11 -12 11c-9.33301 0 -19 -1.83301 -29 -5.5s-19.5 -8.16699 -28.5 -13.5s-17.167 -11 -24.5 -17l-19 -16v-287c0 -8 1 -13.167 3 -15.5
s6.66699 -3.83301 14 -4.5l94 -8v-64h-290z" />
    <glyph glyph-name="s" unicode="s" horiz-adv-x="471" 
d="M340 368l-10.9971 58.001c-0.666992 6.66699 -4.33398 11.334 -11.001 14.001c-6.66699 2 -16.5 4.16699 -29.5 6.5s-27.167 3.5 -42.5 3.5c-32 0 -55.833 -5.5 -71.5 -16.5s-23.5 -26.5 -23.5 -46.5c0 -13.333 3.16699 -24.333 9.5 -33s15 -15.834 26 -21.501
s23.667 -10.334 38 -14.001l45.5 -11.5c20 -4.66699 40 -10.167 60 -16.5s38 -15.166 54 -26.499s29 -26 39 -44s15 -41.333 15 -70c0 -29.333 -5.66699 -54.333 -17 -75s-26.666 -37.5 -45.999 -50.5s-41.833 -22.333 -67.5 -28s-52.834 -8.5 -81.501 -8.5
c-21.333 0 -42.333 1.33301 -63 4s-39.5 5.66699 -56.5 9s-31.5 7.16602 -43.5 11.499s-20.333 7.83301 -25 10.5v136l83 -5l10 -61c1.33301 -4 2.5 -7 3.5 -9s3.83301 -3.66699 8.5 -5c6.66699 -2 17.667 -4.83301 33 -8.5s34.333 -5.5 57 -5.5
c31.333 0 55.833 5.16699 73.5 15.5s26.5 28.166 26.5 53.499c0 14 -3.66699 25.333 -11 34s-17.166 15.834 -29.499 21.501s-26.333 10.167 -42 13.5s-31.834 7 -48.501 11c-18.667 4 -37.334 9 -56.001 15s-35.5 14.333 -50.5 25s-27 24.5 -36 41.5
s-13.5 38.833 -13.5 65.5c0 30 5.83301 55.667 17.5 77s27.167 38.5 46.5 51.5s41.666 22.5 66.999 28.5s51.333 9 78 9c18.667 0 36.667 -1 54 -3s33.5 -4.5 48.5 -7.5s28.167 -6.16699 39.5 -9.5s20 -6.33301 26 -9v-135z" />
    <glyph glyph-name="t" unicode="t" horiz-adv-x="424" 
d="M398 23c-20.667 -9.33301 -43.833 -17.5 -69.5 -24.5s-51.834 -10.5 -78.501 -10.5c-52.667 0 -90.667 11.667 -114 35s-35 60 -35 110v292c0 3.33301 -0.333008 5.83301 -1 7.5s-3 2.5 -7 2.5h-72v71c39.333 5.33301 67.833 20.833 85.5 46.5s29.834 60.5 36.501 104.5
h73v-130c0 -3.33301 0.333008 -5.83301 1 -7.5s3 -2.5 7 -2.5h145v-82h-153v-272c0 -31.333 5 -53.333 15 -66s29 -19 57 -19c15.333 0 30.333 1.66699 45 5s28.667 7.33301 42 12z" />
    <glyph glyph-name="u" unicode="u" horiz-adv-x="626" 
d="M441 0l-9 61.001l-3 1c-10.667 -8.66699 -22.5 -17.5 -35.5 -26.5s-27 -17 -42 -24s-31.5 -12.667 -49.5 -17s-38 -6.5 -60 -6.5c-54 0 -91.5 14 -112.5 42s-31.5 70.667 -31.5 128v260c0 8 -0.833008 13.333 -2.5 16s-6.16699 4.66699 -13.5 6l-51 12l9 65h173v-334
c0 -34 4.16699 -59.667 12.5 -77s26.5 -26 54.5 -26c14.667 0 28.667 2.16699 42 6.5s25.833 9.83301 37.5 16.5s22.5 14.167 32.5 22.5s19 16.5 27 24.5v268c0 8 -0.833008 13.333 -2.5 16s-6.16699 4.66699 -13.5 6l-48 12l9 65h170v-426
c0 -6.66699 0.833008 -11.334 2.5 -14.001s5.16699 -4.66699 10.5 -6l52 -7v-64h-158z" />
    <glyph glyph-name="v" unicode="v" horiz-adv-x="596" 
d="M234 0l-164.998 425.001c-2 6 -4.5 10 -7.5 12s-7.5 3.66699 -13.5 5l-42 9l13 66h236v-66l-67 -8l123 -333h4l124 333l-66 8l11 66h206v-66l-34 -6c-6.66699 -1.33301 -11.834 -2.83301 -15.501 -4.5s-6.83398 -5.83398 -9.50098 -12.501l-164 -428h-133z" />
    <glyph glyph-name="w" unicode="w" horiz-adv-x="856" 
d="M534 0l-95 372.001h-3l-91 -372h-140l-136 425c-2 6 -4.5 10 -7.5 12s-7.5 3.66699 -13.5 5l-42 9l13 66h225v-66l-60 -8l96 -328h4l101 388h124l96 -386h4l94 326l-61 8l11 66h197v-66l-36 -6c-8 -1.33301 -13.667 -3.33301 -17 -6s-6 -7.33398 -8 -14.001l-130 -425
h-125z" />
    <glyph glyph-name="x" unicode="x" horiz-adv-x="586" 
d="M320 0l-0.000976562 64l56 9l-97 127l-103 -127l61 -9v-64h-225v63l46 9c7.33301 1.33301 12.833 3.33301 16.5 6s8.16699 6.66699 13.5 12l137 164l-137 170c-4 4.66699 -7.5 8.16699 -10.5 10.5s-7.5 4.5 -13.5 6.5l-42 11l10 65h231v-65l-56 -8l93 -119l101 119l-61 8
l10 65h205v-65l-44 -10c-6 -2 -11 -4.5 -15 -7.5s-8 -6.83301 -12 -11.5l-129 -152l144 -180c4.66699 -5.33301 8.83398 -9.33301 12.501 -12s8.5 -4.66699 14.5 -6l50 -9v-64h-256z" />
    <glyph glyph-name="y" unicode="y" horiz-adv-x="597" 
d="M103 -212l0.00292969 66l71 8c8.66699 1.33301 14.5 3.5 17.5 6.5s6.16699 8.16699 9.5 15.5l51 117l-184 424c-2.66699 6 -5.33398 10 -8.00098 12s-7 3.66699 -13 5l-41 9l13 66h233v-66l-65 -8l125 -309h4l124 309l-66 8l11 66h206v-66l-33 -5
c-6.66699 -1.33301 -11.834 -3 -15.501 -5s-6.83398 -6 -9.50098 -12l-234 -566l100 -10v-65h-296z" />
    <glyph glyph-name="z" unicode="z" 
d="M37 0v66l287 373h-175c-4 0 -6.66699 -1.33301 -8 -4s-2.33301 -5.66699 -3 -9l-12 -60l-83 -5v156h415v-68l-283 -372h186c4.66699 0 7.5 1.33301 8.5 4s1.83301 5.66699 2.5 9l12 72l85 4v-166h-432z" />
    <glyph glyph-name="braceleft" unicode="{" horiz-adv-x="307" 
d="M266 -148c-33.333 2 -61.833 5.33496 -85.5 10.002s-43 12 -58 22s-26 23 -33 39s-10.5 36 -10.5 60c0 28 2.33301 58.167 7 90.5s7 65.5 7 99.5c0 33.333 -7.33301 55.166 -22 65.499s-33.667 15.833 -57 16.5v67c23.333 1.33301 42.333 7.16602 57 17.499
s22 31.833 22 64.5c0 34 -2.33301 67.5 -7 100.5s-7 63.5 -7 91.5c0 24 3.5 44 10.5 60s18 29 33 39s34.333 17.333 58 22s52.167 8 85.5 10l10 -67c-14.667 -3.33301 -27.167 -6.5 -37.5 -9.5s-18.666 -7 -24.999 -12s-10.833 -11.5 -13.5 -19.5s-4 -18.333 -4 -31
c0 -26.667 2.33301 -56 7 -88s7 -64 7 -96c0 -36.667 -6.33301 -63.334 -19 -80.001s-28.334 -28.667 -47.001 -36c18.667 -7.33301 34.334 -19.166 47.001 -35.499s19 -42.833 19 -79.5c0 -32 -2.33301 -63.667 -7 -95s-7 -60.333 -7 -87
c0 -12.667 1.33301 -22.834 4 -30.501s7.16699 -14 13.5 -19s14.666 -9.16699 24.999 -12.5s22.833 -6.66602 37.5 -9.99902z" />
    <glyph glyph-name="bar" unicode="|" horiz-adv-x="280" 
d="M88 -143v898h104v-898h-104z" />
    <glyph glyph-name="braceright" unicode="}" horiz-adv-x="307" 
d="M31 -81c14.667 3.33301 27.167 6.66406 37.5 9.99707s18.666 7.5 24.999 12.5s10.833 11.333 13.5 19s4 17.834 4 30.501c0 26.667 -2.33301 55.667 -7 87s-7 63 -7 95c0 36.667 6.33301 63.167 19 79.5s28.334 28.166 47.001 35.499
c-18.667 7.33301 -34.334 19.333 -47.001 36s-19 43.334 -19 80.001c0 32 2.33301 64 7 96s7 61.333 7 88c0 12.667 -1.33301 23 -4 31s-7.16699 14.5 -13.5 19.5s-14.666 9 -24.999 12s-22.833 6.16699 -37.5 9.5l10 67c33.333 -2 61.833 -5.33301 85.5 -10s43 -12 58 -22
s26 -23 33 -39s10.5 -36 10.5 -60c0 -28 -2.33301 -58.5 -7 -91.5s-7 -66.5 -7 -100.5c0 -32.667 7.33301 -54.167 22 -64.5s33.667 -16.166 57 -17.499v-67c-23.333 -0.666992 -42.333 -6.16699 -57 -16.5s-22 -32.166 -22 -65.499c0 -34 2.33301 -67.167 7 -99.5
s7 -62.5 7 -90.5c0 -24 -3.5 -44 -10.5 -60s-18 -29 -33 -39s-34.333 -17.333 -58 -22s-52.167 -8 -85.5 -10z" />
    <glyph glyph-name="asciitilde" unicode="~" horiz-adv-x="499" 
d="M480 416c-7.33301 -38.667 -18.498 -68.833 -33.498 -90.5s-38.5 -32.5 -70.5 -32.5c-18 0 -37.167 2.33301 -57.5 7s-40.333 10 -60 16s-38.667 11.333 -57 16s-34.833 7 -49.5 7c-16 0 -29 -3.66699 -39 -11s-20.667 -20.666 -32 -39.999l-61 28
c11.333 33.333 26.666 61.166 45.999 83.499s44.666 33.5 75.999 33.5c19.333 0 38.5 -2.33301 57.5 -7s38 -10 57 -16s37.333 -11.333 55 -16s34.5 -7 50.5 -7s27.5 4 34.5 12s13.833 21.333 20.5 40z" />
    <glyph glyph-name="uni00A0" unicode="&#xa0;" horiz-adv-x="214" 
 />
    <glyph glyph-name="sterling" unicode="&#xa3;" horiz-adv-x="557" 
d="M58 0l-13.998 72.002c17.333 12 31 24 41 36s17.5 25.667 22.5 41s8.16699 33.333 9.5 54s2 45.667 2 75v12h-76v87h76v54c0 29.333 3.33301 57.333 10 84s18.5 50 35.5 70s39.833 36 68.5 48s65 18 109 18c23.333 0 46 -2 68 -6s41.667 -11.667 59 -23
s31.166 -27 41.499 -47s15.5 -46.333 15.5 -79l-105 -14c-0.666992 27.333 -5.66699 48.166 -15 62.499s-30.666 21.5 -63.999 21.5c-38.667 0 -66.334 -11.167 -83.001 -33.5s-25 -55.5 -25 -99.5v-56h166v-87h-166c0 -23.333 -0.5 -44.833 -1.5 -64.5
s-3.66699 -37.834 -8 -54.501s-10.666 -32.5 -18.999 -47.5s-19.833 -29.833 -34.5 -44.5h242c5.33301 0 8.66602 1 9.99902 3s2.66602 5 3.99902 9l16 82h82v-173h-467z" />
    <glyph glyph-name="currency" unicode="&#xa4;" horiz-adv-x="570" 
d="M496 1l-88 87.002c-34.667 -22 -76 -33 -124 -33c-53.333 0 -96 11 -128 33l-44.5 -44.5c-16.333 -15.667 -30.5 -29.834 -42.5 -42.501l-69 69l91 91c-10 18 -16.833 36.833 -20.5 56.5s-5.5 40.5 -5.5 62.5c0 20 2.16699 39.167 6.5 57.5s11.5 36.166 21.5 53.499
l-90 89l72 72l84 -85c35.333 25.333 79 38 131 38s95 -12 129 -36l82 82l68 -70l-86 -86c17.333 -32.667 26 -69.667 26 -111c0 -44.667 -10.333 -86 -31 -124l90 -89zM288 147.002c37.333 0 65.666 13 84.999 39s29 57.333 29 94c0 40.667 -9.66699 72.5 -29 95.5
s-48.333 34.5 -87 34.5c-38 0 -66.5 -12.167 -85.5 -36.5s-28.5 -55.5 -28.5 -93.5c0 -18.667 2.16699 -36 6.5 -52s11.333 -30 21 -42s21.834 -21.5 36.501 -28.5s32 -10.5 52 -10.5z" />
    <glyph glyph-name="brokenbar" unicode="&#xa6;" horiz-adv-x="280" 
d="M88 -143v388h104v-388h-104zM88 407v348h104v-348h-104z" />
    <glyph glyph-name="section" unicode="&#xa7;" horiz-adv-x="556" 
d="M75 27l79.998 -5.00098l11 -62c0.666992 -3.33301 1.66699 -6 3 -8s4.33301 -3.66699 9 -5c6.66699 -2.66699 17.667 -5.83398 33 -9.50098s32.666 -5.5 51.999 -5.5c29.333 0 52.5 5.33301 69.5 16s25.5 28.334 25.5 53.001c0 19.333 -7 34 -21 44
s-31.667 18.167 -53 24.5s-44.333 12.333 -69 18s-47.667 13.834 -69 24.501s-39 25.5 -53 44.5s-21 45.167 -21 78.5c0 29.333 7.33301 55.166 22 77.499s31.667 40.833 51 55.5c-14.667 11.333 -26.5 25.5 -35.5 42.5s-13.5 38.167 -13.5 63.5
c0 27.333 5.33301 50.833 16 70.5s25.167 35.834 43.5 48.501s39.5 22 63.5 28s49.333 9 76 9c39.333 0 74.166 -3.5 104.499 -10.5s51.5 -13.167 63.5 -18.5v-135l-83 6l-10 59c-0.666992 3.33301 -1.5 6 -2.5 8s-3.83301 3.66699 -8.5 5
c-7.33301 2.66699 -16.666 5 -27.999 7s-25.666 3 -42.999 3c-32 0 -55 -6.5 -69 -19.5s-21 -29.167 -21 -48.5c0 -18 7 -31.833 21 -41.5s31.667 -17.667 53 -24s44.333 -12.5 69 -18.5s47.667 -14.667 69 -26s39 -26.5 53 -45.5s21 -44.5 21 -76.5s-7 -58.667 -21 -80
s-30.667 -39 -50 -53c14 -10.667 25.5 -23.834 34.5 -39.501s13.5 -35.167 13.5 -58.5c0 -30.667 -5.33301 -56.5 -16 -77.5s-25.167 -38 -43.5 -51s-39.666 -22.333 -63.999 -28s-50.166 -8.5 -77.499 -8.5c-20 0 -40.167 1.33301 -60.5 4s-39 5.83398 -56 9.50098
s-31.667 7.5 -44 11.5s-20.5 7.33301 -24.5 10v134zM215.998 332.999c-15.333 -8.66699 -26.999 -20 -34.999 -34s-12 -28.333 -12 -43c0 -12 2.66699 -22.167 8 -30.5s12.5 -15.5 21.5 -21.5s19.667 -11.167 32 -15.5s25.166 -8.5 38.499 -12.5l69 -20
c14.667 9.33301 26.167 21 34.5 35s12.5 29.667 12.5 47c0 12 -2.83301 22 -8.5 30s-13.5 15 -23.5 21s-21.5 11 -34.5 15l-40.5 12z" />
    <glyph glyph-name="dieresis" unicode="&#xa8;" 
d="M209 663c0 -18.667 -5.66699 -33.5 -17 -44.5s-26.333 -16.5 -45 -16.5s-33.834 5.5 -45.501 16.5s-17.5 25.833 -17.5 44.5s5.83301 33.334 17.5 44.001s26.834 16 45.501 16s33.667 -5.33301 45 -16s17 -25.334 17 -44.001zM413 663
c0 -18.667 -5.66699 -33.5 -17 -44.5s-26.333 -16.5 -45 -16.5s-33.667 5.5 -45 16.5s-17 25.833 -17 44.5s5.66699 33.334 17 44.001s26.333 16 45 16s33.667 -5.33301 45 -16s17 -25.334 17 -44.001z" />
    <glyph glyph-name="copyright" unicode="&#xa9;" horiz-adv-x="765" 
d="M716 319c0 -50 -8.16699 -95.498 -24.5 -136.498s-39.166 -76 -68.499 -105s-64.5 -51.5 -105.5 -67.5s-86.167 -24 -135.5 -24c-54.667 0 -102.834 8.16699 -144.501 24.5s-76.5 38.666 -104.5 66.999s-49 62 -63 101s-21 81.167 -21 126.5
c0 52 8.83301 98.667 26.5 140s41.667 76.166 72 104.499s65.833 50 106.5 65s84 22.5 130 22.5c51.333 0 97.5 -7.5 138.5 -22.5s75.833 -36.333 104.5 -64s50.667 -61 66 -100s23 -82.833 23 -131.5zM384 45.002c41.333 0 78.333 6.16602 111 18.499s60.5 30 83.5 53
s40.667 51.167 53 84.5s18.5 70.666 18.5 111.999c0 43.333 -6.66699 81.333 -20 114s-31.666 60.334 -54.999 83.001s-51.333 39.667 -84 51s-68.334 17 -107.001 17c-38 0 -73.167 -6.16699 -105.5 -18.5s-60.5 -30 -84.5 -53s-42.667 -51.333 -56 -85
s-20 -72.167 -20 -115.5c0 -81.333 23.5 -145.166 70.5 -191.499s112.167 -69.5 195.5 -69.5zM508 145.001c-13.333 -8 -30.668 -14.168 -52.001 -18.501s-42 -6.5 -62 -6.5c-34 0 -62.833 4.66699 -86.5 14s-43 22.333 -58 39s-26 36.667 -33 60s-10.5 48.666 -10.5 75.999
c0 29.333 4 56.333 12 81s20 45.834 36 63.501s35.833 31.334 59.5 41.001s51.5 14.5 83.5 14.5c20.667 0 41.5 -2.16699 62.5 -6.5s37.5 -8.83301 49.5 -13.5v-108l-48 4l-8 45c-1.33301 7.33301 -5 12.333 -11 15c-13.333 5.33301 -30.333 8 -51 8
c-30.667 0 -56.167 -10.833 -76.5 -32.5s-30.5 -58.167 -30.5 -109.5c0 -18.667 2 -36.334 6 -53.001s10.333 -31.167 19 -43.5s20.334 -22 35.001 -29s32.334 -10.5 53.001 -10.5c21.333 0 36.666 2.33301 45.999 7c4.66699 2.66699 8 7.33398 10 14.001l12 51h43v-102z
" />
    <glyph glyph-name="guillemotleft" unicode="&#xab;" horiz-adv-x="450" 
d="M137 103l-87 155l89 150h98l-77 -138c-2.66699 -4 -4 -7.16699 -4 -9.5s1 -5.5 3 -9.5l75 -148h-97zM308 103l-87 155l89 150h98l-77 -138c-2.66699 -4 -4 -7.16699 -4 -9.5s1 -5.5 3 -9.5l75 -148h-97z" />
    <glyph glyph-name="logicalnot" unicode="&#xac;" horiz-adv-x="570" 
d="M379 183v95h-288v95h381v-190h-93z" />
    <glyph glyph-name="uni00AD" unicode="&#xad;" horiz-adv-x="311" 
d="M23 239v104h271v-104h-271z" />
    <glyph glyph-name="registered" unicode="&#xae;" horiz-adv-x="450" 
d="M410 480c0 -27.333 -4.5 -52.333 -13.5 -75s-21.667 -42.167 -38 -58.5s-35.833 -29 -58.5 -38s-47.667 -13.5 -75 -13.5c-30.667 0 -57.5 4.5 -80.5 13.5s-42.167 21.5 -57.5 37.5s-27 34.833 -35 56.5s-12 45.167 -12 70.5c0 28.667 4.83301 54.5 14.5 77.5
s23 42.5 40 58.5s36.667 28.333 59 37s46.5 13 72.5 13c56.667 0 101.5 -16.333 134.5 -49s49.5 -76 49.5 -130zM366 477c0 46 -13.333 80.833 -40 104.5s-60 35.5 -100 35.5c-20 0 -38.5 -3.16699 -55.5 -9.5s-31.833 -15.666 -44.5 -27.999s-22.667 -27.333 -30 -45
s-11 -37.834 -11 -60.501c0 -43.333 12.5 -77 37.5 -101s59.5 -36 103.5 -36c43.333 0 77.5 12.333 102.5 37s37.5 59 37.5 103zM238 384l-0.000976562 20.998l19 3l-20 39c-2.66699 4.66699 -5 7.83398 -7 9.50098s-5.66699 2.5 -11 2.5h-14v-46
c0 -3.33301 1.66699 -5.33301 5 -6l16 -2v-21h-82v21l15 2c3.33301 0.666992 5 3 5 7v129c0 4.66699 -2 7.33398 -6 8.00098l-14 2v22h88c26.667 0 44.5 -5.5 53.5 -16.5s13.5 -23.5 13.5 -37.5c0 -13.333 -3.33301 -24.333 -10 -33s-15.667 -15 -27 -19
c6.66699 -2 12.334 -8 17.001 -18l18 -36c1.33301 -3.33301 4 -5.33301 8 -6l17 -4v-21h-84zM218.999 487.998c10 0 18.667 2 26 6s11 12.333 11 25c0 10 -3 16.667 -9 20s-13.667 5 -23 5h-19v-56h14z" />
    <glyph glyph-name="macron" unicode="&#xaf;" 
d="M94 606v82h311v-82h-311z" />
    <glyph glyph-name="degree" unicode="&#xb0;" horiz-adv-x="301" 
d="M151 614c15.333 0 27.333 4.83301 36 14.5s13 22.5 13 38.5s-4.33301 28.667 -13 38s-20.667 14 -36 14c-14 0 -25.833 -4.83301 -35.5 -14.5s-14.5 -23.167 -14.5 -40.5c0 -15.333 4.5 -27.5 13.5 -36.5s21.167 -13.5 36.5 -13.5zM259 667
c0 -33.333 -9.83301 -59.667 -29.5 -79s-45.834 -29 -78.501 -29s-59 9.5 -79 28.5s-30 44.5 -30 76.5c0 35.333 10.667 62.5 32 81.5s47 28.5 77 28.5c30.667 0 56.334 -9.33301 77.001 -28s31 -45 31 -79z" />
    <glyph glyph-name="plusminus" unicode="&#xb1;" horiz-adv-x="570" 
d="M94 0v95h381v-95h-381zM235 134v141h-141v95h141v146h98v-146h142v-95h-142v-141h-98z" />
    <glyph glyph-name="mu" unicode="&#xb5;" horiz-adv-x="629" 
d="M435 0l-8.00195 59.001h-5c-20.667 -22 -42 -39.333 -64 -52s-47 -19 -75 -19c-17.333 0 -33.166 2.5 -47.499 7.5s-26.166 12.167 -35.499 21.5l-2 -2l13 -191h-118v693h115v-339c0 -15.333 0.833008 -29.166 2.5 -41.499s5.33398 -22.833 11.001 -31.5
s13.334 -15.334 23.001 -20.001s22.5 -7 38.5 -7c25.333 0 48.666 6.66699 69.999 20s41.666 31 60.999 53v366h115v-426c0 -6.66699 0.833008 -11.334 2.5 -14.001s5.16699 -4.66699 10.5 -6l53 -7v-64h-160z" />
    <glyph glyph-name="paragraph" unicode="&#xb6;" horiz-adv-x="586" 
d="M388 -133v702h-70v-702h-164v64l66 8c6 0.666992 9.83301 2.16699 11.5 4.5s2.5 6.5 2.5 12.5v212c-68.667 5.33301 -121.167 28.166 -157.5 68.499s-54.5 94.166 -54.5 161.499c0 45.333 7.33301 83.666 22 114.999s34.667 56.833 60 76.5s55 33.834 89 42.501
s70 13 108 13h253v-64l-67 -8c-7.33301 -1.33301 -11.833 -3 -13.5 -5s-2.5 -6.66699 -2.5 -14v-598c0 -7.33301 1 -11.666 3 -12.999s6.33301 -2.66602 13 -3.99902l67 -8v-64h-166z" />
    <glyph glyph-name="periodcentered" unicode="&#xb7;" horiz-adv-x="228" 
d="M188 314c0 -46 -24.667 -69 -74 -69s-74 23 -74 69s24.667 69 74 69s74 -23 74 -69z" />
    <glyph glyph-name="cedilla" unicode="&#xb8;" 
d="M146 -182c3.33301 -0.666992 7.5 -1.16699 12.5 -1.5s10.167 -0.5 15.5 -0.5c25.333 0 43.5 4.83301 54.5 14.5s16.5 22.167 16.5 37.5c0 14 -5.33301 24.667 -16 32s-28 11.333 -52 12l16 118l63 -8l-9 -67c19.333 -4 36.833 -12.5 52.5 -25.5s23.5 -32.833 23.5 -59.5
c0 -14 -2.5 -27.667 -7.5 -41s-13.167 -25.5 -24.5 -36.5s-25.833 -19.833 -43.5 -26.5s-39.5 -10 -65.5 -10c-8 0 -16.167 0.333008 -24.5 1s-14.5 1.66699 -18.5 3z" />
    <glyph glyph-name="guillemotright" unicode="&#xbb;" horiz-adv-x="449" 
d="M51 103l75 143c2.66699 4.66699 4 8 4 10s-1 5 -3 9l-77 143h98l88 -153l-87 -152h-98zM222 103l75 143c2.66699 4.66699 4 8 4 10s-1 5 -3 9l-77 143h98l88 -153l-87 -152h-98z" />
    <glyph glyph-name="multiply" unicode="&#xd7;" horiz-adv-x="570" 
d="M284 252l-102 -103l-69 68l103 104l-103 104l69 69l102 -104l103 104l69 -69l-103 -104l103 -104l-69 -68z" />
    <glyph glyph-name="divide" unicode="&#xf7;" horiz-adv-x="570" 
d="M350 162c0 -21.333 -5.83301 -37.667 -17.5 -49s-29.167 -17 -52.5 -17c-46.667 0 -70 22 -70 66c0 20.667 5.83301 36.834 17.5 48.501s29.167 17.5 52.5 17.5s40.833 -5.83301 52.5 -17.5s17.5 -27.834 17.5 -48.501zM94 273.999v94h381v-94h-381zM350 480.999
c0 -44 -23.333 -66 -70 -66s-70 22 -70 66c0 20 5.83301 36 17.5 48s29.167 18 52.5 18s40.833 -6 52.5 -18s17.5 -28 17.5 -48z" />
    <glyph glyph-name="florin" unicode="&#x192;" horiz-adv-x="510" 
d="M266 302l-39.0029 -226.998c-5.33301 -32 -12.5 -59.167 -21.5 -81.5s-20.667 -40.166 -35 -53.499s-31.833 -23 -52.5 -29s-45.667 -9 -75 -9s-57.666 4.16699 -84.999 12.5s-48 18.166 -62 29.499l34 74c12.667 -8.66699 28.834 -16.334 48.501 -23.001
s38.5 -10 56.5 -10c23.333 0 41.5 5.66699 54.5 17s22.5 34 28.5 68l40 222c0.666992 3.33301 0.666992 5.83301 0 7.5s-3 2.5 -7 2.5h-92l14 78h100l18 95c6 30 13.5 56 22.5 78s20.667 40.333 35 55s32 25.5 53 32.5s46.5 10.5 76.5 10.5
c32.667 0 61.334 -3.83301 86.001 -11.5s45.334 -16.167 62.001 -25.5l-22 -135l-73 5l-2 63c0 4 -0.5 7.5 -1.5 10.5s-3.83301 5.16699 -8.5 6.5c-4 1.33301 -9 2.66602 -15 3.99902s-14.667 2 -26 2c-26.667 0 -45.5 -8 -56.5 -24s-19.167 -38.667 -24.5 -68l-16 -88
c-0.666992 -6.66699 1.66602 -10 6.99902 -10h135l-14 -78h-143z" />
    <glyph glyph-name="circumflex" unicode="&#x2c6;" 
d="M371 568l-121 98l-121 -98l-50 44l125 125h92l125 -125z" />
    <glyph glyph-name="caron" unicode="&#x2c7;" 
d="M202 579l-123 125l52 44l120 -97l122 97l48 -44l-127 -125h-92z" />
    <glyph glyph-name="uni02C9" unicode="&#x2c9;" 
d="M94 606v82h311v-82h-311z" />
    <glyph glyph-name="breve" unicode="&#x2d8;" 
d="M419 707c-11.333 -42 -30.668 -75 -58.001 -99s-65 -36 -113 -36s-85 12 -111 36s-44.667 57 -56 99l70 24c10 -29.333 22.5 -50.666 37.5 -63.999s35.5 -20 61.5 -20s47.333 6.66699 64 20s30.334 34.666 41.001 63.999z" />
    <glyph glyph-name="dotaccent" unicode="&#x2d9;" 
d="M325 691c0 -23.333 -6.5 -41.5 -19.5 -54.5s-31.5 -19.5 -55.5 -19.5c-23.333 0 -41.666 6.5 -54.999 19.5s-20 31.167 -20 54.5s6.66699 41.5 20 54.5s31.666 19.5 54.999 19.5c24 0 42.5 -6.5 55.5 -19.5s19.5 -31.167 19.5 -54.5z" />
    <glyph glyph-name="ring" unicode="&#x2da;" 
d="M359 666c0 -29.333 -9.33203 -52.5 -27.999 -69.5s-43 -25.5 -73 -25.5c-30.667 0 -55.334 8.33301 -74.001 25s-28 39.334 -28 68.001c0 31.333 10 55.5 30 72.5s44 25.5 72 25.5s51.833 -8.33301 71.5 -25s29.5 -40.334 29.5 -71.001zM258.001 625
c26.667 0 40 13.666 40 40.999c0 14.667 -3.66699 25.334 -11 32.001s-17 10 -29 10s-21.833 -3.33301 -29.5 -10s-11.5 -17.667 -11.5 -33c0 -26.667 13.667 -40 41 -40z" />
    <glyph glyph-name="ogonek" unicode="&#x2db;" 
d="M347 -200c-17.333 -8 -35.001 -14.001 -53.001 -18.001s-34.667 -6 -50 -6c-31.333 0 -55.333 7.16699 -72 21.5s-25 34.833 -25 61.5c0 18 4.16699 35.167 12.5 51.5s18.5 31.333 30.5 45s24.833 26 38.5 37l36.5 28.5l64 -17c-8 -6.66699 -17 -14.667 -27 -24
s-19.167 -19.166 -27.5 -29.499s-15.5 -21.333 -21.5 -33s-9 -23.167 -9 -34.5c0 -20.667 10 -31 30 -31c14.667 0 31.334 3.66699 50.001 11z" />
    <glyph glyph-name="tilde" unicode="&#x2dc;" 
d="M405 639c-11.333 -18.667 -21.835 -32.3291 -31.502 -40.9961s-21.167 -13 -34.5 -13c-7.33301 0 -15.666 0.833008 -24.999 2.5s-20 4.16699 -32 7.5c-20 5.33301 -40.667 11.166 -62 17.499s-37 10.166 -47 11.499c-6 1.33301 -11.333 -0.333984 -16 -5.00098l-35 -36
l-49 33l29 47c18.667 30 39.667 45 63 45c6.66699 0 14 -0.833008 22 -2.5s17.333 -3.83398 28 -6.50098l31 -9c11.333 -3.33301 22.5 -6.33301 33.5 -9s20.833 -5.16699 29.5 -7.5s15.334 -3.83301 20.001 -4.5c5.33301 -0.666992 10 1 14 5l32 35l53 -33z" />
    <glyph glyph-name="hungarumlaut" unicode="&#x2dd;" 
d="M111 565l-48 39l137 182l74 -63zM291 565l-49 39l138 181l74 -62z" />
    <glyph glyph-name="uni0394" unicode="&#x394;" horiz-adv-x="688" 
d="M18 0l253 724h141l258 -724h-652zM158 100h352l-179 525z" />
    <glyph glyph-name="uni03A9" unicode="&#x3a9;" horiz-adv-x="811" 
d="M469 0l-0.000976562 165.998c17.333 6.66699 35.5 16.667 54.5 30s36.5 30.333 52.5 51s29.167 45.167 39.5 73.5s15.5 60.5 15.5 96.5c0 78 -19.333 135 -58 171s-90.667 54 -156 54c-32 0 -61.667 -5 -89 -15s-50.833 -24.833 -70.5 -44.5s-35 -44.5 -46 -74.5
s-16.5 -65 -16.5 -105c0 -31.333 4 -59.666 12 -84.999s19 -47.833 33 -67.5s30.333 -36.5 49 -50.5s38.334 -25.333 59.001 -34v-166h-303v165h81l14 -69c1.33301 -5.33301 3 -8.5 5 -9.5s5.66699 -1.5 11 -1.5h106v44c-62 23.333 -108.667 59.5 -140 108.5
s-47 105.833 -47 170.5c0 48.667 7.83301 93.167 23.5 133.5s38.334 75 68.001 104s65.834 51.5 108.501 67.5s90.667 24 144 24c57.333 0 106.666 -7.33301 147.999 -22s75.666 -35.5 102.999 -62.5s47.5 -59.333 60.5 -97s19.5 -79.5 19.5 -125.5
c0 -36.667 -5.33301 -70.5 -16 -101.5s-25 -59.167 -43 -84.5s-38.833 -47.666 -62.5 -66.999s-48.5 -35.333 -74.5 -48v-44h101c5.33301 0 9 0.5 11 1.5s3.66699 4.16699 5 9.5l15 69h80v-165h-297z" />
    <glyph glyph-name="uni03BC" unicode="&#x3bc;" horiz-adv-x="629" 
d="M435 0l-8.00195 59.001h-5c-20.667 -22 -42 -39.333 -64 -52s-47 -19 -75 -19c-17.333 0 -33.166 2.5 -47.499 7.5s-26.166 12.167 -35.499 21.5l-2 -2l13 -191h-118v693h115v-339c0 -15.333 0.833008 -29.166 2.5 -41.499s5.33398 -22.833 11.001 -31.5
s13.334 -15.334 23.001 -20.001s22.5 -7 38.5 -7c25.333 0 48.666 6.66699 69.999 20s41.666 31 60.999 53v366h115v-426c0 -6.66699 0.833008 -11.334 2.5 -14.001s5.16699 -4.66699 10.5 -6l53 -7v-64h-160z" />
    <glyph glyph-name="pi" unicode="&#x3c0;" horiz-adv-x="668" 
d="M434 0l-0.00195312 433.996h-202v-434h-179v64l48 7c6.66699 0.666992 10.834 1.83398 12.501 3.50098s2.83398 5.5 3.50098 11.5v338c0 7.33301 -0.833008 12.333 -2.5 15s-6.16699 4.33398 -13.5 5.00098l-55 7v66h576v-66l-57 -7
c-7.33301 -1.33301 -11.833 -3.16602 -13.5 -5.49902s-2.5 -7.16602 -2.5 -14.499v-333c0 -8 0.833008 -13 2.5 -15s6.16699 -3.66699 13.5 -5l47 -7v-64h-178z" />
    <glyph glyph-name="afii10023" unicode="&#x401;" horiz-adv-x="633" 
d="M284 842c0 -18.667 -5.66699 -33.5 -17 -44.5s-26.333 -16.5 -45 -16.5s-33.834 5.5 -45.501 16.5s-17.5 25.833 -17.5 44.5s5.83301 33.5 17.5 44.5s26.834 16.5 45.501 16.5s33.667 -5.5 45 -16.5s17 -25.833 17 -44.5zM488 842c0 -18.667 -5.66699 -33.5 -17 -44.5
s-26.333 -16.5 -45 -16.5s-33.667 5.5 -45 16.5s-17 25.833 -17 44.5s5.66699 33.5 17 44.5s26.333 16.5 45 16.5s33.667 -5.5 45 -16.5s17 -25.833 17 -44.5zM52 0v64.001l63 7c7.33301 1.33301 11.833 3.16602 13.5 5.49902s2.5 7.16602 2.5 14.499v541
c0 7.33301 -0.833008 12.333 -2.5 15s-6.16699 4.33398 -13.5 5.00098l-63 7v65h514v-180l-85 4l-14 77c-2 8.66699 -7.66699 13 -17 13h-202v-230h254v-87h-254v-236h224c5.33301 0 9 0.5 11 1.5s3.66699 4.16699 5 9.5l16 88h84v-184h-536z" />
    <glyph glyph-name="afii10051" unicode="&#x402;" horiz-adv-x="815" 
d="M542 79c3.33301 -1.33301 6.5 -1.99707 9.5 -1.99707h10.5c64.667 0 97 41 97 123c0 24.667 -4 45.167 -12 61.5s-18.667 29.5 -32 39.5s-28.833 17.167 -46.5 21.5s-36.5 6.5 -56.5 6.5c-23.333 0 -45.5 -1.5 -66.5 -4.5s-41.5 -6.5 -61.5 -10.5v-314h-195v64l63 7
c7.33301 1.33301 11.833 3.16602 13.5 5.49902s2.5 7.16602 2.5 14.499v547h-124c-5.33301 0 -9 -0.5 -11 -1.5s-3.66699 -4.16699 -5 -9.5l-16 -87h-84v184h647v-184h-83l-17 86c-1.33301 5.33301 -3.16602 8.66602 -5.49902 9.99902s-6.16602 2 -11.499 2h-174v-234
c18 3.33301 39.833 6.83301 65.5 10.5s55.5 5.5 89.5 5.5c73.333 0 131.333 -18.5 174 -55.5s64 -89.833 64 -158.5c0 -28.667 -3.83301 -56 -11.5 -82s-20 -48.833 -37 -68.5s-38.833 -35.167 -65.5 -46.5s-59.334 -17 -98.001 -17c-10 0 -20.833 0.5 -32.5 1.5
s-23.334 2.33301 -35.001 4s-22.667 3.83398 -33 6.50098s-19.166 5.66699 -26.499 9v148h77l14 -68c1.33301 -4.66699 2.66602 -7.83398 3.99902 -9.50098s4.33301 -3.16699 9 -4.5z" />
    <glyph glyph-name="afii10052" unicode="&#x403;" horiz-adv-x="596" 
d="M249 766l-31 55l196 126l46 -84zM52 0l-0.00195312 64.002l63 7c7.33301 1.33301 11.833 3.16602 13.5 5.49902s2.5 7.16602 2.5 14.499v541c0 7.33301 -0.833008 12.333 -2.5 15s-6.16699 4.33398 -13.5 5.00098l-63 7v65h510v-192l-83 3l-17 91
c-1.33301 5.33301 -3.16602 8.66602 -5.49902 9.99902s-6.16602 2 -11.499 2h-197v-546c0 -8 0.833008 -13 2.5 -15s6.16699 -3.66699 13.5 -5l144 -8v-64h-356z" />
    <glyph glyph-name="afii10053" unicode="&#x404;" horiz-adv-x="682" 
d="M631 42c-14 -8.66699 -30.334 -16.499 -49.001 -23.499s-38.5 -12.667 -59.5 -17s-42.667 -7.66602 -65 -9.99902s-44.5 -3.5 -66.5 -3.5c-62 0 -115.167 8.83301 -159.5 26.5s-80.666 43 -108.999 76s-49 72.667 -62 119s-19.5 98.5 -19.5 156.5
c0 54 7.5 103.667 22.5 149s37.5 84.5 67.5 117.5s67.5 58.667 112.5 77s97.833 27.5 158.5 27.5c44 0 86 -4.83301 126 -14.5s73 -23.167 99 -40.5v-175l-85 6l-17 97c-0.666992 8.66699 -5.33398 14.334 -14.001 17.001c-15.333 5.33301 -32.666 9.66602 -51.999 12.999
s-39.333 5 -60 5c-68 0 -122.667 -19.833 -164 -59.5s-65 -99.834 -71 -180.501h292v-88h-291c6.66699 -82 30 -142.167 70 -180.5s93.667 -57.5 161 -57.5c20 0 41.167 1.16699 63.5 3.5s41.833 6.83301 58.5 13.5c5.33301 1.33301 9 3.16602 11 5.49902
s3.66699 6.83301 5 13.5l16 92h81v-165z" />
    <glyph glyph-name="afii10054" unicode="&#x405;" horiz-adv-x="588" 
d="M432 528l-14.001 82.998c-2 10 -5.33301 16.333 -10 19c-6 3.33301 -16.5 6.83301 -31.5 10.5s-33.833 5.5 -56.5 5.5c-46 0 -80.333 -9.33301 -103 -28s-34 -44 -34 -76c0 -18.667 4 -34.5 12 -47.5s18.833 -24 32.5 -33s29.5 -16.667 47.5 -23s36.667 -12.5 56 -18.5
c24.667 -7.33301 49.334 -15.666 74.001 -24.999s47 -21.666 67 -36.999s36.333 -35.166 49 -59.499s19 -55.166 19 -92.499c0 -40 -7.16699 -73.833 -21.5 -101.5s-33.833 -50.167 -58.5 -67.5s-53.5 -29.833 -86.5 -37.5s-67.833 -11.5 -104.5 -11.5
c-22.667 0 -45.167 1.33301 -67.5 4s-43.333 5.83398 -63 9.50098s-37 7.83398 -52 12.501s-26.833 9 -35.5 13v176h85l20 -90c1.33301 -6.66699 2.83301 -11.167 4.5 -13.5s5.83398 -4.5 12.501 -6.5c7.33301 -2 19.833 -5 37.5 -9s39.167 -6 64.5 -6
c47.333 0 84 9.16699 110 27.5s39 46.833 39 85.5c0 20 -4 36.667 -12 50s-18.667 24.666 -32 33.999s-28.833 17.166 -46.5 23.499s-36.167 12.166 -55.5 17.499c-24.667 7.33301 -49.5 15.166 -74.5 23.499s-47.667 20 -68 35s-36.833 34.333 -49.5 58s-19 54.5 -19 92.5
c0 36.667 6.66699 68.334 20 95.001s31.5 48.667 54.5 66s50.333 30.166 82 38.499s65.5 12.5 101.5 12.5c42.667 0 80.667 -4.33301 114 -13s59.666 -16.667 78.999 -24v-180z" />
    <glyph glyph-name="afii10055" unicode="&#x406;" horiz-adv-x="397" 
d="M51 0v63.998l73 7c7.33301 0.666992 11.833 2.33398 13.5 5.00098s2.5 7.66699 2.5 15v542c0 7.33301 -0.833008 12.333 -2.5 15s-6.16699 4.33398 -13.5 5.00098l-73 7v64h299v-64l-77 -8c-7.33301 -1.33301 -11.833 -3 -13.5 -5s-2.5 -6.66699 -2.5 -14v-541
c0 -8 0.833008 -13 2.5 -15s6.16699 -3.66699 13.5 -5l77 -8v-64h-299z" />
    <glyph glyph-name="afii10056" unicode="&#x407;" horiz-adv-x="397" 
d="M51 0v63.998l73 7c7.33301 0.666992 11.833 2.33398 13.5 5.00098s2.5 7.66699 2.5 15v542c0 7.33301 -0.833008 12.333 -2.5 15s-6.16699 4.33398 -13.5 5.00098l-73 7v64h299v-64l-77 -8c-7.33301 -1.33301 -11.833 -3 -13.5 -5s-2.5 -6.66699 -2.5 -14v-541
c0 -8 0.833008 -13 2.5 -15s6.16699 -3.66699 13.5 -5l77 -8v-64h-299zM34 841.998c0 18.667 5.83301 33.5 17.5 44.5s26.834 16.5 45.501 16.5s33.667 -5.5 45 -16.5s17 -25.833 17 -44.5s-5.66699 -33.5 -17 -44.5s-26.333 -16.5 -45 -16.5s-33.834 5.5 -45.501 16.5
s-17.5 25.833 -17.5 44.5zM239 841.998c0 18.667 5.66699 33.5 17 44.5s26.333 16.5 45 16.5s33.667 -5.5 45 -16.5s17 -25.833 17 -44.5s-5.66699 -33.5 -17 -44.5s-26.333 -16.5 -45 -16.5s-33.667 5.5 -45 16.5s-17 25.833 -17 44.5z" />
    <glyph glyph-name="afii10057" unicode="&#x408;" horiz-adv-x="511" 
d="M277 634c0 6.66699 -1.00098 11.168 -3.00098 13.501s-6.33301 3.83301 -13 4.5l-87 8v64h303v-64l-67 -8c-7.33301 -1.33301 -11.833 -3 -13.5 -5s-2.5 -6.66699 -2.5 -14v-480c0 -56.667 -13.5 -98.334 -40.5 -125.001s-71.5 -40 -133.5 -40
c-19.333 0 -38.166 1.16699 -56.499 3.5s-35.333 5.33301 -51 9s-29.167 7.5 -40.5 11.5s-20 8 -26 12v155l85 -6l11 -70c0.666992 -6.66699 4.33398 -11.334 11.001 -14.001c4 -1.33301 11.167 -3.16602 21.5 -5.49902s22.166 -3.5 35.499 -3.5c26.667 0 44.5 6 53.5 18
s13.5 31.667 13.5 59v477z" />
    <glyph glyph-name="afii10058" unicode="&#x409;" horiz-adv-x="1026" 
d="M981 227c0 -40 -6.66895 -74.3242 -20.002 -102.991s-31.666 -52.167 -54.999 -70.5s-51.166 -31.833 -83.499 -40.5s-67.5 -13 -105.5 -13h-292v64l63 7c7.33301 1.33301 11.833 3.16602 13.5 5.49902s2.5 7.16602 2.5 14.499v547h-193
c1.33301 -68.667 0.833008 -136.834 -1.5 -204.501s-7.16602 -128.5 -14.499 -182.5c-4.66699 -36.667 -12.334 -70.334 -23.001 -101.001s-25.667 -57.5 -45 -80.5s-43.666 -41.667 -72.999 -56s-65.333 -23.5 -108 -27.5l-20 105c24 3.33301 44.833 9.16602 62.5 17.499
s33 19.666 46 33.999s23.667 32.666 32 54.999s14.833 49.166 19.5 80.499c3.33301 18 6 39.667 8 65s3.83301 53.333 5.5 84s2.66699 63 3 97s0.166016 68.667 -0.500977 104c0 9.33301 -0.833008 15.5 -2.5 18.5s-6.16699 5.16699 -13.5 6.5l-65 7v64h613v-64l-97 -9
c-6.66699 -0.666992 -11 -2.33398 -13 -5.00098s-3.33301 -7.66699 -4 -15v-200h123c44.667 0 82.167 -5.16699 112.5 -15.5s54.833 -24.5 73.5 -42.5s32 -39.5 40 -64.5s12 -52.167 12 -81.5zM704.998 87.0088c22 0 42.5 2.00098 61.5 6.00098s35.333 11.167 49 21.5
s24.5 24.166 32.5 41.499s12 39.333 12 66c0 46 -13 78.333 -39 97s-60.333 28 -103 28h-98v-260h85z" />
    <glyph glyph-name="afii10059" unicode="&#x40a;" horiz-adv-x="1048" 
d="M248 410l279.998 0.00585938v223c0 7.33301 -0.833008 12.166 -2.5 14.499s-6.16699 4.16602 -13.5 5.49902l-63 7v64h309v-64l-97 -9c-6.66699 -0.666992 -11 -2.33398 -13 -5.00098s-3.33301 -7.66699 -4 -15v-221h118c45.333 0 83.333 -4.66699 114 -14
s55.5 -22.5 74.5 -39.5s32.5 -37.833 40.5 -62.5s12 -52 12 -82c0 -38 -6.66699 -70.333 -20 -97s-31.666 -48.5 -54.999 -65.5s-51.166 -29.5 -83.499 -37.5s-67.5 -12 -105.5 -12h-290v64l63 7c7.33301 1.33301 11.833 3.16602 13.5 5.49902s2.5 7.16602 2.5 14.499v234
h-280v-233c0 -8 0.833008 -13 2.5 -15s6.16699 -3.66699 13.5 -5l67 -8v-64h-279v64l63 7c7.33301 1.33301 11.833 3.16602 13.5 5.49902s2.5 7.16602 2.5 14.499v542c0 7.33301 -0.833008 12.333 -2.5 15s-6.16699 4.33398 -13.5 5.00098l-63 7v64h279v-64l-67 -8
c-7.33301 -1.33301 -11.833 -3 -13.5 -5s-2.5 -6.66699 -2.5 -14v-223zM726.998 87.0059c22 0 42.5 1.66406 61.5 4.99707s35.333 9.5 49 18.5s24.5 21.5 32.5 37.5s12 36.333 12 61c0 22.667 -3.33301 41.334 -10 56.001s-16.334 26.334 -29.001 35.001
s-27.667 14.834 -45 18.501s-36.666 5.5 -57.999 5.5h-96v-237h83z" />
    <glyph glyph-name="afii10060" unicode="&#x40b;" horiz-adv-x="867" 
d="M384 413c23.333 6 49.165 11.165 77.498 15.498s57.166 6.5 86.499 6.5c69.333 0 119.5 -15.667 150.5 -47s46.5 -79.333 46.5 -144v-153c0 -7.33301 0.833008 -12.166 2.5 -14.499s6.16699 -4.16602 13.5 -5.49902l64 -7v-64h-260v63l45 6c8 1.33301 13 3.33301 15 6
s3 7.66699 3 15v133c0 41.333 -7.16699 71.5 -21.5 90.5s-42.166 28.5 -83.499 28.5c-21.333 0 -44.833 -2 -70.5 -6s-48.5 -8.66699 -68.5 -14v-230c0 -8 0.833008 -13.167 2.5 -15.5s6.16699 -4.16602 13.5 -5.49902l65 -7v-64h-279v64l65 8
c6.66699 1.33301 11.167 3.33301 13.5 6s3.5 7.66699 3.5 15v545h-124c-5.33301 0 -9 -0.5 -11 -1.5s-3.66699 -4.16699 -5 -9.5l-16 -87h-84v184h647v-184h-84l-17 86c-1.33301 5.33301 -3.16602 8.66602 -5.49902 9.99902s-6.16602 2 -11.499 2h-173v-225z" />
    <glyph glyph-name="afii10061" unicode="&#x40c;" horiz-adv-x="752" 
d="M337 766l-31 55l196 126l46 -84zM248 412l70.0078 -0.00195312c23.333 0 42.166 3.83301 56.499 11.5s26.833 24.834 37.5 51.501l64 160c13.333 34 30.166 59.5 50.499 76.5s50.166 25.5 89.499 25.5c8 -0.666992 17 -1.5 27 -2.5s19 -2.16699 27 -3.5l-4 -82
c-10.667 2 -20.334 3 -29.001 3c-18.667 0 -32.334 -4.5 -41.001 -13.5s-16.334 -22.5 -23.001 -40.5l-48 -133c-10.667 -29.333 -24.667 -50.333 -42 -63s-33.333 -21.334 -48 -26.001v-1c9.33301 -2.66699 17.833 -6.66699 25.5 -12s15.167 -12.166 22.5 -20.499
s14.666 -18.5 21.999 -30.5s15.666 -26.667 24.999 -44l90 -168c4.66699 -8 8.83398 -13.833 12.501 -17.5s9.16699 -6.16699 16.5 -7.5l65 -11v-64h-183c-8.66699 22.667 -18.834 46.167 -30.501 70.5l-35 71l-34 65l-27.5 51.5c-7.33301 13.333 -14.333 24.333 -21 33
s-13.667 15.5 -21 20.5s-15.833 8.5 -25.5 10.5s-21.167 3 -34.5 3h-54v-233c0 -8 0.833008 -13 2.5 -15s6.16699 -3.66699 13.5 -5l67 -8v-64h-279v64l63 7c7.33301 1.33301 11.833 3.33301 13.5 6s2.5 7.66699 2.5 15v541c0 7.33301 -0.833008 12.333 -2.5 15
s-6.16699 4.33398 -13.5 5.00098l-63 7v64h279v-64l-67 -8c-7.33301 -1.33301 -11.833 -3 -13.5 -5s-2.5 -6.66699 -2.5 -14v-221z" />
    <glyph glyph-name="afii10062" unicode="&#x40e;" horiz-adv-x="676" 
d="M367 853c25.333 0 43.832 6.83203 55.499 20.499s21.167 32.167 28.5 55.5l77 -23c-9.33301 -38 -26.833 -68.167 -52.5 -90.5s-62.5 -33.5 -110.5 -33.5s-85.167 10.833 -111.5 32.5s-43.5 51.834 -51.5 90.501l81 25c4.66699 -23.333 13.334 -42 26.001 -56
s32 -21 58 -21zM397.999 143.999c-12 -28.667 -24.167 -53.001 -36.5 -73.001s-25.666 -36.167 -39.999 -48.5s-30.666 -21.166 -48.999 -26.499s-39.5 -8 -63.5 -8c-22.667 0 -47 3 -73 9s-47.333 14 -64 24l32 84c10.667 -6 24.5 -11.5 41.5 -16.5s34.167 -7.5 51.5 -7.5
c13.333 0 24.5 1.5 33.5 4.5s16.667 7.66699 23 14s12.166 14.333 17.499 24s10.666 21.167 15.999 34.5l-200 471c-2.66699 6 -6 10.5 -10 13.5s-9 5.16699 -15 6.5l-45 11l10 64h253v-64l-74 -9l146 -380h4l150 380l-71 9l10 64h221v-64l-42 -11
c-9.33301 -2.66699 -15.5 -6 -18.5 -10s-6.83301 -11.333 -11.5 -22z" />
    <glyph glyph-name="afii10145" unicode="&#x40f;" horiz-adv-x="784" 
d="M50 0l0.000976562 64.001l65 8c7.33301 0.666992 11.833 2.16699 13.5 4.5s2.5 7.16602 2.5 14.499v542c0 7.33301 -0.833008 12.166 -2.5 14.499s-6.16699 4.16602 -13.5 5.49902l-65 7v64h275v-64l-61 -7c-7.33301 -1.33301 -11.833 -3.16602 -13.5 -5.49902
s-2.5 -7.16602 -2.5 -14.499v-547h288v547c0 7.33301 -0.833008 12.166 -2.5 14.499s-6.16699 4.16602 -13.5 5.49902l-61 7v64h275v-64l-65 -7c-7.33301 -1.33301 -11.833 -3.16602 -13.5 -5.49902s-2.5 -7.16602 -2.5 -14.499v-542c0 -7.33301 0.833008 -12 2.5 -14
s6.16699 -3.66699 13.5 -5l65 -8v-64h-268c-8.66699 0 -13.334 -4.33301 -14.001 -13l-18 -146l-76 4l-18 142c-0.666992 8.66699 -5 13 -13 13h-277z" />
    <glyph glyph-name="afii10017" unicode="&#x410;" horiz-adv-x="732" 
d="M453 0v64l82 9l-46 135h-267l-46 -135l80 -9v-64h-250v63l43 11c6 1.33301 11.167 3.33301 15.5 6s7.5 7 9.5 13l220 631h141l221 -633c2 -6 5 -10 9 -12s9 -3.66699 15 -5l46 -11v-63h-273zM358 613h-3l-107 -317h216z" />
    <glyph glyph-name="afii10018" unicode="&#x411;" horiz-adv-x="675" 
d="M52 64l62.9971 7.00293c7.33301 1.33301 11.833 3.16602 13.5 5.49902s2.5 7.16602 2.5 14.499v541c0 8 -0.833008 13 -2.5 15s-6.16699 3.66699 -13.5 5l-63 7v65h510v-191l-83 4l-16 89c-1.33301 5.33301 -3.16602 8.66602 -5.49902 9.99902s-6.16602 2 -11.499 2h-199
v-235h143c42.667 0 79.167 -4.5 109.5 -13.5s55.166 -21.833 74.499 -38.5s33.5 -36.667 42.5 -60s13.5 -49 13.5 -77c0 -38 -6.33301 -70.667 -19 -98s-30.667 -49.5 -54 -66.5s-51.166 -29.5 -83.499 -37.5s-68.166 -12 -107.499 -12h-314v64zM351.997 87.0029
c23.333 0 44.5 1.66699 63.5 5s35.5 9.5 49.5 18.5s24.833 21.5 32.5 37.5s11.5 36.333 11.5 61c0 22.667 -3.83301 41.167 -11.5 55.5s-18 25.5 -31 33.5s-28.5 13.5 -46.5 16.5s-37.667 4.5 -59 4.5h-114v-232h105z" />
    <glyph glyph-name="afii10019" unicode="&#x412;" horiz-adv-x="668" 
d="M52 0v64.0039l63 7c7.33301 1.33301 11.833 3.16602 13.5 5.49902s2.5 7.16602 2.5 14.499v541c0 7.33301 -0.833008 12.333 -2.5 15s-6.16699 4.33398 -13.5 5.00098l-63 7v65h313c42.667 0 78.167 -4.5 106.5 -13.5s50.833 -21.5 67.5 -37.5
s28.334 -34.833 35.001 -56.5s10 -44.834 10 -69.501c0 -24 -3.5 -45.167 -10.5 -63.5s-16.167 -34.5 -27.5 -48.5s-24.333 -25.5 -39 -34.5s-29.667 -16.167 -45 -21.5v-3c57.333 -6.66699 99.666 -25.167 126.999 -55.5s41 -70.5 41 -120.5
c0 -36.667 -6.66699 -67.834 -20 -93.501s-32 -46.334 -56 -62.001s-52.5 -27 -85.5 -34s-69.167 -10.5 -108.5 -10.5h-308zM343 87.0039c24 0 46.167 1.5 66.5 4.5s37.833 8.83301 52.5 17.5s26.167 20.834 34.5 36.501s12.5 36.167 12.5 61.5
c0 23.333 -3.83301 42.666 -11.5 57.999s-18.167 27.5 -31.5 36.5s-29 15.5 -47 19.5s-37.333 6 -58 6h-114v-240h96zM316 413.004c19.333 0 38.168 1.5 56.501 4.5s34.666 8.83301 48.999 17.5s26 20.5 35 35.5s13.5 34.833 13.5 59.5c0 22 -3.16699 40 -9.5 54
s-15.5 24.833 -27.5 32.5s-26.5 13 -43.5 16s-36.5 4.5 -58.5 4.5h-84v-224h69z" />
    <glyph glyph-name="afii10020" unicode="&#x413;" horiz-adv-x="596" 
d="M52 0l-0.00195312 64.002l63 7c7.33301 1.33301 11.833 3.16602 13.5 5.49902s2.5 7.16602 2.5 14.499v541c0 7.33301 -0.833008 12.333 -2.5 15s-6.16699 4.33398 -13.5 5.00098l-63 7v65h510v-192l-83 3l-17 91c-1.33301 5.33301 -3.16602 8.66602 -5.49902 9.99902
s-6.16602 2 -11.499 2h-197v-546c0 -8 0.833008 -13 2.5 -15s6.16699 -3.66699 13.5 -5l144 -8v-64h-356z" />
    <glyph glyph-name="afii10021" unicode="&#x414;" horiz-adv-x="778" 
d="M153 0c-5.33301 0 -9 -1 -11 -3s-3.33301 -5.33301 -4 -10l-20 -132l-84 -4v235h58c18.667 25.333 35.167 52 49.5 80s26.333 59.5 36 94.5s17 75 22 120s7.5 96.833 7.5 155.5v95c0 7.33301 -0.833008 12.5 -2.5 15.5s-6.16699 5.16699 -13.5 6.5l-63 7v64h600v-64
l-67 -8c-6.66699 -1.33301 -11 -3.33301 -13 -6s-3 -7.66699 -3 -15v-545h80v-235l-85 4l-18 132c-0.666992 8.66699 -6 13 -16 13h-453zM317 541c0 -106 -7.66797 -195.833 -23.001 -269.5s-40.666 -135.5 -75.999 -185.5h310v552h-211v-97z" />
    <glyph glyph-name="afii10022" unicode="&#x415;" horiz-adv-x="633" 
d="M52 0v64.001l63 7c7.33301 1.33301 11.833 3.16602 13.5 5.49902s2.5 7.16602 2.5 14.499v541c0 7.33301 -0.833008 12.333 -2.5 15s-6.16699 4.33398 -13.5 5.00098l-63 7v65h514v-180l-85 4l-14 77c-2 8.66699 -7.66699 13 -17 13h-202v-230h254v-87h-254v-236h224
c5.33301 0 9 0.5 11 1.5s3.66699 4.16699 5 9.5l16 88h84v-184h-536z" />
    <glyph glyph-name="afii10024" unicode="&#x416;" horiz-adv-x="1055" 
d="M585 414l50.9883 -0.00292969c23.333 0 41.5 4 54.5 12s24.167 25.333 33.5 52l55 151c6.66699 18 13.667 33.833 21 47.5s16.333 25 27 34s23.5 15.667 38.5 20s33.5 6.5 55.5 6.5c11.333 0 21.333 -0.666992 30 -2l25 -4l-5 -82
c-5.33301 0.666992 -10.166 1.16699 -14.499 1.5s-8.5 0.5 -12.5 0.5c-11.333 -0.666992 -20.666 -2.5 -27.999 -5.5s-13.666 -8 -18.999 -15s-10.166 -16 -14.499 -27l-15.5 -40.5l-33 -94c-10 -28.667 -21.667 -49.667 -35 -63s-28.333 -22.666 -45 -27.999v-1
c18 -5.33301 33 -14.666 45 -27.999s25 -34 39 -62l96 -187c4 -8 7.83301 -13.833 11.5 -17.5s9.16699 -6.16699 16.5 -7.5l67 -11v-64h-186c-9.33301 24.667 -19.666 49.5 -30.999 74.5l-33.5 72l-32 64l-26.5 50.5c-7.33301 14 -14.166 25.167 -20.499 33.5
s-13 14.833 -20 19.5s-14.667 7.83398 -23 9.50098s-18.5 2.5 -30.5 2.5h-41v-233c0 -8 0.833008 -13.167 2.5 -15.5s6.16699 -4.16602 13.5 -5.49902l60 -8v-64h-267v64l59 7c7.33301 1.33301 11.833 3.33301 13.5 6s2.5 8.33398 2.5 17.001v232h-45
c-11.333 0 -21.166 -0.833008 -29.499 -2.5s-16 -4.83398 -23 -9.50098s-13.667 -11.334 -20 -20.001s-13.166 -19.667 -20.499 -33l-26.5 -50l-32 -64.5l-33.5 -72.5c-11.333 -25.333 -21.666 -50 -30.999 -74h-182v64l66 11c9.33301 1.33301 16 4.5 20 9.5
s8.66699 12.5 14 22.5l82 161l24.5 44.5c7 12.333 14.167 22.666 21.5 30.999s14.833 15 22.5 20s16.5 9.16699 26.5 12.5v1c-15.333 4.66699 -30.666 13.5 -45.999 26.5s-27.666 34.167 -36.999 63.5l-39 119c-7.33301 22 -15 38 -23 48s-21.667 15.667 -41 17
c-4 0 -8.83301 -0.166992 -14.5 -0.5s-11.167 -0.833008 -16.5 -1.5l-5 81c10 2 21.333 3.66699 34 5s23.667 2 33 2c18.667 0 34.5 -1.66699 47.5 -5s24.333 -8.5 34 -15.5s17.834 -16.333 24.501 -28s13 -25.834 19 -42.501l46 -130c7.33301 -20.667 14 -37.667 20 -51
s12.667 -23.666 20 -30.999s16 -12.5 26 -15.5s22.333 -4.5 37 -4.5h47v219c0 7.33301 -0.833008 12.333 -2.5 15s-6.16699 4.33398 -13.5 5.00098l-61 7v64h273v-64l-64 -8c-7.33301 -1.33301 -11.833 -3 -13.5 -5s-2.5 -6.66699 -2.5 -14v-219z" />
    <glyph glyph-name="afii10025" unicode="&#x417;" horiz-adv-x="582" 
d="M290 737c76.667 0 134.832 -15.332 174.499 -45.999s59.5 -75.667 59.5 -135c0 -46 -13.167 -84 -39.5 -114s-60.5 -50.667 -102.5 -62v-4c48 -8 86.333 -26.5 115 -55.5s43 -70.167 43 -123.5c0 -30 -5.83301 -57.667 -17.5 -83s-28.834 -47.333 -51.501 -66
s-51 -33.334 -85 -44.001s-73.667 -16 -119 -16c-21.333 0 -43 1.33301 -65 4s-42.833 6.33398 -62.5 11.001s-37.667 10.167 -54 16.5s-29.833 12.833 -40.5 19.5v164h86l18 -89c1.33301 -4.66699 2.83301 -8.16699 4.5 -10.5s5.16699 -4.83301 10.5 -7.5
c16 -6 32.833 -10.333 50.5 -13s35.167 -4 52.5 -4c21.333 0 41.333 2.5 60 7.5s34.834 12.5 48.501 22.5s24.334 22.833 32.001 38.5s11.5 34.5 11.5 56.5c0 40.667 -13 70.5 -39 89.5s-61.667 28.5 -107 28.5h-102v90h61c55.333 0 98 12 128 36s45 55.333 45 94
c0 20 -3.33301 37 -10 51s-15.667 25.167 -27 33.5s-24.666 14.333 -39.999 18s-32 5.5 -50 5.5c-19.333 0 -37 -1.5 -53 -4.5s-31.667 -6.83301 -47 -11.5c-8 -2.66699 -12.667 -8.66699 -14 -18l-17 -90l-85 -6v160c25.333 15.333 58.666 28.666 99.999 39.999
s84 17 128 17z" />
    <glyph glyph-name="afii10026" unicode="&#x418;" horiz-adv-x="823" 
d="M498 0v64.0029l63 7c7.33301 1.33301 11.833 3.16602 13.5 5.49902s2.5 7.16602 2.5 14.499v478h-4l-320 -569h-201v64l63 7c7.33301 1.33301 11.833 3.16602 13.5 5.49902s2.5 7.16602 2.5 14.499v542c0 7.33301 -0.833008 12.333 -2.5 15
s-6.16699 4.33398 -13.5 5.00098l-63 7v64h277v-64l-67 -8c-7.33301 -1.33301 -11.833 -3 -13.5 -5s-2.5 -6.66699 -2.5 -14v-468h4l315 559h210v-64l-67 -8c-7.33301 -1.33301 -11.833 -3 -13.5 -5s-2.5 -6.66699 -2.5 -14v-541c0 -8 0.833008 -13 2.5 -15
s6.16699 -3.66699 13.5 -5l67 -8v-64h-277z" />
    <glyph glyph-name="afii10027" unicode="&#x419;" horiz-adv-x="823" 
d="M442 853c25.333 0 43.832 6.83203 55.499 20.499s21.167 32.167 28.5 55.5l77 -23c-9.33301 -38 -26.833 -68.167 -52.5 -90.5s-62.5 -33.5 -110.5 -33.5s-85.167 10.833 -111.5 32.5s-43.5 51.834 -51.5 90.501l81 25c4.66699 -23.333 13.334 -42 26.001 -56
s32 -21 58 -21zM497.999 -0.000976562v64.0029l63 7c7.33301 1.33301 11.833 3.16602 13.5 5.49902s2.5 7.16602 2.5 14.499v478h-4l-320 -569h-201v64l63 7c7.33301 1.33301 11.833 3.16602 13.5 5.49902s2.5 7.16602 2.5 14.499v542c0 7.33301 -0.833008 12.333 -2.5 15
s-6.16699 4.33398 -13.5 5.00098l-63 7v64h277v-64l-67 -8c-7.33301 -1.33301 -11.833 -3 -13.5 -5s-2.5 -6.66699 -2.5 -14v-468h4l315 559h210v-64l-67 -8c-7.33301 -1.33301 -11.833 -3 -13.5 -5s-2.5 -6.66699 -2.5 -14v-541c0 -8 0.833008 -13 2.5 -15
s6.16699 -3.66699 13.5 -5l67 -8v-64h-277z" />
    <glyph glyph-name="afii10028" unicode="&#x41a;" horiz-adv-x="752" 
d="M248 412l70.0078 -0.00195312c23.333 0 42.166 3.83301 56.499 11.5s26.833 24.834 37.5 51.501l64 160c13.333 34 30.166 59.5 50.499 76.5s50.166 25.5 89.499 25.5c8 -0.666992 17 -1.5 27 -2.5s19 -2.16699 27 -3.5l-4 -82c-10.667 2 -20.334 3 -29.001 3
c-18.667 0 -32.334 -4.5 -41.001 -13.5s-16.334 -22.5 -23.001 -40.5l-48 -133c-10.667 -29.333 -24.667 -50.333 -42 -63s-33.333 -21.334 -48 -26.001v-1c9.33301 -2.66699 17.833 -6.66699 25.5 -12s15.167 -12.166 22.5 -20.499s14.666 -18.5 21.999 -30.5
s15.666 -26.667 24.999 -44l90 -168c4.66699 -8 8.83398 -13.833 12.501 -17.5s9.16699 -6.16699 16.5 -7.5l65 -11v-64h-183c-8.66699 22.667 -18.834 46.167 -30.501 70.5l-35 71l-34 65l-27.5 51.5c-7.33301 13.333 -14.333 24.333 -21 33s-13.667 15.5 -21 20.5
s-15.833 8.5 -25.5 10.5s-21.167 3 -34.5 3h-54v-233c0 -8 0.833008 -13 2.5 -15s6.16699 -3.66699 13.5 -5l67 -8v-64h-279v64l63 7c7.33301 1.33301 11.833 3.33301 13.5 6s2.5 7.66699 2.5 15v541c0 7.33301 -0.833008 12.333 -2.5 15s-6.16699 4.33398 -13.5 5.00098
l-63 7v64h279v-64l-67 -8c-7.33301 -1.33301 -11.833 -3 -13.5 -5s-2.5 -6.66699 -2.5 -14v-221z" />
    <glyph glyph-name="afii10029" unicode="&#x41b;" horiz-adv-x="774" 
d="M449 0l0.000976562 64l59 7c7.33301 1.33301 11.833 3.16602 13.5 5.49902s2.5 7.16602 2.5 14.499v547h-205c1.33301 -68.667 1 -136.834 -1 -204.501s-6.66699 -128.5 -14 -182.5c-4.66699 -36.667 -12.5 -70.5 -23.5 -101.5s-26.333 -58 -46 -81
s-44.167 -41.667 -73.5 -56s-65 -23.166 -107 -26.499l-20 103c25.333 4 46.833 10 64.5 18s32.834 19.333 45.501 34s23 32.667 31 54s14.333 47.333 19 78c3.33301 18 6.16602 39.833 8.49902 65.5s4.16602 53.834 5.49902 84.501s2.33301 63.334 3 98.001
s0.666992 70 0 106c0 9.33301 -1 15.5 -3 18.5s-6.66699 5.16699 -14 6.5l-65 8v64h595v-64l-67 -8c-6.66699 -1.33301 -11 -3.33301 -13 -6s-3 -7.66699 -3 -15v-539c0 -8 0.833008 -13 2.5 -15s6.16699 -3.66699 13.5 -5l67 -8v-64h-275z" />
    <glyph glyph-name="afii10030" unicode="&#x41c;" horiz-adv-x="958" 
d="M617 0v63.999l83 7c7.33301 0.666992 11.833 2.33398 13.5 5.00098s2.5 7.66699 2.5 15v455h-3l-174 -386h-130l-175 391h-2v-459c0 -8 0.833008 -13.167 2.5 -15.5s6.16699 -3.83301 13.5 -4.5l86 -8v-64h-282v64l63 7c7.33301 0.666992 11.833 2.33398 13.5 5.00098
s2.5 7.66699 2.5 15v541c0 7.33301 -0.833008 12.333 -2.5 15s-6.16699 4.33398 -13.5 5.00098l-63 7v65h225l205 -468h3l208 468h215v-64l-67 -8c-7.33301 -1.33301 -11.833 -3 -13.5 -5s-2.5 -6.66699 -2.5 -14v-542c0 -6.66699 1 -11.334 3 -14.001
s6.33301 -4.33398 13 -5.00098l67 -8v-64h-291z" />
    <glyph glyph-name="afii10031" unicode="&#x41d;" horiz-adv-x="814" 
d="M485 0v64.002l63 7c7.33301 1.33301 11.833 3.16602 13.5 5.49902s2.5 7.16602 2.5 14.499v238h-316v-237c0 -8 0.833008 -13 2.5 -15s6.16699 -3.66699 13.5 -5l67 -8v-64h-279v64l63 7c7.33301 1.33301 11.833 3.16602 13.5 5.49902s2.5 7.16602 2.5 14.499v542
c0 7.33301 -0.833008 12.333 -2.5 15s-6.16699 4.33398 -13.5 5.00098l-63 7v64h279v-64l-67 -8c-7.33301 -1.33301 -11.833 -3 -13.5 -5s-2.5 -6.66699 -2.5 -14v-216h316v216c0 7.33301 -0.833008 12.333 -2.5 15s-6.16699 4.33398 -13.5 5.00098l-63 7v64h275v-64l-63 -8
c-7.33301 -1.33301 -11.833 -3 -13.5 -5s-2.5 -6.66699 -2.5 -14v-541c0 -8 0.833008 -13 2.5 -15s6.16699 -3.66699 13.5 -5l63 -8v-64h-275z" />
    <glyph glyph-name="afii10032" unicode="&#x41e;" horiz-adv-x="769" 
d="M380 -12c-58.667 0 -109.331 9.33691 -151.998 28.0039s-77.834 44.5 -105.501 77.5s-48 72.667 -61 119s-19.5 96.833 -19.5 151.5c0 53.333 7.5 102.666 22.5 147.999s37.167 84.666 66.5 117.999s66 59.5 110 78.5s95 28.5 153 28.5s108 -9.5 150 -28.5
s76.5 -44.833 103.5 -77.5s47 -71 60 -115s19.5 -91 19.5 -141c0 -58.667 -7.16699 -111.834 -21.5 -159.501s-35.833 -88.334 -64.5 -122.001s-64.834 -59.667 -108.501 -78s-94.5 -27.5 -152.5 -27.5zM384.003 85.0039c33.333 0 63.667 5.33105 91 15.998
s50.666 27.334 69.999 50.001s34.5 51.834 45.5 87.501s16.5 78.167 16.5 127.5c0 92.667 -19 161.5 -57 206.5s-90.333 67.5 -157 67.5c-34 0 -65 -5.66699 -93 -17s-52.167 -28.5 -72.5 -51.5s-36.166 -51.667 -47.499 -86s-17 -74.5 -17 -120.5
c0 -96.667 20.167 -167.5 60.5 -212.5s93.833 -67.5 160.5 -67.5z" />
    <glyph glyph-name="afii10033" unicode="&#x41f;" horiz-adv-x="792" 
d="M467 0v64.0029l59 7c7.33301 1.33301 11.833 3.16602 13.5 5.49902s2.5 7.16602 2.5 14.499v547h-294v-546c0 -8 0.833008 -13 2.5 -15s6.16699 -3.66699 13.5 -5l63 -8v-64h-275v64l63 7c7.33301 1.33301 11.833 3.16602 13.5 5.49902s2.5 7.16602 2.5 14.499v542
c0 7.33301 -0.833008 12.333 -2.5 15s-6.16699 4.33398 -13.5 5.00098l-63 7v64h690v-64l-67 -8c-7.33301 -1.33301 -11.833 -3 -13.5 -5s-2.5 -6.66699 -2.5 -14v-541c0 -8 0.833008 -13 2.5 -15s6.16699 -3.66699 13.5 -5l67 -8v-64h-275z" />
    <glyph glyph-name="afii10034" unicode="&#x420;" horiz-adv-x="652" 
d="M52 0v64.001l63 7c7.33301 1.33301 11.833 3.16602 13.5 5.49902s2.5 7.16602 2.5 14.499v541c0 7.33301 -0.833008 12.333 -2.5 15s-6.16699 4.33398 -13.5 5.00098l-63 7v65h321c46 0 84.5 -5.66699 115.5 -17s55.833 -26.833 74.5 -46.5
s31.834 -42.334 39.501 -68.001s11.5 -52.834 11.5 -81.501c0 -43.333 -6.33301 -80.166 -19 -110.499s-30.834 -55.166 -54.501 -74.499s-52.5 -33.333 -86.5 -42s-72 -13 -114 -13h-93v-179c0 -8 0.833008 -13 2.5 -15s6.16699 -3.66699 13.5 -5l143 -8v-64h-354z
M326 357.001c22 0 43 1.66797 63 5.00098s37.667 10.166 53 20.499s27.666 25.333 36.999 45s14 45.5 14 77.5c0 25.333 -3.5 46.5 -10.5 63.5s-17.167 30.5 -30.5 40.5s-29.666 17.167 -48.999 21.5s-41.333 6.5 -66 6.5h-90v-280h79z" />
    <glyph glyph-name="afii10035" unicode="&#x421;" horiz-adv-x="682" 
d="M631 42c-28 -18 -64.1699 -31.5 -108.503 -40.5s-89.5 -13.5 -135.5 -13.5c-61.333 0 -113.833 9 -157.5 27s-79.5 43.5 -107.5 76.5s-48.5 72.833 -61.5 119.5s-19.5 98.334 -19.5 155.001c0 53.333 7.5 102.666 22.5 147.999s37.833 84.5 68.5 117.5
s68.834 58.833 114.501 77.5s98.834 28 159.501 28c43.333 0 84.833 -4.83301 124.5 -14.5s72.5 -23.167 98.5 -40.5v-175l-85 6l-17 97c-0.666992 8.66699 -5.33398 14.334 -14.001 17.001c-15.333 5.33301 -32.5 9.66602 -51.5 12.999s-39.167 5 -60.5 5
c-72.667 0 -130.5 -23.667 -173.5 -71s-64.5 -116.666 -64.5 -207.999c0 -96 20.5 -167.833 61.5 -215.5s97.5 -71.5 169.5 -71.5c20.667 0 42.334 1.16699 65.001 3.5s42.334 6.83301 59.001 13.5c5.33301 1.33301 9 3.16602 11 5.49902s3.66699 6.83301 5 13.5l16 92h81
v-165z" />
    <glyph glyph-name="afii10036" unicode="&#x422;" horiz-adv-x="675" 
d="M156 0v64.998l103 7c7.33301 0.666992 11.833 2.33398 13.5 5.00098s2.5 7.66699 2.5 15v546h-134c-5.33301 0 -9 -0.5 -11 -1.5s-3.66699 -4.16699 -5 -9.5l-16 -87h-84v184h617v-184h-83l-16 87c-1.33301 5.33301 -3 8.5 -5 9.5s-5.66699 1.5 -11 1.5h-135v-546
c0 -7.33301 0.833008 -12.166 2.5 -14.499s6.16699 -3.83301 13.5 -4.5l110 -8v-65h-362z" />
    <glyph glyph-name="afii10037" unicode="&#x423;" horiz-adv-x="676" 
d="M398 144c-12 -28.667 -24.167 -53.001 -36.5 -73.001s-25.666 -36.167 -39.999 -48.5s-30.666 -21.166 -48.999 -26.499s-39.5 -8 -63.5 -8c-22.667 0 -47 3 -73 9s-47.333 14 -64 24l32 84c10.667 -6 24.5 -11.5 41.5 -16.5s34.167 -7.5 51.5 -7.5
c13.333 0 24.5 1.5 33.5 4.5s16.667 7.66699 23 14s12.166 14.333 17.499 24s10.666 21.167 15.999 34.5l-200 471c-2.66699 6 -6 10.5 -10 13.5s-9 5.16699 -15 6.5l-45 11l10 64h253v-64l-74 -9l146 -380h4l150 380l-71 9l10 64h221v-64l-42 -11
c-9.33301 -2.66699 -15.5 -6 -18.5 -10s-6.83301 -11.333 -11.5 -22z" />
    <glyph glyph-name="afii10038" unicode="&#x424;" horiz-adv-x="847" 
d="M806 377c0 -48 -8.16504 -87.333 -24.498 -118s-39 -55 -68 -73s-63.5 -30.833 -103.5 -38.5s-83.667 -12.167 -131 -13.5v-44c0 -8 0.833008 -13.167 2.5 -15.5s6.16699 -3.83301 13.5 -4.5l74 -6v-64h-288v64l71 5c7.33301 0.666992 11.833 2.33398 13.5 5.00098
s2.5 7.66699 2.5 15v44c-48.667 0.666992 -93.167 4.16699 -133.5 10.5s-75 18 -104 35s-51.333 40.5 -67 70.5s-23.5 69 -23.5 117c0 83.333 28 143.166 84 179.499s137.333 55.5 244 57.5v42c0 8 -0.833008 13 -2.5 15s-6.16699 3.66699 -13.5 5l-73 8v64h287v-64l-71 -7
c-6.66699 -0.666992 -11 -2.5 -13 -5.5s-3 -7.83301 -3 -14.5v-42c57.333 -0.666992 106.666 -5 147.999 -13s75.166 -21 101.499 -39s45.833 -41.333 58.5 -70s19 -63.667 19 -105zM684.002 369c0 28.667 -4 52.501 -12 71.501s-20.5 34.167 -37.5 45.5
s-38.667 19.5 -65 24.5s-57.5 7.5 -93.5 7.5v-299c71.333 1.33301 123.833 12.666 157.5 33.999s50.5 60 50.5 116zM162.002 364.001c0 -27.333 3.83301 -50.167 11.5 -68.5s20 -33.166 37 -44.499s38.667 -19.5 65 -24.5s57.833 -7.83301 94.5 -8.5v299
c-70.667 -0.666992 -123 -12.334 -157 -35.001s-51 -62 -51 -118z" />
    <glyph glyph-name="afii10039" unicode="&#x425;" horiz-adv-x="728" 
d="M431 0v64l76 9l-155 222l-152 -222l75 -9v-64h-251v62l55 11c10 2.66699 18.667 9 26 19l190 268l-192 272c-3.33301 5.33301 -6.66602 9.16602 -9.99902 11.499s-8 4.16602 -14 5.49902l-49 11l10 64h263v-64l-77 -9l145 -213l150 213l-75 9l10 64h229v-64l-46 -11
c-6 -1.33301 -10.667 -3.5 -14 -6.5s-7 -7.16699 -11 -12.5l-185 -256l205 -282c3.33301 -5.33301 6.66602 -9.16602 9.99902 -11.499s8 -4.16602 14 -5.49902l52 -11v-64h-279z" />
    <glyph glyph-name="afii10040" unicode="&#x426;" horiz-adv-x="779" 
d="M650 -151l-19 137.996c-1.33301 5.33301 -3 8.83301 -5 10.5s-5.66699 2.5 -11 2.5h-565v64l67 8c7.33301 1.33301 11.833 3 13.5 5s2.5 6.66699 2.5 14v541c0 8 -0.833008 13 -2.5 15s-6.16699 3.66699 -13.5 5l-67 8v64h275v-64l-59 -7
c-7.33301 -1.33301 -11.833 -3.16602 -13.5 -5.49902s-2.5 -7.16602 -2.5 -14.499v-547h281v546c0 8 -0.833008 13 -2.5 15s-6.16699 3.66699 -13.5 5l-61 8v64h273v-64l-63 -7c-7.33301 -1.33301 -11.833 -3.16602 -13.5 -5.49902s-2.5 -7.16602 -2.5 -14.499v-547h85v-243
z" />
    <glyph glyph-name="afii10041" unicode="&#x427;" horiz-adv-x="726" 
d="M345 66l117.999 8.00391c7.33301 0.666992 11.833 2.16699 13.5 4.5s2.5 7.5 2.5 15.5v192c-23.333 -6.66699 -49.833 -11.667 -79.5 -15s-57.167 -5 -82.5 -5c-38.667 0 -71.167 4.33301 -97.5 13s-47.666 21 -63.999 37s-28 35.667 -35 59s-10.5 49.666 -10.5 78.999
v179c0 7.33301 -1 12.166 -3 14.499s-6.33301 4.16602 -13 5.49902l-59 7v64h265v-64l-57 -8c-7.33301 -1.33301 -11.833 -3 -13.5 -5s-2.5 -6.66699 -2.5 -14v-159c0 -20 1.66699 -37.5 5 -52.5s9.16602 -27.5 17.499 -37.5s20 -17.5 35 -22.5s34.167 -7.5 57.5 -7.5
c10 0 21.167 0.5 33.5 1.5s24.833 2.16699 37.5 3.5s24.834 3.33301 36.501 6s21.5 5.33398 29.5 8.00098v260c0 7.33301 -1 12.166 -3 14.499s-6.33301 4.16602 -13 5.49902l-51 7v64h265v-64l-66 -8c-7.33301 -1.33301 -11.833 -3 -13.5 -5s-2.5 -6.66699 -2.5 -14v-541
c0 -8 0.833008 -13 2.5 -15s6.16699 -3.66699 13.5 -5l66 -8v-64h-332v66z" />
    <glyph glyph-name="afii10042" unicode="&#x428;" horiz-adv-x="1065" 
d="M48 64l67 7.99414c7.33301 1.33301 11.833 3 13.5 5s2.5 6.66699 2.5 14v541c0 8 -0.833008 13 -2.5 15s-6.16699 3.66699 -13.5 5l-67 8v64h267v-64l-51 -7c-7.33301 -1.33301 -11.833 -3.16602 -13.5 -5.49902s-2.5 -7.16602 -2.5 -14.499v-547h224v547
c0 7.33301 -0.833008 12.333 -2.5 15s-6.16699 4.33398 -13.5 5.00098l-59 7v64h268v-64l-60 -7c-7.33301 -1.33301 -11.833 -3.16602 -13.5 -5.49902s-2.5 -7.16602 -2.5 -14.499v-547h228v546c0 8 -0.833008 13.167 -2.5 15.5s-6.16699 4.16602 -13.5 5.49902l-53 7v64
h265v-64l-63 -7c-7.33301 -1.33301 -11.833 -3.16602 -13.5 -5.49902s-2.5 -7.16602 -2.5 -14.499v-544c0 -6.66699 1 -11 3 -13s6.33301 -3.33301 13 -4l65 -8v-64h-967v64z" />
    <glyph glyph-name="afii10043" unicode="&#x429;" horiz-adv-x="1056" 
d="M808 86v545.994c0 8 -1 13.167 -3 15.5s-6.66699 4.16602 -14 5.49902l-52 7v64h265v-64l-63 -7c-7.33301 -1.33301 -11.833 -3.16602 -13.5 -5.49902s-2.5 -7.16602 -2.5 -14.499v-547h85v-243l-83 6l-19 138c-1.33301 5.33301 -3 8.83301 -5 10.5s-5.66699 2.5 -11 2.5
h-844v64l67 8c7.33301 1.33301 11.833 3 13.5 5s2.5 6.66699 2.5 14v541c0 8 -0.833008 13 -2.5 15s-6.16699 3.66699 -13.5 5l-67 8v64h267v-64l-51 -7c-7.33301 -1.33301 -11.833 -3.16602 -13.5 -5.49902s-2.5 -7.16602 -2.5 -14.499v-547h219v547
c0 7.33301 -0.833008 12.333 -2.5 15s-6.16699 4.33398 -13.5 5.00098l-59 7v64h268v-64l-60 -7c-7.33301 -1.33301 -11.833 -3.16602 -13.5 -5.49902s-2.5 -7.16602 -2.5 -14.499v-547h224z" />
    <glyph glyph-name="afii10044" unicode="&#x42a;" horiz-adv-x="784" 
d="M172 64l63.998 7c7.33301 1.33301 11.833 3.16602 13.5 5.49902s2.5 7.16602 2.5 14.499v547h-103c-5.33301 0 -9.16602 -0.666992 -11.499 -2s-4.16602 -4.66602 -5.49902 -9.99902l-16 -89l-83 -4v191h449v-67l-97 -8c-7.33301 -0.666992 -12 -2.16699 -14 -4.5
s-3 -7.16602 -3 -14.499v-199h137c43.333 0 79.833 -4.83301 109.5 -14.5s53.667 -23.5 72 -41.5s31.666 -39.833 39.999 -65.5s12.5 -54.167 12.5 -85.5c0 -38.667 -6.5 -72 -19.5 -100s-31.167 -51.167 -54.5 -69.5s-51.166 -32 -83.499 -41s-67.5 -13.5 -105.5 -13.5
h-304v64zM463.998 87c22 0 42.3311 2.16699 60.998 6.5s35 11.833 49 22.5s24.833 24.5 32.5 41.5s11.5 37.833 11.5 62.5c0 24 -3.33301 44.167 -10 60.5s-16.167 29.5 -28.5 39.5s-27.166 17 -44.499 21s-36.666 6 -57.999 6h-109v-260h96z" />
    <glyph glyph-name="afii10045" unicode="&#x42b;" horiz-adv-x="982" 
d="M334 87c22 0 42.3311 1.99707 60.998 5.99707s34.834 11.333 48.501 22s24.334 24.834 32.001 42.501s11.5 39.834 11.5 66.501c0 44.667 -13 76.334 -39 95.001s-60.333 28 -103 28h-98v-260h87zM47.998 723.997l313 0.000976562v-64l-97 -9
c-7.33301 -0.666992 -12 -2.16699 -14 -4.5s-3 -7.5 -3 -15.5v-200h122c44 0 81.167 -5 111.5 -15s55 -24 74 -42s32.667 -39.333 41 -64s12.5 -52 12.5 -82c0 -40.667 -6.5 -75.5 -19.5 -104.5s-31 -52.667 -54 -71s-50.5 -31.666 -82.5 -39.999s-67 -12.5 -105 -12.5h-295
v64l63 7c7.33301 1.33301 11.833 3.16602 13.5 5.49902s2.5 7.16602 2.5 14.499v544c0 7.33301 -1 11.833 -3 13.5s-6.33301 3.16699 -13 4.5l-67 7v64zM638.998 -0.00195312v63.998l73 7c7.33301 0.666992 11.833 2.33398 13.5 5.00098s2.5 7.66699 2.5 15v542
c0 7.33301 -0.833008 12.333 -2.5 15s-6.16699 4.33398 -13.5 5.00098l-73 7v64h299v-64l-77 -8c-7.33301 -1.33301 -11.833 -3 -13.5 -5s-2.5 -6.66699 -2.5 -14v-541c0 -8 0.833008 -13 2.5 -15s6.16699 -3.66699 13.5 -5l77 -8v-64h-299z" />
    <glyph glyph-name="afii10046" unicode="&#x42c;" horiz-adv-x="665" 
d="M48 724l313 0.000976562v-64l-97 -9c-7.33301 -0.666992 -12 -2.16699 -14 -4.5s-3 -7.5 -3 -15.5v-200h134c44 0 81.167 -5 111.5 -15s55 -24 74 -42s32.667 -39.333 41 -64s12.5 -52 12.5 -82c0 -40.667 -6.5 -75.5 -19.5 -104.5s-31 -52.667 -54 -71
s-50.5 -31.666 -82.5 -39.999s-67 -12.5 -105 -12.5h-307v64l63 7c7.33301 1.33301 11.833 3.16602 13.5 5.49902s2.5 7.16602 2.5 14.499v544c0 7.33301 -1 11.833 -3 13.5s-6.33301 3.16699 -13 4.5l-67 7v64zM346 87.001c22 0 42.3311 1.99707 60.998 5.99707
s34.834 11.333 48.501 22s24.334 24.834 32.001 42.501s11.5 39.834 11.5 66.501c0 44.667 -13 76.334 -39 95.001s-60.333 28 -103 28h-110v-260h99z" />
    <glyph glyph-name="afii10047" unicode="&#x42d;" horiz-adv-x="682" 
d="M55 683c14 8 30.3369 15.168 49.0039 21.501s39 12 61 17s44.667 8.83301 68 11.5s46.333 4 69 4c60.667 0 112.334 -8.5 155.001 -25.5s77.667 -41.333 105 -73s47.333 -70 60 -115s19 -95.5 19 -151.5s-7.33301 -107.5 -22 -154.5s-36.834 -87.5 -66.501 -121.5
s-67.334 -60.5 -113.001 -79.5s-99.5 -28.5 -161.5 -28.5c-44 0 -86.667 4.66699 -128 14s-75 22.666 -101 39.999v170h85l16 -97c1.33301 -4.66699 2.66602 -8.33398 3.99902 -11.001s4.66602 -4.66699 9.99902 -6c16 -5.33301 33.833 -9.66602 53.5 -12.999
s40.167 -5 61.5 -5c67.333 0 122 19.667 164 59s66.333 99.666 73 180.999h-287v88h287c-5.33301 81.333 -27 141.333 -65 180s-90 58 -156 58c-23.333 0 -46.333 -1.16699 -69 -3.5s-42.334 -6.83301 -59.001 -13.5c-5.33301 -1.33301 -9 -3.16602 -11 -5.49902
s-3.66699 -6.83301 -5 -13.5l-15 -92h-81v165z" />
    <glyph glyph-name="afii10048" unicode="&#x42e;" horiz-adv-x="1060" 
d="M48 0v63.999l67 7c7.33301 0.666992 11.833 2.33398 13.5 5.00098s2.5 7.66699 2.5 15v542c0 7.33301 -0.833008 12.333 -2.5 15s-6.16699 4.33398 -13.5 5.00098l-67 7v64h287v-64l-71 -8c-7.33301 -1.33301 -11.833 -3 -13.5 -5s-2.5 -6.66699 -2.5 -14v-221h147
c4 47.333 13.667 90.833 29 130.5s36.166 74 62.499 103s58.5 51.5 96.5 67.5s82 24 132 24c54 0 100.167 -9.5 138.5 -28.5s69.666 -44.833 93.999 -77.5s42.333 -71 54 -115s17.5 -91 17.5 -141c0 -58.667 -6.5 -111.834 -19.5 -159.501s-32.667 -88.334 -59 -122.001
s-59.166 -59.667 -98.499 -78s-85.666 -27.5 -138.999 -27.5c-51.333 0 -96 8.33301 -134 25s-69.5 39.834 -94.5 69.501s-44.167 65 -57.5 106s-21 86.167 -23 135.5h-146v-232c0 -8 0.833008 -13 2.5 -15s6.16699 -3.66699 13.5 -5l71 -8v-64h-287zM707 82.999
c58.667 0 105.332 22.498 139.999 67.498s52 116.833 52 215.5c0 92.667 -16.167 161.834 -48.5 207.501s-78.166 68.5 -137.499 68.5s-107.333 -23.333 -144 -70s-55 -116.667 -55 -210c0 -95.333 17 -165.666 51 -210.999s81.333 -68 142 -68z" />
    <glyph glyph-name="afii10049" unicode="&#x42f;" horiz-adv-x="716" 
d="M27 64l65.001 11.001c9.33301 1.33301 15.666 3.66602 18.999 6.99902s7 9.66602 11 18.999l61 135c11.333 24.667 22.833 45.167 34.5 61.5s29.167 28.833 52.5 37.5v2c-22 3.33301 -42.667 9.33301 -62 18s-36.333 20.5 -51 35.5s-26.334 33 -35.001 54
s-13 45.5 -13 73.5c0 38.667 7 71.167 21 97.5s32.667 47.5 56 63.5s50.166 27.5 80.499 34.5s61.833 10.5 94.5 10.5h305v-65l-63 -7c-7.33301 -1.33301 -11.833 -3.33301 -13.5 -6s-2.5 -8 -2.5 -16v-539c0 -7.33301 0.833008 -12.166 2.5 -14.499
s6.16699 -4.16602 13.5 -5.49902l63 -7v-64h-272v64l61 8c7.33301 1.33301 11.833 3.16602 13.5 5.49902s2.5 7.5 2.5 15.5v209h-90c-17.333 0 -30.666 -3.83301 -39.999 -11.5s-18.333 -20.167 -27 -37.5c-7.33301 -14.667 -15.166 -31.667 -23.499 -51l-26.5 -62l-28 -69
l-28 -71h-181v64zM471.001 637.001l-96.999 0.000976562c-20.667 0 -39.667 -2 -57 -6s-32.5 -10.667 -45.5 -20s-23.167 -22 -30.5 -38s-11 -35.667 -11 -59c0 -26.667 4.66699 -48.334 14 -65.001s21.833 -29.5 37.5 -38.5s33.667 -15.167 54 -18.5s41.166 -5 62.499 -5
h73v250z" />
    <glyph glyph-name="afii10065" unicode="&#x430;" horiz-adv-x="547" 
d="M373 0l-10 59l-3 1c-22 -21.333 -47 -38.666 -75 -51.999s-61.667 -20 -101 -20c-31.333 0 -56.5 4.83301 -75.5 14.5s-33.5 21.5 -43.5 35.5s-16.5 29.333 -19.5 46s-4.5 32 -4.5 46c0 50 15.333 87.5 46 112.5s76.667 40.167 138 45.5l127 10v51c0 16 -1 30 -3 42
s-6 22 -12 30s-14.833 14.167 -26.5 18.5s-27.167 6.5 -46.5 6.5c-14 0 -26.667 -0.5 -38 -1.5s-21 -4 -29 -9s-14.167 -12.333 -18.5 -22s-6.5 -23.167 -6.5 -40.5l-108 10c0 32 6.5 57.5 19.5 76.5s29.5 33.5 49.5 43.5s41.833 16.5 65.5 19.5s46.167 4.5 67.5 4.5
c36 0 66.667 -2.83301 92 -8.5s46 -15.334 62 -29.001s27.5 -32 34.5 -55s10.5 -51.833 10.5 -86.5v-257c0 -8 0.833008 -13 2.5 -15s6.16699 -3.66699 13.5 -5l49 -7v-64h-157zM352 225l-95 -7.99902c-38 -3.33301 -63.833 -10.833 -77.5 -22.5s-20.5 -29.5 -20.5 -53.5
s5.5 -40.667 16.5 -50s26.833 -14 47.5 -14c24.667 0 48.5 6.16699 71.5 18.5s42.167 26.166 57.5 41.499v88z" />
    <glyph glyph-name="afii10066" unicode="&#x431;" horiz-adv-x="567" 
d="M281 -12c-44.667 0 -82.1689 7.34277 -112.502 22.0098s-54.833 35.667 -73.5 63s-32.167 60.666 -40.5 99.999s-12.5 83.666 -12.5 132.999c0 56 3.5 106.667 10.5 152s20.5 84.666 40.5 117.999s48 61.166 84 83.499s83 38.5 141 48.5c21.333 4 38 7 50 9
s21.333 4 28 6s11.167 4.5 13.5 7.5s4.5 7.5 6.5 13.5l80 3c2 -24.667 0.666992 -44.834 -4 -60.501s-12.667 -28.167 -24 -37.5s-25.5 -16.333 -42.5 -21s-36.833 -8.33398 -59.5 -11.001c-44 -6 -80.667 -13.5 -110 -22.5s-53.166 -21.333 -71.499 -37
s-32.333 -35.834 -42 -60.501s-16.834 -55.334 -21.501 -92.001c0.666992 0 1.33398 -0.333008 2.00098 -1c16.667 32 41.334 57.167 74.001 75.5s70 27.5 112 27.5c38.667 0 71.667 -5.83301 99 -17.5s49.833 -28.334 67.5 -50.001s30.5 -47.834 38.5 -78.501
s12 -65 12 -103c0 -40 -4.66699 -76.5 -14 -109.5s-23.833 -61.5 -43.5 -85.5s-45 -42.5 -76 -55.5s-68.167 -19.5 -111.5 -19.5zM283.998 71.0098c41.333 0 72 14.832 92 44.499s30 75.834 30 138.501c0 60 -9.16699 102.667 -27.5 128s-47.166 38 -86.499 38
c-40.667 0 -72.167 -14.167 -94.5 -42.5s-33.5 -69.5 -33.5 -123.5c0 -62 9.66699 -108 29 -138s49.666 -45 90.999 -45z" />
    <glyph glyph-name="afii10067" unicode="&#x432;" horiz-adv-x="551" 
d="M36 0l-0.000976562 64.998l47 5c5.33301 0.666992 8.66602 1.83398 9.99902 3.50098s2 5.16699 2 10.5v348c0 5.33301 -0.666992 8.83301 -2 10.5s-4.66602 2.83398 -9.99902 3.50098l-47 5v66h287c32 0 58.333 -3.33301 79 -10s37.334 -15.667 50.001 -27
s21.5 -24.833 26.5 -40.5s7.5 -32.167 7.5 -49.5c0 -34 -9.33301 -60.5 -28 -79.5s-39.667 -32.167 -63 -39.5v-2c42.667 -4.66699 74 -18 94 -40s30 -51 30 -87c0 -26 -5 -48.167 -15 -66.5s-24 -33 -42 -44s-39.333 -19 -64 -24s-51.667 -7.5 -81 -7.5h-281z
M299.999 79.998c30.667 0 55.166 4.66895 73.499 14.002s27.5 28.666 27.5 57.999c0 15.333 -2.5 27.833 -7.5 37.5s-11.667 17.167 -20 22.5s-18.166 9.16602 -29.499 11.499s-23.333 3.5 -36 3.5h-99v-147h91zM285.998 301c12 0 23.332 1.00098 33.999 3.00098
s20.334 5.66699 29.001 11s15.5 12.666 20.5 21.999s7.5 21 7.5 35c0 26.667 -7.5 44 -22.5 52s-35.167 12 -60.5 12h-85v-135h77z" />
    <glyph glyph-name="afii10068" unicode="&#x433;" horiz-adv-x="465" 
d="M36 0l0.00292969 64.998l47 5c5.33301 0.666992 8.66602 1.83398 9.99902 3.50098s2 5.16699 2 10.5v348c0 5.33301 -0.833008 8.83301 -2.5 10.5s-5.16699 2.83398 -10.5 3.50098l-46 5v66h401v-175l-84 3l-13 83c-0.666992 5.33301 -4.33398 8 -11.001 8h-119v-352
c0 -5.33301 0.666992 -8.83301 2 -10.5s4.66602 -2.5 9.99902 -2.5l106 -6v-65h-292z" />
    <glyph glyph-name="afii10069" unicode="&#x434;" horiz-adv-x="611" 
d="M138 0c-6 0 -9.66699 -3.00098 -11 -9.00098l-15 -117l-82 -5v214h44c15.333 16.667 28.166 34 38.499 52s18.666 38 24.999 60s11 47 14 75s4.5 60 4.5 96v66c0 5.33301 -0.666992 8.83301 -2 10.5s-4.66602 2.83398 -9.99902 3.50098l-50 5v66h479v-66l-49 -5
c-5.33301 -1.33301 -8.66602 -2.83301 -9.99902 -4.5s-2 -5.16699 -2 -10.5v-348h62v-214l-83 5l-14 117c-2 6 -5.66699 9 -11 9h-328zM264 360.999c0 -60 -5 -112.667 -15 -158s-27.667 -85.333 -53 -120h200v351h-132v-73z" />
    <glyph glyph-name="afii10070" unicode="&#x435;" horiz-adv-x="518" 
d="M474 35c-28 -14 -57.8359 -25.333 -89.5029 -34s-65.834 -13 -102.501 -13c-46.667 0 -85.667 7 -117 21s-56.666 33.333 -75.999 58s-33.166 53.5 -41.499 86.5s-12.5 68.833 -12.5 107.5c0 45.333 6.16699 84.666 18.5 117.999s29.166 61 50.499 83
s46.333 38.333 75 49s59.334 16 92.001 16c31.333 0 60 -4.33301 86 -13s48.333 -22.667 67 -42s33.167 -44.333 43.5 -75s15.5 -67.667 15.5 -111c0 -6.66699 -0.166992 -15.667 -0.5 -27s-1.16602 -21.666 -2.49902 -30.999h-323c2.66699 -46.667 14.167 -83 34.5 -109
s54.833 -39 103.5 -39c24.667 0 47.834 2.66699 69.501 8s47.5 14.333 77.5 27zM367.997 311c0 24.667 -2.66699 45.167 -8 61.5s-12.5 29.5 -21.5 39.5s-19.5 17.167 -31.5 21.5s-24.667 6.5 -38 6.5c-28.667 0 -53.667 -10 -75 -30s-33.333 -53 -36 -99h210z" />
    <glyph glyph-name="afii10072" unicode="&#x436;" horiz-adv-x="819" 
d="M467 301l30.0029 0.000976562c9.33301 0 17.5 0.666992 24.5 2s13.167 4.5 18.5 9.5s10.333 12.167 15 21.5s9.66699 22 15 38l27 79c9.33301 25.333 21.833 44.333 37.5 57s38.834 19 69.501 19c9.33301 0 20.5 -0.833008 33.5 -2.5s23.5 -4.16699 31.5 -7.5l-8 -71
c-10.667 2 -19.667 3 -27 3c-10.667 -0.666992 -18.834 -4 -24.501 -10s-11.167 -16 -16.5 -30l-31 -84c-6 -17.333 -13.5 -29.833 -22.5 -37.5s-19.167 -13.167 -30.5 -16.5v-1c11.333 -3.33301 22.166 -10 32.499 -20s20.833 -25.333 31.5 -46l57 -113
c3.33301 -5.33301 6.33301 -9.5 9 -12.5s7.33398 -5.16699 14.001 -6.5l53 -8v-64h-164c-16 38 -31.833 73.333 -47.5 106s-29.5 58.667 -41.5 78c-10 16.667 -19.5 28.167 -28.5 34.5s-21.5 9.5 -37.5 9.5h-20v-143c0 -5.33301 0.666992 -9 2 -11
s4.66602 -3.33301 9.99902 -4l43 -5v-65h-222v65l41 5c7.33301 1.33301 11.666 3.16602 12.999 5.49902s2 6.5 2 12.5v140h-36c-20.667 0 -34.667 -3.66699 -42 -11s-15.666 -18.666 -24.999 -33.999c-11.333 -18.667 -24.333 -43.834 -39 -75.501
s-29.334 -67.5 -44.001 -107.5h-157v64l53 8c4 0.666992 7.5 1.83398 10.5 3.50098s6.16699 5.83398 9.5 12.501l58 114c10 20 20.333 35.5 31 46.5s21.667 18.167 33 21.5v1c-10.667 3.33301 -21 9.66602 -31 18.999s-18.667 24 -26 44l-27 75
c-5.33301 15.333 -11 25.666 -17 30.999s-14.667 8.33301 -26 9c-6.66699 0 -15.667 -1 -27 -3l-4 71c8 2.66699 19 5 33 7s26 3 36 3c28 0 49 -5.83301 63 -17.5s26 -30.167 36 -55.5l32 -82c6 -16 11.5 -28.667 16.5 -38s10.167 -16.5 15.5 -21.5
s11.166 -8.16699 17.499 -9.5s14.5 -2 24.5 -2h32v118c0 10 -4.33301 16.333 -13 19l-45 16l10 63h159v-216z" />
    <glyph glyph-name="afii10073" unicode="&#x437;" horiz-adv-x="464" 
d="M242 527c58.667 0 103.333 -11.167 134 -33.5s46 -53.833 46 -94.5c0 -34.667 -10.167 -62.667 -30.5 -84s-43.5 -36 -69.5 -44v-3c32.667 -6 60 -18.333 82 -37s33 -48 33 -88c0 -24.667 -5.5 -46.667 -16.5 -66s-26.167 -35.5 -45.5 -48.5s-42.166 -23 -68.499 -30
s-54.833 -10.5 -85.5 -10.5c-38 0 -75.333 5 -112 15s-67 25.667 -91 47l45 75c14 -12 34.5 -23.5 61.5 -34.5s56.5 -16.5 88.5 -16.5c14.667 0 28.667 1.33301 42 4s25.166 7 35.499 13s18.5 14 24.5 24s9 22 9 36c0 23.333 -8.16699 40.5 -24.5 51.5
s-37.833 16.5 -64.5 16.5h-95v80h54c40 0 69.667 7.83301 89 23.5s29 35.167 29 58.5c0 24 -8.33301 41.167 -25 51.5s-37.334 15.5 -62.001 15.5c-13.333 0 -25.666 -0.833008 -36.999 -2.5s-22 -4.16699 -32 -7.5c-6 -2.66699 -10 -7 -12 -13l-12 -60l-82 -6v125
c9.33301 4.66699 21 9.5 35 14.5s29.5 9.66699 46.5 14s35 7.83301 54 10.5s37.833 4 56.5 4z" />
    <glyph glyph-name="afii10074" unicode="&#x438;" horiz-adv-x="638" 
d="M378 0v63.9961l45 5c5.33301 0.666992 8.66602 2 9.99902 4s2 5.66699 2 11v289h-4l-217 -373h-178v64l47 5c5.33301 0.666992 8.66602 2 9.99902 4s2 5.66699 2 11v348c0 5.33301 -0.666992 8.83301 -2 10.5s-4.66602 2.83398 -9.99902 3.50098l-47 5v66h226v-66l-48 -5
c-5.33301 -1.33301 -8.66602 -2.66602 -9.99902 -3.99902s-2 -4.66602 -2 -9.99902v-301h4l223 386h176v-66l-50 -5c-5.33301 -1.33301 -8.66602 -2.66602 -9.99902 -3.99902s-2 -4.66602 -2 -9.99902v-348c0 -5.33301 0.666992 -8.83301 2 -10.5
s4.66602 -2.83398 9.99902 -3.50098l50 -6v-64h-227z" />
    <glyph glyph-name="afii10075" unicode="&#x439;" horiz-adv-x="638" 
d="M378 0v63.9961l45 5c5.33301 0.666992 8.66602 2 9.99902 4s2 5.66699 2 11v289h-4l-217 -373h-178v64l47 5c5.33301 0.666992 8.66602 2 9.99902 4s2 5.66699 2 11v348c0 5.33301 -0.666992 8.83301 -2 10.5s-4.66602 2.83398 -9.99902 3.50098l-47 5v66h226v-66l-48 -5
c-5.33301 -1.33301 -8.66602 -2.66602 -9.99902 -3.99902s-2 -4.66602 -2 -9.99902v-301h4l223 386h176v-66l-50 -5c-5.33301 -1.33301 -8.66602 -2.66602 -9.99902 -3.99902s-2 -4.66602 -2 -9.99902v-348c0 -5.33301 0.666992 -8.83301 2 -10.5
s4.66602 -2.83398 9.99902 -3.50098l50 -6v-64h-227zM339 641.996c25.333 0 44.667 7.66699 58 23s23.666 37 30.999 65l76 -23c-11.333 -43.333 -30 -76.833 -56 -100.5s-63 -35.5 -111 -35.5s-85.167 12 -111.5 36s-44.166 57 -53.499 99l81 25
c4.66699 -26 13.5 -47.333 26.5 -64s32.833 -25 59.5 -25z" />
    <glyph glyph-name="afii10076" unicode="&#x43a;" horiz-adv-x="572" 
d="M251 298c9.33301 0 17.333 0.664062 24 1.99707s12.834 4.16602 18.501 8.49902s11 10.666 16 18.999s10.167 19.833 15.5 34.5l27 71c11.333 30.667 25.833 53.834 43.5 69.501s43.5 23.5 77.5 23.5c11.333 0 21.5 -0.833008 30.5 -2.5s17.5 -3.83398 25.5 -6.50098
l-7 -73c-10 2 -19 3 -27 3c-12.667 -0.666992 -22 -4.16699 -28 -10.5s-12.667 -18.166 -20 -35.499l-27 -69c-8 -20.667 -16.833 -35.5 -26.5 -44.5s-19.834 -15.167 -30.501 -18.5v-2c10.667 -3.33301 20.834 -9.66602 30.501 -18.999s19.834 -24.333 30.501 -45l54 -107
c3.33301 -7.33301 6.66602 -12.833 9.99902 -16.5s8.66602 -6.16699 15.999 -7.5l53 -8v-64h-156c-13.333 35.333 -28 69 -44 101l-38 74c-5.33301 10.667 -10.333 19.334 -15 26.001s-9.66699 11.667 -15 15s-11.333 5.66602 -18 6.99902s-14.667 2 -24 2h-37v-142
c0 -5.33301 0.666992 -8.66602 2 -9.99902s4.66602 -2.33301 9.99902 -3l43 -5v-65h-229v65l47 5c5.33301 0.666992 8.66602 1.83398 9.99902 3.50098s2 5.16699 2 10.5v349c0 5.33301 -0.666992 8.83301 -2 10.5s-4.66602 2.83398 -9.99902 3.50098l-47 5v65h232v-65
l-46 -5c-5.33301 -0.666992 -8.66602 -2 -9.99902 -4s-2 -6 -2 -12v-133h41z" />
    <glyph glyph-name="afii10077" unicode="&#x43b;" horiz-adv-x="599" 
d="M335 0l0.000976562 64.002l41 5c5.33301 0.666992 8.66602 2 9.99902 4s2 5.66699 2 11v350h-130c-1.33301 -47.333 -2.83301 -89 -4.5 -125s-4.5 -71.333 -8.5 -106c-4 -33.333 -10 -63 -18 -89s-19.667 -48.333 -35 -67s-34.666 -33.167 -57.999 -43.5
s-52.666 -16.5 -87.999 -18.5l-21 93c17.333 1.33301 32.5 4.83301 45.5 10.5s24.167 14.5 33.5 26.5s17 27.833 23 47.5s10.667 44.167 14 73.5c3.33301 23.333 6.16602 52.666 8.49902 87.999s4.16602 70.666 5.49902 105.999c0 10 -4.33301 15.333 -13 16l-49 5v66h472
v-66l-50 -5c-5.33301 -1.33301 -8.66602 -2.83301 -9.99902 -4.5s-2 -5.16699 -2 -10.5v-346c0 -5.33301 0.666992 -9 2 -11s4.66602 -3.33301 9.99902 -4l50 -6v-64h-230z" />
    <glyph glyph-name="afii10078" unicode="&#x43c;" horiz-adv-x="733" 
d="M455 0l-0.000976562 63.999l61 5c8 0.666992 12 5.33398 12 14.001v290h-2l-114 -248h-108l-115 250h-1v-291c0 -5.33301 0.5 -8.83301 1.5 -10.5s4.16699 -2.83398 9.5 -3.50098l64 -6v-64h-227v64l47 6c8 0.666992 12 5.33398 12 14.001v349
c0 5.33301 -0.666992 8.83301 -2 10.5s-4.66602 2.83398 -9.99902 3.50098l-47 5v65h197l132 -300h1l136 300h197v-65l-49 -5c-5.33301 -0.666992 -8.83301 -2 -10.5 -4s-2.5 -6.66699 -2.5 -14v-345c0 -8.66699 4 -13.334 12 -14.001l50 -6v-64h-244z" />
    <glyph glyph-name="afii10079" unicode="&#x43d;" horiz-adv-x="643" 
d="M378 0l0.000976562 63.998l42 5c5.33301 0.666992 8.66602 2 9.99902 4s2 5.66699 2 11v141h-222v-141c0 -5.33301 0.666992 -8.83301 2 -10.5s4.66602 -2.83398 9.99902 -3.50098l46 -6v-64h-232v64l47 5c5.33301 0.666992 8.66602 2 9.99902 4s2 5.66699 2 11v348
c0 5.33301 -0.666992 8.83301 -2 10.5s-4.66602 2.83398 -9.99902 3.50098l-47 5v66h232v-66l-44 -5c-5.33301 -1.33301 -9 -2.66602 -11 -3.99902s-3 -4.66602 -3 -9.99902v-124h222v124c0 5.33301 -0.666992 8.83301 -2 10.5s-4.66602 2.83398 -9.99902 3.50098l-42 5v66
h231v-66l-48 -5c-5.33301 -1.33301 -8.83301 -2.83301 -10.5 -4.5s-2.5 -5.16699 -2.5 -10.5v-347c0 -5.33301 0.5 -8.83301 1.5 -10.5s4.16699 -2.83398 9.5 -3.50098l50 -6v-64h-231z" />
    <glyph glyph-name="afii10080" unicode="&#x43e;" horiz-adv-x="573" 
d="M284 -12c-46 0 -84.8311 6.66797 -116.498 20.001s-57.334 31.666 -77.001 54.999s-33.834 51.333 -42.501 84s-13 68 -13 106c0 41.333 5.16699 78.833 15.5 112.5s26.333 62.5 48 86.5s48.667 42.5 81 55.5s70.5 19.5 114.5 19.5s81.5 -6.5 112.5 -19.5
s56.167 -31 75.5 -54s33.5 -50.5 42.5 -82.5s13.5 -67 13.5 -105c0 -42 -5 -80.167 -15 -114.5s-25.333 -63.5 -46 -87.5s-47 -42.667 -79 -56s-70 -20 -114 -20zM287.002 73.001c42.667 0 75.334 14.668 98.001 44.001s34 77 34 143c0 64 -10.667 110 -32 138
s-53.333 42 -96 42s-76 -14 -100 -42s-36 -74.333 -36 -139s11.167 -111.834 33.5 -141.501s55.166 -44.5 98.499 -44.5z" />
    <glyph glyph-name="afii10081" unicode="&#x43f;" horiz-adv-x="625" 
d="M365 0l0.000976562 63.998l37 5c5.33301 0.666992 8.83301 2 10.5 4s2.5 5.66699 2.5 11v349h-205v-349c0 -5.33301 0.666992 -8.83301 2 -10.5s4.66602 -2.83398 9.99902 -3.50098l41 -6v-64h-227v64l47 5c5.33301 0.666992 8.66602 1.83398 9.99902 3.50098
s2 5.16699 2 10.5v349c0 5.33301 -0.666992 8.83301 -2 10.5s-4.66602 2.83398 -9.99902 3.50098l-47 5v66h555v-66l-49 -5c-5.33301 -1.33301 -8.66602 -2.66602 -9.99902 -3.99902s-2 -4.66602 -2 -9.99902v-348c0 -5.33301 0.666992 -8.83301 2 -10.5
s4.66602 -2.83398 9.99902 -3.50098l49 -6v-64h-226z" />
    <glyph glyph-name="afii10082" unicode="&#x440;" horiz-adv-x="610" 
d="M39 -212l-0.000976562 65.001l41 6c7.33301 1.33301 12 3.16602 14 5.49902s3 7.5 3 15.5v533c0 10.667 -4.33301 17.667 -13 21l-55 19l10 64h149l9 -56l3 -1c24 19.333 50.667 35.333 80 48s61.333 19 96 19c28 0 53.667 -4.66699 77 -14s43.333 -24 60 -44
s29.667 -46 39 -78s14 -70.667 14 -116c0 -32 -3 -65 -9 -99s-16.667 -65 -32 -93s-36.333 -50.833 -63 -68.5s-60.667 -26.5 -102 -26.5c-28 0 -54.667 4.5 -80 13.5s-48.666 21.833 -69.999 38.5v-160c0 -8 1 -13.167 3 -15.5s6.66699 -3.83301 14 -4.5l98 -8v-64h-286z
M211.999 133.001c15.333 -13.333 33.335 -25.5 54.002 -36.5s43.667 -16.5 69 -16.5c40 0 68.833 16.833 86.5 50.5s26.5 79.5 26.5 137.5c0 30.667 -2.66699 56.5 -8 77.5s-12.833 38 -22.5 51s-20.834 22.333 -33.501 28s-26.334 8.5 -41.001 8.5
c-13.333 0 -26.5 -1.83301 -39.5 -5.5s-25.333 -8.16699 -37 -13.5s-22.167 -11 -31.5 -17s-17 -11.667 -23 -17v-247z" />
    <glyph glyph-name="afii10083" unicode="&#x441;" horiz-adv-x="495" 
d="M465 33c-21.333 -13.333 -47.8281 -24.1699 -79.4951 -32.5029s-64.834 -12.5 -99.501 -12.5c-44 0 -81.667 6.5 -113 19.5s-57.333 31.333 -78 55s-35.834 51.667 -45.501 84s-14.5 67.5 -14.5 105.5c0 47.333 6.66699 88.166 20 122.499s31.666 62.833 54.999 85.5
s51.333 39.5 84 50.5s68.334 16.5 107.001 16.5c38 0 71.333 -4.16699 100 -12.5s49.667 -16.166 63 -23.499v-142l-83 4l-12 66c-0.666992 6.66699 -4.33398 11.334 -11.001 14.001s-15.5 4.83398 -26.5 6.50098s-22.833 2.5 -35.5 2.5
c-19.333 0 -37.5 -3.16699 -54.5 -9.5s-32 -16.666 -45 -30.999s-23.167 -33 -30.5 -56s-11 -51.167 -11 -84.5c0 -34 3.66699 -62.5 11 -85.5s17.666 -41.667 30.999 -56s29.166 -24.5 47.499 -30.5s38.5 -9 60.5 -9c25.333 0 48.833 3 70.5 9s40.5 13.333 56.5 22z" />
    <glyph glyph-name="afii10084" unicode="&#x442;" horiz-adv-x="540" 
d="M125 0l0.000976562 65.001l76 6c5.33301 0 8.83301 1 10.5 3s2.5 5.66699 2.5 11v349h-81c-7.33301 0 -12 -3.33301 -14 -10l-13 -77h-81v170h491v-170h-80l-13 77c-0.666992 6.66699 -4.66699 10 -12 10h-82v-350c0 -5.33301 0.666992 -8.83301 2 -10.5
s4.66602 -2.83398 9.99902 -3.50098l82 -5v-65h-298z" />
    <glyph glyph-name="afii10085" unicode="&#x443;" horiz-adv-x="597" 
d="M56 -118c9.33301 -4.66699 21.001 -8.66797 35.001 -12.001s28 -5 42 -5c26.667 0 46.5 6.83301 59.5 20.5s25.833 36.167 38.5 67.5l21 49l-184 423c-2.66699 6 -5.33398 10 -8.00098 12s-7 3.66699 -13 5l-41 9l13 66h233v-66l-65 -8l124 -313h4l125 313l-66 8l11 66
h206v-66l-33 -5c-6.66699 -1.33301 -11.834 -3 -15.501 -5s-6.83398 -6 -9.50098 -12l-205 -498c-8 -20 -17.167 -39.167 -27.5 -57.5s-22.666 -34.666 -36.999 -48.999s-31.333 -25.666 -51 -33.999s-43.167 -12.5 -70.5 -12.5c-18 0 -36.667 2.16699 -56 6.5
s-38.666 11.166 -57.999 20.499z" />
    <glyph glyph-name="afii10086" unicode="&#x444;" horiz-adv-x="774" 
d="M737 269c0 -92.667 -23.667 -161.833 -71 -207.5s-121 -70.167 -221 -73.5v-109c0 -8 0.833008 -13.167 2.5 -15.5s6.16699 -3.83301 13.5 -4.5l58 -7v-64h-260v65l55 6c7.33301 1.33301 11.833 3.33301 13.5 6s2.5 7.66699 2.5 15v108
c-56.667 0.666992 -103.834 7.33398 -141.501 20.001s-67.834 30.167 -90.501 52.5s-38.5 49.5 -47.5 81.5s-13.5 67.333 -13.5 106c0 53.333 8 97.666 24 132.999s37.333 63.5 64 84.5s57.834 36 93.501 45s72.834 13.833 111.501 14.5v126
c0 11.333 -4.33301 18.333 -13 21l-57 19l10 64h175v-230c96 0 168.667 -20.167 218 -60.5s74 -105.5 74 -195.5zM619 264.001c0 37.333 -4.33691 67.168 -13.0039 89.501s-20.667 39.666 -36 51.999s-33.666 20.666 -54.999 24.999s-44.666 6.5 -69.999 6.5v-358
c20 0 40.333 1.83301 61 5.5s39.334 11.834 56.001 24.501s30.334 31.167 41.001 55.5s16 57.5 16 99.5zM154.996 245.003c0 -38 5.33105 -67.999 15.998 -89.999s24.334 -38.667 41.001 -50s35.334 -18.833 56.001 -22.5s41 -5.5 61 -5.5v359
c-22 -0.666992 -43.5 -3.16699 -64.5 -7.5s-39.667 -13.333 -56 -27s-29.333 -32.834 -39 -57.501s-14.5 -57.667 -14.5 -99z" />
    <glyph glyph-name="afii10087" unicode="&#x445;" horiz-adv-x="586" 
d="M320 0l-0.000976562 64l56 9l-97 127l-103 -127l61 -9v-64h-225v63l46 9c7.33301 1.33301 12.833 3.33301 16.5 6s8.16699 6.66699 13.5 12l137 164l-137 170c-4 4.66699 -7.5 8.16699 -10.5 10.5s-7.5 4.5 -13.5 6.5l-42 11l10 65h231v-65l-56 -8l93 -119l101 119l-61 8
l10 65h205v-65l-44 -10c-6 -2 -11 -4.5 -15 -7.5s-8 -6.83301 -12 -11.5l-129 -152l144 -180c4.66699 -5.33301 8.83398 -9.33301 12.501 -12s8.5 -4.66699 14.5 -6l50 -9v-64h-256z" />
    <glyph glyph-name="afii10088" unicode="&#x446;" horiz-adv-x="611" 
d="M497 -125l-13.999 112.999c-0.666992 8 -5.33398 12 -14.001 12h-434v64l50 6c5.33301 0.666992 8.66602 1.83398 9.99902 3.50098s2 5.16699 2 10.5v347c0 6 -0.833008 9.83301 -2.5 11.5s-5.16699 3.16699 -10.5 4.5l-49 5v65h227v-65l-37 -5
c-8.66699 -0.666992 -13 -6 -13 -16v-348h187v348c0 6 -0.833008 10 -2.5 12s-5.5 3.66699 -11.5 5l-36 4v65h224v-65l-46 -5c-5.33301 -0.666992 -8.66602 -2 -9.99902 -4s-2 -5.66699 -2 -11v-349h64v-214z" />
    <glyph glyph-name="afii10089" unicode="&#x447;" horiz-adv-x="578" 
d="M255 66l100 5.99707c5.33301 0.666992 8.83301 1.83398 10.5 3.50098s2.5 5.5 2.5 11.5v108c-16 -5.33301 -36.167 -9.16602 -60.5 -11.499s-45.5 -3.5 -63.5 -3.5c-32 0 -58.5 3.5 -79.5 10.5s-37.833 16.667 -50.5 29s-21.5 27 -26.5 44s-7.5 35.5 -7.5 55.5v114
c0 8.66699 -4 13.334 -12 14.001l-41 6v64h217v-64l-36 -5c-5.33301 -0.666992 -8.83301 -2 -10.5 -4s-2.5 -5.66699 -2.5 -11v-99c0 -24 5 -42.5 15 -55.5s30.333 -19.5 61 -19.5c14.667 0 31.667 1.16699 51 3.5s34.666 5.5 45.999 9.5v161
c0 4.66699 -0.666992 8.16699 -2 10.5s-4.66602 3.83301 -9.99902 4.5l-33 5v64h218v-65l-46 -5c-5.33301 -0.666992 -8.83301 -2 -10.5 -4s-2.5 -5.66699 -2.5 -11v-347c0 -5.33301 0.833008 -9 2.5 -11s5.16699 -3.33301 10.5 -4l47 -5v-65h-287v66z" />
    <glyph glyph-name="afii10090" unicode="&#x448;" horiz-adv-x="825" 
d="M33 65l49.998 6.00293c5.33301 0.666992 8.66602 1.83398 9.99902 3.50098s2 5.16699 2 10.5v348c0 5.33301 -0.666992 8.66602 -2 9.99902s-4.66602 2.66602 -9.99902 3.99902l-50 5v65h218v-65l-33 -5c-5.33301 -0.666992 -8.66602 -1.83398 -9.99902 -3.50098
s-2 -5.16699 -2 -10.5v-350h148v350c0 8 -4 13 -12 15l-36 4v65h208v-65l-37 -5c-5.33301 -0.666992 -8.5 -1.83398 -9.5 -3.50098s-1.5 -5.16699 -1.5 -10.5v-350h151v348c0 6 -0.666992 9.83301 -2 11.5s-4.66602 3.16699 -9.99902 4.5l-36 5v65h218v-65l-47 -5
c-5.33301 -0.666992 -8.5 -1.83398 -9.5 -3.50098s-1.5 -5.16699 -1.5 -10.5v-349c0 -5.33301 0.666992 -8.66602 2 -9.99902s4.33301 -2.33301 9 -3l49 -6v-65h-756v65z" />
    <glyph glyph-name="afii10091" unicode="&#x449;" horiz-adv-x="821" 
d="M33 65l49.999 6.00391c5.33301 0.666992 8.66602 1.83398 9.99902 3.50098s2 5.16699 2 10.5v348c0 5.33301 -0.666992 8.66602 -2 9.99902s-4.66602 2.66602 -9.99902 3.99902l-50 5v65h218v-65l-33 -5c-5.33301 -0.666992 -8.66602 -1.83398 -9.99902 -3.50098
s-2 -5.16699 -2 -10.5v-350h146v350c0 8 -4 13 -12 15l-36 4v65h208v-65l-36 -5c-5.33301 -0.666992 -8.66602 -1.83398 -9.99902 -3.50098s-2 -5.16699 -2 -10.5v-350h149v348c0 6 -0.833008 9.83301 -2.5 11.5s-5.16699 3.16699 -10.5 4.5l-35 5v65h218v-65l-47 -5
c-5.33301 -0.666992 -8.5 -1.83398 -9.5 -3.50098s-1.5 -5.16699 -1.5 -10.5v-350h64v-214l-82 6l-15 116c-0.666992 6 -4.33398 9 -11.001 9h-648v65z" />
    <glyph glyph-name="afii10092" unicode="&#x44a;" horiz-adv-x="611" 
d="M136 65l47.998 5c7.33301 0.666992 11 5 11 13v351h-62c-8 0 -13 -4.33301 -15 -13l-10 -73l-83 -4v173h369v-66l-72 -6c-5.33301 -0.666992 -8.66602 -1.66699 -9.99902 -3s-2 -4.66602 -2 -9.99902v-115h96c32.667 0 60.334 -3.5 83.001 -10.5s41 -17 55 -30
s24 -28.833 30 -47.5s9 -39.334 9 -62.001c0 -29.333 -5 -54.5 -15 -75.5s-24 -38.333 -42 -52s-39.167 -23.667 -63.5 -30s-50.833 -9.5 -79.5 -9.5h-247v65zM371.998 80c28.667 0 51.667 6.16895 69 18.502s26 34.166 26 65.499c0 16.667 -2.5 30.167 -7.5 40.5
s-12 18.166 -21 23.499s-20.167 9 -33.5 11s-28 3 -44 3h-51v-162h62z" />
    <glyph glyph-name="afii10093" unicode="&#x44b;" horiz-adv-x="777" 
d="M95 432c0 5.33301 -0.832031 8.99805 -2.49902 10.998s-4.83398 3.33301 -9.50098 4l-52 5v65h262v-65l-70 -6c-5.33301 -0.666992 -8.83301 -1.83398 -10.5 -3.50098s-2.5 -5.5 -2.5 -11.5v-115h92c52 0 94.333 -11.667 127 -35s49 -61 49 -113
c0 -31.333 -5.5 -57.666 -16.5 -78.999s-26.333 -38.666 -46 -51.999s-42.667 -22.833 -69 -28.5s-54.833 -8.5 -85.5 -8.5h-225v64l49 6c6.66699 0.666992 10 4.33398 10 11.001v351zM501.001 -0.00195312l0.000976562 64.002l50 5
c5.33301 0.666992 8.83301 1.66699 10.5 3s2.5 5.66602 2.5 12.999v346c0 5.33301 -0.833008 9 -2.5 11s-5.16699 3.33301 -10.5 4l-52 5v66h247v-66l-55 -6c-4.66699 -0.666992 -7.83398 -1.83398 -9.50098 -3.50098s-2.5 -5.5 -2.5 -11.5v-345c0 -5.33301 0.5 -9 1.5 -11
s4.5 -3.33301 10.5 -4l55 -6v-64h-245zM266.002 80c28.667 0 52 6 70 18s27 33.667 27 65c0 32 -9.5 53.167 -28.5 63.5s-42.833 15.5 -71.5 15.5h-53v-162h56z" />
    <glyph glyph-name="afii10094" unicode="&#x44c;" horiz-adv-x="514" 
d="M95 432c0 5.33301 -0.832031 8.99902 -2.49902 10.999s-4.83398 3.33301 -9.50098 4l-52 5v65h262v-65l-70 -6c-5.33301 -0.666992 -8.83301 -1.66699 -10.5 -3s-2.5 -4.66602 -2.5 -9.99902v-117h99c52.667 0 95.334 -11.667 128.001 -35s49 -61 49 -113
c0 -28.667 -5 -53.667 -15 -75s-24 -38.833 -42 -52.5s-39.333 -23.834 -64 -30.501s-51.334 -10 -80.001 -10h-249v64l49 6c6.66699 0.666992 10 4.33398 10 11.001v351zM274.001 79.999c30 0 53.501 6.16699 70.501 18.5s25.5 33.833 25.5 64.5
c0 32 -9.33301 53.167 -28 63.5s-42.334 15.5 -71.001 15.5h-61v-162h64z" />
    <glyph glyph-name="afii10095" unicode="&#x44d;" horiz-adv-x="545" 
d="M193 300l194.002 -0.00390625c-5.33301 48.667 -20.5 84.834 -45.5 108.501s-58.833 35.5 -101.5 35.5c-15.333 0 -29.833 -1.16699 -43.5 -3.5s-24.834 -5.16602 -33.501 -8.49902c-6 -2 -9.66699 -4.16699 -11 -6.5s-2.66602 -6.5 -3.99902 -12.5l-10 -61h-81v135
c10 5.33301 22.333 10.333 37 15s30.667 8.83398 48 12.501s35.666 6.66699 54.999 9s38.333 3.5 57 3.5c45.333 0 84.166 -6 116.499 -18s58.833 -29.333 79.5 -52s35.834 -50 45.501 -82s14.5 -67.667 14.5 -107c0 -40.667 -5.66699 -78.167 -17 -112.5
s-28.333 -64 -51 -89s-51.334 -44.333 -86.001 -58s-75.667 -20.5 -123 -20.5c-44 0 -83 5.5 -117 16.5s-59.667 23.5 -77 37.5l38 81c13.333 -9.33301 33.5 -19 60.5 -29s57.167 -15 90.5 -15c44 0 79.667 11.333 107 34s44 57.334 50 104.001h-192v83z" />
    <glyph glyph-name="afii10096" unicode="&#x44e;" horiz-adv-x="809" 
d="M540 -12c-36.667 0 -68.6699 5.49902 -96.0029 16.499s-50.166 26.5 -68.499 46.5s-32.5 44 -42.5 72s-16.667 59 -20 93h-103v-131c0 -5.33301 0.5 -9 1.5 -11s4.5 -3.33301 10.5 -4l53 -6v-64h-244v64l51 6c5.33301 0.666992 8.83301 1.83398 10.5 3.50098
s2.5 5.16699 2.5 10.5v347c0 5.33301 -0.833008 9 -2.5 11s-5.16699 3.33301 -10.5 4l-51 5v66h244v-66l-53 -6c-5.33301 -0.666992 -8.66602 -1.66699 -9.99902 -3s-2 -5 -2 -11v-134h103c2.66699 34.667 9.5 66.167 20.5 94.5s26.333 52.5 46 72.5
s43.834 35.5 72.501 46.5s61.667 16.5 99 16.5c41.333 0 76.166 -6.5 104.499 -19.5s51.333 -31 69 -54s30.334 -50.5 38.001 -82.5s11.5 -67 11.5 -105c0 -42 -4.33301 -80.167 -13 -114.5s-22.5 -63.5 -41.5 -87.5s-43.333 -42.667 -73 -56s-65.167 -20 -106.5 -20z
M542.997 72.999c36.667 0 64.666 14.668 83.999 44.001s29 77 29 143c0 64 -8.83301 110 -26.5 138s-45.167 42 -82.5 42s-66.166 -14 -86.499 -42s-30.5 -74.333 -30.5 -139s9.33301 -111.834 28 -141.501s47 -44.5 85 -44.5z" />
    <glyph glyph-name="afii10097" unicode="&#x44f;" horiz-adv-x="590" 
d="M382 436h-93.999c-25.333 0 -46.5 -5.33301 -63.5 -16s-25.5 -30 -25.5 -58c0 -14.667 2.66699 -27 8 -37s12.666 -17.833 21.999 -23.5s20 -9.66699 32 -12s24.667 -3.5 38 -3.5h83v150zM25.001 62l52.999 9c6 1.33301 10.167 3 12.5 5s4.83301 6.33301 7.5 13l36 82
c7.33301 17.333 15.5 31.666 24.5 42.999s22.167 20 39.5 26v1c-14.667 2.66699 -29 7.16699 -43 13.5s-26.333 14.666 -37 24.999s-19.167 22.833 -25.5 37.5s-9.5 31.667 -9.5 51c0 28 5.16699 51.5 15.5 70.5s24 34.333 41 46s36.667 20 59 25s45.833 7.5 70.5 7.5h286
v-65l-48 -5c-4 -0.666992 -6.66699 -1.66699 -8 -3s-2 -4.66602 -2 -9.99902v-352c0 -7.33301 3.33301 -11.333 10 -12l48 -6v-64h-224v64l41 6c4.66699 0.666992 7.5 1.83398 8.5 3.50098s1.5 4.83398 1.5 9.50098v126h-85c-14 0 -24.167 -2.83301 -30.5 -8.5
s-12.166 -14.834 -17.499 -27.501l-33 -80l-36 -93h-155v62z" />
    <glyph glyph-name="afii10071" unicode="&#x451;" horiz-adv-x="518" 
d="M226 663c0 -18.667 -5.66699 -33.5 -17 -44.5s-26.333 -16.5 -45 -16.5s-33.834 5.5 -45.501 16.5s-17.5 25.833 -17.5 44.5s5.83301 33.334 17.5 44.001s26.834 16 45.501 16s33.667 -5.33301 45 -16s17 -25.334 17 -44.001zM430 663
c0 -18.667 -5.66699 -33.5 -17 -44.5s-26.333 -16.5 -45 -16.5s-33.667 5.5 -45 16.5s-17 25.833 -17 44.5s5.66699 33.334 17 44.001s26.333 16 45 16s33.667 -5.33301 45 -16s17 -25.334 17 -44.001zM474 35c-28 -14 -57.8359 -25.333 -89.5029 -34
s-65.834 -13 -102.501 -13c-46.667 0 -85.667 7 -117 21s-56.666 33.333 -75.999 58s-33.166 53.5 -41.499 86.5s-12.5 68.833 -12.5 107.5c0 45.333 6.16699 84.666 18.5 117.999s29.166 61 50.499 83s46.333 38.333 75 49s59.334 16 92.001 16
c31.333 0 60 -4.33301 86 -13s48.333 -22.667 67 -42s33.167 -44.333 43.5 -75s15.5 -67.667 15.5 -111c0 -6.66699 -0.166992 -15.667 -0.5 -27s-1.16602 -21.666 -2.49902 -30.999h-323c2.66699 -46.667 14.167 -83 34.5 -109s54.833 -39 103.5 -39
c24.667 0 47.834 2.66699 69.501 8s47.5 14.333 77.5 27zM367.997 311c0 24.667 -2.66699 45.167 -8 61.5s-12.5 29.5 -21.5 39.5s-19.5 17.167 -31.5 21.5s-24.667 6.5 -38 6.5c-28.667 0 -53.667 -10 -75 -30s-33.333 -53 -36 -99h210z" />
    <glyph glyph-name="afii10099" unicode="&#x452;" horiz-adv-x="603" 
d="M235 -117c25.333 -8 48.001 -11.9971 68.001 -11.9971c52.667 0 88.5 26.333 107.5 79s28.5 133.334 28.5 242.001c0 42.667 -1.83301 77.834 -5.5 105.501s-9.16699 49.5 -16.5 65.5s-16.833 27 -28.5 33s-25.167 9 -40.5 9c-13.333 0 -26.833 -2 -40.5 -6
s-26.5 -8.83301 -38.5 -14.5s-22.667 -11.5 -32 -17.5l-23 -15v-261c0 -8 0.833008 -13 2.5 -15s6.16699 -3.66699 13.5 -5l53 -7v-64h-248v65l48 6c7.33301 1.33301 11.833 3.16602 13.5 5.49902s2.5 7.16602 2.5 14.499v466h-65v68h65v26c0 11.333 -4.33301 18.333 -13 21
l-57 19l10 64h174v-130h172v-68h-172v-119c24.667 17.333 51 31.666 79 42.999s57 17 87 17c40 0 71.5 -9.16699 94.5 -27.5s40.333 -42.333 52 -72s19 -62.834 22 -99.501s4.5 -73.334 4.5 -110.001c0 -58.667 -3.66699 -113.167 -11 -163.5s-19.833 -93.833 -37.5 -130.5
s-41.334 -65.5 -71.001 -86.5s-67.167 -31.5 -112.5 -31.5c-15.333 0 -32.333 1.5 -51 4.5s-36.667 7.83301 -54 14.5z" />
    <glyph glyph-name="afii10100" unicode="&#x453;" horiz-adv-x="465" 
d="M173 564l-46 43l154 168l69 -67zM36 0l0.00292969 64.998l47 5c5.33301 0.666992 8.66602 1.83398 9.99902 3.50098s2 5.16699 2 10.5v348c0 5.33301 -0.833008 8.83301 -2.5 10.5s-5.16699 2.83398 -10.5 3.50098l-46 5v66h401v-175l-84 3l-13 83
c-0.666992 5.33301 -4.33398 8 -11.001 8h-119v-352c0 -5.33301 0.666992 -8.83301 2 -10.5s4.66602 -2.5 9.99902 -2.5l106 -6v-65h-292z" />
    <glyph glyph-name="afii10101" unicode="&#x454;" horiz-adv-x="530" 
d="M352 219l-194.001 -0.000976562c7.33301 -49.333 23.333 -85.333 48 -108s59.667 -34 105 -34c28.667 0 56.834 4.66699 84.501 14s49.167 19.666 64.5 30.999l39 -77c-28 -19.333 -59.833 -33.666 -95.5 -42.999s-70.5 -14 -104.5 -14
c-46.667 0 -86.834 6.5 -120.501 19.5s-61 31.167 -82 54.5s-36.5 51.333 -46.5 84s-15 68.667 -15 108c0 40 5.66699 76.667 17 110s28.666 62 51.999 86s52.5 42.833 87.5 56.5s76.167 20.5 123.5 20.5c32.667 0 65 -3.5 97 -10.5s58 -17.167 78 -30.5v-139l-83 4l-10 64
c-0.666992 8.66699 -4.66699 14.334 -12 17.001c-8 2.66699 -18 5 -30 7s-25.667 3 -41 3c-43.333 0 -78.666 -11.333 -105.999 -34s-43.666 -58 -48.999 -106h193v-83z" />
    <glyph glyph-name="afii10102" unicode="&#x455;" horiz-adv-x="471" 
d="M340 368l-10.9971 58.001c-0.666992 6.66699 -4.33398 11.334 -11.001 14.001c-6.66699 2 -16.5 4.16699 -29.5 6.5s-27.167 3.5 -42.5 3.5c-32 0 -55.833 -5.5 -71.5 -16.5s-23.5 -26.5 -23.5 -46.5c0 -13.333 3.16699 -24.333 9.5 -33s15 -15.834 26 -21.501
s23.667 -10.334 38 -14.001l45.5 -11.5c20 -4.66699 40 -10.167 60 -16.5s38 -15.166 54 -26.499s29 -26 39 -44s15 -41.333 15 -70c0 -29.333 -5.66699 -54.333 -17 -75s-26.666 -37.5 -45.999 -50.5s-41.833 -22.333 -67.5 -28s-52.834 -8.5 -81.501 -8.5
c-21.333 0 -42.333 1.33301 -63 4s-39.5 5.66699 -56.5 9s-31.5 7.16602 -43.5 11.499s-20.333 7.83301 -25 10.5v136l83 -5l10 -61c1.33301 -4 2.5 -7 3.5 -9s3.83301 -3.66699 8.5 -5c6.66699 -2 17.667 -4.83301 33 -8.5s34.333 -5.5 57 -5.5
c31.333 0 55.833 5.16699 73.5 15.5s26.5 28.166 26.5 53.499c0 14 -3.66699 25.333 -11 34s-17.166 15.834 -29.499 21.501s-26.333 10.167 -42 13.5s-31.834 7 -48.501 11c-18.667 4 -37.334 9 -56.001 15s-35.5 14.333 -50.5 25s-27 24.5 -36 41.5
s-13.5 38.833 -13.5 65.5c0 30 5.83301 55.667 17.5 77s27.167 38.5 46.5 51.5s41.666 22.5 66.999 28.5s51.333 9 78 9c18.667 0 36.667 -1 54 -3s33.5 -4.5 48.5 -7.5s28.167 -6.16699 39.5 -9.5s20 -6.33301 26 -9v-135z" />
    <glyph glyph-name="afii10103" unicode="&#x456;" horiz-adv-x="305" 
d="M219 690c0 -24 -6.66699 -42.5 -20 -55.5s-31.666 -19.5 -54.999 -19.5c-24 0 -42.5 6.5 -55.5 19.5s-19.5 31.5 -19.5 55.5c0 23.333 6.5 41.333 19.5 54s31.5 19 55.5 19c23.333 0 41.666 -6.33301 54.999 -19s20 -30.667 20 -54zM23 0v63.002l60 8
c7.33301 1.33301 11.833 3.16602 13.5 5.49902s2.5 7.16602 2.5 14.499v322c0 11.333 -4.33301 18.333 -13 21l-55 19l10 64h173v-426c0 -8 0.833008 -13 2.5 -15s6.16699 -3.66699 13.5 -5l59 -7v-64h-266z" />
    <glyph glyph-name="afii10104" unicode="&#x457;" horiz-adv-x="325" 
d="M1 685c0 18.667 5.66699 33.5 17 44.5s26.333 16.5 45 16.5s33.667 -5.5 45 -16.5s17 -25.833 17 -44.5s-5.66699 -33.5 -17 -44.5s-26.333 -16.5 -45 -16.5s-33.667 5.5 -45 16.5s-17 25.833 -17 44.5zM164 685c0 18.667 5.66699 33.5 17 44.5s26.333 16.5 45 16.5
s33.667 -5.5 45 -16.5s17 -25.833 17 -44.5s-5.66699 -33.5 -17 -44.5s-26.333 -16.5 -45 -16.5s-33.667 5.5 -45 16.5s-17 25.833 -17 44.5zM34 0v65.002l60 6c7.33301 1.33301 11.833 3.16602 13.5 5.49902s2.5 7.16602 2.5 14.499v322c0 11.333 -4.33301 18.333 -13 21
l-56 19l10 64h174v-426c0 -8 0.833008 -13 2.5 -15s6.16699 -3.66699 13.5 -5l59 -7v-64h-266z" />
    <glyph glyph-name="afii10105" unicode="&#x458;" horiz-adv-x="294" 
d="M97 413c0 6 -0.667969 10.5 -2.00098 13.5s-4.66602 5.5 -9.99902 7.5l-62 19l10 64h179v-577c0 -56.667 -13 -98 -39 -124s-65 -39 -117 -39c-34.667 0 -65.5 5.16699 -92.5 15.5s-46.167 20.5 -57.5 30.5l38 68c8.66699 -6 21.167 -12.167 37.5 -18.5
s33.5 -9.5 51.5 -9.5c24.667 0 41.5 7.33301 50.5 22s13.5 40 13.5 76v452zM217.999 690c0 -24 -6.66699 -42.5 -20 -55.5s-31.666 -19.5 -54.999 -19.5s-41.666 6.5 -54.999 19.5s-20 31.5 -20 55.5c0 23.333 6.66699 41.333 20 54s31.666 19 54.999 19
s41.666 -6.33301 54.999 -19s20 -30.667 20 -54z" />
    <glyph glyph-name="afii10106" unicode="&#x459;" horiz-adv-x="801" 
d="M94 517l486.001 0.000976562v-65l-70 -6c-5.33301 -0.666992 -8.83301 -1.5 -10.5 -2.5s-2.5 -4.16699 -2.5 -9.5v-118h100c52 0 94.333 -11.667 127 -35s49 -61 49 -113c0 -28.667 -5 -53.667 -15 -75s-24 -38.833 -42 -52.5s-39.167 -23.834 -63.5 -30.501
s-50.833 -10 -79.5 -10h-250v64l49 6c6.66699 0.666992 10 4.33398 10 11.001v353h-125c0 -44.667 -1.33301 -85.667 -4 -123s-6 -73.333 -10 -108c-4 -33.333 -9.83301 -63 -17.5 -89s-19 -48.167 -34 -66.5s-34.167 -32.833 -57.5 -43.5s-52.666 -17 -87.999 -19l-19 93
c17.333 2 32.333 5.66699 45 11s23.667 13.666 33 24.999s17 26.5 23 45.5s10.667 43.167 14 72.5c3.33301 23.333 6.16602 53 8.49902 89s4.16602 72.333 5.49902 109c0 10 -4.33301 15.333 -13 16l-49 5v66zM561.001 80.001c30 0 53.667 6.16699 71 18.5
s26 33.833 26 64.5c0 32 -9.5 53.167 -28.5 63.5s-42.833 15.5 -71.5 15.5h-61v-162h64z" />
    <glyph glyph-name="afii10107" unicode="&#x45a;" horiz-adv-x="811" 
d="M350 0l0.00195312 63.998l40 5c5.33301 0.666992 8.66602 1.66699 9.99902 3s2 4.33301 2 9v142h-192v-139c0 -5.33301 0.666992 -8.83301 2 -10.5s4.66602 -2.83398 9.99902 -3.50098l44 -6v-64h-230v64l47 5c5.33301 0.666992 8.66602 2 9.99902 4s2 5.66699 2 11v348
c0 5.33301 -0.666992 8.83301 -2 10.5s-4.66602 2.83398 -9.99902 3.50098l-47 5v66h230v-66l-42 -5c-5.33301 -1.33301 -9 -2.66602 -11 -3.99902s-3 -4.66602 -3 -9.99902v-130h192v131c0 5.33301 -0.666992 8.66602 -2 9.99902s-4.66602 2.33301 -9.99902 3l-40 5v66h251
v-65l-71 -6c-5.33301 -0.666992 -8.83301 -1.66699 -10.5 -3s-2.5 -4.66602 -2.5 -9.99902v-131h86c54.667 0 98.167 -10.833 130.5 -32.5s48.5 -58.167 48.5 -109.5c0 -54.667 -17.833 -95 -53.5 -121s-84.834 -39 -147.501 -39h-231zM577.002 79.998
c28 0 50.333 5.33301 67 16s25 30 25 58c0 29.333 -9.5 48.333 -28.5 57s-44.167 13 -75.5 13h-48v-144h60z" />
    <glyph glyph-name="afii10108" unicode="&#x45b;" horiz-adv-x="632" 
d="M358 0l0.00195312 63.001l47 7c8 1.33301 12.833 3.5 14.5 6.5s2.5 7.83301 2.5 14.5v212c0 12 -0.666992 24.333 -2 37s-4.33301 24.5 -9 35.5s-11.667 20 -21 27s-22.333 10.5 -39 10.5c-24.667 0 -49 -5.66699 -73 -17s-45.333 -23.666 -64 -36.999v-268
c0 -8 0.833008 -13 2.5 -15s6.16699 -3.66699 13.5 -5l53 -7v-64h-248v63l48 8c7.33301 1.33301 11.833 3.16602 13.5 5.49902s2.5 7.16602 2.5 14.499v465h-62v76h62v19c0 11.333 -4.33301 18.333 -13 21l-57 19l10 64h174v-123h175v-76h-175v-113
c25.333 17.333 51.666 32.333 78.999 45s58.666 19 93.999 19c54 0 92.667 -16.333 116 -49s35 -76.667 35 -132v-235c0 -8 0.833008 -13 2.5 -15s6.16699 -3.66699 13.5 -5l55 -7v-64h-250z" />
    <glyph glyph-name="afii10109" unicode="&#x45c;" horiz-adv-x="572" 
d="M277 564l-46 43l154 168l69 -67zM251 298c9.33301 0 17.333 0.664062 24 1.99707s12.834 4.16602 18.501 8.49902s11 10.666 16 18.999s10.167 19.833 15.5 34.5l27 71c11.333 30.667 25.833 53.834 43.5 69.501s43.5 23.5 77.5 23.5c11.333 0 21.5 -0.833008 30.5 -2.5
s17.5 -3.83398 25.5 -6.50098l-7 -73c-10 2 -19 3 -27 3c-12.667 -0.666992 -22 -4.16699 -28 -10.5s-12.667 -18.166 -20 -35.499l-27 -69c-8 -20.667 -16.833 -35.5 -26.5 -44.5s-19.834 -15.167 -30.501 -18.5v-2c10.667 -3.33301 20.834 -9.66602 30.501 -18.999
s19.834 -24.333 30.501 -45l54 -107c3.33301 -7.33301 6.66602 -12.833 9.99902 -16.5s8.66602 -6.16699 15.999 -7.5l53 -8v-64h-156c-13.333 35.333 -28 69 -44 101l-38 74c-5.33301 10.667 -10.333 19.334 -15 26.001s-9.66699 11.667 -15 15
s-11.333 5.66602 -18 6.99902s-14.667 2 -24 2h-37v-142c0 -5.33301 0.666992 -8.66602 2 -9.99902s4.66602 -2.33301 9.99902 -3l43 -5v-65h-229v65l47 5c5.33301 0.666992 8.66602 1.83398 9.99902 3.50098s2 5.16699 2 10.5v349c0 5.33301 -0.666992 8.83301 -2 10.5
s-4.66602 2.83398 -9.99902 3.50098l-47 5v65h232v-65l-46 -5c-5.33301 -0.666992 -8.66602 -2 -9.99902 -4s-2 -6 -2 -12v-133h41z" />
    <glyph glyph-name="afii10110" unicode="&#x45e;" horiz-adv-x="597" 
d="M56 -118c9.33301 -4.66699 21.001 -8.66797 35.001 -12.001s28 -5 42 -5c26.667 0 46.5 6.83301 59.5 20.5s25.833 36.167 38.5 67.5l21 49l-184 423c-2.66699 6 -5.33398 10 -8.00098 12s-7 3.66699 -13 5l-41 9l13 66h233v-66l-65 -8l124 -313h4l125 313l-66 8l11 66
h206v-66l-33 -5c-6.66699 -1.33301 -11.834 -3 -15.501 -5s-6.83398 -6 -9.50098 -12l-205 -498c-8 -20 -17.167 -39.167 -27.5 -57.5s-22.666 -34.666 -36.999 -48.999s-31.333 -25.666 -51 -33.999s-43.167 -12.5 -70.5 -12.5c-18 0 -36.667 2.16699 -56 6.5
s-38.666 11.166 -57.999 20.499zM320.001 641.999c25.333 0 44.667 7.66699 58 23s23.666 37 30.999 65l76 -23c-11.333 -43.333 -30 -76.833 -56 -100.5s-63 -35.5 -111 -35.5s-85.167 12 -111.5 36s-44.166 57 -53.499 99l81 25c4.66699 -26 13.5 -47.333 26.5 -64
s32.833 -25 59.5 -25z" />
    <glyph glyph-name="afii10193" unicode="&#x45f;" horiz-adv-x="601" 
d="M35 0l-0.000976562 61.001l48 6c5.33301 1.33301 8.66602 2.83301 9.99902 4.5s2 5.16699 2 10.5v352c0 5.33301 -0.666992 9 -2 11s-4.66602 3.33301 -9.99902 4l-48 6v61h224v-61l-36 -5c-8.66699 -0.666992 -13 -6 -13 -16v-350h181v351
c0 5.33301 -0.666992 8.83301 -2 10.5s-4.66602 3.16699 -9.99902 4.5l-38 5v61h224v-61l-47 -5c-5.33301 -0.666992 -8.5 -1.83398 -9.5 -3.50098s-1.5 -5.16699 -1.5 -10.5v-355c0 -5.33301 0.5 -8.83301 1.5 -10.5s4.16699 -2.83398 9.5 -3.50098l47 -6v-61h-201
c-4.66699 0 -7.66699 -0.666992 -9 -2s-2.33301 -3.66602 -3 -6.99902l-12 -125l-76 4l-15 121c-0.666992 6 -4 9 -10 9h-204z" />
    <glyph glyph-name="afii10050" unicode="&#x490;" horiz-adv-x="563" 
d="M52 0v64.001l63 7c7.33301 1.33301 11.833 3.16602 13.5 5.49902s2.5 7.16602 2.5 14.499v541c0 7.33301 -0.833008 12.333 -2.5 15s-6.16699 4.33398 -13.5 5.00098l-63 7v65h372c9.33301 0 15 5 17 15l17 90l83 5v-196h-293v-546c0 -8 0.833008 -13 2.5 -15
s6.16699 -3.66699 13.5 -5l144 -8v-64h-356z" />
    <glyph glyph-name="afii10098" unicode="&#x491;" horiz-adv-x="442" 
d="M37 0l0.000976562 60.999l46 5c5.33301 0.666992 8.66602 1.83398 9.99902 3.50098s2 5.16699 2 10.5v355c0 5.33301 -0.666992 8.83301 -2 10.5s-4.66602 2.83398 -9.99902 3.50098l-46 5v62h275c4.66699 0 7.66699 0.666992 9 2s2.66602 4 3.99902 8l14 69l84 6v-167
h-213v-353c0 -5.33301 0.5 -8.83301 1.5 -10.5s4.16699 -2.83398 9.5 -3.50098l105 -6v-61h-289z" />
    <glyph glyph-name="thinspace" unicode="&#x2009;" horiz-adv-x="125" 
 />
    <glyph glyph-name="endash" unicode="&#x2013;" horiz-adv-x="499" 
d="M0 239v84h499v-84h-499z" />
    <glyph glyph-name="emdash" unicode="&#x2014;" horiz-adv-x="1000" 
d="M0 239v84h1000v-84h-1000z" />
    <glyph glyph-name="quoteleft" unicode="&#x2018;" horiz-adv-x="200" 
d="M153 547c-16 0 -30.833 0.832031 -44.5 2.49902s-25.5 4.83398 -35.5 9.50098s-17.833 11 -23.5 19s-8.5 19 -8.5 33c0 9.33301 1.5 18.5 4.5 27.5s6.83301 18.167 11.5 27.5l50 101l52 -17l-25 -97c-2 -5.33301 -0.333008 -9 5 -11l34 -12z" />
    <glyph glyph-name="quoteright" unicode="&#x2019;" horiz-adv-x="200" 
d="M43 563l25 97c2 5.33301 0.333008 9 -5 11l-34 12l20 84c16 -0.666992 30.833 -1.83398 44.5 -3.50098s25.5 -4.66699 35.5 -9s17.833 -10.666 23.5 -18.999s8.5 -19.5 8.5 -33.5c0 -9.33301 -1.5 -18.333 -4.5 -27s-6.83301 -17.667 -11.5 -27l-51 -101z" />
    <glyph glyph-name="quotesinglbase" unicode="&#x201a;" horiz-adv-x="194" 
d="M49 -111l25 97c0.666992 5.33301 -1 9 -5 11l-34 12l20 84c16 -0.666992 30.833 -1.83398 44.5 -3.50098s25.5 -4.66699 35.5 -9s17.833 -10.666 23.5 -18.999s8.5 -19.5 8.5 -33.5c0 -9.33301 -1.66699 -18.333 -5 -27s-7.33301 -17.667 -12 -27l-50 -101z" />
    <glyph glyph-name="quotedblleft" unicode="&#x201c;" horiz-adv-x="360" 
d="M153 547c-16 0 -30.833 0.832031 -44.5 2.49902s-25.5 4.83398 -35.5 9.50098s-17.833 11 -23.5 19s-8.5 19 -8.5 33c0 9.33301 1.5 18.5 4.5 27.5s6.83301 18.167 11.5 27.5l50 101l52 -17l-25 -97c-2 -5.33301 -0.333008 -9 5 -11l34 -12zM313 546.999
c-16 0 -30.833 0.832031 -44.5 2.49902s-25.5 4.83398 -35.5 9.50098s-17.833 11 -23.5 19s-8.5 19 -8.5 33c0 9.33301 1.5 18.5 4.5 27.5s6.83301 18.167 11.5 27.5l50 101l52 -17l-25 -97c-2 -5.33301 -0.333008 -9 5 -11l34 -12z" />
    <glyph glyph-name="quotedblright" unicode="&#x201d;" horiz-adv-x="360" 
d="M43 563l25 97c2 5.33301 0.333008 9 -5 11l-34 12l20 84c16 -0.666992 30.833 -1.83398 44.5 -3.50098s25.5 -4.66699 35.5 -9s17.833 -10.666 23.5 -18.999s8.5 -19.5 8.5 -33.5c0 -9.33301 -1.5 -18.333 -4.5 -27s-6.83301 -17.667 -11.5 -27l-51 -101zM203 563l25 97
c2 5.33301 0.333008 9 -5 11l-34 12l20 84c16 -0.666992 30.833 -1.83398 44.5 -3.50098s25.5 -4.66699 35.5 -9s17.833 -10.666 23.5 -18.999s8.5 -19.5 8.5 -33.5c0 -9.33301 -1.5 -18.333 -4.5 -27s-6.83301 -17.667 -11.5 -27l-51 -101z" />
    <glyph glyph-name="quotedblbase" unicode="&#x201e;" horiz-adv-x="354" 
d="M49 -111l25 97c0.666992 5.33301 -1 9 -5 11l-34 12l20 84c16 -0.666992 30.833 -1.83398 44.5 -3.50098s25.5 -4.66699 35.5 -9s17.833 -10.666 23.5 -18.999s8.5 -19.5 8.5 -33.5c0 -9.33301 -1.66699 -18.333 -5 -27s-7.33301 -17.667 -12 -27l-50 -101zM209 -111
l25 97c0.666992 5.33301 -1 9 -5 11l-34 12l20 84c16 -0.666992 30.833 -1.83398 44.5 -3.50098s25.5 -4.66699 35.5 -9s17.833 -10.666 23.5 -18.999s8.5 -19.5 8.5 -33.5c0 -9.33301 -1.66699 -18.333 -5 -27s-7.33301 -17.667 -12 -27l-50 -101z" />
    <glyph glyph-name="dagger" unicode="&#x2020;" horiz-adv-x="397" 
d="M157 -83v190l-16 213l41 112h33l41 -112l-17 -213v-190h-82zM182 432l-84 -27h-74v87h74l84 -27v-33zM155 561v84h87v-84l-27 -96h-33zM299 405l-84 27v33l84 27h74v-87h-74z" />
    <glyph glyph-name="daggerdbl" unicode="&#x2021;" horiz-adv-x="429" 
d="M231 432l41 -110v-76l-41 -116h-33v-33h33l27 -96v-84h-87v84l27 96l-84 -27h-74v87h74l84 -27l-41 116v76l41 110l-84 -27h-74v87h74l84 -27l-27 96v84h87v-84l-27 -96l84 27h74v-87h-74l-84 27v33h-33v-33h33zM315 70l-84 27v33l84 27h74v-87h-74z" />
    <glyph glyph-name="bullet" unicode="&#x2022;" horiz-adv-x="395" 
d="M340 290c0 -46.667 -12.333 -81.5 -37 -104.5s-60 -34.5 -106 -34.5s-81.167 11.5 -105.5 34.5s-36.5 57.833 -36.5 104.5c0 46 12.167 80.5 36.5 103.5s59.5 34.5 105.5 34.5s81.333 -11.5 106 -34.5s37 -57.5 37 -103.5z" />
    <glyph glyph-name="ellipsis" unicode="&#x2026;" horiz-adv-x="616" 
d="M186 57c0 -46 -24.333 -69 -73 -69c-49.333 0 -74 23 -74 69s24.667 69 74 69c48.667 0 73 -23 73 -69zM389 57c0 -46 -24.333 -69 -73 -69c-49.333 0 -74 23 -74 69s24.667 69 74 69c48.667 0 73 -23 73 -69zM586 57c0 -46 -24.333 -69 -73 -69c-49.333 0 -74 23 -74 69
s24.667 69 74 69c48.667 0 73 -23 73 -69z" />
    <glyph glyph-name="perthousand" unicode="&#x2030;" horiz-adv-x="1098" 
d="M185 295c-26.667 0 -49.333 4 -68 12s-33.667 19 -45 33s-19.5 30.667 -24.5 50s-7.5 40.333 -7.5 63c0 52 12.833 92.833 38.5 122.5s63.5 44.5 113.5 44.5c51.333 0 88.333 -14.167 111 -42.5s34 -66.833 34 -115.5c0 -52 -12.833 -92.833 -38.5 -122.5
s-63.5 -44.5 -113.5 -44.5zM139.001 -17l377 638h107l-376 -638h-108zM188.001 359c23.333 0 39.666 8.83301 48.999 26.5s14 42.5 14 74.5c0 29.333 -4.33301 52.5 -13 69.5s-24.667 25.5 -48 25.5s-39.666 -9.5 -48.999 -28.5s-14 -41.833 -14 -68.5
c0 -30 4.33301 -54 13 -72s24.667 -27 48 -27zM575.001 -12c-26.667 0 -49.333 4 -68 12s-33.667 19 -45 33s-19.5 30.667 -24.5 50s-7.5 40.333 -7.5 63c0 52 12.833 92.833 38.5 122.5s63.5 44.5 113.5 44.5c51.333 0 88.333 -14.167 111 -42.5s34 -66.833 34 -115.5
c0 -52 -12.833 -92.833 -38.5 -122.5s-63.5 -44.5 -113.5 -44.5zM578.002 52c23.333 0 39.666 8.83301 48.999 26.5s14 42.5 14 74.5c0 29.333 -4.33301 52.5 -13 69.5s-24.667 25.5 -48 25.5s-39.666 -9.5 -48.999 -28.5s-14 -41.833 -14 -68.5c0 -30 4.33301 -54 13 -72
s24.667 -27 48 -27zM906.002 -12c-26.667 0 -49.333 4 -68 12s-33.667 19 -45 33s-19.5 30.667 -24.5 50s-7.5 40.333 -7.5 63c0 52 12.833 92.833 38.5 122.5s63.5 44.5 113.5 44.5c51.333 0 88.333 -14.167 111 -42.5s34 -66.833 34 -115.5
c0 -52 -12.833 -92.833 -38.5 -122.5s-63.5 -44.5 -113.5 -44.5zM909.003 52c23.333 0 39.666 8.83301 48.999 26.5s14 42.5 14 74.5c0 29.333 -4.33301 52.5 -13 69.5s-24.667 25.5 -48 25.5s-39.666 -9.5 -48.999 -28.5s-14 -41.833 -14 -68.5c0 -30 4.33301 -54 13 -72
s24.667 -27 48 -27z" />
    <glyph glyph-name="guilsinglleft" unicode="&#x2039;" horiz-adv-x="279" 
d="M137 103l-87 155l89 150h98l-77 -138c-2.66699 -4 -4 -7.16699 -4 -9.5s1 -5.5 3 -9.5l75 -148h-97z" />
    <glyph glyph-name="guilsinglright" unicode="&#x203a;" horiz-adv-x="278" 
d="M43 103l75 143c2.66699 4.66699 4 8 4 10s-1 5 -3 9l-77 143h98l88 -153l-87 -152h-98z" />
    <glyph glyph-name="fraction" unicode="&#x2044;" horiz-adv-x="179" 
d="M-150 -17l358 741h105l-357 -741h-106z" />
    <glyph glyph-name="Euro" unicode="&#x20ac;" horiz-adv-x="552" 
d="M198 345l-0.000976562 -23.999v-19c0 -6 0.333008 -12 1 -18h168l-13 -74h-146c18.667 -89.333 65.334 -134 140.001 -134c12 0 23.667 0.666992 35 2s20 3.33301 26 6c5.33301 2 8.66602 4.33301 9.99902 7s2.33301 6 3 10l14 76l80 5v-157
c-6.66699 -4 -16.167 -8.16699 -28.5 -12.5s-26.5 -8.33301 -42.5 -12s-33.167 -6.66699 -51.5 -9s-36.833 -3.5 -55.5 -3.5c-72.667 0 -129.834 18.167 -171.501 54.5s-68.834 92.166 -81.501 167.499h-85l14 74h63v61h-55l14 74h50c8 40 20.333 74.5 37 103.5
s36.5 53 59.5 72s48.667 33.167 77 42.5s57.833 14 88.5 14c36.667 0 70.334 -4.16699 101.001 -12.5s53.334 -16.833 68.001 -25.5v-155l-80 6l-14 74c-0.666992 4 -1.66699 7.33301 -3 10s-4.66602 5 -9.99902 7c-14 5.33301 -34.667 8 -62 8c-34 0 -63.667 -11 -89 -33
s-43 -59 -53 -111h183l-13 -74h-178z" />
    <glyph glyph-name="afii61352" unicode="&#x2116;" horiz-adv-x="1120" 
d="M513 0l-287 490v-398c0 -8 0.833008 -13 2.5 -15s6.16699 -3.66699 13.5 -5l67 -8v-64h-257v64l63 7c7.33301 1.33301 11.833 3.16602 13.5 5.49902s2.5 7.16602 2.5 14.499v449c0 7.33301 -0.833008 12.333 -2.5 15s-6.16699 4.33398 -13.5 5.00098l-63 7v65h217
l279 -477v386c0 7.33301 -0.833008 12.333 -2.5 15s-6.16699 4.33398 -13.5 5.00098l-63 7v64h256v-64l-67 -8c-7.33301 -1.33301 -11.833 -3 -13.5 -5s-2.5 -6.66699 -2.5 -14v-541h-129zM716 184h329v-86h-329v86zM879 223c-61.333 0 -105.499 16.001 -132.499 48.001
s-40.5 74 -40.5 126c0 54 14.833 97 44.5 129s75.167 48 136.5 48c30.667 0 56.667 -4.16699 78 -12.5s38.666 -20 51.999 -35s23 -32.833 29 -53.5s9 -43.334 9 -68.001c0 -54.667 -14 -98.667 -42 -132s-72.667 -50 -134 -50zM880.001 289.001
c24.667 0 44 8.16797 58 24.501s21 45.166 21 86.499c0 40 -6.33301 68.333 -19 85s-31.334 25 -56.001 25c-25.333 0 -45.333 -8.33301 -60 -25s-22 -45 -22 -85s6.33301 -68.5 19 -85.5s32.334 -25.5 59.001 -25.5z" />
    <glyph glyph-name="trademark" unicode="&#x2122;" horiz-adv-x="837" 
d="M98 348v41l57 5v280h-79l-8 -53h-40v103h321v-103h-41l-7 53h-80v-280l61 -5v-41h-184zM665 348v40l45 5v209l-90 -173h-51l-88 174v-210l48 -5v-40h-148v40l39 5v284l-39 4v43h106l110 -227l115 227h99v-43l-40 -4v-284l42 -5v-40h-148z" />
    <glyph glyph-name="partialdiff" unicode="&#x2202;" horiz-adv-x="561" 
d="M398 361c0.666992 6.66699 1.16406 13.8301 1.49707 21.4971s0.5 15.5 0.5 23.5c0 18.667 -1.83301 38.5 -5.5 59.5s-10.167 40.5 -19.5 58.5s-22.166 32.833 -38.499 44.5s-37.166 17.5 -62.499 17.5c-26.667 0 -53.167 -5.33301 -79.5 -16s-48.5 -22.667 -66.5 -36
l-47 71c26.667 19.333 58.334 35.666 95.001 48.999s74.667 20 114 20c44.667 0 81.334 -8.33301 110.001 -25s51.167 -38.834 67.5 -66.501s27.666 -59 33.999 -94s9.5 -70.833 9.5 -107.5c0 -43.333 -3.5 -88.166 -10.5 -134.499s-20 -88.666 -39 -126.999
s-45.5 -69.833 -79.5 -94.5s-77.667 -37 -131 -37c-68 0 -119.833 17.5 -155.5 52.5s-53.5 83.833 -53.5 146.5c0 34 4.66699 64.833 14 92.5s22.833 51.334 40.5 71.001s39 34.834 64 45.501s52.833 16 83.5 16c34.667 0 65 -5.16699 91 -15.5s47 -22.166 63 -35.499z
M389.997 276.996c-13.333 11.333 -30.667 23.002 -52 35.002s-45.333 18 -72 18c-20 0 -36.833 -3.83301 -50.5 -11.5s-24.667 -17.834 -33 -30.501s-14.333 -27.334 -18 -44.001s-5.5 -34 -5.5 -52c0 -16 1.66699 -31 5 -45s8.83301 -26.333 16.5 -37
s17.5 -19.167 29.5 -25.5s26.667 -9.5 44 -9.5c26 0 47.333 6.5 64 19.5s30 29.5 40 49.5s17.333 41.833 22 65.5s8 46.167 10 67.5z" />
    <glyph glyph-name="product" unicode="&#x220f;" horiz-adv-x="766" 
d="M461 -176v64.0029l63 7c7.33301 1.33301 11.833 3.16602 13.5 5.49902s2.5 7.16602 2.5 14.499v721h-316v-720c0 -8 0.833008 -13 2.5 -15s6.16699 -3.66699 13.5 -5l67 -8v-64h-279v64l63 7c7.33301 1.33301 11.833 3.16602 13.5 5.49902s2.5 7.16602 2.5 14.499v718
c0 7.33301 -0.833008 12.333 -2.5 15s-6.16699 4.33398 -13.5 5.00098l-63 7v64h712v-64l-67 -8c-7.33301 -1.33301 -11.833 -3 -13.5 -5s-2.5 -6.66699 -2.5 -14v-717c0 -8 0.833008 -13 2.5 -15s6.16699 -3.66699 13.5 -5l67 -8v-64h-279z" />
    <glyph glyph-name="summation" unicode="&#x2211;" horiz-adv-x="627" 
d="M18 -176v67l230 384l-216 384v65h536v-180l-85 4l-14 77c-2 8.66699 -7.66699 13 -17 13h-279l192 -354l-220 -367h321c5.33301 0 9 0.5 11 1.5s3.66699 4.16699 5 9.5l16 88h84v-192h-564z" />
    <glyph glyph-name="minus" unicode="&#x2212;" horiz-adv-x="570" 
d="M95 275v95h381v-95h-381z" />
    <glyph glyph-name="radical" unicode="&#x221a;" horiz-adv-x="570" 
d="M251 0l-125 219c-4.66699 7.33301 -10.667 10 -18 8l-62 -17l-30 69l147 70l129 -233l168 629l97 -24l-193 -721h-113z" />
    <glyph glyph-name="infinity" unicode="&#x221e;" horiz-adv-x="640" 
d="M320 264c-8 -8.66699 -17.1641 -17.6641 -27.4971 -26.9971s-21.666 -18 -33.999 -26s-26 -14.5 -41 -19.5s-31.5 -7.5 -49.5 -7.5s-35.167 2.66699 -51.5 8s-31 13.5 -44 24.5s-23.333 25 -31 42s-11.5 37.5 -11.5 61.5c0 21.333 3.83301 40.666 11.5 57.999
s18 32 31 44s28.333 21.167 46 27.5s36.834 9.5 57.501 9.5c33.333 0 61.666 -8.33301 84.999 -25s44.333 -34.667 63 -54l29 28c10 9.33301 21.167 17.666 33.5 24.999s25.666 13.5 39.999 18.5s30.166 7.5 47.499 7.5c18.667 0 36.167 -2.66699 52.5 -8
s30.666 -13.666 42.999 -24.999s22.166 -25.833 29.499 -43.5s11 -38.834 11 -63.501c0 -20.667 -3.66699 -39.334 -11 -56.001s-17.333 -31 -30 -43s-27.5 -21.333 -44.5 -28s-35.5 -10 -55.5 -10c-18 0 -34.333 2.5 -49 7.5s-28 11.5 -40 19.5s-23 16.833 -33 26.5
s-19 19.167 -27 28.5zM277.003 323.003c-15.333 18 -30.6689 32.998 -46.002 44.998s-33.666 18 -54.999 18c-19.333 0 -34.833 -6.16699 -46.5 -18.5s-17.5 -27.166 -17.5 -44.499c0 -16 4.83301 -31.333 14.5 -46s25.167 -22 46.5 -22c10.667 0 21 2.33301 31 7
s19.333 10.334 28 17.001s16.834 14 24.501 22zM370 322.001c14 -16 28.333 -30.667 43 -44s32.667 -20 54 -20c19.333 0 34.333 6.66699 45 20s16 28.333 16 45c0 17.333 -4.66699 32.333 -14 45s-24.333 19 -45 19c-19.333 0 -37 -7 -53 -21s-31.333 -28.667 -46 -44z" />
    <glyph glyph-name="integral" unicode="&#x222b;" horiz-adv-x="399" 
d="M52 -87c12 -6 24 -10.333 36 -13s23.667 -4 35 -4c16 0 28.833 4.5 38.5 13.5s13.5 27.5 11.5 55.5l-54 622c-2 27.333 1 50 9 68s18.667 32.333 32 43s28.5 18.167 45.5 22.5s33.5 6.5 49.5 6.5c22.667 0 42.834 -1.83301 60.501 -5.5s35.5 -8.83398 53.5 -15.501
l-23 -82c-24 12 -47.667 18 -71 18c-16 0 -28.833 -5 -38.5 -15s-13.5 -28.333 -11.5 -55l54 -621c2 -28 -1 -51 -9 -69s-18.667 -32.333 -32 -43s-28.5 -18 -45.5 -22s-33.5 -6 -49.5 -6c-22.667 0 -42.834 1.83301 -60.501 5.5s-35.5 8.83398 -53.5 15.501z" />
    <glyph glyph-name="approxequal" unicode="&#x2248;" horiz-adv-x="570" 
d="M506 499c-3.33301 -15.333 -7.16797 -30.001 -11.501 -44.001s-10.166 -26.167 -17.499 -36.5s-16.5 -18.666 -27.5 -24.999s-24.5 -9.5 -40.5 -9.5c-18 0 -37.167 2.16699 -57.5 6.5s-40.333 9 -60 14l-57 14c-18.333 4.33301 -34.833 6.5 -49.5 6.5
c-14 0 -25.167 -3.66699 -33.5 -11s-17.833 -19.333 -28.5 -36l-59 26c14 32 29.167 57.667 45.5 77s39.5 29 69.5 29c19.333 0 38.5 -2.16699 57.5 -6.5s38 -9 57 -14l55 -14c17.667 -4.33301 34.5 -6.5 50.5 -6.5c13.333 0 22.833 4 28.5 12s11.5 20 17.5 36z
M504.998 314.999c-3.33301 -15.333 -7.16797 -30.001 -11.501 -44.001s-10.166 -26.167 -17.499 -36.5s-16.5 -18.666 -27.5 -24.999s-24.5 -9.5 -40.5 -9.5c-18 0 -37.167 2.16699 -57.5 6.5s-40.333 9 -60 14s-38.667 9.5 -57 13.5s-34.833 6 -49.5 6
c-14 0 -25.167 -3.66699 -33.5 -11s-17.5 -19.333 -27.5 -36l-60 27c14 32 29.167 57.667 45.5 77s39.5 29 69.5 29c19.333 0 38.5 -2.16699 57.5 -6.5s38 -9 57 -14l55 -14c17.667 -4.33301 34.5 -6.5 50.5 -6.5c13.333 0 23 4 29 12s11.667 20 17 36z" />
    <glyph glyph-name="notequal" unicode="&#x2260;" horiz-adv-x="570" 
d="M275 147l-38 -90h-88l38 90h-91v97h132l32 75h-164v97h205l37 87h87l-37 -87h86v-97h-127l-31 -75h158v-97h-199z" />
    <glyph glyph-name="lessequal" unicode="&#x2264;" horiz-adv-x="570" 
d="M89 256v116l376 149l15 -94l-293 -111l295 -109l-12 -93zM90 0v95h381v-95h-381z" />
    <glyph glyph-name="greaterequal" unicode="&#x2265;" horiz-adv-x="570" 
d="M100 114l-12 93l295 109l-293 109l15 96l376 -149v-116zM99 0v95h381v-95h-381z" />
    <glyph glyph-name="lozenge" unicode="&#x25ca;" horiz-adv-x="570" 
d="M241 -17l-156 324l156 324h88l156 -324l-156 -324h-88zM392 307l-107 221l-104 -221l104 -226z" />
    <glyph glyph-name="breve.cyr" 
d="M251 642c25.333 0 44.667 7.66699 58 23s23.666 37 30.999 65l76 -23c-11.333 -43.333 -30 -76.833 -56 -100.5s-63 -35.5 -111 -35.5s-85.167 12 -111.5 36s-44.166 57 -53.499 99l81 25c4.66699 -26 13.5 -47.333 26.5 -64s32.833 -25 59.5 -25z" />
    <glyph glyph-name="hyphen.case" horiz-adv-x="317" 
d="M23 299v104h271v-104h-271z" />
    </font>
</defs>
</svg>
