<?xml version="1.0" standalone="no"?>
<!DOCTYPE svg PUBLIC "-//W3C//DTD SVG 1.1//EN" "http://www.w3.org/Graphics/SVG/1.1/DTD/svg11.dtd" >
<svg>
<metadata>
Created by FontForge 20090914 at Mon May  1 15:25:01 2017
 By www-data
Copyright (c) 2010 by TypeTogether. All rights reserved.This font is ONLY licensed for use when accessed from the Extensis WebINK font service. Any other use of this font file is illegal under United States and international copyright laws. Please respect the rights of the people who design and license fonts.
</metadata>
<defs>
<font id="AdelleCyrillic-BoldItalic" horiz-adv-x="500" >
  <font-face 
    font-family="Adelle Cyrillic"
    font-weight="700"
    font-style="italic"
    font-stretch="normal"
    units-per-em="1000"
    panose-1="2 0 8 3 0 0 0 9 0 4"
    ascent="755"
    descent="-245"
    x-height="521"
    cap-height="724.002"
    bbox="-157 -256 1108 955"
    underline-thickness="50"
    underline-position="-50"
    unicode-range="U+000D-U+25CA"
  />
<missing-glyph 
 />
    <glyph glyph-name=".notdef" 
 />
    <glyph glyph-name="NULL" horiz-adv-x="0" 
 />
    <glyph glyph-name="NULL" horiz-adv-x="0" 
 />
    <glyph glyph-name="nonmarkingreturn" unicode="&#xd;" 
 />
    <glyph glyph-name="space" unicode=" " horiz-adv-x="202" 
 />
    <glyph glyph-name="exclam" unicode="!" horiz-adv-x="283" 
d="M88 192l33 355l25 177h161l-25 -177l-67 -355h-127zM221 79c0 -29.333 -7.83301 -51.833 -23.5 -67.5s-40.167 -23.5 -73.5 -23.5c-51.333 0 -77 21.333 -77 64c0 29.333 8 52 24 68s41 24 75 24c50 0 75 -21.667 75 -65z" />
    <glyph glyph-name="quotedbl" unicode="&#x22;" horiz-adv-x="415" 
d="M275 447l37 259h135l-37 -259h-135zM75 447l37 259h135l-37 -259h-135z" />
    <glyph glyph-name="numbersign" unicode="#" horiz-adv-x="607" 
d="M425 121l-34 -121h-104l35 121h-87l-34 -121h-104l34 121h-99l36 101h94l33 113h-100l35 102h94l31 106h104l-31 -106h86l31 106h104l-31 -106h101l-34 -102h-96l-33 -113h101l-35 -101h-97zM385 335h-86l-34 -113h87z" />
    <glyph glyph-name="dollar" unicode="$" horiz-adv-x="518" 
d="M402 444l-2.99805 68.999c0 10 -4 16.333 -12 19c-7.33301 2.66699 -16.166 4.33398 -26.499 5.00098s-21.5 1 -33.5 1c-32 0 -57.5 -5.83301 -76.5 -17.5s-28.5 -29.167 -28.5 -52.5c0 -12.667 3.16699 -23.667 9.5 -33s14.833 -17.333 25.5 -24s23 -12.667 37 -18
l44 -17c18 -6.66699 36 -14.334 54 -23.001s34.167 -19.334 48.5 -32.001s26 -28.167 35 -46.5s13.5 -40.5 13.5 -66.5c0 -56.667 -17 -101.834 -51 -135.501s-78.333 -55.5 -133 -65.5l-11 -87h-124l11 82c-30.667 2 -60.5 5.83301 -89.5 11.5s-53.167 13.834 -72.5 24.501
l23 164l105 -6l5 -69c0.666992 -6.66699 2.16699 -11.667 4.5 -15s7.16602 -6 14.499 -8s16.833 -3.66699 28.5 -5s25.167 -2 40.5 -2c71.333 0 107 25.667 107 77c0 12.667 -3 23.334 -9 32.001s-14.167 16.334 -24.5 23.001s-22.333 12.5 -36 17.5l-42.5 15.5
c-18.667 6.66699 -37.334 14.167 -56.001 22.5s-35.5 19 -50.5 32s-27.167 28.833 -36.5 47.5s-14 42 -14 70c0 30 4.83301 56.5 14.5 79.5s23.167 42.5 40.5 58.5s37.666 28.833 60.999 38.5s48.333 16.5 75 20.5l12 76h125l-11 -74c26.667 -2 51.5 -5.66699 74.5 -11
s43.5 -11 61.5 -17l-23 -170z" />
    <glyph glyph-name="percent" unicode="%" horiz-adv-x="908" 
d="M222 257c-27.333 0 -50.334 3.83203 -69.001 11.499s-33.834 18 -45.501 31s-20 28.167 -25 45.5s-7.5 36 -7.5 56c0 31.333 4 60.5 12 87.5s20.333 50.167 37 69.5s37.834 34.5 63.501 45.5s56.167 16.5 91.5 16.5c52 0 89.333 -12.833 112 -38.5s34 -60.167 34 -103.5
c0 -32 -4.33301 -61.667 -13 -89s-21.5 -50.666 -38.5 -69.999s-38.167 -34.5 -63.5 -45.5s-54.666 -16.5 -87.999 -16.5zM171.999 -17.001l466 638h138l-465 -638h-139zM236.999 338.999c16.667 0 29.834 4.16602 39.501 12.499s17 19 22 32s8.33301 27.333 10 43
s2.5 30.834 2.5 45.501c0 21.333 -3.5 37.5 -10.5 48.5s-18.833 16.5 -35.5 16.5c-26.667 0 -45.834 -11.667 -57.501 -35s-17.5 -54.333 -17.5 -93c0 -22 3.5 -39.167 10.5 -51.5s19.167 -18.5 36.5 -18.5zM673.999 -12.002c-27.333 0 -50.333 3.83203 -69 11.499
s-33.834 18 -45.501 31s-20 28.167 -25 45.5s-7.5 36 -7.5 56c0 31.333 4 60.5 12 87.5s20.333 50.167 37 69.5s37.834 34.5 63.501 45.5s56.167 16.5 91.5 16.5c52 0 89.5 -12.833 112.5 -38.5s34.5 -60.167 34.5 -103.5c0 -32 -4.33301 -61.667 -13 -89
s-21.5 -50.666 -38.5 -69.999s-38.333 -34.5 -64 -45.5s-55.167 -16.5 -88.5 -16.5zM689.999 69.9971c16 0 28.832 4.16602 38.499 12.499s17 19 22 32s8.33301 27.333 10 43s2.5 30.834 2.5 45.501c0 21.333 -3.5 37.5 -10.5 48.5s-18.5 16.5 -34.5 16.5
c-27.333 0 -46.666 -11.667 -57.999 -35s-17 -54.333 -17 -93c0 -22 3.5 -39.167 10.5 -51.5s19.167 -18.5 36.5 -18.5z" />
    <glyph glyph-name="ampersand" unicode="&#x26;" horiz-adv-x="698" 
d="M631 316c-6 -0.666992 -10 -1.83203 -12 -3.49902s-3.33301 -5.16699 -4 -10.5l-34 -260c-36.667 -18.667 -78 -32.334 -124 -41.001s-89.667 -13 -131 -13c-46.667 0 -86.167 4 -118.5 12s-58.833 19.5 -79.5 34.5s-35.667 33.333 -45 55s-14 45.834 -14 72.501
s4.16699 50.5 12.5 71.5s19.5 39.167 33.5 54.5s30.167 28 48.5 38s37.5 17.333 57.5 22v2c-10.667 4 -21.5 9.5 -32.5 16.5s-21 16 -30 27s-16.333 23.833 -22 38.5s-8.5 31 -8.5 49c0 32.667 6.16699 61.5 18.5 86.5s29.833 46 52.5 63s49.5 29.833 80.5 38.5
s65.5 13 103.5 13c46.667 0 90.5 -5.33301 131.5 -16s72.833 -23.334 95.5 -38.001l-25 -155l-108 9l-4 64c-0.666992 4.66699 -1.5 8.5 -2.5 11.5s-4.16699 5.16699 -9.5 6.5c-8.66699 2.66699 -19.667 4.83398 -33 6.50098s-26.666 2.5 -39.999 2.5
c-14 0 -27.667 -1.33301 -41 -4s-25.333 -7.5 -36 -14.5s-19.167 -16.5 -25.5 -28.5s-9.5 -27 -9.5 -45c0 -25.333 8.16699 -45.5 24.5 -60.5s40.166 -22.5 71.499 -22.5h40l-14 -106c-23.333 0 -45.833 -1.33301 -67.5 -4s-40.667 -7.83398 -57 -15.501
s-29.5 -18.5 -39.5 -32.5s-15 -32.333 -15 -55c0 -32 10.5 -54.5 31.5 -67.5s49.5 -19.5 85.5 -19.5c38 0 66 2.66699 84 8c9.33301 2.66699 15.333 5.5 18 8.5s4.66699 9.16699 6 18.5l37 256l18 12h185l-11 -80z" />
    <glyph glyph-name="quotesingle" unicode="'" horiz-adv-x="215" 
d="M75 447l37 259h135l-37 -259h-135z" />
    <glyph glyph-name="parenleft" unicode="(" horiz-adv-x="362" 
d="M169 -173c-14 22.667 -27.501 48.334 -40.501 77.001s-24.167 59.334 -33.5 92.001s-16.833 66.667 -22.5 102s-8.5 71.333 -8.5 108c0 54.667 6.5 106.667 19.5 156s30.667 96.333 53 141s48.333 87 78 127s60.834 78 93.501 114l102 -67
c-33.333 -41.333 -61.833 -81.333 -85.5 -120s-43 -77.334 -58 -116.001s-26 -78.167 -33 -118.5s-10.5 -82.833 -10.5 -127.5c0 -60 6.5 -114.333 19.5 -163s30.167 -95.334 51.5 -140.001z" />
    <glyph glyph-name="parenright" unicode=")" horiz-adv-x="362" 
d="M-13 -106c33.333 41.333 61.8301 81.334 85.4971 120.001s43 77.334 58 116.001s26 78.167 33 118.5s10.5 82.833 10.5 127.5c0 60 -6.5 114.167 -19.5 162.5s-29.833 95.166 -50.5 140.499l124 65c14.667 -22.667 28.334 -48.5 41.001 -77.5s23.834 -59.667 33.501 -92
s17.167 -66.333 22.5 -102s8 -71.834 8 -108.501c0 -54.667 -6.5 -106.5 -19.5 -155.5s-30.667 -95.833 -53 -140.5s-48.166 -87 -77.499 -127s-60.333 -78 -93 -114z" />
    <glyph glyph-name="asterisk" unicode="*" horiz-adv-x="477" 
d="M123 446l51 56l95 55l-104 -4l-64 22l48 100l64 -22l70 -65l-22 97l10 70h105l-10 -70l-49 -97h-34l-14 -31l25 -19l-43 -99l-50 -57zM344 383l-35 56l-15 99l28 19l-5 31l89 65l70 22l19 -100l-70 -22l-103 4l79 -56l36 -56z" />
    <glyph glyph-name="plus" unicode="+" horiz-adv-x="570" 
d="M210 121l21 144h-133l16 116h133l20 140h120l-20 -140h134l-16 -116h-134l-21 -144h-120z" />
    <glyph glyph-name="comma" unicode="," horiz-adv-x="258" 
d="M36 -99l42.9971 107.001c2.66699 6 1.33398 10 -3.99902 12l-39 14l38 108c18 0 34.833 -0.833008 50.5 -2.5s29.334 -4.83398 41.001 -9.50098s20.834 -11.5 27.501 -20.5s10 -21.167 10 -36.5c0 -13.333 -3.5 -26.833 -10.5 -40.5s-13.833 -26.167 -20.5 -37.5
l-71 -114z" />
    <glyph glyph-name="hyphen" unicode="-" horiz-adv-x="311" 
d="M35 227l18 127h271l-18 -127h-271z" />
    <glyph glyph-name="period" unicode="." horiz-adv-x="276" 
d="M216 76c0 -28 -8.16699 -49.667 -24.5 -65s-40.5 -23 -72.5 -23c-50.667 0 -76 22.333 -76 67c0 28.667 8.16699 50.667 24.5 66s40.833 23 73.5 23c26 0 45 -5.66699 57 -17s18 -28.333 18 -51z" />
    <glyph glyph-name="slash" unicode="/" horiz-adv-x="455" 
d="M-20 -92l388 823h145l-388 -823h-145z" />
    <glyph glyph-name="zero" unicode="0" horiz-adv-x="579" 
d="M567 289c-6 -46.667 -15.8291 -88.666 -29.4961 -125.999s-32.334 -69 -56.001 -95s-53 -45.833 -88 -59.5s-76.833 -20.5 -125.5 -20.5c-40.667 0 -75 5.33301 -103 16s-50.667 25.667 -68 45s-30 42.666 -38 69.999s-12 57.333 -12 90c0 28 2 57 6 87
c5.33301 44 15.166 84.167 29.499 120.5s33.666 67.333 57.999 93s54.166 45.667 89.499 60s77 21.5 125 21.5c40 0 74 -5.5 102 -16.5s50.5 -26.167 67.5 -45.5s29.333 -42.5 37 -69.5s11.5 -56.5 11.5 -88.5c0 -26.667 -2 -54 -6 -82zM283.004 94.001
c36 0 63.999 14.501 83.999 43.501s34.333 78.833 43 149.5l5.5 47.5c1.66699 14.333 2.5 27.166 2.5 38.499c0 36.667 -6 64 -18 82s-32 27 -60 27c-36.667 0 -65.167 -14.167 -85.5 -42.5s-35.166 -77.5 -44.499 -147.5c-4 -34 -6 -62.667 -6 -86
c0 -36.667 6 -64.5 18 -83.5s32.333 -28.5 61 -28.5z" />
    <glyph glyph-name="one" unicode="1" horiz-adv-x="402" 
d="M15 0l9.99805 74.999l85 6c6.66699 0.666992 10.834 2.33398 12.501 5.00098s3.16699 7.66699 4.5 15l50 359c2 11.333 -1.33301 18.333 -10 21l-84 18l12 77h246l-66 -475c-1.33301 -8 -1.16602 -13.167 0.500977 -15.5s6.16699 -3.83301 13.5 -4.5l78 -7l-11 -74h-341z
" />
    <glyph glyph-name="two" unicode="2" horiz-adv-x="516" 
d="M17 0l13 92.9971l154 137l78.5 69c21 18.667 38 35.334 51 50.001s22.333 28.334 28 41.001s8.5 26.334 8.5 41.001c0 15.333 -4.83301 27.833 -14.5 37.5s-25.834 14.5 -48.501 14.5c-28 0 -48.167 -6 -60.5 -18s-21.166 -36 -26.499 -72l-135 13
c5.33301 40 16 72.333 32 97s35 43.5 57 56.5s46.333 21.667 73 26s53.667 6.5 81 6.5c34 0 62.833 -3.83301 86.5 -11.5s43 -18.167 58 -31.5s26 -28.833 33 -46.5s10.5 -36.834 10.5 -57.501c0 -26.667 -4.33301 -50.667 -13 -72s-20.5 -41.166 -35.5 -59.499
s-32.5 -36.333 -52.5 -54l-64 -55.5l-125 -107h146c4.66699 0 8 0.5 10 1.5s3.66699 4.16699 5 9.5l25 80h104l-26 -188h-453z" />
    <glyph glyph-name="three" unicode="3" horiz-adv-x="516" 
d="M372 265c30 -8 54.6709 -22.499 74.0039 -43.499s29 -51.833 29 -92.5c0 -35.333 -6.33301 -66.166 -19 -92.499s-30.334 -48.333 -53.001 -66s-49.667 -31 -81 -40s-66 -13.5 -104 -13.5c-52 0 -98.333 8.83301 -139 26.5s-71.334 40.5 -92.001 68.5l88 85
c15.333 -15.333 34.333 -30.333 57 -45s51 -22 85 -22c31.333 0 57.666 7.16699 78.999 21.5s32 39.833 32 76.5c0 28 -8 48.167 -24 60.5s-38 18.5 -66 18.5c-12.667 0 -23.834 -0.333008 -33.501 -1s-21.834 -2.33398 -36.501 -5.00098l13 100l47 5
c40 4.66699 71.167 17 93.5 37s33.5 47.333 33.5 82c0 16.667 -5 30.5 -15 41.5s-26.667 16.5 -50 16.5c-27.333 0 -47.666 -6 -60.999 -18s-22.333 -35.667 -27 -71l-138 13c4.66699 38.667 15 70 31 94s35.5 42.667 58.5 56s48 22.333 75 27s53.5 7 79.5 7
c66.667 0 115.667 -13.333 147 -40s47 -65 47 -115c0 -44.667 -12.667 -80.834 -38 -108.501s-56 -47.167 -92 -58.5v-4z" />
    <glyph glyph-name="four" unicode="4" horiz-adv-x="549" 
d="M295 -67l17 129h-284l14 103l259 429l119 -61l-231 -354h139l23 164l138 18l-26 -182h81l-16 -117h-81l-17 -129h-135z" />
    <glyph glyph-name="five" unicode="5" horiz-adv-x="521" 
d="M237 450l-36.001 -140.999c15.333 11.333 33.333 20.666 54 27.999s45.334 11 74.001 11c50 0 89.667 -15 119 -45s44 -73.333 44 -130c0 -36.667 -5.83301 -70.5 -17.5 -101.5s-29 -58 -52 -81s-51.333 -41 -85 -54s-72.5 -19.5 -116.5 -19.5
c-54.667 0 -102 8.83301 -142 26.5s-71.333 40.167 -94 67.5l89 87c16 -17.333 35.333 -32.833 58 -46.5s51 -20.5 85 -20.5c17.333 0 33.5 2.33301 48.5 7s28.167 12 39.5 22s20.333 22.667 27 38s10 33.333 10 54c0 16.667 -2.33301 30.334 -7 41.001
s-10.834 19.167 -18.501 25.5s-16.167 10.666 -25.5 12.999s-18.666 3.5 -27.999 3.5c-19.333 0 -37.5 -4 -54.5 -12s-32.167 -18.333 -45.5 -31l-92 43l70 341h367l-17 -126h-254z" />
    <glyph glyph-name="six" unicode="6" horiz-adv-x="552" 
d="M486 501c-19.333 16.667 -38.168 28.001 -56.501 34.001s-36.166 9 -53.499 9c-21.333 0 -40.833 -4.83301 -58.5 -14.5s-33 -22.667 -46 -39s-23.833 -35.333 -32.5 -57s-14.667 -44.5 -18 -68.5c18.667 10 40.334 19.333 65.001 28s52.667 13 84 13
c23.333 0 45 -3.33301 65 -10s37.167 -16.667 51.5 -30s25.666 -30.5 33.999 -51.5s12.5 -45.5 12.5 -73.5c0 -42.667 -6.66699 -79.834 -20 -111.501s-31.5 -58 -54.5 -79s-50.333 -36.667 -82 -47s-66.167 -15.5 -103.5 -15.5c-40 0 -73.5 6.66699 -100.5 20
s-48.833 31.166 -65.5 53.499s-28.667 48.5 -36 78.5s-11 61.333 -11 94c0 44 5.16699 90.667 15.5 140s27.833 94.833 52.5 136.5s57.5 76.167 98.5 103.5s92.167 41 153.5 41c36 0 69.5 -5.66699 100.5 -17s58.167 -28.666 81.5 -51.999zM210.998 265.001
c-0.666992 -9.33301 -0.999023 -17 -0.999023 -23v-23c0 -15.333 1 -30.333 3 -45s5.83301 -27.667 11.5 -39s13.334 -20.333 23.001 -27s22.5 -10 38.5 -10c19.333 0 35 4.33301 47 13s21.667 19.5 29 32.5s12.333 27 15 42s4 28.833 4 41.5
c0 25.333 -5.83301 43.5 -17.5 54.5s-27.834 16.5 -48.501 16.5s-39.834 -3.5 -57.501 -10.5s-33.167 -14.5 -46.5 -22.5z" />
    <glyph glyph-name="seven" unicode="7" horiz-adv-x="517" 
d="M113 -67c13.333 69.333 31.501 131.832 54.501 187.499s47.667 104.834 74 147.501s52.666 79 78.999 109s48.833 54.333 67.5 73h-189c-5.33301 0 -8.83301 -0.833008 -10.5 -2.5s-3.16699 -5.16699 -4.5 -10.5l-26 -84l-104 -8l33 231h482l-18 -113
c-32.667 -30.667 -64 -66.167 -94 -106.5s-57.5 -83.333 -82.5 -129s-46.667 -93.5 -65 -143.5s-31.5 -100.333 -39.5 -151h-157z" />
    <glyph glyph-name="eight" unicode="8" horiz-adv-x="517" 
d="M423 334c24 -15.333 43.167 -33.5 57.5 -54.5s21.5 -49.5 21.5 -85.5c0 -34 -6.83301 -63.833 -20.5 -89.5s-32.5 -47.167 -56.5 -64.5s-52.5 -30.333 -85.5 -39s-68.833 -13 -107.5 -13c-64 0 -113.833 12.5 -149.5 37.5s-53.5 62.167 -53.5 111.5
c0 46.667 11.333 85.834 34 117.501s52 59.5 88 83.5c-16 13.333 -30 29.666 -42 48.999s-18 45 -18 77c0 30.667 5.83301 57.834 17.5 81.501s28.167 43.667 49.5 60s46.833 28.666 76.5 36.999s62.167 12.5 97.5 12.5c60 0 106.167 -12.833 138.5 -38.5
s48.5 -60.5 48.5 -104.5c0 -38 -9.5 -71.667 -28.5 -101s-41.5 -55 -67.5 -77zM240 281c-28 -21.333 -49.002 -41.8281 -63.002 -61.4951s-21 -40.5 -21 -62.5c0 -20.667 7.33301 -37.334 22 -50.001s37.334 -19 68.001 -19c34 0 59.5 8.16699 76.5 24.5
s25.5 36.166 25.5 59.499c0 13.333 -3.16699 25.166 -9.5 35.499s-14.666 19.666 -24.999 27.999s-21.833 16.166 -34.5 23.499zM323.998 385.005c21.333 18.667 38.167 36.998 50.5 54.998s18.5 36.667 18.5 56c0 20 -6.33301 35 -19 45s-30 15 -52 15
c-26.667 0 -48 -6.66699 -64 -20s-24 -30.666 -24 -51.999c0 -11.333 2.5 -21.666 7.5 -30.999s11.667 -18 20 -26s18 -15.333 29 -22z" />
    <glyph glyph-name="nine" unicode="9" horiz-adv-x="552" 
d="M99 83c15.333 -13.333 34.1641 -25.668 56.4971 -37.001s45.833 -17 70.5 -17c24 0 44.333 4.16699 61 12.5s30.667 20 42 35s20.5 32.833 27.5 53.5s12.5 43.334 16.5 68.001c-17.333 -10 -37.5 -19.333 -60.5 -28s-50.5 -13 -82.5 -13c-24 0 -46.333 3.83301 -67 11.5
s-38.5 18.834 -53.5 33.501s-26.667 33 -35 55s-12.5 47 -12.5 75c0 40 6.16699 76 18.5 108s30 59.167 53 81.5s50.5 39.5 82.5 51.5s68 18 108 18c39.333 0 72.5 -6.16699 99.5 -18.5s48.833 -29.5 65.5 -51.5s28.667 -48.333 36 -79s11 -64 11 -100
c0 -25.333 -1.5 -53.5 -4.5 -84.5s-8.66699 -62.167 -17 -93.5s-19.666 -61.833 -33.999 -91.5s-33.166 -56 -56.499 -79s-51.666 -41.333 -84.999 -55s-72.666 -20.5 -117.999 -20.5c-18 0 -36.333 1.83301 -55 5.5s-36.667 9 -54 16s-33.333 15.167 -48 24.5
s-27.334 19.666 -38.001 30.999zM382.998 302.998c2 19.333 2.99902 37.3301 2.99902 53.9971c0 16 -1 31.5 -3 46.5s-5.66699 28.333 -11 40s-13 21 -23 28s-22.667 10.5 -38 10.5c-16 0 -30 -3.66699 -42 -11s-22 -17.166 -30 -29.499s-14 -26.666 -18 -42.999
s-6 -33.166 -6 -50.499c0 -26 4.83301 -45.667 14.5 -59s26.834 -20 51.501 -20c18.667 0 36.667 3.33301 54 10s33.333 14.667 48 24z" />
    <glyph glyph-name="colon" unicode=":" horiz-adv-x="276" 
d="M274 456c0 -28 -8.16699 -49.667 -24.5 -65s-40.5 -23 -72.5 -23c-50.667 0 -76 22.333 -76 67c0 28.667 8.16699 50.667 24.5 66s40.833 23 73.5 23c26 0 45 -5.66699 57 -17s18 -28.333 18 -51zM216 76c0 -28 -8.16699 -49.667 -24.5 -65s-40.5 -23 -72.5 -23
c-50.667 0 -76 22.333 -76 67c0 28.667 8.16699 50.667 24.5 66s40.833 23 73.5 23c26 0 45 -5.66699 57 -17s18 -28.333 18 -51z" />
    <glyph glyph-name="semicolon" unicode=";" horiz-adv-x="258" 
d="M36 -99l42.9971 107.001c2.66699 6 1.33398 10 -3.99902 12l-39 14l38 108c18 0 34.833 -0.833008 50.5 -2.5s29.334 -4.83398 41.001 -9.50098s20.834 -11.5 27.501 -20.5s10 -21.167 10 -36.5c0 -13.333 -3.5 -26.833 -10.5 -40.5s-13.833 -26.167 -20.5 -37.5
l-71 -114zM269.997 456.001c0 -28 -8.16699 -49.667 -24.5 -65s-40.5 -23 -72.5 -23c-50.667 0 -76 22.333 -76 67c0 28.667 8.16699 50.667 24.5 66s40.833 23 73.5 23c26 0 45 -5.66699 57 -17s18 -28.333 18 -51z" />
    <glyph glyph-name="less" unicode="&#x3c;" horiz-adv-x="570" 
d="M107 221l19 140l408 142l18 -113l-306 -98l280 -98l-49 -110z" />
    <glyph glyph-name="equal" unicode="=" horiz-adv-x="570" 
d="M91 130l16 117h386l-16 -117h-386zM117 316l16 117h386l-17 -117h-385z" />
    <glyph glyph-name="greater" unicode="&#x3e;" horiz-adv-x="570" 
d="M92 84l-14 116l308 98l-278 98l46 107l367 -142l-19 -140z" />
    <glyph glyph-name="question" unicode="?" horiz-adv-x="528" 
d="M148 192l24.998 186c23.333 2 48.333 6 75 12s51.334 15 74.001 27s41.5 27.667 56.5 47s22.5 43.333 22.5 72c0 22 -7 38.333 -21 49s-32.333 16 -55 16c-15.333 0 -28.666 -0.666992 -39.999 -2s-20.666 -3 -27.999 -5s-12 -4.33301 -14 -7s-3.66699 -7 -5 -13l-15 -60
l-124 -9l24 173c36 13.333 72.5 24.333 109.5 33s75.167 13 114.5 13c30 0 58.333 -2.83301 85 -8.5s49.667 -15.5 69 -29.5s34.666 -32.833 45.999 -56.5s17 -53.5 17 -89.5c0 -65.333 -20.833 -120.333 -62.5 -165s-105.167 -73.667 -190.5 -87l-12 -96h-151zM291.998 79
c0 -29.333 -8 -51.833 -24 -67.5s-40.667 -23.5 -74 -23.5c-50.667 0 -76 21.333 -76 64c0 29.333 8 52 24 68s40.667 24 74 24c50.667 0 76 -21.667 76 -65z" />
    <glyph glyph-name="at" unicode="@" horiz-adv-x="841" 
d="M583 -152c-20.667 -8.66699 -48.0039 -16.6641 -82.0039 -23.9971s-76 -11 -126 -11c-48 0 -91.333 6.16699 -130 18.5s-71.667 30.666 -99 54.999s-48.333 54.666 -63 90.999s-22 78.833 -22 127.5c0 67.333 11.333 129.333 34 186s54.167 105.5 94.5 146.5
s88 73 143 96s114.5 34.5 178.5 34.5c95.333 0 169.666 -23.667 222.999 -71s80 -114.666 80 -201.999c0 -53.333 -6.16699 -99.333 -18.5 -138s-29.333 -70.5 -51 -95.5s-47.167 -43.5 -76.5 -55.5s-61 -18 -95 -18c-56.667 0 -90 23 -100 69
c-21.333 -18.667 -42.833 -34.834 -64.5 -48.501s-44.167 -20.5 -67.5 -20.5c-31.333 0 -55.166 10.333 -71.499 31s-24.5 51 -24.5 91c0 36 6.5 71.167 19.5 105.5s31 65 54 92s50.333 48.667 82 65s66.167 24.5 103.5 24.5c28 0 53.333 -3.16699 76 -9.5
s42.334 -13.833 59.001 -22.5l-39 -130c-5.33301 -16.667 -10.166 -33.167 -14.499 -49.5l-11.5 -43.5c-2 -7.33301 -3.66699 -14.333 -5 -21s-2 -12.667 -2 -18c0 -10 2.66699 -18 8 -24s14.666 -9 27.999 -9c16.667 0 31.834 6.33301 45.501 19s25.334 29.167 35.001 49.5
s17.167 43.166 22.5 68.499s8 50.333 8 75c0 69.333 -19.167 119.333 -57.5 150s-92.166 46 -161.499 46c-56 0 -104.833 -10.667 -146.5 -32s-76.167 -49.166 -103.5 -83.499s-47.833 -72.833 -61.5 -115.5s-20.5 -85.334 -20.5 -128.001
c0 -73.333 19.167 -128.333 57.5 -165s94.833 -55 169.5 -55c30 0 60.667 2.83301 92 8.5s61 13.167 89 22.5zM528.996 312.003c-5.33301 4 -11.833 6.99805 -19.5 8.99805s-15.5 3 -23.5 3c-16 0 -32.167 -5.16699 -48.5 -15.5s-31.166 -24.666 -44.499 -42.999
s-24.166 -39.833 -32.499 -64.5s-12.5 -51.667 -12.5 -81c0 -17.333 3.16699 -29.166 9.5 -35.499s14.166 -9.5 23.499 -9.5c13.333 0 28.166 5 44.499 15s32.5 22.667 48.5 38z" />
    <glyph glyph-name="A" unicode="A" horiz-adv-x="744" 
d="M419 0l10.001 73l82 9l-19 109h-246l-49 -109l76 -9l-11 -73h-274l11 73l45 11c13.333 3.33301 22.333 10 27 20l299 620h174l128 -623c1.33301 -6 3.66602 -10 6.99902 -12s8.33301 -3.66699 15 -5l43 -11l-11 -73h-307zM425.001 572h-7l-127 -273h185z" />
    <glyph glyph-name="B" unicode="B" horiz-adv-x="648" 
d="M18 0l11.001 73l62 7c7.33301 1.33301 12 3.16602 14 5.49902s3.66699 7.16602 5 14.499l73 522c1.33301 7.33301 1.16602 12.333 -0.500977 15s-6.16699 4.33398 -13.5 5.00098l-61 7l10 75h330c36.667 0 67.334 -4.16699 92.001 -12.5s44.5 -19.666 59.5 -33.999
s25.667 -30.833 32 -49.5s9.5 -38.667 9.5 -60c0 -28.667 -4.33301 -53.5 -13 -74.5s-19.834 -39.167 -33.501 -54.5s-29.167 -27.833 -46.5 -37.5s-35 -17.167 -53 -22.5v-3c48 -5.33301 83.667 -21 107 -47s35 -60 35 -102s-7.5 -77.5 -22.5 -106.5
s-35.833 -52.333 -62.5 -70s-58.167 -30.5 -94.5 -38.5s-75.5 -12 -117.5 -12h-322zM329.001 108c23.333 0 44.334 1.83203 63.001 5.49902s34.667 10.167 48 19.5s23.666 22 30.999 38s11 36.667 11 62c0 17.333 -2.83301 31.5 -8.5 42.5s-13.5 19.833 -23.5 26.5
s-21.5 11.334 -34.5 14.001s-27.167 4 -42.5 4h-83l-29 -212h68zM344.002 419.999c19.333 0 38.001 1.49805 56.001 4.49805s33.833 8.83301 47.5 17.5s24.667 20.834 33 36.501s12.5 35.834 12.5 60.501c0 16.667 -2.83301 30 -8.5 40s-13.334 17.667 -23.001 23
s-21 8.83301 -34 10.5s-27.167 2.5 -42.5 2.5h-55l-26 -195h40z" />
    <glyph glyph-name="C" unicode="C" horiz-adv-x="670" 
d="M610 43c-15.333 -8.66699 -33 -16.499 -53 -23.499s-41 -12.833 -63 -17.5s-44.667 -8.16699 -68 -10.5s-46.333 -3.5 -69 -3.5c-52 0 -96.833 7.5 -134.5 22.5s-68.667 36.167 -93 63.5s-42.166 60.166 -53.499 98.499s-17 80.833 -17 127.5
c0 64 8.83301 122.667 26.5 176s44 99.333 79 138s78.667 68.834 131 90.501s112.833 32.5 181.5 32.5c20 0 40.5 -1.33301 61.5 -4s41.167 -6.33398 60.5 -11.001s37.333 -10.5 54 -17.5s31 -15.167 43 -24.5l-26 -196l-107 9l-3 93c0 7.33301 -1 12.5 -3 15.5
s-5.33301 5.16699 -10 6.5c-10 4 -21.833 7.16699 -35.5 9.5s-29.834 3.5 -48.501 3.5c-36 0 -69.167 -6.5 -99.5 -19.5s-56.166 -32.5 -77.499 -58.5s-38 -58.333 -50 -97s-18 -83.667 -18 -135c0 -68.667 14.167 -120.667 42.5 -156s69.5 -53 123.5 -53
c20 0 39 0.833008 57 2.5s33.333 5.16699 46 10.5c4 2 7.16699 4.33301 9.5 7s4.16602 6.66699 5.49902 12l29 95h105z" />
    <glyph glyph-name="D" unicode="D" horiz-adv-x="739" 
d="M18 0l11.002 75.001l63 7c6.66699 0.666992 11 2.16699 13 4.5s3.66699 7.16602 5 14.499l73 522c1.33301 7.33301 1.16602 12.166 -0.500977 14.499s-5.83398 4.16602 -12.501 5.49902l-62 7l10 74h318c54 0 100.333 -6.83301 139 -20.5s70.5 -33.167 95.5 -58.5
s43.5 -56.166 55.5 -92.499s18 -77.166 18 -122.499c0 -61.333 -8.5 -118.166 -25.5 -170.499s-42.833 -97.833 -77.5 -136.5s-78.667 -68.834 -132 -90.501s-116.333 -32.5 -189 -32.5h-302zM318.002 107.001c45.333 0 85.001 8.33301 119.001 25s62.167 39.5 84.5 68.5
s39.166 62.833 50.499 101.5s17 80 17 124c0 68.667 -16.167 117.5 -48.5 146.5s-81.5 43.5 -147.5 43.5h-61l-70 -509h56z" />
    <glyph glyph-name="E" unicode="E" horiz-adv-x="620" 
d="M18 0l10.0039 73.001l63 7c7.33301 1.33301 12 3.16602 14 5.49902s3.66699 7.16602 5 14.499l73 523c1.33301 7.33301 1.16602 12.333 -0.500977 15s-5.83398 4.33398 -12.501 5.00098l-62 7l10 74h521l-28 -202l-105 5l-3 76c-0.666992 8.66699 -6 13 -16 13h-155
l-27 -197h230l-16 -111h-230l-27 -201h177c5.33301 0 9.16602 0.5 11.499 1.5s4.16602 4.16699 5.49902 9.5l28 88h105l-28 -206h-543z" />
    <glyph glyph-name="F" unicode="F" horiz-adv-x="595" 
d="M19 0l10.0029 73.001l62 7c7.33301 1.33301 12 3.16602 14 5.49902s3.66699 7.16602 5 14.499l73 523c1.33301 7.33301 1.16602 12.333 -0.500977 15s-5.83398 4.33398 -12.501 5.00098l-62 7l10 74h518l-28 -202l-106 5l-3 76c-0.666992 8.66699 -6 13 -16 13h-151
l-27 -196h226l-15 -111h-226l-29 -207c-1.33301 -8 -1.33301 -13 0 -15s5.66602 -3.66699 12.999 -5l143 -8l-9 -74h-389z" />
    <glyph glyph-name="G" unicode="G" horiz-adv-x="717" 
d="M681 265c-11.333 -0.666992 -17.3369 -5.33105 -18.0039 -13.998l-29 -215c-40 -18 -83.333 -30.5 -130 -37.5s-90.667 -10.5 -132 -10.5c-57.333 0 -106 8 -146 24s-72.5 38 -97.5 66s-43 61 -54 99s-16.5 79 -16.5 123c0 62.667 8.83301 120.667 26.5 174
s44 99.5 79 138.5s78.833 69.5 131.5 91.5s113.667 33 183 33c18 0 37 -1.16699 57 -3.5s39.833 -5.83301 59.5 -10.5s38.334 -10.667 56.001 -18s33.167 -16 46.5 -26l-25 -189l-108 8l-3 89c0 6 -0.666992 10.667 -2 14s-4.66602 5.66602 -9.99902 6.99902
c-11.333 3.33301 -25.166 6.33301 -41.499 9s-32.166 4 -47.499 4c-37.333 0 -70.833 -7.33301 -100.5 -22s-55 -35.667 -76 -63s-37.167 -60 -48.5 -98s-17 -80.667 -17 -128c0 -66.667 14.333 -117.834 43 -153.501s73 -53.5 133 -53.5c15.333 0 31 0.833008 47 2.5
s29.667 4.16699 41 7.5c7.33301 2 12 7.66699 14 17l19 129h-110l26 90h301l-11 -80z" />
    <glyph glyph-name="H" unicode="H" horiz-adv-x="802" 
d="M439 0l11.001 73.002l62 7c7.33301 1.33301 11.833 3.16602 13.5 5.49902s3.16699 7.16602 4.5 14.499l31 216h-269l-30 -215c-1.33301 -8 -1.5 -13 -0.5 -15s5.16699 -3.66699 12.5 -5l65 -8l-10 -73h-310l10 73l63 7c7.33301 1.33301 11.833 3.16602 13.5 5.49902
s3.16699 7.16602 4.5 14.499l73 522c1.33301 7.33301 1.16602 12.333 -0.500977 15s-6.16699 4.33398 -13.5 5.00098l-60 7l10 75h310l-10 -75l-67 -8c-7.33301 -1.33301 -11.833 -3 -13.5 -5s-3.16699 -6.66699 -4.5 -14l-26 -194h268l27 194
c1.33301 7.33301 1.33301 12.333 0 15s-5.66602 4.33398 -12.999 5.00098l-61 7l10 75h310l-10 -75l-66 -8c-7.33301 -1.33301 -11.833 -3 -13.5 -5s-3.16699 -6.66699 -4.5 -14l-73 -521c-1.33301 -8 -1.33301 -13 0 -15s5.66602 -3.66699 12.999 -5l65 -8l-11 -73h-310z
" />
    <glyph glyph-name="I" unicode="I" horiz-adv-x="382" 
d="M11 0l8.00098 72.998l73 7c7.33301 0.666992 11.833 2.33398 13.5 5.00098s3.16699 7.66699 4.5 15l74 522c1.33301 7.33301 1.16602 12.333 -0.500977 15s-6.16699 4.33398 -13.5 5.00098l-70 7l10 75h330l-11 -75l-76 -8c-7.33301 -1.33301 -11.833 -3 -13.5 -5
s-3.16699 -6.66699 -4.5 -14l-73 -521c-1.33301 -8 -1.5 -13 -0.5 -15s5.16699 -3.66699 12.5 -5l75 -8l-9 -73h-329z" />
    <glyph glyph-name="J" unicode="J" 
d="M318 623c1.33301 7.33301 0.998047 12.1641 -1.00195 14.4971s-6.33301 3.83301 -13 4.5l-87 7l10 75h337l-11 -75l-67 -8c-7.33301 -1.33301 -11.666 -2.83301 -12.999 -4.5s-2.66602 -6.16699 -3.99902 -13.5l-65 -460c-8 -59.333 -28 -103.333 -60 -132
s-81.333 -43 -148 -43c-20 0 -39.333 1.16699 -58 3.5s-36 5.33301 -52 9s-30 7.83398 -42 12.501s-21 9.33398 -27 14.001l25 178l106 -8l1 -71c0 -8 2.33301 -12.667 7 -14c4 -1.33301 9.5 -2.66602 16.5 -3.99902s15.5 -2 25.5 -2c18 0 31 4.33301 39 13
s13.667 23.667 17 45z" />
    <glyph glyph-name="K" unicode="K" horiz-adv-x="735" 
d="M506 0l-7 4.99902l-35 84l-102 209l-85 -88l-16 -108c-1.33301 -8 -1.33301 -13.167 0 -15.5s5.33301 -3.83301 12 -4.5l66 -8l-10 -74h-310l10 74l62 7c7.33301 0.666992 12 2.16699 14 4.5s3.66699 7.5 5 15.5l73 522c1.33301 7.33301 1.16602 12.166 -0.500977 14.499
s-5.83398 4.16602 -12.501 5.49902l-60 7l9 74h310l-9 -74l-68 -8c-7.33301 -1.33301 -11.833 -3 -13.5 -5s-3.16699 -6.66699 -4.5 -14l-36 -254l269 272l-59 8l10 75h257l-10 -75l-42 -7c-9.33301 -1.33301 -15.666 -3.16602 -18.999 -5.49902
s-7.66602 -6.16602 -12.999 -11.499l-210 -213l153 -309c3.33301 -6.66699 6.83301 -11.167 10.5 -13.5s9.16699 -4.16602 16.5 -5.49902l59 -10l-10 -74h-204z" />
    <glyph glyph-name="L" unicode="L" horiz-adv-x="607" 
d="M19 0l10.0029 74l62 7c7.33301 1.33301 12 3.16602 14 5.49902s3.66699 7.16602 5 14.499l73 522c1.33301 7.33301 1.16602 12.333 -0.500977 15s-5.83398 4.33398 -12.501 5.00098l-60 7l8 74h327l-10 -74l-83 -8c-7.33301 -0.666992 -11.833 -2.16699 -13.5 -4.5
s-3.16699 -7.16602 -4.5 -14.499l-72 -516h176c5.33301 0 9.16602 0.5 11.499 1.5s4.5 4.16699 6.5 9.5l29 100h107l-30 -218h-543z" />
    <glyph glyph-name="M" unicode="M" horiz-adv-x="942" 
d="M567 0l10 73l82 7c6.66699 0.666992 11 2.33398 13 5.00098s3.66699 7.66699 5 15l53 376h-4l-187 -332h-153l-99 331h-5l-52 -374c-1.33301 -8 -1.5 -13.167 -0.5 -15.5s5.16699 -3.83301 12.5 -4.5l84 -8l-9 -73h-298l9 73l63 7c7.33301 1.33301 12 3.16602 14 5.49902
s3.66699 7.5 5 15.5l73 522c1.33301 7.33301 1.16602 12.166 -0.500977 14.499s-5.83398 4.16602 -12.501 5.49902l-60 7l8 74h246l128 -439h5l240 439h253l-9 -73l-66 -8c-8 -1.33301 -12.833 -3.16602 -14.5 -5.49902s-3.16699 -7.5 -4.5 -15.5l-74 -522
c-1.33301 -6.66699 -1.16602 -11.167 0.500977 -13.5s5.83398 -4.16602 12.501 -5.49902l65 -8l-10 -73h-323z" />
    <glyph glyph-name="N" unicode="N" horiz-adv-x="812" 
d="M522 0l-240 525l-59 -424c-1.33301 -8 -1.33301 -13 0 -15s5.66602 -3.66699 12.999 -5l65 -8l-9 -73h-273l9 73l63 7c7.33301 1.33301 12 3.16602 14 5.49902s3.66699 7.16602 5 14.499l73 523c1.33301 7.33301 1.33301 12.333 0 15s-5.66602 4.33398 -12.999 5.00098
l-60 7l8 74h243l236 -526l60 424c1.33301 7.33301 1.16602 12.333 -0.500977 15s-5.83398 4.33398 -12.501 5.00098l-61 7l9 75h272l-10 -75l-67 -8c-7.33301 -1.33301 -11.666 -3 -12.999 -5s-2.66602 -6.66699 -3.99902 -14l-88 -622h-160z" />
    <glyph glyph-name="O" unicode="O" horiz-adv-x="757" 
d="M352 -12c-52 0 -96.668 7.16309 -134.001 21.4961s-67.666 34.5 -90.999 60.5s-40.5 57.333 -51.5 94s-16.5 77.334 -16.5 122.001c0 63.333 8.5 122.333 25.5 177s42.667 102.334 77 143.001s77 72.667 128 96s110.5 35 178.5 35c52 0 96.333 -7.5 133 -22.5
s66.667 -35.5 90 -61.5s40.5 -56.833 51.5 -92.5s16.5 -74.167 16.5 -115.5c0 -71.333 -9.16699 -135.166 -27.5 -191.499s-45 -104.166 -80 -143.499s-77.667 -69.5 -128 -90.5s-107.5 -31.5 -171.5 -31.5zM374.999 110.996c29.333 0 56.998 5.33301 82.998 16s49 28 69 52
s36.333 55 49 93s20.334 84 23.001 138v29c0 9.33301 -0.666992 18.333 -2 27c-6 52 -21.167 89.667 -45.5 113s-58.166 35 -101.499 35c-38.667 0 -72.5 -8.83301 -101.5 -26.5s-53 -40.834 -72 -69.501s-33.167 -61.167 -42.5 -97.5s-14 -73.166 -14 -110.499
c0 -8.66699 0.166992 -18.167 0.5 -28.5s1.16602 -18.833 2.49902 -25.5c6.66699 -50 22.334 -86.667 47.001 -110s59.667 -35 105 -35z" />
    <glyph glyph-name="P" unicode="P" horiz-adv-x="635" 
d="M18 0l11.001 74.001l63 7c7.33301 1.33301 12 3.16602 14 5.49902s3.66699 7.16602 5 14.499l72 521c1.33301 7.33301 1.16602 12.333 -0.500977 15s-6.16699 4.33398 -13.5 5.00098l-60 7l9 75h326c39.333 0 72.833 -4.66699 100.5 -14s50 -22.5 67 -39.5
s29.333 -36.833 37 -59.5s11.5 -47.667 11.5 -75c0 -46 -7.16699 -85.833 -21.5 -119.5s-34.666 -61.667 -60.999 -84s-58.333 -38.833 -96 -49.5s-79.834 -16 -126.501 -16h-72l-22 -165c-1.33301 -8 -1.33301 -13 0 -15s5.33301 -3.66699 12 -5l140 -8l-11 -74h-384z
M346.001 374.001c18.667 0 37.167 1.66895 55.5 5.00195s35 10.166 50 20.499s27.167 25.166 36.5 44.499s14 45 14 77c0 19.333 -3 35 -9 47s-14.167 21.5 -24.5 28.5s-22.333 11.833 -36 14.5s-28.167 4 -43.5 4h-58l-33 -241h48z" />
    <glyph glyph-name="Q" unicode="Q" horiz-adv-x="757" 
d="M677 -162c-30 -4 -57 -6.00195 -81 -6.00195c-42 0 -77.667 4.83301 -107 14.5s-55.333 20.167 -78 31.5l-63.5 31.5c-19.667 9.66699 -40.5 14.5 -62.5 14.5c-16 0 -33.333 -3.33301 -52 -10s-39.667 -17.667 -63 -33l-51 90c6.66699 4.66699 14.5 9.5 23.5 14.5
s18.167 9.83301 27.5 14.5s18.666 8.83398 27.999 12.501s17.333 6.5 24 8.5v2c-54 26 -94.667 60.667 -122 104s-41 96.333 -41 159c0 63.333 8.5 122.333 25.5 177s42.667 102.334 77 143.001s77 72.667 128 96s110.5 35 178.5 35c52 0 96.333 -7.5 133 -22.5
s66.667 -35.5 90 -61.5s40.5 -56.833 51.5 -92.5s16.5 -74.167 16.5 -115.5c0 -134.667 -31 -239 -93 -313s-153.333 -116.667 -274 -128v-2l43 -19.5c16 -7 33.333 -13.5 52 -19.5s38.167 -11 58.5 -15s40.833 -6 61.5 -6c22.667 0 47.334 2 74.001 6zM375 110.998
c40 0 74.166 8.66699 102.499 26s51.5 40.5 69.5 69.5s31.167 62.167 39.5 99.5s12.5 76 12.5 116c0 9.33301 -0.166992 17.5 -0.5 24.5s-0.833008 13.5 -1.5 19.5c-6 52 -21.167 89.667 -45.5 113s-58.166 35 -101.499 35c-38.667 0 -72.5 -8.83301 -101.5 -26.5
s-53 -40.834 -72 -69.501s-33.167 -61.167 -42.5 -97.5s-14 -73.166 -14 -110.499c0 -8.66699 0.166992 -18.167 0.5 -28.5s1.16602 -18.833 2.49902 -25.5c6.66699 -50 22.334 -86.667 47.001 -110s59.667 -35 105 -35z" />
    <glyph glyph-name="R" unicode="R" horiz-adv-x="673" 
d="M447 0l-5.99707 4.99805l-55 246c-3.33301 14.667 -8.33301 25.834 -15 33.501s-18.667 11.5 -36 11.5h-47l-27 -193c-1.33301 -8 -1.33301 -13 0 -15s5.33301 -3.66699 12 -5l59 -8l-9 -75h-303l9 75l63 7c7.33301 0.666992 11.833 2.16699 13.5 4.5
s3.16699 7.5 4.5 15.5l74 521c1.33301 7.33301 1.16602 12.166 -0.500977 14.499s-5.83398 4.16602 -12.501 5.49902l-60 7l8 74h328c38.667 0 71.334 -4.83301 98.001 -14.5s48.167 -22.667 64.5 -39s28.166 -35.166 35.499 -56.499s11 -43.666 11 -66.999
c0 -56.667 -14.5 -101.834 -43.5 -135.501s-67.167 -60.167 -114.5 -79.5c13.333 -7.33301 23.166 -17.166 29.499 -29.499s11.833 -29.166 16.5 -50.499l33 -148c1.33301 -7.33301 4 -12.333 8 -15s9.66699 -4.66699 17 -6l61 -8l-10 -75h-206zM348.003 399.998
c20 0 39 1.83203 57 5.49902s33.833 10.334 47.5 20.001s24.667 22.667 33 39s12.5 37.5 12.5 63.5c0 32 -9.5 54.5 -28.5 67.5s-48.5 19.5 -88.5 19.5h-49l-29 -215h45z" />
    <glyph glyph-name="S" unicode="S" horiz-adv-x="588" 
d="M468 510l-2.00586 86c0 5.33301 -0.666992 9.83301 -2 13.5s-5 6.16699 -11 7.5c-7.33301 2 -15.333 3.33301 -24 4s-20 1 -34 1c-17.333 0 -33.833 -1.83301 -49.5 -5.5s-29.5 -9.33398 -41.5 -17.001s-21.667 -17.334 -29 -29.001s-11 -25.167 -11 -40.5
c0 -14 3.33301 -25.833 10 -35.5s15.667 -18.167 27 -25.5s24.5 -13.833 39.5 -19.5l46.5 -17.5c20.667 -7.33301 41.334 -15.666 62.001 -24.999s39.5 -21.333 56.5 -36s30.833 -33 41.5 -55s16 -49.667 16 -83c0 -42.667 -8 -79.5 -24 -110.5s-37.667 -56.5 -65 -76.5
s-59.5 -34.667 -96.5 -44s-76.5 -14 -118.5 -14c-22.667 0 -45.5 1.33301 -68.5 4s-44.5 6 -64.5 10s-38 8.33301 -54 13s-28.333 9.33398 -37 14.001l27 195h109l7 -94c0.666992 -6.66699 2 -11.5 4 -14.5s6.66699 -5.5 14 -7.5c10 -2.66699 21.167 -4.66699 33.5 -6
s26.833 -2 43.5 -2c43.333 0 77 8.5 101 25.5s36 43.167 36 78.5c0 14.667 -3 27.167 -9 37.5s-14 19.166 -24 26.499s-21.667 13.833 -35 19.5s-27.666 11.167 -42.999 16.5c-21.333 7.33301 -43.166 15.333 -65.499 24s-42.5 20 -60.5 34s-32.833 31.833 -44.5 53.5
s-17.5 49.5 -17.5 83.5c0 40 7.83301 75 23.5 105s36.834 54.833 63.501 74.5s57.834 34.334 93.501 44.001s73.834 14.5 114.501 14.5c43.333 0 81.833 -4.5 115.5 -13.5s61.167 -18.167 82.5 -27.5l-27 -195z" />
    <glyph glyph-name="T" unicode="T" horiz-adv-x="680" 
d="M131 0l11.001 73.998l101 7c6.66699 0.666992 11 2.33398 13 5.00098s3.66699 7.66699 5 15l71 514h-102c-5.33301 0 -9 -0.5 -11 -1.5s-3.66699 -4.16699 -5 -9.5l-28 -82l-107 -5l28 207h631l-28 -207l-104 5l-4 82c-0.666992 5.33301 -1.83398 8.5 -3.50098 9.5
s-5.16699 1.5 -10.5 1.5h-104l-71 -514c-1.33301 -7.33301 -1.5 -12.166 -0.5 -14.499s5.16699 -3.83301 12.5 -4.5l108 -9l-10 -73h-392z" />
    <glyph glyph-name="U" unicode="U" horiz-adv-x="774" 
d="M602 623c1.33301 7.33301 1.16602 12.332 -0.500977 14.999s-5.83398 4.33398 -12.501 5.00098l-61 7l10 74h290l-10 -74l-68 -8c-7.33301 -1.33301 -11.833 -3 -13.5 -5s-2.83398 -6.66699 -3.50098 -14l-51 -364c-13.333 -96 -45.666 -165.167 -96.999 -207.5
s-120.666 -63.5 -207.999 -63.5c-86.667 0 -151 17.333 -193 52s-63 88.334 -63 161.001c0 9.33301 0.5 19.166 1.5 29.499s2.16699 21.166 3.5 32.499l49 360c1.33301 7.33301 1.16602 12.333 -0.500977 15s-5.5 4.33398 -11.5 5.00098l-61 7l10 74h310l-10 -74l-67 -8
c-7.33301 -1.33301 -11.833 -3 -13.5 -5s-3.16699 -6.66699 -4.5 -14l-47 -335c-4 -26 -6 -49.333 -6 -70c0 -36.667 8.66699 -63.667 26 -81s47 -26 89 -26c52.667 0 91.334 13.667 116.001 41s41.334 72.333 50.001 135z" />
    <glyph glyph-name="V" unicode="V" horiz-adv-x="714" 
d="M248 0l-112 623c-1.33301 6 -3.83301 10 -7.5 12s-8.16699 3.66699 -13.5 5l-43 11l11 73h306l-11 -73l-81 -9l79 -496h5l211 496l-75 9l11 73h268l-11 -73l-43 -11c-14 -4 -23.667 -12.333 -29 -25l-265 -615h-200z" />
    <glyph glyph-name="W" unicode="W" horiz-adv-x="1011" 
d="M585 0l-43 365.998h-3l-143 -366h-195l-62 615c-1.33301 9.33301 -3 15.333 -5 18s-7.33301 5 -16 7l-47 11l11 73h299l-11 -73l-83 -10l47 -487h5l173 436h150l48 -446h6l168 497l-79 10l11 73h275l-11 -73l-48 -11c-6.66699 -1.33301 -12 -3.66602 -16 -6.99902
s-7.66699 -9.66602 -11 -18.999l-221 -614h-199z" />
    <glyph glyph-name="X" unicode="X" horiz-adv-x="757" 
d="M398 0l11 72.999l78 9l-110 188l-157 -188l74 -9l-11 -73h-278l10 73l59 11c10.667 2.66699 20 9 28 19l219 253l-159 267c-4.66699 8.66699 -11.667 14.334 -21 17.001l-49 11l12 73h314l-11 -73l-77 -9l105 -185l158 185l-73 9l12 73h264l-10 -73l-50 -11
c-6 -1.33301 -11 -3.5 -15 -6.5s-8.33301 -7.16699 -13 -12.5l-217 -249l166 -271c3.33301 -5.33301 6.83301 -9.33301 10.5 -12s8.5 -4.66699 14.5 -6l47 -10l-10 -73h-321z" />
    <glyph glyph-name="Y" unicode="Y" horiz-adv-x="663" 
d="M132 0l8.99902 73.998l100 7c6.66699 0.666992 10.834 2.33398 12.501 5.00098s3.16699 7.66699 4.5 15l24 169l-146 353c-2 5.33301 -4.66699 9 -8 11s-8 4 -14 6l-42 11l11 73h302l-11 -73l-78 -9l87 -240h6l152 240l-74 9l11 73h261l-11 -73l-42 -11
c-6.66699 -2 -12.167 -4.33301 -16.5 -7s-8.16602 -7 -11.499 -13l-224 -348l-24 -171c-1.33301 -7.33301 -1.33301 -12.166 0 -14.499s5.66602 -3.83301 12.999 -4.5l103 -8l-10 -74h-384z" />
    <glyph glyph-name="Z" unicode="Z" horiz-adv-x="658" 
d="M26 0l13.999 97l434 519h-215c-5.33301 0 -9.16602 -0.5 -11.499 -1.5s-4.16602 -4.16699 -5.49902 -9.5l-29 -92l-109 -5l31 216h537l-13 -101l-431 -516h241c5.33301 0 9.16602 0.5 11.499 1.5s4.5 4.16699 6.5 9.5l33 107h104l-30 -225h-568z" />
    <glyph glyph-name="bracketleft" unicode="[" horiz-adv-x="311" 
d="M28 -143l121.997 867.001h224l-8 -71l-66 -11c-6.66699 -1.33301 -11.167 -3.33301 -13.5 -6s-4.16602 -7.33398 -5.49902 -14.001l-93 -662c-1.33301 -7.33301 -1.16602 -12.333 0.500977 -15s5.83398 -4.66699 12.501 -6l63 -11l-12 -71h-224z" />
    <glyph glyph-name="backslash" unicode="\" horiz-adv-x="437" 
d="M266 -92l-157 823h137l158 -823h-138z" />
    <glyph glyph-name="bracketright" unicode="]" horiz-adv-x="308" 
d="M-19 -143l9.00195 70.999l65 11c7.33301 1.33301 12 3.33301 14 6s3.66699 7.33398 5 14.001l93 662c1.33301 7.33301 1.16602 12.333 -0.500977 15s-5.83398 4.66699 -12.501 6l-63 10l12 72h225l-122 -867h-225z" />
    <glyph glyph-name="asciicircum" unicode="^" horiz-adv-x="609" 
d="M459 299l-100 240l-163 -240h-143l248 365h153l148 -365h-143z" />
    <glyph glyph-name="underscore" unicode="_" 
d="M-25 -181l15 107h499l-14 -107h-500z" />
    <glyph glyph-name="grave" unicode="`" 
d="M394 561l-158 146l93 78l129 -174z" />
    <glyph glyph-name="a" unicode="a" horiz-adv-x="605" 
d="M370 0l11.998 81l-5 1c-30 -30 -58.833 -53.167 -86.5 -69.5s-59.5 -24.5 -95.5 -24.5c-49.333 0 -87 16.333 -113 49s-39 83 -39 151c0 38 4.33301 77.167 13 117.5s22.834 77.166 42.501 110.499s45.667 60.833 78 82.5s71.833 32.5 118.5 32.5
c28.667 0 54.334 -5.16699 77.001 -15.5s42.667 -24.166 60 -41.499l19 47h128c-4.66699 -21.333 -9.16699 -43 -13.5 -65s-8.16602 -44 -11.499 -66l-40 -290c-1.33301 -7.33301 -1.33301 -12 0 -14s5.66602 -3.66699 12.999 -5l47 -7l-11 -74h-193zM409.998 380
c-10.667 9.33301 -23.8281 17.833 -39.4951 25.5s-31.834 11.5 -48.501 11.5c-24.667 0 -45 -7.83301 -61 -23.5s-28.667 -34.667 -38 -57s-16 -46 -20 -71s-6 -46.833 -6 -65.5c0 -58 19 -87 57 -87c9.33301 0 19.666 2.33301 30.999 7s22.666 10.834 33.999 18.501
s22.666 16.167 33.999 25.5s21.666 18.666 30.999 27.999z" />
    <glyph glyph-name="b" unicode="b" horiz-adv-x="601" 
d="M45 0c6.66699 22.667 13.165 46.498 19.498 71.498s11.166 49.833 14.499 74.5l70 495c0.666992 10.667 -2.66602 17.667 -9.99902 21l-51 17l11 76h209l-45 -313l2 -1c30.667 28.667 60.834 50.834 90.501 66.501s59.834 23.5 90.501 23.5
c21.333 0 40.833 -3.5 58.5 -10.5s32.667 -18.167 45 -33.5s22 -35.166 29 -59.499s10.5 -54.166 10.5 -89.499c0 -34 -3.66699 -71.333 -11 -112s-20 -78.667 -38 -114s-42.333 -64.833 -73 -88.5s-69 -35.5 -115 -35.5c-26.667 0 -52.5 5.16699 -77.5 15.5
s-48.167 26.166 -69.5 47.499l-3 -1l-12 -50h-145zM224.998 143.998c12.667 -10 27 -19.165 43 -27.498s33.667 -12.5 53 -12.5c20 0 37 6.33301 51 19s25.333 29 34 49s15 41.833 19 65.5s6 46.5 6 68.5c0 30 -3.83301 53.833 -11.5 71.5s-21.167 26.5 -40.5 26.5
c-10 0 -20.5 -2.33301 -31.5 -7s-22 -10.834 -33 -18.501s-21.833 -15.834 -32.5 -24.501l-30 -25z" />
    <glyph glyph-name="c" unicode="c" horiz-adv-x="502" 
d="M452 37c-24.667 -14 -53.998 -25.668 -87.998 -35.001s-69 -14 -105 -14c-38 0 -70.833 5.33301 -98.5 16s-50.334 25.5 -68.001 44.5s-30.667 42 -39 69s-12.5 56.5 -12.5 88.5c0 55.333 8 103.333 24 144s37.667 74.5 65 101.5s59.666 47 96.999 60s77 19.5 119 19.5
c38 0 71.833 -4.5 101.5 -13.5s51.5 -18.5 65.5 -28.5l-22 -157l-102 5l-3 68c0 7.33301 -2.33301 12 -7 14c-6 2.66699 -13.333 4.5 -22 5.5s-17.667 1.5 -27 1.5c-16.667 0 -33 -3.66699 -49 -11s-30.333 -19 -43 -35s-22.834 -37 -30.501 -63s-11.5 -57.667 -11.5 -95
c0 -46 9.33301 -77.833 28 -95.5s42.334 -26.5 71.001 -26.5c25.333 0 49.5 3.33301 72.5 10s42.833 13.334 59.5 20.001z" />
    <glyph glyph-name="d" unicode="d" horiz-adv-x="608" 
d="M370 0l12.0029 80.0039l-5 2c-30 -28.667 -58.667 -51.5 -86 -68.5s-59 -25.5 -95 -25.5c-48.667 0 -86.334 16 -113.001 48s-40 82 -40 150c0 36 4.16699 74.167 12.5 114.5s22.333 77.666 42 111.999s45.5 62.666 77.5 84.999s71.667 33.5 119 33.5
c29.333 0 54.666 -4 75.999 -12s40.333 -18.333 57 -31l20 154c0.666992 5.33301 0.5 9.66602 -0.5 12.999s-4.16699 5.66602 -9.5 6.99902l-50 17l12 76h206l-91 -655c-1.33301 -7.33301 -1.33301 -12 0 -14s5.66602 -3.66699 12.999 -5l47 -7l-10 -74h-194z
M411.003 383.004c-10.667 9.33301 -23.8311 17.335 -39.498 24.002s-31.167 10 -46.5 10c-25.333 0 -46.333 -7.83301 -63 -23.5s-29.834 -34.834 -39.501 -57.501s-16.334 -46.834 -20.001 -72.501s-5.5 -48.834 -5.5 -69.501c0 -54 19 -81 57 -81
c10 0 20.5 2.33301 31.5 7s22.333 10.834 34 18.501s23 16.167 34 25.5s21.167 19 30.5 29z" />
    <glyph glyph-name="e" unicode="e" horiz-adv-x="506" 
d="M461 38c-32.667 -15.333 -66.332 -27.502 -100.999 -36.502s-70 -13.5 -106 -13.5c-39.333 0 -72.5 5.5 -99.5 16.5s-49 26 -66 45s-29.167 41.5 -36.5 67.5s-11 54 -11 84c0 52.667 7.83301 99.5 23.5 140.5s37 75.5 64 103.5s58.5 49.333 94.5 64s74.333 22 115 22
c55.333 0 96.5 -11.667 123.5 -35s40.5 -55.666 40.5 -96.999c0 -36 -8.66699 -65.833 -26 -89.5s-40.333 -43.167 -69 -58.5s-61.334 -27 -98.001 -35s-74.667 -14 -114 -18c0.666992 -12.667 2.66699 -25 6 -37s8.83301 -22.5 16.5 -31.5s17.667 -16.167 30 -21.5
s27.833 -8 46.5 -8c18 0 39.167 2.83301 63.5 8.5s51.5 14.834 81.5 27.501zM201.002 294.998c10.667 1.33301 25.332 3.83301 43.999 7.5s37 9 55 16s33.5 15.833 46.5 26.5s19.5 24 19.5 40c0 25.333 -16 38 -48 38c-28 0 -52.667 -11.333 -74 -34
s-35.666 -54 -42.999 -94z" />
    <glyph glyph-name="f" unicode="f" horiz-adv-x="424" 
d="M40 -212l89.001 623c1.33301 6.66699 -1 10 -7 10h-65l13 100h74l9 64c9.33301 67.333 31.666 114.5 66.999 141.5s80.333 40.5 135 40.5c32 0 64 -5.16699 96 -15.5s57.333 -22.833 76 -37.5l-55 -93c-4 2.66699 -9.5 6 -16.5 10s-15 8 -24 12s-18.667 7.33301 -29 10
s-20.833 4 -31.5 4c-21.333 0 -37.5 -5.66699 -48.5 -17s-18.167 -28 -21.5 -50l-8 -59c-0.666992 -3.33301 -0.666992 -5.83301 0 -7.5s3 -2.5 7 -2.5h154l-14 -100h-162l-89 -633h-149z" />
    <glyph glyph-name="g" unicode="g" horiz-adv-x="589" 
d="M378 81l-3.00293 2c-27.333 -24 -55 -44.833 -83 -62.5s-60 -26.5 -96 -26.5c-49.333 0 -87.166 15.333 -113.499 46s-39.5 80 -39.5 148c0 37.333 4.33301 76.166 13 116.499s22.667 77.166 42 110.499s45.166 61 77.499 83s71.833 33 118.5 33
c28.667 0 54.667 -5.16699 78 -15.5s43.333 -24.166 60 -41.499l19 47h129c-5.33301 -23.333 -10.166 -46 -14.499 -68s-8.16602 -44 -11.499 -66l-56 -403c-4.66699 -37.333 -14.167 -69.166 -28.5 -95.499s-32 -47.666 -53 -63.999s-45.333 -28.333 -73 -36
s-57.5 -11.5 -89.5 -11.5c-25.333 0 -49.666 2 -72.999 6s-44.5 8.83301 -63.5 14.5s-35.5 11.667 -49.5 18s-24.667 11.833 -32 16.5l47 93c4 -3.33301 11.167 -7.33301 21.5 -12s22.5 -9.33398 36.5 -14.001s29.5 -8.66699 46.5 -12s34.167 -5 51.5 -5
c39.333 0 69 8.83301 89 26.5s32.667 46.5 38 86.5zM410.997 379c-10.667 10 -23.9971 18.834 -39.9971 26.501s-32.333 11.5 -49 11.5c-24.667 0 -45 -7.83301 -61 -23.5s-28.833 -34.834 -38.5 -57.501s-16.334 -46.5 -20.001 -71.5s-5.5 -46.833 -5.5 -65.5
c0 -30 4.66699 -50.833 14 -62.5s23.666 -17.5 42.999 -17.5c10 0 20.667 2.16699 32 6.5s22.666 10 33.999 17s22.5 15 33.5 24s21.167 17.833 30.5 26.5z" />
    <glyph glyph-name="h" unicode="h" horiz-adv-x="619" 
d="M369 0l-2.00098 4.00098l19 108l30 221c3.33301 20.667 3.83301 37.167 1.5 49.5s-11.166 18.5 -26.499 18.5c-10 0 -21 -2.5 -33 -7.5s-24 -11.167 -36 -18.5s-23.5 -15.166 -34.5 -23.499l-27.5 -21.5l-32 -229c-1.33301 -8 -1.16602 -13 0.500977 -15
s6.16699 -3.66699 13.5 -5l50 -7l-10 -74h-273l10 75l44 6c6.66699 1.33301 11 3.16602 13 5.49902s3.66699 7.16602 5 14.499l76 540c2 11.333 -1 18.333 -9 21l-50 17l11 76h204l-44 -316l3 -2l43.5 36c13.667 11.333 27.667 21.333 42 30s29.333 15.5 45 20.5
s33.167 7.5 52.5 7.5c35.333 0 63.5 -10.333 84.5 -31s31.5 -51 31.5 -91c0 -8 -0.333008 -16.333 -1 -25s-1.66699 -17.667 -3 -27l-36 -256c-1.33301 -8 -1.33301 -13 0 -15s5.66602 -3.66699 12.999 -5l49 -7l-10 -74h-214z" />
    <glyph glyph-name="i" unicode="i" horiz-adv-x="318" 
d="M210 601c-24.667 0 -43.668 6.66797 -57.001 20.001s-20 31.666 -20 54.999c0 32 9 57.167 27 75.5s43.333 27.5 76 27.5c24.667 0 43.834 -6.33301 57.501 -19s20.5 -31 20.5 -55c0 -32 -9.16699 -57.333 -27.5 -76s-43.833 -28 -76.5 -28zM63.999 0.000976562
l-2.00098 5l24 135l37 267c2 11.333 -1.33301 18.333 -10 21l-49 17l10 76h213l-59 -420c-1.33301 -8 -1.16602 -13 0.500977 -15s6.16699 -3.66699 13.5 -5l48 -7l-10 -74h-216z" />
    <glyph glyph-name="j" unicode="j" horiz-adv-x="315" 
d="M124 407c0.666992 10.667 -2.66406 17.668 -9.99707 21.001l-51 17l10 76h213l-79 -574c-8.66699 -61.333 -29.334 -105 -62.001 -131s-76.667 -39 -132 -39c-20 0 -38.667 2 -56 6s-32.833 8.66699 -46.5 14s-25 10.833 -34 16.5s-15.5 10.5 -19.5 14.5l51 83
c7.33301 -4.66699 18.666 -10.167 33.999 -16.5s31.666 -9.5 48.999 -9.5c20 0 35.5 5.66699 46.5 17s19.167 34.666 24.5 69.999zM210.002 601.001c-25.333 0 -44.667 6.66797 -58 20.001s-20 31.666 -20 54.999c0 32 9.16699 57.167 27.5 75.5s43.5 27.5 75.5 27.5
c25.333 0 44.833 -6.33301 58.5 -19s20.5 -31 20.5 -55c0 -32 -9.33301 -57.333 -28 -76s-44 -28 -76 -28z" />
    <glyph glyph-name="k" unicode="k" horiz-adv-x="608" 
d="M395 0l-3.00098 2.00293l-33 110l-53 144l-63 -60l-14 -95c-1.33301 -8 -1.33301 -13 0 -15s5.66602 -3.66699 12.999 -5l50 -7l-10 -74h-273l9 75l46 6c6.66699 1.33301 11 3.16602 13 5.49902s3.66699 7.16602 5 14.499l75 540c2 10.667 -1.33301 17.667 -10 21l-50 17
l11 76h213l-59 -425l154 143c27.333 25.333 51 41.333 71 48s40.667 10 62 10c10 0 20.667 -0.666992 32 -2s20 -2.66602 26 -3.99902l-11 -87c-19.333 1.33301 -36.666 -0.833984 -51.999 -6.50098s-31.666 -16.834 -48.999 -33.501l-60 -56l87 -244
c3.33301 -7.33301 7 -11.833 11 -13.5s9.66699 -3.16699 17 -4.5l44 -7l-11 -73h-188z" />
    <glyph glyph-name="l" unicode="l" horiz-adv-x="318" 
d="M63 0l-2.99902 5l24 135l71 501c2 11.333 -1.33301 18.333 -10 21l-50 17l11 76h213l-92 -654c-1.33301 -8 -1.33301 -13 0 -15s5.66602 -3.66699 12.999 -5l48 -7l-9 -74h-216z" />
    <glyph glyph-name="m" unicode="m" horiz-adv-x="879" 
d="M626 0l-2 3.00098l21 118l31 212c3.33301 22 3.66602 38.5 0.999023 49.5s-10.667 16.5 -24 16.5c-15.333 0 -32.166 -6.83301 -50.499 -20.5s-38.166 -29.834 -59.499 -48.501l-32 -229c-1.33301 -8 -1.5 -13 -0.5 -15s5.16699 -3.66699 12.5 -5l50 -7l-10 -74h-216
l-2 4l22 127l29 202c3.33301 19.333 4.33301 34.833 3 46.5s-9.33301 17.5 -24 17.5c-9.33301 0 -19.333 -2.33301 -30 -7s-21 -10.5 -31 -17.5s-19.667 -14.333 -29 -22s-17.333 -14.5 -24 -20.5l-31 -229c-1.33301 -8 -1.33301 -13 0 -15s5.66602 -3.66699 12.999 -5
l50 -7l-10 -74h-274l10 75l44 6c6.66699 1.33301 11 3.16602 13 5.49902s3.66699 7.16602 5 14.499l42 305c2 11.333 -1 18.333 -9 21l-49 18l11 76h198l-11 -82l3 -1l40 33.5c13.333 11 27.5 20.833 42.5 29.5s30.833 15.834 47.5 21.501s34.334 8.5 53.001 8.5
c28 0 50.5 -7.66699 67.5 -23s26.5 -38 28.5 -68l3 -1c12 10.667 24.833 21.5 38.5 32.5s28 20.833 43 29.5s30.5 15.834 46.5 21.501s33 8.5 51 8.5c36.667 0 63 -9 79 -27s24.667 -45 26 -81c0 -9.33301 -0.5 -19.5 -1.5 -30.5s-2.16699 -22.5 -3.5 -34.5l-36 -257
c-1.33301 -8 -1.33301 -13 0 -15s5.66602 -3.66699 12.999 -5l49 -7l-10 -74h-217z" />
    <glyph glyph-name="n" unicode="n" horiz-adv-x="620" 
d="M368 0l-1.99609 3.00488l22 122l29 208c3.33301 21.333 3.66602 38.166 0.999023 50.499s-11.667 18.5 -27 18.5c-10.667 0 -21.834 -2.33301 -33.501 -7s-23.334 -10.5 -35.001 -17.5s-22.667 -14.833 -33 -23.5l-28.5 -24l-31 -229c-1.33301 -8 -1.33301 -13 0 -15
s5.66602 -3.66699 12.999 -5l50 -7l-10 -74h-274l10 75l44 6c6.66699 1.33301 11 3.16602 13 5.49902s3.66699 7.16602 5 14.499l42 305c2 11.333 -1 18.333 -9 21l-49 18l11 76h198l-11 -82l3 -1l42 35c14 11.333 28.5 21.166 43.5 29.499s31 15.166 48 20.499
s35.167 8 54.5 8c76 0 115.333 -39.667 118 -119c0 -8 -0.333008 -16.833 -1 -26.5s-1.66699 -19.167 -3 -28.5l-36 -256c-1.33301 -8 -1.5 -13 -0.5 -15s5.16699 -3.66699 12.5 -5l50 -7l-10 -74h-216z" />
    <glyph glyph-name="o" unicode="o" horiz-adv-x="578" 
d="M269 -12c-39.333 0 -73.333 5.16699 -102 15.5s-52.334 24.833 -71.001 43.5s-32.5 41.334 -41.5 68.001s-13.5 56 -13.5 88c0 48 6.66699 92.167 20 132.5s32.833 75 58.5 104s57.334 51.5 95.001 67.5s80.834 24 129.501 24c42 0 77.167 -5.66699 105.5 -17
s51.166 -26.5 68.499 -45.5s29.833 -41.333 37.5 -67s11.5 -53.167 11.5 -82.5c0 -48.667 -6.16699 -93.334 -18.5 -134.001s-31 -75.5 -56 -104.5s-56 -51.667 -93 -68s-80.5 -24.5 -130.5 -24.5zM281 93c17.333 0 33.8311 4 49.498 12s29.334 20.833 41.001 38.5
s21 40.667 28 69s10.5 63.166 10.5 104.499c0 38 -7.16699 65.167 -21.5 81.5s-34.833 24.5 -61.5 24.5c-16.667 0 -33 -3.66699 -49 -11s-30.167 -19.5 -42.5 -36.5s-22.166 -39.667 -29.499 -68s-11 -63.166 -11 -104.499c0 -38.667 7.5 -66.667 22.5 -84
s36.167 -26 63.5 -26z" />
    <glyph glyph-name="p" unicode="p" horiz-adv-x="604" 
d="M29 -212l-2 4l29 167l62 447c2 11.333 -1 18.333 -9 21l-49 18l11 76h200l-12 -80l3 -1c30 28 60.167 50.167 90.5 66.5s61.5 24.5 93.5 24.5c21.333 0 41 -3.66699 59 -11s33.5 -19 46.5 -35s23 -36.667 30 -62s10.5 -56 10.5 -92c0 -34.667 -3.83301 -72 -11.5 -112
s-20.667 -77.167 -39 -111.5s-42.833 -62.833 -73.5 -85.5s-69.334 -34 -116.001 -34c-32.667 0 -59.167 5.16699 -79.5 15.5s-39.833 22.166 -58.5 35.499l-22 -150c-0.666992 -5.33301 -0.166992 -9.16602 1.5 -11.499s5.83398 -3.83301 12.501 -4.5l101 -10l-11 -75h-267
zM229 143c12.667 -10.667 26.999 -19.8311 42.999 -27.498s33.333 -11.5 52 -11.5c20 0 37.167 6.33301 51.5 19s25.833 29 34.5 49s15 41.833 19 65.5s6 46.5 6 68.5c0 30 -3.83301 53.833 -11.5 71.5s-21.167 26.5 -40.5 26.5c-10 0 -20.5 -2.33301 -31.5 -7
s-22.167 -10.834 -33.5 -18.501s-22.166 -15.834 -32.499 -24.501l-29.5 -25z" />
    <glyph glyph-name="q" unicode="q" horiz-adv-x="590" 
d="M237 -212l11.001 75.9971l85 8c7.33301 0.666992 12.5 2.16699 15.5 4.5s5.16699 6.83301 6.5 13.5l27 191l-4 2c-12.667 -11.333 -26 -22.666 -40 -33.999s-28.833 -21.5 -44.5 -30.5s-32.167 -16.333 -49.5 -22s-36 -8.5 -56 -8.5c-50 0 -86.5 17.167 -109.5 51.5
s-34.5 83.833 -34.5 148.5c0 37.333 4.33301 76.166 13 116.499s22.667 77.333 42 111s44.666 61.334 75.999 83.001s69.333 32.5 114 32.5c26.667 0 51.834 -4.5 75.501 -13.5s46.5 -23.5 68.5 -43.5l19 47h128c-5.33301 -23.333 -10 -46 -14 -68s-7.66699 -44 -11 -66
l-69 -497c-1.33301 -7.33301 -1.33301 -12.166 0 -14.499s5.66602 -4.16602 12.999 -5.49902l47 -6l-10 -76h-299zM411.001 378.997c-10.667 10 -23.8311 18.833 -39.498 26.5s-31.834 11.5 -48.501 11.5c-24.667 0 -45 -7.83301 -61 -23.5s-28.833 -34.834 -38.5 -57.501
s-16.334 -46.5 -20.001 -71.5s-5.5 -46.833 -5.5 -65.5c0 -57.333 19 -86 57 -86c10 0 20.5 2.33301 31.5 7s22.333 10.834 34 18.501s23 16.167 34 25.5s21.167 19 30.5 29z" />
    <glyph glyph-name="r" unicode="r" horiz-adv-x="470" 
d="M9 0l9.99902 75.0029l46 6c7.33301 1.33301 11.833 3.16602 13.5 5.49902s3.16699 7.16602 4.5 14.499l42 305c1.33301 11.333 -2 18.333 -10 21l-50 18l11 76h198l-13 -90l3 -2c19.333 28 42.666 52 69.999 72s57 30 89 30c11.333 0 24.833 -0.833008 40.5 -2.5
s27.834 -3.83398 36.501 -6.50098l-25 -182l-117 4l-3 52c-0.666992 8 -4.33398 12 -11.001 12c-9.33301 0 -21.166 -5 -35.499 -15s-28.5 -22.333 -42.5 -37l-35 -254c-1.33301 -8 -1.16602 -13.167 0.500977 -15.5s6.16699 -3.83301 13.5 -4.5l95 -8l-11 -74h-320z" />
    <glyph glyph-name="s" unicode="s" horiz-adv-x="478" 
d="M353 363l-2.00195 52.001c0 4 -0.666992 7.33301 -2 10s-4.66602 4.66699 -9.99902 6c-13.333 3.33301 -32 5 -56 5c-21.333 0 -39.166 -3.66699 -53.499 -11s-21.5 -19.666 -21.5 -36.999c0 -16 7.66699 -28 23 -36s34 -15.667 56 -23c18 -6 36.5 -12.667 55.5 -20
s36.5 -16.833 52.5 -28.5s29.167 -26.167 39.5 -43.5s15.5 -39.333 15.5 -66c0 -32.667 -6.33301 -60.5 -19 -83.5s-29.834 -41.833 -51.501 -56.5s-46.834 -25.5 -75.501 -32.5s-59 -10.5 -91 -10.5c-23.333 0 -45.666 1.33301 -66.999 4s-40.5 5.66699 -57.5 9
s-31.333 7.16602 -43 11.499s-19.5 7.83301 -23.5 10.5l19 145l102 -6l3 -58c0 -8 3.66699 -13.333 11 -16s16.833 -4.83398 28.5 -6.50098s25.834 -2.5 42.501 -2.5c28 0 49.333 4.83301 64 14.5s22 23.167 22 40.5c0 20 -8.5 33.833 -25.5 41.5
s-39.833 15.834 -68.5 24.501c-18 5.33301 -36 11.5 -54 18.5s-34 16.333 -48 28s-25.5 26.167 -34.5 43.5s-13.5 39 -13.5 65c0 30.667 6.16699 57.167 18.5 79.5s29 40.666 50 54.999s45.5 24.833 73.5 31.5s57.333 10 88 10c19.333 0 38.333 -1 57 -3
s35.667 -4.5 51 -7.5s29 -6.16699 41 -9.5s21.333 -6.33301 28 -9l-20 -145z" />
    <glyph glyph-name="t" unicode="t" horiz-adv-x="422" 
d="M392 27c-22 -10.667 -48.335 -19.8311 -79.002 -27.498s-60 -11.5 -88 -11.5c-50 0 -86.167 9.16699 -108.5 27.5s-33.5 48.166 -33.5 89.499c0 13.333 1 28 3 44l36 262c0.666992 3.33301 0.666992 5.83301 0 7.5s-2.66699 2.5 -6 2.5h-69l13 92
c42.667 4.66699 75.834 19 99.501 43s41.834 63 54.501 117h93l-20 -142c-0.666992 -3.33301 -0.666992 -5.83301 0 -7.5s3 -2.5 7 -2.5h138l-14 -100h-146l-33 -239c-2 -12.667 -3 -23.334 -3 -32.001c0 -17.333 4.33301 -30 13 -38s23.667 -12 45 -12
c14 0 27.833 1.5 41.5 4.5s26.5 6.83301 38.5 11.5z" />
    <glyph glyph-name="u" unicode="u" horiz-adv-x="623" 
d="M380 0l9.99805 79.999l-3 1l-35 -29.5c-12.667 -11 -26.667 -21.167 -42 -30.5s-32 -17.166 -50 -23.499s-37.667 -9.5 -59 -9.5c-43.333 0 -74 10.667 -92 32s-27 52.333 -27 93c0 8.66699 0.333008 17.834 1 27.501s1.66699 19.5 3 29.5l33 242
c1.33301 8 1.33301 13.167 0 15.5s-5.66602 4.16602 -12.999 5.49902l-39 7l12 81h195l7 -7l-44 -318c-1.33301 -8.66699 -2.33301 -16.667 -3 -24s-1 -13.666 -1 -18.999c0 -12.667 2.33301 -21.834 7 -27.501s13 -8.5 25 -8.5c11.333 0 22.833 2.5 34.5 7.5
s23.167 11.333 34.5 19s22 15.5 32 23.5s18.333 15 25 21l31 226c1.33301 8 1.33301 13 0 15s-5.66602 3.66699 -12.999 5l-32 5l13 82h189l7 -8l-59 -411c-1.33301 -6.66699 -1.5 -11.5 -0.5 -14.5s4.83301 -5.16699 11.5 -6.5l50 -7l-10 -74h-198z" />
    <glyph glyph-name="v" unicode="v" horiz-adv-x="592" 
d="M190 0l-90.001 421c-1.33301 6 -3.16602 10 -5.49902 12s-6.5 3.66699 -12.5 5l-40 9l10 74h191l9 -9l17 -114l44 -252h3l144 293l-65 9l11 73h196l12 -31l-251 -490h-173z" />
    <glyph glyph-name="w" unicode="w" horiz-adv-x="856" 
d="M503 0l-41.002 335h-3l-118 -335h-179l-63 421c-1.33301 6 -3.16602 10 -5.49902 12s-6.16602 3.66699 -11.499 5l-41 9l13 74h185l8 -9l7 -91l31 -270h3l132 361h157l44 -365h3l123 294l-55 6l12 74h166l11 -29l-212 -492h-166z" />
    <glyph glyph-name="x" unicode="x" horiz-adv-x="590" 
d="M390 0l-11.002 9.00391l-45 83l-54 92l-91 -102l53 -9l-8 -73h-234l8 72l44 8c6 1.33301 10.833 3.16602 14.5 5.49902s8.16699 6.16602 13.5 11.499l147 161l-101 162c-3.33301 5.33301 -6.16602 9.16602 -8.49902 11.499s-6.16602 4.16602 -11.499 5.49902l-39 9l12 75
h159l10 -8l47 -90l44 -74l87 91l-49 7l13 74h227l-10 -74l-44 -10c-6 -1.33301 -10.833 -3.33301 -14.5 -6s-8.16699 -7 -13.5 -13l-143 -144l109 -175c3.33301 -5.33301 6.5 -9.33301 9.5 -12s7.16699 -4.66699 12.5 -6l51 -8l-12 -73h-172z" />
    <glyph glyph-name="y" unicode="y" horiz-adv-x="568" 
d="M209 3l-112.002 418.001c-2 6 -4.16699 10 -6.5 12s-6.16602 3.66699 -11.499 5l-39 9l12 74h176l10 -11l27 -129l45 -209h5l127 266l-61 9l11 74h185l14 -31l-290 -571c-12.667 -24 -25.5 -44.833 -38.5 -62.5s-27.667 -32.334 -44 -44.001s-34.666 -20.5 -54.999 -26.5
s-43.833 -9 -70.5 -9c-18 0 -35 1.83301 -51 5.5s-30.5 8 -43.5 13s-24 10.5 -33 16.5s-15.833 11 -20.5 15l51 85c10 -6 23.5 -12.333 40.5 -19s33.833 -10 50.5 -10c21.333 0 39.333 6.5 54 19.5s28 29.833 40 50.5z" />
    <glyph glyph-name="z" unicode="z" horiz-adv-x="514" 
d="M21 0l12 84l304 343h-137c-4.66699 0 -8 -1 -10 -3s-3.66699 -5 -5 -9l-19 -57l-101 -4l23 167h434l-12 -86l-299 -342h144c7.33301 0 12.333 4.33301 15 13l22 69l103 4l-25 -179h-449z" />
    <glyph glyph-name="braceleft" unicode="{" horiz-adv-x="330" 
d="M260 -149c-36 0.666992 -66.6689 3.16602 -92.002 7.49902s-45.833 11.166 -61.5 20.499s-27 21.5 -34 36.5s-10.5 33.5 -10.5 55.5c0 18 2.16699 36.333 6.5 55s9.33301 37.334 15 56.001s10.667 36.667 15 54s6.5 34 6.5 50c0 24 -4.83301 40.167 -14.5 48.5
s-25.167 13.166 -46.5 14.499l12 79c21.333 1.33301 38.333 6 51 14s21.667 23 27 45c2.66699 10 4.66699 23 6 39s2.33301 32.667 3 50s1 34.666 1 51.999s-0.333008 32.333 -1 45c-1.33301 30 2.16699 54.833 10.5 74.5s22 35.5 41 47.5s43.167 20.333 72.5 25s64 7 104 7
l6 -80c-17.333 -2 -31.166 -4.5 -41.499 -7.5s-18.333 -7.66699 -24 -14s-9.5 -14.666 -11.5 -24.999s-3.33301 -24.166 -4 -41.499c-1.33301 -26.667 -1.5 -51.834 -0.5 -75.501s1.16699 -41.167 0.5 -52.5c-0.666992 -22.667 -3.16699 -41.667 -7.5 -57
s-10.166 -28.333 -17.499 -39s-16 -19.667 -26 -27s-21 -14 -33 -20c13.333 -7.33301 25 -17.833 35 -31.5s15 -32.5 15 -56.5c0 -18 -2.16699 -36.5 -6.5 -55.5s-9.33301 -37.667 -15 -56s-10.667 -36.166 -15 -53.499s-6.5 -33.666 -6.5 -48.999
c0 -17.333 4.5 -29.5 13.5 -36.5s25.167 -13.167 48.5 -18.5z" />
    <glyph glyph-name="bar" unicode="|" horiz-adv-x="285" 
d="M35 -143l122 867h137l-122 -867h-137z" />
    <glyph glyph-name="braceright" unicode="}" horiz-adv-x="340" 
d="M122 727c36 -0.666992 66.668 -3.16602 92.001 -7.49902s45.833 -11.166 61.5 -20.499s27 -21.5 34 -36.5s10.5 -33.5 10.5 -55.5c0 -18 -2.16699 -36.333 -6.5 -55s-9.33301 -37.334 -15 -56.001s-10.667 -36.667 -15 -54s-6.5 -34 -6.5 -50
c0 -24 4.83301 -40.167 14.5 -48.5s25.167 -13.166 46.5 -14.499l-12 -79c-21.333 -1.33301 -38.333 -6 -51 -14s-21.667 -23 -27 -45c-2.66699 -10 -4.66699 -23 -6 -39s-2.33301 -32.667 -3 -50s-1 -34.666 -1 -51.999s0.333008 -32.333 1 -45
c1.33301 -30 -2.16699 -54.833 -10.5 -74.5s-22 -35.5 -41 -47.5s-43.167 -20.333 -72.5 -25s-64 -7 -104 -7l-6 80c17.333 2 31.166 4.5 41.499 7.5s18.333 7.66699 24 14s9.5 14.666 11.5 24.999s3.33301 24.166 4 41.499c1.33301 26.667 1.5 51.834 0.5 75.501
s-1.16699 41.167 -0.5 52.5c1.33301 22.667 4 41.667 8 57s9.66699 28.333 17 39s16 19.667 26 27s21 14 33 20c-13.333 7.33301 -25 17.833 -35 31.5s-15 32.5 -15 56.5c0 18 2.16699 36.5 6.5 55.5s9.33301 37.667 15 56s10.667 36.166 15 53.499s6.5 33.666 6.5 48.999
c0 17.333 -4.5 29.5 -13.5 36.5s-25.167 13.167 -48.5 18.5z" />
    <glyph glyph-name="asciitilde" unicode="~" horiz-adv-x="524" 
d="M547 431c-15.333 -48 -33.334 -83.501 -54.001 -106.501s-47.334 -34.5 -80.001 -34.5c-18 0 -36.5 2.33301 -55.5 7s-37.833 10 -56.5 16s-36.667 11.333 -54 16s-33.333 7 -48 7c-16 0 -29.667 -3.16699 -41 -9.5s-23.666 -19.166 -36.999 -38.499l-68 36
c7.33301 18.667 16 36 26 52s21.333 30 34 42s26.334 21.5 41.001 28.5s30 10.5 46 10.5c19.333 0 38 -2.33301 56 -7s35.833 -10 53.5 -16s34.834 -11.333 51.501 -16s33 -7 49 -7s28.167 3.5 36.5 10.5s17.166 19.833 26.499 38.5z" />
    <glyph glyph-name="uni00A0" unicode="&#xa0;" horiz-adv-x="202" 
 />
    <glyph glyph-name="sterling" unicode="&#xa3;" horiz-adv-x="552" 
d="M34 0l-3.99902 90.001c16 8.66699 29.5 17.5 40.5 26.5s20.167 19.667 27.5 32s13.333 27 18 44s8.66699 38.167 12 63.5l3 23h-72l14 110h69l8 53c4.66699 29.333 11.667 57 21 83s23.166 48.667 41.499 68s42 34.5 71 45.5s64.833 16.5 107.5 16.5
c40.667 0 76.667 -6 108 -18s57.333 -27.667 78 -47l-73 -86c-16 13.333 -33.667 23.5 -53 30.5s-38.333 10.5 -57 10.5c-34.667 0 -58.5 -9.5 -71.5 -28.5s-21.5 -43.833 -25.5 -74.5l-8 -53h143l-15 -110h-140c-4.66699 -40 -13.334 -74.333 -26.001 -103s-33 -55 -61 -79
h199c4.66699 0 7.83398 1.16699 9.50098 3.5s3.16699 5.16602 4.5 8.49902l25 79h104l-25 -188h-473z" />
    <glyph glyph-name="currency" unicode="&#xa4;" horiz-adv-x="570" 
d="M494 -3l-87 85.999c-16.667 -9.33301 -34.667 -16.666 -54 -21.999s-40.333 -8 -63 -8c-48.667 0 -89.334 9.66699 -122.001 29l-38 -38l-47 -47l-80 80l88 89c-9.33301 17.333 -15.666 35.166 -18.999 53.499s-5 38.166 -5 59.499c0 39.333 8.66699 74.333 26 105
l-20.5 21l-23.5 24.5l-23.5 24c-7.66699 7.66699 -14.167 13.834 -19.5 18.501l82 83l82 -83c17.333 11.333 36.166 19.833 56.499 25.5s43.5 8.5 69.5 8.5c25.333 0 47.833 -2.66699 67.5 -8s38.167 -13.333 55.5 -24l80 80l79 -81l-84 -84
c6.66699 -15.333 12.334 -32.333 17.001 -51s7 -37 7 -55c0 -20 -2.5 -40.167 -7.5 -60.5s-12.167 -39.166 -21.5 -56.499l88 -88zM294 160.999c32.667 0 57.5 11.5 74.5 34.5s25.5 50.833 25.5 83.5c0 36.667 -8.5 65.167 -25.5 85.5s-42.5 30.5 -76.5 30.5
s-59.167 -10.833 -75.5 -32.5s-24.5 -49.5 -24.5 -83.5c0 -32.667 8 -60.5 24 -83.5s42 -34.5 78 -34.5z" />
    <glyph glyph-name="brokenbar" unicode="&#xa6;" horiz-adv-x="285" 
d="M35 -143l55 388h137l-55 -388h-137zM110 389l47 335h137l-47 -335h-137z" />
    <glyph glyph-name="section" unicode="&#xa7;" horiz-adv-x="569" 
d="M151 -32c0 -5.33301 0.828125 -9.5 2.49512 -12.5s6.16699 -5.5 13.5 -7.5c6.66699 -2 15.5 -3.66699 26.5 -5s24.833 -2 41.5 -2c30 0 52.333 5.16699 67 15.5s22 25.166 22 44.499c0 11.333 -3.16699 20.666 -9.5 27.999s-14.833 13.5 -25.5 18.5
s-22.834 9.16699 -36.501 12.5s-27.834 7 -42.501 11c-16.667 4.66699 -33.5 10 -50.5 16s-32.167 14 -45.5 24s-24.166 22.667 -32.499 38s-12.5 34.666 -12.5 57.999c0 36 9.33301 66.333 28 91s40.334 45.667 65.001 63c-12.667 10 -23 23.833 -31 41.5
s-12 36.834 -12 57.501c0 30.667 6.33301 56.834 19 78.501s29.834 39.5 51.501 53.5s46.667 24.333 75 31s58.166 10 89.499 10c44.667 0 83.834 -3.66699 117.501 -11s57.167 -13.666 70.5 -18.999l-21 -145l-103 6l-2 54c0 9.33301 -4.66699 15.333 -14 18
c-14.667 4 -34.334 6 -59.001 6c-27.333 0 -48.333 -5.5 -63 -16.5s-22 -24.833 -22 -41.5c0 -9.33301 2.83301 -17.333 8.5 -24s13.334 -12.334 23.001 -17.001s20.834 -8.66699 33.501 -12l40 -11c17.333 -4.66699 35 -10.167 53 -16.5s34.167 -14.833 48.5 -25.5
s26 -24.167 35 -40.5s13.5 -37.166 13.5 -62.499c0 -34 -8.5 -63 -25.5 -87s-37.833 -44.333 -62.5 -61c11.333 -12 20.833 -24.833 28.5 -38.5s11.5 -31.167 11.5 -52.5c0 -33.333 -7 -61.333 -21 -84s-32.667 -41 -56 -55s-49.666 -24 -78.999 -30s-59.666 -9 -90.999 -9
c-22.667 0 -44.667 1.33301 -66 4s-40.666 6 -57.999 10s-32 8 -44 12s-20 7.66699 -24 11l19 136l104 -6zM336.995 171c11.333 7.33301 21.667 17.168 31 29.501s14 25.833 14 40.5c0 15.333 -6.66699 27.333 -20 36s-29 15.667 -47 21l-73 20
c-13.333 -8.66699 -24.5 -18.834 -33.5 -30.501s-13.5 -24.167 -13.5 -37.5c0 -15.333 5.83301 -26.833 17.5 -34.5s27.167 -14.5 46.5 -20.5z" />
    <glyph glyph-name="dieresis" unicode="&#xa8;" 
d="M311 674c0 -23.333 -7.66895 -42.167 -23.002 -56.5s-34.666 -21.5 -57.999 -21.5c-19.333 0 -34.666 5.66699 -45.999 17s-17 26.333 -17 45c0 23.333 7.83301 42 23.5 56s35.167 21 58.5 21c20 0 35.333 -5.5 46 -16.5s16 -25.833 16 -44.5zM518.998 673.999
c0 -23.333 -7.66895 -42.167 -23.002 -56.5s-34.666 -21.5 -57.999 -21.5c-19.333 0 -34.666 5.66699 -45.999 17s-17 26.333 -17 45c0 23.333 7.83301 42 23.5 56s35.167 21 58.5 21c20 0 35.333 -5.5 46 -16.5s16 -25.833 16 -44.5z" />
    <glyph glyph-name="copyright" unicode="&#xa9;" horiz-adv-x="770" 
d="M740 319c0 -50 -8.16699 -95.667 -24.5 -137s-39.333 -76.666 -69 -105.999s-65 -52 -106 -68s-86.5 -24 -136.5 -24c-55.333 0 -103.833 8.16699 -145.5 24.5s-76.5 38.833 -104.5 67.5s-49.167 62.667 -63.5 102s-21.5 81.666 -21.5 126.999
c0 52.667 8.83301 99.667 26.5 141s41.667 76.333 72 105s66 50.5 107 65.5s84.833 22.5 131.5 22.5c52 0 98.5 -7.5 139.5 -22.5s76 -36.5 105 -64.5s51.167 -61.667 66.5 -101s23 -83.333 23 -132zM406 56c39.333 0 74.834 5.99805 106.501 17.998s58.5 29 80.5 51
s38.833 48.833 50.5 80.5s17.5 67.5 17.5 107.5c0 41.333 -6.33301 77.833 -19 109.5s-30.334 58.167 -53.001 79.5s-49.5 37.5 -80.5 48.5s-65.167 16.5 -102.5 16.5c-36.667 0 -70.5 -5.83301 -101.5 -17.5s-58 -28.667 -81 -51s-41 -49.666 -54 -81.999
s-19.5 -69.166 -19.5 -110.499c0 -78.667 22.5 -140 67.5 -184s107.833 -66 188.5 -66zM530.001 143.998c-13.333 -8 -30.665 -14.002 -51.998 -18.002s-42 -6 -62 -6c-34 0 -62.833 4.83301 -86.5 14.5s-43 23.167 -58 40.5s-26 38 -33 62s-10.5 50 -10.5 78
c0 28.667 4 54.834 12 78.501s20 44 36 61s35.833 30.333 59.5 40s51.5 14.5 83.5 14.5c20.667 0 41.5 -2.16699 62.5 -6.5s37.5 -8.83301 49.5 -13.5v-111h-54l-9 49c-0.666992 6 -3.33398 9.66699 -8.00098 11c-5.33301 2 -11.833 3.66699 -19.5 5s-16.5 2 -26.5 2
c-28.667 0 -51.834 -9.66699 -69.501 -29s-26.5 -53.666 -26.5 -102.999c0 -18 1.66699 -34.833 5 -50.5s9 -29.5 17 -41.5s18.5 -21.333 31.5 -28s29.167 -10 48.5 -10c16 0 28.333 1.33301 37 4c4 1.33301 6.5 2.83301 7.5 4.5s2.16699 4.5 3.5 8.5l13 50h49v-106z" />
    <glyph glyph-name="guillemotleft" unicode="&#xab;" horiz-adv-x="466" 
d="M301 103l-64.001 154l110 151h123l-100 -140c-3.33301 -4 -5.16602 -7.16699 -5.49902 -9.5s0.166992 -5.5 1.5 -9.5l56 -146h-121zM112.999 103l-64.001 154l110 151h123l-100 -140c-3.33301 -4 -5.16602 -7.16699 -5.49902 -9.5s0.166992 -5.5 1.5 -9.5l56 -146h-121z
" />
    <glyph glyph-name="logicalnot" unicode="&#xac;" horiz-adv-x="570" 
d="M371 172l14 94h-276l16 117h387l-30 -211h-111z" />
    <glyph glyph-name="uni00AD" unicode="&#xad;" horiz-adv-x="311" 
d="M35 227l18 127h271l-18 -127h-271z" />
    <glyph glyph-name="registered" unicode="&#xae;" horiz-adv-x="453" 
d="M459 480c0 -27.333 -4.5 -52.5 -13.5 -75.5s-21.833 -42.667 -38.5 -59s-36.334 -29 -59.001 -38s-48 -13.5 -76 -13.5c-30 0 -56.667 4.66699 -80 14s-42.666 22 -57.999 38s-27 34.833 -35 56.5s-12 45.167 -12 70.5c0 28.667 4.83301 54.5 14.5 77.5s23 42.667 40 59
s36.667 28.833 59 37.5s46.5 13 72.5 13c58 0 103.5 -16.5 136.5 -49.5s49.5 -76.5 49.5 -130.5zM411 477c0 45.333 -12.999 79.666 -38.999 102.999s-59 35 -99 35c-18.667 0 -36.334 -3.16699 -53.001 -9.5s-31.334 -15.5 -44.001 -27.5s-22.5 -26.833 -29.5 -44.5
s-10.5 -37.5 -10.5 -59.5c0 -42 12.333 -75 37 -99s58 -36 100 -36c42.667 0 76.334 12.333 101.001 37s37 58.334 37 101.001zM309.001 384l-23.001 57c-2.66699 6 -5 10.333 -7 13s-6 4 -12 4h-11v-40c0 -4 1.66699 -6.33301 5 -7l20 -2v-25h-90v25l14 3
c3.33301 0.666992 5 3 5 7v122c0 3.33301 -1.66699 5.33301 -5 6l-14 2v26h88c27.333 0 45.833 -5.5 55.5 -16.5s14.5 -23.5 14.5 -37.5c0 -13.333 -3.33301 -24.333 -10 -33s-15 -14.667 -25 -18c6.66699 -2 12.334 -8.33301 17.001 -19l15 -33
c1.33301 -3.33301 4 -5.33301 8 -6l15 -3v-25h-60zM269 491c9.33301 0 17.167 1.66797 23.5 5.00098s9.5 10.666 9.5 21.999c0 9.33301 -2.83301 15.5 -8.5 18.5s-12.5 4.5 -20.5 4.5h-17v-50h13z" />
    <glyph glyph-name="macron" unicode="&#xaf;" 
d="M178 599l14 100h317l-14 -100h-317z" />
    <glyph glyph-name="degree" unicode="&#xb0;" horiz-adv-x="286" 
d="M194 617c15.333 0 28.333 5.66602 39 16.999s16 25 16 41c0 12.667 -3.66699 22.834 -11 30.501s-17.333 11.5 -30 11.5c-14 0 -26.5 -5.33301 -37.5 -16s-16.5 -24.667 -16.5 -42c0 -12 3.33301 -22 10 -30s16.667 -12 30 -12zM317 683.999
c0 -19.333 -3.33301 -36.999 -10 -52.999s-16 -29.833 -28 -41.5s-26 -20.667 -42 -27s-33.333 -9.5 -52 -9.5c-30.667 0 -55.167 9.16699 -73.5 27.5s-27.5 42.166 -27.5 71.499c0 20.667 3.5 39 10.5 55s16.667 29.5 29 40.5s26.5 19.333 42.5 25s33 8.5 51 8.5
c30 0 54.167 -8.66699 72.5 -26s27.5 -41 27.5 -71z" />
    <glyph glyph-name="plusminus" unicode="&#xb1;" horiz-adv-x="570" 
d="M76 0l16 116h387l-16 -116h-387zM366 265l-18 -129h-120l18 129h-133l16 116h133l20 140h120l-20 -140h134l-16 -116h-134z" />
    <glyph glyph-name="mu" unicode="&#xb5;" horiz-adv-x="645" 
d="M402 0l9.00195 60.001l-4 2c-20.667 -16 -43.5 -31 -68.5 -45s-51.833 -21 -80.5 -21c-14.667 0 -28 2 -40 6l-14 -178h-156l98 697h151l-47 -331c-2 -12 -3.16699 -23.167 -3.5 -33.5s1 -19 4 -26s8 -12.5 15 -16.5s17.5 -6 31.5 -6c19.333 0 37.666 4 54.999 12
s33.666 18.667 48.999 32l52 369h151l-59 -420c-1.33301 -6 -1.33301 -10.333 0 -13s5 -4.33398 11 -5.00098l49 -7l-10 -76h-193z" />
    <glyph glyph-name="paragraph" unicode="&#xb6;" horiz-adv-x="657" 
d="M486 553h-63.998l-71 -497h-40c-74 0 -131.833 22.167 -173.5 66.5s-62.5 105.833 -62.5 184.5c0 52 8 98.833 24 140.5s39 77.167 69 106.5s66.833 51.833 110.5 67.5s93.167 23.5 148.5 23.5h273l-11 -76l-68 -8c-7.33301 -1.33301 -12 -3 -14 -5
s-3.66699 -6.66699 -5 -14l-73 -518c-10 -72 -35.5 -123.667 -76.5 -155s-91.833 -47 -152.5 -47c-26.667 0 -51.334 2 -74.001 6s-42.834 9 -60.501 15s-32.834 12.167 -45.501 18.5s-22.667 11.833 -30 16.5l46 88c4 -2.66699 11 -6.5 21 -11.5
s21.833 -9.83301 35.5 -14.5s28.834 -8.66699 45.501 -12s33.667 -5 51 -5c36 0 64 9.16699 84 27.5s33 47.5 39 87.5z" />
    <glyph glyph-name="periodcentered" unicode="&#xb7;" horiz-adv-x="238" 
d="M243 334c0 -28 -8.16699 -49.667 -24.5 -65s-40.5 -23 -72.5 -23c-50.667 0 -76 22.333 -76 67c0 28.667 8.16699 50.667 24.5 66s40.833 23 73.5 23c26 0 45 -5.66699 57 -17s18 -28.333 18 -51z" />
    <glyph glyph-name="cedilla" unicode="&#xb8;" 
d="M134 -179c3.33301 -1.33301 8.00098 -2.33496 14.001 -3.00195s13 -1 21 -1c15.333 0 30 3.33301 44 10s21 19.334 21 38.001c0 15.333 -5.66699 25.666 -17 30.999s-26 8.33301 -44 9l34 125l70 -8l-18 -67c8 -2 16 -5.16699 24 -9.5s15.5 -10 22.5 -17
s12.667 -15.333 17 -25s6.5 -21.5 6.5 -35.5c0 -20.667 -4.16699 -38.667 -12.5 -54s-19.5 -28.166 -33.5 -38.499s-29.833 -18.166 -47.5 -23.499s-36.167 -8 -55.5 -8c-18.667 0 -33.334 1.16699 -44.001 3.5s-16.667 3.83301 -18 4.5z" />
    <glyph glyph-name="guillemotright" unicode="&#xbb;" horiz-adv-x="466" 
d="M221 103l98 146c2.66699 4 4.16699 7.16699 4.5 9.5s-0.5 5.5 -2.5 9.5l-60 140h122l67 -152l-107 -153h-122zM33 103l98 146c2.66699 4 4.16699 7.16699 4.5 9.5s-0.5 5.5 -2.5 9.5l-60 140h122l67 -152l-107 -153h-122z" />
    <glyph glyph-name="multiply" unicode="&#xd7;" horiz-adv-x="570" 
d="M385 319l85 -97l-96 -81l-83 96l-111 -97l-68 83l109 95l-83 96l96 81l81 -95l110 96l68 -83z" />
    <glyph glyph-name="divide" unicode="&#xf7;" horiz-adv-x="570" 
d="M365 166c0 -25.333 -7.33203 -45.498 -21.999 -60.498s-37 -22.5 -67 -22.5c-23.333 0 -40.833 5.16699 -52.5 15.5s-17.5 25.166 -17.5 44.499c0 24.667 7.5 45.167 22.5 61.5s37.5 24.5 67.5 24.5c23.333 0 40.666 -5.83301 51.999 -17.5s17 -26.834 17 -45.501z
M109.001 263.002l17 116h387l-17 -116h-387zM411.001 497.002c0 -25.333 -7.33203 -45.5 -21.999 -60.5s-37 -22.5 -67 -22.5c-46.667 0 -70 20 -70 60c0 24.667 7.5 45 22.5 61s37.5 24 67.5 24c23.333 0 40.666 -5.66699 51.999 -17s17 -26.333 17 -45z" />
    <glyph glyph-name="florin" unicode="&#x192;" horiz-adv-x="576" 
d="M328 287l-61.0059 -200.998c-12 -39.333 -25.167 -71.666 -39.5 -96.999s-30.666 -45.333 -48.999 -60s-38.666 -24.834 -60.999 -30.501s-47.5 -8.5 -75.5 -8.5c-16 0 -32.167 1.33301 -48.5 4s-31.666 6.33398 -45.999 11.001s-27.333 10 -39 16
s-21.167 12.333 -28.5 19l52 92c13.333 -10 28.833 -18.833 46.5 -26.5s36.167 -11.5 55.5 -11.5c10 0 19.167 1 27.5 3s15.833 6.16699 22.5 12.5s13 15.166 19 26.499s12 26.333 18 45l61 196c2 6.66699 0 10 -6 10h-88l29 95h98l30 98
c10 33.333 21.833 61.166 35.5 83.499s29.667 40.166 48 53.499s39.333 23 63 29s50.834 9 81.501 9c32.667 0 62.834 -3.83301 90.501 -11.5s52.167 -18.167 73.5 -31.5l-44 -146l-91 9l8 62c0 3.33301 -0.5 6 -1.5 8s-3.5 3.66699 -7.5 5c-4.66699 2 -9.66699 3.5 -15 4.5
s-12.333 1.5 -21 1.5c-21.333 0 -37.666 -6.5 -48.999 -19.5s-21 -32.167 -29 -57.5l-27 -87c-2 -6.66699 0 -10 6 -10h123l-28 -95h-133z" />
    <glyph glyph-name="circumflex" unicode="&#x2c6;" 
d="M446 562l-101 93l-129 -93l-54 52l140 129h104l105 -129z" />
    <glyph glyph-name="caron" unicode="&#x2c7;" 
d="M383 582h-104l-104 129l64 52l102 -93l128 93l55 -52z" />
    <glyph glyph-name="uni02C9" unicode="&#x2c9;" 
d="M176 599l14 100h317l-14 -100h-317z" />
    <glyph glyph-name="breve" unicode="&#x2d8;" 
d="M521 709c-16.667 -42.667 -39.8311 -76.167 -69.498 -100.5s-69.5 -36.5 -119.5 -36.5s-87.167 12 -111.5 36s-38.833 57.667 -43.5 101l78 28c5.33301 -26 15.166 -45 29.499 -57s33.166 -18 56.499 -18s43.333 6 60 18s32 31 46 57z" />
    <glyph glyph-name="dotaccent" unicode="&#x2d9;" 
d="M334 603c-24.667 0 -43.668 6.66797 -57.001 20.001s-20 31.666 -20 54.999c0 32 9 57.167 27 75.5s43.333 27.5 76 27.5c24.667 0 43.834 -6.33301 57.501 -19s20.5 -31 20.5 -55c0 -32 -9.16699 -57.333 -27.5 -76s-43.833 -28 -76.5 -28z" />
    <glyph glyph-name="ring" unicode="&#x2da;" 
d="M363 770c24.667 0 46.5 -6.83398 65.5 -20.501s28.5 -34.834 28.5 -63.501c0 -33.333 -10.667 -60.666 -32 -81.999s-50.333 -32 -87 -32c-28 0 -51.167 7.33301 -69.5 22s-27.5 36.334 -27.5 65.001c0 34 11.167 61 33.5 81s51.833 30 88.5 30zM345 630.999
c17.333 0 29.166 5.00098 35.499 15.001s9.5 21.667 9.5 35c0 11.333 -3.5 19.166 -10.5 23.499s-15.167 6.5 -24.5 6.5c-30.667 0 -46 -16.667 -46 -50c0 -10 3.33301 -17.5 10 -22.5s15.334 -7.5 26.001 -7.5z" />
    <glyph glyph-name="ogonek" unicode="&#x2db;" 
d="M347 -207c-21.333 -9.33301 -42.6719 -16.168 -64.0049 -20.501s-40.666 -6.5 -57.999 -6.5c-32.667 0 -56.667 6.66699 -72 20s-23 31.333 -23 54c0 20 4.5 38.833 13.5 56.5s20.833 34 35.5 49s30.834 28.833 48.501 41.5s34.834 24.334 51.501 35.001l69 -19
l-27.5 -22.5c-11 -9 -21.667 -19 -32 -30s-19.166 -22.5 -26.499 -34.5s-11 -23.667 -11 -35c0 -16 8.33301 -24 25 -24c6.66699 0 14.834 0.833008 24.501 2.5s19.5 4.16699 29.5 7.5z" />
    <glyph glyph-name="tilde" unicode="&#x2dc;" 
d="M499 643c-13.333 -19.333 -25.5 -34.165 -36.5 -44.498s-24.167 -15.5 -39.5 -15.5c-9.33301 0 -20.333 1.33301 -33 4s-27 6.66699 -43 12c-15.333 4 -31.5 8.5 -48.5 13.5s-29.167 8.16699 -36.5 9.5c-4.66699 0.666992 -10.334 -1.66602 -17.001 -6.99902l-35 -32
l-54 37l37 51c23.333 33.333 47.666 50 72.999 50c14.667 0 35.334 -4 62.001 -12c8 -2.66699 16.667 -5.33398 26 -8.00098l27.5 -8c9 -2.66699 17 -4.83398 24 -6.50098s12.5 -2.83398 16.5 -3.50098c4.66699 0 9.33398 2 14.001 6l32 32l60 -37z" />
    <glyph glyph-name="hungarumlaut" unicode="&#x2dd;" 
d="M192 560l-55 51l153 174l81 -75zM386 560l-56 51l155 173l79 -74z" />
    <glyph glyph-name="uni0394" unicode="&#x394;" horiz-adv-x="715" 
d="M-4 0l360 724h177l160 -724h-697zM414 571h-6l-213 -451h297z" />
    <glyph glyph-name="uni03A9" unicode="&#x3a9;" horiz-adv-x="829" 
d="M434 0l27.001 190.002c18.667 7.33301 38.5 17.666 59.5 30.999s40.5 30.5 58.5 51.5s32.833 46.333 44.5 76s17.5 64.5 17.5 104.5c0 56.667 -14.5 97.667 -43.5 123s-67.167 38 -114.5 38c-30.667 0 -59.167 -5.16699 -85.5 -15.5s-49.333 -25.5 -69 -45.5
s-35 -45.167 -46 -75.5s-16.5 -65.5 -16.5 -105.5c0 -44 9.33301 -81.333 28 -112s44 -53.667 76 -69l-27 -191h-322l25 174h103l6 -57c0.666992 -5.33301 1.83398 -8.5 3.50098 -9.5s5.16699 -1.5 10.5 -1.5h85l5 38c-46 18.667 -82.5 48.167 -109.5 88.5
s-40.5 87.5 -40.5 141.5c0 52 9.33301 100.167 28 144.5s45 82.666 79 114.999s75.167 57.666 123.5 75.999s102.166 27.5 161.499 27.5c102 0 177.167 -23.5 225.5 -70.5s72.5 -111.167 72.5 -192.5c0 -44 -6.66699 -83.667 -20 -119s-31 -66.833 -53 -94.5
s-47.667 -51.167 -77 -70.5s-60 -34.666 -92 -45.999l-5 -38h81c5.33301 0 9.16602 0.5 11.499 1.5s4.5 4.16699 6.5 9.5l21 57h104l-25 -174h-317z" />
    <glyph glyph-name="uni03BC" unicode="&#x3bc;" horiz-adv-x="629" 
d="M402 0l9.00195 60.001l-4 2c-20.667 -16 -43.5 -31 -68.5 -45s-51.833 -21 -80.5 -21c-14.667 0 -28 2 -40 6l-14 -178h-156l98 697h151l-47 -331c-2 -12 -3.16699 -23.167 -3.5 -33.5s1 -19 4 -26s8 -12.5 15 -16.5s17.5 -6 31.5 -6c19.333 0 37.666 4 54.999 12
s33.666 18.667 48.999 32l52 369h151l-59 -420c-1.33301 -6 -1.33301 -10.333 0 -13s5 -4.33398 11 -5.00098l49 -7l-10 -76h-193z" />
    <glyph glyph-name="pi" unicode="&#x3c0;" horiz-adv-x="691" 
d="M400 0l59.998 424.999h-152l-59 -425h-213l10 75l47 7c7.33301 0.666992 11.833 1.83398 13.5 3.50098s3.16699 6.16699 4.5 13.5l45 317c1.33301 7.33301 1.33301 12.166 0 14.499s-5.66602 4.16602 -12.999 5.49902l-48 7l11 78h585l-11 -78l-51 -7
c-7.33301 -1.33301 -12 -3.16602 -14 -5.49902s-3.66699 -7.16602 -5 -14.499l-45 -314c-1.33301 -8 -1.16602 -13 0.500977 -15s6.16699 -3.66699 13.5 -5l44 -7l-10 -75h-213z" />
    <glyph glyph-name="afii10023" unicode="&#x401;" horiz-adv-x="620" 
d="M374 859c0 -23.333 -7.66895 -42.167 -23.002 -56.5s-34.666 -21.5 -57.999 -21.5c-19.333 0 -34.666 5.66699 -45.999 17s-17 26.333 -17 45c0 23.333 7.83301 42 23.5 56s35.167 21 58.5 21c20 0 35.333 -5.5 46 -16.5s16 -25.833 16 -44.5zM581.998 858.999
c0 -23.333 -7.66895 -42.167 -23.002 -56.5s-34.666 -21.5 -57.999 -21.5c-19.333 0 -34.666 5.66699 -45.999 17s-17 26.333 -17 45c0 23.333 7.83301 42 23.5 56s35.167 21 58.5 21c20 0 35.333 -5.5 46 -16.5s16 -25.833 16 -44.5zM17.9961 -0.00195312l10.0039 73.001
l63 7c7.33301 1.33301 12 3.16602 14 5.49902s3.66699 7.16602 5 14.499l73 523c1.33301 7.33301 1.16602 12.333 -0.500977 15s-5.83398 4.33398 -12.501 5.00098l-62 7l10 74h521l-28 -202l-105 5l-3 76c-0.666992 8.66699 -6 13 -16 13h-155l-27 -197h230l-16 -111h-230
l-27 -201h177c5.33301 0 9.16602 0.5 11.499 1.5s4.16602 4.16699 5.49902 9.5l28 88h105l-28 -206h-543z" />
    <glyph glyph-name="afii10051" unicode="&#x402;" horiz-adv-x="834" 
d="M802 224c0 -32 -5 -62.333 -15 -91s-24.5 -53.667 -43.5 -75s-42.667 -38.333 -71 -51s-60.833 -19 -97.5 -19c-24 0 -46.833 2 -68.5 6s-38.5 8.66699 -50.5 14l18 119c26 -8 50 -12 72 -12c30.667 0 55.5 8 74.5 24s28.5 40.667 28.5 74
c0 37.333 -10.333 62.833 -31 76.5s-47.667 20.5 -81 20.5c-16.667 0 -33.334 -1.16699 -50.001 -3.5s-33.667 -5.16602 -51 -8.49902l-41 -298h-232l11 76l64 7c7.33301 0.666992 11.833 2.16699 13.5 4.5s3.16699 7.5 4.5 15.5l74 512h-96
c-5.33301 0 -9.16602 -0.5 -11.499 -1.5s-4.5 -4.16699 -6.5 -9.5l-27 -83l-110 -4l29 207h676l-29 -207l-108 5l-4 81c0 5.33301 -1.16699 8.66602 -3.5 9.99902s-6.16602 2 -11.499 2h-147l-29 -204c16.667 3.33301 35.667 6.83301 57 10.5s46.666 5.5 75.999 5.5
c70 0 123.667 -17.667 161 -53s56 -85.333 56 -150z" />
    <glyph glyph-name="afii10052" unicode="&#x403;" horiz-adv-x="600" 
d="M340 767l-32 71l212 117l45 -103zM16 0l11.001 74.9971l65 8c7.33301 0.666992 11.833 2.33398 13.5 5.00098s3.16699 7.66699 4.5 15l73 517c1.33301 7.33301 1.16602 12.333 -0.500977 15s-6.16699 4.33398 -13.5 5.00098l-62 7l10 77h538l-29 -212l-108 7l-4 85
c0 5.33301 -1.16699 8.5 -3.5 9.5s-6.16602 1.5 -11.499 1.5h-165l-71 -512c-1.33301 -7.33301 -1.33301 -12.166 0 -14.499s5.66602 -3.83301 12.999 -4.5l141 -9l-11 -75h-390z" />
    <glyph glyph-name="afii10053" unicode="&#x404;" horiz-adv-x="670" 
d="M610 43c-15.333 -8.66699 -32.8291 -16.499 -52.4961 -23.499s-40.334 -12.833 -62.001 -17.5s-43.5 -8.16699 -65.5 -10.5s-43 -3.5 -63 -3.5c-54.667 0 -101.5 7.5 -140.5 22.5s-70.833 36.167 -95.5 63.5s-42.834 60.166 -54.501 98.499s-17.5 80.833 -17.5 127.5
c0 64 8.83301 122.667 26.5 176s44 99.333 79 138s78.667 68.834 131 90.501s112.833 32.5 181.5 32.5c20 0 40.5 -1.33301 61.5 -4s41.167 -6.33398 60.5 -11.001s37.333 -10.5 54 -17.5s31 -15.167 43 -24.5l-26 -196l-106 11l-4 95c0 6 -0.833008 10.5 -2.5 13.5
s-5.5 5.5 -11.5 7.5c-8.66699 3.33301 -20.834 5.83301 -36.501 7.5s-31.167 2.5 -46.5 2.5c-58.667 0 -108.834 -17.333 -150.501 -52s-69.834 -85.667 -84.501 -153h251l-17 -112h-244c0 -24.667 2.83301 -49.167 8.5 -73.5s15 -46 28 -65s30.167 -34.333 51.5 -46
s47.333 -17.5 78 -17.5c16 0 32.333 0.5 49 1.5s31.334 3.16699 44.001 6.5c8 2 13.167 4.5 15.5 7.5s4.5 7.5 6.5 13.5l32 98h105z" />
    <glyph glyph-name="afii10054" unicode="&#x405;" horiz-adv-x="584" 
d="M468 510l-2.00586 86c0 5.33301 -0.666992 9.83301 -2 13.5s-5 6.16699 -11 7.5c-7.33301 2 -15.333 3.33301 -24 4s-20 1 -34 1c-17.333 0 -33.833 -1.83301 -49.5 -5.5s-29.5 -9.33398 -41.5 -17.001s-21.667 -17.334 -29 -29.001s-11 -25.167 -11 -40.5
c0 -14 3.33301 -25.833 10 -35.5s15.667 -18.167 27 -25.5s24.5 -13.833 39.5 -19.5l46.5 -17.5c20.667 -7.33301 41.334 -15.666 62.001 -24.999s39.5 -21.333 56.5 -36s30.833 -33 41.5 -55s16 -49.667 16 -83c0 -42.667 -8 -79.5 -24 -110.5s-37.667 -56.5 -65 -76.5
s-59.5 -34.667 -96.5 -44s-76.5 -14 -118.5 -14c-22.667 0 -45.5 1.33301 -68.5 4s-44.5 6 -64.5 10s-38 8.33301 -54 13s-28.333 9.33398 -37 14.001l27 195h109l7 -94c0.666992 -6.66699 2 -11.5 4 -14.5s6.66699 -5.5 14 -7.5c10 -2.66699 21.167 -4.66699 33.5 -6
s26.833 -2 43.5 -2c43.333 0 77 8.5 101 25.5s36 43.167 36 78.5c0 14.667 -3 27.167 -9 37.5s-14 19.166 -24 26.499s-21.667 13.833 -35 19.5s-27.666 11.167 -42.999 16.5c-21.333 7.33301 -43.166 15.333 -65.499 24s-42.5 20 -60.5 34s-32.833 31.833 -44.5 53.5
s-17.5 49.5 -17.5 83.5c0 40 7.83301 75 23.5 105s36.834 54.833 63.501 74.5s57.834 34.334 93.501 44.001s73.834 14.5 114.501 14.5c43.333 0 81.833 -4.5 115.5 -13.5s61.167 -18.167 82.5 -27.5l-27 -195z" />
    <glyph glyph-name="afii10055" unicode="&#x406;" horiz-adv-x="382" 
d="M11 0l8.00098 72.998l73 7c7.33301 0.666992 11.833 2.33398 13.5 5.00098s3.16699 7.66699 4.5 15l74 522c1.33301 7.33301 1.16602 12.333 -0.500977 15s-6.16699 4.33398 -13.5 5.00098l-70 7l10 75h330l-11 -75l-76 -8c-7.33301 -1.33301 -11.833 -3 -13.5 -5
s-3.16699 -6.66699 -4.5 -14l-73 -521c-1.33301 -8 -1.5 -13 -0.5 -15s5.16699 -3.66699 12.5 -5l75 -8l-9 -73h-329z" />
    <glyph glyph-name="afii10056" unicode="&#x407;" horiz-adv-x="382" 
d="M256 861c0 -23.333 -7.66797 -42.5 -23.001 -57.5s-35 -22.5 -59 -22.5c-19.333 0 -34.666 5.33301 -45.999 16s-17 25 -17 43c0 24 7.83301 43.333 23.5 58s35.5 22 59.5 22c19.333 0 34.5 -5.33301 45.5 -16s16.5 -25 16.5 -43zM463.999 861
c0 -23.333 -7.66797 -42.5 -23.001 -57.5s-35 -22.5 -59 -22.5c-19.333 0 -34.666 5.33301 -45.999 16s-17 25 -17 43c0 24 7.83301 43.333 23.5 58s35.5 22 59.5 22c19.333 0 34.5 -5.33301 45.5 -16s16.5 -25 16.5 -43zM10.998 0l8.00098 72.998l73 7
c7.33301 0.666992 11.833 2.33398 13.5 5.00098s3.16699 7.66699 4.5 15l74 522c1.33301 7.33301 1.16602 12.333 -0.500977 15s-6.16699 4.33398 -13.5 5.00098l-70 7l10 75h330l-11 -75l-76 -8c-7.33301 -1.33301 -11.833 -3 -13.5 -5s-3.16699 -6.66699 -4.5 -14
l-73 -521c-1.33301 -8 -1.5 -13 -0.5 -15s5.16699 -3.66699 12.5 -5l75 -8l-9 -73h-329z" />
    <glyph glyph-name="afii10057" unicode="&#x408;" 
d="M318 623c1.33301 7.33301 0.998047 12.1641 -1.00195 14.4971s-6.33301 3.83301 -13 4.5l-87 7l10 75h337l-11 -75l-67 -8c-7.33301 -1.33301 -11.666 -2.83301 -12.999 -4.5s-2.66602 -6.16699 -3.99902 -13.5l-65 -460c-8 -59.333 -28 -103.333 -60 -132
s-81.333 -43 -148 -43c-20 0 -39.333 1.16699 -58 3.5s-36 5.33301 -52 9s-30 7.83398 -42 12.501s-21 9.33398 -27 14.001l25 178l106 -8l1 -71c0 -8 2.33301 -12.667 7 -14c4 -1.33301 9.5 -2.66602 16.5 -3.99902s15.5 -2 25.5 -2c18 0 31 4.33301 39 13
s13.667 23.667 17 45z" />
    <glyph glyph-name="afii10058" unicode="&#x409;" horiz-adv-x="1050" 
d="M209 724l648.997 0.00390625l-11 -76l-96 -9c-7.33301 -0.666992 -12.166 -2.16699 -14.499 -4.5s-4.16602 -7.16602 -5.49902 -14.499l-27 -193h105c78.667 0 135.167 -16.333 169.5 -49s51.5 -76 51.5 -130c0 -42.667 -7.16699 -79.5 -21.5 -110.5
s-34.5 -56.667 -60.5 -77s-57.167 -35.5 -93.5 -45.5s-76.166 -15 -119.499 -15h-322l11 76l65 7c7.33301 0.666992 11.833 2.33398 13.5 5.00098s3.16699 7.66699 4.5 15l72 515h-164c-8 -64.667 -17.833 -130.334 -29.5 -197.001s-25.167 -126 -40.5 -178
c-10 -34 -22.5 -66.5 -37.5 -97.5s-34.5 -58.5 -58.5 -82.5s-53.667 -43.5 -89 -58.5s-78.666 -22.833 -129.999 -23.5l-10 136c28.667 2.66699 53.167 7.66699 73.5 15s37.833 17.666 52.5 30.999s27.167 30.166 37.5 50.499s19.833 45.166 28.5 74.499
c11.333 36 22.666 82.833 33.999 140.5s21.666 120.5 30.999 188.5c1.33301 9.33301 0.833008 15.166 -1.5 17.499s-7.16602 4.16602 -14.499 5.49902l-62 7zM724.997 108.004c19.333 0 37.668 2 55.001 6s32.666 11 45.999 21s23.833 23.167 31.5 39.5s11.5 36.5 11.5 60.5
c0 34 -9.5 57.5 -28.5 70.5s-44.833 19.5 -77.5 19.5h-73l-30 -217h65z" />
    <glyph glyph-name="afii10059" unicode="&#x40a;" horiz-adv-x="1064" 
d="M717 421l104.998 -0.000976562c78.667 0 135.334 -15.833 170.001 -47.5s52 -74.5 52 -128.5c0 -42.667 -7.16699 -79.334 -21.5 -110.001s-34.5 -56 -60.5 -76s-57.167 -34.833 -93.5 -44.5s-76.166 -14.5 -119.499 -14.5h-315l11 76l65 7
c7.33301 0.666992 11.833 2.33398 13.5 5.00098s3.16699 7.66699 4.5 15l28 207h-265l-30 -209c-1.33301 -8 -1.33301 -13 0 -15s5.66602 -3.66699 12.999 -5l65 -8l-11 -73h-310l10 73l63 7c7.33301 1.33301 12 3.16602 14 5.49902s3.66699 7.16602 5 14.499l72 522
c1.33301 7.33301 1.33301 12.333 0 15s-5.66602 4.33398 -12.999 5.00098l-60 7l10 75h310l-10 -75l-67 -8c-7.33301 -1.33301 -11.833 -3 -13.5 -5s-3.16699 -6.66699 -4.5 -14l-28 -200h265l28 200c1.33301 7.33301 1.16602 12.333 -0.500977 15
s-5.83398 4.33398 -12.501 5.00098l-61 7l10 75h326l-10 -76l-86 -8c-7.33301 -0.666992 -12.166 -2.16699 -14.499 -4.5s-4.16602 -7.16602 -5.49902 -14.499zM738.998 107.999c19.333 0 37.668 1.83203 55.001 5.49902s32.666 10.334 45.999 20.001s23.833 22.5 31.5 38.5
s11.5 36 11.5 60c0 34 -9.66699 56.833 -29 68.5s-45.333 17.5 -78 17.5h-72l-30 -210h65z" />
    <glyph glyph-name="afii10060" unicode="&#x40b;" horiz-adv-x="858" 
d="M453 416c18.667 4.66699 40.832 8.83203 66.499 12.499s52.5 5.5 80.5 5.5c37.333 0 68 -4.5 92 -13.5s42.667 -21.833 56 -38.5s21.833 -37.167 25.5 -61.5s3.5 -51.5 -0.5 -81.5l-18 -137c-1.33301 -7.33301 -1.33301 -12.166 0 -14.499
s5.66602 -4.16602 12.999 -5.49902l65 -7l-11 -75h-231v0l-2 3l30 215c2 16.667 3 31.167 3 43.5s-2.66699 22.666 -8 30.999s-13.5 14.5 -24.5 18.5s-26.5 6 -46.5 6c-15.333 0 -32.5 -1.5 -51.5 -4.5s-37.167 -6.5 -54.5 -10.5l-28 -198
c-1.33301 -7.33301 -1.33301 -12.333 0 -15s5.66602 -4.66699 12.999 -6l63 -8l-11 -75h-313l11 75l66 8c7.33301 1.33301 12 3 14 5s3.66699 7 5 15l72 512h-96c-5.33301 0 -9.16602 -0.5 -11.499 -1.5s-4.16602 -4.16699 -5.49902 -9.5l-28 -83l-109 -4l29 207h675
l-29 -211l-107 6l-5 80c-0.666992 6.66699 -2.16699 11 -4.5 13s-7.16602 3 -14.499 3h-142z" />
    <glyph glyph-name="afii10061" unicode="&#x40c;" horiz-adv-x="760" 
d="M419 767l-32 71l212 117l45 -103zM263 105c-1.33301 -8 -1.00098 -13.3301 0.999023 -15.9971s6.66699 -4.66699 14 -6l64 -8l-11 -75h-313l11 75l62 7c7.33301 1.33301 12 3.16602 14 5.49902s3.66699 7.16602 5 14.499l73 520c1.33301 7.33301 1.33301 12.166 0 14.499
s-5.66602 4.16602 -12.999 5.49902l-62 7l10 75h314l-10 -75l-70 -8c-7.33301 -1.33301 -11.666 -3.33301 -12.999 -6s-2.66602 -6.66699 -3.99902 -12l-28 -200h61c12 0 22.667 1.16699 32 3.5s17.833 6.5 25.5 12.5s15 14 22 24s14.5 23 22.5 39l59 119
c9.33301 18.667 18.833 35.167 28.5 49.5s20.667 26.5 33 36.5s26.833 17.5 43.5 22.5s36.667 7.5 60 7.5c12.667 0 26.334 -0.833008 41.001 -2.5s27.667 -4.16699 39 -7.5l-20 -105c-5.33301 0.666992 -10.333 1.16699 -15 1.5s-9 0.5 -13 0.5
c-18.667 -0.666992 -32.834 -5.66699 -42.501 -15s-21.167 -27.333 -34.5 -54l-44 -91c-14 -30 -30.333 -51 -49 -63s-37.667 -20.333 -57 -25v-2c18.667 -8 33.167 -19.5 43.5 -34.5s21.833 -38.5 34.5 -70.5l61 -159c3.33301 -8 6.16602 -13.167 8.49902 -15.5
s7.16602 -4.16602 14.499 -5.49902l69 -11l-11 -78h-216c-12.667 48 -26.5 93.333 -41.5 136l-40.5 111c-9.33301 23.333 -19.833 39.833 -31.5 49.5s-30.167 14.5 -55.5 14.5h-43z" />
    <glyph glyph-name="afii10062" unicode="&#x40e;" horiz-adv-x="703" 
d="M642 916c-16 -48 -38.667 -82.167 -68 -102.5s-67 -30.5 -113 -30.5c-100.667 0 -156 43.667 -166 131l101 29c2 -50 24.667 -75 68 -75c19.333 0 35.5 5.5 48.5 16.5s23.833 30.167 32.5 57.5zM159 617c-2 6.66699 -4.99805 11.501 -8.99805 14.501
s-8.66699 5.16699 -14 6.5l-44 11l21 75h288l-11 -74l-73 -10l74 -327h5l173 327l-69 9l21 75h253l-11 -75l-49 -13c-8 -2 -13.667 -5.16699 -17 -9.5s-7.33301 -10.5 -12 -18.5l-257 -463c-16.667 -30.667 -33.5 -56 -50.5 -76s-34.333 -36 -52 -48
s-36.167 -20.5 -55.5 -25.5s-40 -7.5 -62 -7.5c-28 0 -55.833 3.5 -83.5 10.5s-49.834 15.167 -66.501 24.5l42 108c10 -4.66699 24.333 -9.83398 43 -15.501s36.667 -8.5 54 -8.5c21.333 0 38.166 4.83301 50.499 14.5s24.833 25.5 37.5 47.5z" />
    <glyph glyph-name="afii10145" unicode="&#x40f;" horiz-adv-x="784" 
d="M513 106l70.999 514c1.33301 8 1.33301 13 0 15s-5.66602 3.66699 -12.999 5l-58 8l11 76h308l-11 -76l-65 -8c-7.33301 -1.33301 -12 -3 -14 -5s-3.66699 -7 -5 -15l-72 -515c-1.33301 -7.33301 -1.33301 -12.5 0 -15.5s5.66602 -4.83301 12.999 -5.5l64 -7l-11 -77
h-273c-6 -0 -10 -1.16699 -12 -3.5s-3.66699 -5.5 -5 -9.5l-38 -149l-99 6l2 143c0 8.66699 -3.66699 13 -11 13h-281l11 75l67 8c7.33301 1.33301 11.833 3 13.5 5s3.16699 6.66699 4.5 14l72 518c1.33301 8 1.33301 13 0 15s-5.66602 3.66699 -12.999 5l-65 8l11 76h307
l-10 -76l-59 -8c-7.33301 -1.33301 -12 -3 -14 -5s-3.66699 -7 -5 -15l-71 -514h250z" />
    <glyph glyph-name="afii10017" unicode="&#x410;" horiz-adv-x="744" 
d="M419 0l10.001 73l82 9l-19 109h-246l-49 -109l76 -9l-11 -73h-274l11 73l45 11c13.333 3.33301 22.333 10 27 20l299 620h174l128 -623c1.33301 -6 3.66602 -10 6.99902 -12s8.33301 -3.66699 15 -5l43 -11l-11 -73h-307zM425.001 572h-7l-127 -273h185z" />
    <glyph glyph-name="afii10018" unicode="&#x411;" horiz-adv-x="667" 
d="M346 108c18 0 35.5 1.66406 52.5 4.99707s32 9.33301 45 18s23.333 20.334 31 35.001s11.5 33.334 11.5 56.001c0 32.667 -10.333 54.334 -31 65.001s-47.667 16 -81 16h-84l-27 -195h83zM305 405.997l116 0.000976562c78.667 0 136 -15.5 172 -46.5
s54 -74.167 54 -129.5c0 -40 -7.5 -74.5 -22.5 -103.5s-35.5 -52.833 -61.5 -71.5s-56.833 -32.5 -92.5 -41.5s-74.5 -13.5 -116.5 -13.5h-338l11 75l65 7c7.33301 0.666992 11.833 2.33398 13.5 5.00098s3.16699 7.66699 4.5 15l73 518c1.33301 7.33301 1 12.166 -1 14.499
s-6.66699 4.16602 -14 5.49902l-61 7l10 77h533l-29 -210l-108 4l-4 84c0 8.66699 -5 13 -15 13h-160z" />
    <glyph glyph-name="afii10019" unicode="&#x412;" horiz-adv-x="648" 
d="M18 0l11.001 73l62 7c7.33301 1.33301 12 3.16602 14 5.49902s3.66699 7.16602 5 14.499l73 522c1.33301 7.33301 1.16602 12.333 -0.500977 15s-6.16699 4.33398 -13.5 5.00098l-61 7l10 75h330c36.667 0 67.334 -4.16699 92.001 -12.5s44.5 -19.666 59.5 -33.999
s25.667 -30.833 32 -49.5s9.5 -38.667 9.5 -60c0 -28.667 -4.33301 -53.5 -13 -74.5s-19.834 -39.167 -33.501 -54.5s-29.167 -27.833 -46.5 -37.5s-35 -17.167 -53 -22.5v-3c48 -5.33301 83.667 -21 107 -47s35 -60 35 -102s-7.5 -77.5 -22.5 -106.5
s-35.833 -52.333 -62.5 -70s-58.167 -30.5 -94.5 -38.5s-75.5 -12 -117.5 -12h-322zM329.001 108c23.333 0 44.334 1.83203 63.001 5.49902s34.667 10.167 48 19.5s23.666 22 30.999 38s11 36.667 11 62c0 17.333 -2.83301 31.5 -8.5 42.5s-13.5 19.833 -23.5 26.5
s-21.5 11.334 -34.5 14.001s-27.167 4 -42.5 4h-83l-29 -212h68zM344.002 419.999c19.333 0 38.001 1.49805 56.001 4.49805s33.833 8.83301 47.5 17.5s24.667 20.834 33 36.501s12.5 35.834 12.5 60.501c0 16.667 -2.83301 30 -8.5 40s-13.334 17.667 -23.001 23
s-21 8.83301 -34 10.5s-27.167 2.5 -42.5 2.5h-55l-26 -195h40z" />
    <glyph glyph-name="afii10020" unicode="&#x413;" horiz-adv-x="600" 
d="M16 0l11.001 74.9971l65 8c7.33301 0.666992 11.833 2.33398 13.5 5.00098s3.16699 7.66699 4.5 15l73 517c1.33301 7.33301 1.16602 12.333 -0.500977 15s-6.16699 4.33398 -13.5 5.00098l-62 7l10 77h538l-29 -212l-108 7l-4 85c0 5.33301 -1.16699 8.5 -3.5 9.5
s-6.16602 1.5 -11.499 1.5h-165l-71 -512c-1.33301 -7.33301 -1.33301 -12.166 0 -14.499s5.66602 -3.83301 12.999 -4.5l141 -9l-11 -75h-390z" />
    <glyph glyph-name="afii10021" unicode="&#x414;" horiz-adv-x="803" 
d="M168 0c-9.33301 0 -14.999 -4.33496 -16.999 -13.002l-39 -131l-111 -7l36 259h56c23.333 24 43.833 49 61.5 75s33.167 55 46.5 87s24.666 68 33.999 108s17.666 86 24.999 138l14 104c1.33301 7.33301 1.33301 12.333 0 15s-5.66602 4.66699 -12.999 6l-62 7l11 76h639
l-11 -76l-68 -8c-7.33301 -1.33301 -12 -3.16602 -14 -5.49902s-3.66699 -7.16602 -5 -14.499l-71 -512h76l-36 -259l-109 7l-1 132c0 8 -4.33301 12 -13 12h-429zM417.001 617.998l-13.999 -107.998c-6 -46 -12.833 -88.167 -20.5 -126.5s-17.334 -73.833 -29.001 -106.5
s-25.5 -62.834 -41.5 -90.501s-35.333 -53.834 -58 -78.501h271l71 510h-179z" />
    <glyph glyph-name="afii10022" unicode="&#x415;" horiz-adv-x="620" 
d="M18 0l10.0039 73.001l63 7c7.33301 1.33301 12 3.16602 14 5.49902s3.66699 7.16602 5 14.499l73 523c1.33301 7.33301 1.16602 12.333 -0.500977 15s-5.83398 4.33398 -12.501 5.00098l-62 7l10 74h521l-28 -202l-105 5l-3 76c-0.666992 8.66699 -6 13 -16 13h-155
l-27 -197h230l-16 -111h-230l-27 -201h177c5.33301 0 9.16602 0.5 11.499 1.5s4.16602 4.16699 5.49902 9.5l28 88h105l-28 -206h-543z" />
    <glyph glyph-name="afii10024" unicode="&#x416;" horiz-adv-x="1097" 
d="M545 622c1.33301 7.33301 1.3291 12.1689 -0.00390625 14.502s-5.66602 4.16602 -12.999 5.49902l-62 7l10 75h308l-10 -75l-65 -8c-7.33301 -1.33301 -12 -3 -14 -5s-3.66699 -6.66699 -5 -14l-27 -198h36c12 0 22.5 1.16699 31.5 3.5s17.333 6.33301 25 12
s15 13.5 22 23.5s14.5 23 22.5 39l58 121c8 16.667 16.5 32 25.5 46s19.833 26 32.5 36s27.834 17.833 45.501 23.5s38.834 8.5 63.501 8.5c12.667 0 27.167 -1.16699 43.5 -3.5s28.166 -4.5 35.499 -6.5l-20 -106c-2 0.666992 -4.33301 1 -7 1
c-2 0 -4.33301 0.166992 -7 0.5s-5.66699 0.5 -9 0.5c-12 0 -21.833 -1.33301 -29.5 -4s-14.5 -7.16699 -20.5 -13.5s-11.667 -14.5 -17 -24.5l-19 -37l-39 -82c-13.333 -26.667 -29 -46.334 -47 -59.001s-36 -21 -54 -25v-3c17.333 -7.33301 31.833 -18.833 43.5 -34.5
s23.167 -39.5 34.5 -71.5l56 -154c2.66699 -7.33301 5.83398 -13.166 9.50098 -17.499s9.5 -7.16602 17.5 -8.49902l65 -10l-11 -79h-218c-13.333 49.333 -27 96 -41 140s-26.667 81.667 -38 113c-9.33301 23.333 -20 39 -32 47s-28 12 -48 12h-26l-29 -209
c-1.33301 -8 -1.16602 -13 0.500977 -15s5.83398 -3.66699 12.501 -5l56 -8l-10 -75h-295l10 75l57 7c8 1.33301 13 3.16602 15 5.49902s3.66699 7.83301 5 16.5l28 208h-30c-20 0 -36.333 -4 -49 -12s-27 -23.667 -43 -47c-10.667 -15.333 -22.167 -33 -34.5 -53l-38 -63.5
l-39.5 -68.5l-38 -68h-224l11 79l67 10c8.66699 1.33301 14.5 3.33301 17.5 6s7.16699 8 12.5 16l102 161c10 15.333 19 28.5 27 39.5s16.333 20.5 25 28.5s17.667 14.833 27 20.5s20 10.5 32 14.5v3c-16.667 5.33301 -31.334 14.833 -44.001 28.5s-22 33.167 -28 58.5
l-23 101c-5.33301 21.333 -12 36.166 -20 44.499s-22.333 12.5 -43 12.5h-10.5c-3.66699 0 -7.5 -0.333008 -11.5 -1l9 106c12 3.33301 25.5 5.66602 40.5 6.99902s28.167 2 39.5 2c39.333 0 68 -8.16699 86 -24.5s31.333 -41.166 40 -74.499l35 -132
c4 -16 8.16699 -29.333 12.5 -40s9.33301 -19 15 -25s12.5 -10.333 20.5 -13s18 -4 30 -4h43z" />
    <glyph glyph-name="afii10025" unicode="&#x417;" horiz-adv-x="627" 
d="M406 737c75.333 0 130.667 -14.333 166 -43s53 -69.334 53 -122.001c0 -27.333 -4.5 -51.5 -13.5 -72.5s-21 -39.333 -36 -55s-32.167 -28.834 -51.5 -39.501s-39 -19 -59 -25l-1 -4c17.333 -4 33.833 -9.66699 49.5 -17s29.334 -17.166 41.001 -29.499
s20.834 -27.333 27.501 -45s10 -38.834 10 -63.501c0 -36 -7 -68.333 -21 -97s-34.333 -53.167 -61 -73.5s-59.167 -35.833 -97.5 -46.5s-81.833 -16 -130.5 -16c-21.333 0 -43.333 1.33301 -66 4s-44.5 6.33398 -65.5 11.001s-40.333 10.334 -58 17.001
s-32.167 14 -43.5 22l24 176h109l7 -88c0 -5.33301 1 -9.16602 3 -11.499s5.66699 -4.5 11 -6.5c12.667 -5.33301 27.167 -8.83301 43.5 -10.5s31.5 -2.5 45.5 -2.5c20 0 38.667 2.5 56 7.5s32.5 12.667 45.5 23s23.333 23.166 31 38.499s11.5 33.333 11.5 54
c0 32 -10.167 54.167 -30.5 66.5s-46.5 18.5 -78.5 18.5h-111l16 112h64c56.667 0 99.667 12 129 36s44 54 44 90c0 30.667 -8.83301 52.334 -26.5 65.001s-40.834 19 -69.501 19c-14 0 -28.833 -1 -44.5 -3s-28.834 -5 -39.501 -9
c-7.33301 -2.66699 -12.333 -8.33398 -15 -17.001l-28 -87l-111 -7l24 172c28 15.333 63.667 29 107 41s90 18 140 18z" />
    <glyph glyph-name="afii10026" unicode="&#x418;" horiz-adv-x="822" 
d="M459 0l10.998 74.002l64 7c7.33301 1.33301 11.833 3.16602 13.5 5.49902s3.16699 7.16602 4.5 14.499l59 417h-5l-361 -518h-227l10 74l64 7c7.33301 1.33301 11.833 3.16602 13.5 5.49902s3.16699 7.16602 4.5 14.499l72 520c1.33301 7.33301 1.33301 12.333 0 15
s-5.66602 4.33398 -12.999 5.00098l-62 7l11 76h312l-11 -76l-68 -8c-8 -1.33301 -12.833 -3 -14.5 -5s-3.16699 -6.66699 -4.5 -14l-57 -396h5l351 499h241l-11 -76l-68 -8c-8 -1.33301 -12.833 -3 -14.5 -5s-3.16699 -6.66699 -4.5 -14l-72 -518
c-1.33301 -8 -1.16602 -13.167 0.500977 -15.5s6.16699 -4.16602 13.5 -5.49902l65 -8l-10 -74h-312z" />
    <glyph glyph-name="afii10027" unicode="&#x419;" horiz-adv-x="822" 
d="M705 916c-16 -48 -38.667 -82.167 -68 -102.5s-67 -30.5 -113 -30.5c-100.667 0 -156 43.667 -166 131l101 29c2 -50 24.667 -75 68 -75c19.333 0 35.5 5.5 48.5 16.5s23.833 30.167 32.5 57.5zM459 0l10.998 74.002l64 7c7.33301 1.33301 11.833 3.16602 13.5 5.49902
s3.16699 7.16602 4.5 14.499l59 417h-5l-361 -518h-227l10 74l64 7c7.33301 1.33301 11.833 3.16602 13.5 5.49902s3.16699 7.16602 4.5 14.499l72 520c1.33301 7.33301 1.33301 12.333 0 15s-5.66602 4.33398 -12.999 5.00098l-62 7l11 76h312l-11 -76l-68 -8
c-8 -1.33301 -12.833 -3 -14.5 -5s-3.16699 -6.66699 -4.5 -14l-57 -396h5l351 499h241l-11 -76l-68 -8c-8 -1.33301 -12.833 -3 -14.5 -5s-3.16699 -6.66699 -4.5 -14l-72 -518c-1.33301 -8 -1.16602 -13.167 0.500977 -15.5s6.16699 -4.16602 13.5 -5.49902l65 -8l-10 -74
h-312z" />
    <glyph glyph-name="afii10028" unicode="&#x41a;" horiz-adv-x="760" 
d="M263 105c-1.33301 -8 -1.00098 -13.3301 0.999023 -15.9971s6.66699 -4.66699 14 -6l64 -8l-11 -75h-313l11 75l62 7c7.33301 1.33301 12 3.16602 14 5.49902s3.66699 7.16602 5 14.499l73 520c1.33301 7.33301 1.33301 12.166 0 14.499
s-5.66602 4.16602 -12.999 5.49902l-62 7l10 75h314l-10 -75l-70 -8c-7.33301 -1.33301 -11.666 -3.33301 -12.999 -6s-2.66602 -6.66699 -3.99902 -12l-28 -200h61c12 0 22.667 1.16699 32 3.5s17.833 6.5 25.5 12.5s15 14 22 24s14.5 23 22.5 39l59 119
c9.33301 18.667 18.833 35.167 28.5 49.5s20.667 26.5 33 36.5s26.833 17.5 43.5 22.5s36.667 7.5 60 7.5c12.667 0 26.334 -0.833008 41.001 -2.5s27.667 -4.16699 39 -7.5l-20 -105c-5.33301 0.666992 -10.333 1.16699 -15 1.5s-9 0.5 -13 0.5
c-18.667 -0.666992 -32.834 -5.66699 -42.501 -15s-21.167 -27.333 -34.5 -54l-44 -91c-14 -30 -30.333 -51 -49 -63s-37.667 -20.333 -57 -25v-2c18.667 -8 33.167 -19.5 43.5 -34.5s21.833 -38.5 34.5 -70.5l61 -159c3.33301 -8 6.16602 -13.167 8.49902 -15.5
s7.16602 -4.16602 14.499 -5.49902l69 -11l-11 -78h-216c-12.667 48 -26.5 93.333 -41.5 136l-40.5 111c-9.33301 23.333 -19.833 39.833 -31.5 49.5s-30.167 14.5 -55.5 14.5h-43z" />
    <glyph glyph-name="afii10029" unicode="&#x41b;" horiz-adv-x="805" 
d="M604 618l-189.005 0.00585938c-7.33301 -64.667 -17 -130.334 -29 -197.001s-25.667 -126 -41 -178c-10 -34 -22.333 -66.333 -37 -97s-34.167 -57.834 -58.5 -81.501s-54.166 -42.667 -89.499 -57s-78.666 -22.166 -129.999 -23.499l-10 133
c28.667 2.66699 53.334 7.5 74.001 14.5s38.334 17.167 53.001 30.5s27.334 30.166 38.001 50.499s20.334 44.833 29.001 73.5c11.333 36 22.5 83.167 33.5 141.5s21.167 121.5 30.5 189.5c1.33301 9.33301 1 15.166 -1 17.499s-6.66699 4.16602 -14 5.49902l-64 7l10 77
h645l-11 -77l-68 -8c-7.33301 -1.33301 -12 -3 -14 -5s-3.66699 -7 -5 -15l-71 -517c-1.33301 -8 -1.33301 -13 0 -15s5.66602 -3.66699 12.999 -5l66 -8l-12 -74h-307l11 74l57 7c7.33301 1.33301 11.833 3.16602 13.5 5.49902s3.16699 7.16602 4.5 14.499z" />
    <glyph glyph-name="afii10030" unicode="&#x41c;" horiz-adv-x="943" 
d="M567 0l10 73l82 7c6.66699 0.666992 11 2.33398 13 5.00098s3.66699 7.66699 5 15l53 376h-4l-187 -332h-153l-99 331h-5l-52 -374c-1.33301 -8 -1.5 -13.167 -0.5 -15.5s5.16699 -3.83301 12.5 -4.5l84 -8l-9 -73h-298l9 73l63 7c7.33301 1.33301 12 3.16602 14 5.49902
s3.66699 7.5 5 15.5l73 522c1.33301 7.33301 1.16602 12.166 -0.500977 14.499s-5.83398 4.16602 -12.501 5.49902l-60 7l8 74h246l128 -439h5l240 439h253l-9 -73l-66 -8c-8 -1.33301 -12.833 -3.16602 -14.5 -5.49902s-3.16699 -7.5 -4.5 -15.5l-74 -522
c-1.33301 -6.66699 -1.16602 -11.167 0.500977 -13.5s5.83398 -4.16602 12.501 -5.49902l65 -8l-10 -73h-323z" />
    <glyph glyph-name="afii10031" unicode="&#x41d;" horiz-adv-x="802" 
d="M439 0l11.001 73.002l62 7c7.33301 1.33301 11.833 3.16602 13.5 5.49902s3.16699 7.16602 4.5 14.499l31 216h-269l-30 -215c-1.33301 -8 -1.5 -13 -0.5 -15s5.16699 -3.66699 12.5 -5l65 -8l-10 -73h-310l10 73l63 7c7.33301 1.33301 11.833 3.16602 13.5 5.49902
s3.16699 7.16602 4.5 14.499l73 522c1.33301 7.33301 1.16602 12.333 -0.500977 15s-6.16699 4.33398 -13.5 5.00098l-60 7l10 75h310l-10 -75l-67 -8c-7.33301 -1.33301 -11.833 -3 -13.5 -5s-3.16699 -6.66699 -4.5 -14l-26 -194h268l27 194
c1.33301 7.33301 1.33301 12.333 0 15s-5.66602 4.33398 -12.999 5.00098l-61 7l10 75h310l-10 -75l-66 -8c-7.33301 -1.33301 -11.833 -3 -13.5 -5s-3.16699 -6.66699 -4.5 -14l-73 -521c-1.33301 -8 -1.33301 -13 0 -15s5.66602 -3.66699 12.999 -5l65 -8l-11 -73h-310z
" />
    <glyph glyph-name="afii10032" unicode="&#x41e;" horiz-adv-x="757" 
d="M352 -12c-52 0 -96.668 7.16309 -134.001 21.4961s-67.666 34.5 -90.999 60.5s-40.5 57.333 -51.5 94s-16.5 77.334 -16.5 122.001c0 63.333 8.5 122.333 25.5 177s42.667 102.334 77 143.001s77 72.667 128 96s110.5 35 178.5 35c52 0 96.333 -7.5 133 -22.5
s66.667 -35.5 90 -61.5s40.5 -56.833 51.5 -92.5s16.5 -74.167 16.5 -115.5c0 -71.333 -9.16699 -135.166 -27.5 -191.499s-45 -104.166 -80 -143.499s-77.667 -69.5 -128 -90.5s-107.5 -31.5 -171.5 -31.5zM374.999 110.996c29.333 0 56.998 5.33301 82.998 16s49 28 69 52
s36.333 55 49 93s20.334 84 23.001 138v29c0 9.33301 -0.666992 18.333 -2 27c-6 52 -21.167 89.667 -45.5 113s-58.166 35 -101.499 35c-38.667 0 -72.5 -8.83301 -101.5 -26.5s-53 -40.834 -72 -69.501s-33.167 -61.167 -42.5 -97.5s-14 -73.166 -14 -110.499
c0 -8.66699 0.166992 -18.167 0.5 -28.5s1.16602 -18.833 2.49902 -25.5c6.66699 -50 22.334 -86.667 47.001 -110s59.667 -35 105 -35z" />
    <glyph glyph-name="afii10033" unicode="&#x41f;" horiz-adv-x="788" 
d="M335 618l-71.999 -515.997c-1.33301 -8 -1.33301 -13 0 -15s5.66602 -3.66699 12.999 -5l59 -8l-10 -74h-308l10 74l64 7c7.33301 1.33301 11.833 3.16602 13.5 5.49902s3.16699 7.16602 4.5 14.499l74 519c1.33301 7.33301 1.33301 12.333 0 15
s-5.66602 4.33398 -12.999 5.00098l-62 7l10 77h720l-10 -77l-68 -8c-8 -1.33301 -12.833 -3 -14.5 -5s-3.16699 -6.66699 -4.5 -14l-73 -518c-1.33301 -8 -1.33301 -13 0 -15s5.66602 -3.66699 12.999 -5l66 -8l-10 -74h-308l11 74l57 7
c7.33301 1.33301 11.833 3.16602 13.5 5.49902s3.16699 7.16602 4.5 14.499l73 517h-253z" />
    <glyph glyph-name="afii10034" unicode="&#x420;" horiz-adv-x="641" 
d="M18 0l11.001 74.001l63 7c7.33301 1.33301 12 3.16602 14 5.49902s3.66699 7.16602 5 14.499l72 521c1.33301 7.33301 1.16602 12.333 -0.500977 15s-6.16699 4.33398 -13.5 5.00098l-60 7l9 75h326c39.333 0 72.833 -4.66699 100.5 -14s50 -22.5 67 -39.5
s29.333 -36.833 37 -59.5s11.5 -47.667 11.5 -75c0 -46 -7.16699 -85.833 -21.5 -119.5s-34.666 -61.667 -60.999 -84s-58.333 -38.833 -96 -49.5s-79.834 -16 -126.501 -16h-72l-22 -165c-1.33301 -8 -1.33301 -13 0 -15s5.33301 -3.66699 12 -5l140 -8l-11 -74h-384z
M346.001 374.001c18.667 0 37.167 1.66895 55.5 5.00195s35 10.166 50 20.499s27.167 25.166 36.5 44.499s14 45 14 77c0 19.333 -3 35 -9 47s-14.167 21.5 -24.5 28.5s-22.333 11.833 -36 14.5s-28.167 4 -43.5 4h-58l-33 -241h48z" />
    <glyph glyph-name="afii10035" unicode="&#x421;" horiz-adv-x="670" 
d="M610 43c-15.333 -8.66699 -33 -16.499 -53 -23.499s-41 -12.833 -63 -17.5s-44.667 -8.16699 -68 -10.5s-46.333 -3.5 -69 -3.5c-52 0 -96.833 7.5 -134.5 22.5s-68.667 36.167 -93 63.5s-42.166 60.166 -53.499 98.499s-17 80.833 -17 127.5
c0 64 8.83301 122.667 26.5 176s44 99.333 79 138s78.667 68.834 131 90.501s112.833 32.5 181.5 32.5c20 0 40.5 -1.33301 61.5 -4s41.167 -6.33398 60.5 -11.001s37.333 -10.5 54 -17.5s31 -15.167 43 -24.5l-26 -196l-107 9l-3 93c0 7.33301 -1 12.5 -3 15.5
s-5.33301 5.16699 -10 6.5c-10 4 -21.833 7.16699 -35.5 9.5s-29.834 3.5 -48.501 3.5c-36 0 -69.167 -6.5 -99.5 -19.5s-56.166 -32.5 -77.499 -58.5s-38 -58.333 -50 -97s-18 -83.667 -18 -135c0 -68.667 14.167 -120.667 42.5 -156s69.5 -53 123.5 -53
c20 0 39 0.833008 57 2.5s33.333 5.16699 46 10.5c4 2 7.16699 4.33301 9.5 7s4.16602 6.66699 5.49902 12l29 95h105z" />
    <glyph glyph-name="afii10036" unicode="&#x422;" horiz-adv-x="680" 
d="M131 0l11.001 73.998l101 7c6.66699 0.666992 11 2.33398 13 5.00098s3.66699 7.66699 5 15l71 514h-102c-5.33301 0 -9 -0.5 -11 -1.5s-3.66699 -4.16699 -5 -9.5l-28 -82l-107 -5l28 207h631l-28 -207l-104 5l-4 82c-0.666992 5.33301 -1.83398 8.5 -3.50098 9.5
s-5.16699 1.5 -10.5 1.5h-104l-71 -514c-1.33301 -7.33301 -1.5 -12.166 -0.5 -14.499s5.16699 -3.83301 12.5 -4.5l108 -9l-10 -73h-392z" />
    <glyph glyph-name="afii10037" unicode="&#x423;" horiz-adv-x="703" 
d="M159 617c-2 6.66699 -4.99805 11.501 -8.99805 14.501s-8.66699 5.16699 -14 6.5l-44 11l21 75h288l-11 -74l-73 -10l74 -327h5l173 327l-69 9l21 75h253l-11 -75l-49 -13c-8 -2 -13.667 -5.16699 -17 -9.5s-7.33301 -10.5 -12 -18.5l-257 -463
c-16.667 -30.667 -33.5 -56 -50.5 -76s-34.333 -36 -52 -48s-36.167 -20.5 -55.5 -25.5s-40 -7.5 -62 -7.5c-28 0 -55.833 3.5 -83.5 10.5s-49.834 15.167 -66.501 24.5l42 108c10 -4.66699 24.333 -9.83398 43 -15.501s36.667 -8.5 54 -8.5
c21.333 0 38.166 4.83301 50.499 14.5s24.833 25.5 37.5 47.5z" />
    <glyph glyph-name="afii10038" unicode="&#x424;" horiz-adv-x="873" 
d="M668 661l-72 -8.00195c-12 -0.666992 -18.333 -7 -19 -19l-5 -33c102.667 -2.66699 177.834 -20.334 225.501 -53.001s71.5 -80 71.5 -142c0 -53.333 -9.83301 -97.166 -29.5 -131.499s-46 -61.666 -79 -81.999s-71.333 -34.833 -115 -43.5s-89.834 -13.667 -138.501 -15
l-5 -36c-1.33301 -6 -1 -10.167 1 -12.5s6.33301 -3.83301 13 -4.5l71 -7l-10 -74h-316l11 74l69 6c7.33301 0.666992 12 2.33398 14 5.00098s3.66699 7.66699 5 15l5 33c-41.333 1.33301 -80.166 5.33301 -116.499 12s-67.833 17.834 -94.5 33.501s-47.667 36.5 -63 62.5
s-23 58.333 -23 97c0 87.333 30.667 152.166 92 194.499s151.333 65.5 270 69.5l5 32c1.33301 5.33301 1.16602 9.5 -0.500977 12.5s-5.5 4.83301 -11.5 5.5l-71 9l11 76h316zM227 347.998c0 -38 12 -64.668 36 -80.001s64 -23.666 120 -24.999l35 248
c-64.667 -1.33301 -112.667 -13 -144 -35s-47 -58 -47 -108zM711 388.997c0 36.667 -13.001 62.6689 -39.001 78.002s-66 23.666 -120 24.999l-33 -248c66.667 2.66699 115.334 15.167 146.001 37.5s46 58.166 46 107.499z" />
    <glyph glyph-name="afii10039" unicode="&#x425;" horiz-adv-x="757" 
d="M398 0l11 72.999l78 9l-110 188l-157 -188l74 -9l-11 -73h-278l10 73l59 11c10.667 2.66699 20 9 28 19l219 253l-159 267c-4.66699 8.66699 -11.667 14.334 -21 17.001l-49 11l12 73h314l-11 -73l-77 -9l105 -185l158 185l-73 9l12 73h264l-10 -73l-50 -11
c-6 -1.33301 -11 -3.5 -15 -6.5s-8.33301 -7.16699 -13 -12.5l-217 -249l166 -271c3.33301 -5.33301 6.83301 -9.33301 10.5 -12s8.5 -4.66699 14.5 -6l47 -10l-10 -73h-321z" />
    <glyph glyph-name="afii10040" unicode="&#x426;" horiz-adv-x="779" 
d="M13 0l10.998 76.9961l68 8c7.33301 1.33301 12 3 14 5s3.66699 6.66699 5 14l71 517c1.33301 8 1.33301 13 0 15s-5.66602 3.66699 -12.999 5l-66 8l11 75h308l-11 -75l-57 -7c-7.33301 -1.33301 -12 -3.16602 -14 -5.49902s-3.66699 -7.16602 -5 -14.499l-72 -516h242
l71 515c1.33301 8 1.33301 13 0 15s-5.66602 3.66699 -12.999 5l-55 8l10 75h304l-11 -75l-64 -7c-7.33301 -1.33301 -12 -3.16602 -14 -5.49902s-3.66699 -7.16602 -5 -14.499l-71 -516h79l-36 -262l-107 7l-3 126c0 9.33301 -0.833008 15.5 -2.5 18.5
s-5.16699 4.5 -10.5 4.5h-564z" />
    <glyph glyph-name="afii10041" unicode="&#x427;" horiz-adv-x="727" 
d="M294 0l11.0049 75.998l131 8c7.33301 1.33301 12 3 14 5s3.66699 7 5 15l23 168c-23.333 -5.33301 -46.833 -9.16602 -70.5 -11.499s-46.167 -3.5 -67.5 -3.5c-38 0 -69.5 3.66699 -94.5 11s-45 17.5 -60 30.5s-25.667 28.5 -32 46.5s-9.5 37.667 -9.5 59
c0 14.667 1 29 3 43l24 174c1.33301 7.33301 1.16602 12.166 -0.500977 14.499s-5.83398 4.16602 -12.501 5.49902l-54 8l10 75h292l-10 -76l-51 -7c-7.33301 -1.33301 -12 -3.16602 -14 -5.49902s-3.66699 -7.16602 -5 -14.499l-22 -154
c-0.666992 -6 -1.33398 -11.667 -2.00098 -17s-1 -10.333 -1 -15c0 -23.333 6.33301 -40.833 19 -52.5s36.667 -17.5 72 -17.5c14.667 0 31.334 1.16699 50.001 3.5s35.667 5.83301 51 10.5l34 242c1.33301 7.33301 1.16602 12.333 -0.500977 15s-5.83398 4.66699 -12.501 6
l-40 7l10 75h289l-10 -76l-65 -8c-7.33301 -0.666992 -12 -2.16699 -14 -4.5s-3.66699 -7.16602 -5 -14.499l-72 -518c-1.33301 -8 -1.33301 -13 0 -15s5.66602 -3.66699 12.999 -5l63 -8l-11 -75h-378z" />
    <glyph glyph-name="afii10042" unicode="&#x428;" horiz-adv-x="1058" 
d="M448 106l72 514.998c1.33301 7.33301 1.16602 12.333 -0.500977 15s-6.16699 4.66699 -13.5 6l-45 7l10 75h278l-11 -75l-48 -7c-7.33301 -1.33301 -12 -3.33301 -14 -6s-3.66699 -7.66699 -5 -15l-71 -515h187l71 514c1.33301 8 1.16602 13.333 -0.500977 16
s-6.16699 4.66699 -13.5 6l-43 7l11 75h292l-11 -75l-64 -7c-7.33301 -1.33301 -12 -3.16602 -14 -5.49902s-3.66699 -7.16602 -5 -14.499l-72 -518c-1.33301 -5.33301 -1.16602 -9.5 0.500977 -12.5s6.16699 -5.16699 13.5 -6.5l65 -8l-11 -77h-993l11 77l68 8
c7.33301 1.33301 12 3 14 5s3.66699 6.66699 5 14l71 517c1.33301 8 1.33301 13 0 15s-5.66602 3.66699 -12.999 5l-66 8l11 75h294l-11 -75l-43 -7c-7.33301 -1.33301 -12 -3.33301 -14 -6s-3.66699 -7.66699 -5 -15l-72 -515h185z" />
    <glyph glyph-name="afii10043" unicode="&#x429;" horiz-adv-x="1058" 
d="M13 0l11.001 76.998l68 8c7.33301 1.33301 12 3 14 5s3.66699 6.66699 5 14l71 517c1.33301 8 1.33301 13 0 15s-5.66602 3.66699 -12.999 5l-66 8l11 75h294l-11 -75l-43 -7c-7.33301 -1.33301 -12 -3.33301 -14 -6s-3.66699 -7.66699 -5 -15l-72 -515h184l71 514
c1.33301 8 1.16602 13.333 -0.500977 16s-6.16699 4.66699 -13.5 6l-45 7l11 75h278l-11 -75l-48 -7c-7.33301 -1.33301 -12 -3.5 -14 -6.5s-3.66699 -8.16699 -5 -15.5l-72 -514h186l71 513c1.33301 8 1.16602 13.333 -0.500977 16s-6.16699 4.66699 -13.5 6l-43 8l11 75
h292l-11 -75l-64 -7c-7.33301 -1.33301 -12 -3.16602 -14 -5.49902s-3.66699 -7.16602 -5 -14.499l-71 -514h75l-35 -264l-108 7l-3 135c0 9.33301 -4.33301 14 -13 14h-839z" />
    <glyph glyph-name="afii10044" unicode="&#x42a;" horiz-adv-x="806" 
d="M482 107c19.333 0 37.668 2.16895 55.001 6.50195s32.666 11.666 45.999 21.999s23.833 24 31.5 41s11.5 37.833 11.5 62.5c0 35.333 -9.5 59.666 -28.5 72.999s-44.833 20 -77.5 20h-75l-32 -225h69zM248.002 618.002c-5.33301 0 -9.33691 -0.665039 -12.0039 -1.99805
s-4.66699 -4.66602 -6 -9.99902l-29 -87l-109 -5l29 210h490l-11 -78l-96 -8c-7.33301 -0.666992 -12.166 -2.16699 -14.499 -4.5s-4.16602 -7.16602 -5.49902 -14.499l-25 -185h104c40 0 74.167 -4.33301 102.5 -13s51.333 -20.834 69 -36.501s30.667 -34.667 39 -57
s12.5 -47.5 12.5 -75.5c0 -43.333 -7.33301 -80.833 -22 -112.5s-35.167 -57.834 -61.5 -78.501s-57.666 -36 -93.999 -46s-76.166 -15 -119.499 -15h-323l11 75l65 7c7.33301 1.33301 12 3.16602 14 5.49902s3.66699 7.16602 5 14.499l71 516h-84z" />
    <glyph glyph-name="afii10045" unicode="&#x42b;" horiz-adv-x="993" 
d="M308 434l103.998 -0.000976562c39.333 0 72.833 -4.5 100.5 -13.5s50.334 -21.5 68.001 -37.5s30.667 -35.5 39 -58.5s12.5 -48.5 12.5 -76.5c0 -42.667 -7.16699 -79.5 -21.5 -110.5s-34.5 -56.667 -60.5 -77s-57.167 -35.5 -93.5 -45.5s-76.166 -15 -119.499 -15h-321
l11 76l68 8c6.66699 0.666992 10.667 2.16699 12 4.5s2.33301 6.16602 3 11.499l72 523c2 10.667 -2.33301 16.334 -13 17.001l-69 7l11 77h349l-10 -76l-97 -9c-7.33301 -0.666992 -12 -2.16699 -14 -4.5s-3.66699 -7.16602 -5 -14.499zM327.998 107.999
c19.333 0 37.668 2.16699 55.001 6.5s32.666 11.5 45.999 21.5s23.833 23.5 31.5 40.5s11.5 38.167 11.5 63.5c0 35.333 -10.833 59.5 -32.5 72.5s-52.5 19.5 -92.5 19.5h-53l-31 -224h65zM622 -0.000976562l8.00098 72.998l73 7
c7.33301 0.666992 11.833 2.33398 13.5 5.00098s3.16699 7.66699 4.5 15l74 522c1.33301 7.33301 1.16602 12.333 -0.500977 15s-6.16699 4.33398 -13.5 5.00098l-70 7l10 75h330l-11 -75l-76 -8c-7.33301 -1.33301 -11.833 -3 -13.5 -5s-3.16699 -6.66699 -4.5 -14
l-73 -521c-1.33301 -8 -1.5 -13 -0.5 -15s5.16699 -3.66699 12.5 -5l75 -8l-9 -73h-329z" />
    <glyph glyph-name="afii10046" unicode="&#x42c;" horiz-adv-x="653" 
d="M328 108c19.333 0 37.667 2.16699 55 6.5s32.666 11.5 45.999 21.5s23.833 23.5 31.5 40.5s11.5 38.167 11.5 63.5c0 32 -9.66699 55.333 -29 70s-46.666 22 -81.999 22h-67l-31 -224h65zM308.001 434l103.998 -0.00292969c39.333 0 72.833 -4.5 100.5 -13.5
s50.334 -21.5 68.001 -37.5s30.667 -35.5 39 -58.5s12.5 -48.5 12.5 -76.5c0 -42.667 -7.16699 -79.5 -21.5 -110.5s-34.5 -56.667 -60.5 -77s-57.167 -35.5 -93.5 -45.5s-76.166 -15 -119.499 -15h-321l11 76l64 7c7.33301 0.666992 12 2.33398 14 5.00098
s3.66699 7.66699 5 15l72 520c2 10.667 -2.33301 16.334 -13 17.001l-69 7l11 77h349l-10 -76l-97 -9c-7.33301 -0.666992 -12 -2.16699 -14 -4.5s-3.66699 -7.16602 -5 -14.499z" />
    <glyph glyph-name="afii10047" unicode="&#x42d;" horiz-adv-x="703" 
d="M145 683c15.333 8 33.165 15.3301 53.498 21.9971s41.5 12.334 63.5 17.001s44.5 8.33398 67.5 11.001s44.833 4 65.5 4c56 0 103.333 -8.16699 142 -24.5s70.334 -38.833 95.001 -67.5s42.5 -62.167 53.5 -100.5s16.5 -79.5 16.5 -123.5
c0 -62.667 -9.16699 -120.5 -27.5 -173.5s-45.166 -98.833 -80.499 -137.5s-78.833 -68.667 -130.5 -90s-110.834 -32 -177.501 -32c-22 0 -44.5 1.33301 -67.5 4s-45 6.33398 -66 11.001s-40.333 10.334 -58 17.001s-32.5 14 -44.5 22l26 191l109 -1l4 -95
c0 -6.66699 1.33301 -11.334 4 -14.001s7.66699 -5.33398 15 -8.00098c10.667 -3.33301 24 -6 40 -8s29.667 -3 41 -3c63.333 0 115.333 18.833 156 56.5s68.334 87.167 83.001 148.5h-269l15 112h268c1.33301 66.667 -13 116.834 -43 150.501s-73.333 50.5 -130 50.5
c-14 0 -29.833 -0.5 -47.5 -1.5s-33.167 -3.5 -46.5 -7.5c-9.33301 -2 -15 -5.16699 -17 -9.5s-3.66699 -8.83301 -5 -13.5l-28 -88l-106 -6z" />
    <glyph glyph-name="afii10048" unicode="&#x42e;" horiz-adv-x="1076" 
d="M698 -12c-52 0 -96.165 8.83008 -132.498 26.4971s-65.333 41.334 -87 71.001s-36.5 63.667 -44.5 102s-10.333 78.5 -7 120.5h-137l-28 -207c-1.33301 -8 -1.5 -13 -0.5 -15s5.16699 -3.66699 12.5 -5l75 -8l-9 -73h-330l8 73l73 7
c7.33301 0.666992 11.833 2.33398 13.5 5.00098s3.16699 7.66699 4.5 15l74 522c1.33301 7.33301 1.33301 12.333 0 15s-5.66602 4.33398 -12.999 5.00098l-70 7l10 75h329l-10 -75l-76 -8c-7.33301 -1.33301 -11.833 -3 -13.5 -5s-3.16699 -6.66699 -4.5 -14l-29 -202h135
c10 46.667 25.167 89.5 45.5 128.5s46 72.5 77 100.5s67.167 49.667 108.5 65s87.666 23 138.999 23c49.333 0 91 -7.5 125 -22.5s61.667 -35.667 83 -62s36.666 -57.5 45.999 -93.5s14 -75 14 -117c0 -60.667 -7.33301 -118.5 -22 -173.5s-37.334 -103.167 -68.001 -144.5
s-70 -74.333 -118 -99s-105.667 -37 -173 -37zM720.002 109.997c37.333 0 68.6689 10.498 94.002 31.498s45.833 47.833 61.5 80.5s27 69 34 109s10.5 79.333 10.5 118c0 20.667 -1.66699 40.834 -5 60.501s-9.66602 37.334 -18.999 53.001s-22.166 28.167 -38.499 37.5
s-37.5 14 -63.5 14c-36.667 0 -68.334 -9.83301 -95.001 -29.5s-48.334 -45.167 -65.001 -76.5s-29 -67 -37 -107s-12 -80.333 -12 -121c0 -24 2.16699 -46.5 6.5 -67.5s11.666 -39 21.999 -54s24.166 -26.833 41.499 -35.5s39 -13 65 -13z" />
    <glyph glyph-name="afii10049" unicode="&#x42f;" horiz-adv-x="732" 
d="M11 0l11 76.001l71 12c8 1.33301 13.5 3.5 16.5 6.5s6.16699 7.5 9.5 13.5l76 133c12 21.333 25.333 39.833 40 55.5s34.667 27.834 60 36.501v1c-18 5.33301 -35 12.666 -51 21.999s-30 21.166 -42 35.499s-21.5 31.166 -28.5 50.499s-10.5 41 -10.5 65
c0 38.667 7.33301 71.5 22 98.5s34.167 49 58.5 66s52.166 29.667 83.499 38s63.333 12.833 96 13.5c8 0.666992 16 1 24 1h24h313l-11 -76l-67 -7c-6 -0.666992 -9.83301 -2.83398 -11.5 -6.50098s-3.16699 -8.16699 -4.5 -13.5l-72 -518
c-1.33301 -8 -1.16602 -13.167 0.500977 -15.5s6.16699 -3.83301 13.5 -4.5l62 -7l-11 -76h-302l11 76l59 8c6 1.33301 10 3.33301 12 6s3.66699 7.33398 5 14.001l25 188h-55c-21.333 0 -37 -3.66699 -47 -11s-20.333 -19.666 -31 -36.999
c-19.333 -32 -40.333 -69 -63 -111s-45 -86.333 -67 -133h-219zM507 395.001l30.999 219.999h-81c-39.333 0 -71.666 -9.16699 -96.999 -27.5s-38 -48.166 -38 -89.499c0 -20 3.33301 -36.667 10 -50s15.5 -24 26.5 -32s24.167 -13.5 39.5 -16.5s31.333 -4.5 48 -4.5h61z
" />
    <glyph glyph-name="afii10065" unicode="&#x430;" horiz-adv-x="612" 
d="M377 0l11.998 81l-5 1c-30 -30 -58.833 -53.167 -86.5 -69.5s-59.5 -24.5 -95.5 -24.5c-49.333 0 -87 16.333 -113 49s-39 83 -39 151c0 38 4.33301 77.167 13 117.5s22.834 77.166 42.501 110.499s45.667 60.833 78 82.5s71.833 32.5 118.5 32.5
c28.667 0 54.334 -5.16699 77.001 -15.5s42.667 -24.166 60 -41.499l19 47h128c-4.66699 -21.333 -9.16699 -43 -13.5 -65s-8.16602 -44 -11.499 -66l-40 -290c-1.33301 -7.33301 -1.33301 -12 0 -14s5.66602 -3.66699 12.999 -5l47 -7l-11 -74h-193zM416.998 380
c-10.667 9.33301 -23.8281 17.833 -39.4951 25.5s-31.834 11.5 -48.501 11.5c-24.667 0 -45 -7.83301 -61 -23.5s-28.667 -34.667 -38 -57s-16 -46 -20 -71s-6 -46.833 -6 -65.5c0 -58 19 -87 57 -87c9.33301 0 19.666 2.33301 30.999 7s22.666 10.834 33.999 18.501
s22.666 16.167 33.999 25.5s21.666 18.666 30.999 27.999z" />
    <glyph glyph-name="afii10066" unicode="&#x431;" horiz-adv-x="571" 
d="M266 -12c-41.333 0 -75.832 6.33105 -103.499 18.998s-49.834 30.334 -66.501 53.001s-28.5 49.667 -35.5 81s-10.5 65.333 -10.5 102c0 32.667 2.16699 66.5 6.5 101.5s11.5 68.5 21.5 100.5c9.33301 31.333 22.333 61.166 39 89.499s37.834 54 63.501 77
s56.167 43.167 91.5 60.5s76.333 30.333 123 39c20.667 4 37.167 7.5 49.5 10.5s22 5.66699 29 8s11.833 5 14.5 8s4.66699 6.5 6 10.5l104 4c2 -26 0.833008 -48 -3.5 -66s-12.166 -32.833 -23.499 -44.5s-26.166 -20.667 -44.499 -27s-40.5 -11.166 -66.5 -14.499
c-52 -6.66699 -94.833 -14.334 -128.5 -23.001s-61 -20.167 -82 -34.5s-37.833 -32.666 -50.5 -54.999s-24 -50.5 -34 -84.5l5 -2c21.333 35.333 49.166 62.666 83.499 81.999s73.166 29 116.499 29c63.333 0 110.166 -17.667 140.499 -53s45.5 -83.333 45.5 -144
c0 -41.333 -5.5 -81.666 -16.5 -120.999s-28.167 -74.166 -51.5 -104.499s-53.333 -54.833 -90 -73.5s-80.667 -28 -132 -28zM278.001 92.998c24 0 43.833 7.82812 59.5 23.4951s28 34.834 37 57.501s15.333 46.834 19 72.501s5.5 48.834 5.5 69.501
c0 30.667 -5.83301 53 -17.5 67s-30.167 21 -55.5 21c-24.667 0 -45 -6.83301 -61 -20.5s-28.667 -30.667 -38 -51s-16 -42.666 -20 -66.999s-6 -47.166 -6 -68.499c0 -34 5.83301 -59.833 17.5 -77.5s31.5 -26.5 59.5 -26.5z" />
    <glyph glyph-name="afii10067" unicode="&#x432;" horiz-adv-x="550" 
d="M286 -12c-24 0 -47.6689 0.998047 -71.002 2.99805s-45.333 4.5 -66 7.5s-39.167 6.33301 -55.5 10s-29.5 7.16699 -39.5 10.5l46 339c4.66699 33.333 13.5 61 26.5 83s29.833 39.667 50.5 53s44.834 22.833 72.501 28.5s58.167 8.5 91.5 8.5
c64.667 0 112.834 -10.833 144.501 -32.5s47.5 -52.834 47.5 -93.501c0 -34 -10.167 -62.333 -30.5 -85s-46.5 -38 -78.5 -46v-3c32.667 -3.33301 58.667 -13.666 78 -30.999s29 -42.666 29 -75.999c0 -31.333 -6.83301 -58.166 -20.5 -80.499s-31.667 -40.5 -54 -54.5
s-48.333 -24.333 -78 -31s-60.5 -10 -92.5 -10zM212.998 100.998c4.66699 -2 14.168 -4.00098 28.501 -6.00098s30.166 -3 47.499 -3c27.333 0 49.333 5.83301 66 17.5s25 30.167 25 55.5c0 22.667 -8 36.834 -24 42.501s-35.667 8.5 -59 8.5h-67zM312.999 308.997
c20 0 38 5.33398 54 16.001s24 27.667 24 51c0 19.333 -5.5 32.666 -16.5 39.999s-25.167 11 -42.5 11c-21.333 0 -39.333 -4.5 -54 -13.5s-23.667 -25.167 -27 -48.5l-9 -56h71z" />
    <glyph glyph-name="afii10068" unicode="&#x433;" horiz-adv-x="485" 
d="M277 441c-20.667 0 -38.9971 -2.66699 -54.9971 -8c-5.33301 -1.33301 -8.83301 -3.33301 -10.5 -6s-3.16699 -5.66699 -4.5 -9l-20 -66h-111l19 138c10.667 5.33301 23.834 10.5 39.501 15.5s32.667 9.33301 51 13s37.5 6.66699 57.5 9s39.667 3.5 59 3.5
c26 0 50.167 -2.66699 72.5 -8s41.5 -13.666 57.5 -24.999s28.667 -25.833 38 -43.5s14 -38.5 14 -62.5c0 -28.667 -5 -52.834 -15 -72.501s-23.167 -36 -39.5 -49s-34.5 -23.667 -54.5 -32s-40 -15.5 -60 -21.5c-42.667 -12.667 -73.834 -23.5 -93.501 -32.5
s-29.5 -23.5 -29.5 -43.5c0 -15.333 5.66699 -26.333 17 -33s25.666 -10 42.999 -10c50 0 100.333 20.333 151 61l55 -82c-34 -30 -70.5 -52.333 -109.5 -67s-78.833 -22 -119.5 -22c-61.333 0 -108.666 12.833 -141.999 38.5s-50 61.167 -50 106.5c0 32 6.16699 58 18.5 78
s28.166 36.5 47.499 49.5s40.5 23.333 63.5 31l67.5 21.5c14 4 27.167 8.33301 39.5 13s23.166 10 32.499 16s16.666 13.167 21.999 21.5s8 18.5 8 30.5c0 15.333 -5.16699 27 -15.5 35s-24.833 12 -43.5 12z" />
    <glyph glyph-name="afii10069" unicode="&#x434;" horiz-adv-x="581" 
d="M203 759c78 -9.33301 141.172 -27.5 189.505 -54.5s85.833 -58 112.5 -93s44.5 -71.667 53.5 -110s13.5 -73.833 13.5 -106.5c0 -51.333 -4.83301 -101.5 -14.5 -150.5s-26 -92.5 -49 -130.5s-53.833 -68.5 -92.5 -91.5s-87.334 -34.5 -146.001 -34.5
c-75.333 0 -131.833 19.833 -169.5 59.5s-56.5 91.834 -56.5 156.501c0 41.333 5.33301 80.333 16 117s26.667 68.667 48 96s48 49 80 65s69 24 111 24c26 0 49.667 -4.16699 71 -12.5s41 -20.166 59 -35.499l4 4c-10.667 31.333 -25.834 57.666 -45.501 78.999
s-42.334 39 -68.001 53s-53.334 24.667 -83.001 32s-59.834 12.666 -90.501 15.999zM419.005 365c-11.333 9.33301 -24.835 17.999 -40.502 25.999s-33.167 12 -52.5 12c-22.667 0 -42 -5.83301 -58 -17.5s-29 -27.167 -39 -46.5s-17.167 -41.166 -21.5 -65.499
s-6.5 -49.5 -6.5 -75.5c0 -30 5.83301 -55 17.5 -75s32.834 -30 63.501 -30c42.667 0 74.834 22.5 96.501 67.5s35.167 113.167 40.5 204.5z" />
    <glyph glyph-name="afii10070" unicode="&#x435;" horiz-adv-x="505" 
d="M461 38c-32.667 -15.333 -66.332 -27.502 -100.999 -36.502s-70 -13.5 -106 -13.5c-39.333 0 -72.5 5.5 -99.5 16.5s-49 26 -66 45s-29.167 41.5 -36.5 67.5s-11 54 -11 84c0 52.667 7.83301 99.5 23.5 140.5s37 75.5 64 103.5s58.5 49.333 94.5 64s74.333 22 115 22
c55.333 0 96.5 -11.667 123.5 -35s40.5 -55.666 40.5 -96.999c0 -36 -8.66699 -65.833 -26 -89.5s-40.333 -43.167 -69 -58.5s-61.334 -27 -98.001 -35s-74.667 -14 -114 -18c0.666992 -12.667 2.66699 -25 6 -37s8.83301 -22.5 16.5 -31.5s17.667 -16.167 30 -21.5
s27.833 -8 46.5 -8c18 0 39.167 2.83301 63.5 8.5s51.5 14.834 81.5 27.501zM201.002 294.998c10.667 1.33301 25.332 3.83301 43.999 7.5s37 9 55 16s33.5 15.833 46.5 26.5s19.5 24 19.5 40c0 25.333 -16 38 -48 38c-28 0 -52.667 -11.333 -74 -34
s-35.666 -54 -42.999 -94z" />
    <glyph glyph-name="afii10072" unicode="&#x436;" horiz-adv-x="878" 
d="M554 310l20.9971 0.00292969c8 0 15 0.666992 21 2s11.667 4 17 8s10.666 9.83301 15.999 17.5s11 17.834 17 30.501l33 67c15.333 32 32.5 56 51.5 72s46.5 24 82.5 24c14 0 28 -0.833008 42 -2.5s28 -5.16699 42 -10.5l-23 -92c-10 2 -18.667 3 -26 3
c-11.333 -0.666992 -20.166 -3.66699 -26.499 -9s-12.833 -14.333 -19.5 -27l-32 -62c-8.66699 -16 -18.167 -28.167 -28.5 -36.5s-24.166 -15.166 -41.499 -20.499v-2c12 -6.66699 22.333 -15.167 31 -25.5s16.667 -25.833 24 -46.5l34 -95
c2 -5.33301 4.16699 -9.5 6.5 -12.5s6.83301 -5.16699 13.5 -6.5l61 -9l-11 -77h-190c-9.33301 42 -18.5 76.667 -27.5 104s-18.167 51.666 -27.5 72.999c-6 14 -12.667 24.5 -20 31.5s-18.666 10.5 -33.999 10.5h-19l-29 -219h-151l34 219h-31
c-15.333 0 -27.333 -3.83301 -36 -11.5s-18.667 -20.834 -30 -39.501l-43.5 -72c-15 -25.333 -32.167 -57.333 -51.5 -96h-191l11 78l54 8c7.33301 1.33301 12.166 3.16602 14.499 5.49902s5.16602 6.16602 8.49902 11.499l65 102c12.667 20 25.334 35 38.001 45
s26.667 17.333 42 22v2c-14 6.66699 -25.167 14.167 -33.5 22.5s-15.166 21.166 -20.499 38.499l-19 61c-4 13.333 -9 22.333 -15 27s-13.667 7 -23 7c-8.66699 0 -19 -1 -31 -3l8 92c10.667 3.33301 24.334 6.16602 41.001 8.49902s29.667 3.5 39 3.5
c17.333 0 31.833 -2.33301 43.5 -7s21.334 -10.667 29.001 -18s13.667 -15.666 18 -24.999s8.16602 -19 11.499 -29l25 -77c8.66699 -26.667 17 -44.167 25 -52.5s20.667 -12.5 38 -12.5h27l14 101c2 10 -1.33301 16.333 -10 19l-40 14l13 77h196l3 -4z" />
    <glyph glyph-name="afii10073" unicode="&#x437;" horiz-adv-x="502" 
d="M311 531c36 0 66.165 -3.16602 90.498 -9.49902s43.833 -15.166 58.5 -26.499s25.167 -24.666 31.5 -39.999s9.5 -31.666 9.5 -48.999c0 -34 -10.667 -62 -32 -84s-48 -38.333 -80 -49v-3c12 -2.66699 23.5 -6.5 34.5 -11.5s20.833 -11.833 29.5 -20.5
s15.667 -19.334 21 -32.001s8 -28.334 8 -47.001c0 -28.667 -6.66699 -53.667 -20 -75s-31 -39.166 -53 -53.499s-47.667 -25 -77 -32s-60 -10.5 -92 -10.5c-42.667 0 -83.167 6 -121.5 18s-69.166 28.667 -92.499 50l56 91c6.66699 -4.66699 15.5 -9.83398 26.5 -15.501
s23.5 -11 37.5 -16s29 -9 45 -12s32.333 -4.5 49 -4.5c10.667 0 21.5 1 32.5 3s21 5.33301 30 10s16.333 11 22 19s8.5 18 8.5 30c0 19.333 -6.16699 32.166 -18.5 38.499s-27.166 9.5 -44.499 9.5h-103l13 100h59c38 0 66.333 7 85 21s28 31.333 28 52
c0 18.667 -5.83301 32 -17.5 40s-27.5 12 -47.5 12c-10 0 -20 -0.5 -30 -1.5s-18.333 -2.5 -25 -4.5c-6 -0.666992 -10 -5.33398 -12 -14.001l-20 -57l-109 -3l19 136c22 11.333 51.5 21 88.5 29s74.5 12 112.5 12z" />
    <glyph glyph-name="afii10074" unicode="&#x438;" horiz-adv-x="618" 
d="M380 0l9.99805 79.999l-3 1l-35 -29.5c-12.667 -11 -26.667 -21.167 -42 -30.5s-32 -17.166 -50 -23.499s-37.667 -9.5 -59 -9.5c-43.333 0 -74 10.667 -92 32s-27 52.333 -27 93c0 8.66699 0.333008 17.834 1 27.501s1.66699 19.5 3 29.5l33 242
c1.33301 8 1.33301 13.167 0 15.5s-5.66602 4.16602 -12.999 5.49902l-39 7l12 81h195l7 -7l-44 -318c-1.33301 -8.66699 -2.33301 -16.667 -3 -24s-1 -13.666 -1 -18.999c0 -12.667 2.33301 -21.834 7 -27.501s13 -8.5 25 -8.5c11.333 0 22.833 2.5 34.5 7.5
s23.167 11.333 34.5 19s22 15.5 32 23.5s18.333 15 25 21l31 226c1.33301 8 1.33301 13 0 15s-5.66602 3.66699 -12.999 5l-32 5l13 82h189l7 -8l-59 -411c-1.33301 -6.66699 -1.5 -11.5 -0.5 -14.5s4.83301 -5.16699 11.5 -6.5l50 -7l-10 -74h-198z" />
    <glyph glyph-name="afii10075" unicode="&#x439;" horiz-adv-x="618" 
d="M380 0l9.99805 79.999l-3 1l-35 -29.5c-12.667 -11 -26.667 -21.167 -42 -30.5s-32 -17.166 -50 -23.499s-37.667 -9.5 -59 -9.5c-43.333 0 -74 10.667 -92 32s-27 52.333 -27 93c0 8.66699 0.333008 17.834 1 27.501s1.66699 19.5 3 29.5l33 242
c1.33301 8 1.33301 13.167 0 15.5s-5.66602 4.16602 -12.999 5.49902l-39 7l12 81h195l7 -7l-44 -318c-1.33301 -8.66699 -2.33301 -16.667 -3 -24s-1 -13.666 -1 -18.999c0 -12.667 2.33301 -21.834 7 -27.501s13 -8.5 25 -8.5c11.333 0 22.833 2.5 34.5 7.5
s23.167 11.333 34.5 19s22 15.5 32 23.5s18.333 15 25 21l31 226c1.33301 8 1.33301 13 0 15s-5.66602 3.66699 -12.999 5l-32 5l13 82h189l7 -8l-59 -411c-1.33301 -6.66699 -1.5 -11.5 -0.5 -14.5s4.83301 -5.16699 11.5 -6.5l50 -7l-10 -74h-198zM538.998 708.999
c-16 -48.667 -39.166 -84.166 -69.499 -106.499s-69.833 -33.5 -118.5 -33.5c-52 0 -91.833 12.167 -119.5 36.5s-43.5 58.166 -47.5 101.499l101 30c1.33301 -26.667 7.5 -47 18.5 -61s28.5 -21 52.5 -21c22 0 39.667 6.5 53 19.5s24.666 33.167 33.999 60.5z" />
    <glyph glyph-name="afii10076" unicode="&#x43a;" horiz-adv-x="587" 
d="M256 308h26.0049c16 0 29.667 2.83301 41 8.5s23.333 20.5 36 44.5l45 88c7.33301 14 14.5 26 21.5 36s15 18.333 24 25s19.333 11.667 31 15s25.5 5.33301 41.5 6c13.333 0 26.833 -0.833008 40.5 -2.5s26.834 -4.5 39.501 -8.5l-16 -93c-8.66699 2 -16.334 3 -23.001 3
c-12.667 0 -22.334 -3.16699 -29.001 -9.5s-13.334 -15.833 -20.001 -28.5l-30 -58c-10 -19.333 -20.833 -33.166 -32.5 -41.499s-26.834 -14.833 -45.501 -19.5l-1 -4c11.333 -3.33301 21.666 -9.5 30.999 -18.5s17.666 -23.5 24.999 -43.5l39 -102
c2.66699 -5.33301 5.16699 -9.5 7.5 -12.5s6.5 -5.16699 12.5 -6.5l54 -8l-10 -78h-185c-8 34 -16.667 65.667 -26 95s-17.666 53 -24.999 71c-8 21.333 -16 35.166 -24 41.499s-20 9.5 -36 9.5h-23l-30 -217h-150l59 414c1.33301 5.33301 1.16602 9.33301 -0.500977 12
s-4.5 4.66699 -8.5 6l-46 13l11 76h200l5 -8z" />
    <glyph glyph-name="afii10077" unicode="&#x43b;" horiz-adv-x="636" 
d="M395 0l-5.99805 8.99805l57 405h-122l-21 -113.5c-6.66699 -34.333 -14.667 -68.5 -24 -102.5c-8 -29.333 -17.333 -56.333 -28 -81s-24.167 -46.167 -40.5 -64.5s-36 -33 -59 -44s-50.5 -17.167 -82.5 -18.5c-6.66699 -0.666992 -13.334 -1.16699 -20.001 -1.5
s-13.334 0.166992 -20.001 1.5l-13 117c29.333 0 53 4.33301 71 13s33.333 24.334 46 47.001s23.5 54.167 32.5 94.5s18.833 91.833 29.5 154.5c2 10.667 -1.66699 16.334 -11 17.001l-48 10l12 78h454l6 -9l-57 -415c-1.33301 -5.33301 -1.33301 -9 0 -11s5 -3.33301 11 -4
l50 -9l-11 -73h-206z" />
    <glyph glyph-name="afii10078" unicode="&#x43c;" horiz-adv-x="825" 
d="M594 0l-6.00098 6.99805l50 329h-3l-136 -238h-137l-46 237h-3c-5.33301 -29.333 -10.5 -55.666 -15.5 -78.999s-9.83301 -42.666 -14.5 -57.999c-8.66699 -30.667 -18.167 -58.834 -28.5 -84.501s-23.5 -47.667 -39.5 -66s-36.5 -32.666 -61.5 -42.999
s-56.5 -15.5 -94.5 -15.5h-13.5c-4.33301 0 -9.16602 0.333008 -14.499 1l-13 118c28 0 51.167 4.33301 69.5 13s34 24.834 47 48.501s24.667 56.5 35 98.5s20.833 96.333 31.5 163l-55 12l11 78h236l58 -307h3l167 307h167l7 -8l-58 -416c-2 -8.66699 2 -13.334 12 -14.001
l51 -7l-11 -76h-195z" />
    <glyph glyph-name="afii10079" unicode="&#x43d;" horiz-adv-x="645" 
d="M423 215h-177l-31 -215h-142l-6 8l57 404c2 10 -1.66699 16.667 -11 20l-48 13l10 76h206l6 -9l-27 -191h178l28 200h140l8 -8l-57 -412c-0.666992 -5.33301 -0.166992 -9.5 1.5 -12.5s5.16699 -5.16699 10.5 -6.5l50 -9l-10 -73h-212l-7 9l19 105z" />
    <glyph glyph-name="afii10080" unicode="&#x43e;" horiz-adv-x="578" 
d="M269 -12c-39.333 0 -73.333 5.16699 -102 15.5s-52.334 24.833 -71.001 43.5s-32.5 41.334 -41.5 68.001s-13.5 56 -13.5 88c0 48 6.66699 92.167 20 132.5s32.833 75 58.5 104s57.334 51.5 95.001 67.5s80.834 24 129.501 24c42 0 77.167 -5.66699 105.5 -17
s51.166 -26.5 68.499 -45.5s29.833 -41.333 37.5 -67s11.5 -53.167 11.5 -82.5c0 -48.667 -6.16699 -93.334 -18.5 -134.001s-31 -75.5 -56 -104.5s-56 -51.667 -93 -68s-80.5 -24.5 -130.5 -24.5zM281 93c17.333 0 33.8311 4 49.498 12s29.334 20.833 41.001 38.5
s21 40.667 28 69s10.5 63.166 10.5 104.499c0 38 -7.16699 65.167 -21.5 81.5s-34.833 24.5 -61.5 24.5c-16.667 0 -33 -3.66699 -49 -11s-30.167 -19.5 -42.5 -36.5s-22.166 -39.667 -29.499 -68s-11 -63.166 -11 -104.499c0 -38.667 7.5 -66.667 22.5 -84
s36.167 -26 63.5 -26z" />
    <glyph glyph-name="afii10081" unicode="&#x43f;" horiz-adv-x="620" 
d="M373 0l-1.99609 3.00488l22 122l29 208c3.33301 21.333 3.66602 38.166 0.999023 50.499s-11.667 18.5 -27 18.5c-10.667 0 -21.834 -2.33301 -33.501 -7s-23.334 -10.5 -35.001 -17.5s-22.667 -14.833 -33 -23.5l-28.5 -24l-31 -229c-1.33301 -8 -1.33301 -13 0 -15
s5.66602 -3.66699 12.999 -5l50 -7l-10 -74h-274l10 75l44 6c6.66699 1.33301 11 3.16602 13 5.49902s3.66699 7.16602 5 14.499l42 305c2 11.333 -1 18.333 -9 21l-49 18l11 76h198l-11 -82l3 -1l42 35c14 11.333 28.5 21.166 43.5 29.499s31 15.166 48 20.499
s35.167 8 54.5 8c76 0 115.333 -39.667 118 -119c0 -8 -0.333008 -16.833 -1 -26.5s-1.66699 -19.167 -3 -28.5l-36 -256c-1.33301 -8 -1.5 -13 -0.5 -15s5.16699 -3.66699 12.5 -5l50 -7l-10 -74h-216z" />
    <glyph glyph-name="afii10082" unicode="&#x440;" horiz-adv-x="604" 
d="M29 -212l-2 4l29 167l62 447c2 11.333 -1 18.333 -9 21l-49 18l11 76h200l-12 -80l3 -1c30 28 60.167 50.167 90.5 66.5s61.5 24.5 93.5 24.5c21.333 0 41 -3.66699 59 -11s33.5 -19 46.5 -35s23 -36.667 30 -62s10.5 -56 10.5 -92c0 -34.667 -3.83301 -72 -11.5 -112
s-20.667 -77.167 -39 -111.5s-42.833 -62.833 -73.5 -85.5s-69.334 -34 -116.001 -34c-32.667 0 -59.167 5.16699 -79.5 15.5s-39.833 22.166 -58.5 35.499l-22 -150c-0.666992 -5.33301 -0.166992 -9.16602 1.5 -11.499s5.83398 -3.83301 12.501 -4.5l101 -10l-11 -75h-267
zM229 143c12.667 -10.667 26.999 -19.8311 42.999 -27.498s33.333 -11.5 52 -11.5c20 0 37.167 6.33301 51.5 19s25.833 29 34.5 49s15 41.833 19 65.5s6 46.5 6 68.5c0 30 -3.83301 53.833 -11.5 71.5s-21.167 26.5 -40.5 26.5c-10 0 -20.5 -2.33301 -31.5 -7
s-22.167 -10.834 -33.5 -18.501s-22.166 -15.834 -32.499 -24.501l-29.5 -25z" />
    <glyph glyph-name="afii10083" unicode="&#x441;" horiz-adv-x="502" 
d="M452 37c-24.667 -14 -53.998 -25.668 -87.998 -35.001s-69 -14 -105 -14c-38 0 -70.833 5.33301 -98.5 16s-50.334 25.5 -68.001 44.5s-30.667 42 -39 69s-12.5 56.5 -12.5 88.5c0 55.333 8 103.333 24 144s37.667 74.5 65 101.5s59.666 47 96.999 60s77 19.5 119 19.5
c38 0 71.833 -4.5 101.5 -13.5s51.5 -18.5 65.5 -28.5l-22 -157l-102 5l-3 68c0 7.33301 -2.33301 12 -7 14c-6 2.66699 -13.333 4.5 -22 5.5s-17.667 1.5 -27 1.5c-16.667 0 -33 -3.66699 -49 -11s-30.333 -19 -43 -35s-22.834 -37 -30.501 -63s-11.5 -57.667 -11.5 -95
c0 -46 9.33301 -77.833 28 -95.5s42.334 -26.5 71.001 -26.5c25.333 0 49.5 3.33301 72.5 10s42.833 13.334 59.5 20.001z" />
    <glyph glyph-name="afii10084" unicode="&#x442;" horiz-adv-x="879" 
d="M631 0l-2 3.00098l21 118l31 212c3.33301 22 3.66602 38.5 0.999023 49.5s-10.667 16.5 -24 16.5c-15.333 0 -32.166 -6.83301 -50.499 -20.5s-38.166 -29.834 -59.499 -48.501l-32 -229c-1.33301 -8 -1.5 -13 -0.5 -15s5.16699 -3.66699 12.5 -5l50 -7l-10 -74h-216
l-2 4l22 127l29 202c3.33301 19.333 4.33301 34.833 3 46.5s-9.33301 17.5 -24 17.5c-9.33301 0 -19.333 -2.33301 -30 -7s-21 -10.5 -31 -17.5s-19.667 -14.333 -29 -22s-17.333 -14.5 -24 -20.5l-31 -229c-1.33301 -8 -1.33301 -13 0 -15s5.66602 -3.66699 12.999 -5
l50 -7l-10 -74h-274l10 75l44 6c6.66699 1.33301 11 3.16602 13 5.49902s3.66699 7.16602 5 14.499l42 305c2 11.333 -1 18.333 -9 21l-49 18l11 76h198l-11 -82l3 -1l40 33.5c13.333 11 27.5 20.833 42.5 29.5s30.833 15.834 47.5 21.501s34.334 8.5 53.001 8.5
c28 0 50.5 -7.66699 67.5 -23s26.5 -38 28.5 -68l3 -1c12 10.667 24.833 21.5 38.5 32.5s28 20.833 43 29.5s30.5 15.834 46.5 21.501s33 8.5 51 8.5c36.667 0 63 -9 79 -27s24.667 -45 26 -81c0 -9.33301 -0.5 -19.5 -1.5 -30.5s-2.16699 -22.5 -3.5 -34.5l-36 -257
c-1.33301 -8 -1.33301 -13 0 -15s5.66602 -3.66699 12.999 -5l49 -7l-10 -74h-217z" />
    <glyph glyph-name="afii10085" unicode="&#x443;" horiz-adv-x="575" 
d="M209 3l-112.002 418.001c-2 6 -4.16699 10 -6.5 12s-6.16602 3.66699 -11.499 5l-39 9l12 74h176l10 -11l27 -129l45 -209h5l127 266l-61 9l11 74h185l14 -31l-290 -571c-12.667 -24 -25.5 -44.833 -38.5 -62.5s-27.667 -32.334 -44 -44.001s-34.666 -20.5 -54.999 -26.5
s-43.833 -9 -70.5 -9c-18 0 -35 1.83301 -51 5.5s-30.5 8 -43.5 13s-24 10.5 -33 16.5s-15.833 11 -20.5 15l51 85c10 -6 23.5 -12.333 40.5 -19s33.833 -10 50.5 -10c21.333 0 39.333 6.5 54 19.5s28 29.833 40 50.5z" />
    <glyph glyph-name="afii10086" unicode="&#x444;" horiz-adv-x="812" 
d="M536 526c173.333 -5.33301 260 -76.6631 260 -213.996c0 -58.667 -8.33301 -108.334 -25 -149.001s-40 -74 -70 -100s-65.5 -44.833 -106.5 -56.5s-85.833 -17.834 -134.5 -18.501l-13 -96c-1.33301 -7.33301 -1.16602 -12.333 0.500977 -15
s6.16699 -4.33398 13.5 -5.00098l49 -7l-11 -78h-282l11 79l50 6c8.66699 1.33301 13.667 3.16602 15 5.49902s2.66602 6.83301 3.99902 13.5l14 98c-93.333 6.66699 -160.5 29.334 -201.5 68.001s-61.5 90.667 -61.5 156c0 61.333 10 112.166 30 152.499s46 72.5 78 96.5
s68.167 41 108.5 51s80.833 15 121.5 15l14 108c2 11.333 -1.33301 18.333 -10 21l-51 19l22 79h207zM476 104.003c17.333 0 35.666 2 54.999 6s37.5 12.833 54.5 26.5s31 33.5 42 59.5s16.5 61 16.5 105c0 22.667 -3.16699 41.167 -9.5 55.5s-15 25.833 -26 34.5
s-24.167 14.667 -39.5 18s-31.666 5 -48.999 5zM368 413.003c-18 0 -36.833 -1.99805 -56.5 -5.99805s-37.667 -12.833 -54 -26.5s-29.833 -33.334 -40.5 -59.001s-16 -60.5 -16 -104.5c0 -22.667 3.33301 -41.334 10 -56.001s15.667 -26.5 27 -35.5s24.5 -15.333 39.5 -19
s30.5 -5.5 46.5 -5.5z" />
    <glyph glyph-name="afii10087" unicode="&#x445;" horiz-adv-x="590" 
d="M390 0l-11.002 9.00391l-45 83l-54 92l-91 -102l53 -9l-8 -73h-234l8 72l44 8c6 1.33301 10.833 3.16602 14.5 5.49902s8.16699 6.16602 13.5 11.499l147 161l-101 162c-3.33301 5.33301 -6.16602 9.16602 -8.49902 11.499s-6.16602 4.16602 -11.499 5.49902l-39 9l12 75
h159l10 -8l47 -90l44 -74l87 91l-49 7l13 74h227l-10 -74l-44 -10c-6 -1.33301 -10.833 -3.33301 -14.5 -6s-8.16699 -7 -13.5 -13l-143 -144l109 -175c3.33301 -5.33301 6.5 -9.33301 9.5 -12s7.16699 -4.66699 12.5 -6l51 -8l-12 -73h-172z" />
    <glyph glyph-name="afii10088" unicode="&#x446;" horiz-adv-x="623" 
d="M528 111c-2 -13.333 -1.00195 -22.667 2.99805 -28s13.333 -8 28 -8h40l-28 -216l-105 10l2 121c-28 2.66699 -48.5 11 -61.5 25s-16.833 36 -11.5 66l1 6l-2 1l-36.5 -30.5c-13.667 -11.667 -28.5 -22.667 -44.5 -33s-33.333 -19 -52 -26s-38.667 -10.5 -60 -10.5
c-43.333 0 -74 10.667 -92 32s-27 52.333 -27 93c0 8.66699 0.333008 17.834 1 27.501s1.66699 19.5 3 29.5l33 242c1.33301 8 1.33301 13.167 0 15.5s-5.66602 4.16602 -12.999 5.49902l-39 7l12 81h195l7 -7l-44 -318c-1.33301 -8.66699 -2.33301 -16.667 -3 -24
s-1 -13.666 -1 -18.999c0 -12.667 2.33301 -21.834 7 -27.501s13 -8.5 25 -8.5c11.333 0 22.833 2.5 34.5 7.5s23.167 11.333 34.5 19s22 15.5 32 23.5s18.333 15 25 21l31 226c1.33301 8 1.33301 13 0 15s-5.66602 3.66699 -12.999 5l-32 5l13 82h189l7 -8z" />
    <glyph glyph-name="afii10089" unicode="&#x447;" horiz-adv-x="585" 
d="M193 163c-40.667 0 -69.8291 9.33203 -87.4961 27.999s-26.5 45.667 -26.5 81c0 13.333 1 27.333 3 42l16 107c2 9.33301 -1 15 -9 17l-41 8l11 75h194l6 -7l-25 -184c-3.33301 -20 -2.5 -34.167 2.5 -42.5s15.167 -12.5 30.5 -12.5s32.166 3.83301 50.499 11.5
s39.166 20.167 62.499 37.5l14 95c2 10 -1 16 -9 18l-37 8l11 76h188l6 -7l-58 -414c-0.666992 -5.33301 -0.333984 -9 0.999023 -11s4.66602 -3.33301 9.99902 -4l48 -7l-11 -78h-205l-4 9l33 209l-2 2c-30.667 -17.333 -59.5 -31.166 -86.5 -41.499
s-55.5 -15.5 -85.5 -15.5z" />
    <glyph glyph-name="afii10090" unicode="&#x448;" horiz-adv-x="879" 
d="M275 521l5.99414 -6.99219l-45 -327c-0.666992 -6 -1.5 -12.833 -2.5 -20.5s-1 -14.834 0 -21.501s3.66699 -12.334 8 -17.001s11.5 -7 21.5 -7c14 0 29.833 6.16699 47.5 18.5s38.167 29.166 61.5 50.499l33 226c1.33301 8 1.33301 13.167 0 15.5
s-5.66602 4.16602 -12.999 5.49902l-39 10l11 74h197l5 -8l-47 -326c-1.33301 -5.33301 -2.16602 -11.5 -2.49902 -18.5s-0.5 -12.5 -0.5 -16.5c0 -8 2 -15 6 -21s10.667 -9 20 -9c17.333 0 35.833 7.33301 55.5 22s38.834 30 57.501 46l31 225
c1.33301 8 1.33301 13.167 0 15.5s-5.66602 4.5 -12.999 6.5l-39 10l11 74h195l7 -7l-57 -410c-1.33301 -5.33301 -1.5 -9.83301 -0.5 -13.5s4.16699 -6.16699 9.5 -7.5l51 -10l-10 -73h-199l11 81l-2 1c-14 -12 -28.167 -23.5 -42.5 -34.5s-29.166 -20.833 -44.499 -29.5
s-31.833 -15.667 -49.5 -21s-36.5 -8 -56.5 -8c-27.333 1.33301 -48 10.166 -62 26.499s-21.667 38.166 -23 65.499l-3 1c-12 -10.667 -24.833 -21.5 -38.5 -32.5s-28 -21 -43 -30s-30.833 -16.333 -47.5 -22s-34 -8.5 -52 -8.5c-40 0 -68 9.33301 -84 28
s-24 46.334 -24 83.001c0 9.33301 0.5 19.166 1.5 29.499s2.16699 21.166 3.5 32.499l36 254c1.33301 8 1.33301 13.167 0 15.5s-5.66602 4.16602 -12.999 5.49902l-49 10l10 74h206z" />
    <glyph glyph-name="afii10091" unicode="&#x449;" horiz-adv-x="881" 
d="M657 88c-14 -12 -28.5059 -23.8252 -43.5059 -35.4922s-30.833 -22.167 -47.5 -31.5s-34 -17 -52 -23s-37 -9 -57 -9c-27.333 1.33301 -48 10.166 -62 26.499s-21.667 38.166 -23 65.499l-3 1c-12 -10.667 -24.833 -21.5 -38.5 -32.5s-28 -21 -43 -30
s-30.833 -16.333 -47.5 -22s-34 -8.5 -52 -8.5c-40 0 -68 9.33301 -84 28s-24 46.334 -24 83.001c0 9.33301 0.5 19.166 1.5 29.499s2.16699 21.166 3.5 32.499l36 254c1.33301 8 1.33301 13.167 0 15.5s-5.66602 4.16602 -12.999 5.49902l-49 10l10 74h206l6 -7l-45 -327
c-0.666992 -6 -1.5 -12.833 -2.5 -20.5s-1 -14.834 0 -21.501s3.66699 -12.334 8 -17.001s11.5 -7 21.5 -7c14 0 29.833 6.16699 47.5 18.5s38.167 29.166 61.5 50.499l33 226c1.33301 8 1.33301 13.167 0 15.5s-5.66602 4.16602 -12.999 5.49902l-39 10l11 74h197l5 -8
l-47 -326c-1.33301 -5.33301 -2.16602 -11.5 -2.49902 -18.5s-0.5 -12.5 -0.5 -16.5c0 -8 2 -15 6 -21s10.667 -9 20 -9c17.333 0 35.833 7.33301 55.5 22s38.834 30 57.501 46l31 225c1.33301 8 1.33301 13.167 0 15.5s-5.66602 4.5 -12.999 6.5l-39 10l11 74h195l7 -7
l-56 -403l-1 -7c-1.33301 -11.333 0.333984 -19 5.00098 -23s13.667 -6 27 -6h40l-28 -216l-105 10l2 121c-28 2.66699 -48.5 11 -61.5 25s-16.833 36 -11.5 66l1 6z" />
    <glyph glyph-name="afii10092" unicode="&#x44a;" horiz-adv-x="629" 
d="M456 331c52 0 92 -12.667 120 -38s42 -61 42 -107c0 -36 -7.33301 -66.667 -22 -92s-34 -45.833 -58 -61.5s-51.333 -27 -82 -34s-62.334 -10.5 -95.001 -10.5c-38.667 0 -74.834 3 -108.501 9s-59.167 11.667 -76.5 17l55 400h-49c-7.33301 0 -12.333 -3.66699 -15 -11
l-19 -62l-107 -6l26 186h324l5 -9l-28 -192c10.667 2.66699 23.834 5.16699 39.501 7.5s31.834 3.5 48.501 3.5zM337 95c5.33301 -1.33301 12.668 -2.66699 22.001 -4s18.333 -2 27 -2c24 0 44 7 60 21s24 36 24 66c0 23.333 -6.83301 39.333 -20.5 48
s-29.834 13 -48.501 13c-18 0 -33 -1.66699 -45 -5z" />
    <glyph glyph-name="afii10093" unicode="&#x44b;" horiz-adv-x="805" 
d="M346 331c52 0 92 -12.834 120 -38.501s42 -61.5 42 -107.5c0 -36 -7 -66.5 -21 -91.5s-32.833 -45.333 -56.5 -61s-50.5 -27 -80.5 -34s-61 -10.5 -93 -10.5c-42 0 -79.833 3 -113.5 9s-59.167 11.667 -76.5 17l54 394c1.33301 6.66699 1 11.334 -1 14.001
s-5 4.66699 -9 6l-48 16l10 77h211l4 -5l-29 -196l39 7c15.333 2.66699 31.333 4 48 4zM228 94.999c5.33301 -1.33301 12.499 -2.66699 21.499 -4s17.833 -2 26.5 -2c24 0 44 6.83301 60 20.5s24 35.167 24 64.5c0 21.333 -6.16699 37 -18.5 47s-26.166 15 -41.499 15
c-9.33301 0 -18 -0.5 -26 -1.5s-17 -2.83301 -27 -5.5zM553.999 -0.00195312l-2.00098 5l24 135l37 267c2 11.333 -1.33301 18.333 -10 21l-49 17l10 76h213l-59 -420c-1.33301 -8 -1.16602 -13 0.500977 -15s6.16699 -3.66699 13.5 -5l48 -7l-10 -74h-216z" />
    <glyph glyph-name="afii10094" unicode="&#x44c;" horiz-adv-x="524" 
d="M350 331c52 0 92.166 -12.6689 120.499 -38.002s42.5 -61 42.5 -107c0 -36 -6.83301 -66.667 -20.5 -92s-32 -45.833 -55 -61.5s-49.833 -27 -80.5 -34s-63 -10.5 -97 -10.5c-19.333 0 -38.666 0.833008 -57.999 2.5s-37.5 3.83398 -54.5 6.50098s-32.5 5.5 -46.5 8.5
s-25.333 5.83301 -34 8.5l54 394c1.33301 6.66699 1 11.334 -1 14.001s-5 4.66699 -9 6l-48 16l10 77h211l4 -5l-29 -196c10.667 2 24.5 4.33301 41.5 7s33.5 4 49.5 4zM227.999 94.998c5.33301 -1.33301 13.332 -2.66699 23.999 -4s20.334 -2 29.001 -2
c24 0 43.833 7 59.5 21s23.5 36 23.5 66c0 23.333 -6.83301 39.333 -20.5 48s-29.5 13 -47.5 13c-9.33301 0 -18.333 -0.5 -27 -1.5s-15.667 -2.16699 -21 -3.5z" />
    <glyph glyph-name="afii10095" unicode="&#x44d;" horiz-adv-x="559" 
d="M399 311c0.666992 40 -9.66602 69.666 -30.999 88.999s-49.333 29 -84 29c-13.333 0 -25.666 -0.833008 -36.999 -2.5s-21 -4.16699 -29 -7.5c-5.33301 -1.33301 -8.5 -3.16602 -9.5 -5.49902l-3.5 -8.5l-20 -64l-105 -6l21 158
c11.333 4.66699 24.666 9.33398 39.999 14.001s32.166 8.66699 50.499 12s37.333 6.16602 57 8.49902s39.5 3.5 59.5 3.5c81.333 0 141.5 -21 180.5 -63s58.5 -98.333 58.5 -169c0 -44.667 -7.16699 -86 -21.5 -124s-34.833 -70.833 -61.5 -98.5s-59 -49.334 -97 -65.001
s-81 -23.5 -129 -23.5c-43.333 0 -83 5.66699 -119 17s-65.333 25 -88 41l47 98c6 -4 14.333 -8.66699 25 -14s22.5 -10.166 35.5 -14.499s27 -8 42 -11s30.5 -4.5 46.5 -4.5c38 0 70.167 9.33301 96.5 28s45.833 45.667 58.5 81h-170l14 102h173z" />
    <glyph glyph-name="afii10096" unicode="&#x44e;" horiz-adv-x="827" 
d="M63 0c-0.666992 0.666992 -1.00195 1.33301 -1.00195 2s-0.333008 1.33398 -1 2.00098l61 403c2 11.333 -1.33301 18.666 -10 21.999l-50 16l10 76h213l-31 -211h76c15.333 68.667 45.833 122.667 91.5 162s106.167 59 181.5 59c38.667 0 71.334 -5.5 98.001 -16.5
s48.334 -26.333 65.001 -46s28.667 -42.667 36 -69s11 -54.5 11 -84.5c0 -48 -6 -92.167 -18 -132.5s-29.5 -74.833 -52.5 -103.5s-51.667 -51 -86 -67s-73.5 -24 -117.5 -24c-72 0 -126.5 18.5 -163.5 55.5s-55.833 91.833 -56.5 164.5h-80l-31 -208h-145zM544.998 92.999
c22 0 40.3301 6.99902 54.9971 20.999s26.334 32 35.001 54s14.834 46 18.501 72s5.5 51 5.5 75c0 12 -0.666992 24.333 -2 37s-4.33301 24.167 -9 34.5s-11.5 19 -20.5 26s-21.167 10.5 -36.5 10.5c-23.333 0 -42.5 -7.33301 -57.5 -22s-27 -33 -36 -55
s-15.167 -45.667 -18.5 -71s-5 -48.333 -5 -69c0 -12 0.666992 -24.5 2 -37.5s4.33301 -25.167 9 -36.5s11.834 -20.666 21.501 -27.999s22.5 -11 38.5 -11z" />
    <glyph glyph-name="afii10097" unicode="&#x44f;" horiz-adv-x="606" 
d="M421 419c-8.66699 3.33301 -19 5.83203 -31 7.49902s-23.667 2.5 -35 2.5c-24 0 -44.167 -5.16699 -60.5 -15.5s-24.5 -28.166 -24.5 -53.499c0 -22 7.5 -37.833 22.5 -47.5s34.167 -14.5 57.5 -14.5h54zM19 74.999l47.001 8.00391c7.33301 1.33301 12.666 3 15.999 5
s7 6.66699 11 14l47 75c10.667 17.333 21 31 31 41s24.667 17.667 44 23v3c-12 3.33301 -23.833 8.16602 -35.5 14.499s-21.834 14.166 -30.501 23.499s-15.667 20.833 -21 34.5s-8 29.5 -8 47.5c0 31.333 6.33301 57.5 19 78.5s30 38.167 52 51.5s48.167 22.833 78.5 28.5
s62.833 8.5 97.5 8.5c15.333 0 32.833 -0.833008 52.5 -2.5s39.334 -4 59.001 -7s38.334 -6.83301 56.001 -11.5s32.167 -10 43.5 -16l-54 -399c-1.33301 -5.33301 -1.33301 -8.83301 0 -10.5s4.66602 -2.83398 9.99902 -3.50098l47 -5l-10 -76h-201l-6 8l28 196h-56
c-12 0 -21.833 -3.33301 -29.5 -10s-15.167 -16.334 -22.5 -29.001c-14 -24 -28.333 -50 -43 -78s-28.667 -57 -42 -87h-190z" />
    <glyph glyph-name="afii10071" unicode="&#x451;" horiz-adv-x="505" 
d="M461 38c-32.667 -15.333 -66.332 -27.502 -100.999 -36.502s-70 -13.5 -106 -13.5c-39.333 0 -72.5 5.5 -99.5 16.5s-49 26 -66 45s-29.167 41.5 -36.5 67.5s-11 54 -11 84c0 52.667 7.83301 99.5 23.5 140.5s37 75.5 64 103.5s58.5 49.333 94.5 64s74.333 22 115 22
c55.333 0 96.5 -11.667 123.5 -35s40.5 -55.666 40.5 -96.999c0 -36 -8.66699 -65.833 -26 -89.5s-40.333 -43.167 -69 -58.5s-61.334 -27 -98.001 -35s-74.667 -14 -114 -18c0.666992 -12.667 2.66699 -25 6 -37s8.83301 -22.5 16.5 -31.5s17.667 -16.167 30 -21.5
s27.833 -8 46.5 -8c18 0 39.167 2.83301 63.5 8.5s51.5 14.834 81.5 27.501zM201.002 294.998c10.667 1.33301 25.332 3.83301 43.999 7.5s37 9 55 16s33.5 15.833 46.5 26.5s19.5 24 19.5 40c0 25.333 -16 38 -48 38c-28 0 -52.667 -11.333 -74 -34
s-35.666 -54 -42.999 -94zM311 673.998c0 -23.333 -7.66895 -42.167 -23.002 -56.5s-34.666 -21.5 -57.999 -21.5c-19.333 0 -34.666 5.66699 -45.999 17s-17 26.333 -17 45c0 23.333 7.83301 42 23.5 56s35.167 21 58.5 21c20 0 35.333 -5.5 46 -16.5s16 -25.833 16 -44.5z
M518.998 673.997c0 -23.333 -7.66895 -42.167 -23.002 -56.5s-34.666 -21.5 -57.999 -21.5c-19.333 0 -34.666 5.66699 -45.999 17s-17 26.333 -17 45c0 23.333 7.83301 42 23.5 56s35.167 21 58.5 21c20 0 35.333 -5.5 46 -16.5s16 -25.833 16 -44.5z" />
    <glyph glyph-name="afii10099" unicode="&#x452;" horiz-adv-x="604" 
d="M266 -101c24.667 0 47.502 8.66699 68.502 26s39 42.333 54 75s26.833 72.667 35.5 120s13 101 13 161c0 34.667 -4.33301 58.334 -13 71.001s-21.334 19 -38.001 19c-11.333 0 -23 -2 -35 -6s-23.667 -8.83301 -35 -14.5s-22 -12 -32 -19s-18.667 -13.5 -26 -19.5
l-29 -210c-1.33301 -7.33301 -1.33301 -12.333 0 -15s5.66602 -4.66699 12.999 -6l45 -7l-10 -74h-269l11 75l44 6c6.66699 1.33301 11 3.16602 13 5.49902s3.66699 7.16602 5 14.499l62 442h-61l11 77h61l3 23c0.666992 10 -2.66602 16.333 -9.99902 19l-50 17l12 76h205
l-19 -135h164l-11 -77h-164l-18 -121l3 -2c23.333 18.667 49.5 36.167 78.5 52.5s61.167 24.5 96.5 24.5c25.333 0 46.666 -4.83301 63.999 -14.5s31.5 -23.5 42.5 -41.5s19 -39.5 24 -64.5s7.5 -52.833 7.5 -83.5c0 -37.333 -2 -75.833 -6 -115.5s-10.667 -78.667 -20 -117
s-21.666 -74.5 -36.999 -108.5s-34.333 -64 -57 -90s-49.5 -46.5 -80.5 -61.5s-66.5 -22.5 -106.5 -22.5c-19.333 0 -39.833 2.16699 -61.5 6.5s-38.5 9.83301 -50.5 16.5l40 110c8 -3.33301 17.167 -6.16602 27.5 -8.49902s22.166 -3.5 35.499 -3.5z" />
    <glyph glyph-name="afii10100" unicode="&#x453;" horiz-adv-x="485" 
d="M455 697l-77 85l-164 -163l55 -58zM277 441c-20.667 0 -38.9971 -2.66699 -54.9971 -8c-5.33301 -1.33301 -8.83301 -3.33301 -10.5 -6s-3.16699 -5.66699 -4.5 -9l-20 -66h-111l19 138c10.667 5.33301 23.834 10.5 39.501 15.5s32.667 9.33301 51 13
s37.5 6.66699 57.5 9s39.667 3.5 59 3.5c26 0 50.167 -2.66699 72.5 -8s41.5 -13.666 57.5 -24.999s28.667 -25.833 38 -43.5s14 -38.5 14 -62.5c0 -28.667 -5 -52.834 -15 -72.501s-23.167 -36 -39.5 -49s-34.5 -23.667 -54.5 -32s-40 -15.5 -60 -21.5
c-42.667 -12.667 -73.834 -23.5 -93.501 -32.5s-29.5 -23.5 -29.5 -43.5c0 -15.333 5.66699 -26.333 17 -33s25.666 -10 42.999 -10c50 0 100.333 20.333 151 61l55 -82c-34 -30 -70.5 -52.333 -109.5 -67s-78.833 -22 -119.5 -22c-61.333 0 -108.666 12.833 -141.999 38.5
s-50 61.167 -50 106.5c0 32 6.16699 58 18.5 78s28.166 36.5 47.499 49.5s40.5 23.333 63.5 31l67.5 21.5c14 4 27.167 8.33301 39.5 13s23.166 10 32.499 16s16.666 13.167 21.999 21.5s8 18.5 8 30.5c0 15.333 -5.16699 27 -15.5 35s-24.833 12 -43.5 12z" />
    <glyph glyph-name="afii10101" unicode="&#x454;" horiz-adv-x="541" 
d="M497 41c-30.667 -18.667 -64.9961 -32.167 -102.996 -40.5s-75 -12.5 -111 -12.5c-42.667 0 -79.334 5.5 -110.001 16.5s-55.834 26.667 -75.501 47s-34 44.5 -43 72.5s-13.5 59 -13.5 93c0 50 7.66699 94.5 23 133.5s37.166 71.833 65.499 98.5s62.666 47 102.999 61
s85.5 21 135.5 21c36 0 70.833 -4 104.5 -12s59.5 -16.667 77.5 -26l-22 -160l-104 9l-2 64c0 4 -0.5 7.33301 -1.5 10s-3.5 4.66699 -7.5 6c-5.33301 2 -12.833 3.33301 -22.5 4s-20.5 1 -32.5 1c-35.333 0 -66.833 -9.33301 -94.5 -28s-46.5 -47.334 -56.5 -86.001h165
l-14 -102h-165c2.66699 -40 14.667 -68.5 36 -85.5s50.333 -25.5 87 -25.5c33.333 0 63 4.33301 89 13s46.667 17.334 62 26.001z" />
    <glyph glyph-name="afii10102" unicode="&#x455;" horiz-adv-x="478" 
d="M353 363l-2.00195 52.001c0 4 -0.666992 7.33301 -2 10s-4.66602 4.66699 -9.99902 6c-13.333 3.33301 -32 5 -56 5c-21.333 0 -39.166 -3.66699 -53.499 -11s-21.5 -19.666 -21.5 -36.999c0 -16 7.66699 -28 23 -36s34 -15.667 56 -23c18 -6 36.5 -12.667 55.5 -20
s36.5 -16.833 52.5 -28.5s29.167 -26.167 39.5 -43.5s15.5 -39.333 15.5 -66c0 -32.667 -6.33301 -60.5 -19 -83.5s-29.834 -41.833 -51.501 -56.5s-46.834 -25.5 -75.501 -32.5s-59 -10.5 -91 -10.5c-23.333 0 -45.666 1.33301 -66.999 4s-40.5 5.66699 -57.5 9
s-31.333 7.16602 -43 11.499s-19.5 7.83301 -23.5 10.5l19 145l102 -6l3 -58c0 -8 3.66699 -13.333 11 -16s16.833 -4.83398 28.5 -6.50098s25.834 -2.5 42.501 -2.5c28 0 49.333 4.83301 64 14.5s22 23.167 22 40.5c0 20 -8.5 33.833 -25.5 41.5
s-39.833 15.834 -68.5 24.501c-18 5.33301 -36 11.5 -54 18.5s-34 16.333 -48 28s-25.5 26.167 -34.5 43.5s-13.5 39 -13.5 65c0 30.667 6.16699 57.167 18.5 79.5s29 40.666 50 54.999s45.5 24.833 73.5 31.5s57.333 10 88 10c19.333 0 38.333 -1 57 -3
s35.667 -4.5 51 -7.5s29 -6.16699 41 -9.5s21.333 -6.33301 28 -9l-20 -145z" />
    <glyph glyph-name="afii10103" unicode="&#x456;" horiz-adv-x="318" 
d="M210 601c-24.667 0 -43.668 6.66797 -57.001 20.001s-20 31.666 -20 54.999c0 32 9 57.167 27 75.5s43.333 27.5 76 27.5c24.667 0 43.834 -6.33301 57.501 -19s20.5 -31 20.5 -55c0 -32 -9.16699 -57.333 -27.5 -76s-43.833 -28 -76.5 -28zM63.999 0.000976562
l-2.00098 5l24 135l37 267c2 11.333 -1.33301 18.333 -10 21l-49 17l10 76h213l-59 -420c-1.33301 -8 -1.16602 -13 0.500977 -15s6.16699 -3.66699 13.5 -5l48 -7l-10 -74h-216z" />
    <glyph glyph-name="afii10104" unicode="&#x457;" horiz-adv-x="324" 
d="M66 0l-2.99902 5l24 135l38 267c2 11.333 -1.66699 18.333 -11 21l-49 17l11 76h213l-59 -420c-1.33301 -8 -1.33301 -13 0 -15s5.66602 -3.66699 12.999 -5l48 -7l-9 -74h-216zM287.001 596c-19.333 0 -34.667 5.5 -46 16.5s-17 25.5 -17 43.5
c0 23.333 7.66699 42.333 23 57s35 22 59 22c19.333 0 34.5 -5.16699 45.5 -15.5s16.5 -24.833 16.5 -43.5c0 -23.333 -7.5 -42.5 -22.5 -57.5s-34.5 -22.5 -58.5 -22.5zM107 596c-19.333 0 -34.667 5.5 -46 16.5s-17 25.5 -17 43.5c0 23.333 7.66699 42.333 23 57
s35 22 59 22c19.333 0 34.5 -5.16699 45.5 -15.5s16.5 -24.833 16.5 -43.5c0 -23.333 -7.5 -42.5 -22.5 -57.5s-34.5 -22.5 -58.5 -22.5z" />
    <glyph glyph-name="afii10105" unicode="&#x458;" horiz-adv-x="315" 
d="M124 407c0.666992 10.667 -2.66406 17.668 -9.99707 21.001l-51 17l10 76h213l-79 -574c-8.66699 -61.333 -29.334 -105 -62.001 -131s-76.667 -39 -132 -39c-20 0 -38.667 2 -56 6s-32.833 8.66699 -46.5 14s-25 10.833 -34 16.5s-15.5 10.5 -19.5 14.5l51 83
c7.33301 -4.66699 18.666 -10.167 33.999 -16.5s31.666 -9.5 48.999 -9.5c20 0 35.5 5.66699 46.5 17s19.167 34.666 24.5 69.999zM210.002 601.001c-25.333 0 -44.667 6.66797 -58 20.001s-20 31.666 -20 54.999c0 32 9.16699 57.167 27.5 75.5s43.5 27.5 75.5 27.5
c25.333 0 44.833 -6.33301 58.5 -19s20.5 -31 20.5 -55c0 -32 -9.33301 -57.333 -28 -76s-44 -28 -76 -28z" />
    <glyph glyph-name="afii10106" unicode="&#x459;" horiz-adv-x="830" 
d="M592 521l2.99805 -5.99902l-29 -200c10 2 23.5 3.66699 40.5 5s31.167 2 42.5 2c56.667 0 98.667 -12.833 126 -38.5s41 -60.167 41 -103.5c0 -34 -6.66699 -63.167 -20 -87.5s-31.166 -44.333 -53.499 -60s-48.166 -27 -77.499 -34s-60 -10.5 -92 -10.5
c-32.667 0 -66.334 2.33301 -101.001 7s-67 12 -97 22l55 397h-109l-21 -113.5c-6.66699 -34.333 -14.667 -68.5 -24 -102.5c-8 -30.667 -17.833 -58.834 -29.5 -84.501s-26 -47.834 -43 -66.501s-37.333 -33 -61 -43s-52.167 -15 -85.5 -15h-13.5
c-4.33301 0 -9.16602 0.333008 -14.499 1l-13 118c28 0 51 4.16699 69 12.5s33 23.833 45 46.5s22.667 54 32 94s19.333 91.667 30 155c2 10.667 -1.66699 16.334 -11 17.001l-48 10l12 78h447zM535.998 98.001c5.33301 -1.33301 12.667 -2.66699 22 -4s18.666 -2 27.999 -2
c24 0 43.667 6.66699 59 20s23 32 23 56c0 20 -6.16699 35.167 -18.5 45.5s-30.166 15.5 -53.499 15.5c-12.667 0 -26.667 -1.66699 -42 -5z" />
    <glyph glyph-name="afii10107" unicode="&#x45a;" horiz-adv-x="841" 
d="M576 -12c-19.333 0 -38.4961 0.832031 -57.4961 2.49902s-36.833 4 -53.5 7s-31.834 6.16699 -45.501 9.5s-24.834 6.66602 -33.501 9.99902l27 198h-166l-30 -215h-142l-7 8l57 402c2 10 -1.66699 16.667 -11 20l-48 15l11 76h205l6 -9l-27 -191h167l29 200h144l4 -6
l-28 -199c10 2 23.167 3.83301 39.5 5.5s32.166 2.5 47.499 2.5c54 0 94.667 -13.167 122 -39.5s41 -61.166 41 -104.499c0 -34.667 -6.66699 -64.167 -20 -88.5s-31.333 -44.166 -54 -59.499s-49.334 -26.5 -80.001 -33.5s-63 -10.5 -97 -10.5zM547.004 96.999
c5.33301 -1.33301 12.832 -2.66797 22.499 -4.00098s19.167 -2 28.5 -2c24 0 43.5 7.16699 58.5 21.5s22.5 33.833 22.5 58.5c0 21.333 -6 36.5 -18 45.5s-26.667 13.5 -44 13.5c-10.667 0 -20.667 -0.666992 -30 -2s-16.666 -2.66602 -21.999 -3.99902z" />
    <glyph glyph-name="afii10108" unicode="&#x45b;" horiz-adv-x="621" 
d="M228 101c-1.33301 -8 -1.33301 -12.998 0 -14.998s5.66602 -3.66699 12.999 -5l48 -7l-10 -74h-270l10 75l44 6c6.66699 1.33301 11 3.16602 13 5.49902s3.66699 7.16602 5 14.499l61 436h-61l12 83h61l3 21c2 11.333 -1 18.333 -9 21l-50 17l11 76h204l-19 -135h165
l-12 -83h-164l-18 -132l3 -2l43.5 36c13.667 11.333 27.834 21.333 42.501 30s29.834 15.5 45.501 20.5s32.834 7.5 51.501 7.5c43.333 0 73.5 -12.167 90.5 -36.5s25.5 -56.166 25.5 -95.499c0 -14 -1 -28 -3 -42l-33 -222c-1.33301 -8 -1.33301 -13 0 -15
s5.66602 -3.66699 12.999 -5l49 -7l-10 -74h-214l-2 6l46 293c1.33301 8 2.16602 16 2.49902 24s-0.333984 15.333 -2.00098 22s-4.66699 12 -9 16s-11.166 6 -20.499 6c-10.667 0 -21.667 -2.33301 -33 -7s-22.5 -10.334 -33.5 -17.001s-21.667 -14.167 -32 -22.5
s-19.833 -16.5 -28.5 -24.5z" />
    <glyph glyph-name="afii10109" unicode="&#x45c;" horiz-adv-x="587" 
d="M332 561l-55 58l164 163l77 -85zM256 308h26.0049c16 0 29.667 2.83301 41 8.5s23.333 20.5 36 44.5l45 88c7.33301 14 14.5 26 21.5 36s15 18.333 24 25s19.333 11.667 31 15s25.5 5.33301 41.5 6c13.333 0 26.833 -0.833008 40.5 -2.5s26.834 -4.5 39.501 -8.5l-16 -93
c-8.66699 2 -16.334 3 -23.001 3c-12.667 0 -22.334 -3.16699 -29.001 -9.5s-13.334 -15.833 -20.001 -28.5l-30 -58c-10 -19.333 -20.833 -33.166 -32.5 -41.499s-26.834 -14.833 -45.501 -19.5l-1 -4c11.333 -3.33301 21.666 -9.5 30.999 -18.5s17.666 -23.5 24.999 -43.5
l39 -102c2.66699 -5.33301 5.16699 -9.5 7.5 -12.5s6.5 -5.16699 12.5 -6.5l54 -8l-10 -78h-185c-8 34 -16.667 65.667 -26 95s-17.666 53 -24.999 71c-8 21.333 -16 35.166 -24 41.499s-20 9.5 -36 9.5h-23l-30 -217h-150l59 414
c1.33301 5.33301 1.16602 9.33301 -0.500977 12s-4.5 4.66699 -8.5 6l-46 13l11 76h200l5 -8z" />
    <glyph glyph-name="afii10110" unicode="&#x45e;" horiz-adv-x="575" 
d="M209 3l-112.002 418.001c-2 6 -4.16699 10 -6.5 12s-6.16602 3.66699 -11.499 5l-39 9l12 74h176l10 -11l27 -129l45 -209h5l127 266l-61 9l11 74h185l14 -31l-290 -571c-12.667 -24 -25.5 -44.833 -38.5 -62.5s-27.667 -32.334 -44 -44.001s-34.666 -20.5 -54.999 -26.5
s-43.833 -9 -70.5 -9c-18 0 -35 1.83301 -51 5.5s-30.5 8 -43.5 13s-24 10.5 -33 16.5s-15.833 11 -20.5 15l51 85c10 -6 23.5 -12.333 40.5 -19s33.833 -10 50.5 -10c21.333 0 39.333 6.5 54 19.5s28 29.833 40 50.5zM527.998 709.001
c-16 -48.667 -39.166 -84.166 -69.499 -106.499s-69.833 -33.5 -118.5 -33.5c-52 0 -91.833 12.167 -119.5 36.5s-43.5 58.166 -47.5 101.499l101 30c1.33301 -26.667 7.5 -47 18.5 -61s28.5 -21 52.5 -21c22 0 39.667 6.5 53 19.5s24.666 33.167 33.999 60.5z" />
    <glyph glyph-name="afii10193" unicode="&#x45f;" horiz-adv-x="618" 
d="M340 -39l-41 -157l-106 -8l27 152zM380 0l9.99805 79.999l-3 1l-35 -29.5c-12.667 -11 -26.667 -21.167 -42 -30.5s-32 -17.166 -50 -23.499s-37.667 -9.5 -59 -9.5c-43.333 0 -74 10.667 -92 32s-27 52.333 -27 93c0 8.66699 0.333008 17.834 1 27.501
s1.66699 19.5 3 29.5l33 242c1.33301 8 1.33301 13.167 0 15.5s-5.66602 4.16602 -12.999 5.49902l-39 7l12 81h195l7 -7l-44 -318c-1.33301 -8.66699 -2.33301 -16.667 -3 -24s-1 -13.666 -1 -18.999c0 -12.667 2.33301 -21.834 7 -27.501s13 -8.5 25 -8.5
c11.333 0 22.833 2.5 34.5 7.5s23.167 11.333 34.5 19s22 15.5 32 23.5s18.333 15 25 21l31 226c1.33301 8 1.33301 13 0 15s-5.66602 3.66699 -12.999 5l-32 5l13 82h189l7 -8l-59 -411c-1.33301 -6.66699 -1.5 -11.5 -0.5 -14.5s4.83301 -5.16699 11.5 -6.5l50 -7l-10 -74
h-198z" />
    <glyph glyph-name="afii10050" unicode="&#x490;" horiz-adv-x="581" 
d="M343 615l-70.998 -511.997c-1.33301 -7.33301 -1.33301 -12.166 0 -14.499s5.66602 -3.83301 12.999 -4.5l141 -9l-11 -75h-389l11 75l64 7c7.33301 1.33301 11.833 3.16602 13.5 5.49902s3.16699 7.16602 4.5 14.499l73 517
c1.33301 7.33301 1.16602 12.166 -0.500977 14.499s-6.16699 4.16602 -13.5 5.49902l-62 7l11 78h382c9.33301 0 15 4 17 12l29 89l110 8l-31 -218h-291z" />
    <glyph glyph-name="afii10098" unicode="&#x491;" horiz-adv-x="475" 
d="M10 0l10.001 74.998l47 5c5.33301 0.666992 8.66602 1.83398 9.99902 3.50098s2.66602 5.16699 3.99902 10.5l46 331c0.666992 8.66699 -2.66602 13.334 -9.99902 14.001l-46 5l11 77h280c8 0 13 3 15 9l24 72l111 9l-27 -195h-210l-45 -321
c-1.33301 -5.33301 -1.5 -8.83301 -0.5 -10.5s4.16699 -2.5 9.5 -2.5l101 -7l-11 -75h-319z" />
    <glyph glyph-name="thinspace" unicode="&#x2009;" horiz-adv-x="125" 
 />
    <glyph glyph-name="endash" unicode="&#x2013;" horiz-adv-x="499" 
d="M11 227l15 107h499l-15 -107h-499z" />
    <glyph glyph-name="emdash" unicode="&#x2014;" horiz-adv-x="1000" 
d="M11 227l15 107h1000l-15 -107h-1000z" />
    <glyph glyph-name="quoteleft" unicode="&#x2018;" horiz-adv-x="216" 
d="M230 537c-16.667 0 -32.333 1 -47 3s-27.5 5.5 -38.5 10.5s-19.833 11.667 -26.5 20s-10 19.5 -10 33.5c0 12.667 2.83301 24.5 8.5 35.5s12.5 23.167 20.5 36.5l62 100l60 -21l-36 -98c-2 -5.33301 -0.333008 -9 5 -11l35 -14z" />
    <glyph glyph-name="quoteright" unicode="&#x2019;" horiz-adv-x="218" 
d="M114 557l36 96.998c2 6 0.333008 10 -5 12l-34 14l33 94c16 0 31.333 -0.833008 46 -2.5s27.5 -4.66699 38.5 -9s19.833 -10.666 26.5 -18.999s10 -19.166 10 -32.499c0 -12.667 -2.83301 -25 -8.5 -37s-12.5 -24.667 -20.5 -38l-62 -100z" />
    <glyph glyph-name="quotesinglbase" unicode="&#x201a;" horiz-adv-x="214" 
d="M26 -115l36 98c2 5.33301 0.333008 9 -5 11l-35 14l34 95c16 0 31.333 -0.833008 46 -2.5s27.5 -4.66699 38.5 -9s19.833 -10.666 26.5 -18.999s10 -19.5 10 -33.5c0 -12.667 -2.83301 -24.834 -8.5 -36.501s-12.5 -24.167 -20.5 -37.5l-62 -101z" />
    <glyph glyph-name="quotedblleft" unicode="&#x201c;" horiz-adv-x="394" 
d="M408 537c-16.667 0 -32.333 1 -47 3s-27.5 5.5 -38.5 10.5s-19.833 11.667 -26.5 20s-10 19.5 -10 33.5c0 12.667 2.83301 24.5 8.5 35.5s12.5 23.167 20.5 36.5l62 100l60 -21l-36 -98c-2 -5.33301 -0.333008 -9 5 -11l35 -14zM230.001 537c-16.667 0 -32.333 1 -47 3
s-27.5 5.5 -38.5 10.5s-19.833 11.667 -26.5 20s-10 19.5 -10 33.5c0 12.667 2.83301 24.5 8.5 35.5s12.5 23.167 20.5 36.5l62 100l60 -21l-36 -98c-2 -5.33301 -0.333008 -9 5 -11l35 -14z" />
    <glyph glyph-name="quotedblright" unicode="&#x201d;" horiz-adv-x="396" 
d="M292 557l36 96.998c2 6 0.333008 10 -5 12l-34 14l33 94c16 0 31.333 -0.833008 46 -2.5s27.5 -4.66699 38.5 -9s19.833 -10.666 26.5 -18.999s10 -19.166 10 -32.499c0 -12.667 -2.83301 -25 -8.5 -37s-12.5 -24.667 -20.5 -38l-62 -100zM114 556.998l36 96.998
c2 6 0.333008 10 -5 12l-34 14l33 94c16 0 31.333 -0.833008 46 -2.5s27.5 -4.66699 38.5 -9s19.833 -10.666 26.5 -18.999s10 -19.166 10 -32.499c0 -12.667 -2.83301 -25 -8.5 -37s-12.5 -24.667 -20.5 -38l-62 -100z" />
    <glyph glyph-name="quotedblbase" unicode="&#x201e;" horiz-adv-x="392" 
d="M204 -115l36 98c2 5.33301 0.333008 9 -5 11l-35 14l34 95c16 0 31.333 -0.833008 46 -2.5s27.5 -4.66699 38.5 -9s19.833 -10.666 26.5 -18.999s10 -19.5 10 -33.5c0 -12.667 -2.83301 -24.834 -8.5 -36.501s-12.5 -24.167 -20.5 -37.5l-62 -101zM26 -115l36 98
c2 5.33301 0.333008 9 -5 11l-35 14l34 95c16 0 31.333 -0.833008 46 -2.5s27.5 -4.66699 38.5 -9s19.833 -10.666 26.5 -18.999s10 -19.5 10 -33.5c0 -12.667 -2.83301 -24.834 -8.5 -36.501s-12.5 -24.167 -20.5 -37.5l-62 -101z" />
    <glyph glyph-name="dagger" unicode="&#x2020;" horiz-adv-x="402" 
d="M118 -83l27 189l10 214l67 112h34l38 -112l-49 -214l-27 -189h-100zM134 396h-74l15 104h74l78 -35l-5 -33zM227 465l-23 96l12 84h105l-12 -84l-49 -96h-33zM335 396l-79 36l4 33l90 35h73l-15 -104h-73z" />
    <glyph glyph-name="daggerdbl" unicode="&#x2021;" horiz-adv-x="420" 
d="M131 -83l12 84l50 96l-89 -36h-74l15 104h74l78 -35l-34 116l10 75l67 111l-89 -36h-74l16 104h74l77 -35l-22 96l12 84h105l-12 -84l-49 -96l90 35h73l-15 -104h-74l-78 36l38 -111l-10 -75l-71 -116l89 35h73l-14 -104h-74l-78 36l21 -96l-12 -84h-105zM278 465h-34
l-4 -33h34zM231 130h-34l-4 -33h34z" />
    <glyph glyph-name="bullet" unicode="&#x2022;" horiz-adv-x="412" 
d="M375 279c0 -48.667 -13 -85.167 -39 -109.5s-63.667 -36.5 -113 -36.5c-48.667 0 -85.834 12.167 -111.501 36.5s-38.5 60.833 -38.5 109.5s12.833 85.167 38.5 109.5s62.834 36.5 111.501 36.5c49.333 0 87 -12.167 113 -36.5s39 -60.833 39 -109.5z" />
    <glyph glyph-name="ellipsis" unicode="&#x2026;" horiz-adv-x="712" 
d="M434 76c0 -28 -8.16699 -49.667 -24.5 -65s-40.5 -23 -72.5 -23c-50.667 0 -76 22.333 -76 67c0 28.667 8.16699 50.667 24.5 66s40.833 23 73.5 23c26 0 45 -5.66699 57 -17s18 -28.333 18 -51zM652 76c0 -28 -8.16699 -49.667 -24.5 -65s-40.5 -23 -72.5 -23
c-50.667 0 -76 22.333 -76 67c0 28.667 8.16699 50.667 24.5 66s40.833 23 73.5 23c26 0 45 -5.66699 57 -17s18 -28.333 18 -51zM216 76c0 -28 -8.16699 -49.667 -24.5 -65s-40.5 -23 -72.5 -23c-50.667 0 -76 22.333 -76 67c0 28.667 8.16699 50.667 24.5 66
s40.833 23 73.5 23c26 0 45 -5.66699 57 -17s18 -28.333 18 -51z" />
    <glyph glyph-name="perthousand" unicode="&#x2030;" horiz-adv-x="1138" 
d="M207 295c-47.333 0 -81.167 11.834 -101.5 35.501s-30.5 54.5 -30.5 92.5c0 62 15.833 110.333 47.5 145s77.167 52 136.5 52c46 0 79.5 -11.167 100.5 -33.5s31.5 -53.5 31.5 -93.5c0 -60.667 -16 -108.834 -48 -144.501s-77.333 -53.5 -136 -53.5zM116.999 -16.999
l466 638h138l-465 -638h-139zM220.999 370.001c12.667 0 23.167 3.00098 31.5 9.00098s14.833 14.333 19.5 25s8 23.167 10 37.5s3 29.5 3 45.5c0 19.333 -3 33.666 -9 42.999s-16 14 -30 14c-21.333 0 -37.5 -10 -48.5 -30s-16.5 -48 -16.5 -84c0 -40 13.333 -60 40 -60z
M582.999 -11.998c-48 0 -81.833 11.666 -101.5 34.999s-29.5 54 -29.5 92c0 62.667 15.833 111.334 47.5 146.001s77.167 52 136.5 52c46 0 79.5 -11.333 100.5 -34s31.5 -54 31.5 -94c0 -60.667 -16.167 -108.667 -48.5 -144s-77.833 -53 -136.5 -53zM596.999 63.001
c12.667 0 23.167 3 31.5 9s14.833 14.333 19.5 25s8 23.167 10 37.5s3 29.5 3 45.5c0 38 -12.667 57 -38 57c-22 0 -38.333 -10 -49 -30s-16 -48 -16 -84c0 -40 13 -60 39 -60zM923.999 -11.999c-48 0 -82.001 11.666 -102.001 34.999s-30 54 -30 92
c0 62.667 15.833 111.334 47.5 146.001s76.834 52 135.501 52c46 0 79.667 -11.333 101 -34s32 -54 32 -94c0 -60.667 -16 -108.667 -48 -144s-77.333 -53 -136 -53zM936.998 63c12.667 0 23.167 3 31.5 9s15 14.333 20 25s8.5 23.167 10.5 37.5s3 29.5 3 45.5
c0 38 -13 57 -39 57c-22 0 -38.333 -10 -49 -30s-16 -48 -16 -84c0 -40 13 -60 39 -60z" />
    <glyph glyph-name="guilsinglleft" unicode="&#x2039;" horiz-adv-x="278" 
d="M113 103l-64.001 154l110 151h123l-100 -140c-3.33301 -4 -5.16602 -7.16699 -5.49902 -9.5s0.166992 -5.5 1.5 -9.5l56 -146h-121z" />
    <glyph glyph-name="guilsinglright" unicode="&#x203a;" horiz-adv-x="278" 
d="M33 103l98 146c2.66699 4 4.16699 7.16699 4.5 9.5s-0.5 5.5 -2.5 9.5l-60 140h122l67 -152l-107 -153h-122z" />
    <glyph glyph-name="fraction" unicode="&#x2044;" horiz-adv-x="224" 
d="M-157 -17l462 741h138l-461 -741h-139z" />
    <glyph glyph-name="Euro" unicode="&#x20ac;" horiz-adv-x="558" 
d="M253 265l0.00488281 -12.998c0 -52.667 7.66699 -91.5 23 -116.5s39.333 -37.5 72 -37.5c19.333 0 35.666 2.33301 48.999 7c6.66699 2.66699 11 8 13 16l25 79l102 5l-24 -174c-8 -4.66699 -19.333 -9.66699 -34 -15s-30.834 -10 -48.501 -14
s-36.334 -7.33301 -56.001 -10s-39.167 -4 -58.5 -4c-74.667 0 -130.167 22.5 -166.5 67.5s-54.5 110.167 -54.5 195.5v14h-69l37 117h44c10 48 25.5 89.167 46.5 123.5s45.167 62.666 72.5 84.999s57.5 38.666 90.5 48.999s66.5 15.5 100.5 15.5
c18.667 0 37 -1.33301 55 -4s34.833 -6 50.5 -10s29.667 -8.5 42 -13.5s22.166 -10.167 29.499 -15.5l-24 -170l-101 5l-4 78c0 4 -0.5 7.33301 -1.5 10s-3.5 4.66699 -7.5 6c-6 2 -12.833 3.66699 -20.5 5s-17.834 2 -30.501 2c-14 0 -28.167 -3 -42.5 -9
s-27.833 -15.5 -40.5 -28.5s-24 -30 -34 -51s-18 -46.833 -24 -77.5h158l-35 -117h-134z" />
    <glyph glyph-name="afii61352" unicode="&#x2116;" horiz-adv-x="1120" 
d="M451 0l-178.001 434l-46 -328c-1.33301 -8 -1.33301 -13 0 -15s5.66602 -3.66699 12.999 -5l66 -8l-11 -78h-277l10 78l64 7c7.33301 1.33301 12 3.16602 14 5.49902s3.66699 7.16602 5 14.499l59 426c1.33301 7.33301 1.33301 12.333 0 15
s-5.66602 4.33398 -12.999 5.00098l-62 7l11 78h248l173 -435l46 328c1.33301 7.33301 1.33301 12.333 0 15s-5.66602 4.33398 -12.999 5.00098l-62 7l11 80h278l-11 -80l-68 -8c-7.33301 -1.33301 -12 -3 -14 -5s-3.66699 -6.66699 -5 -14l-74 -529h-164zM720.999 184h329
l-14 -96h-329zM880.999 213c-54.667 0 -93.832 13.668 -117.499 41.001s-35.5 62.666 -35.5 105.999c0 31.333 4.66699 59.833 14 85.5s23 47.667 41 66s40.667 32.666 68 42.999s59 15.5 95 15.5c26 0 48.5 -3.83301 67.5 -11.5s34.667 -18 47 -31s21.333 -28.5 27 -46.5
s8.5 -37.333 8.5 -58c0 -30.667 -4.33301 -59 -13 -85s-21.834 -48.167 -39.501 -66.5s-40 -32.666 -67 -42.999s-58.833 -15.5 -95.5 -15.5zM896.001 290.001c24 0 43.333 10.333 58 31s22 55 22 103c0 45.333 -16 68 -48 68c-22 0 -41 -9.5 -57 -28.5
s-24 -53.167 -24 -102.5c0 -25.333 4.33301 -43.5 13 -54.5s20.667 -16.5 36 -16.5z" />
    <glyph glyph-name="trademark" unicode="&#x2122;" horiz-adv-x="847" 
d="M177 348v46l53 5v270h-70l-7 -51h-45v106h322v-106h-46l-6 51h-71v-270l57 -5v-46h-187zM744 348v45l41 5v189l-80 -158h-60l-78 159v-190l44 -5v-45h-150v45l36 5v273l-36 4v49h110l106 -218l109 218h106v-49l-38 -4v-273l40 -5v-45h-150z" />
    <glyph glyph-name="partialdiff" unicode="&#x2202;" horiz-adv-x="591" 
d="M422 368c2.66699 15.333 4.66602 30.1709 5.99902 44.5039s2 27.166 2 38.499c0 34.667 -7 62.167 -21 82.5s-37.333 30.5 -70 30.5c-26 0 -52.5 -5.5 -79.5 -16.5s-50.167 -23.167 -69.5 -36.5l-48 91c30.667 20.667 66.834 38 108.501 52s84.5 21 128.5 21
c36 0 66.5 -6.5 91.5 -19.5s45.5 -30.833 61.5 -53.5s27.5 -48.834 34.5 -78.501s10.5 -61.167 10.5 -94.5c0 -26.667 -1.83301 -56.167 -5.5 -88.5s-10 -64.833 -19 -97.5s-21.333 -64.334 -37 -95.001s-35.667 -57.834 -60 -81.501s-53.5 -42.667 -87.5 -57
s-73.667 -21.5 -119 -21.5c-63.333 0 -112.5 15 -147.5 45s-52.5 73.333 -52.5 130c0 38 6 72.333 18 103s28.667 57 50 79s46.5 38.833 75.5 50.5s60.833 17.5 95.5 17.5c32 0 58.833 -5 80.5 -15s39.5 -20 53.5 -30zM402.999 277.005c-12 8 -25.833 15.833 -41.5 23.5
s-33.167 11.5 -52.5 11.5c-18 0 -33.5 -4 -46.5 -12s-23.833 -18.5 -32.5 -31.5s-15.167 -27.5 -19.5 -43.5s-6.5 -32.333 -6.5 -49c0 -20 4.66699 -38 14 -54s26.333 -24 51 -24c20 0 37.5 5.16699 52.5 15.5s27.833 24 38.5 41s19.5 36.167 26.5 57.5s12.5 43 16.5 65z
" />
    <glyph glyph-name="product" unicode="&#x220f;" horiz-adv-x="800" 
d="M414 -176l10.0029 74.0029l64 7c7.33301 1.33301 12 3.16602 14 5.49902s3.66699 7.16602 5 14.499l97 690h-274l-97 -689c-1.33301 -8 -1.33301 -13 0 -15s5.66602 -3.66699 12.999 -5l66 -8l-10 -74h-317l10 74l64 7c7.33301 1.33301 12 3.16602 14 5.49902
s3.66699 7.16602 5 14.499l99 696c1.33301 7.33301 1.16602 12.333 -0.500977 15s-6.16699 4.33398 -13.5 5.00098l-62 7l11 76h745l-11 -76l-68 -8c-7.33301 -1.33301 -11.833 -3 -13.5 -5s-3.16699 -6.66699 -4.5 -14l-99 -695c-1.33301 -8 -1.33301 -13 0 -15
s5.66602 -3.66699 12.999 -5l66 -8l-10 -74h-316z" />
    <glyph glyph-name="summation" unicode="&#x2211;" horiz-adv-x="627" 
d="M-40 -176l12.001 90l277 356l-163 375l11 79h549l-29 -202l-109 5l-3 76c-0.666992 8.66699 -6 13 -16 13h-222l136 -330l-259 -334h274c5.33301 0 9.16602 0.5 11.499 1.5s4.5 4.16699 6.5 9.5l28 88h109l-31 -227h-582z" />
    <glyph glyph-name="minus" unicode="&#x2212;" horiz-adv-x="570" 
d="M106 265l16 116h387l-16 -116h-387z" />
    <glyph glyph-name="radical" unicode="&#x221a;" horiz-adv-x="589" 
d="M251 0l-90 208c-2.66699 6.66699 -8 9 -16 7l-64 -14l-27 86l177 80l89 -227l246 606l118 -30l-293 -716h-140z" />
    <glyph glyph-name="infinity" unicode="&#x221e;" horiz-adv-x="653" 
d="M210 466c36.667 0 66.666 -7.33398 89.999 -22.001s43.666 -32.667 60.999 -54c18.667 19.333 40.5 36.833 65.5 52.5s53.5 23.5 85.5 23.5c17.333 0 33.833 -2.83301 49.5 -8.5s29.334 -14 41.001 -25s21 -24.833 28 -41.5s10.5 -36 10.5 -58
c0 -20.667 -3.33301 -40.667 -10 -60s-16.5 -36.333 -29.5 -51s-28.833 -26.334 -47.5 -35.001s-40 -13 -64 -13c-36 0 -66.167 8.33301 -90.5 25s-45.166 35.334 -62.499 56.001c-18 -20 -39.167 -38.5 -63.5 -55.5s-51.833 -25.5 -82.5 -25.5
c-18.667 0 -36.167 2.66699 -52.5 8s-30.5 13.5 -42.5 24.5s-21.5 25 -28.5 42s-10.5 37.5 -10.5 61.5c0 20.667 3.5 40.334 10.5 59.001s17 35.167 30 49.5s29 25.833 48 34.5s40.5 13 64.5 13zM194.999 247.999c18.667 0 35.832 6.16797 51.499 18.501
s30.834 27.166 45.501 44.499c-15.333 21.333 -30.833 38.333 -46.5 51s-33.167 19 -52.5 19c-18 0 -32.333 -6 -43 -18s-16 -27.667 -16 -47c0 -16.667 4 -32.167 12 -46.5s24.333 -21.5 49 -21.5zM505.997 397c-19.333 0 -36.834 -5.66699 -52.501 -17
s-31.5 -26 -47.5 -44c14.667 -17.333 30.5 -33 47.5 -47s35.167 -21 54.5 -21c17.333 0 31.333 5.5 42 16.5s16 27.167 16 48.5c0 16.667 -4.66699 31.5 -14 44.5s-24.666 19.5 -45.999 19.5z" />
    <glyph glyph-name="integral" unicode="&#x222b;" horiz-adv-x="454" 
d="M111 -69c12 -6 23.667 -10.168 35 -12.501s21.666 -3.5 30.999 -3.5c13.333 0 24 4.33301 32 13s10.667 27.334 8 56.001l-51 587c-2.66699 29.333 -0.166992 54 7.5 74s18.5 36 32.5 48s30.167 20.667 48.5 26s36.833 8 55.5 8c21.333 0 42 -2 62 -6
s40.667 -9.66699 62 -17l-26 -98c-12.667 6 -24.167 10.167 -34.5 12.5s-20.166 3.5 -29.499 3.5c-14 0 -25.167 -4.16699 -33.5 -12.5s-11.5 -23.5 -9.5 -45.5l52 -598c2.66699 -30 0.333984 -55 -6.99902 -75s-17.833 -35.833 -31.5 -47.5s-29.334 -20 -47.001 -25
s-35.5 -7.5 -53.5 -7.5c-24.667 0 -48 2.33301 -70 7s-41.667 10.667 -59 18z" />
    <glyph glyph-name="approxequal" unicode="&#x2248;" horiz-adv-x="530" 
d="M525 496c-5.33301 -16.667 -11.335 -32.499 -18.002 -47.499s-14.5 -28.333 -23.5 -40s-19.667 -21 -32 -28s-27.166 -10.5 -44.499 -10.5c-18 0 -36.667 2 -56 6s-38.333 8.16699 -57 12.5l-54.5 12.5c-17.667 4 -33.834 6 -48.501 6c-12.667 0 -23.167 -3 -31.5 -9
s-18.166 -16.667 -29.499 -32l-67 32c19.333 35.333 38.833 63.333 58.5 84s44.834 31 75.501 31c19.333 0 38.166 -2 56.499 -6s36.333 -8.33301 54 -13s35 -9 52 -13s33.5 -6 49.5 -6c11.333 0 19.833 3.66699 25.5 11s11.834 17.666 18.501 30.999zM512.998 303.001
c-5.33301 -16.667 -11.332 -32.5 -17.999 -47.5s-14.5 -28.333 -23.5 -40s-19.667 -21 -32 -28s-26.833 -10.5 -43.5 -10.5c-18 0 -36.667 2 -56 6l-57.5 12.5l-55 12.5c-17.667 4 -33.834 6 -48.501 6c-13.333 0 -23.833 -3 -31.5 -9s-17.167 -16.667 -28.5 -32l-68 32
c19.333 35.333 38.833 63.333 58.5 84s44.834 31 75.501 31c19.333 0 38.166 -2 56.499 -6s36.333 -8.33301 54 -13s35 -9 52 -13s33.5 -6 49.5 -6c11.333 0 19.833 3.5 25.5 10.5s12.167 17.5 19.5 31.5z" />
    <glyph glyph-name="notequal" unicode="&#x2260;" horiz-adv-x="570" 
d="M276 130l-45 -87.999h-106c1.33301 2.66699 2.83301 5.16699 4.5 7.5s3.16699 5.16602 4.5 8.49902l37 72h-82l17 117h126l35 69h-152l17 117h196l46 90h106l-46 -90h84l-17 -117h-129l-35 -69h155l-17 -117h-199z" />
    <glyph glyph-name="lessequal" unicode="&#x2264;" horiz-adv-x="570" 
d="M119 263l19 140l405 142l-10 -117l-281 -91l257 -94l-23 -117zM82 0l16 116h387l-16 -116h-387z" />
    <glyph glyph-name="greaterequal" unicode="&#x2265;" horiz-adv-x="570" 
d="M88 126l12 118l283 94l-256 88l23 119l365 -142l-20 -140zM71 0l16 116h387l-16 -116h-387z" />
    <glyph glyph-name="lozenge" unicode="&#x25ca;" horiz-adv-x="558" 
d="M201 -17l-110 324l201 324h110l109 -324l-200 -324h-110zM398 307l-69 199l-124 -199l67 -206z" />
    <glyph glyph-name="breve.cyr" 
d="M436 709c-16 -48.667 -39.166 -84.166 -69.499 -106.499s-69.833 -33.5 -118.5 -33.5c-52 0 -91.833 12.167 -119.5 36.5s-43.5 58.166 -47.5 101.499l101 30c1.33301 -26.667 7.5 -47 18.5 -61s28.5 -21 52.5 -21c22 0 39.667 6.5 53 19.5s24.666 33.167 33.999 60.5z
" />
    <glyph glyph-name="breve_cyr.cap.smcp" horiz-adv-x="403" 
d="M251 691c22.667 0 40.5 6.83203 53.5 20.499s24.167 33.834 33.5 60.501l94 -26c-26.667 -93.333 -89.667 -140 -189 -140c-50 0 -88.167 12.167 -114.5 36.5s-40.833 58.5 -43.5 102.5l101 29c0 -25.333 5 -45.5 15 -60.5s26.667 -22.5 50 -22.5z" />
    <glyph glyph-name="hyphen.case" horiz-adv-x="311" 
d="M38 287l18 127h271l-18 -127h-271z" />
    </font>
</defs>
</svg>
