<?xml version="1.0" standalone="no"?>
<!DOCTYPE svg PUBLIC "-//W3C//DTD SVG 1.1//EN" "http://www.w3.org/Graphics/SVG/1.1/DTD/svg11.dtd" >
<svg>
<metadata>
Created by FontForge 20090914 at Mon May  1 15:27:28 2017
 By www-data
Copyright (c) 2010 by TypeTogether. All rights reserved.This font is ONLY licensed for use when accessed from the Extensis WebINK font service. Any other use of this font file is illegal under United States and international copyright laws. Please respect the rights of the people who design and license fonts.
</metadata>
<defs>
<font id="AdelleCyrillic-ThinItalic" horiz-adv-x="500" >
  <font-face 
    font-family="Adelle Cyrillic"
    font-weight="250"
    font-style="italic"
    font-stretch="normal"
    units-per-em="1000"
    panose-1="2 0 5 3 0 0 0 9 0 4"
    ascent="755"
    descent="-245"
    x-height="508"
    cap-height="724"
    bbox="-171 -224.998 1052 920"
    underline-thickness="50"
    underline-position="-50"
    unicode-range="U+000D-U+25CA"
  />
<missing-glyph 
 />
    <glyph glyph-name=".notdef" 
 />
    <glyph glyph-name="NULL" horiz-adv-x="0" 
 />
    <glyph glyph-name="NULL" horiz-adv-x="0" 
 />
    <glyph glyph-name="nonmarkingreturn" unicode="&#xd;" 
 />
    <glyph glyph-name="space" unicode=" " horiz-adv-x="236" 
 />
    <glyph glyph-name="exclam" unicode="!" horiz-adv-x="250" 
d="M105 180l42 385l23 159h60l-23 -159l-63 -385h-39zM158 49c0 -20.667 -5.33301 -36 -16 -46s-25.334 -15 -44.001 -15c-30.667 0 -46 14.333 -46 43c0 20 5.33301 35.167 16 45.5s25.334 15.5 44.001 15.5c30.667 0 46 -14.333 46 -43z" />
    <glyph glyph-name="quotedbl" unicode="&#x22;" horiz-adv-x="343" 
d="M237 447l37 259h59l-37 -259h-59zM88 447l37 259h59l-37 -259h-59z" />
    <glyph glyph-name="numbersign" unicode="#" horiz-adv-x="607" 
d="M396 152l-44 -152h-49l43 152h-145l-43 -152h-50l43 152h-126l17 40h121l52 174h-126l17 41h122l38 136h51l-40 -136h143l38 136h51l-39 -136h125l-16 -41h-123l-48 -174h123l-15 -40h-120zM407 366h-143l-51 -174h145z" />
    <glyph glyph-name="dollar" unicode="$" horiz-adv-x="510" 
d="M332 625c36.667 -1.33301 68.3359 -6.16895 95.0029 -14.502s45.667 -15.166 57 -20.499l-18 -142l-36 5l-5 94c-0.666992 3.33301 -1.5 5.66602 -2.5 6.99902s-3.83301 3.33301 -8.5 6c-12 6 -24.833 10.5 -38.5 13.5s-30.167 4.83301 -49.5 5.5l-35 -255
c18 -6.66699 35.5 -13.834 52.5 -21.501s32 -17.167 45 -28.5s23.5 -24.833 31.5 -40.5s12 -35.167 12 -58.5c0 -50 -15.167 -90.167 -45.5 -120.5s-76.5 -48.166 -138.5 -53.499l-11 -81h-41l10 80c-22.667 0 -44.334 1.5 -65.001 4.5s-39.5 6.5 -56.5 10.5
s-31.5 8.33301 -43.5 13s-21 8.33398 -27 11.001l19 129h35l11 -92c1.33301 -3.33301 2.66602 -6.16602 3.99902 -8.49902s6 -5.16602 14 -8.49902c11.333 -4 26.166 -7.66699 44.499 -11s41.833 -5.33301 70.5 -6l33 252c-18 6 -36 12.667 -54 20s-34 16.666 -48 27.999
s-25.333 25.5 -34 42.5s-13 38.5 -13 64.5c0 28 5.33301 52.5 16 73.5s24.834 38.667 42.501 53s38.167 25.333 61.5 33s47.666 12.5 72.999 14.5l11 71h42zM145.002 451.997c0 -16.667 3.16602 -31 9.49902 -43s14.5 -22.5 24.5 -31.5s21.333 -16.667 34 -23
s25.334 -11.833 38.001 -16.5l33 241c-43.333 -4 -77.333 -17.667 -102 -41s-37 -52 -37 -86zM382.001 170.997c0 16.667 -2.33105 30.668 -6.99805 42.001s-11.334 21.166 -20.001 29.499s-18.834 15.5 -30.501 21.5s-24.167 11.667 -37.5 17l-33 -236
c46.667 5.33301 79.667 19.5 99 42.5s29 50.833 29 83.5z" />
    <glyph glyph-name="percent" unicode="%" horiz-adv-x="839" 
d="M213 256c-25.333 0 -46.665 4.16504 -63.998 12.498s-31.333 19.333 -42 33s-18.334 29.5 -23.001 47.5s-7 36.333 -7 55c0 30.667 4.16699 59 12.5 85s20.333 48.667 36 68s35 34.5 58 45.5s49.167 16.5 78.5 16.5c47.333 0 81.5 -13.5 102.5 -40.5
s31.5 -62.5 31.5 -106.5c0 -31.333 -4 -60.166 -12 -86.499s-19.833 -49.166 -35.5 -68.499s-34.834 -34.333 -57.501 -45s-48.667 -16 -78 -16zM217.001 296.998c30.667 0 54.5 6.83203 71.5 20.499s29.667 30 38 49s13.5 38.333 15.5 58s3 35.5 3 47.5
c0 14.667 -1.5 28.334 -4.5 41.001s-7.83301 23.834 -14.5 33.501s-15.667 17.334 -27 23.001s-25.333 8.5 -42 8.5c-25.333 0 -46.333 -5.66699 -63 -17s-30 -25.333 -40 -42s-17 -34.834 -21 -54.501s-6 -37.834 -6 -54.501c0 -15.333 1.33301 -29.833 4 -43.5
s7.5 -25.667 14.5 -36s16.333 -18.5 28 -24.5s26.167 -9 43.5 -9zM600.001 -12.0029c-25.333 0 -46.665 4.16504 -63.998 12.498s-31.333 19.333 -42 33s-18.334 29.5 -23.001 47.5s-7 36.333 -7 55c0 30.667 4.16699 59 12.5 85s20.333 48.667 36 68s35 34.5 58 45.5
s49.167 16.5 78.5 16.5c47.333 0 81.5 -13.5 102.5 -40.5s31.5 -62.5 31.5 -106.5c0 -31.333 -4 -60.166 -12 -86.499s-19.833 -49.166 -35.5 -68.499s-34.834 -34.333 -57.501 -45s-48.667 -16 -78 -16zM604.002 28.9951c30.667 0 54.5 6.83203 71.5 20.499
s29.667 30 38 49s13.5 38.333 15.5 58s3 35.5 3 47.5c0 14.667 -1.5 28.334 -4.5 41.001s-7.83301 23.834 -14.5 33.501s-15.667 17.334 -27 23.001s-25.333 8.5 -42 8.5c-25.333 0 -46.333 -5.66699 -63 -17s-30 -25.333 -40 -42s-17 -34.834 -21 -54.501
s-6 -37.834 -6 -54.501c0 -15.333 1.33301 -29.833 4 -43.5s7.5 -25.667 14.5 -36s16.333 -18.5 28 -24.5s26.167 -9 43.5 -9zM167.002 -17.0059l466 638h49l-465 -638h-50z" />
    <glyph glyph-name="ampersand" unicode="&#x26;" horiz-adv-x="669" 
d="M574 323c-11.333 -0.666992 -17.335 -5.33496 -18.002 -14.002l-38 -266c-28 -17.333 -58.833 -30.833 -92.5 -40.5s-73.5 -14.5 -119.5 -14.5c-80.667 0 -139.334 15.667 -176.001 47s-55 73 -55 125c0 41.333 12.167 79 36.5 113s64.833 58.333 121.5 73
c-9.33301 3.33301 -19.5 8 -30.5 14s-21.167 14.167 -30.5 24.5s-17.166 23.333 -23.499 39s-9.5 34.5 -9.5 56.5c0 26.667 5.33301 51.5 16 74.5s25.667 43 45 60s42.833 30.333 70.5 40s58.834 14.5 93.501 14.5c19.333 0 38 -1.5 56 -4.5s34.5 -6.5 49.5 -10.5
s28.333 -8.33301 40 -13s20.5 -9 26.5 -13l-18 -120l-38 1l-4 85c0 8.66699 -4 14.334 -12 17.001c-12.667 4.66699 -28.5 8.5 -47.5 11.5s-35.167 4.5 -48.5 4.5c-16.667 0 -35.167 -1.83301 -55.5 -5.5s-39.5 -10.834 -57.5 -21.501s-33 -25.167 -45 -43.5
s-18 -42.5 -18 -72.5c0 -36 10.833 -64.667 32.5 -86s56.5 -32 104.5 -32h64l-7 -41c-19.333 0 -38.666 -0.5 -57.999 -1.5s-37.333 -3.16699 -54 -6.5c-44 -8.66699 -79 -24.5 -105 -47.5s-39 -57.5 -39 -103.5c0 -28 5 -50.833 15 -68.5s23.167 -31.667 39.5 -42
s35.333 -17.333 57 -21s44.167 -5.5 67.5 -5.5c40 0 72.833 3.83301 98.5 11.5s45.167 14.834 58.5 21.501c6 2.66699 9.33301 7.33398 10 14.001l41 287h104l-6 -36z" />
    <glyph glyph-name="quotesingle" unicode="'" horiz-adv-x="194" 
d="M88 447l37 259h59l-37 -259h-59z" />
    <glyph glyph-name="parenleft" unicode="(" horiz-adv-x="282" 
d="M153 -147c-22 46 -41.5 98.165 -58.5 156.498s-25.5 122.5 -25.5 192.5c0 54.667 6.66699 106.5 20 155.5s30.333 95.167 51 138.5s43.667 83.5 69 120.5s50.333 70.833 75 101.5l34 -24c-32 -44 -60.333 -85.5 -85 -124.5s-45.5 -77.667 -62.5 -116
s-30 -77.666 -39 -117.999s-13.5 -83.833 -13.5 -130.5c0 -67.333 8 -127.666 24 -180.999s34 -103.333 54 -150z" />
    <glyph glyph-name="parenright" unicode=")" horiz-adv-x="276" 
d="M-35 -123c32 44 60.5 85.501 85.5 124.501s46 77.667 63 116s30 77.666 39 117.999s13.5 83.833 13.5 130.5c0 34 -2.16699 65.833 -6.5 95.5s-10.333 58 -18 85s-16.167 53 -25.5 78s-19 49.167 -29 72.5l41 20c22 -46 41.833 -98 59.5 -156s26.5 -122 26.5 -192
c0 -54.667 -6.5 -106.5 -19.5 -155.5s-29.833 -95.167 -50.5 -138.5s-43.667 -83.5 -69 -120.5s-50.333 -70.833 -75 -101.5z" />
    <glyph glyph-name="asterisk" unicode="*" horiz-adv-x="468" 
d="M114 441l46 45l86 72l-101 26l-55 22l26 49l56 -20l87 -47l5 106l8 61h54l-8 -61l-26 -106h-33l-13 -30l27 -20l-74 -86l-48 -48zM355 406l-34 46l-48 86l25 19l-6 31l101 47l60 20l13 -49l-62 -22l-106 -27l64 -73l34 -47z" />
    <glyph glyph-name="plus" unicode="+" horiz-adv-x="570" 
d="M241 134l22 163h-156l7 50h156l23 158h52l-23 -158h163l-8 -50h-163l-22 -163h-51z" />
    <glyph glyph-name="comma" unicode="," horiz-adv-x="175" 
d="M-1 -103l47 102.999c2 4.66699 0.666992 8 -4 10l-29 14l32 65c24.667 -2 44.167 -5.66699 58.5 -11s21.5 -16.333 21.5 -33c0 -9.33301 -1.83301 -18.166 -5.5 -26.499s-8.16699 -16.5 -13.5 -24.5l-76 -110z" />
    <glyph glyph-name="hyphen" unicode="-" horiz-adv-x="311" 
d="M24 262l8 51h271l-8 -51h-271z" />
    <glyph glyph-name="period" unicode="." horiz-adv-x="190" 
d="M127 51c0 -17.333 -5.16699 -32.167 -15.5 -44.5s-25.5 -18.5 -45.5 -18.5c-14 0 -25 3.33301 -33 10s-12 16.667 -12 30c0 21.333 5.5 37.333 16.5 48s25.5 16 43.5 16c30.667 0 46 -13.667 46 -41z" />
    <glyph glyph-name="slash" unicode="/" horiz-adv-x="344" 
d="M-26 -92l389 823h46l-390 -823h-45z" />
    <glyph glyph-name="zero" unicode="0" horiz-adv-x="533" 
d="M495 291c-4.66699 -38 -12.1709 -74.999 -22.5039 -110.999s-25.166 -68.333 -44.499 -97s-44.666 -51.667 -75.999 -69s-70.333 -26 -117 -26c-37.333 0 -68.166 5.66699 -92.499 17s-43.666 26.666 -57.999 45.999s-24.333 41.5 -30 66.5s-8.5 51.167 -8.5 78.5
c0 14 0.166992 28.167 0.5 42.5s1.5 28.833 3.5 43.5c5.33301 37.333 14 74 26 110s28.5 68 49.5 96s47.5 50.5 79.5 67.5s70.333 25.5 115 25.5c34.667 0 63.667 -5.66699 87 -17s42 -26.5 56 -45.5s23.833 -41 29.5 -66s8.5 -51.167 8.5 -78.5s-2 -55 -6 -83z
M236.996 29.001c34.667 0 64.167 6.83203 88.5 20.499s44.833 32.167 61.5 55.5s29.667 50.666 39 81.999s16.333 64.333 21 99c4 28 6 54.667 6 80c0 24 -2.33301 46.5 -7 67.5s-12.5 39.333 -23.5 55s-25.5 27.834 -43.5 36.501s-40.333 13 -67 13
c-34 0 -63.333 -6.5 -88 -19.5s-45.5 -31.167 -62.5 -54.5s-30.667 -51 -41 -83s-18.166 -67 -23.499 -105c-2 -22.667 -3 -45 -3 -67c0 -24.667 2.33301 -48 7 -70s12.5 -41.167 23.5 -57.5s25.667 -29.166 44 -38.499s41.166 -14 68.499 -14z" />
    <glyph glyph-name="one" unicode="1" horiz-adv-x="344" 
d="M3 0l6 33.999l106 8c6 0.666992 9.83301 2.33398 11.5 5.00098s3.16699 7.66699 4.5 15l61 435c1.33301 8.66699 1 14 -1 16s-5.66699 3.66699 -11 5l-93 16l6 32h156l-70 -504c-1.33301 -8 -1.33301 -13.167 0 -15.5s6 -3.83301 14 -4.5l88 -9l-5 -33h-273z" />
    <glyph glyph-name="two" unicode="2" horiz-adv-x="459" 
d="M8 0l5.00391 40l158 134l84.5 72.5c25 21 46.5 41.5 64.5 61.5s31.833 40.5 41.5 61.5s14.5 44.833 14.5 71.5c0 28.667 -9.16699 52.334 -27.5 71.001s-51.166 28 -98.499 28c-23.333 0 -43.5 -1.5 -60.5 -4.5s-31.333 -8.83301 -43 -17.5s-20.834 -20.667 -27.501 -36
s-11.334 -35.666 -14.001 -60.999l-46 6c3.33301 35.333 11.5 63.166 24.5 83.499s28.667 35.666 47 45.999s38.666 17 60.999 20s44.5 4.5 66.5 4.5c60 0 102.667 -13.167 128 -39.5s38 -60.5 38 -102.5c0 -30 -6.66699 -57.833 -20 -83.5s-30.5 -50 -51.5 -73
s-44 -45.167 -69 -66.5l-72.5 -62l-130 -111h249c5.33301 0 9.16602 0.5 11.499 1.5s4.16602 4.16699 5.49902 9.5l28 91h38l-21 -145h-384z" />
    <glyph glyph-name="three" unicode="3" horiz-adv-x="452" 
d="M284 264c30.667 -7.33301 56.8291 -22.9961 78.4961 -46.9961s32.5 -56.333 32.5 -97c0 -28 -4.5 -54.167 -13.5 -78.5s-22.833 -45.833 -41.5 -64.5s-41.834 -33.334 -69.501 -44.001s-60.5 -16 -98.5 -16c-22.667 0 -43.667 2.5 -63 7.5s-36.833 11.5 -52.5 19.5
s-29.334 17 -41.001 27s-20.834 20 -27.501 30l36 31c16.667 -21.333 37.167 -38.5 61.5 -51.5s55.166 -19.5 92.499 -19.5c20 0 39.833 2.66699 59.5 8s37.334 14 53.001 26s28.334 28 38.001 48s14.5 45 14.5 75c0 40 -11.833 70.333 -35.5 91s-59.5 31 -107.5 31
c-19.333 0 -42 -2 -68 -6l6 45l65 6c56.667 5.33301 98.667 21.666 126 48.999s41 61 41 101c0 29.333 -8.66699 54.166 -26 74.499s-46.666 30.5 -87.999 30.5c-23.333 0 -43.666 -1.66699 -60.999 -5s-32 -9.5 -44 -18.5s-21.333 -21 -28 -36s-11.334 -34.5 -14.001 -58.5
l-48 6c2 32.667 9.33301 59 22 79s28.334 35.5 47.001 46.5s39.334 18.333 62.001 22s45.334 5.5 68.001 5.5c30 0 55.333 -3.66699 76 -11s37.334 -17.166 50.001 -29.499s21.834 -26.833 27.501 -43.5s8.5 -34.334 8.5 -53.001c0 -40 -11.5 -75.333 -34.5 -106
s-57.5 -55.334 -103.5 -74.001z" />
    <glyph glyph-name="four" unicode="4" horiz-adv-x="468" 
d="M278 -67l22 157h-281l4 38l296 436l34 -23l-275 -409h228l31 222l47 7l-32 -229h94l-7 -42h-93l-21 -157h-47z" />
    <glyph glyph-name="five" unicode="5" horiz-adv-x="478" 
d="M171 526l-50.999 -241c19.333 12.667 40.833 23.5 64.5 32.5s49.167 13.5 76.5 13.5c50.667 0 91.167 -14.833 121.5 -44.5s45.5 -73.167 45.5 -130.5c0 -33.333 -5.5 -64.5 -16.5 -93.5s-26.833 -54.333 -47.5 -76s-45.667 -38.667 -75 -51s-62.333 -18.5 -99 -18.5
c-45.333 0 -84 7.5 -116 22.5s-57.667 34.833 -77 59.5l36 31c38.667 -46.667 90.334 -70 155.001 -70c21.333 0 43.166 3.66699 65.499 11s42.666 18.833 60.999 34.5s33.333 35.667 45 60s17.5 53.5 17.5 87.5c0 24.667 -3.5 45.667 -10.5 63s-16.333 31.333 -28 42
s-25.167 18.5 -40.5 23.5s-31 7.5 -47 7.5c-32 0 -58.833 -6.16699 -80.5 -18.5s-41.5 -24.5 -59.5 -36.5l-43 19l65 313h324l-5 -40h-281z" />
    <glyph glyph-name="six" unicode="6" horiz-adv-x="519" 
d="M471 555c-16.667 15.333 -34.667 27.001 -54 35.001s-41 12 -65 12c-40.667 0 -74.667 -10.333 -102 -31s-49.666 -45.667 -66.999 -75s-30.333 -60.166 -39 -92.499s-14.667 -60.166 -18 -83.499c9.33301 7.33301 20.666 15.666 33.999 24.999s28 18.166 44 26.499
s33.5 15.333 52.5 21s38.5 8.5 58.5 8.5c27.333 0 50.333 -4.16699 69 -12.5s34 -19.666 46 -33.999s20.667 -31.5 26 -51.5s8 -41.667 8 -65c0 -35.333 -4.5 -68.166 -13.5 -98.499s-22.5 -56.833 -40.5 -79.5s-40.833 -40.334 -68.5 -53.001s-60.167 -19 -97.5 -19
c-34 0 -62.167 6.33301 -84.5 19s-40.333 30.167 -54 52.5s-23.167 48.666 -28.5 78.999s-8 63.5 -8 99.5c0 21.333 1.83301 46 5.5 74s9.83398 57.167 18.501 87.5s20 60.166 34 89.499s31.5 55.5 52.5 78.5s45.667 41.667 74 56s60.833 21.5 97.5 21.5
c24 0 49.667 -4.33301 77 -13s51.666 -23.667 72.999 -45zM122 272.001c-0.666992 -7.33301 -1.16797 -15.8311 -1.50098 -25.498s-0.5 -19.834 -0.5 -30.501c0 -20 1.5 -40.833 4.5 -62.5s9.16699 -41.834 18.5 -60.501s22.5 -34 39.5 -46s39.167 -18 66.5 -18
c49.333 0 89 16.333 119 49s45 83.334 45 152.001c0 39.333 -8 70.5 -24 93.5s-42.667 34.5 -80 34.5c-18.667 0 -37.667 -3.33301 -57 -10s-37.333 -14.5 -54 -23.5s-31.667 -18.333 -45 -28s-23.666 -17.834 -30.999 -24.501z" />
    <glyph glyph-name="seven" unicode="7" horiz-adv-x="478" 
d="M117 -67c15.333 67.333 34.668 130.668 58.001 190.001s48.666 114 75.999 164s55.5 95.167 84.5 135.5s56.833 74.833 83.5 103.5h-273c-5.33301 0 -9.16602 -0.5 -11.499 -1.5s-4.16602 -4.16699 -5.49902 -9.5l-31 -95l-33 -2l19 148h406l-6 -34
c-30 -27.333 -61.667 -64.333 -95 -111s-64.833 -97.667 -94.5 -153s-55.834 -112.333 -78.501 -171s-38.334 -113.334 -47.001 -164.001h-52z" />
    <glyph glyph-name="eight" unicode="8" horiz-adv-x="482" 
d="M334 329c26.667 -16 49.667 -35.667 69 -59s29 -53.666 29 -90.999c0 -30.667 -5.5 -57.834 -16.5 -81.501s-26.5 -43.667 -46.5 -60s-43.833 -28.666 -71.5 -36.999s-58.167 -12.5 -91.5 -12.5c-24 0 -46.333 3 -67 9s-38.667 15 -54 27s-27.333 26.833 -36 44.5
s-13 37.834 -13 60.501c0 24 4.5 46.333 13.5 67s20.833 40 35.5 58s31.667 34.667 51 50s39.333 30 60 44c-23.333 13.333 -43.333 30.166 -60 50.499s-25 45.5 -25 75.5c0 28 5.66699 52.5 17 73.5s26.333 38.833 45 53.5s39.5 25.667 62.5 33s45.833 11 68.5 11
c27.333 0 50.833 -3.33301 70.5 -10s36.167 -15.834 49.5 -27.501s23.166 -25 29.499 -40s9.5 -30.833 9.5 -47.5c0 -20 -4 -39.167 -12 -57.5s-18.167 -35.5 -30.5 -51.5s-26.166 -31 -41.499 -45s-30.333 -26.333 -45 -37zM235 327
c-46 -30 -81.499 -59.999 -106.499 -89.999s-37.5 -63 -37.5 -99c0 -34 10.833 -60 32.5 -78s54.167 -27 97.5 -27c23.333 0 45 3.66699 65 11s37.167 17.166 51.5 29.499s25.5 27 33.5 44s12 35.5 12 55.5s-3.83301 37.333 -11.5 52s-18.334 28 -32.001 40
s-29.5 22.833 -47.5 32.5zM293.001 349.001c15.333 11.333 29.668 23.167 43.001 35.5s25.166 25.333 35.499 39s18.5 28 24.5 43s9 30.833 9 47.5c0 16 -3 29.667 -9 41s-14.167 20.5 -24.5 27.5s-22 12 -35 15s-26.5 4.5 -40.5 4.5c-16.667 0 -33 -2.5 -49 -7.5
s-30.167 -12.5 -42.5 -22.5s-22.166 -22.167 -29.499 -36.5s-11 -30.5 -11 -48.5c0 -17.333 2.5 -32 7.5 -44s12.667 -23 23 -33s23.666 -19.667 39.999 -29z" />
    <glyph glyph-name="nine" unicode="9" horiz-adv-x="507" 
d="M59 14c18 -17.333 37.665 -30.832 58.998 -40.499s44.333 -14.5 69 -14.5c41.333 0 75.333 10.167 102 30.5s48 44.833 64 73.5s27.833 58.667 35.5 90s12.834 58 15.501 80c-9.33301 -8.66699 -20.833 -17.334 -34.5 -26.001s-28.834 -16.5 -45.501 -23.5
s-34.167 -12.833 -52.5 -17.5s-37.166 -7 -56.499 -7c-26.667 0 -49.667 4.33301 -69 13s-35.166 20.667 -47.499 36s-21.333 33.166 -27 53.499s-8.5 42.5 -8.5 66.5c0 35.333 4.66699 68.333 14 99s23.333 57.334 42 80.001s41.834 40.667 69.501 54s59.834 20 96.501 20
c34 0 62.167 -6.5 84.5 -19.5s40.166 -31.167 53.499 -54.5s22.666 -51 27.999 -83s8 -67.333 8 -106c0 -22 -1.5 -47.333 -4.5 -76s-8.33301 -57.834 -16 -87.501s-18 -58.667 -31 -87s-29.333 -53.666 -49 -75.999s-43.167 -40.333 -70.5 -54s-59 -20.5 -95 -20.5
c-26.667 0 -55 4.66699 -85 14s-56.333 26.333 -79 51zM404.998 282.001c1.33301 6.66699 2 15.999 2 27.999v39c0 20 -1.5 41.333 -4.5 64s-9 43.334 -18 62.001s-22 34.167 -39 46.5s-39.5 18.5 -67.5 18.5c-50 0 -89.833 -18 -119.5 -54s-44.5 -87.333 -44.5 -154
c0 -40 8.5 -71.667 25.5 -95s43.833 -35 80.5 -35c19.333 0 38.333 2.66699 57 8s36.167 12 52.5 20s31 16.667 44 26s23.5 18 31.5 26z" />
    <glyph glyph-name="colon" unicode=":" horiz-adv-x="194" 
d="M185 448c0 -17.333 -5.16699 -32.167 -15.5 -44.5s-25.5 -18.5 -45.5 -18.5c-14 0 -25 3.33301 -33 10s-12 16.667 -12 30c0 21.333 5.5 37.333 16.5 48s25.5 16 43.5 16c30.667 0 46 -13.667 46 -41zM130 50.999c0 -17.333 -5.16699 -32.167 -15.5 -44.5
s-25.5 -18.5 -45.5 -18.5c-14 0 -25 3.33301 -33 10s-12 16.667 -12 30c0 21.333 5.5 37.333 16.5 48s25.5 16 43.5 16c30.667 0 46 -13.667 46 -41z" />
    <glyph glyph-name="semicolon" unicode=";" horiz-adv-x="175" 
d="M-1 -103l47 102.999c2 4.66699 0.666992 8 -4 10l-29 14l32 65c24.667 -2 44.167 -5.66699 58.5 -11s21.5 -16.333 21.5 -33c0 -9.33301 -1.83301 -18.166 -5.5 -26.499s-8.16699 -16.5 -13.5 -24.5l-76 -110zM184 447.999c0 -17.333 -5.16699 -32.167 -15.5 -44.5
s-25.5 -18.5 -45.5 -18.5c-14 0 -25 3.33301 -33 10s-12 16.667 -12 30c0 21.333 5.5 37.333 16.5 48s25.5 16 43.5 16c30.667 0 46 -13.667 46 -41z" />
    <glyph glyph-name="less" unicode="&#x3c;" horiz-adv-x="570" 
d="M101 257l11 62l384 163l17 -43l-366 -152l325 -142l-21 -42z" />
    <glyph glyph-name="equal" unicode="=" horiz-adv-x="570" 
d="M96 186l7 52h366l-8 -52h-365zM116 330l9 52h365l-9 -52h-365z" />
    <glyph glyph-name="greater" unicode="&#x3e;" horiz-adv-x="570" 
d="M490 320l-11 -62l-384 -162l-17 43l366 152l-325 141l21 42z" />
    <glyph glyph-name="question" unicode="?" horiz-adv-x="442" 
d="M151 179l23.002 173.998c32 4 62.667 10.167 92 18.5s55.166 20.166 77.499 35.499s40.166 35.333 53.499 60s20 55 20 91c0 42.667 -11.667 74 -35 94s-59 30 -107 30c-25.333 0 -47.166 -1.66699 -65.499 -5s-31.166 -7 -38.499 -11
c-2.66699 -1.33301 -4.16699 -3 -4.5 -5s-1.83301 -5.66699 -4.5 -11l-21 -63l-37 -2l15 110c2 1.33301 7.83301 3.5 17.5 6.5s21.667 6.16699 36 9.5s30.666 6.33301 48.999 9s37.166 4 56.499 4c28 0 53.667 -2.83301 77 -8.5s43.333 -15 60 -28s29.667 -29.667 39 -50
s14 -45.166 14 -74.499c0 -40.667 -6.83301 -75.167 -20.5 -103.5s-32 -52.166 -55 -71.499s-49.667 -34.666 -80 -45.999s-61.833 -20 -94.5 -26l-18 -137h-49zM208.002 48.998c0 -20.667 -5.16797 -36 -15.501 -46s-25.166 -15 -44.499 -15c-14 0 -25.167 3.5 -33.5 10.5
s-12.5 17.833 -12.5 32.5c0 20 5.5 35.167 16.5 45.5s25.5 15.5 43.5 15.5c30.667 0 46 -14.333 46 -43z" />
    <glyph glyph-name="at" unicode="@" horiz-adv-x="820" 
d="M569 -138c-16.667 -6.66699 -41.999 -14.002 -75.999 -22.002s-74.333 -12 -121 -12c-48.667 0 -93 6.5 -133 19.5s-74.333 32.167 -103 57.5s-50.834 57.333 -66.501 96s-23.5 83.334 -23.5 134.001c0 58.667 10.333 114.167 31 166.5s50 98 88 137
s83.833 69.833 137.5 92.5s113.167 34 178.5 34c44.667 0 85.5 -6 122.5 -18s68.833 -29.833 95.5 -53.5s47.334 -52.667 62.001 -87s22 -74.166 22 -119.499c0 -30.667 -3.33301 -63.667 -10 -99s-17.834 -68.166 -33.501 -98.499s-36.667 -55.5 -63 -75.5
s-59.5 -30 -99.5 -30c-38 0 -64.333 8.33301 -79 25s-22 36.334 -22 59.001l-38 -30c-12.667 -10 -25.5 -19 -38.5 -27s-26.333 -14.5 -40 -19.5s-27.5 -7.5 -41.5 -7.5c-31.333 0 -53.5 9.16699 -66.5 27.5s-19.5 45.166 -19.5 80.499c0 32 5.16699 65.5 15.5 100.5
s25.5 67.167 45.5 96.5s45 53.666 75 72.999s64.667 29 104 29c22 0 43.667 -3.33301 65 -10s39.666 -14 54.999 -22l-50 -193c-4.66699 -16 -8.83398 -31.167 -12.501 -45.5s-6.16699 -27.5 -7.5 -39.5c-2.66699 -23.333 1.66602 -39.333 12.999 -48s27.666 -13 48.999 -13
c28.667 0 53 8.83301 73 26.5s36.333 39.667 49 66s21.834 54.666 27.501 84.999s8.5 58.166 8.5 83.499c0 78.667 -23.5 139.167 -70.5 181.5s-114.5 63.5 -202.5 63.5c-55.333 0 -106.166 -10.167 -152.499 -30.5s-86.166 -48.166 -119.499 -83.499s-59.333 -77 -78 -125
s-28 -99.667 -28 -155c0 -46.667 6.83301 -86.667 20.5 -120s33.334 -60.666 59.001 -81.999s56.5 -37 92.5 -47s76.333 -15 121 -15c30 0 60 3 90 9s58.667 13.667 86 23zM537.001 329.998c-11.333 7.33301 -23.6641 12.5 -36.9971 15.5s-27 4.5 -41 4.5
c-28.667 0 -54 -8.66699 -76 -26s-40.667 -39 -56 -65s-27 -53.833 -35 -83.5s-12 -57.167 -12 -82.5c0 -18 3.16699 -33.333 9.5 -46s19.166 -19 38.499 -19c11.333 0 24.166 3 38.499 9s28.666 13.667 42.999 23s28 19.5 41 30.5s24.167 21.5 33.5 31.5z" />
    <glyph glyph-name="A" unicode="A" horiz-adv-x="668" 
d="M398 695l-187 -410h268zM435 0l4.99805 28.001l87 9l-38 206h-296l-94 -206l77 -9l-5 -28h-187l6 28l41 11c8.66699 2 15.334 5.33301 20.001 10s8.33398 9.66699 11.001 15l306 660h67l135 -668c2 -8.66699 9 -14.334 21 -17.001l43 -11l-5 -28h-194z" />
    <glyph glyph-name="B" unicode="B" horiz-adv-x="644" 
d="M47 0l3.99902 29.001l62 7c7.33301 1.33301 12 3.16602 14 5.49902s3.66699 7.16602 5 14.499l84 610c1.33301 7.33301 1.16602 12.333 -0.500977 15s-5.83398 4.33398 -12.501 5.00098l-61 8l5 30h266c36.667 0 67.167 -3.83301 91.5 -11.5s43.833 -18.167 58.5 -31.5
s25 -29.166 31 -47.499s9 -38.5 9 -60.5c0 -28.667 -4.33301 -54 -13 -76s-20.167 -40.833 -34.5 -56.5s-30.666 -28.667 -48.999 -39s-37.166 -18.5 -56.499 -24.5c47.333 -5.33301 84.5 -22.333 111.5 -51s40.5 -64.334 40.5 -107.001c0 -41.333 -7 -76 -21 -104
s-33.667 -50.5 -59 -67.5s-55.666 -29.167 -90.999 -36.5s-74.333 -11 -117 -11h-267zM318.999 42.001c32 0 62.333 2 91 6s53.5 12.167 74.5 24.5s37.667 29.833 50 52.5s18.5 52.667 18.5 90c0 22.667 -4.33301 42.5 -13 59.5s-20.5 31 -35.5 42s-32.833 19.333 -53.5 25
s-43 8.5 -67 8.5h-167l-41 -308h143zM343.999 392.001c22.667 0 46.167 2.66797 70.5 8.00098s46.5 14.666 66.5 27.999s36.5 31.5 49.5 54.5s19.5 52.167 19.5 87.5c0 40 -12 68.833 -36 86.5s-62.667 26.5 -116 26.5h-134l-39 -291h119z" />
    <glyph glyph-name="C" unicode="C" horiz-adv-x="657" 
d="M585 39c-28 -18 -63 -31.0049 -105 -39.0049s-85.667 -12 -131 -12c-50.667 0 -93.834 7.83301 -129.501 23.5s-64.834 37.167 -87.501 64.5s-39.334 59.833 -50.001 97.5s-16 78.834 -16 123.501c0 63.333 8.66699 122 26 176s43 100.5 77 139.5s76.167 69.5 126.5 91.5
s108.166 33 173.499 33c44.667 0 84.334 -4.83301 119.001 -14.5s62.667 -22.167 84 -37.5l-19 -134l-38 2l-4 92c0 5.33301 -0.666992 9.33301 -2 12s-4.66602 5 -9.99902 7c-19.333 7.33301 -40.333 13.833 -63 19.5s-48 8.5 -76 8.5c-49.333 0 -95 -8.66699 -137 -26
s-78.167 -42.666 -108.5 -75.999s-54.166 -74.166 -71.499 -122.499s-26 -103.166 -26 -164.499c0 -87.333 19.833 -154.333 59.5 -201s100.5 -70 182.5 -70c26 0 54.333 2 85 6s58 11.333 82 22c6.66699 2.66699 11.334 8.33398 14.001 17.001l29 87h33z" />
    <glyph glyph-name="D" unicode="D" horiz-adv-x="761" 
d="M47 0l5.00195 30.999l62 7c6 0.666992 10 2 12 4s3.66699 6.66699 5 14l85 611c1.33301 7.33301 1.16602 12.333 -0.500977 15s-5.83398 4.33398 -12.501 5.00098l-61 7l5 30h276c54 0 100.333 -7.16699 139 -21.5s70.667 -34.333 96 -60s44 -56.667 56 -93
s18 -76.5 18 -120.5c0 -62.667 -8.33301 -120.167 -25 -172.5s-42.167 -97.5 -76.5 -135.5s-78 -67.667 -131 -89s-115.833 -32 -188.5 -32h-264zM321.002 41.999c115.333 0 204 32.999 266 98.999s93 161 93 285c0 48.667 -6.5 89.334 -19.5 122.001s-31.5 59 -55.5 79
s-52.667 34.333 -86 43s-70 13 -110 13h-144l-88 -641h144z" />
    <glyph glyph-name="E" unicode="E" horiz-adv-x="613" 
d="M48 0l3.00195 30.001l63 7c7.33301 1.33301 11.833 3.16602 13.5 5.49902s3.16699 7.16602 4.5 14.499l84 609c1.33301 7.33301 1.33301 12.333 0 15s-5.66602 4.33398 -12.999 5.00098l-60 7l4 31h471l-19 -137l-33 2l-3 81c-0.666992 8.66699 -5.33398 13 -14.001 13
h-284l-39 -296h284l-7 -41h-283l-42 -304h304c5.33301 0 9.16602 0.5 11.499 1.5s4.16602 4.16699 5.49902 9.5l28 88h33l-20 -141h-492z" />
    <glyph glyph-name="F" unicode="F" horiz-adv-x="588" 
d="M49 0l4 30.001l62 7c7.33301 1.33301 11.833 3.16602 13.5 5.49902s3.16699 7.16602 4.5 14.499l83 609c1.33301 7.33301 1.33301 12.333 0 15s-5.66602 4.33398 -12.999 5.00098l-60 7l5 31h467l-19 -137l-32 2l-3 81c-0.666992 8.66699 -5.66699 13 -15 13h-279
l-39 -293h279l-7 -41h-279l-40 -291c-1.33301 -8 -1.33301 -13.167 0 -15.5s5.66602 -3.83301 12.999 -4.5l143 -8l-4 -30h-284z" />
    <glyph glyph-name="G" unicode="G" horiz-adv-x="713" 
d="M663 289c-11.333 -0.666992 -17.333 -5.33203 -18 -13.999l-34 -252c-14 -6 -30.167 -11.167 -48.5 -15.5s-37.5 -8 -57.5 -11s-40.5 -5.16699 -61.5 -6.5s-41.167 -2 -60.5 -2c-56.667 0 -105.167 7.83301 -145.5 23.5s-73.333 37.334 -99 65.001
s-44.334 60.667 -56.001 99s-17.5 80.166 -17.5 125.499c0 61.333 8.66699 118.5 26 171.5s42.833 99.167 76.5 138.5s75.5 70.166 125.5 92.499s107.667 33.5 173 33.5c46 0 86.833 -4.83301 122.5 -14.5s63.5 -22.167 83.5 -37.5l-18 -135l-38 1l-4 96
c0 3.33301 -0.333008 6.5 -1 9.5s-3.33398 5.5 -8.00098 7.5c-19.333 8 -42.166 14.667 -68.499 20s-53.5 8 -81.5 8c-49.333 0 -94.666 -8.5 -135.999 -25.5s-77 -41.833 -107 -74.5s-53.333 -72.667 -70 -120s-25 -101.333 -25 -162c0 -94.667 23.167 -164.5 69.5 -209.5
s113.166 -67.5 200.499 -67.5c30.667 0 61.834 2 93.501 6s57.167 8.66699 76.5 14c3.33301 1.33301 6.5 3 9.5 5s5.16699 6 6.5 12l28 213h-148l14 42h245l-6 -32z" />
    <glyph glyph-name="H" unicode="H" horiz-adv-x="785" 
d="M480 0l5 30.002l62 7c7.33301 1.33301 11.833 3.16602 13.5 5.49902s3.16699 7.16602 4.5 14.499l41 297h-385l-41 -296c-1.33301 -8 -1.33301 -13 0 -15s5.66602 -3.66699 12.999 -5l65 -8l-5 -30h-206l4 30l63 7c7.33301 1.33301 11.833 3.16602 13.5 5.49902
s3.16699 7.16602 4.5 14.499l85 610c1.33301 7.33301 1.33301 12.333 0 15s-5.66602 4.33398 -12.999 5.00098l-60 7l4 30h206l-4 -30l-67 -8c-7.33301 -1.33301 -11.833 -3 -13.5 -5s-3.16699 -6.66699 -4.5 -14l-37 -271h385l37 271c1.33301 7.33301 1.33301 12.333 0 15
s-5.33301 4.33398 -12 5.00098l-61 7l3 30h206l-3 -30l-66 -8c-7.33301 -1.33301 -12 -3 -14 -5s-3.66699 -6.66699 -5 -14l-84 -609c-1.33301 -8 -1.33301 -13 0 -15s5.33301 -3.66699 12 -5l65 -8l-5 -30h-206z" />
    <glyph glyph-name="I" unicode="I" horiz-adv-x="352" 
d="M37 0l4 29.998l73 7c7.33301 0.666992 11.833 2.33398 13.5 5.00098s3.16699 7.66699 4.5 15l85 610c1.33301 7.33301 1.33301 12.333 0 15s-5.66602 4.33398 -12.999 5.00098l-70 7l2 30h227l-3 -30l-78 -8c-6.66699 -1.33301 -11 -3 -13 -5s-3.66699 -6.66699 -5 -14
l-84 -609c-1.33301 -8 -1.33301 -13 0 -15s5.66602 -3.66699 12.999 -5l74 -8l-3 -30h-227z" />
    <glyph glyph-name="J" unicode="J" horiz-adv-x="474" 
d="M359 668c1.33301 7.33301 1.16992 12.168 -0.49707 14.501s-5.83398 3.83301 -12.501 4.5l-79 7l3 30h226l-3 -30l-67 -8c-7.33301 -1.33301 -12 -2.83301 -14 -4.5s-3.66699 -6.16699 -5 -13.5l-75 -532c-6.66699 -50.667 -22.167 -88 -46.5 -112
s-63.833 -36 -118.5 -36c-36.667 0 -67.5 4.16699 -92.5 12.5s-41.167 15.166 -48.5 20.499l15 108l33 -2v-72c0 -3.33301 0.5 -6 1.5 -8s3.83301 -4 8.5 -6c5.33301 -3.33301 15.833 -6.66602 31.5 -9.99902s35.167 -5 58.5 -5c39.333 0 66.666 10.167 81.999 30.5
s25.666 50.166 30.999 89.499z" />
    <glyph glyph-name="K" unicode="K" horiz-adv-x="685" 
d="M546 0l-4.00293 3.99902l-69 120l-162 253l-99 -91l-32 -228c-1.33301 -8 -1.33301 -13 0 -15s5.66602 -3.66699 12.999 -5l69 -8l-6 -30h-206l4 30l60 7c6.66699 1.33301 11 3 13 5s3.66699 7.33301 5 16l85 609c1.33301 7.33301 1.33301 12.333 0 15
s-5.66602 4.33398 -12.999 5.00098l-60 7l5 30h206l-6 -30l-66 -8c-7.33301 -1.33301 -11.833 -3 -13.5 -5s-3.16699 -6.66699 -4.5 -14l-47 -322l350 340l-59 8l5 31h191l-5 -30l-57 -11c-9.33301 -1.33301 -15.666 -3 -18.999 -5s-7.66602 -5.33301 -12.999 -10l-264 -257
l224 -356c4.66699 -7.33301 13.334 -12.333 26.001 -15l58 -10l-5 -30h-104z" />
    <glyph glyph-name="L" unicode="L" horiz-adv-x="595" 
d="M49 0l4.00098 30l61 7c7.33301 1.33301 11.833 3.16602 13.5 5.49902s3.16699 7.16602 4.5 14.499l85 609c1.33301 7.33301 1.33301 12.333 0 15s-5.66602 4.33398 -12.999 5.00098l-60 7l4 31h222l-4 -31l-83 -8c-7.33301 -0.666992 -11.833 -2.16699 -13.5 -4.5
s-3.16699 -7.16602 -4.5 -14.499l-88 -624h307c5.33301 0 9.16602 0.5 11.499 1.5s4.16602 4.16699 5.49902 9.5l27 85h33l-20 -138h-492z" />
    <glyph glyph-name="M" unicode="M" horiz-adv-x="909" 
d="M585 0l2.99805 29.9971l85 9c6 0.666992 10 2.33398 12 5.00098s3.66699 7.66699 5 15l82 589l-292 -457h-44l-171 466l-85 -599c-1.33301 -8 -1.16602 -13.167 0.500977 -15.5s6.16699 -3.83301 13.5 -4.5l86 -8l-3 -30h-228l3 30l63 7
c7.33301 1.33301 11.833 3.33301 13.5 6s3.16699 7.66699 4.5 15l84 608c1.33301 7.33301 1.33301 12.333 0 15s-5.66602 4.33398 -12.999 5.00098l-60 7l4 31h143l173 -483l303 483h144l-4 -30l-67 -8c-7.33301 -1.33301 -12 -3.33301 -14 -6s-3.66699 -9 -5 -19l-84 -604
c-1.33301 -6.66699 -1 -11.167 1 -13.5s6.33301 -4.16602 13 -5.49902l65 -8l-3 -30h-228z" />
    <glyph glyph-name="N" unicode="N" horiz-adv-x="817" 
d="M572 0l-305.001 676.006l-86 -618c-1.33301 -8 -1.33301 -13 0 -15s5.66602 -3.66699 12.999 -5l65 -8l-3 -30h-207l2 30l63 7c7.33301 1.33301 11.833 3.16602 13.5 5.49902s3.16699 7.16602 4.5 14.499l85 609c1.33301 7.33301 1.33301 12.166 0 14.499
s-5.66602 4.16602 -12.999 5.49902l-60 7l4 31h155l295 -670l82 613c1.33301 7.33301 1.33301 12.166 0 14.499s-5.66602 4.16602 -12.999 5.49902l-61 7l4 30h209l-4 -30l-67 -8c-7.33301 -1.33301 -12 -3 -14 -5s-3.66699 -6.66699 -5 -14l-92 -667h-65z" />
    <glyph glyph-name="O" unicode="O" horiz-adv-x="749" 
d="M345 -12c-48.667 0 -90.666 7.66699 -125.999 23s-64.5 36.5 -87.5 63.5s-40.167 59 -51.5 96s-17 77.5 -17 121.5c0 64.667 8.5 124.167 25.5 178.5s41.833 101.333 74.5 141s73 70.5 121 92.5s103.333 33 166 33c47.333 0 88.333 -7.5 123 -22.5
s63.167 -35.5 85.5 -61.5s38.833 -56.333 49.5 -91s16 -72 16 -112c0 -72.667 -8.83301 -137.5 -26.5 -194.5s-42.834 -105.333 -75.501 -145s-72.5 -70 -119.5 -91s-99.5 -31.5 -157.5 -31.5zM350.001 31c45.333 0 87.667 8.66504 127 25.998s73.5 43 102.5 77
s52 75.833 69 125.5s25.5 106.834 25.5 171.501c0 20 -0.833008 40.333 -2.5 61s-6.16699 41.334 -13.5 62.001c-14.667 45.333 -40.167 80 -76.5 104s-82.166 36 -137.499 36c-45.333 0 -88 -8.5 -128 -25.5s-75 -42 -105 -75s-53.667 -74 -71 -123
s-26 -105.167 -26 -168.5c0 -20.667 0.833008 -41.667 2.5 -63s6.16699 -43 13.5 -65c15.333 -45.333 41.166 -80.5 77.499 -105.5s83.833 -37.5 142.5 -37.5z" />
    <glyph glyph-name="P" unicode="P" horiz-adv-x="642" 
d="M47 0l4.00195 30.001l63 7c7.33301 1.33301 12 3.16602 14 5.49902s3.66699 7.16602 5 14.499l84 610c1.33301 7.33301 1.16602 12.333 -0.500977 15s-6.16699 4.33398 -13.5 5.00098l-60 7l4 30h279c39.333 0 72.333 -4.66699 99 -14s48.5 -22.166 65.5 -38.499
s29.167 -35.333 36.5 -57s11 -44.834 11 -69.501c0 -48 -7 -88.667 -21 -122s-34 -60.5 -60 -81.5s-57.667 -36.167 -95 -45.5s-79.333 -14 -126 -14h-126l-31 -224c-0.666992 -8 -0.333984 -13.167 0.999023 -15.5s5.33301 -3.83301 12 -4.5l139 -8l-4 -30h-280z
M339.002 323.001c35.333 0 67.999 2.83301 97.999 8.5s56.333 16.5 79 32.5s40.334 38.167 53.001 66.5s19 65.5 19 111.5s-13.833 81 -41.5 105s-73.167 36 -136.5 36h-145l-49 -360h123z" />
    <glyph glyph-name="Q" unicode="Q" horiz-adv-x="749" 
d="M638 -123c-9.33301 -0.666992 -18.1641 -1.16699 -26.4971 -1.5s-16.5 -0.5 -24.5 -0.5c-44 0 -81.333 5.33301 -112 16s-57.334 22.167 -80.001 34.5s-42.834 23.833 -60.501 34.5s-35.5 16 -53.5 16c-17.333 0 -34 -3 -50 -9s-31.667 -12.667 -47 -20l-19 33
c10.667 6.66699 23.5 12.667 38.5 18s29.5 9.33301 43.5 12v1c-65.333 21.333 -112.333 56.833 -141 106.5s-43 107.834 -43 174.501c0 64.667 8.5 124.167 25.5 178.5s41.833 101.333 74.5 141s73 70.5 121 92.5s103.333 33 166 33c47.333 0 88.333 -7.5 123 -22.5
s63.167 -35.5 85.5 -61.5s38.833 -56.5 49.5 -91.5s16 -72.5 16 -112.5c0 -68 -8 -129.667 -24 -185s-39.5 -102.666 -70.5 -141.999s-69.5 -69.833 -115.5 -91.5s-98.667 -32.834 -158 -33.501v-1c20.667 -12 40.167 -22.833 58.5 -32.5s36.5 -18 54.5 -25
s36.667 -12.5 56 -16.5s40.666 -6 63.999 -6c8 0 16.5 0.166992 25.5 0.5s18.167 1.16602 27.5 2.49902zM353.002 32c45.333 0 87.498 8.66895 126.498 26.002s72.833 43.166 101.5 77.499s51.334 76.666 68.001 126.999s25 108.5 25 174.5c0 19.333 -1 38.833 -3 58.5
s-6.33301 39.167 -13 58.5c-14.667 45.333 -40.167 80 -76.5 104s-82.166 36 -137.499 36c-45.333 0 -88 -8.5 -128 -25.5s-75 -42 -105 -75s-53.667 -74 -71 -123s-26 -105.167 -26 -168.5c0 -20.667 0.833008 -41.667 2.5 -63s6.16699 -43 13.5 -65
c15.333 -45.333 42.333 -80.333 81 -105s86 -37 142 -37z" />
    <glyph glyph-name="R" unicode="R" horiz-adv-x="651" 
d="M507 0l-4.00098 3.00098l-71 264c-4.66699 17.333 -11.5 30.666 -20.5 39.999s-22.167 14 -39.5 14h-156l-37 -263c-1.33301 -8 -1.33301 -13 0 -15s5.66602 -3.66699 12.999 -5l69 -8l-5 -30h-207l4 30l61 7c7.33301 1.33301 11.833 3.16602 13.5 5.49902
s3.16699 7.5 4.5 15.5l85 608c1.33301 7.33301 1.33301 12.333 0 15s-5.66602 4.33398 -12.999 5.00098l-60 7l4 31h260c41.333 0 75.5 -4.5 102.5 -13.5s48.333 -21.333 64 -37s26.667 -34 33 -55s9.5 -43.167 9.5 -66.5c0 -22.667 -3.16699 -44.834 -9.5 -66.501
s-16.5 -42 -30.5 -61s-32.167 -36.333 -54.5 -52s-49.5 -28.834 -81.5 -39.501c17.333 -10 28.833 -22.667 34.5 -38s9.83398 -27.666 12.501 -36.999l51 -199c2 -8.66699 5.33301 -13.667 10 -15s10.667 -2.66602 18 -3.99902l58 -10l-5 -30h-113zM339.999 362.001
c32 0 61.833 4.00098 89.5 12.001s51.5 19.833 71.5 35.5s35.833 35.167 47.5 58.5s17.5 50.666 17.5 81.999c0 26.667 -4.16699 48.667 -12.5 66s-20.333 31 -36 41s-35.167 16.833 -58.5 20.5s-50 5.5 -80 5.5h-113l-44 -321h118z" />
    <glyph glyph-name="S" unicode="S" horiz-adv-x="558" 
d="M497 559l-5 99.0039c0 6 -3.33301 10.667 -10 14c-8.66699 4 -20.167 7.83301 -34.5 11.5s-38.166 5.5 -71.499 5.5c-26.667 0 -51.667 -2.66699 -75 -8s-43.833 -14 -61.5 -26s-31.667 -27.833 -42 -47.5s-15.5 -44.167 -15.5 -73.5c0 -22 3.66699 -40.333 11 -55
s17.5 -27.167 30.5 -37.5s28.167 -19.333 45.5 -27s36.333 -15.167 57 -22.5c21.333 -8 42.166 -16.333 62.499 -25s38.833 -19.834 55.5 -33.501s30 -30.334 40 -50.001s15 -44.167 15 -73.5c0 -40.667 -7 -75.167 -21 -103.5s-33.333 -51.333 -58 -69
s-53.5 -30.334 -86.5 -38.001s-68.167 -11.5 -105.5 -11.5c-22.667 0 -44.5 1.33301 -65.5 4s-40.167 5.83398 -57.5 9.50098s-32.166 7.5 -44.499 11.5s-21.5 7.66699 -27.5 11l19 140h35l6 -94c0.666992 -5.33301 1.5 -8.83301 2.5 -10.5s3.16699 -3.16699 6.5 -4.5
c6.66699 -3.33301 21.5 -7.83301 44.5 -13.5s53.5 -8.5 91.5 -8.5c64.667 0 115.167 13.833 151.5 41.5s54.5 71.167 54.5 130.5c0 22 -3.33301 40.667 -10 56s-15.834 28.166 -27.501 38.499s-25 19.166 -40 26.499s-30.833 14 -47.5 20l-67.5 24.5
c-23 8.33301 -43.667 19 -62 32s-33.333 29.5 -45 49.5s-17.5 46.333 -17.5 79c0 36 7 66.833 21 92.5s33 47 57 64s51.5 29.5 82.5 37.5s63.5 12 97.5 12c42 0 77.667 -4 107 -12s50.333 -14.333 63 -19l-22 -152z" />
    <glyph glyph-name="T" unicode="T" horiz-adv-x="606" 
d="M136 0l4.99902 29.998l98 7c6.66699 0.666992 11 2.33398 13 5.00098s3.66699 7.66699 5 15l87 626h-190c-5.33301 0 -9.16602 -0.5 -11.499 -1.5s-4.16602 -4.16699 -5.49902 -9.5l-27 -89h-32l18 141h558l-19 -141h-32l-4 89c-0.666992 5.33301 -2 8.5 -4 9.5
s-5.33301 1.5 -10 1.5h-193l-86 -626c-1.33301 -7.33301 -1.33301 -12.166 0 -14.499s5.66602 -3.83301 12.999 -4.5l109 -8l-6 -30h-286z" />
    <glyph glyph-name="U" unicode="U" horiz-adv-x="767" 
d="M642 667c0.666992 7.33301 0.498047 12.333 -0.501953 15s-5.16699 4.33398 -12.5 5.00098l-61 7l5 30h204l-5 -30l-65 -8c-7.33301 -1.33301 -12.166 -3 -14.499 -5s-4.16602 -6.66699 -5.49902 -14l-60 -440c-10.667 -84 -38.334 -144.833 -83.001 -182.5
s-109 -56.5 -193 -56.5c-75.333 0 -129.5 16.167 -162.5 48.5s-49.5 78.166 -49.5 137.499c0 8.66699 0.333008 17.667 1 27s1.66699 18.666 3 27.999l57 438c1.33301 7.33301 1.33301 12.333 0 15s-5.33301 4.33398 -12 5.00098l-61 7l6 30h206l-5 -30l-65 -8
c-7.33301 -1.33301 -12.166 -3 -14.499 -5s-4.16602 -6.66699 -5.49902 -14l-59 -439c-1.33301 -8.66699 -2.33301 -17.167 -3 -25.5s-1 -16.166 -1 -23.499c0 -28.667 4 -52.5 12 -71.5s19.5 -34.167 34.5 -45.5s33.167 -19.333 54.5 -24s45.333 -7 72 -7
c30.667 0 58.667 3.16699 84 9.5s47.5 17.166 66.5 32.499s34.667 35.5 47 60.5s21.166 55.833 26.499 92.5z" />
    <glyph glyph-name="V" unicode="V" horiz-adv-x="651" 
d="M270 0l-132.999 666c-1.33301 6 -3.83301 10 -7.5 12s-8.16699 3.66699 -13.5 5l-43 11l6 30h191l-3 -30l-84 -9l126 -648l286 648l-79 9l7 30h189l-4 -30l-42 -11c-8 -2 -14.333 -5 -19 -9s-9.33398 -10.667 -14.001 -20l-296 -654h-67z" />
    <glyph glyph-name="W" unicode="W" horiz-adv-x="921" 
d="M586 0l-80.001 524l-225 -524h-54l-82 666c-0.666992 11.333 -5.66699 17.333 -15 18l-63 10l8 30h213l-5 -30l-91 -10l71 -619l214 504h67l79 -516l241 631l-89 10l5 30h210l-4 -30l-56 -9c-6 -1.33301 -10.667 -3.5 -14 -6.5s-6.66602 -8.5 -9.99902 -16.5l-258 -662
h-62z" />
    <glyph glyph-name="X" unicode="X" horiz-adv-x="635" 
d="M396 0l3.99902 30.002l74 9l-148 298l-213 -298l68 -9l-5 -30h-185l3 28l47 11c10.667 2.66699 20 9 28 19l231 322l-140 286c-2.66699 5.33301 -5.5 9.16602 -8.5 11.499s-7.16699 4.16602 -12.5 5.49902l-39 11l5 30h172l-5 -30l-67 -8l131 -273l206 272l-68 9l6 30
h175l-6 -30l-40 -11c-11.333 -2.66699 -20.666 -9 -27.999 -19l-220 -291l159 -315c2.66699 -5.33301 5.5 -9 8.5 -11s7.16699 -3.66699 12.5 -5l49 -12l-6 -30h-188z" />
    <glyph glyph-name="Y" unicode="Y" horiz-adv-x="567" 
d="M133 0l3.99902 30.001l92 7c6.66699 0.666992 10.834 2.33398 12.501 5.00098s3.16699 8 4.5 16l31 229l-146 379c-2 5.33301 -4.66699 9.16602 -8 11.499s-7.66602 4.16602 -12.999 5.49902l-43 11l5 30h180l-4 -30l-72 -9l130 -352l222 352l-70 9l4 30h179l-5 -30
l-42 -11c-7.33301 -2 -12.833 -4.66699 -16.5 -8s-7.5 -8 -11.5 -14l-241 -371l-30 -232c-1.33301 -8 -1.33301 -13.167 0 -15.5s5.66602 -3.83301 12.999 -4.5l91 -8l-4 -30h-262z" />
    <glyph glyph-name="Z" unicode="Z" horiz-adv-x="612" 
d="M23 0l4.99805 33l522 650h-349c-5.33301 0 -9.16602 -0.5 -11.499 -1.5s-4.16602 -4.16699 -5.49902 -9.5l-31 -95l-37 -3l22 150h482l-4 -35l-523 -647h377c10 0 16.333 4.33301 19 13l32 106h36l-21 -161h-513z" />
    <glyph glyph-name="bracketleft" unicode="[" horiz-adv-x="242" 
d="M45 -143l122 866.998h128l-4 -31l-69 -7c-7.33301 -1.33301 -12 -2.83301 -14 -4.5s-3.66699 -6.5 -5 -14.5l-105 -751c-0.666992 -7.33301 -0.5 -12.166 0.5 -14.499s5.16699 -4.16602 12.5 -5.49902l67 -7l-5 -32h-128z" />
    <glyph glyph-name="backslash" unicode="\" horiz-adv-x="335" 
d="M254 -92l-158 823h43l160 -823h-45z" />
    <glyph glyph-name="bracketright" unicode="]" horiz-adv-x="229" 
d="M-40 -143l5 31.002l68 7c7.33301 1.33301 12 2.83301 14 4.5s3.66699 6.5 5 14.5l106 751c0.666992 7.33301 0.5 12.166 -0.5 14.499s-5.16699 4.16602 -12.5 5.49902l-67 7l4 32h128l-122 -867h-128z" />
    <glyph glyph-name="asciicircum" unicode="^" horiz-adv-x="508" 
d="M438 299l-131 319l-216 -319h-54l248 365h51l150 -365h-48z" />
    <glyph glyph-name="underscore" unicode="_" 
d="M-12 -181l6 38h499l-6 -38h-499z" />
    <glyph glyph-name="grave" unicode="`" 
d="M248 716l43 37l136 -158l-24 -22z" />
    <glyph glyph-name="a" unicode="a" horiz-adv-x="563" 
d="M379 0l14.998 104.001l-44.5 -41.5c-15 -13.667 -30.833 -26 -47.5 -37s-33.834 -20 -51.501 -27s-36.5 -10.5 -56.5 -10.5c-46.667 0 -83 15 -109 45s-39 76.333 -39 139c0 39.333 4.16699 79.5 12.5 120.5s22.166 78.167 41.499 111.5s44.666 60.666 75.999 81.999
s70 32 116 32c30.667 0 59.334 -6.33301 86.001 -19s48.334 -26 65.001 -40l15 49h49c-5.33301 -19.333 -10.166 -38.333 -14.499 -57s-8.16602 -38 -11.499 -58l-47 -336c-1.33301 -8 -1.16602 -13 0.500977 -15s6.16699 -3.66699 13.5 -5l51 -7l-5 -30h-115z
M434.998 411.001c-14.667 16 -35.666 30.9971 -62.999 44.9971s-56.666 21 -87.999 21c-36.667 0 -67.167 -9.66699 -91.5 -29s-44 -43.666 -59 -72.999s-25.667 -61.666 -32 -96.999s-9.5 -68.666 -9.5 -99.999c0 -28.667 2.66699 -52.5 8 -71.5s12.666 -34.333 21.999 -46
s20.333 -19.834 33 -24.501s26.334 -7 41.001 -7c20 0 39.667 4.66699 59 14s37.666 20.833 54.999 34.5s33.666 28.334 48.999 44.001l41 42.5z" />
    <glyph glyph-name="b" unicode="b" horiz-adv-x="566" 
d="M65 0c4 15.333 9.00098 36.001 15.001 62.001s10.667 52.333 14 79l79 552c2 11.333 -1.33301 18.333 -10 21l-56 14l3 27h118l-48 -345c15.333 13.333 31.333 26.333 48 39s33.667 24.167 51 34.5s35.166 18.666 53.499 24.999s36.833 9.5 55.5 9.5
c20 0 38.333 -3.5 55 -10.5s31.167 -18.333 43.5 -34s22 -35.667 29 -60s10.5 -53.833 10.5 -88.5c0 -36 -4.33301 -73.833 -13 -113.5s-22.5 -76 -41.5 -109s-43.5 -60.333 -73.5 -82s-66.333 -32.5 -109 -32.5c-32.667 0 -63 7.33301 -91 22s-51.667 31 -71 49l-14 -59
h-48zM139.001 109.001c7.33301 -8.66699 16.332 -17.5 26.999 -26.5s22.5 -17.333 35.5 -25s27 -14 42 -19s30.833 -7.5 47.5 -7.5c33.333 0 61.833 9.66699 85.5 29s43 43.5 58 72.5s26 60.667 33 95s10.5 66.5 10.5 96.5c0 30.667 -2.5 55.667 -7.5 75
s-11.667 34.5 -20 45.5s-18.166 18.5 -29.499 22.5s-23.666 6 -36.999 6c-18.667 0 -38.334 -4.5 -59.001 -13.5s-40.5 -20 -59.5 -33s-36.667 -26.5 -53 -40.5s-29.5 -26 -39.5 -36z" />
    <glyph glyph-name="c" unicode="c" horiz-adv-x="478" 
d="M397 24c-17.333 -10 -39.835 -18.501 -67.502 -25.501s-56.5 -10.5 -86.5 -10.5c-68 0 -117.833 18.667 -149.5 56s-47.5 87.333 -47.5 150c0 59.333 8 109.5 24 150.5s37.333 74.333 64 100s57.334 44.334 92.001 56.001s71 17.5 109 17.5
c36.667 0 65.167 -3.16699 85.5 -9.5l42.5 -13.5l-15 -114l-37 3l-3 69c0 6 -3.66699 10.333 -11 13s-17 5 -29 7s-27.333 3 -46 3c-28 0 -55.667 -5.16699 -83 -15.5s-51.666 -26.666 -72.999 -48.999s-38.5 -51 -51.5 -86s-19.5 -77.167 -19.5 -126.5
c0 -56.667 12.667 -99.334 38 -128.001s61 -43 107 -43c28 0 55 3.5 81 10.5s46.333 14.5 61 22.5z" />
    <glyph glyph-name="d" unicode="d" horiz-adv-x="567" 
d="M379 0l14.9971 97.998c-12.667 -12 -26.5 -24.333 -41.5 -37s-30.667 -24.5 -47 -35.5s-33.666 -20 -51.999 -27s-37.5 -10.5 -57.5 -10.5c-46.667 0 -83.334 14.833 -110.001 44.5s-40 76.167 -40 139.5c0 37.333 3.83301 76.333 11.5 117s20.834 78 39.501 112
s43.334 62 74.001 84s69 33 115 33c16.667 0 32.667 -2.16699 48 -6.5s29.5 -9.66602 42.5 -15.999s25 -13.5 36 -21.5s20.5 -15.667 28.5 -23l32 244c1.33301 12.667 -2 19.334 -10 20.001l-55 13l3 27h121l-98 -698c-1.33301 -8 -1.16602 -13 0.500977 -15
s6.16699 -3.66699 13.5 -5l51 -7l-4 -30h-116zM434.997 404.998c-7.33301 7.33301 -16.335 15.166 -27.002 23.499s-22.667 16 -36 23s-27.666 12.833 -42.999 17.5s-31 7 -47 7c-36.667 0 -67.167 -9.83301 -91.5 -29.5s-43.833 -44.5 -58.5 -74.5s-25 -62.5 -31 -97.5
s-9 -67.833 -9 -98.5c0 -28.667 2.83301 -52.334 8.5 -71.001s13.167 -33.667 22.5 -45s20.333 -19.333 33 -24s26.334 -7 41.001 -7c20 0 39.333 4.33301 58 13s36.5 19.334 53.5 32.001s33.167 26.334 48.5 41.001l42 40z" />
    <glyph glyph-name="e" unicode="e" horiz-adv-x="461" 
d="M392 24c-23.333 -12.667 -48.833 -21.834 -76.5 -27.501s-56.167 -8.5 -85.5 -8.5c-34 0 -62.833 4.83301 -86.5 14.5s-42.667 23.334 -57 41.001s-24.666 38.834 -30.999 63.501s-9.5 51.667 -9.5 81c0 40 6.16699 79.833 18.5 119.5s30 75 53 106s51 56.167 84 75.5
s70.5 29 112.5 29c24 0 44.167 -3.16699 60.5 -9.5s29.166 -14.5 38.499 -24.5s16 -21.667 20 -35s6 -27 6 -41c0 -26.667 -6.33301 -49.834 -19 -69.501s-29 -36.5 -49 -50.5s-42.667 -25.5 -68 -34.5s-50.833 -16.333 -76.5 -22s-50.167 -10.167 -73.5 -13.5
s-43 -6 -59 -8c0 -28.667 1.83301 -54 5.5 -76s10.667 -40.5 21 -55.5s24.833 -26.5 43.5 -34.5s42.667 -12 72 -12c28.667 0 54.667 2.83301 78 8.5s45.333 13.5 66 23.5zM100 251c20.667 2.66699 47.167 6.50098 79.5 11.501s64 13 95 24s57.667 25.667 80 44
s33.5 42.5 33.5 72.5c0 21.333 -6 38.666 -18 51.999s-32 20 -60 20s-54 -6.16699 -78 -18.5s-45 -28.833 -63 -49.5s-33 -44.5 -45 -71.5s-20 -55.167 -24 -84.5z" />
    <glyph glyph-name="f" unicode="f" horiz-adv-x="361" 
d="M49 -212l96.001 668.001c1.33301 6.66699 -1 10 -7 10h-74l7 42h80l15 112c7.33301 50 24.166 86.833 50.499 110.5s61.5 35.5 105.5 35.5c18.667 0 35.334 -1.83301 50.001 -5.5s27.334 -8 38.001 -13s19.667 -10.167 27 -15.5s12.666 -9.66602 15.999 -12.999l-26 -36
c-3.33301 2.66699 -8.16602 6.16699 -14.499 10.5s-14 8.66602 -23 12.999s-19.333 8.16602 -31 11.499s-24.167 5 -37.5 5c-34.667 0 -60.334 -10.667 -77.001 -32s-27.334 -52 -32.001 -92l-11 -81c-0.666992 -3.33301 -0.666992 -5.83301 0 -7.5s3 -2.5 7 -2.5h166
l-7 -42h-173l-96 -678h-49z" />
    <glyph glyph-name="g" unicode="g" horiz-adv-x="551" 
d="M395 98c-12 -12 -25.3311 -24.502 -39.998 -37.502s-30.334 -24.833 -47.001 -35.5s-34.5 -19.5 -53.5 -26.5s-38.5 -10.5 -58.5 -10.5c-46.667 0 -83.334 14.667 -110.001 44s-40 76 -40 140c0 36.667 3.83301 75.334 11.5 116.001s21 78 40 112
s44.167 62.167 75.5 84.5s70.666 33.5 117.999 33.5c32 0 61.333 -6.5 88 -19.5s48.334 -26.5 65.001 -40.5l15 50h49c-6.66699 -24.667 -12.167 -47 -16.5 -67s-8.16602 -40.667 -11.499 -62l-57 -426c-8 -58.667 -29.5 -102.667 -64.5 -132s-80.833 -44 -137.5 -44
c-42 0 -77.667 4.16699 -107 12.5s-52.333 16.833 -69 25.5l21 42c3.33301 -2.66699 9.5 -6 18.5 -10s20.167 -8 33.5 -12s28.166 -7.5 44.499 -10.5s33.833 -4.5 52.5 -4.5c43.333 0 78.833 9.83301 106.5 29.5s45.167 54.834 52.5 105.501zM436.002 410.998
c-14.667 17.333 -36.002 32.667 -64.002 46s-58 20 -90 20c-36.667 0 -67.167 -9.83301 -91.5 -29.5s-43.833 -44.5 -58.5 -74.5s-25 -62.833 -31 -98.5s-9 -69.167 -9 -100.5c0 -28 2.83301 -51.333 8.5 -70s13.167 -33.5 22.5 -44.5s20.333 -18.833 33 -23.5
s26.334 -7 41.001 -7c20 0 39.333 4.33301 58 13s36.667 19.5 54 32.5s33.833 27 49.5 42s29.834 29.167 42.501 42.5z" />
    <glyph glyph-name="h" unicode="h" horiz-adv-x="616" 
d="M423 0l-2.00195 3l20 101l31 213c2.66699 16 4.33398 32 5.00098 48s1 28.333 1 37c0 23.333 -5.16699 41 -15.5 53s-27.833 18 -52.5 18c-18 0 -36.833 -3.66699 -56.5 -11s-39.334 -17 -59.001 -29s-39 -25.5 -58 -40.5s-37.167 -30.167 -54.5 -45.5l-38 -289
c-1.33301 -8 -1.16602 -13 0.500977 -15s6.16699 -3.66699 13.5 -5l71 -8l-5 -30h-206l6 31l50 7c8.66699 1.33301 14 3 16 5s3.66699 7 5 15l88 635c2 12 -1 19 -9 21l-57 14l3 27h119l-49 -351c39.333 32 77.166 59 113.499 81s73.5 33 111.5 33
c40.667 0 69.834 -10.5 87.501 -31.5s26.5 -50.5 26.5 -88.5c0 -8.66699 -0.5 -18.667 -1.5 -30s-2.16699 -22 -3.5 -32l-40 -278c-1.33301 -8 -1.16602 -13 0.500977 -15s6.16699 -3.66699 13.5 -5l60 -8l-5 -30h-130z" />
    <glyph glyph-name="i" unicode="i" horiz-adv-x="279" 
d="M180 644c-13.333 0 -23.667 3.16602 -31 9.49902s-11 15.166 -11 26.499c0 14 4.83301 26 14.5 36s23.167 15 40.5 15c12.667 0 22.5 -3.16699 29.5 -9.5s10.5 -15.166 10.5 -26.499c0 -13.333 -4.83301 -25.166 -14.5 -35.499s-22.5 -15.5 -38.5 -15.5z
M79.999 -0.000976562l-2.00098 4l19 98l49 346c2 11.333 -1.66699 18.333 -11 21l-55 12l3 27h121l-65 -450c-1.33301 -8 -1.16602 -13 0.500977 -15s6.16699 -3.66699 13.5 -5l68 -8l-5 -30h-136z" />
    <glyph glyph-name="j" unicode="j" horiz-adv-x="265" 
d="M144 447c2 13.333 -1.00293 20.334 -9.00293 21.001l-63 13l6 27h123l-82 -582c-7.33301 -51.333 -21 -89 -41 -113s-52 -36 -96 -36c-25.333 0 -48.666 4.66699 -69.999 14s-35.666 17.666 -42.999 24.999l25 36c7.33301 -6 19.333 -13 36 -21s33.667 -12 51 -12
c16 0 29.333 2.83301 40 8.5s19.167 13.667 25.5 24s11.333 22.833 15 37.5s6.83398 31 9.50098 49zM180.997 644.001c-13.333 0 -23.667 3.16602 -31 9.49902s-11 15.166 -11 26.499c0 14 4.83301 26 14.5 36s23.167 15 40.5 15c13.333 0 23.333 -3.16699 30 -9.5
s10 -15.166 10 -26.499c0 -13.333 -4.66699 -25.166 -14 -35.499s-22.333 -15.5 -39 -15.5z" />
    <glyph glyph-name="k" unicode="k" horiz-adv-x="562" 
d="M399 0l-2.99902 3l-34 93l-85 189l-122 -114l-15 -113c-1.33301 -8 -1.33301 -13 0 -15s5.66602 -3.66699 12.999 -5l74 -8l-5 -30h-206l6 31l51 7c7.33301 1.33301 11.833 3.16602 13.5 5.49902s3.16699 7.16602 4.5 14.499l90 636c2 10.667 -1.33301 17.334 -10 20.001
l-56 14l4 27h120l-74 -520l242 241c13.333 12.667 27.333 22.834 42 30.501s32.667 11.5 54 11.5c4.66699 0 9.83398 -0.166992 15.501 -0.5s11.5 -0.833008 17.5 -1.5l-4 -39c-10.667 0 -20.334 -0.5 -29.001 -1.5s-17.167 -3.33301 -25.5 -7s-17 -9 -26 -16
s-19.5 -16.167 -31.5 -27.5l-105 -102l112 -262c4 -8 9.66699 -13 17 -15l73 -16l-6 -30h-112z" />
    <glyph glyph-name="l" unicode="l" horiz-adv-x="277" 
d="M74 0l-2.00098 4l19 98l84 592c2 11.333 -2 18.333 -12 21l-55 13l4 27h119l-97 -697c-1.33301 -8 -1.16602 -13 0.500977 -15s6.16699 -3.66699 13.5 -5l67 -8l-5 -30h-136z" />
    <glyph glyph-name="m" unicode="m" horiz-adv-x="905" 
d="M714 0l-2.00586 4.00488l15 70l35 243c3.33301 23.333 5.83301 42.5 7.5 57.5s2.5 27.167 2.5 36.5c0 20.667 -4 36.5 -12 47.5s-24 16.5 -48 16.5c-13.333 0 -26.666 -2.33301 -39.999 -7s-28 -12.334 -44 -23.001s-34.167 -24.167 -54.5 -40.5l-71.5 -59.5l-41 -287
c-1.33301 -8 -1.16602 -13 0.500977 -15s6.16699 -3.66699 13.5 -5l61 -8l-4 -30h-131l-3 4l20 92l32 221c2.66699 17.333 4.66699 34.833 6 52.5s2 30.5 2 38.5c0 28 -5 46.167 -15 54.5s-25.667 12.5 -47 12.5c-16 0 -33.667 -4.16699 -53 -12.5
s-38.666 -18.833 -57.999 -31.5s-38.166 -26.334 -56.499 -41.001s-34.5 -28.667 -48.5 -42l-38 -290c-1.33301 -8 -1.16602 -13 0.500977 -15s6.16699 -3.66699 13.5 -5l70 -8l-5 -30h-203l6 31l51 7c7.33301 1.33301 12 3.16602 14 5.49902s3.66699 7.16602 5 14.499
l52 388c2 11.333 -1 18.333 -9 21l-56 14l3 27h119l-15 -107c44 38 82.667 67.167 116 87.5s67 30.5 101 30.5c40 0 68.167 -10.667 84.5 -32s22.166 -52 17.499 -92l44 38.5c16 14.333 33 27.666 51 39.999s37 22.833 57 31.5s40 13 60 13
c38.667 0 65.334 -9.16699 80.001 -27.5s21.667 -43.5 21 -75.5c0 -7.33301 -0.666992 -18.333 -2 -33s-3 -28.667 -5 -42l-41 -282c-1.33301 -8 -1.16602 -13 0.500977 -15s6.16699 -3.66699 13.5 -5l62 -8l-5 -30h-129z" />
    <glyph glyph-name="n" unicode="n" horiz-adv-x="619" 
d="M426 0l-1.99805 3.99902l19 97l31 216c2 14.667 3.66699 28.334 5 41.001s2 23.334 2 32.001c0 32 -5.5 53.833 -16.5 65.5s-29.833 17.5 -56.5 17.5c-18.667 0 -38.167 -4.16699 -58.5 -12.5s-40.5 -18.833 -60.5 -31.5s-39.333 -26.167 -58 -40.5l-49 -38.5l-39 -292
c-1.33301 -8 -1.16602 -13 0.500977 -15s6.16699 -3.66699 13.5 -5l71 -8l-5 -30h-205l6 31l51 7c7.33301 1.33301 12 3.16602 14 5.49902s3.66699 7.16602 5 14.499l53 388c2 12 -1 19 -9 21l-56 14l3 27h119l-14 -103c17.333 14.667 35.166 28.834 53.499 42.501
s37.166 25.667 56.499 36s38.666 18.666 57.999 24.999s38.666 9.5 57.999 9.5c42 0 71.667 -10.167 89 -30.5s26 -50.166 26 -89.499c0 -8 -0.5 -18 -1.5 -30s-2.16699 -22.667 -3.5 -32l-40 -278c-1.33301 -8 -1.16602 -13 0.500977 -15s6.5 -3.66699 14.5 -5l59 -8
l-5 -30h-129z" />
    <glyph glyph-name="o" unicode="o" horiz-adv-x="547" 
d="M239 -12c-34 0 -63.166 4.83301 -87.499 14.5s-44.333 23.5 -60 41.5s-27.334 39.5 -35.001 64.5s-11.5 52.5 -11.5 82.5c0 47.333 5.66699 90.833 17 130.5s28.5 74.167 51.5 103.5s51.5 52.166 85.5 68.499s73.333 24.5 118 24.5c34 0 62.833 -5.16699 86.5 -15.5
s43.167 -24.666 58.5 -42.999s26.5 -40 33.5 -65s10.5 -52.167 10.5 -81.5c0 -50.667 -6.16699 -96.167 -18.5 -136.5s-30 -74.5 -53 -102.5s-51 -49.333 -84 -64s-70.167 -22 -111.5 -22zM245.001 30c64.667 0 116.001 24.667 154.001 74s57 119.333 57 210
c0 52 -12.333 91.667 -37 119s-61 41 -109 41c-66.667 0 -119.334 -24 -158.001 -72s-58 -115.667 -58 -203c0 -54 12.5 -95.667 37.5 -125s62.833 -44 113.5 -44z" />
    <glyph glyph-name="p" unicode="p" horiz-adv-x="571" 
d="M52 -212l-3.99902 4.00195l27 171l66 483c2 12 -1 19 -9 21l-57 14l4 27h120l-14 -102c16 14.667 32.167 28.667 48.5 42s33 25.166 50 35.499s34.5 18.666 52.5 24.999s36.667 9.5 56 9.5c20 0 38.667 -3.5 56 -10.5s32.166 -18 44.499 -33s22 -34.5 29 -58.5
s10.5 -53.333 10.5 -88c0 -36.667 -4.16699 -75 -12.5 -115s-21.833 -76.667 -40.5 -110s-43 -60.833 -73 -82.5s-66.333 -32.5 -109 -32.5c-34 0 -63.667 6.5 -89 19.5s-49.333 30.833 -72 53.5l-29 -210c-1.33301 -8.66699 -1.5 -14.167 -0.5 -16.5
s5.16699 -3.83301 12.5 -4.5l86 -6l-5 -36h-148zM145.001 114.002c8 -9.33301 17.335 -18.999 28.002 -28.999s22.334 -19.167 35.001 -27.5s26.167 -15.166 40.5 -20.499s29.166 -8 44.499 -8c35.333 0 65 9.66699 89 29s43.5 43.5 58.5 72.5s25.833 60.833 32.5 95.5
s10 67 10 97c0 31.333 -2.5 56.833 -7.5 76.5s-11.667 35 -20 46s-18.333 18.5 -30 22.5s-24.5 6 -38.5 6c-16.667 0 -35 -4.66699 -55 -14s-39.833 -20.833 -59.5 -34.5s-37.834 -27.834 -54.501 -42.501s-30.334 -27.334 -41.001 -38.001z" />
    <glyph glyph-name="q" unicode="q" horiz-adv-x="550" 
d="M269 -212l5.00293 35.998l68 7c7.33301 0.666992 11.666 2 12.999 4s2.66602 7.33301 3.99902 16l34 245c-12.667 -12.667 -26.334 -25.5 -41.001 -38.5s-30.5 -24.667 -47.5 -35s-34.667 -18.833 -53 -25.5s-37.166 -10 -56.499 -10c-26.667 0 -49.5 4.66699 -68.5 14
s-34.5 22.333 -46.5 39s-20.833 36.334 -26.5 59.001s-8.5 47 -8.5 73c0 38.667 4 78.5 12 119.5s21.333 78.167 40 111.5s43.5 60.833 74.5 82.5s69.167 32.5 114.5 32.5c32 0 62.167 -5.83301 90.5 -17.5s51.166 -24.834 68.499 -39.501l15 47h48
c-6.66699 -24.667 -12.167 -47 -16.5 -67s-8.16602 -40.667 -11.499 -62l-71 -528c-1.33301 -7.33301 -1.33301 -12.166 0 -14.499s5.66602 -4.16602 12.999 -5.49902l50 -6l-5 -37h-198zM436.003 414.998c-15.333 15.333 -36.666 29.167 -63.999 41.5s-57 18.5 -89 18.5
c-36.667 0 -67.334 -9.83301 -92.001 -29.5s-44.334 -44.334 -59.001 -74.001s-25 -62.167 -31 -97.5s-9 -68.666 -9 -99.999c0 -28 2.83301 -51.333 8.5 -70s13.334 -33.5 23.001 -44.5s21 -18.833 34 -23.5s26.833 -7 41.5 -7c18.667 0 37.167 4 55.5 12
s36 18.167 53 30.5s33.5 26.333 49.5 42s30.667 31.167 44 46.5z" />
    <glyph glyph-name="r" unicode="r" horiz-adv-x="414" 
d="M18 0l5.99902 30.998l53 6c9.33301 0.666992 15 7.33398 17 20.001l53 389c2 12 -1 19 -9 21l-56 14l3 27h117l-14 -107c10.667 12.667 22.5 25.834 35.5 39.501s26.833 26.334 41.5 38.001s30 21.167 46 28.5s32 11 48 11c11.333 0 21.166 -0.833008 29.499 -2.5
s16.833 -3.83398 25.5 -6.50098l-18 -128l-34 3l-3 81c0 3.33301 -0.333008 5.5 -1 6.5s-3.66699 1.5 -9 1.5c-15.333 0 -38.166 -12 -68.499 -36s-63.5 -56 -99.5 -96l-39 -284c-1.33301 -8 -1.16602 -13.167 0.500977 -15.5s6.16699 -3.83301 13.5 -4.5l86 -7l-5 -30h-219
z" />
    <glyph glyph-name="s" unicode="s" horiz-adv-x="432" 
d="M357 378l-3.00195 73.0029c0 8 -3 13 -9 15c-6 2.66699 -15.5 5.16699 -28.5 7.5s-30.833 3.5 -53.5 3.5c-18 0 -35 -2 -51 -6s-29.833 -10 -41.5 -18s-21 -18 -28 -30s-10.5 -26 -10.5 -42c0 -25.333 7.83301 -44.5 23.5 -57.5s37.834 -25.5 66.501 -37.5l53.5 -22.5
c17.667 -7.66699 33.5 -17 47.5 -28s25.5 -24.333 34.5 -40s13.5 -35.167 13.5 -58.5c0 -28 -5.16699 -51.5 -15.5 -70.5s-24 -34.333 -41 -46s-36.167 -20 -57.5 -25s-43 -7.5 -65 -7.5c-45.333 0 -83 4 -113 12s-49.333 14.333 -58 19l17 120l36 -2l3 -78
c0 -4 1 -6.83301 3 -8.5s6 -3.83398 12 -6.50098c10 -3.33301 23 -6.83301 39 -10.5s35.667 -5.5 59 -5.5c40.667 0 72.5 9 95.5 27s34.5 44 34.5 78c0 18 -3 32.667 -9 44s-14.833 21.166 -26.5 29.499s-25.667 15.833 -42 22.5l-55.5 23
c-30.667 12.667 -55.667 28.167 -75 46.5s-29 43.833 -29 76.5c0 26 5.33301 48.167 16 66.5s24.834 33.166 42.501 44.499s37.667 19.5 60 24.5s45.5 7.5 69.5 7.5c36 0 65.833 -3.33301 89.5 -10s39.5 -11.667 47.5 -15l-16 -118z" />
    <glyph glyph-name="t" unicode="t" horiz-adv-x="384" 
d="M327 13c-17.333 -7.33301 -36.832 -13.333 -58.499 -18s-43.167 -7 -64.5 -7c-72 0 -108 30.667 -108 92c0 3.33301 0.166992 7 0.5 11s0.833008 7.66699 1.5 11l49 355c0.666992 3.33301 0.666992 5.83301 0 7.5s-2.66699 2.5 -6 2.5h-73l4 31
c15.333 2.66699 28.666 6.33398 39.999 11.001s21.333 11.667 30 21s16.5 21.666 23.5 36.999s13.5 34.666 19.5 57.999h34l-14 -107c-0.666992 -6.66699 1 -10 5 -10h148l-6 -41h-155l-47 -341c-2 -14 -3 -26.667 -3 -38c0 -19.333 5 -34.166 15 -44.499s27 -15.5 51 -15.5
c17.333 0 34.833 2.5 52.5 7.5s34.167 10.167 49.5 15.5z" />
    <glyph glyph-name="u" unicode="u" horiz-adv-x="615" 
d="M424 0l15.0029 107.001c-40 -34 -78.167 -62.5 -114.5 -85.5s-74.166 -34.5 -113.499 -34.5c-32.667 0 -59.5 8.66699 -80.5 26s-31.5 48.333 -31.5 93c0 8.66699 0.666992 19.167 2 31.5s2.66602 23.5 3.99902 33.5l39 279c1.33301 8 1.16602 13 -0.500977 15
s-6.16699 3.66699 -13.5 5l-54 8l4 30h120l1 -2l-45 -317c-2.66699 -16.667 -4.5 -31.5 -5.5 -44.5s-1.5 -22.833 -1.5 -29.5c0 -28 5 -49.167 15 -63.5s28.667 -21.5 56 -21.5c20 0 41.667 5.83301 65 17.5s45.666 25 66.999 40s40.5 30 57.5 45l37.5 32.5l39 285
c1.33301 8 1.16602 13 -0.500977 15s-6.16699 3.66699 -13.5 5l-65 8l5 30h130l2 -2l-63 -451c-2 -10.667 1 -16.334 9 -17.001l58 -9l-4 -29h-120z" />
    <glyph glyph-name="v" unicode="v" horiz-adv-x="507" 
d="M189 0l-96.002 452c-1.33301 6 -3.16602 10 -5.49902 12s-6.16602 3.66699 -11.499 5l-42 9l5 30h98l3 -4l12 -92l73 -369l208 425l-64 11l5 29h130l2 -4l-258 -504h-59z" />
    <glyph glyph-name="w" unicode="w" horiz-adv-x="781" 
d="M479 0l-64 451l-191 -451h-61l-70 452c-1.33301 9.33301 -6.33301 15 -15 17l-44 9l4 30h95l3 -4l8 -79l56 -376l192 459h60l66 -466l190 426l-67 10l5 30h126l2 -4l-231 -504h-64z" />
    <glyph glyph-name="x" unicode="x" horiz-adv-x="539" 
d="M382 0l-5.99609 4.99902l-31 69l-79 157l-151 -192l69 -9l-3 -30h-193l4 31l58 11c5.33301 1.33301 9.33301 2.5 12 3.5s6.66699 5.16699 12 12.5l168 213l-92 185c-2.66699 5.33301 -5.33398 9.33301 -8.00098 12s-7 4.33398 -13 5.00098l-39 4l5 31h85l3 -3l32 -76
l63 -127l143 168l-60 8l5 30h166l-5 -30l-41 -10c-6.66699 -1.33301 -11.834 -3.5 -15.501 -6.5s-7.5 -7.16699 -11.5 -12.5l-160 -184l105 -205c3.33301 -6.66699 6.66602 -11 9.99902 -13s7.66602 -3.66699 12.999 -5l65 -12l-5 -30h-105z" />
    <glyph glyph-name="y" unicode="y" horiz-adv-x="490" 
d="M191 24l-96 429.002c-1.33301 6 -3.16602 10 -5.49902 12s-6.16602 3.66699 -11.499 5l-41 11l7 27h96l3 -3l21 -123l63 -296l188 383l-62 12l3 27h129l3 -4l-293 -577c-12.667 -25.333 -24.834 -47.5 -36.501 -66.5s-23.834 -34.667 -36.501 -47s-27 -21.5 -43 -27.5
s-35 -9 -57 -9c-26.667 0 -50.334 4.83301 -71.001 14.5s-34.667 18.167 -42 25.5l26 37c2 -2 5.83301 -4.83301 11.5 -8.5s12.667 -7.33398 21 -11.001s17.333 -6.83398 27 -9.50098s18.834 -4 27.501 -4c14 0 26 1.66699 36 5s19.333 9.33301 28 18s17.667 20.5 27 35.5
s20.333 34.5 33 58.5z" />
    <glyph glyph-name="z" unicode="z" horiz-adv-x="486" 
d="M20 0l4 32l374 432h-235c-6 0 -10.333 -4.33301 -13 -13l-22 -71l-38 -3l18 131h364l-4 -33l-376 -431h250c8 0 13.333 4.33301 16 13l25 80l37 3l-19 -140h-381z" />
    <glyph glyph-name="braceleft" unicode="{" horiz-adv-x="257" 
d="M175 -145c-39.333 6 -69.0039 15.3311 -89.0039 27.998s-30 34 -30 64c0 16 2.83301 37.333 8.5 64l17.5 80c3.33301 15.333 7.16602 31.833 11.499 49.5s6.5 35.167 6.5 52.5c0 16 -2.16699 28.667 -6.5 38s-10.333 16.5 -18 21.5s-16.5 8.33301 -26.5 10
s-21 2.83398 -33 3.50098l7 45c17.333 0 33.833 2.66699 49.5 8s29.834 16.666 42.501 33.999c8.66699 12 15 35.167 19 69.5s7.33301 86.5 10 156.5c1.33301 26 4.66602 47.667 9.99902 65s14 31.5 26 42.5s28.333 19.5 49 25.5s46.334 11 77.001 15l1 -41
c-26 -4 -46.667 -8.66699 -62 -14s-26.833 -12 -34.5 -20s-12.667 -17.667 -15 -29s-4.16602 -25.333 -5.49902 -42c-2.66699 -45.333 -5.16699 -84.5 -7.5 -117.5s-4.16602 -54.5 -5.49902 -64.5c-2.66699 -19.333 -7.5 -35.666 -14.5 -48.999s-14.667 -24.333 -23 -33
s-16.833 -15 -25.5 -19s-16.667 -6.66699 -24 -8c6.66699 -2.66699 13.334 -6 20.001 -10s12.834 -9.16699 18.501 -15.5s10.167 -14.5 13.5 -24.5s5 -23 5 -39c0 -20 -2 -39 -6 -57l-14 -61l-7 -34.5c-2.66699 -13 -5.16699 -25.833 -7.5 -38.5s-4.33301 -24.167 -6 -34.5
s-2.5 -17.833 -2.5 -22.5c0 -18.667 6.5 -31.667 19.5 -39s35.167 -14.666 66.5 -21.999z" />
    <glyph glyph-name="bar" unicode="|" horiz-adv-x="279" 
d="M76 -143l125 867h43l-124 -867h-44z" />
    <glyph glyph-name="braceright" unicode="}" horiz-adv-x="274" 
d="M105 727c39.333 -6 69.001 -15.5059 89.001 -28.5059s30 -34.5 30 -64.5c0 -15.333 -3 -36.166 -9 -62.499s-11.667 -53.166 -17 -80.499c-3.33301 -17.333 -7.16602 -33.5 -11.499 -48.5s-6.5 -32.833 -6.5 -53.5c0 -16 2.16699 -28.667 6.5 -38
s10.333 -16.666 18 -21.999s16.5 -8.83301 26.5 -10.5s21 -2.83398 33 -3.50098l-7 -44c-17.333 0 -33.833 -2.66699 -49.5 -8s-29.834 -16.666 -42.501 -33.999c-4 -6 -7.33301 -14.167 -10 -24.5s-5 -24 -7 -41s-3.83301 -37.667 -5.5 -62s-3.5 -53.5 -5.5 -87.5
c-2 -26 -5.33301 -48.167 -10 -66.5s-13 -33.666 -25 -45.999s-28.167 -22.166 -48.5 -29.499s-46.833 -13 -79.5 -17l-1 41c26 4 46.5 9.33301 61.5 16s26.333 14.334 34 23.001s12.834 18.5 15.501 29.5s4.66699 23.167 6 36.5c1.33301 22.667 2.5 44.334 3.5 65.001
s2.16699 39.334 3.5 56.001l3.5 43c1 12 1.83301 20.333 2.5 25c3.33301 20.667 8.5 37.5 15.5 50.5s14.5 23.167 22.5 30.5s16.333 12.666 25 15.999s16.667 5.66602 24 6.99902c-6.66699 3.33301 -13.334 7 -20.001 11s-12.834 9.16699 -18.501 15.5
s-10.167 14.5 -13.5 24.5s-5 22 -5 36c0 20 2 39 6 57l14 61l7 34.5c2.66699 13 5.16699 25.833 7.5 38.5s4.33301 24.167 6 34.5s2.5 17.833 2.5 22.5c0 18.667 -6.5 31.5 -19.5 38.5s-35.167 14.167 -66.5 21.5z" />
    <glyph glyph-name="asciitilde" unicode="~" horiz-adv-x="452" 
d="M473 388c-4.66699 -10.667 -9.83496 -21.3311 -15.502 -31.998s-12.334 -20.334 -20.001 -29.001s-16.667 -15.5 -27 -20.5s-23.166 -7.5 -38.499 -7.5c-18 0 -37 2.5 -57 7.5s-39.667 10.5 -59 16.5s-38.166 11.5 -56.499 16.5s-34.833 7.5 -49.5 7.5
c-8 0 -15 -1 -21 -3s-11.833 -5.33301 -17.5 -10s-11.667 -10.834 -18 -18.501l-22.5 -28.5l-34 16c18 25.333 35.333 45.666 52 60.999s39.334 23 68.001 23c19.333 0 38.333 -2.5 57 -7.5s37.334 -10.5 56.001 -16.5s36.667 -11.5 54 -16.5s34 -7.5 50 -7.5
c16.667 0 29.167 5.33301 37.5 16s17.166 25.334 26.499 44.001z" />
    <glyph glyph-name="uni00A0" unicode="&#xa0;" horiz-adv-x="236" 
 />
    <glyph glyph-name="sterling" unicode="&#xa3;" horiz-adv-x="534" 
d="M42 0l-5.99707 37.0039c22.667 18 40.5 35.667 53.5 53s23.167 35.5 30.5 54.5s12.666 39.5 15.999 61.5l11 74l4 31h-86l7 42h84l12 86c4.66699 32.667 11.5 61.834 20.5 87.501s21.5 47.167 37.5 64.5s36.333 30.666 61 39.999s54.667 14 90 14
c18.667 0 36 -1.83301 52 -5.5s30.167 -7.83398 42.5 -12.501s22.666 -9.5 30.999 -14.5s14.166 -9.16699 17.499 -12.5l-22 -34c-2.66699 1.33301 -7.66699 4.16602 -15 8.49902s-16.333 8.66602 -27 12.999s-22.667 8.16602 -36 11.499s-27.333 5 -42 5
c-48 0 -84.333 -11.5 -109 -34.5s-41 -63.5 -49 -121.5l-13 -95h201l-7 -42h-200l-7 -54c-2.66699 -21.333 -5.66699 -41.333 -9 -60s-8.33301 -36.5 -15 -53.5s-15.667 -33.667 -27 -50s-26.333 -32.5 -45 -48.5h296c5.33301 0 9.33301 0.5 12 1.5s4.66699 4.16699 6 9.5
l28 89h37l-18 -145h-417z" />
    <glyph glyph-name="currency" unicode="&#xa4;" horiz-adv-x="570" 
d="M520 11l-95.998 92.999c-17.333 -13.333 -37.833 -24.166 -61.5 -32.499s-49.834 -12.5 -78.501 -12.5c-32 0 -59.667 4.16699 -83 12.5s-43.666 19.833 -60.999 34.5l-94 -95l-38 36l97 97c-13.333 19.333 -22.666 40.5 -27.999 63.5s-8 47.5 -8 73.5
c0 23.333 3 45.833 9 67.5s15.667 41.834 29 60.501l-96 95l42 39l92 -93c18 16 39.167 28.667 63.5 38s52.166 14 83.499 14c59.333 0 107.666 -16 144.999 -48l88 88l37 -37l-90 -92c22.667 -35.333 34 -78 34 -128c0 -25.333 -3.33301 -49.833 -10 -73.5
s-17.334 -45.834 -32.001 -66.501l97 -96zM289.002 103.999c25.333 0 48.168 4.49805 68.501 13.498s37.666 21.5 51.999 37.5s25.333 34.833 33 56.5s11.5 44.834 11.5 69.501c0 54 -14 96.5 -42 127.5s-68 46.5 -120 46.5c-26.667 0 -50.334 -4.33301 -71.001 -13
s-38 -20.667 -52 -36s-24.667 -33.666 -32 -54.999s-11 -44.666 -11 -69.999c0 -24.667 2.83301 -47.834 8.5 -69.501s14.834 -40.5 27.501 -56.5s29.5 -28.5 50.5 -37.5s46.5 -13.5 76.5 -13.5z" />
    <glyph glyph-name="brokenbar" unicode="&#xa6;" horiz-adv-x="279" 
d="M76 -143l55 388h44l-55 -388h-44zM152 389l49 335h44l-49 -335h-44z" />
    <glyph glyph-name="section" unicode="&#xa7;" horiz-adv-x="534" 
d="M97 -65c0 -4.66699 0.666992 -7.66992 2 -9.00293s3.66602 -2.66602 6.99902 -3.99902c10.667 -4.66699 24.834 -9.16699 42.501 -13.5s36.834 -6.5 57.501 -6.5c40.667 0 72.667 8.66699 96 26s35 43 35 77c0 16 -2.83301 29.667 -8.5 41s-13.5 21 -23.5 29
s-21.5 14.667 -34.5 20s-26.833 10 -41.5 14c-20 6 -39 12.167 -57 18.5s-34 14.333 -48 24s-25.167 21.667 -33.5 36s-12.5 32.166 -12.5 53.499c0 16.667 3 31.834 9 45.501s13.667 26.167 23 37.5s20 22 32 32l36 30c-9.33301 8.66699 -18.166 20.5 -26.499 35.5
s-12.5 33.5 -12.5 55.5c0 25.333 5.16699 47.333 15.5 66s24.333 34.167 42 46.5s38.5 21.5 62.5 27.5s49.667 9 77 9c36 0 65.5 -3.5 88.5 -10.5s38.167 -12.167 45.5 -15.5l-16 -118l-39 2l-3 79c0 2 -0.5 4.33301 -1.5 7s-3.16699 4.66699 -6.5 6
c-9.33301 3.33301 -20.666 5.83301 -33.999 7.5s-27.666 2.5 -42.999 2.5c-26.667 0 -48.834 -3.16699 -66.501 -9.5s-31.834 -14.333 -42.501 -24s-18.334 -20.667 -23.001 -33s-7 -24.5 -7 -36.5c0 -16.667 2.83301 -30.5 8.5 -41.5s13.834 -20.333 24.501 -28
s23.167 -14 37.5 -19s30.166 -9.83301 47.499 -14.5c18.667 -4.66699 36.5 -10 53.5 -16s32.167 -13.5 45.5 -22.5s24 -20.167 32 -33.5s12 -30 12 -50c0 -18 -2.83301 -34 -8.5 -48s-13.167 -27 -22.5 -39s-20.166 -23.5 -32.499 -34.5l-38.5 -34.5
c13.333 -13.333 23.666 -26.666 30.999 -39.999s11 -29.666 11 -48.999c0 -30 -5.5 -54.833 -16.5 -74.5s-25.333 -35.5 -43 -47.5s-37.834 -20.5 -60.501 -25.5s-45.667 -7.5 -69 -7.5c-18 0 -36 1.5 -54 4.5s-34.5 6.5 -49.5 10.5s-27.833 8 -38.5 12s-17.667 7 -21 9
l15 116l40 -2zM311 125.997l27.9971 25.501c10 9 19.333 18.833 28 29.5s15.834 22.167 21.501 34.5s8.5 25.5 8.5 39.5c0 22 -7.16699 38.167 -21.5 48.5s-29.833 18.166 -46.5 23.499c-25.333 8 -46.166 14.167 -62.499 18.5s-33.5 9.83301 -51.5 16.5
c-25.333 -18 -45.666 -36.833 -60.999 -56.5s-23 -39.167 -23 -58.5c0 -24.667 6.5 -42.5 19.5 -53.5s31.167 -20.833 54.5 -29.5l31 -10.5l25 -8.5c8 -2.66699 16 -5.5 24 -8.5s16.667 -6.5 26 -10.5z" />
    <glyph glyph-name="dieresis" unicode="&#xa8;" 
d="M435 612c-13.333 0 -23.666 3.33301 -30.999 10s-11 15.667 -11 27c0 15.333 4.66699 27.833 14 37.5s22.666 14.5 39.999 14.5c26.667 0 40 -12.333 40 -37c0 -13.333 -4.83301 -25.333 -14.5 -36s-22.167 -16 -37.5 -16zM238 612c-13.333 0 -23.668 3.33301 -31.001 10
s-11 15.667 -11 27c0 15.333 4.83301 27.833 14.5 37.5s22.834 14.5 39.501 14.5c26.667 0 40 -12.333 40 -37c0 -13.333 -4.66699 -25.333 -14 -36s-22 -16 -38 -16z" />
    <glyph glyph-name="copyright" unicode="&#xa9;" horiz-adv-x="757" 
d="M713 319c0 -49.333 -8 -94.165 -24 -134.498s-38.5 -75 -67.5 -104s-63.833 -51.5 -104.5 -67.5s-85.334 -24 -134.001 -24c-54.667 0 -102.5 8.16699 -143.5 24.5s-75.167 38.666 -102.5 66.999s-48 61.666 -62 99.999s-21 79.833 -21 124.5
c0 51.333 8.66699 97.333 26 138s41 75.167 71 103.5s65 50 105 65s83 22.5 129 22.5c50.667 0 96.334 -7.5 137.001 -22.5s75.167 -36.167 103.5 -63.5s50 -60.333 65 -99s22.5 -82 22.5 -130zM385 25.001c44 0 83.6689 6.66699 119.002 20s65.166 32.5 89.499 57.5
s43.166 55.333 56.499 91s20 75.5 20 119.5c0 46.667 -7 87.667 -21 123s-33.667 65 -59 89s-55.5 42.167 -90.5 54.5s-73.167 18.5 -114.5 18.5c-40.667 0 -78.5 -6.5 -113.5 -19.5s-65.333 -32 -91 -57s-45.667 -55.667 -60 -92s-21.5 -77.5 -21.5 -123.5
c0 -43.333 6.5 -82.333 19.5 -117s31.833 -64.167 56.5 -88.5s54.667 -43 90 -56s75.333 -19.5 120 -19.5zM509.002 146.001c-13.333 -8 -30.6699 -14.334 -52.0029 -19.001s-42 -7 -62 -7c-34 0 -62.833 4.83301 -86.5 14.5s-43 23.334 -58 41.001s-26 38.334 -33 62.001
s-10.5 49.5 -10.5 77.5s4 54 12 78s20 44.5 36 61.5s35.833 30.333 59.5 40s51.5 14.5 83.5 14.5c20.667 0 41.5 -2.16699 62.5 -6.5s37.5 -8.83301 49.5 -13.5v-101l-36 4l-10 53c-1.33301 4.66699 -2.66602 7.83398 -3.99902 9.50098s-4 3.16699 -8 4.5
c-8 3.33301 -17 5.83301 -27 7.5s-22.333 2.5 -37 2.5c-16 0 -31.667 -2.83301 -47 -8.5s-28.833 -14.667 -40.5 -27s-21 -28.5 -28 -48.5s-10.5 -44 -10.5 -72c0 -21.333 2.5 -41.333 7.5 -60s13 -34.834 24 -48.501s25 -24.5 42 -32.5s37.167 -12 60.5 -12
c12.667 0 23.834 1.16699 33.501 3.5s18.167 5.16602 25.5 8.49902c3.33301 2 5.33301 3.66699 6 5s1.33398 3 2.00098 5l15 58h31v-94z" />
    <glyph glyph-name="guillemotleft" unicode="&#xab;" horiz-adv-x="415" 
d="M275 103l-66 157.999l110 147h57l-95 -139c-3.33301 -4 -5 -7.16699 -5 -9.5s0.666992 -5.16602 2 -8.49902l52 -148h-55zM138 102.999l-66 157.999l110 147h57l-95 -139c-3.33301 -4 -5 -7.16699 -5 -9.5s0.666992 -5.16602 2 -8.49902l52 -148h-55z" />
    <glyph glyph-name="logicalnot" unicode="&#xac;" horiz-adv-x="570" 
d="M404 206l14 97h-315l8 50h370l-22 -147h-55z" />
    <glyph glyph-name="uni00AD" unicode="&#xad;" horiz-adv-x="311" 
d="M16 262l8 51h271l-8 -51h-271z" />
    <glyph glyph-name="registered" unicode="&#xae;" horiz-adv-x="446" 
d="M442 480c0 -27.333 -4.50098 -52.1699 -13.501 -74.5029s-21.5 -41.5 -37.5 -57.5s-35.167 -28.333 -57.5 -37s-47.166 -13 -74.499 -13c-30 0 -56.5 4.5 -79.5 13.5s-42.167 21.167 -57.5 36.5s-26.833 33.833 -34.5 55.5s-11.5 44.834 -11.5 69.501
c0 28.667 4.83301 54.334 14.5 77.001s22.834 41.834 39.501 57.501s36.167 27.667 58.5 36s46.166 12.5 71.499 12.5c56.667 0 101.167 -15.833 133.5 -47.5s48.5 -74.5 48.5 -128.5zM404.999 476.996c0 48 -13.667 84.335 -41 109.002s-62 37 -104 37
c-20.667 0 -40 -3.33301 -58 -10s-33.5 -16.334 -46.5 -29.001s-23.167 -28.334 -30.5 -47.001s-11 -39.667 -11 -63c0 -44.667 12.833 -79.667 38.5 -105s61.5 -38 107.5 -38c45.333 0 80.833 13 106.5 39s38.5 61.667 38.5 107zM278.999 383.998v16.998l18 2l-27 48
c-4 6.66699 -10.333 10 -19 10h-19v-52c0 -3.33301 2.66699 -5.33301 8 -6l15 -2v-17h-76v17l17 4c3.33301 0.666992 5 2.33398 5 5.00098v141c0 2.66699 -1.33301 4.33398 -4 5.00098l-18 2v17h87c25.333 0 42 -5.33301 50 -16s12 -22.667 12 -36
c0 -14 -3.83301 -25.333 -11.5 -34s-17.167 -14.667 -28.5 -18c6.66699 -2 13 -9 19 -21l22 -40c1.33301 -3.33301 4 -5.33301 8 -6l19 -3v-17h-77zM246.999 486.996c11.333 0 22.001 2 32.001 6s15 13.333 15 28c0 11.333 -3.33301 18.833 -10 22.5
s-16.334 5.5 -29.001 5.5h-23v-62h15z" />
    <glyph glyph-name="macron" unicode="&#xaf;" 
d="M185 620l7 45h300l-7 -45h-300z" />
    <glyph glyph-name="degree" unicode="&#xb0;" horiz-adv-x="287" 
d="M206 606c20.667 0 36 6.16797 46 18.501s15 29.166 15 50.499c0 30.667 -15.333 46 -46 46c-18.667 0 -33.5 -6 -44.5 -18s-16.5 -29.667 -16.5 -53c0 -13.333 3.5 -24 10.5 -32s18.833 -12 35.5 -12zM312 679.001c0 -34 -10.334 -60.833 -31.001 -80.5
s-48 -29.5 -82 -29.5c-26.667 0 -47.5 6.5 -62.5 19.5s-22.5 32.167 -22.5 57.5c0 19.333 3 36 9 50s14.167 25.667 24.5 35s22.333 16.333 36 21s27.834 7 42.501 7c25.333 0 46 -6.66699 62 -20s24 -33.333 24 -60z" />
    <glyph glyph-name="plusminus" unicode="&#xb1;" horiz-adv-x="570" 
d="M59 0l7 50h370l-7 -50h-370zM308 297l-22 -167h-53l23 167h-156l8 50h155l23 158h52l-22 -158h162l-8 -50h-162z" />
    <glyph glyph-name="mu" unicode="&#xb5;" horiz-adv-x="627" 
d="M428 0l11.0029 77l-44 -32c-15.333 -10.667 -31.5 -20.5 -48.5 -29.5s-34.833 -16.333 -53.5 -22s-38 -8.5 -58 -8.5c-25.333 0 -47.5 4.83301 -66.5 14.5s-31.5 22.5 -37.5 38.5l-31 -215h-52l110 685h50l-47 -309c-4 -28 -6.16699 -52.667 -6.5 -74
s2.33398 -39 8.00098 -53s14.667 -24.667 27 -32s29.166 -11 50.499 -11c20 0 40.167 3.83301 60.5 11.5s39.666 17.167 57.999 28.5s35.166 23.5 50.499 36.5s28 24.833 38 35.5l51 367h49l-61 -446c-1.33301 -8 -1.33301 -13.5 0 -16.5s4.66602 -4.83301 9.99902 -5.5
l54 -7l-5 -33h-117z" />
    <glyph glyph-name="paragraph" unicode="&#xb6;" horiz-adv-x="583" 
d="M477 598l-87.999 -0.000976562l-76 -542h-39c-34.667 0 -66.167 6.16699 -94.5 18.5s-52.5 29.666 -72.5 51.999s-35.333 48.833 -46 79.5s-16 64.334 -16 101.001c0 52 7.83301 98.833 23.5 140.5s38.5 77.167 68.5 106.5s66.5 51.833 109.5 67.5
s91.833 23.5 146.5 23.5h230l-6 -36l-68 -8c-7.33301 -1.33301 -12 -3 -14 -5s-3.66699 -6.66699 -5 -14l-76 -543c-8 -57.333 -29.833 -100.333 -65.5 -129s-81.834 -43 -138.501 -43c-41.333 0 -76.833 4.33301 -106.5 13s-52.834 17.667 -69.501 27l20 42
c3.33301 -2.66699 9.66602 -6.16699 18.999 -10.5s20.5 -8.66602 33.5 -12.999s27.833 -8 44.5 -11s34.334 -4.5 53.001 -4.5c44 0 79.333 10.667 106 32s43.334 56 50.001 104z" />
    <glyph glyph-name="periodcentered" unicode="&#xb7;" horiz-adv-x="163" 
d="M148 308c0 -17.333 -5.16699 -32.167 -15.5 -44.5s-25.5 -18.5 -45.5 -18.5c-14 0 -25 3.33301 -33 10s-12 16.667 -12 30c0 21.333 5.5 37.333 16.5 48s25.5 16 43.5 16c30.667 0 46 -13.667 46 -41z" />
    <glyph glyph-name="cedilla" unicode="&#xb8;" 
d="M137 -179c4 -1.33301 9.16797 -2.33203 15.501 -2.99902s14.166 -1 23.499 -1c24 0 44.167 5.33301 60.5 16s24.5 26.667 24.5 48c0 13.333 -5.16699 24.666 -15.5 33.999s-28.5 14 -54.5 14l26 90l39 -2l-17 -59c20.667 -3.33301 37.334 -11.5 50.001 -24.5
s19 -29.5 19 -49.5c0 -18 -3.5 -33.5 -10.5 -46.5s-16.5 -23.833 -28.5 -32.5s-25.667 -15.167 -41 -19.5s-31.333 -6.5 -48 -6.5c-10.667 0 -20.834 0.666992 -30.501 2s-17.167 3 -22.5 5z" />
    <glyph glyph-name="guillemotright" unicode="&#xbb;" horiz-adv-x="415" 
d="M193 103l95.001 144c5.33301 7.33301 6.66602 14 3.99902 20l-52 141h54l66 -153l-107 -152h-60zM56.001 103l95.001 144c5.33301 7.33301 6.66602 14 3.99902 20l-52 141h54l66 -153l-107 -152h-60z" />
    <glyph glyph-name="multiply" unicode="&#xd7;" horiz-adv-x="570" 
d="M286 291l-133 -116l-29 33l134 116l-89 113l36 28l89 -112l135 118l29 -32l-136 -119l95 -118l-37 -29z" />
    <glyph glyph-name="divide" unicode="&#xf7;" horiz-adv-x="570" 
d="M318 184c0 -21.333 -5.66797 -36.999 -17.001 -46.999s-26.666 -15 -45.999 -15c-30.667 0 -46 14.333 -46 43c0 21.333 5.5 37.166 16.5 47.499s26.167 15.5 45.5 15.5c31.333 0 47 -14.667 47 -44zM101.999 294.001l8 51h370l-8 -51h-370zM358.999 480.001
c0 -21.333 -5.5 -37.166 -16.5 -47.499s-26.167 -15.5 -45.5 -15.5c-30.667 0 -46 14.333 -46 43c0 21.333 5.33301 37.166 16 47.499s25.667 15.5 45 15.5c31.333 0 47 -14.333 47 -43z" />
    <glyph glyph-name="florin" unicode="&#x192;" horiz-adv-x="471" 
d="M250 337l-85.001 -273.001c-6.66699 -22.667 -13.834 -42.667 -21.501 -60s-17.167 -32 -28.5 -44s-25 -21 -41 -27s-36 -9 -60 -9c-10 0 -20.5 1 -31.5 3s-21.5 4.5 -31.5 7.5s-19.167 6.33301 -27.5 10s-14.5 7.16699 -18.5 10.5l23 37
c8.66699 -5.33301 21.5 -11 38.5 -17s34.833 -9 53.5 -9c42 0 71.667 27 89 81l86 280c3.33301 6.66699 1 10 -7 10h-91l12 39h103l36 118c8 26.667 17 49.5 27 68.5s22 34.667 36 47s30.333 21.333 49 27s41 8.5 67 8.5c30.667 0 54 -3.66699 70 -11s25.667 -12 29 -14
l-36 -115l-34 3l9 79c0.666992 6.66699 -2.33301 11.334 -9 14.001c-5.33301 2 -11.333 3.5 -18 4.5s-15.667 1.5 -27 1.5c-17.333 0 -32.166 -3.16699 -44.499 -9.5s-23 -15 -32 -26s-16.667 -23.833 -23 -38.5s-12.166 -30.667 -17.499 -48l-30 -99
c-1.33301 -5.33301 -1.5 -8.33301 -0.5 -9s2.83301 -1 5.5 -1h148l-11 -39h-156z" />
    <glyph glyph-name="circumflex" unicode="&#x2c6;" 
d="M462 579l-114 108l-150 -108l-26 28l144 115h67l109 -120z" />
    <glyph glyph-name="caron" unicode="&#x2c7;" 
d="M220 722l114 -108l150 107l25 -27l-144 -115h-67l-109 120z" />
    <glyph glyph-name="uni02C9" unicode="&#x2c9;" 
d="M185 620l8 45h300l-7 -45h-301z" />
    <glyph glyph-name="breve" unicode="&#x2d8;" 
d="M511 704c-17.333 -40 -40.5 -71.833 -69.5 -95.5s-66.5 -35.5 -112.5 -35.5c-45.333 0 -79.333 11.833 -102 35.5s-36.667 55.5 -42 95.5l41 16c6.66699 -34.667 17.5 -61.167 32.5 -79.5s40.833 -27.5 77.5 -27.5c32 0 59 9 81 27s40.667 44.667 56 80z" />
    <glyph glyph-name="dotaccent" unicode="&#x2d9;" 
d="M340 643c-13.333 0 -23.667 3.5 -31 10.5s-11 16.167 -11 27.5c0 14.667 5.33301 26.667 16 36s23.667 14 39 14c12.667 0 22.5 -3.66699 29.5 -11s10.5 -16.333 10.5 -27c0 -14 -5 -25.833 -15 -35.5s-22.667 -14.5 -38 -14.5z" />
    <glyph glyph-name="ring" unicode="&#x2da;" 
d="M463 717c0 -31.333 -9.00098 -54.833 -27.001 -70.5s-43.667 -23.5 -77 -23.5c-25.333 0 -44.833 5.83301 -58.5 17.5s-20.5 29.5 -20.5 53.5c0 26.667 8.5 49 25.5 67s42.5 27 76.5 27c24.667 0 44.334 -6 59.001 -18s22 -29.667 22 -53zM365.999 657
c15.333 0 27.832 4.83203 37.499 14.499s14.5 23.5 14.5 41.5c0 12 -3.16699 21 -9.5 27s-17.166 9 -32.499 9c-16 0 -28.833 -4.33301 -38.5 -13s-14.5 -22 -14.5 -40c0 -11.333 3.16699 -20.666 9.5 -27.999s17.5 -11 33.5 -11z" />
    <glyph glyph-name="ogonek" unicode="&#x2db;" 
d="M307 -190c-25.333 -10.667 -50.3311 -15.999 -74.998 -15.999c-20 0 -36.667 5 -50 15s-20 25 -20 45c0 17.333 3.5 33.5 10.5 48.5s16.333 29 28 42s25 25.5 40 37.5l46.5 36l38 -12l-31.5 -23.5c-13 -9.66699 -25.667 -20.667 -38 -33s-22.833 -25.833 -31.5 -40.5
s-13 -29.334 -13 -44.001c0 -11.333 3.5 -19.5 10.5 -24.5s16.167 -7.5 27.5 -7.5c7.33301 0 15.666 1 24.999 3s17.666 4.33301 24.999 7z" />
    <glyph glyph-name="tilde" unicode="&#x2dc;" 
d="M473 625c-9.33301 -10.667 -17.668 -18.668 -25.001 -24.001s-15.666 -8 -24.999 -8c-6 0 -14.667 1.66699 -26 5l-134 40c-7.33301 2.66699 -14.333 1.33398 -21 -3.99902l-44 -39l-23 19l35 42c9.33301 9.33301 17.5 16.333 24.5 21s15.167 7 24.5 7c8 0 18 -2 30 -6
l129 -39c8 -2 14 -1 18 3l45 37l23 -18z" />
    <glyph glyph-name="hungarumlaut" unicode="&#x2dd;" 
d="M187 574l-22 17l153 172l41 -36zM343 574l-23 17l154 171l41 -35z" />
    <glyph glyph-name="uni0394" unicode="&#x394;" horiz-adv-x="639" 
d="M15 0l349 724h71l150 -724h-570zM396 693l-306 -651h432z" />
    <glyph glyph-name="uni03A9" unicode="&#x3a9;" horiz-adv-x="855" 
d="M488 0l15.9971 120.003c22 8 46.833 20.667 74.5 38s53.834 39.833 78.501 67.5s45.334 60.667 62.001 99s25 82.5 25 132.5c0 37.333 -5.66699 70.833 -17 100.5s-27.333 54.667 -48 75s-45.667 36 -75 47s-62 16.5 -98 16.5c-50 0 -95.667 -7.16699 -137 -21.5
s-76.833 -35.5 -106.5 -63.5s-52.667 -62.667 -69 -104s-24.5 -89 -24.5 -143c0 -34 4 -64.167 12 -90.5s19.167 -49.5 33.5 -69.5s31.333 -36.833 51 -50.5s40.834 -24.834 63.501 -33.501l-17 -120h-269l21 149h38l3 -92c0 -9.33301 5.33301 -14 16 -14h144l8 58
c-52 25.333 -91 61.166 -117 107.499s-39 97.166 -39 152.499c0 54.667 9.16699 105 27.5 151s44.5 85.667 78.5 119s75 59.333 123 78s101.667 28 161 28c48.667 0 91 -7.16699 127 -21.5s66 -34.166 90 -59.499s41.833 -55 53.5 -89s17.5 -70.667 17.5 -110
c0 -42 -6.16699 -81 -18.5 -117s-29.166 -69 -50.499 -99s-46.833 -56.833 -76.5 -80.5s-61.834 -43.834 -96.501 -60.501l-7 -57h137c5.33301 0 9 0.5 11 1.5s3.66699 4.16699 5 9.5l31 95h39l-22 -149h-259z" />
    <glyph glyph-name="uni03BC" unicode="&#x3bc;" horiz-adv-x="629" 
d="M428 0l11.0029 77l-44 -32c-15.333 -10.667 -31.5 -20.5 -48.5 -29.5s-34.833 -16.333 -53.5 -22s-38 -8.5 -58 -8.5c-25.333 0 -47.5 4.83301 -66.5 14.5s-31.5 22.5 -37.5 38.5l-31 -215h-52l110 685h50l-47 -309c-4 -28 -6.16699 -52.667 -6.5 -74
s2.33398 -39 8.00098 -53s14.667 -24.667 27 -32s29.166 -11 50.499 -11c20 0 40.167 3.83301 60.5 11.5s39.666 17.167 57.999 28.5s35.166 23.5 50.499 36.5s28 24.833 38 35.5l51 367h49l-61 -446c-1.33301 -8 -1.33301 -13.5 0 -16.5s4.66602 -4.83301 9.99902 -5.5
l54 -7l-5 -33h-117z" />
    <glyph glyph-name="pi" unicode="&#x3c0;" horiz-adv-x="697" 
d="M464 0l63.9971 458.999h-294l-63 -459h-117l5 36l53 7c10.667 0.666992 16.334 4.33398 17.001 11.001l54 392c1.33301 7.33301 1.33301 12.5 0 15.5s-5.66602 4.5 -12.999 4.5l-65 7l5 35h560l-5 -35l-72 -8c-7.33301 -1.33301 -12 -3 -14 -5s-3.66699 -6.66699 -5 -14
l-53 -383c-1.33301 -8 -1.16602 -13 0.500977 -15s6.16699 -3.66699 13.5 -5l51 -7l-5 -36h-117z" />
    <glyph glyph-name="afii10023" unicode="&#x401;" horiz-adv-x="613" 
d="M364 834c0 -13.333 -5.16797 -25.333 -15.501 -36s-23.166 -16 -38.499 -16c-12 0 -21.667 3.33301 -29 10s-11 15.667 -11 27c0 13.333 5 25.166 15 35.499s22.667 15.5 38 15.5c12 0 21.833 -3.16699 29.5 -9.5s11.5 -15.166 11.5 -26.499zM559.999 834
c0 -13.333 -4.99902 -25.333 -14.999 -36s-22.667 -16 -38 -16c-12 0 -21.833 3.33301 -29.5 10s-11.5 15.667 -11.5 27c0 13.333 5.16699 25.166 15.5 35.499s23.166 15.5 38.499 15.5c12 0 21.667 -3.16699 29 -9.5s11 -15.166 11 -26.499zM48 0l3.00195 30.001l63 7
c7.33301 1.33301 11.833 3.16602 13.5 5.49902s3.16699 7.16602 4.5 14.499l84 609c1.33301 7.33301 1.33301 12.333 0 15s-5.66602 4.33398 -12.999 5.00098l-60 7l4 31h471l-19 -137l-33 2l-3 81c-0.666992 8.66699 -5.33398 13 -14.001 13h-284l-39 -296h284l-7 -41h-283
l-42 -304h304c5.33301 0 9.16602 0.5 11.499 1.5s4.16602 4.16699 5.49902 9.5l28 88h33l-20 -141h-492z" />
    <glyph glyph-name="afii10051" unicode="&#x402;" horiz-adv-x="795" 
d="M438 39c8 -3.33301 20 -5.83496 36 -7.50195s30.667 -2.5 44 -2.5c23.333 0 45.5 3.16699 66.5 9.5s39.333 17 55 32s28 34.5 37 58.5s13.5 53.333 13.5 88c0 29.333 -4.5 53.5 -13.5 72.5s-21.5 34.167 -37.5 45.5s-34.5 19.333 -55.5 24s-43.5 7 -67.5 7
c-35.333 0 -67 -2.16699 -95 -6.5s-53 -9.16602 -75 -14.499l-48 -345h-162l5 30l98 7c6.66699 0.666992 11 2.33398 13 5.00098s3.66699 7.66699 5 15l87 626h-190c-5.33301 0 -9.16602 -0.5 -11.499 -1.5s-4.16602 -4.16699 -5.49902 -9.5l-27 -89h-32l18 141h578
l-19 -141h-32l-4 89c-0.666992 5.33301 -2 8.5 -4 9.5s-5.33301 1.5 -10 1.5h-213l-41 -295c16.667 4 40.167 8.5 70.5 13.5s63.833 7.5 100.5 7.5c73.333 0 128.166 -17.833 164.499 -53.5s54.5 -82.167 54.5 -139.5c0 -74.667 -20.333 -131.334 -61 -170.001
s-95 -58 -163 -58c-36.667 0 -67.834 3.33301 -93.501 10s-43.167 12.334 -52.5 17.001l21 137l35 -2v-92c0 -5.33301 0.5 -9.33301 1.5 -12s4.16699 -5 9.5 -7z" />
    <glyph glyph-name="afii10052" unicode="&#x403;" horiz-adv-x="576" 
d="M521 871l-31 49l-185 -127l19 -27zM602 724l-21 -156.999l-33 2l-2 101c0 8.66699 -4.66699 13 -14 13h-265l-86 -625c-1.33301 -8 -1.33301 -13.167 0 -15.5s5.66602 -3.83301 12.999 -4.5l143 -8l-4 -30h-284l4 30l62 7c7.33301 1.33301 11.833 3.16602 13.5 5.49902
s3.16699 7.16602 4.5 14.499l83 609c1.33301 7.33301 1.33301 12.333 0 15s-5.66602 4.33398 -12.999 5.00098l-60 7l5 31h454z" />
    <glyph glyph-name="afii10053" unicode="&#x404;" horiz-adv-x="657" 
d="M469 383l-5.99805 -41.001h-345c-0.666992 -6 -1 -12.333 -1 -19v-20c0 -87.333 19.833 -154.333 59.5 -201s100.5 -70 182.5 -70c26 0 54.333 2 85 6s58 11.333 82 22c6.66699 2.66699 11.334 8.33398 14.001 17.001l29 87h33l-17 -125c-28 -18 -63 -31 -105 -39
s-85.667 -12 -131 -12c-50.667 0 -93.834 7.83301 -129.501 23.5s-64.834 37.167 -87.501 64.5s-39.334 59.833 -50.001 97.5s-16 78.834 -16 123.501c0 63.333 8.66699 122 26 176s43 100.5 77 139.5s76.167 69.5 126.5 91.5s108.166 33 173.499 33
c44.667 0 84.334 -4.83301 119.001 -14.5s62.667 -22.167 84 -37.5l-19 -134l-38 2l-4 92c0 5.33301 -0.666992 9.33301 -2 12s-4.66602 5 -9.99902 7c-19.333 7.33301 -40.333 13.833 -63 19.5s-48 8.5 -76 8.5c-43.333 0 -84 -6.83301 -122 -20.5
s-71.833 -33.834 -101.5 -60.501s-54.334 -59 -74.001 -97s-33.167 -81.667 -40.5 -131h347z" />
    <glyph glyph-name="afii10054" unicode="&#x405;" horiz-adv-x="558" 
d="M497 559l-5 99.0039c0 6 -3.33301 10.667 -10 14c-8.66699 4 -20.167 7.83301 -34.5 11.5s-38.166 5.5 -71.499 5.5c-26.667 0 -51.667 -2.66699 -75 -8s-43.833 -14 -61.5 -26s-31.667 -27.833 -42 -47.5s-15.5 -44.167 -15.5 -73.5c0 -22 3.66699 -40.333 11 -55
s17.5 -27.167 30.5 -37.5s28.167 -19.333 45.5 -27s36.333 -15.167 57 -22.5c21.333 -8 42.166 -16.333 62.499 -25s38.833 -19.834 55.5 -33.501s30 -30.334 40 -50.001s15 -44.167 15 -73.5c0 -40.667 -7 -75.167 -21 -103.5s-33.333 -51.333 -58 -69
s-53.5 -30.334 -86.5 -38.001s-68.167 -11.5 -105.5 -11.5c-22.667 0 -44.5 1.33301 -65.5 4s-40.167 5.83398 -57.5 9.50098s-32.166 7.5 -44.499 11.5s-21.5 7.66699 -27.5 11l19 140h35l6 -94c0.666992 -5.33301 1.5 -8.83301 2.5 -10.5s3.16699 -3.16699 6.5 -4.5
c6.66699 -3.33301 21.5 -7.83301 44.5 -13.5s53.5 -8.5 91.5 -8.5c64.667 0 115.167 13.833 151.5 41.5s54.5 71.167 54.5 130.5c0 22 -3.33301 40.667 -10 56s-15.834 28.166 -27.501 38.499s-25 19.166 -40 26.499s-30.833 14 -47.5 20l-67.5 24.5
c-23 8.33301 -43.667 19 -62 32s-33.333 29.5 -45 49.5s-17.5 46.333 -17.5 79c0 36 7 66.833 21 92.5s33 47 57 64s51.5 29.5 82.5 37.5s63.5 12 97.5 12c42 0 77.667 -4 107 -12s50.333 -14.333 63 -19l-22 -152z" />
    <glyph glyph-name="afii10055" unicode="&#x406;" horiz-adv-x="352" 
d="M37 0l4 29.998l73 7c7.33301 0.666992 11.833 2.33398 13.5 5.00098s3.16699 7.66699 4.5 15l85 610c1.33301 7.33301 1.33301 12.333 0 15s-5.66602 4.33398 -12.999 5.00098l-70 7l2 30h227l-3 -30l-78 -8c-6.66699 -1.33301 -11 -3 -13 -5s-3.66699 -6.66699 -5 -14
l-84 -609c-1.33301 -8 -1.33301 -13 0 -15s5.66602 -3.66699 12.999 -5l74 -8l-3 -30h-227z" />
    <glyph glyph-name="afii10056" unicode="&#x407;" horiz-adv-x="352" 
d="M212 834c0 -13.333 -5.16797 -25.333 -15.501 -36s-23.166 -16 -38.499 -16c-12 0 -21.667 3.33301 -29 10s-11 15.667 -11 27c0 13.333 5 25.166 15 35.499s22.667 15.5 38 15.5c12 0 21.833 -3.16699 29.5 -9.5s11.5 -15.166 11.5 -26.499zM407.999 834
c0 -13.333 -4.99902 -25.333 -14.999 -36s-22.667 -16 -38 -16c-12 0 -21.833 3.33301 -29.5 10s-11.5 15.667 -11.5 27c0 13.333 5.16699 25.166 15.5 35.499s23.166 15.5 38.499 15.5c12 0 21.667 -3.16699 29 -9.5s11 -15.166 11 -26.499zM37 0l4 29.998l73 7
c7.33301 0.666992 11.833 2.33398 13.5 5.00098s3.16699 7.66699 4.5 15l85 610c1.33301 7.33301 1.33301 12.333 0 15s-5.66602 4.33398 -12.999 5.00098l-70 7l2 30h227l-3 -30l-78 -8c-6.66699 -1.33301 -11 -3 -13 -5s-3.66699 -6.66699 -5 -14l-84 -609
c-1.33301 -8 -1.33301 -13 0 -15s5.66602 -3.66699 12.999 -5l74 -8l-3 -30h-227z" />
    <glyph glyph-name="afii10057" unicode="&#x408;" horiz-adv-x="473" 
d="M359 668c1.33301 7.33301 1.16992 12.168 -0.49707 14.501s-5.83398 3.83301 -12.501 4.5l-79 7l3 30h226l-3 -30l-67 -8c-7.33301 -1.33301 -12 -2.83301 -14 -4.5s-3.66699 -6.16699 -5 -13.5l-75 -532c-6.66699 -50.667 -22.167 -88 -46.5 -112
s-63.833 -36 -118.5 -36c-36.667 0 -67.5 4.16699 -92.5 12.5s-41.167 15.166 -48.5 20.499l15 108l33 -2v-72c0 -3.33301 0.5 -6 1.5 -8s3.83301 -4 8.5 -6c5.33301 -3.33301 15.833 -6.66602 31.5 -9.99902s35.167 -5 58.5 -5c39.333 0 66.666 10.167 81.999 30.5
s25.666 50.166 30.999 89.499z" />
    <glyph glyph-name="afii10058" unicode="&#x409;" horiz-adv-x="1014" 
d="M597 383l-49.001 -342h129c74.667 0 131.667 16.5 171 49.5s59 84.833 59 155.5c0 26.667 -4.66699 48.834 -14 66.501s-21.833 31.667 -37.5 42s-33.667 17.666 -54 21.999s-41.166 6.5 -62.499 6.5h-142zM742.999 424c30 0 58.1641 -3.00586 84.4971 -9.00586
s49.333 -15.833 69 -29.5s35 -31.667 46 -54s16.5 -49.833 16.5 -82.5c0 -44 -6.66699 -81.667 -20 -113s-32.333 -57.166 -57 -77.499s-54.5 -35.166 -89.5 -44.499s-73.833 -14 -116.5 -14h-258l4 30l63 7c7.33301 0.666992 11.833 2.33398 13.5 5.00098
s3.16699 7.66699 4.5 15l87 626h-236c-10.667 -85.333 -22 -161.666 -34 -228.999s-24.667 -129.666 -38 -186.999c-12 -50 -26 -92.667 -42 -128s-34.833 -64 -56.5 -86s-46.667 -38 -75 -48s-60.5 -15.333 -96.5 -16l-4 45c27.333 0.666992 51.833 4.5 73.5 11.5
s41 17.833 58 32.5s32 33.5 45 56.5s24.833 51.167 35.5 84.5c6.66699 20 13.834 46.5 21.501 79.5s15.334 69.5 23.001 109.5s15 82.167 22 126.5s12.833 88.5 17.5 132.5c1.33301 7.33301 1.33301 12.333 0 15s-5.66602 4.33398 -12.999 5.00098l-60 7l4 30h509l-3 -30
l-86 -8c-7.33301 -1.33301 -12 -3 -14 -5s-3.66699 -6.66699 -5 -14l-33 -243h140z" />
    <glyph glyph-name="afii10059" unicode="&#x40a;" horiz-adv-x="1060" 
d="M639 354l-44.999 -313h128c37.333 0 70.166 3 98.499 9s52.333 16.333 72 31s34.5 34 44.5 58s15 54 15 90c0 26 -5 47.167 -15 63.5s-23 29 -39 38s-34.333 15.167 -55 18.5s-41.667 5 -63 5h-141zM590.001 354h-371l-41 -296c-1.33301 -8 -1.33301 -13 0 -15
s5.66602 -3.66699 12.999 -5l65 -8l-5 -30h-206l4 30l63 7c7.33301 1.33301 11.833 3.16602 13.5 5.49902s3.16699 7.16602 4.5 14.499l85 610c1.33301 7.33301 1.33301 12.333 0 15s-5.66602 4.33398 -12.999 5.00098l-60 7l4 30h206l-4 -30l-67 -8
c-7.33301 -1.33301 -11.833 -3 -13.5 -5s-3.16699 -6.66699 -4.5 -14l-37 -271h371l37 271c1.33301 7.33301 1.33301 12.333 0 15s-5.33301 4.33398 -12 5.00098l-61 7l3 30h206l-3 -30l-66 -8c-7.33301 -1.33301 -12 -3 -14 -5s-3.66699 -6.66699 -5 -14l-37 -271h139
c30 0 58.333 -2.66699 85 -8s50 -14.333 70 -27s35.833 -29.834 47.5 -51.501s17.5 -49.167 17.5 -82.5c0 -43.333 -7 -79.5 -21 -108.5s-33.333 -52.333 -58 -70s-54 -30.167 -88 -37.5s-70.667 -11 -110 -11h-263l4 30l63 7c7.33301 0.666992 11.833 2.33398 13.5 5.00098
s3.16699 7.66699 4.5 15z" />
    <glyph glyph-name="afii10060" unicode="&#x40b;" horiz-adv-x="842" 
d="M349 404c26 8 54.8311 15.3301 86.498 21.9971s65.167 10 100.5 10c70 0 119.667 -14.667 149 -44s39.333 -76 30 -140l-28 -194c-1.33301 -8 -1.33301 -13 0 -15s5.66602 -3.66699 12.999 -5l64 -8l-3 -30h-227l4 30l83 7c7.33301 0.666992 12 2.33398 14 5.00098
s3.66699 7.66699 5 15l24 175c3.33301 26 4.5 49.167 3.5 69.5s-6.5 37.333 -16.5 51s-25 24 -45 31s-47.333 10.5 -82 10.5c-15.333 0 -31.333 -1 -48 -3s-33.167 -4.5 -49.5 -7.5s-31.666 -6.66699 -45.999 -11s-27.166 -8.83301 -38.499 -13.5l-41 -302
c-1.33301 -7.33301 -1.33301 -12.166 0 -14.499s5.66602 -3.83301 12.999 -4.5l69 -8l-6 -30h-236l5 30l88 7c6.66699 0.666992 11 2.33398 13 5.00098s3.66699 7.66699 5 15l87 626h-180c-5.33301 0 -9.16602 -0.5 -11.499 -1.5s-4.16602 -4.16699 -5.49902 -9.5l-27 -89
h-32l18 141h578l-19 -141h-32l-4 89c-0.666992 5.33301 -2 8.5 -4 9.5s-5.33301 1.5 -10 1.5h-223z" />
    <glyph glyph-name="afii10061" unicode="&#x40c;" horiz-adv-x="693" 
d="M423 766l-19 27l185 127l31 -49zM544 65c3.33301 -7.33301 6.16504 -13.3359 8.49805 -18.0029s7.16602 -7.66699 14.499 -9l66 -8l-5 -30h-113c-7.33301 22 -16.166 46.333 -26.499 73l-31 78l-29 70c-9 21.333 -16.167 37.666 -21.5 48.999
c-8 16.667 -15 30.167 -21 40.5s-12.667 18.5 -20 24.5s-15.666 10 -24.999 12s-21.333 3 -36 3h-85l-40 -292c-1.33301 -8 -1.33301 -13 0 -15s5.66602 -3.66699 12.999 -5l74 -8l-3 -30h-227l4 30l73 7c7.33301 0.666992 11.833 2.33398 13.5 5.00098
s3.16699 7.66699 4.5 15l85 610c1.33301 7.33301 1.33301 12.333 0 15s-5.66602 4.33398 -12.999 5.00098l-70 7l2 30h227l-3 -30l-78 -8c-6.66699 -0.666992 -11 -2.16699 -13 -4.5s-3.66699 -7.16602 -5 -14.499l-38 -275h105c25.333 0 48.166 11.333 68.499 34
s38.833 50 55.5 82l72 139c15.333 30 31 52.167 47 66.5s38 21.5 66 21.5c16 0 33.667 -2.66699 53 -8l-9 -38l-21.5 3.5c-6.33301 1 -12.166 1.5 -17.499 1.5c-18.667 0 -33.167 -5.16699 -43.5 -15.5s-21.5 -27.166 -33.5 -50.499l-73 -139
c-15.333 -29.333 -32 -54.833 -50 -76.5s-38.333 -36.167 -61 -43.5v0c18.667 -6.66699 33.334 -19.167 44.001 -37.5s22.667 -43.833 36 -76.5z" />
    <glyph glyph-name="afii10062" unicode="&#x40e;" horiz-adv-x="628" 
d="M504 905c-16 -34.667 -33.667 -57 -53 -67s-39 -15 -59 -15s-38.667 5.5 -56 16.5s-29.333 32.5 -36 64.5l-45 -13c5.33301 -40 20.666 -68.167 45.999 -84.5s55.333 -24.5 90 -24.5c34 0 64.333 8 91 24s48.334 44 65.001 84zM590 685l-74.002 9l7 30h179l-4 -30
l-42 -11c-8 -2 -14.167 -5 -18.5 -9s-9.16602 -10.667 -14.499 -20l-282 -527c-12.667 -24 -24.5 -44.833 -35.5 -62.5s-22.667 -32.167 -35 -43.5s-26.333 -19.666 -42 -24.999s-34.5 -8 -56.5 -8c-20 0 -40.167 3.16699 -60.5 9.5s-36.166 13.833 -47.499 22.5l20 38
c9.33301 -6.66699 21.833 -13.334 37.5 -20.001s33.5 -10 53.5 -10c28 0 49 6.16699 63 18.5s28 31.5 42 57.5l17 32l-150 530c-1.33301 6 -3.83301 10 -7.5 12s-8.16699 3.66699 -13.5 5l-43 11l6 30h181l-3 -30l-75 -10l134 -496h2z" />
    <glyph glyph-name="afii10145" unicode="&#x40f;" horiz-adv-x="757" 
d="M42 0l2.99902 29.9961l66 8c7.33301 1.33301 12 3 14 5s3.66699 6.66699 5 14l84 609c1.33301 8 1.33301 13 0 15s-5.33301 3.66699 -12 5l-65 8l5 30h206l-5 -30l-62 -7c-7.33301 -1.33301 -11.833 -3.16602 -13.5 -5.49902s-3.16699 -7.16602 -4.5 -14.499l-87 -626
h363l87 625c1.33301 8 1.33301 13 0 15s-5.66602 3.66699 -12.999 5l-65 8l5 30h206l-4 -30l-63 -7c-7.33301 -1.33301 -11.833 -3.16602 -13.5 -5.49902s-3.16699 -7.16602 -4.5 -14.499l-85 -609c-1.33301 -8 -1.33301 -13 0 -15s5.33301 -3.66699 12 -5l65 -8l-5 -30
h-256c-8 0 -13 -4.33301 -15 -13l-32 -139l-32 1l3 138c0 8.66699 -3.66699 13 -11 13h-276z" />
    <glyph glyph-name="afii10017" unicode="&#x410;" horiz-adv-x="667" 
d="M398 695l-187 -410h268zM435 0l4.99805 28.001l87 9l-38 206h-296l-94 -206l77 -9l-5 -28h-187l6 28l41 11c8.66699 2 15.334 5.33301 20.001 10s8.33398 9.66699 11.001 15l306 660h67l135 -668c2 -8.66699 9 -14.334 21 -17.001l43 -11l-5 -28h-194z" />
    <glyph glyph-name="afii10018" unicode="&#x411;" horiz-adv-x="668" 
d="M612 724l-21.002 -157.002l-33 2l-2 101c0 8.66699 -4.66699 13 -14 13h-277l-38 -287h165c30 0 58.333 -2.66699 85 -8s50 -14.166 70 -26.499s35.833 -29 47.5 -50s17.5 -47.5 17.5 -79.5c0 -44.667 -6.83301 -81.834 -20.5 -111.501s-32.5 -53.5 -56.5 -71.5
s-52.667 -30.667 -86 -38s-69.666 -11 -108.999 -11h-304l4 30l73 7c7.33301 0.666992 11.833 2.33398 13.5 5.00098s3.16699 7.66699 4.5 15l85 610c1.33301 7.33301 1.33301 12.333 0 15s-5.66602 4.33398 -12.999 5.00098l-60 7l2 30h467zM220.998 353.998l-44.998 -313
h154c37.333 0 70.166 3 98.499 9s52.333 16.333 72 31s34.5 34 44.5 58s15 54 15 90c0 26 -4.66699 47.167 -14 63.5s-21.833 29 -37.5 38s-33.834 15.167 -54.501 18.5s-42.667 5 -66 5h-167z" />
    <glyph glyph-name="afii10019" unicode="&#x412;" horiz-adv-x="644" 
d="M47 0l3.99902 29.001l62 7c7.33301 1.33301 12 3.16602 14 5.49902s3.66699 7.16602 5 14.499l84 610c1.33301 7.33301 1.16602 12.333 -0.500977 15s-5.83398 4.33398 -12.501 5.00098l-61 8l5 30h266c36.667 0 67.167 -3.83301 91.5 -11.5s43.833 -18.167 58.5 -31.5
s25 -29.166 31 -47.499s9 -38.5 9 -60.5c0 -28.667 -4.33301 -54 -13 -76s-20.167 -40.833 -34.5 -56.5s-30.666 -28.667 -48.999 -39s-37.166 -18.5 -56.499 -24.5c47.333 -5.33301 84.5 -22.333 111.5 -51s40.5 -64.334 40.5 -107.001c0 -41.333 -7 -76 -21 -104
s-33.667 -50.5 -59 -67.5s-55.666 -29.167 -90.999 -36.5s-74.333 -11 -117 -11h-267zM318.999 42.001c32 0 62.333 2 91 6s53.5 12.167 74.5 24.5s37.667 29.833 50 52.5s18.5 52.667 18.5 90c0 22.667 -4.33301 42.5 -13 59.5s-20.5 31 -35.5 42s-32.833 19.333 -53.5 25
s-43 8.5 -67 8.5h-167l-41 -308h143zM343.999 392.001c22.667 0 46.167 2.66797 70.5 8.00098s46.5 14.666 66.5 27.999s36.5 31.5 49.5 54.5s19.5 52.167 19.5 87.5c0 40 -12 68.833 -36 86.5s-62.667 26.5 -116 26.5h-134l-39 -291h119z" />
    <glyph glyph-name="afii10020" unicode="&#x413;" horiz-adv-x="576" 
d="M602 724l-21 -156.999l-33 2l-2 101c0 8.66699 -4.66699 13 -14 13h-265l-86 -625c-1.33301 -8 -1.33301 -13.167 0 -15.5s5.66602 -3.83301 12.999 -4.5l143 -8l-4 -30h-284l4 30l62 7c7.33301 1.33301 11.833 3.16602 13.5 5.49902s3.16699 7.16602 4.5 14.499l83 609
c1.33301 7.33301 1.33301 12.333 0 15s-5.66602 4.33398 -12.999 5.00098l-60 7l5 31h454z" />
    <glyph glyph-name="afii10021" unicode="&#x414;" horiz-adv-x="752" 
d="M342 605c-18 -142.667 -44.167 -260 -78.5 -352s-74.833 -162.667 -121.5 -212h389l89 642h-268zM301 667c1.33301 7.33301 1.33105 12.3311 -0.00195312 14.998s-5.66602 4.33398 -12.999 5.00098l-60 7l4 30h522l-3 -30l-66 -8c-7.33301 -1.33301 -12 -3 -14 -5
s-3.66699 -6.66699 -5 -14l-86 -626h79l-23 -196l-35 2l-1 140c0 8.66699 -5 13 -15 13h-494c-10 0 -16 -4.33301 -18 -13l-35 -140l-36 -1l25 195h60c24.667 28.667 47.334 59.334 68.001 92.001s39.167 70 55.5 112s31 90.167 44 144.5s24.5 117.5 34.5 189.5z" />
    <glyph glyph-name="afii10022" unicode="&#x415;" horiz-adv-x="613" 
d="M48 0l3.00195 30.001l63 7c7.33301 1.33301 11.833 3.16602 13.5 5.49902s3.16699 7.16602 4.5 14.499l84 609c1.33301 7.33301 1.33301 12.333 0 15s-5.66602 4.33398 -12.999 5.00098l-60 7l4 31h471l-19 -137l-33 2l-3 81c-0.666992 8.66699 -5.33398 13 -14.001 13
h-284l-39 -296h284l-7 -41h-283l-42 -304h304c5.33301 0 9.16602 0.5 11.499 1.5s4.16602 4.16699 5.49902 9.5l28 88h33l-20 -141h-492z" />
    <glyph glyph-name="afii10024" unicode="&#x416;" horiz-adv-x="971" 
d="M518 667c1.33301 7.33301 1.33887 12.3291 0.00585938 14.9961s-5.66602 4.33398 -12.999 5.00098l-70 7l2 30h227l-3 -30l-78 -8c-6.66699 -0.666992 -11 -2.16699 -13 -4.5s-3.66699 -7.16602 -5 -14.499l-38 -275h85c25.333 0 48 11.167 68 33.5
s37.667 49.833 53 82.5l68 147c13.333 28 27.666 48.167 42.999 60.5s36.333 18.5 63 18.5c8.66699 0 18 -0.666992 28 -2s19.333 -3.33301 28 -6l-8 -39c-14.667 3.33301 -28.334 5 -41.001 5c-18.667 0 -33 -4.5 -43 -13.5s-20.667 -25.833 -32 -50.5l-66 -139
c-14 -30 -30 -55 -48 -75s-38.333 -33.667 -61 -41v0c19.333 -6.66699 35.833 -18.834 49.5 -36.501s27.5 -45.5 41.5 -83.5l70 -188c3.33301 -7.33301 6.16602 -13.333 8.49902 -18s7.16602 -7.66699 14.499 -9l66 -8l-5 -30h-116c-6.66699 23.333 -14.5 48.333 -23.5 75
s-18.167 52.5 -27.5 77.5l-26 69l-19 48.5c-6.66699 16.667 -13.5 30.167 -20.5 40.5s-14.833 18.5 -23.5 24.5s-18.334 10 -29.001 12s-23.334 3 -38.001 3h-65l-40 -292c-1.33301 -8 -1.33301 -13 0 -15s5.66602 -3.66699 12.999 -5l74 -8l-3 -30h-227l4 30l73 7
c7.33301 0.666992 11.833 2.33398 13.5 5.00098s3.16699 7.66699 4.5 15l41 293h-65c-10 0 -19.667 -1 -29 -3s-18.833 -6 -28.5 -12s-19.5 -14.167 -29.5 -24.5s-20.667 -23.833 -32 -40.5l-33 -48.5l-45.5 -69l-49 -77.5l-44.5 -75h-120l3 30l68 8
c7.33301 1.33301 13 4.33301 17 9s8.66699 10.667 14 18l124 190c24 38 45.333 65.667 64 83s38.667 29.333 60 36v0c-19.333 7.33301 -35 20.833 -47 40.5s-20.667 44.5 -26 74.5l-26 141c-5.33301 25.333 -12 42.5 -20 51.5s-22.333 13.5 -43 13.5
c-5.33301 0 -11.666 -0.166992 -18.999 -0.5s-14 -1.16602 -20 -2.49902l2 39c16.667 3.33301 32.667 5 48 5c30 0 51.833 -7.33301 65.5 -22s23.167 -37 28.5 -67l25 -139c3.33301 -16 7.16602 -31.167 11.499 -45.5s10.5 -26.666 18.5 -36.999s18.333 -18.5 31 -24.5
s28.667 -9 48 -9h55z" />
    <glyph glyph-name="afii10025" unicode="&#x417;" horiz-adv-x="605" 
d="M376 737c59.333 0 106.333 -13.3359 141 -40.0029s52 -67 52 -121s-16 -97.167 -48 -129.5s-74.667 -54.833 -128 -67.5l-1 -4c43.333 -7.33301 77.666 -25.166 102.999 -53.499s38 -65.166 38 -110.499c0 -27.333 -5 -54.333 -15 -81s-25.667 -50.5 -47 -71.5
s-48.5 -38 -81.5 -51s-72.5 -19.5 -118.5 -19.5c-48 0 -90.167 5.83301 -126.5 17.5s-67.833 26.167 -94.5 43.5l21 141h36l1 -105c0 -8.66699 3.66699 -15.334 11 -20.001c19.333 -11.333 42 -19.833 68 -25.5s53.667 -8.5 83 -8.5c31.333 0 59.833 4 85.5 12
s47.834 19.833 66.501 35.5s33 35.167 43 58.5s15 50.333 15 81c0 40 -13.5 72 -40.5 96s-69.833 36 -128.5 36h-112l6 43h81c32 0 62 4 90 12s52.167 19.667 72.5 35s36.5 33.833 48.5 55.5s18 45.834 18 72.501c0 46.667 -13.5 79.5 -40.5 98.5s-62.167 28.5 -105.5 28.5
c-28.667 0 -56 -2.5 -82 -7.5s-46.333 -11.167 -61 -18.5c-3.33301 -2 -5.83301 -4.16699 -7.5 -6.5s-3.16699 -6.16602 -4.5 -11.499l-32 -106h-37l20 142c24.667 15.333 56.5 27.5 95.5 36.5s77.5 13.5 115.5 13.5z" />
    <glyph glyph-name="afii10026" unicode="&#x418;" horiz-adv-x="801" 
d="M658 724l155 -0.00488281l-3 -30l-78 -8c-6.66699 -0.666992 -11 -2.16699 -13 -4.5s-3.66699 -7.16602 -5 -14.499l-84 -609c-1.33301 -8 -1.33301 -13 0 -15s5.66602 -3.66699 12.999 -5l74 -8l-3 -30h-227l4 30l73 7c7.33301 0.666992 11.833 2.33398 13.5 5.00098
s3.16699 7.66699 4.5 15l84 600h-2l-476 -657h-152l4 30l73 7c7.33301 0.666992 11.833 2.33398 13.5 5.00098s3.16699 7.66699 4.5 15l85 610c1.33301 7.33301 1.33301 12.333 0 15s-5.66602 4.33398 -12.999 5.00098l-70 7l2 30h227l-3 -30l-78 -8
c-6.66699 -0.666992 -11 -2.16699 -13 -4.5s-3.66699 -7.16602 -5 -14.499l-82 -599h2z" />
    <glyph glyph-name="afii10027" unicode="&#x419;" horiz-adv-x="801" 
d="M609 905c-16 -34.667 -33.667 -57 -53 -67s-39 -15 -59 -15s-38.667 5.5 -56 16.5s-29.333 32.5 -36 64.5l-45 -13c5.33301 -40 20.666 -68.167 45.999 -84.5s55.333 -24.5 90 -24.5c34 0 64.333 8 91 24s48.334 44 65.001 84zM658 724l155 -0.00488281l-3 -30l-78 -8
c-6.66699 -0.666992 -11 -2.16699 -13 -4.5s-3.66699 -7.16602 -5 -14.499l-84 -609c-1.33301 -8 -1.33301 -13 0 -15s5.66602 -3.66699 12.999 -5l74 -8l-3 -30h-227l4 30l73 7c7.33301 0.666992 11.833 2.33398 13.5 5.00098s3.16699 7.66699 4.5 15l84 600h-2l-476 -657
h-152l4 30l73 7c7.33301 0.666992 11.833 2.33398 13.5 5.00098s3.16699 7.66699 4.5 15l85 610c1.33301 7.33301 1.33301 12.333 0 15s-5.66602 4.33398 -12.999 5.00098l-70 7l2 30h227l-3 -30l-78 -8c-6.66699 -0.666992 -11 -2.16699 -13 -4.5
s-3.66699 -7.16602 -5 -14.499l-82 -599h2z" />
    <glyph glyph-name="afii10028" unicode="&#x41a;" horiz-adv-x="693" 
d="M544 65c3.33301 -7.33301 6.16504 -13.3359 8.49805 -18.0029s7.16602 -7.66699 14.499 -9l66 -8l-5 -30h-113c-7.33301 22 -16.166 46.333 -26.499 73l-31 78l-29 70c-9 21.333 -16.167 37.666 -21.5 48.999c-8 16.667 -15 30.167 -21 40.5s-12.667 18.5 -20 24.5
s-15.666 10 -24.999 12s-21.333 3 -36 3h-85l-40 -292c-1.33301 -8 -1.33301 -13 0 -15s5.66602 -3.66699 12.999 -5l74 -8l-3 -30h-227l4 30l73 7c7.33301 0.666992 11.833 2.33398 13.5 5.00098s3.16699 7.66699 4.5 15l85 610c1.33301 7.33301 1.33301 12.333 0 15
s-5.66602 4.33398 -12.999 5.00098l-70 7l2 30h227l-3 -30l-78 -8c-6.66699 -0.666992 -11 -2.16699 -13 -4.5s-3.66699 -7.16602 -5 -14.499l-38 -275h105c25.333 0 48.166 11.333 68.499 34s38.833 50 55.5 82l72 139c15.333 30 31 52.167 47 66.5s38 21.5 66 21.5
c16 0 33.667 -2.66699 53 -8l-9 -38l-21.5 3.5c-6.33301 1 -12.166 1.5 -17.499 1.5c-18.667 0 -33.167 -5.16699 -43.5 -15.5s-21.5 -27.166 -33.5 -50.499l-73 -139c-15.333 -29.333 -32 -54.833 -50 -76.5s-38.333 -36.167 -61 -43.5v0
c18.667 -6.66699 33.334 -19.167 44.001 -37.5s22.667 -43.833 36 -76.5z" />
    <glyph glyph-name="afii10029" unicode="&#x41b;" horiz-adv-x="730" 
d="M304 667c1.33301 7.33301 1.33008 12.332 -0.00292969 14.999s-5.66602 4.33398 -12.999 5.00098l-60 7l4 30h495l-3 -30l-66 -8c-7.33301 -1.33301 -12 -3 -14 -5s-3.66699 -6.66699 -5 -14l-84 -609c-1.33301 -8 -1.33301 -13 0 -15s5.33301 -3.66699 12 -5l65 -8
l-5 -30h-206l5 30l62 7c7.33301 1.33301 11.833 3.16602 13.5 5.49902s3.16699 7.16602 4.5 14.499l87 626h-242c-10.667 -85.333 -22 -161.666 -34 -228.999s-24.667 -129.666 -38 -186.999c-12 -50 -26 -92.667 -42 -128s-34.833 -64 -56.5 -86s-46.667 -38 -75 -48
s-60.5 -15.333 -96.5 -16l-4 45c27.333 0.666992 51.833 4.5 73.5 11.5s41 17.833 58 32.5s32 33.5 45 56.5s24.833 51.167 35.5 84.5c6.66699 20 13.834 46.5 21.501 79.5s15.334 69.5 23.001 109.5s15 82.167 22 126.5s12.833 88.5 17.5 132.5z" />
    <glyph glyph-name="afii10030" unicode="&#x41c;" horiz-adv-x="909" 
d="M585 0l2.99805 29.9971l85 9c6 0.666992 10 2.33398 12 5.00098s3.66699 7.66699 5 15l82 589l-292 -457h-44l-171 466l-85 -599c-1.33301 -8 -1.16602 -13.167 0.500977 -15.5s6.16699 -3.83301 13.5 -4.5l86 -8l-3 -30h-228l3 30l63 7
c7.33301 1.33301 11.833 3.33301 13.5 6s3.16699 7.66699 4.5 15l84 608c1.33301 7.33301 1.33301 12.333 0 15s-5.66602 4.33398 -12.999 5.00098l-60 7l4 31h143l173 -483l303 483h144l-4 -30l-67 -8c-7.33301 -1.33301 -12 -3.33301 -14 -6s-3.66699 -9 -5 -19l-84 -604
c-1.33301 -6.66699 -1 -11.167 1 -13.5s6.33301 -4.16602 13 -5.49902l65 -8l-3 -30h-228z" />
    <glyph glyph-name="afii10031" unicode="&#x41d;" horiz-adv-x="785" 
d="M480 0l5 30.002l62 7c7.33301 1.33301 11.833 3.16602 13.5 5.49902s3.16699 7.16602 4.5 14.499l41 297h-385l-41 -296c-1.33301 -8 -1.33301 -13 0 -15s5.66602 -3.66699 12.999 -5l65 -8l-5 -30h-206l4 30l63 7c7.33301 1.33301 11.833 3.16602 13.5 5.49902
s3.16699 7.16602 4.5 14.499l85 610c1.33301 7.33301 1.33301 12.333 0 15s-5.66602 4.33398 -12.999 5.00098l-60 7l4 30h206l-4 -30l-67 -8c-7.33301 -1.33301 -11.833 -3 -13.5 -5s-3.16699 -6.66699 -4.5 -14l-37 -271h385l37 271c1.33301 7.33301 1.33301 12.333 0 15
s-5.33301 4.33398 -12 5.00098l-61 7l3 30h206l-3 -30l-66 -8c-7.33301 -1.33301 -12 -3 -14 -5s-3.66699 -6.66699 -5 -14l-84 -609c-1.33301 -8 -1.33301 -13 0 -15s5.33301 -3.66699 12 -5l65 -8l-5 -30h-206z" />
    <glyph glyph-name="afii10032" unicode="&#x41e;" horiz-adv-x="748" 
d="M345 -12c-48.667 0 -90.666 7.66699 -125.999 23s-64.5 36.5 -87.5 63.5s-40.167 59 -51.5 96s-17 77.5 -17 121.5c0 64.667 8.5 124.167 25.5 178.5s41.833 101.333 74.5 141s73 70.5 121 92.5s103.333 33 166 33c47.333 0 88.333 -7.5 123 -22.5
s63.167 -35.5 85.5 -61.5s38.833 -56.333 49.5 -91s16 -72 16 -112c0 -72.667 -8.83301 -137.5 -26.5 -194.5s-42.834 -105.333 -75.501 -145s-72.5 -70 -119.5 -91s-99.5 -31.5 -157.5 -31.5zM350.001 31c45.333 0 87.667 8.66504 127 25.998s73.5 43 102.5 77
s52 75.833 69 125.5s25.5 106.834 25.5 171.501c0 20 -0.833008 40.333 -2.5 61s-6.16699 41.334 -13.5 62.001c-14.667 45.333 -40.167 80 -76.5 104s-82.166 36 -137.499 36c-45.333 0 -88 -8.5 -128 -25.5s-75 -42 -105 -75s-53.667 -74 -71 -123
s-26 -105.167 -26 -168.5c0 -20.667 0.833008 -41.667 2.5 -63s6.16699 -43 13.5 -65c15.333 -45.333 41.166 -80.5 77.499 -105.5s83.833 -37.5 142.5 -37.5z" />
    <glyph glyph-name="afii10033" unicode="&#x41f;" horiz-adv-x="769" 
d="M462 0l5 30.0029l62 7c7.33301 1.33301 11.833 3.16602 13.5 5.49902s3.16699 7.16602 4.5 14.499l87 626h-367l-87 -625c-1.33301 -8 -1.33301 -13 0 -15s5.66602 -3.66699 12.999 -5l65 -8l-5 -30h-206l4 30l63 7c7.33301 1.33301 11.833 3.16602 13.5 5.49902
s3.16699 7.16602 4.5 14.499l85 610c1.33301 7.33301 1.33301 12.333 0 15s-5.66602 4.33398 -12.999 5.00098l-60 7l4 30h620l-3 -30l-66 -8c-7.33301 -1.33301 -12 -3 -14 -5s-3.66699 -6.66699 -5 -14l-84 -609c-1.33301 -8 -1.33301 -13 0 -15s5.33301 -3.66699 12 -5
l65 -8l-5 -30h-206z" />
    <glyph glyph-name="afii10034" unicode="&#x420;" horiz-adv-x="641" 
d="M47 0l4.00195 30.001l63 7c7.33301 1.33301 12 3.16602 14 5.49902s3.66699 7.16602 5 14.499l84 610c1.33301 7.33301 1.16602 12.333 -0.500977 15s-6.16699 4.33398 -13.5 5.00098l-60 7l4 30h279c39.333 0 72.333 -4.66699 99 -14s48.5 -22.166 65.5 -38.499
s29.167 -35.333 36.5 -57s11 -44.834 11 -69.501c0 -48 -7 -88.667 -21 -122s-34 -60.5 -60 -81.5s-57.667 -36.167 -95 -45.5s-79.333 -14 -126 -14h-126l-31 -224c-0.666992 -8 -0.333984 -13.167 0.999023 -15.5s5.33301 -3.83301 12 -4.5l139 -8l-4 -30h-280z
M339.002 323.001c35.333 0 67.999 2.83301 97.999 8.5s56.333 16.5 79 32.5s40.334 38.167 53.001 66.5s19 65.5 19 111.5s-13.833 81 -41.5 105s-73.167 36 -136.5 36h-145l-49 -360h123z" />
    <glyph glyph-name="afii10035" unicode="&#x421;" horiz-adv-x="657" 
d="M585 39c-28 -18 -63 -31.0049 -105 -39.0049s-85.667 -12 -131 -12c-50.667 0 -93.834 7.83301 -129.501 23.5s-64.834 37.167 -87.501 64.5s-39.334 59.833 -50.001 97.5s-16 78.834 -16 123.501c0 63.333 8.66699 122 26 176s43 100.5 77 139.5s76.167 69.5 126.5 91.5
s108.166 33 173.499 33c44.667 0 84.334 -4.83301 119.001 -14.5s62.667 -22.167 84 -37.5l-19 -134l-38 2l-4 92c0 5.33301 -0.666992 9.33301 -2 12s-4.66602 5 -9.99902 7c-19.333 7.33301 -40.333 13.833 -63 19.5s-48 8.5 -76 8.5c-49.333 0 -95 -8.66699 -137 -26
s-78.167 -42.666 -108.5 -75.999s-54.166 -74.166 -71.499 -122.499s-26 -103.166 -26 -164.499c0 -87.333 19.833 -154.333 59.5 -201s100.5 -70 182.5 -70c26 0 54.333 2 85 6s58 11.333 82 22c6.66699 2.66699 11.334 8.33398 14.001 17.001l29 87h33z" />
    <glyph glyph-name="afii10036" unicode="&#x422;" horiz-adv-x="606" 
d="M136 0l4.99902 29.998l98 7c6.66699 0.666992 11 2.33398 13 5.00098s3.66699 7.66699 5 15l87 626h-190c-5.33301 0 -9.16602 -0.5 -11.499 -1.5s-4.16602 -4.16699 -5.49902 -9.5l-27 -89h-32l18 141h558l-19 -141h-32l-4 89c-0.666992 5.33301 -2 8.5 -4 9.5
s-5.33301 1.5 -10 1.5h-193l-86 -626c-1.33301 -7.33301 -1.33301 -12.166 0 -14.499s5.66602 -3.83301 12.999 -4.5l109 -8l-6 -30h-286z" />
    <glyph glyph-name="afii10037" unicode="&#x423;" horiz-adv-x="628" 
d="M590 685l-74.002 9l7 30h179l-4 -30l-42 -11c-8 -2 -14.167 -5 -18.5 -9s-9.16602 -10.667 -14.499 -20l-282 -527c-12.667 -24 -24.5 -44.833 -35.5 -62.5s-22.667 -32.167 -35 -43.5s-26.333 -19.666 -42 -24.999s-34.5 -8 -56.5 -8c-20 0 -40.167 3.16699 -60.5 9.5
s-36.166 13.833 -47.499 22.5l20 38c9.33301 -6.66699 21.833 -13.334 37.5 -20.001s33.5 -10 53.5 -10c28 0 49 6.16699 63 18.5s28 31.5 42 57.5l17 32l-150 530c-1.33301 6 -3.83301 10 -7.5 12s-8.16699 3.66699 -13.5 5l-43 11l6 30h181l-3 -30l-75 -10l134 -496h2z
" />
    <glyph glyph-name="afii10038" unicode="&#x424;" horiz-adv-x="764" 
d="M109 346c0 -32 5.16992 -59 15.5029 -81s25.666 -39.667 45.999 -53s45.666 -23 75.999 -29s65.166 -9.33301 104.499 -10l55 394c-42 0 -81 -3.66699 -117 -11s-67.333 -19.5 -94 -36.5s-47.667 -39.667 -63 -68s-23 -63.5 -23 -105.5zM399.003 174
c44 0 84.167 3.83398 120.5 11.501s67.5 20.667 93.5 39s46.167 42.5 60.5 72.5s21.5 67 21.5 111c0 55.333 -19.333 95.166 -58 119.499s-100 37.5 -184 39.5zM459.003 607.001c97.333 -2.66699 168.667 -20.3369 214 -53.0039s68 -80.334 68 -143.001
c0 -94 -28.833 -162.667 -86.5 -206s-144.5 -66.666 -260.5 -69.999l-11 -77c-1.33301 -8 -1.33301 -13 0 -15s5.66602 -3.66699 12.999 -5l74 -8l-3 -30h-227l4 30l73 7c7.33301 0.666992 11.833 2.33398 13.5 5.00098s3.16699 7.66699 4.5 15l11 77
c-100.667 3.33301 -173.167 21.333 -217.5 54s-66.5 84.334 -66.5 155.001c0 46.667 8 86.334 24 119.001s39 59.5 69 80.5s66.667 36.667 110 47s92.333 16.166 147 17.499l8 60c1.33301 7.33301 1.33301 12.333 0 15s-5.66602 4.33398 -12.999 5.00098l-70 7l2 30h227
l-3 -30l-78 -8c-6.66699 -0.666992 -11 -2.16699 -13 -4.5s-3.66699 -7.16602 -5 -14.499z" />
    <glyph glyph-name="afii10039" unicode="&#x425;" horiz-adv-x="634" 
d="M396 0l3.99902 30.002l74 9l-148 298l-213 -298l68 -9l-5 -30h-185l3 28l47 11c10.667 2.66699 20 9 28 19l231 322l-140 286c-2.66699 5.33301 -5.5 9.16602 -8.5 11.499s-7.16699 4.16602 -12.5 5.49902l-39 11l5 30h172l-5 -30l-67 -8l131 -273l206 272l-68 9l6 30
h175l-6 -30l-40 -11c-11.333 -2.66699 -20.666 -9 -27.999 -19l-220 -291l159 -315c2.66699 -5.33301 5.5 -9 8.5 -11s7.16699 -3.66699 12.5 -5l49 -12l-6 -30h-188z" />
    <glyph glyph-name="afii10040" unicode="&#x426;" horiz-adv-x="752" 
d="M42 0l2.99902 29.9961l66 8c7.33301 1.33301 12 3 14 5s3.66699 6.66699 5 14l84 609c1.33301 8 1.33301 13 0 15s-5.33301 3.66699 -12 5l-65 8l5 30h206l-5 -30l-62 -7c-7.33301 -1.33301 -11.833 -3.16602 -13.5 -5.49902s-3.16699 -7.16602 -4.5 -14.499l-87 -626
h353l87 625c1.33301 8 1.33301 13 0 15s-5.66602 3.66699 -12.999 5l-65 8l5 30h206l-4 -30l-63 -7c-7.33301 -1.33301 -11.833 -3.16602 -13.5 -5.49902s-3.16699 -7.16602 -4.5 -14.499l-87 -626h79l-23 -196l-35 2l-1 140c0 8.66699 -5 13 -15 13h-540z" />
    <glyph glyph-name="afii10041" unicode="&#x427;" horiz-adv-x="711" 
d="M576 667c1.33301 7.33301 1.3291 12.332 -0.00390625 14.999s-5.66602 4.33398 -12.999 5.00098l-70 7l2 30h227l-3 -30l-78 -8c-6.66699 -1.33301 -11 -3 -13 -5s-3.66699 -6.66699 -5 -14l-84 -609c-1.33301 -8 -1.33301 -13 0 -15s5.66602 -3.66699 12.999 -5l74 -8
l-3 -30h-247l4 30l93 7c7.33301 0.666992 11.833 2.33398 13.5 5.00098s3.16699 7.66699 4.5 15l36 259c-12.667 -4.66699 -27.167 -8.83398 -43.5 -12.501s-32.833 -7 -49.5 -10s-33.167 -5.33301 -49.5 -7s-31.166 -2.5 -44.499 -2.5c-67.333 0 -117 14.167 -149 42.5
s-44 75.5 -36 141.5l28 199c1.33301 7.33301 1.33301 12.333 0 15s-5.66602 4.33398 -12.999 5.00098l-60 7l2 30h217l-3 -30l-78 -8c-6.66699 -1.33301 -11 -3 -13 -5s-3.66699 -6.66699 -5 -14l-24 -179c-3.33301 -24.667 -4.5 -47 -3.5 -67s6 -37.167 15 -51.5
s23.333 -25.333 43 -33s46.834 -11.5 81.501 -11.5c15.333 0 31.666 1 48.999 3s34.833 4.66699 52.5 8s34.334 7.16602 50.001 11.499s28.834 8.83301 39.501 13.5z" />
    <glyph glyph-name="afii10042" unicode="&#x428;" horiz-adv-x="1054" 
d="M42 0l2.99805 29.9941l66 8c7.33301 1.33301 12 3 14 5s3.66699 6.66699 5 14l84 609c1.33301 8 1.33301 13 0 15s-5.33301 3.66699 -12 5l-65 8l5 30h206l-5 -30l-62 -7c-7.33301 -1.33301 -11.833 -3.16602 -13.5 -5.49902s-3.16699 -7.16602 -4.5 -14.499l-87 -626
h304l87 625c1.33301 8 1.33301 13 0 15s-5.66602 3.66699 -12.999 5l-75 8l5 30h226l-4 -30l-73 -7c-7.33301 -1.33301 -11.833 -3.16602 -13.5 -5.49902s-3.16699 -7.16602 -4.5 -14.499l-87 -626h304l87 625c1.33301 8 1.33301 13 0 15s-5.66602 3.66699 -12.999 5l-65 8
l5 30h206l-4 -30l-63 -7c-7.33301 -1.33301 -11.833 -3.16602 -13.5 -5.49902s-3.16699 -7.16602 -4.5 -14.499l-85 -609c-1.33301 -8 -1.33301 -13 0 -15s5.33301 -3.66699 12 -5l65 -8l-5 -30h-912z" />
    <glyph glyph-name="afii10043" unicode="&#x429;" horiz-adv-x="1042" 
d="M42 0l2.99805 29.9941l66 8c7.33301 1.33301 12 3 14 5s3.66699 6.66699 5 14l84 609c1.33301 8 1.33301 13 0 15s-5.33301 3.66699 -12 5l-65 8l5 30h206l-5 -30l-62 -7c-7.33301 -1.33301 -11.833 -3.16602 -13.5 -5.49902s-3.16699 -7.16602 -4.5 -14.499l-87 -626
h298l87 625c1.33301 8 1.33301 13 0 15s-5.66602 3.66699 -12.999 5l-75 8l5 30h226l-4 -30l-73 -7c-7.33301 -1.33301 -11.833 -3.16602 -13.5 -5.49902s-3.16699 -7.16602 -4.5 -14.499l-87 -626h298l87 625c1.33301 8 1.33301 13 0 15s-5.66602 3.66699 -12.999 5l-65 8
l5 30h206l-4 -30l-63 -7c-7.33301 -1.33301 -11.833 -3.16602 -13.5 -5.49902s-3.16699 -7.16602 -4.5 -14.499l-87 -626h79l-23 -196l-35 2l-1 140c0 8.66699 -5 13 -15 13h-831z" />
    <glyph glyph-name="afii10044" unicode="&#x42a;" horiz-adv-x="745" 
d="M329 382l-50.0039 -341h131c74.667 0 131.334 16.5 170.001 49.5s58 85.833 58 158.5c0 26 -4.66699 47.5 -14 64.5s-21.666 30.667 -36.999 41s-33.166 17.5 -53.499 21.5s-41.166 6 -62.499 6h-142zM488.996 724l-3.00293 -30.002l-102 -8
c-6.66699 -0.666992 -11 -2.16699 -13 -4.5s-3.66699 -7.16602 -5 -14.499l-31 -243h134c32.667 0 62.5 -3 89.5 -9s50.333 -15.833 70 -29.5s34.834 -31.334 45.501 -53.001s16 -48.5 16 -80.5c0 -44.667 -6.33301 -83 -19 -115s-31.167 -58.167 -55.5 -78.5
s-53.833 -35.166 -88.5 -44.499s-74 -14 -118 -14h-270l4 30l73 7c7.33301 0.666992 11.833 2.33398 13.5 5.00098s3.16699 7.66699 4.5 15l87 626h-146c-5.33301 0 -9.16602 -0.5 -11.499 -1.5s-4.16602 -4.16699 -5.49902 -9.5l-29 -105h-32l20 157h372z" />
    <glyph glyph-name="afii10045" unicode="&#x42b;" horiz-adv-x="930" 
d="M36 0l4 29.9961l73 7c7.33301 0.666992 11.833 2.33398 13.5 5.00098s3.16699 7.66699 4.5 15l85 610c1.33301 7.33301 1.33301 12.333 0 15s-5.66602 4.33398 -12.999 5.00098l-60 7l2 30h241l-3 -30l-102 -8c-6.66699 -0.666992 -11 -2.16699 -13 -4.5
s-3.66699 -7.16602 -5 -14.499l-32 -243h140c30 0 58.167 -3 84.5 -9s49.333 -15.833 69 -29.5s35 -31.667 46 -54s16.5 -49.5 16.5 -81.5c0 -44 -6.66699 -81.833 -20 -113.5s-32.333 -57.667 -57 -78s-53.834 -35.166 -87.501 -44.499s-71.167 -14 -112.5 -14h-274z
M225 382.996l-49.001 -342h129c74.667 0 131.667 16.5 171 49.5s59 85.833 59 158.5c0 26 -4.66699 47.667 -14 65s-21.833 31 -37.5 41s-33.667 17.167 -54 21.5s-41.166 6.5 -62.499 6.5h-142zM613.999 -0.00390625l4 29.998l73 7
c7.33301 0.666992 11.833 2.33398 13.5 5.00098s3.16699 7.66699 4.5 15l85 610c1.33301 7.33301 1.33301 12.333 0 15s-5.66602 4.33398 -12.999 5.00098l-70 7l2 30h227l-3 -30l-78 -8c-6.66699 -1.33301 -11 -3 -13 -5s-3.66699 -6.66699 -5 -14l-84 -609
c-1.33301 -8 -1.33301 -13 0 -15s5.66602 -3.66699 12.999 -5l74 -8l-3 -30h-227z" />
    <glyph glyph-name="afii10046" unicode="&#x42c;" horiz-adv-x="642" 
d="M36 0l4 29.9961l73 7c7.33301 0.666992 11.833 2.33398 13.5 5.00098s3.16699 7.66699 4.5 15l85 610c1.33301 7.33301 1.33301 12.333 0 15s-5.66602 4.33398 -12.999 5.00098l-60 7l2 30h241l-3 -30l-102 -8c-6.66699 -0.666992 -11 -2.16699 -13 -4.5
s-3.66699 -7.16602 -5 -14.499l-32 -243h140c30 0 58.167 -3 84.5 -9s49.333 -15.833 69 -29.5s35 -31.667 46 -54s16.5 -49.5 16.5 -81.5c0 -44 -6.83301 -81.833 -20.5 -113.5s-32.834 -57.667 -57.501 -78s-54 -35.166 -88 -44.499s-71.667 -14 -113 -14h-272z
M225 381.996l-49.001 -341h129c74.667 0 131.667 16.5 171 49.5s59 85.833 59 158.5c0 26 -4.66699 47.5 -14 64.5s-21.833 30.667 -37.5 41s-33.667 17.5 -54 21.5s-41.166 6 -62.499 6h-142z" />
    <glyph glyph-name="afii10047" unicode="&#x42d;" horiz-adv-x="676" 
d="M202 342l6.00293 41.001h392c0.666992 6 1 12.333 1 19v20c0 87.333 -19.833 154.333 -59.5 201s-100.5 70 -182.5 70c-26 0 -53.833 -2 -83.5 -6s-56.834 -10.667 -81.501 -20c-3.33301 -1.33301 -6 -3.33301 -8 -6s-4 -7 -6 -13l-29 -87h-33l17 131
c12 6 26.833 11.833 44.5 17.5s36.5 10.5 56.5 14.5s41 7.16699 63 9.5s43.667 3.5 65 3.5c52 0 96.167 -7.66699 132.5 -23s66 -36.833 89 -64.5s39.833 -60.334 50.5 -98.001s16 -78.834 16 -123.501c0 -63.333 -8.33301 -122 -25 -176s-41.5 -100.5 -74.5 -139.5
s-74 -69.5 -123 -91.5s-106.167 -33 -171.5 -33c-20 0 -40.167 1.33301 -60.5 4s-39.833 6.5 -58.5 11.5s-35.667 10.667 -51 17s-28 12.833 -38 19.5l19 134l38 -2l4 -95c0 -5.33301 0.666992 -9.33301 2 -12s4.66602 -5 9.99902 -7c19.333 -7.33301 40 -13.333 62 -18
s49.333 -7 82 -7c42 0 81.5 6.83301 118.5 20.5s69.833 33.834 98.5 60.501s52.667 59.167 72 97.5s32.666 81.833 39.999 130.5h-394z" />
    <glyph glyph-name="afii10048" unicode="&#x42e;" horiz-adv-x="1049" 
d="M411 396c7.33301 50.667 20.1699 97.002 38.5029 139.002s42.166 78 71.499 108s64.666 53.167 105.999 69.5s88.666 24.5 141.999 24.5c48 0 88.333 -8 121 -24s59 -37.333 79 -64s34.333 -57.334 43 -92.001s13 -71 13 -109c0 -72 -7.83301 -136.5 -23.5 -193.5
s-38.667 -105.167 -69 -144.5s-67.833 -69.5 -112.5 -90.5s-96 -31.5 -154 -31.5c-54 0 -98.5 10.333 -133.5 31s-62.5 48 -82.5 82s-33.167 73 -39.5 117s-7.83301 89.333 -4.5 136h-185l-41 -296c-1.33301 -8 -1.33301 -13 0 -15s5.66602 -3.66699 12.999 -5l65 -8l-5 -30
h-206l4 30l63 7c7.33301 1.33301 11.833 3.16602 13.5 5.49902s3.16699 7.16602 4.5 14.499l85 610c1.33301 7.33301 1.33301 12.333 0 15s-5.66602 4.33398 -12.999 5.00098l-60 7l4 30h206l-4 -30l-67 -8c-7.33301 -1.33301 -11.833 -3 -13.5 -5
s-3.16699 -6.66699 -4.5 -14l-37 -271h183zM671.004 32.002c45.333 0 86.499 8.66406 123.499 25.9971s69 42.833 96 76.5s47.833 75.334 62.5 125.001s22 106.834 22 171.501c0 35.333 -3.5 68.833 -10.5 100.5s-18.833 59.5 -35.5 83.5s-38.667 43.167 -66 57.5
s-61.333 21.5 -102 21.5c-44 0 -84.833 -8.16699 -122.5 -24.5s-70 -40.833 -97 -73.5s-48.167 -73.167 -63.5 -121.5s-23 -104.166 -23 -167.499c0 -36 3.5 -70.5 10.5 -103.5s18.833 -62.333 35.5 -88s38.834 -46 66.501 -61s62.167 -22.5 103.5 -22.5z" />
    <glyph glyph-name="afii10049" unicode="&#x42f;" horiz-adv-x="694" 
d="M510 321l-139 -0.00292969c-23.333 0 -41.166 -4.83301 -53.499 -14.5s-25.833 -25.834 -40.5 -48.501c-8 -12 -17.667 -27.833 -29 -47.5l-36 -65l-39 -73l-38 -72.5h-122l3 30l68 8c7.33301 1.33301 12.833 3.33301 16.5 6s7.5 7.66699 11.5 15l104 189
c13.333 24 26.333 43.167 39 57.5s28.667 25.5 48 33.5c-43.333 11.333 -77.5 30.833 -102.5 58.5s-37.5 65.5 -37.5 113.5c0 28.667 4.83301 55.834 14.5 81.501s24.667 48.334 45 68.001s46.833 35.167 79.5 46.5s72 17 118 17h284l-3 -30l-78 -8
c-6.66699 -0.666992 -11 -2.16699 -13 -4.5s-3.66699 -7.16602 -5 -14.499l-84 -609c-1.33301 -8 -1.33301 -13 0 -15s5.66602 -3.66699 12.999 -5l74 -8l-3 -30h-227l4 30l73 7c7.33301 0.666992 11.833 2.33398 13.5 5.00098s3.16699 7.66699 4.5 15zM516 361.997
l44.001 321h-144c-26 0 -51.167 -2.83301 -75.5 -8.5s-45.833 -15 -64.5 -28s-33.667 -30.5 -45 -52.5s-17 -49.333 -17 -82c0 -26.667 4.66699 -49.5 14 -68.5s22.166 -34.5 38.499 -46.5s35.833 -20.833 58.5 -26.5s47 -8.5 73 -8.5h118z" />
    <glyph glyph-name="afii10065" unicode="&#x430;" horiz-adv-x="566" 
d="M383 0l14.998 104.001l-44.5 -41.5c-15 -13.667 -30.833 -26 -47.5 -37s-33.834 -20 -51.501 -27s-36.5 -10.5 -56.5 -10.5c-46.667 0 -83 15 -109 45s-39 76.333 -39 139c0 39.333 4.16699 79.5 12.5 120.5s22.166 78.167 41.499 111.5s44.666 60.666 75.999 81.999
s70 32 116 32c30.667 0 59.334 -6.33301 86.001 -19s48.334 -26 65.001 -40l15 49h49c-5.33301 -19.333 -10.166 -38.333 -14.499 -57s-8.16602 -38 -11.499 -58l-47 -336c-1.33301 -8 -1.16602 -13 0.500977 -15s6.16699 -3.66699 13.5 -5l51 -7l-5 -30h-115z
M438.998 411.001c-14.667 16 -35.666 30.9971 -62.999 44.9971s-56.666 21 -87.999 21c-36.667 0 -67.167 -9.66699 -91.5 -29s-44 -43.666 -59 -72.999s-25.667 -61.666 -32 -96.999s-9.5 -68.666 -9.5 -99.999c0 -28.667 2.66699 -52.5 8 -71.5s12.666 -34.333 21.999 -46
s20.333 -19.834 33 -24.501s26.334 -7 41.001 -7c20 0 39.667 4.66699 59 14s37.666 20.833 54.999 34.5s33.666 28.334 48.999 44.001l41 42.5z" />
    <glyph glyph-name="afii10066" unicode="&#x431;" horiz-adv-x="538" 
d="M239 -12c-60.667 0 -106.166 20.166 -136.499 60.499s-45.5 93.833 -45.5 160.5c0 39.333 3.5 82.5 10.5 129.5s18.167 90.833 33.5 131.5c20 56 52.667 103.667 98 143s105 65.666 179 78.999c22 4 39.167 7.5 51.5 10.5s21.833 6 28.5 9s11.5 6.5 14.5 10.5
s5.83301 9.33301 8.5 16l42 2c0 -18.667 -3 -33.5 -9 -44.5s-14.833 -19.5 -26.5 -25.5s-26.334 -10.667 -44.001 -14s-38.5 -7 -62.5 -11c-72.667 -12.667 -129.5 -39.167 -170.5 -79.5s-72.167 -98.166 -93.5 -173.499l4 -2c12 20.667 25.833 38 41.5 52
s32.167 25.333 49.5 34s35.333 14.834 54 18.501s37 5.5 55 5.5c30 0 56 -5 78 -15s40 -23.5 54 -40.5s24.5 -36.5 31.5 -58.5s10.5 -45.333 10.5 -70c0 -40 -4.5 -79.5 -13.5 -118.5s-23.5 -74 -43.5 -105s-46.333 -56.167 -79 -75.5s-72.667 -29 -120 -29zM245.001 29.999
c36.667 0 67.666 8.16895 92.999 24.502s46 37.666 62 63.999s27.5 56.166 34.5 89.499s10.5 67 10.5 101c0 46 -10.167 82 -30.5 108s-53.5 39 -99.5 39c-34 0 -64.167 -6.33301 -90.5 -19s-48.166 -30 -65.499 -52s-30.5 -48 -39.5 -78s-13.5 -62.333 -13.5 -97
c0 -24 2.16699 -47 6.5 -69s11.833 -41.167 22.5 -57.5s25 -29.333 43 -39s40.333 -14.5 67 -14.5z" />
    <glyph glyph-name="afii10067" unicode="&#x432;" horiz-adv-x="520" 
d="M251 -12c-17.333 0 -35 0.833008 -53 2.5s-35.167 4 -51.5 7s-31.5 6.33301 -45.5 10s-25.333 7.16699 -34 10.5l49 350c4.66699 34.667 15 62 31 82s34.333 35 55 45s41.667 16.333 63 19s39.666 4 54.999 4c29.333 0 53.5 -3.5 72.5 -10.5s34.167 -16 45.5 -27
s19.333 -23.5 24 -37.5s7 -28 7 -42c0 -32 -9.33301 -59.833 -28 -83.5s-45.334 -41.834 -80.001 -54.501v-3c34 -5.33301 60.333 -16.666 79 -33.999s28 -41 28 -71c0 -29.333 -5.5 -54.5 -16.5 -75.5s-26.167 -38.333 -45.5 -52s-42.166 -23.667 -68.499 -30
s-55.166 -9.5 -86.499 -9.5zM120 49c10 -3.33301 26.6641 -7.33301 49.9971 -12s52 -7 86 -7c22 0 42.833 2.16699 62.5 6.5s36.834 11.5 51.501 21.5s26.334 23 35.001 39s13 35.333 13 58c0 20 -4.16699 35.5 -12.5 46.5s-19.666 19.167 -33.999 24.5s-31 8.5 -50 9.5
s-39.167 1.5 -60.5 1.5h-115zM268.997 280c18 0 35.667 2.16602 53 6.49902s32.833 11 46.5 20s24.667 20.667 33 35s12.5 31.833 12.5 52.5c0 28 -8 48.333 -24 61s-41 19 -75 19c-19.333 0 -37.5 -1.5 -54.5 -4.5s-32 -8.66699 -45 -17s-23.833 -19.666 -32.5 -33.999
s-14.667 -32.833 -18 -55.5l-12 -83h116z" />
    <glyph glyph-name="afii10068" unicode="&#x433;" horiz-adv-x="436" 
d="M261 478c-20 0 -37.3359 -1.1709 -52.0029 -3.50391s-28.334 -5.83301 -41.001 -10.5c-4 -1.33301 -6.66699 -3.5 -8 -6.5s-2.66602 -6.16699 -3.99902 -9.5l-21 -72h-37l14 107c17.333 10 39.5 18.333 66.5 25s55.167 10 84.5 10c99.333 0 149 -38.667 149 -116
c0 -26 -5.33301 -48 -16 -66s-24.667 -33.167 -42 -45.5s-37.166 -22.666 -59.499 -30.999s-45.5 -16.166 -69.5 -23.499c-17.333 -5.33301 -33.833 -11.166 -49.5 -17.499s-29.334 -14 -41.001 -23s-21 -19.5 -28 -31.5s-10.5 -26.333 -10.5 -43
c0 -30 9.33301 -52.833 28 -68.5s43.334 -23.5 74.001 -23.5c36.667 0 68 8 94 24s48.667 33.333 68 52l27 -30c-10 -10.667 -21.667 -21.167 -35 -31.5s-28.166 -19.666 -44.499 -27.999s-33.833 -15 -52.5 -20s-38.667 -7.5 -60 -7.5c-44 0 -79.667 11 -107 33
s-41 54 -41 96c0 26 5 47.667 15 65s23.333 32 40 44s35.334 22 56.001 30s41.667 15.333 63 22c18.667 6 36.5 12.167 53.5 18.5s32.167 14 45.5 23s24 20 32 33s12 28.833 12 47.5c0 24 -8 43 -24 57s-42.333 21 -79 21z" />
    <glyph glyph-name="afii10069" unicode="&#x434;" horiz-adv-x="524" 
d="M177 738c68 -8 122.5 -23.834 163.5 -47.501s72.667 -51.667 95 -84s37.166 -67.166 44.499 -104.499s11 -73 11 -107c0 -15.333 -0.5 -36 -1.5 -62s-4 -54 -9 -84s-12.667 -60.5 -23 -91.5s-25 -59 -44 -84s-43 -45.5 -72 -61.5s-64.5 -24 -106.5 -24
c-34.667 0 -64 5.33301 -88 16s-43.5 25.5 -58.5 44.5s-25.833 41.5 -32.5 67.5s-10 54.333 -10 85c0 44 5.5 84.333 16.5 121s26.833 68.167 47.5 94.5s46 46.833 76 61.5s64 22 102 22c33.333 0 63 -6 89 -18s48.333 -26.333 67 -43c-4 36 -11.667 68.667 -23 98
s-28.166 55 -50.499 77s-50.5 40.5 -84.5 55.5s-75.667 26.167 -125 33.5zM445 384.999c-6.66699 8 -14.999 16.333 -24.999 25s-21.667 16.5 -35 23.5s-28.333 12.667 -45 17s-34.667 6.5 -54 6.5c-32 0 -60 -6.16699 -84 -18.5s-43.833 -29.833 -59.5 -52.5
s-27.5 -50.167 -35.5 -82.5s-12 -68.166 -12 -107.499c0 -20 2 -39.833 6 -59.5s11.167 -37.334 21.5 -53.001s24.5 -28.5 42.5 -38.5s41 -15 69 -15c45.333 0 81.666 11.333 108.999 34s48.5 51.5 63.5 86.5s25 73.333 30 115s7.83301 81.5 8.5 119.5z" />
    <glyph glyph-name="afii10070" unicode="&#x435;" horiz-adv-x="462" 
d="M392 24c-23.333 -12.667 -48.833 -21.834 -76.5 -27.501s-56.167 -8.5 -85.5 -8.5c-34 0 -62.833 4.83301 -86.5 14.5s-42.667 23.334 -57 41.001s-24.666 38.834 -30.999 63.501s-9.5 51.667 -9.5 81c0 40 6.16699 79.833 18.5 119.5s30 75 53 106s51 56.167 84 75.5
s70.5 29 112.5 29c24 0 44.167 -3.16699 60.5 -9.5s29.166 -14.5 38.499 -24.5s16 -21.667 20 -35s6 -27 6 -41c0 -26.667 -6.33301 -49.834 -19 -69.501s-29 -36.5 -49 -50.5s-42.667 -25.5 -68 -34.5s-50.833 -16.333 -76.5 -22s-50.167 -10.167 -73.5 -13.5
s-43 -6 -59 -8c0 -28.667 1.83301 -54 5.5 -76s10.667 -40.5 21 -55.5s24.833 -26.5 43.5 -34.5s42.667 -12 72 -12c28.667 0 54.667 2.83301 78 8.5s45.333 13.5 66 23.5zM100 251c20.667 2.66699 47.167 6.50098 79.5 11.501s64 13 95 24s57.667 25.667 80 44
s33.5 42.5 33.5 72.5c0 21.333 -6 38.666 -18 51.999s-32 20 -60 20s-54 -6.16699 -78 -18.5s-45 -28.833 -63 -49.5s-33 -44.5 -45 -71.5s-20 -55.167 -24 -84.5z" />
    <glyph glyph-name="afii10072" unicode="&#x436;" horiz-adv-x="725" 
d="M388 448c2 12 -1.66992 18.998 -11.0029 20.998l-45 12l3 27h105l4 -6l-33 -222h45c23.333 0 42.333 7.5 57 22.5s27.334 33.5 38.001 55.5l45 90c11.333 22.667 22.833 39.834 34.5 51.501s29.167 17.5 52.5 17.5c6 0 13 -0.666992 21 -2s15.333 -2.66602 22 -3.99902
l-5 -35c-12 2 -22.333 3 -31 3c-14.667 0 -24.834 -3.66699 -30.501 -11s-12.834 -19.666 -21.501 -36.999l-41 -83c-10.667 -22 -22.667 -41.333 -36 -58s-29.666 -27.667 -48.999 -33c14 -5.33301 26 -13.166 36 -23.499s19.667 -27.5 29 -51.5l48 -125
c4 -10.667 10.667 -17 20 -19l47 -8l-5 -30h-89c-13.333 40 -26.166 75.833 -38.499 107.5s-24.166 59.5 -35.499 83.5c-9.33301 20 -19.666 33.167 -30.999 39.5s-27.333 9.5 -48 9.5h-40l-34 -240h-47l34 240h-40c-19.333 0 -35 -3.33301 -47 -10s-25 -18.667 -39 -36
c-20.667 -25.333 -41.334 -54.5 -62.001 -87.5l-66 -106.5h-93l3 30l51 8c9.33301 2 17 7.66699 23 17l81 127c14.667 23.333 28.834 40.333 42.501 51s29.167 18.667 46.5 24c-15.333 6 -27.5 17.167 -36.5 33.5s-15.833 35.5 -20.5 57.5l-17 83
c-3.33301 17.333 -7.66602 29.666 -12.999 36.999s-15.666 11 -30.999 11h-13c-4.66699 0 -10 -0.666992 -16 -2l5 37c8.66699 1.33301 16.167 2.33301 22.5 3s12.5 1 18.5 1c23.333 0 39.166 -5.83301 47.499 -17.5s15.166 -29.167 20.499 -52.5l21 -90
c6 -24.667 14 -43.834 24 -57.501s26.667 -20.5 50 -20.5h43z" />
    <glyph glyph-name="afii10073" unicode="&#x437;" horiz-adv-x="465" 
d="M275 518c50 0 88.333 -10.5039 115 -31.5039s40 -50.5 40 -88.5c0 -34.667 -11 -63.834 -33 -87.501s-52.667 -39.5 -92 -47.5v-3c30 -5.33301 54.833 -16.666 74.5 -33.999s29.5 -43.666 29.5 -78.999c0 -26 -5 -48.833 -15 -68.5s-24 -36.167 -42 -49.5
s-39.167 -23.5 -63.5 -30.5s-51.166 -10.5 -80.499 -10.5c-42 0 -78.833 6.33301 -110.5 19s-54.5 27.667 -68.5 45l31 34c16 -15.333 36.333 -28.5 61 -39.5s54.334 -16.5 89.001 -16.5c17.333 0 34.666 2 51.999 6s33.333 10.5 48 19.5s26.5 20.833 35.5 35.5
s13.5 32.667 13.5 54c0 61.333 -41.333 92 -124 92h-93l7 42h72c22.667 0 43.667 2.66699 63 8s36.166 12.833 50.499 22.5s25.5 21.5 33.5 35.5s12 29.667 12 47c0 15.333 -2.83301 28.333 -8.5 39s-13.5 19.334 -23.5 26.001s-21.5 11.334 -34.5 14.001s-26.833 4 -41.5 4
c-19.333 0 -37.5 -1.16699 -54.5 -3.5s-31.833 -5.5 -44.5 -9.5c-4.66699 -1.33301 -7.66699 -3.16602 -9 -5.49902s-2.66602 -5.5 -3.99902 -9.5l-22 -71h-36l14 110c17.333 9.33301 40.166 17 68.499 23s58.5 9 90.5 9z" />
    <glyph glyph-name="afii10074" unicode="&#x438;" horiz-adv-x="608" 
d="M420 0l15.0029 107.001c-40 -34 -78.167 -62.5 -114.5 -85.5s-74.166 -34.5 -113.499 -34.5c-32.667 0 -59.5 8.66699 -80.5 26s-31.5 48.333 -31.5 93c0 8.66699 0.666992 19.167 2 31.5s2.66602 23.5 3.99902 33.5l39 279c1.33301 8 1.16602 13 -0.500977 15
s-6.16699 3.66699 -13.5 5l-54 8l4 30h120l1 -2l-45 -317c-2.66699 -16.667 -4.5 -31.5 -5.5 -44.5s-1.5 -22.833 -1.5 -29.5c0 -28 5 -49.167 15 -63.5s28.667 -21.5 56 -21.5c20 0 41.667 5.83301 65 17.5s45.666 25 66.999 40s40.5 30 57.5 45l37.5 32.5l39 285
c1.33301 8 1.16602 13 -0.500977 15s-6.16699 3.66699 -13.5 5l-65 8l5 30h130l2 -2l-63 -451c-2 -10.667 1 -16.334 9 -17.001l58 -9l-4 -29h-120z" />
    <glyph glyph-name="afii10075" unicode="&#x439;" horiz-adv-x="608" 
d="M420 0l15.0029 107.001c-40 -34 -78.167 -62.5 -114.5 -85.5s-74.166 -34.5 -113.499 -34.5c-32.667 0 -59.5 8.66699 -80.5 26s-31.5 48.333 -31.5 93c0 8.66699 0.666992 19.167 2 31.5s2.66602 23.5 3.99902 33.5l39 279c1.33301 8 1.16602 13 -0.500977 15
s-6.16699 3.66699 -13.5 5l-54 8l4 30h120l1 -2l-45 -317c-2.66699 -16.667 -4.5 -31.5 -5.5 -44.5s-1.5 -22.833 -1.5 -29.5c0 -28 5 -49.167 15 -63.5s28.667 -21.5 56 -21.5c20 0 41.667 5.83301 65 17.5s45.666 25 66.999 40s40.5 30 57.5 45l37.5 32.5l39 285
c1.33301 8 1.16602 13 -0.500977 15s-6.16699 3.66699 -13.5 5l-65 8l5 30h130l2 -2l-63 -451c-2 -10.667 1 -16.334 9 -17.001l58 -9l-4 -29h-120zM505.003 704.001c-12.667 -40 -33.167 -71.833 -61.5 -95.5s-66.833 -35.5 -115.5 -35.5c-43.333 0 -75.5 12.667 -96.5 38
s-33.5 56.333 -37.5 93l44 16c2 -15.333 4.83301 -29.5 8.5 -42.5s9.16699 -24.333 16.5 -34s16.833 -17.167 28.5 -22.5s26.167 -8 43.5 -8c32 0 58 8.5 78 25.5s36 43.833 48 80.5z" />
    <glyph glyph-name="afii10076" unicode="&#x43a;" horiz-adv-x="509" 
d="M228 277c23.333 0 43.3359 6.99414 60.0029 20.9941s31.667 34 45 60l45 90c11.333 22.667 22.833 39.834 34.5 51.501s29.167 17.5 52.5 17.5c13.333 0 27.666 -1.66699 42.999 -5l-5 -37c-12 2 -21.667 3 -29 3c-14.667 0 -25.167 -3.66699 -31.5 -11
s-13.833 -19.666 -22.5 -36.999l-41 -82c-10.667 -22 -22.834 -40.667 -36.501 -56s-33.167 -27 -58.5 -35c12.667 -5.33301 24.167 -12.666 34.5 -21.999s20.5 -25.666 30.5 -48.999l58 -128c2 -5.33301 4.5 -9.66602 7.5 -12.999s7.16699 -5.66602 12.5 -6.99902l47 -8
l-5 -30h-93c-14 38 -28.333 73.5 -43 106.5s-28.334 61.167 -41.001 84.5c-10 19.333 -20.5 32.5 -31.5 39.5s-26.5 10.5 -46.5 10.5h-55l-34 -241h-49l64 448c2 12 -1.66699 19 -11 21l-45 12l3 27h108l2 -4l-32 -227h63z" />
    <glyph glyph-name="afii10077" unicode="&#x43b;" horiz-adv-x="567" 
d="M446 468l-169.001 0.00195312c-8 -56.667 -16 -104.667 -24 -144s-16 -76.333 -24 -111s-16.833 -65.5 -26.5 -92.5s-22.167 -49.833 -37.5 -68.5s-34.5 -32.834 -57.5 -42.501s-51.5 -14.5 -85.5 -14.5l-7 40c20 1.33301 37.833 3.66602 53.5 6.99902s30 10.5 43 21.5
s25 27.167 36 48.5s21.5 51 31.5 89c8 30 16 65.667 24 107s16.667 90 26 146c2 10.667 -1.66699 17 -11 19l-45 8l3 27h322l2 -4l-64 -446c-1.33301 -8 -1.16602 -13 0.500977 -15s6.16699 -3.66699 13.5 -5l54 -8l-5 -30h-117l-2 4z" />
    <glyph glyph-name="afii10078" unicode="&#x43c;" horiz-adv-x="737" 
d="M266 425l-7.50098 -45c-3 -18 -6.5 -37 -10.5 -57s-8.33301 -39.667 -13 -59s-9 -36.333 -13 -51c-8 -26.667 -16.833 -53.167 -26.5 -79.5s-22.167 -49.666 -37.5 -69.999s-34.5 -36.833 -57.5 -49.5s-51.5 -19 -85.5 -19l-7 40c20 1.33301 37.667 4.16602 53 8.49902
s29.5 12.333 42.5 24s25 28.167 36 49.5s22.167 49.333 33.5 84c9.33301 30 19.5 68.5 30.5 115.5s20.167 98.5 27.5 154.5l-51 10l3 27h104l101 -344l221 344h59l2 -4l-64 -446c-1.33301 -8 -1.16602 -13 0.500977 -15s6.16699 -3.66699 13.5 -5l54 -8l-5 -30h-117l-2 4
l60 425h-2l-200 -306h-53z" />
    <glyph glyph-name="afii10079" unicode="&#x43d;" horiz-adv-x="594" 
d="M446 285l31.999 223h49l-65 -450c-1.33301 -8 -1.16602 -13 0.500977 -15s6.16699 -3.66699 13.5 -5l54 -8l-5 -30h-119l-2 4l16 102l20 138h-280l-35 -244h-46l-2 4l63 444c2 12 -1.66699 19 -11 21l-55 12l3 27h121l-32 -223h280z" />
    <glyph glyph-name="afii10080" unicode="&#x43e;" horiz-adv-x="546" 
d="M239 -12c-34 0 -63.166 4.83301 -87.499 14.5s-44.333 23.5 -60 41.5s-27.334 39.5 -35.001 64.5s-11.5 52.5 -11.5 82.5c0 47.333 5.66699 90.833 17 130.5s28.5 74.167 51.5 103.5s51.5 52.166 85.5 68.499s73.333 24.5 118 24.5c34 0 62.833 -5.16699 86.5 -15.5
s43.167 -24.666 58.5 -42.999s26.5 -40 33.5 -65s10.5 -52.167 10.5 -81.5c0 -50.667 -6.16699 -96.167 -18.5 -136.5s-30 -74.5 -53 -102.5s-51 -49.333 -84 -64s-70.167 -22 -111.5 -22zM245.001 30c64.667 0 116.001 24.667 154.001 74s57 119.333 57 210
c0 52 -12.333 91.667 -37 119s-61 41 -109 41c-66.667 0 -119.334 -24 -158.001 -72s-58 -115.667 -58 -203c0 -54 12.5 -95.667 37.5 -125s62.833 -44 113.5 -44z" />
    <glyph glyph-name="afii10081" unicode="&#x43f;" horiz-adv-x="612" 
d="M421 0l-1.99805 3.99902l19 97l31 216c2 14.667 3.66699 28.334 5 41.001s2 23.334 2 32.001c0 32 -5.5 53.833 -16.5 65.5s-29.833 17.5 -56.5 17.5c-18.667 0 -38.167 -4.16699 -58.5 -12.5s-40.5 -18.833 -60.5 -31.5s-39.333 -26.167 -58 -40.5l-49 -38.5l-39 -292
c-1.33301 -8 -1.16602 -13 0.500977 -15s6.16699 -3.66699 13.5 -5l71 -8l-5 -30h-205l6 31l51 7c7.33301 1.33301 12 3.16602 14 5.49902s3.66699 7.16602 5 14.499l53 388c2 12 -1 19 -9 21l-56 14l3 27h119l-14 -103c17.333 14.667 35.166 28.834 53.499 42.501
s37.166 25.667 56.499 36s38.666 18.666 57.999 24.999s38.666 9.5 57.999 9.5c42 0 71.667 -10.167 89 -30.5s26 -50.166 26 -89.499c0 -8 -0.5 -18 -1.5 -30s-2.16699 -22.667 -3.5 -32l-40 -278c-1.33301 -8 -1.16602 -13 0.500977 -15s6.5 -3.66699 14.5 -5l59 -8
l-5 -30h-129z" />
    <glyph glyph-name="afii10082" unicode="&#x440;" horiz-adv-x="567" 
d="M48 -212l-3.99902 4.00195l27 171l66 483c2 12 -1 19 -9 21l-57 14l4 27h120l-14 -102c16 14.667 32.167 28.667 48.5 42s33 25.166 50 35.499s34.5 18.666 52.5 24.999s36.667 9.5 56 9.5c20 0 38.667 -3.5 56 -10.5s32.166 -18 44.499 -33s22 -34.5 29 -58.5
s10.5 -53.333 10.5 -88c0 -36.667 -4.16699 -75 -12.5 -115s-21.833 -76.667 -40.5 -110s-43 -60.833 -73 -82.5s-66.333 -32.5 -109 -32.5c-34 0 -63.667 6.5 -89 19.5s-49.333 30.833 -72 53.5l-29 -210c-1.33301 -8.66699 -1.5 -14.167 -0.5 -16.5
s5.16699 -3.83301 12.5 -4.5l86 -6l-5 -36h-148zM141.001 114.002c8 -9.33301 17.335 -18.999 28.002 -28.999s22.334 -19.167 35.001 -27.5s26.167 -15.166 40.5 -20.499s29.166 -8 44.499 -8c35.333 0 65 9.66699 89 29s43.5 43.5 58.5 72.5s25.833 60.833 32.5 95.5
s10 67 10 97c0 31.333 -2.5 56.833 -7.5 76.5s-11.667 35 -20 46s-18.333 18.5 -30 22.5s-24.5 6 -38.5 6c-16.667 0 -35 -4.66699 -55 -14s-39.833 -20.833 -59.5 -34.5s-37.834 -27.834 -54.501 -42.501s-30.334 -27.334 -41.001 -38.001z" />
    <glyph glyph-name="afii10083" unicode="&#x441;" horiz-adv-x="478" 
d="M397 24c-17.333 -10 -39.835 -18.501 -67.502 -25.501s-56.5 -10.5 -86.5 -10.5c-68 0 -117.833 18.667 -149.5 56s-47.5 87.333 -47.5 150c0 59.333 8 109.5 24 150.5s37.333 74.333 64 100s57.334 44.334 92.001 56.001s71 17.5 109 17.5
c36.667 0 65.167 -3.16699 85.5 -9.5l42.5 -13.5l-15 -114l-37 3l-3 69c0 6 -3.66699 10.333 -11 13s-17 5 -29 7s-27.333 3 -46 3c-28 0 -55.667 -5.16699 -83 -15.5s-51.666 -26.666 -72.999 -48.999s-38.5 -51 -51.5 -86s-19.5 -77.167 -19.5 -126.5
c0 -56.667 12.667 -99.334 38 -128.001s61 -43 107 -43c28 0 55 3.5 81 10.5s46.333 14.5 61 22.5z" />
    <glyph glyph-name="afii10084" unicode="&#x442;" horiz-adv-x="899" 
d="M709 0l-2.00586 4.00488l15 70l35 243c3.33301 23.333 5.83301 42.5 7.5 57.5s2.5 27.167 2.5 36.5c0 20.667 -4 36.5 -12 47.5s-24 16.5 -48 16.5c-13.333 0 -26.666 -2.33301 -39.999 -7s-28 -12.334 -44 -23.001s-34.167 -24.167 -54.5 -40.5l-71.5 -59.5l-41 -287
c-1.33301 -8 -1.16602 -13 0.500977 -15s6.16699 -3.66699 13.5 -5l61 -8l-4 -30h-131l-3 4l20 92l32 221c2.66699 17.333 4.66699 34.833 6 52.5s2 30.5 2 38.5c0 28 -5 46.167 -15 54.5s-25.667 12.5 -47 12.5c-16 0 -33.667 -4.16699 -53 -12.5
s-38.666 -18.833 -57.999 -31.5s-38.166 -26.334 -56.499 -41.001s-34.5 -28.667 -48.5 -42l-38 -290c-1.33301 -8 -1.16602 -13 0.500977 -15s6.16699 -3.66699 13.5 -5l70 -8l-5 -30h-203l6 31l51 7c7.33301 1.33301 12 3.16602 14 5.49902s3.66699 7.16602 5 14.499
l52 388c2 11.333 -1 18.333 -9 21l-56 14l3 27h119l-15 -107c44 38 82.667 67.167 116 87.5s67 30.5 101 30.5c40 0 68.167 -10.667 84.5 -32s22.166 -52 17.499 -92l44 38.5c16 14.333 33 27.666 51 39.999s37 22.833 57 31.5s40 13 60 13
c38.667 0 65.334 -9.16699 80.001 -27.5s21.667 -43.5 21 -75.5c0 -7.33301 -0.666992 -18.333 -2 -33s-3 -28.667 -5 -42l-41 -282c-1.33301 -8 -1.16602 -13 0.500977 -15s6.16699 -3.66699 13.5 -5l62 -8l-5 -30h-129z" />
    <glyph glyph-name="afii10085" unicode="&#x443;" horiz-adv-x="491" 
d="M191 24l-96 429.002c-1.33301 6 -3.16602 10 -5.49902 12s-6.16602 3.66699 -11.499 5l-41 11l7 27h96l3 -3l21 -123l63 -296l188 383l-62 12l3 27h129l3 -4l-293 -577c-12.667 -25.333 -24.834 -47.5 -36.501 -66.5s-23.834 -34.667 -36.501 -47s-27 -21.5 -43 -27.5
s-35 -9 -57 -9c-26.667 0 -50.334 4.83301 -71.001 14.5s-34.667 18.167 -42 25.5l26 37c2 -2 5.83301 -4.83301 11.5 -8.5s12.667 -7.33398 21 -11.001s17.333 -6.83398 27 -9.50098s18.834 -4 27.501 -4c14 0 26 1.66699 36 5s19.333 9.33301 28 18s17.667 20.5 27 35.5
s20.333 34.5 33 58.5z" />
    <glyph glyph-name="afii10086" unicode="&#x444;" horiz-adv-x="721" 
d="M370 479c-28.667 -2 -58.834 -5.83203 -90.501 -11.499s-60.667 -17.834 -87 -36.501s-48 -45.5 -65 -80.5s-25.5 -82.5 -25.5 -142.5c0 -36.667 6.33301 -66.5 19 -89.5s28.834 -41 48.501 -54s41.667 -21.833 66 -26.5s47.833 -7.66699 70.5 -9zM300 -11.999
c-88 4.66699 -151.169 26.3301 -189.502 64.9971s-57.5 90.334 -57.5 155.001c0 61.333 9.33301 112.166 28 152.499s43.167 72.333 73.5 96s64.833 40.167 103.5 49.5s78 14 118 14l23 172c2 12 -1 19 -9 21l-56 15l3 27h120l-33 -237c88 -4.66699 151.167 -26 189.5 -64
s57.5 -89.667 57.5 -155c0 -61.333 -9.16699 -112.166 -27.5 -152.499s-42.666 -72.166 -72.999 -95.499s-64.833 -39.666 -103.5 -48.999s-78 -14 -118 -14l-20 -142c-1.33301 -8 -1.16602 -13 0.500977 -15s6.16699 -3.66699 13.5 -5l71 -8l-5 -30h-221l6 31l65 7
c8.66699 1.33301 14 3 16 5s3.66699 7 5 15zM354.998 28.9971c28.667 2 58.6689 5.83203 90.002 11.499s60.166 17.667 86.499 36s48 45 65 80s25.5 82.5 25.5 142.5c0 37.333 -6.33301 67.333 -19 90s-28.834 40.334 -48.501 53.001s-41.5 21.5 -65.5 26.5
s-47.667 7.83301 -71 8.5z" />
    <glyph glyph-name="afii10087" unicode="&#x445;" horiz-adv-x="539" 
d="M382 0l-5.99609 4.99902l-31 69l-79 157l-151 -192l69 -9l-3 -30h-193l4 31l58 11c5.33301 1.33301 9.33301 2.5 12 3.5s6.66699 5.16699 12 12.5l168 213l-92 185c-2.66699 5.33301 -5.33398 9.33301 -8.00098 12s-7 4.33398 -13 5.00098l-39 4l5 31h85l3 -3l32 -76
l63 -127l143 168l-60 8l5 30h166l-5 -30l-41 -10c-6.66699 -1.33301 -11.834 -3.5 -15.501 -6.5s-7.5 -7.16699 -11.5 -12.5l-160 -184l105 -205c3.33301 -6.66699 6.66602 -11 9.99902 -13s7.66602 -3.66699 12.999 -5l65 -12l-5 -30h-105z" />
    <glyph glyph-name="afii10088" unicode="&#x446;" horiz-adv-x="608" 
d="M435 107c-40 -34 -78.1641 -62.501 -114.497 -85.501s-74.166 -34.5 -113.499 -34.5c-32.667 0 -59.5 8.66699 -80.5 26s-31.5 48.333 -31.5 93c0 8.66699 0.666992 19.167 2 31.5s2.66602 23.5 3.99902 33.5l39 279c1.33301 8 1.16602 13 -0.500977 15
s-6.16699 3.66699 -13.5 5l-54 8l4 30h120l1 -2l-45 -317c-2.66699 -16.667 -4.5 -31.5 -5.5 -44.5s-1.5 -22.833 -1.5 -29.5c0 -28 5 -49.167 15 -63.5s28.667 -21.5 56 -21.5c20 0 41.667 5.83301 65 17.5s45.666 25 66.999 40s40.5 30 57.5 45l37.5 32.5l39 285
c1.33301 8 1.16602 13 -0.500977 15s-6.16699 3.66699 -13.5 5l-65 8l5 30h130l2 -2l-61 -433c-2 -15.333 -1.33301 -25.666 2 -30.999s11 -8 23 -8h33l-21 -156l-39 4l7 115c-20 1.33301 -35 7.33301 -45 18s-13.333 26.667 -10 48z" />
    <glyph glyph-name="afii10089" unicode="&#x447;" horiz-adv-x="548" 
d="M424 448c2 11.333 -1.66992 18.334 -11.0029 21.001l-55 12l3 27h118l2 -4l-64 -446c-1.33301 -8 -1.16602 -13 0.500977 -15s6.16699 -3.66699 13.5 -5l58 -8l-5 -30h-126l-2 4l19 98l22 159c-8.66699 -7.33301 -20.5 -16 -35.5 -26s-31.667 -19.333 -50 -28
s-37.5 -16 -57.5 -22s-40 -9 -60 -9c-46 0 -75.833 12.167 -89.5 36.5s-17.167 59.833 -10.5 106.5l18 129c2 11.333 -1.66699 18.333 -11 21l-45 12l3 27h108l2 -4l-26 -185c-2.66699 -20.667 -3.66699 -37.5 -3 -50.5s3.33398 -23.333 8.00098 -31
s11.334 -12.834 20.001 -15.501s19.667 -4 33 -4c15.333 0 31.666 2.5 48.999 7.5s34.833 11.833 52.5 20.5s35.334 19 53.001 31s34.5 24.667 50.5 38z" />
    <glyph glyph-name="afii10090" unicode="&#x448;" horiz-adv-x="898" 
d="M450 450c1.33301 8 1.17188 13 -0.495117 15s-6.16699 3.66699 -13.5 5l-64 8l4 30h127l4 -5l-45 -314c-2.66699 -16.667 -4.5 -31.5 -5.5 -44.5s-1.5 -22.833 -1.5 -29.5c0 -27.333 3.5 -48.333 10.5 -63s23.833 -22 50.5 -22c18 0 37.667 5.5 59 16.5
s42.166 23.833 62.499 38.5s39.166 29.667 56.499 45l39 35l39 285c1.33301 8 1.16602 13 -0.500977 15s-6.16699 3.66699 -13.5 5l-75 8l5 30h138l4 -5l-63 -448c-2 -10.667 1 -16.334 9 -17.001l58 -9l-4 -29h-120l15 107c-40 -34 -77.667 -62.5 -113 -85.5
s-70.333 -34.5 -105 -34.5c-33.333 0 -58.666 8.83301 -75.999 26.5s-26 48.834 -26 93.501c-35.333 -34 -71.833 -62.5 -109.5 -85.5s-73.834 -34.5 -108.501 -34.5c-28 0 -50.333 8.66699 -67 26s-25 48.333 -25 93c0 8.66699 0.666992 19.167 2 31.5
s2.66602 23.5 3.99902 33.5l39 279c1.33301 8 1.16602 13 -0.500977 15s-6.16699 3.66699 -13.5 5l-64 8l4 30h127l4 -5l-45 -314c-2.66699 -16.667 -4.5 -31.5 -5.5 -44.5s-1.5 -22.833 -1.5 -29.5c0 -28 3 -49.167 9 -63.5s20 -21.5 42 -21.5c18 0 37.833 5.5 59.5 16.5
s42.667 23.833 63 38.5s38.833 29.667 55.5 45s28.667 27 36 35z" />
    <glyph glyph-name="afii10091" unicode="&#x449;" horiz-adv-x="898" 
d="M769 73c-2 -15.333 -1.32715 -25.668 2.00586 -31.001s11 -8 23 -8h33l-21 -156l-39 4l7 115c-20 1.33301 -35 7.33301 -45 18s-13.333 26.667 -10 48l6 44c-40 -34 -77.667 -62.5 -113 -85.5s-70.333 -34.5 -105 -34.5c-33.333 0 -58.666 8.83301 -75.999 26.5
s-26 48.834 -26 93.501c-35.333 -34 -71.833 -62.5 -109.5 -85.5s-73.834 -34.5 -108.501 -34.5c-28 0 -50.333 8.66699 -67 26s-25 48.333 -25 93c0 8.66699 0.666992 19.167 2 31.5s2.66602 23.5 3.99902 33.5l39 279c1.33301 8 1.16602 13 -0.500977 15
s-6.16699 3.66699 -13.5 5l-64 8l4 30h128l3 -4l-45 -315c-2.66699 -16.667 -4.5 -31.5 -5.5 -44.5s-1.5 -22.833 -1.5 -29.5c0 -28 3 -49.167 9 -63.5s20 -21.5 42 -21.5c18 0 37.833 5.5 59.5 16.5s42.667 23.833 63 38.5s38.833 29.667 55.5 45s28.667 27 36 35l40 285
c1.33301 8 1.16602 13 -0.500977 15s-6.16699 3.66699 -13.5 5l-64 8l4 30h127l4 -5l-45 -314c-2.66699 -16.667 -4.5 -31.5 -5.5 -44.5s-1.5 -22.833 -1.5 -29.5c0 -27.333 3.5 -48.333 10.5 -63s23.833 -22 50.5 -22c18 0 37.667 5.5 59 16.5s42.166 23.833 62.499 38.5
s39.166 29.667 56.499 45l39 35l39 285c1.33301 8 1.16602 13 -0.500977 15s-6.16699 3.66699 -13.5 5l-75 8l5 30h138l4 -5z" />
    <glyph glyph-name="afii10092" unicode="&#x44a;" horiz-adv-x="560" 
d="M216 46c9.33301 -3.33301 22.834 -7.00098 40.501 -11.001s36.5 -6 56.5 -6c19.333 0 38.166 2.5 56.499 7.5s35 13 50 24s27 25.333 36 43s13.5 38.834 13.5 63.501c0 19.333 -3.5 35 -10.5 47s-16.167 21.5 -27.5 28.5s-24 11.667 -38 14s-28 3.5 -42 3.5
c-26.667 0 -49 -1.83301 -67 -5.5s-31.667 -7.16699 -41 -10.5zM279.001 507.999l1.99902 -4l-30 -215c16 3.33301 33 6.33301 51 9s37.667 4 59 4c48.667 0 87.334 -11.667 116.001 -35s43 -56.666 43 -99.999c0 -32.667 -6 -60.334 -18 -83.001
s-27.833 -41.167 -47.5 -55.5s-41.834 -24.666 -66.501 -30.999s-49.667 -9.5 -75 -9.5c-32 0 -60.667 2.66699 -86 8s-47 11.666 -65 18.999l64 453h-101c-7.33301 0 -11.666 -2.66699 -12.999 -8l-23 -78l-33 -2l18 128h205z" />
    <glyph glyph-name="afii10093" unicode="&#x44b;" horiz-adv-x="729" 
d="M168 289c16 3.33301 32.999 6.16797 50.999 8.50098s37.667 3.5 59 3.5c48.667 0 87.334 -11.5 116.001 -34.5s43 -56.167 43 -99.5c0 -33.333 -6 -61.5 -18 -84.5s-28 -41.5 -48 -55.5s-42.667 -24 -68 -30s-51.333 -9 -78 -9c-30 0 -57.333 2.66699 -82 8
s-46 11.666 -64 18.999l62 435c2 10.667 -1.66699 17 -11 19l-45 12l3 27h108l2 -4zM132.999 46.002c9.33301 -3.33301 22.833 -6.83594 40.5 -10.5029s36.5 -5.5 56.5 -5.5c19.333 0 38.333 2.5 57 7.5s35.334 12.833 50.001 23.5s26.667 24.834 36 42.501
s14 38.834 14 63.501c0 19.333 -3.83301 35 -11.5 47s-17.334 21.333 -29.001 28s-24.5 11.167 -38.5 13.5s-27.333 3.5 -40 3.5c-26.667 0 -49 -1.66699 -67 -5s-31.667 -6.66602 -41 -9.99902zM537.999 -0.000976562l-2.00098 4l19 98l49 346c2 12 -1.66699 19 -11 21
l-55 12l3 27h121l-65 -450c-1.33301 -8 -1.16602 -13 0.500977 -15s6.16699 -3.66699 13.5 -5l68 -8l-5 -30h-136z" />
    <glyph glyph-name="afii10094" unicode="&#x44c;" horiz-adv-x="484" 
d="M168 287c15.333 3.33301 32.8311 6.5 52.498 9.5s40.167 4.5 61.5 4.5c50.667 0 90.334 -11.5 119.001 -34.5s43 -56.167 43 -99.5c0 -32.667 -5.5 -60.334 -16.5 -83.001s-26 -41.167 -45 -55.5s-40.667 -24.666 -65 -30.999s-50.166 -9.5 -77.499 -9.5
c-28.667 0 -58.167 3 -88.5 9s-54.5 12.667 -72.5 20l62 434c2 10 -1.66699 16 -11 18l-45 12l3 27h108l2 -4zM131.998 46c4.66699 -2 11.3311 -3.83301 19.998 -5.5s18.334 -3.33398 29.001 -5.00098s21.667 -3 33 -4s22 -1.5 32 -1.5c19.333 0 38 2.5 56 7.5
s33.833 12.833 47.5 23.5s24.5 24.5 32.5 41.5s12 37.833 12 62.5c0 19.333 -3.33301 35 -10 47s-15.667 21.5 -27 28.5s-24.5 11.833 -39.5 14.5s-30.5 4 -46.5 4c-22 0 -43.667 -1.66699 -65 -5s-36.666 -6.66602 -45.999 -9.99902z" />
    <glyph glyph-name="afii10095" unicode="&#x44d;" horiz-adv-x="529" 
d="M198 31c24.667 0 49.499 3.50098 74.499 10.501s48.333 18.667 70 35s40.5 37.666 56.5 63.999s27.333 58.833 34 97.5h-250l6 41h249c5.33301 60 -6 107.5 -34 142.5s-71.333 52.5 -130 52.5c-19.333 0 -39.333 -1.5 -60 -4.5s-39.667 -7.16699 -57 -12.5
c-5.33301 -2 -9 -6.66699 -11 -14l-21 -69h-35l14 109c10 4.66699 21.833 9.16699 35.5 13.5s28.334 8 44.001 11s31.667 5.5 48 7.5s31.833 3 46.5 3c68 0 120 -19.167 156 -57.5s54 -92.833 54 -163.5c0 -53.333 -8 -99.5 -24 -138.5s-37.333 -71.167 -64 -96.5
s-57.5 -44 -92.5 -56s-71.5 -18 -109.5 -18c-22.667 0 -43.5 2.16699 -62.5 6.5s-35.833 9.5 -50.5 15.5s-27 12.333 -37 19s-17.333 12.667 -22 18l27 36c13.333 -11.333 31.833 -22.833 55.5 -34.5s53.5 -17.5 89.5 -17.5z" />
    <glyph glyph-name="afii10096" unicode="&#x44e;" horiz-adv-x="761" 
d="M296 285c6 34.667 15.832 66.332 29.499 94.999s31 53.167 52 73.5s45.667 36.166 74 47.499s59.833 17 94.5 17c31.333 0 58 -5.16699 80 -15.5s40 -24.666 54 -42.999s24.333 -40 31 -65s10 -52.167 10 -81.5c0 -50.667 -5.83301 -96.167 -17.5 -136.5
s-28.5 -74.5 -50.5 -102.5s-48.5 -49.333 -79.5 -64s-66.167 -22 -105.5 -22c-28.667 0 -54.167 4.83301 -76.5 14.5s-41.166 23.5 -56.499 41.5s-27 39.5 -35 64.5s-12 52.5 -12 82.5c0 18.667 1 36.334 3 53.001h-131l-35 -244h-46l-2 4l63 444c2 12 -1.66699 19 -11 21
l-55 12l3 27h121l-32 -223h130zM473.999 29.998c60 0 107.832 24.667 143.499 74s53.5 119.333 53.5 210c0 52 -11.167 91.667 -33.5 119s-55.166 41 -98.499 41c-61.333 0 -110.333 -24 -147 -72s-55 -115.667 -55 -203c0 -54 11.333 -95.667 34 -125s57 -44 103 -44z" />
    <glyph glyph-name="afii10097" unicode="&#x44f;" horiz-adv-x="564" 
d="M443 460c-5.33301 2.66699 -12.8311 5 -22.498 7s-20.334 3.83301 -32.001 5.5s-23.5 2.83398 -35.5 3.50098s-23 1 -33 1c-42.667 0 -77.834 -8.83301 -105.501 -26.5s-41.5 -47.834 -41.5 -90.501c0 -20.667 4 -37.5 12 -50.5s18.5 -22.833 31.5 -29.5
s28.167 -11.167 45.5 -13.5s35 -3.5 53 -3.5h99zM14.002 32l53.001 8.00195c6 1.33301 10 2.83301 12 4.5s4.33301 4.83398 7 9.50098l64 110c10.667 17.333 21 32.166 31 44.499s23.667 21.833 41 28.5v0c-12.667 2.66699 -25.334 6.83398 -38.001 12.501
s-23.667 13.167 -33 22.5s-17 21 -23 35s-9 30.667 -9 50c0 52 17.833 92 53.5 120s88.834 42 159.501 42c11.333 0 24.833 -0.666992 40.5 -2s31.5 -3.33301 47.5 -6s31 -5.83398 45 -9.50098s24.333 -7.5 31 -11.5l-63 -439c-0.666992 -6.66699 2 -10.334 8 -11.001l61 -9
l-5 -31h-119l-3 4l17 99l16 117h-123c-17.333 0 -30.333 -2.33301 -39 -7s-17.334 -13.334 -26.001 -26.001l-22 -35l-27.5 -46.5l-30 -52.5l-30.5 -53h-100z" />
    <glyph glyph-name="afii10071" unicode="&#x451;" horiz-adv-x="461" 
d="M419 612c-13.333 0 -23.666 3.33301 -30.999 10s-11 15.667 -11 27c0 15.333 4.66699 27.833 14 37.5s22.666 14.5 39.999 14.5c26.667 0 40 -12.333 40 -37c0 -13.333 -4.83301 -25.333 -14.5 -36s-22.167 -16 -37.5 -16zM222 612c-13.333 0 -23.668 3.33301 -31.001 10
s-11 15.667 -11 27c0 15.333 4.83301 27.833 14.5 37.5s22.834 14.5 39.501 14.5c26.667 0 40 -12.333 40 -37c0 -13.333 -4.66699 -25.333 -14 -36s-22 -16 -38 -16zM391.998 24c-23.333 -12.667 -48.833 -21.834 -76.5 -27.501s-56.167 -8.5 -85.5 -8.5
c-34 0 -62.833 4.83301 -86.5 14.5s-42.667 23.334 -57 41.001s-24.666 38.834 -30.999 63.501s-9.5 51.667 -9.5 81c0 40 6.16699 79.833 18.5 119.5s30 75 53 106s51 56.167 84 75.5s70.5 29 112.5 29c24 0 44.167 -3.16699 60.5 -9.5s29.166 -14.5 38.499 -24.5
s16 -21.667 20 -35s6 -27 6 -41c0 -26.667 -6.33301 -49.834 -19 -69.501s-29 -36.5 -49 -50.5s-42.667 -25.5 -68 -34.5s-50.833 -16.333 -76.5 -22s-50.167 -10.167 -73.5 -13.5s-43 -6 -59 -8c0 -28.667 1.83301 -54 5.5 -76s10.667 -40.5 21 -55.5
s24.833 -26.5 43.5 -34.5s42.667 -12 72 -12c28.667 0 54.667 2.83301 78 8.5s45.333 13.5 66 23.5zM99.998 251c20.667 2.66699 47.167 6.50098 79.5 11.501s64 13 95 24s57.667 25.667 80 44s33.5 42.5 33.5 72.5c0 21.333 -6 38.666 -18 51.999s-32 20 -60 20
s-54 -6.16699 -78 -18.5s-45 -28.833 -63 -49.5s-33 -44.5 -45 -71.5s-20 -55.167 -24 -84.5z" />
    <glyph glyph-name="afii10099" unicode="&#x452;" horiz-adv-x="569" 
d="M182 419c26 20.667 55.165 39.002 87.498 55.002s65.833 24 100.5 24c20 0 38.667 -3 56 -9s32.5 -16 45.5 -30s23.167 -32.833 30.5 -56.5s11 -53.167 11 -88.5c0 -69.333 -5.5 -136.5 -16.5 -201.5s-27.833 -122.5 -50.5 -172.5s-51.167 -90 -85.5 -120
s-75.166 -45 -122.499 -45c-19.333 0 -37.833 2 -55.5 6s-33.167 9 -46.5 15l14 40c16 -6.66699 31.167 -11.5 45.5 -14.5s27.166 -4.5 38.499 -4.5c38.667 0 72.5 14.167 101.5 42.5s53.167 65.5 72.5 111.5s33.833 98 43.5 156s14.5 116.667 14.5 176
c0 30 -2.66699 54.833 -8 74.5s-12.5 35.167 -21.5 46.5s-19.667 19.166 -32 23.499s-25.166 6.5 -38.499 6.5c-19.333 0 -38 -2.83301 -56 -8.5s-35.167 -12.834 -51.5 -21.501s-31.333 -18 -45 -28l-37.5 -27l-43 -311c-1.33301 -8 -1.16602 -13 0.500977 -15
s6.16699 -3.66699 13.5 -5l71 -8l-5 -30h-206l6 31l50 7c8.66699 1.33301 14 3 16 5s3.66699 7 5 15l73 531h-81l6 41h81l9 63c2 12 -1 19 -9 21l-57 14l3 27h119l-18 -125h196l-6 -41h-195z" />
    <glyph glyph-name="afii10100" unicode="&#x453;" horiz-adv-x="436" 
d="M392 707l-36 44l-173 -150l20 -25zM261 478c-20 0 -37.3359 -1.1709 -52.0029 -3.50391s-28.334 -5.83301 -41.001 -10.5c-4 -1.33301 -6.66699 -3.5 -8 -6.5s-2.66602 -6.16699 -3.99902 -9.5l-21 -72h-37l14 107c17.333 10 39.5 18.333 66.5 25s55.167 10 84.5 10
c99.333 0 149 -38.667 149 -116c0 -26 -5.33301 -48 -16 -66s-24.667 -33.167 -42 -45.5s-37.166 -22.666 -59.499 -30.999s-45.5 -16.166 -69.5 -23.499c-17.333 -5.33301 -33.833 -11.166 -49.5 -17.499s-29.334 -14 -41.001 -23s-21 -19.5 -28 -31.5
s-10.5 -26.333 -10.5 -43c0 -30 9.33301 -52.833 28 -68.5s43.334 -23.5 74.001 -23.5c36.667 0 68 8 94 24s48.667 33.333 68 52l27 -30c-10 -10.667 -21.667 -21.167 -35 -31.5s-28.166 -19.666 -44.499 -27.999s-33.833 -15 -52.5 -20s-38.667 -7.5 -60 -7.5
c-44 0 -79.667 11 -107 33s-41 54 -41 96c0 26 5 47.667 15 65s23.333 32 40 44s35.334 22 56.001 30s41.667 15.333 63 22c18.667 6 36.5 12.167 53.5 18.5s32.167 14 45.5 23s24 20 32 33s12 28.833 12 47.5c0 24 -8 43 -24 57s-42.333 21 -79 21z" />
    <glyph glyph-name="afii10101" unicode="&#x454;" horiz-adv-x="502" 
d="M96 236c-2.66699 -30 -1.49707 -57.5 3.50293 -82.5s13.667 -46.833 26 -65.5s28.833 -33.167 49.5 -43.5s45.667 -15.5 75 -15.5c33.333 0 64.333 4.5 93 13.5s51.667 18.833 69 29.5l16 -39c-8.66699 -4.66699 -19.334 -9.66699 -32.001 -15
s-26.834 -10.333 -42.501 -15s-32 -8.33398 -49 -11.001s-34.167 -4 -51.5 -4c-36.667 0 -68 5.33301 -94 16s-47.333 25.5 -64 44.5s-29 41.833 -37 68.5s-12 55.667 -12 87c0 56.667 9 104.834 27 144.501s41.5 72 70.5 97s61.833 43.333 98.5 55
s73.334 17.5 110.001 17.5c40 0 71.5 -3.16699 94.5 -9.5s38.5 -10.833 46.5 -13.5l-15 -114l-37 3l-3 69c0 6 -3.66699 10.333 -11 13s-17.5 5 -30.5 7s-31.167 3 -54.5 3c-24.667 0 -49.834 -3.5 -75.501 -10.5s-49.667 -18.5 -72 -34.5s-41.833 -36.667 -58.5 -62
s-28.334 -56 -35.001 -92h250l-6 -41h-249z" />
    <glyph glyph-name="afii10102" unicode="&#x455;" horiz-adv-x="432" 
d="M357 378l-3.00195 73.0029c0 8 -3 13 -9 15c-6 2.66699 -15.5 5.16699 -28.5 7.5s-30.833 3.5 -53.5 3.5c-18 0 -35 -2 -51 -6s-29.833 -10 -41.5 -18s-21 -18 -28 -30s-10.5 -26 -10.5 -42c0 -25.333 7.83301 -44.5 23.5 -57.5s37.834 -25.5 66.501 -37.5l53.5 -22.5
c17.667 -7.66699 33.5 -17 47.5 -28s25.5 -24.333 34.5 -40s13.5 -35.167 13.5 -58.5c0 -28 -5.16699 -51.5 -15.5 -70.5s-24 -34.333 -41 -46s-36.167 -20 -57.5 -25s-43 -7.5 -65 -7.5c-45.333 0 -83 4 -113 12s-49.333 14.333 -58 19l17 120l36 -2l3 -78
c0 -4 1 -6.83301 3 -8.5s6 -3.83398 12 -6.50098c10 -3.33301 23 -6.83301 39 -10.5s35.667 -5.5 59 -5.5c40.667 0 72.5 9 95.5 27s34.5 44 34.5 78c0 18 -3 32.667 -9 44s-14.833 21.166 -26.5 29.499s-25.667 15.833 -42 22.5l-55.5 23
c-30.667 12.667 -55.667 28.167 -75 46.5s-29 43.833 -29 76.5c0 26 5.33301 48.167 16 66.5s24.834 33.166 42.501 44.499s37.667 19.5 60 24.5s45.5 7.5 69.5 7.5c36 0 65.833 -3.33301 89.5 -10s39.5 -11.667 47.5 -15l-16 -118z" />
    <glyph glyph-name="afii10103" unicode="&#x456;" horiz-adv-x="265" 
d="M174 644c-13.333 0 -23.667 3.16602 -31 9.49902s-11 15.166 -11 26.499c0 14 4.83301 26 14.5 36s23.167 15 40.5 15c12.667 0 22.5 -3.16699 29.5 -9.5s10.5 -15.166 10.5 -26.499c0 -13.333 -4.83301 -25.166 -14.5 -35.499s-22.5 -15.5 -38.5 -15.5z
M73.999 -0.000976562l-2.00098 4l19 98l49 346c2 11.333 -1.66699 18.333 -11 21l-55 12l3 27h121l-65 -450c-1.33301 -8 -1.16602 -13 0.500977 -15s6.16699 -3.66699 13.5 -5l68 -8l-5 -30h-136z" />
    <glyph glyph-name="afii10104" unicode="&#x457;" horiz-adv-x="279" 
d="M228 612c-12.667 0 -22.834 3.16699 -30.501 9.5s-11.5 15.166 -11.5 26.499c0 15.333 4.83301 27.833 14.5 37.5s22.834 14.5 39.501 14.5c26.667 0 40 -12.333 40 -37c0 -13.333 -4.66699 -25.166 -14 -35.499s-22 -15.5 -38 -15.5zM102 612
c-12.667 0 -22.834 3.16699 -30.501 9.5s-11.5 15.166 -11.5 26.499c0 15.333 4.83301 27.833 14.5 37.5s22.834 14.5 39.501 14.5c26.667 0 40 -12.333 40 -37c0 -13.333 -4.66699 -25.166 -14 -35.499s-22 -15.5 -38 -15.5zM80 0l-2.00098 4l19 98l49 346
c2 12 -1.66699 19 -11 21l-55 12l3 27h121l-65 -450c-1.33301 -8 -1.16602 -13 0.500977 -15s6.16699 -3.66699 13.5 -5l68 -8l-5 -30h-136z" />
    <glyph glyph-name="afii10105" unicode="&#x458;" horiz-adv-x="265" 
d="M144 447c2 13.333 -1.00293 20.334 -9.00293 21.001l-63 13l6 27h123l-82 -582c-7.33301 -51.333 -21 -89 -41 -113s-52 -36 -96 -36c-25.333 0 -48.666 4.66699 -69.999 14s-35.666 17.666 -42.999 24.999l25 36c7.33301 -6 19.333 -13 36 -21s33.667 -12 51 -12
c16 0 29.333 2.83301 40 8.5s19.167 13.667 25.5 24s11.333 22.833 15 37.5s6.83398 31 9.50098 49zM180.997 644.001c-13.333 0 -23.667 3.16602 -31 9.49902s-11 15.166 -11 26.499c0 14 4.83301 26 14.5 36s23.167 15 40.5 15c13.333 0 23.333 -3.16699 30 -9.5
s10 -15.166 10 -26.499c0 -13.333 -4.66699 -25.166 -14 -35.499s-22.333 -15.5 -39 -15.5z" />
    <glyph glyph-name="afii10106" unicode="&#x459;" horiz-adv-x="779" 
d="M424 46c4.66699 -2 11.332 -3.83398 19.999 -5.50098s18.167 -3.33398 28.5 -5.00098s21 -3 32 -4s21.5 -1.5 31.5 -1.5c19.333 0 38 2.5 56 7.5s34.333 12.833 49 23.5s26.334 24.834 35.001 42.501s13 38.834 13 63.501c0 19.333 -3.33301 35 -10 47
s-15.667 21.5 -27 28.5s-24.833 11.667 -40.5 14s-32.167 3.5 -49.5 3.5c-26.667 0 -49.5 -1.83301 -68.5 -5.5s-33.167 -7.16699 -42.5 -10.5zM434.998 467.999l-158.998 0.00195312c-8 -56.667 -15.833 -104.667 -23.5 -144s-15.5 -76.333 -23.5 -111
s-16.833 -65.5 -26.5 -92.5s-22.167 -49.833 -37.5 -68.5s-34.5 -32.834 -57.5 -42.501s-51.5 -14.5 -85.5 -14.5l-7 40c20 1.33301 37.833 3.66602 53.5 6.99902s30 10.5 43 21.5s25 27.167 36 48.5s21.5 51 31.5 89c8 30 16 65.667 24 107s16.667 90 26 146
c2 10.667 -1.66699 17 -11 19l-45 8l3 27h311l2 -4l-30 -216c16 3.33301 33.333 6.33301 52 9s38.667 4 60 4c54 0 95.5 -11.333 124.5 -34s43.5 -56 43.5 -100c0 -32.667 -5.83301 -60.334 -17.5 -83.001s-27.334 -41.167 -47.001 -55.5s-42 -24.666 -67 -30.999
s-51.167 -9.5 -78.5 -9.5c-28.667 0 -57.834 3 -87.501 9s-53.5 12.667 -71.5 20z" />
    <glyph glyph-name="afii10107" unicode="&#x45a;" horiz-adv-x="807" 
d="M452 46c4.66699 -2 11.332 -3.83398 19.999 -5.50098s18.167 -3.33398 28.5 -5.00098s21 -3 32 -4s21.5 -1.5 31.5 -1.5c19.333 0 38 2.5 56 7.5s34.333 12.833 49 23.5s26.334 24.834 35.001 42.501s13 38.834 13 63.501c0 19.333 -3.33301 35 -10 47
s-15.667 21.5 -27 28.5s-24.833 11.833 -40.5 14.5s-32.167 4 -49.5 4c-26.667 0 -49.5 -2 -68.5 -6s-33.167 -7.66699 -42.5 -11zM468.998 507.999h46l2 -4l-30 -217c16 4 33.667 7.66699 53 11s40.666 5 63.999 5c52 0 92.167 -11.667 120.5 -35s42.5 -57 42.5 -101
c0 -32.667 -5.83301 -60.334 -17.5 -83.001s-27.167 -41.167 -46.5 -55.5s-41.166 -24.666 -65.499 -30.999s-49.5 -9.5 -75.5 -9.5c-31.333 0 -62 2.83301 -92 8.5s-54 12.167 -72 19.5l33 228h-271l-35 -244h-46l-2 4l63 444c2 12 -1.66699 19 -11 21l-55 12l3 27h121
l-32 -223h271z" />
    <glyph glyph-name="afii10108" unicode="&#x45b;" horiz-adv-x="607" 
d="M414 0l-2.00195 3l20 101l29 193c2.66699 16 4.33398 32 5.00098 48s1 28.333 1 37c0 23.333 -5.16699 41 -15.5 53s-27.833 18 -52.5 18c-18 0 -36.833 -3.66699 -56.5 -11s-39.334 -17 -59.001 -29s-39 -25.5 -58 -40.5s-37.167 -30.167 -54.5 -45.5l-36 -269
c-1.33301 -8 -1.16602 -13 0.500977 -15s6.16699 -3.66699 13.5 -5l71 -8l-5 -30h-206l6 31l50 7c8.66699 1.33301 14 3 16 5s3.66699 7 5 15l73 531h-81l6 41h81l9 63c2 12 -1 19 -9 21l-57 14l3 27h119l-18 -125h196l-6 -41h-195l-28 -205c39.333 32 77.166 59 113.499 81
s73.5 33 111.5 33c40.667 0 69.834 -10.5 87.501 -31.5s26.5 -50.5 26.5 -88.5c0 -8.66699 -0.5 -18.667 -1.5 -30s-2.16699 -22 -3.5 -32l-38 -258c-1.33301 -8 -1.16602 -13 0.500977 -15s6.16699 -3.66699 13.5 -5l60 -8l-5 -30h-130z" />
    <glyph glyph-name="afii10109" unicode="&#x45c;" horiz-adv-x="509" 
d="M267 576l-20 25l173 150l36 -44zM228 277c23.333 0 43.3359 6.99414 60.0029 20.9941s31.667 34 45 60l45 90c11.333 22.667 22.833 39.834 34.5 51.501s29.167 17.5 52.5 17.5c13.333 0 27.666 -1.66699 42.999 -5l-5 -37c-12 2 -21.667 3 -29 3
c-14.667 0 -25.167 -3.66699 -31.5 -11s-13.833 -19.666 -22.5 -36.999l-41 -82c-10.667 -22 -22.834 -40.667 -36.501 -56s-33.167 -27 -58.5 -35c12.667 -5.33301 24.167 -12.666 34.5 -21.999s20.5 -25.666 30.5 -48.999l58 -128c2 -5.33301 4.5 -9.66602 7.5 -12.999
s7.16699 -5.66602 12.5 -6.99902l47 -8l-5 -30h-93c-14 38 -28.333 73.5 -43 106.5s-28.334 61.167 -41.001 84.5c-10 19.333 -20.5 32.5 -31.5 39.5s-26.5 10.5 -46.5 10.5h-55l-34 -241h-49l64 448c2 12 -1.66699 19 -11 21l-45 12l3 27h108l2 -4l-32 -227h63z" />
    <glyph glyph-name="afii10110" unicode="&#x45e;" horiz-adv-x="491" 
d="M191 24l-96 429.002c-1.33301 6 -3.16602 10 -5.49902 12s-6.16602 3.66699 -11.499 5l-41 11l7 27h96l3 -3l21 -123l63 -296l188 383l-62 12l3 27h129l3 -4l-293 -577c-12.667 -25.333 -24.834 -47.5 -36.501 -66.5s-23.834 -34.667 -36.501 -47s-27 -21.5 -43 -27.5
s-35 -9 -57 -9c-26.667 0 -50.334 4.83301 -71.001 14.5s-34.667 18.167 -42 25.5l26 37c2 -2 5.83301 -4.83301 11.5 -8.5s12.667 -7.33398 21 -11.001s17.333 -6.83398 27 -9.50098s18.834 -4 27.501 -4c14 0 26 1.66699 36 5s19.333 9.33301 28 18s17.667 20.5 27 35.5
s20.333 34.5 33 58.5zM442 704.002c-12.667 -40 -33.167 -71.833 -61.5 -95.5s-66.833 -35.5 -115.5 -35.5c-43.333 0 -75.5 12.667 -96.5 38s-33.5 56.333 -37.5 93l44 16c2 -15.333 4.83301 -29.5 8.5 -42.5s9.16699 -24.333 16.5 -34s16.833 -17.167 28.5 -22.5
s26.167 -8 43.5 -8c32 0 58 8.5 78 25.5s36 43.833 48 80.5z" />
    <glyph glyph-name="afii10193" unicode="&#x45f;" horiz-adv-x="608" 
d="M281 -38l-33 -139l-47 -3l20 133zM420 0l15.0029 107.001c-40 -34 -78.167 -62.5 -114.5 -85.5s-74.166 -34.5 -113.499 -34.5c-32.667 0 -59.5 8.66699 -80.5 26s-31.5 48.333 -31.5 93c0 8.66699 0.666992 19.167 2 31.5s2.66602 23.5 3.99902 33.5l39 279
c1.33301 8 1.16602 13 -0.500977 15s-6.16699 3.66699 -13.5 5l-54 8l4 30h120l1 -2l-45 -317c-2.66699 -16.667 -4.5 -31.5 -5.5 -44.5s-1.5 -22.833 -1.5 -29.5c0 -28 5 -49.167 15 -63.5s28.667 -21.5 56 -21.5c20 0 41.667 5.83301 65 17.5s45.666 25 66.999 40
s40.5 30 57.5 45l37.5 32.5l39 285c1.33301 8 1.16602 13 -0.500977 15s-6.16699 3.66699 -13.5 5l-65 8l5 30h130l2 -2l-63 -451c-2 -10.667 1 -16.334 9 -17.001l58 -9l-4 -29h-120z" />
    <glyph glyph-name="afii10050" unicode="&#x490;" horiz-adv-x="521" 
d="M497 724c10.667 0 17.333 4.33398 20 13.001l32 98l36 2l-22 -154h-297l-86 -625c-1.33301 -8 -1.33301 -13.167 0 -15.5s5.66602 -3.83301 12.999 -4.5l143 -8l-4 -30h-284l4 30l62 7c7.33301 1.33301 11.833 3.16602 13.5 5.49902s3.16699 7.16602 4.5 14.499l83 609
c1.33301 7.33301 1.33301 12.333 0 15s-5.66602 4.33398 -12.999 5.00098l-60 7l5 31h350z" />
    <glyph glyph-name="afii10098" unicode="&#x491;" horiz-adv-x="393" 
d="M349 508c8 0 13 3.33398 15 10.001l21 64l37 2l-15 -112h-216l-57 -414c-1.33301 -8 -1.16602 -13 0.500977 -15s6.16699 -3.66699 13.5 -5l101 -8l-5 -30h-226l6 31l40 7c8.66699 1.33301 14 3 16 5s3.66699 7 5 15l55 390
c1.33301 6.66699 1.16602 11.167 -0.500977 13.5s-4.5 4.16602 -8.5 5.49902l-47 14l3 27h262z" />
    <glyph glyph-name="thinspace" unicode="&#x2009;" horiz-adv-x="125" 
 />
    <glyph glyph-name="endash" unicode="&#x2013;" 
d="M3 262l7 41h499l-7 -41h-499z" />
    <glyph glyph-name="emdash" unicode="&#x2014;" horiz-adv-x="1000" 
d="M7 262l7 41h999l-7 -41h-999z" />
    <glyph glyph-name="quoteleft" unicode="&#x2018;" horiz-adv-x="162" 
d="M163 564c-20.667 2.66699 -37.667 7 -51 13s-20 16.667 -20 32c0 8 1.5 15 4.5 21s7.16699 12.667 12.5 20l69 101l29 -13l-43 -92c-2 -4.66699 -1.33301 -8 2 -10l25 -13z" />
    <glyph glyph-name="quoteright" unicode="&#x2019;" horiz-adv-x="168" 
d="M86 575l44 93.999c2 4 1 7 -3 9l-25 12l28 59c20.667 -2.66699 37.667 -7.16699 51 -13.5s20 -17.166 20 -32.499c0 -8 -1.5 -14.833 -4.5 -20.5s-7.16699 -12.167 -12.5 -19.5l-69 -101z" />
    <glyph glyph-name="quotesinglbase" unicode="&#x201a;" horiz-adv-x="156" 
d="M-5 -100l44 92.999c2 4 0.666992 7 -4 9l-25 12l28 59c21.333 -2.66699 38.5 -7.16699 51.5 -13.5s19.5 -17.166 19.5 -32.499c0 -8 -1.5 -14.833 -4.5 -20.5s-7.16699 -12.167 -12.5 -19.5l-69 -101z" />
    <glyph glyph-name="quotedblleft" unicode="&#x201c;" horiz-adv-x="298" 
d="M299 564c-20.667 2.66699 -37.667 7 -51 13s-20 16.667 -20 32c0 8 1.5 15 4.5 21s7.16699 12.667 12.5 20l69 101l29 -13l-43 -92c-2 -4.66699 -1.33301 -8 2 -10l25 -13zM163 564c-20.667 2.66699 -37.667 7 -51 13s-20 16.667 -20 32c0 8 1.5 15 4.5 21
s7.16699 12.667 12.5 20l69 101l29 -13l-43 -92c-2 -4.66699 -1.33301 -8 2 -10l25 -13z" />
    <glyph glyph-name="quotedblright" unicode="&#x201d;" horiz-adv-x="304" 
d="M222 575l44 93.999c2 4 1 7 -3 9l-25 12l28 59c20.667 -2.66699 37.667 -7.16699 51 -13.5s20 -17.166 20 -32.499c0 -8 -1.5 -14.833 -4.5 -20.5s-7.16699 -12.167 -12.5 -19.5l-69 -101zM86 574.999l44 93.999c2 4 1 7 -3 9l-25 12l28 59
c20.667 -2.66699 37.667 -7.16699 51 -13.5s20 -17.166 20 -32.499c0 -8 -1.5 -14.833 -4.5 -20.5s-7.16699 -12.167 -12.5 -19.5l-69 -101z" />
    <glyph glyph-name="quotedblbase" unicode="&#x201e;" horiz-adv-x="291" 
d="M131 -100l44 92.999c2 4 0.666992 7 -4 9l-25 12l28 59c21.333 -2.66699 38.5 -7.16699 51.5 -13.5s19.5 -17.166 19.5 -32.499c0 -8 -1.5 -14.833 -4.5 -20.5s-7.16699 -12.167 -12.5 -19.5l-69 -101zM-5 -100.001l44 92.999c2 4 0.666992 7 -4 9l-25 12l28 59
c21.333 -2.66699 38.5 -7.16699 51.5 -13.5s19.5 -17.166 19.5 -32.499c0 -8 -1.5 -14.833 -4.5 -20.5s-7.16699 -12.167 -12.5 -19.5l-69 -101z" />
    <glyph glyph-name="dagger" unicode="&#x2020;" horiz-adv-x="386" 
d="M124 -83l27 193l17 210l36 112h32l3 -112l-40 -211l-27 -192h-48zM118 422h-74l8 53h74l83 -10l-5 -33zM209 465l2 96l12 84h55l-12 -84l-24 -96h-33zM319 422l-83 10l6 33l85 10h74l-7 -53h-75z" />
    <glyph glyph-name="daggerdbl" unicode="&#x2021;" horiz-adv-x="386" 
d="M236 432l3 -112l-11 -78l-35 -112l85 10h74l-8 -53h-74l-83 10l5 33h-32l-6 -33h33l-2 -96l-12 -84h-55l12 84l24 96l-85 -10h-74l7 53h75l83 -10l-3 112l11 78l36 112l-86 -10h-74l8 53h74l83 -10l-5 -33h32zM209 465l2 96l12 84h55l-12 -84l-24 -96h-33zM319 422
l-83 10l6 33l85 10h74l-7 -53h-75z" />
    <glyph glyph-name="bullet" unicode="&#x2022;" horiz-adv-x="383" 
d="M334 280c0 -42 -11 -73.333 -33 -94s-53.333 -31 -94 -31c-40 0 -71.167 10.333 -93.5 31s-33.5 52 -33.5 94s11.167 73.333 33.5 94s53.5 31 93.5 31c40.667 0 72 -10.333 94 -31s33 -52 33 -94z" />
    <glyph glyph-name="ellipsis" unicode="&#x2026;" horiz-adv-x="541" 
d="M302 51c0 -17.333 -5.16699 -32.167 -15.5 -44.5s-25.5 -18.5 -45.5 -18.5c-14 0 -25 3.33301 -33 10s-12 16.667 -12 30c0 21.333 5.5 37.333 16.5 48s25.5 16 43.5 16c30.667 0 46 -13.667 46 -41zM478 50.999c0 -17.333 -5.16699 -32.167 -15.5 -44.5
s-25.5 -18.5 -45.5 -18.5c-14 0 -25 3.33301 -33 10s-12 16.667 -12 30c0 21.333 5.5 37.333 16.5 48s25.5 16 43.5 16c30.667 0 46 -13.667 46 -41zM127 50.998c0 -17.333 -5.16699 -32.167 -15.5 -44.5s-25.5 -18.5 -45.5 -18.5c-14 0 -25 3.33301 -33 10
s-12 16.667 -12 30c0 21.333 5.5 37.333 16.5 48s25.5 16 43.5 16c30.667 0 46 -13.667 46 -41z" />
    <glyph glyph-name="perthousand" unicode="&#x2030;" horiz-adv-x="1032" 
d="M192 295c-21.333 0 -39.5039 3.49707 -54.5039 10.4971s-27.167 16.5 -36.5 28.5s-16.166 25.833 -20.499 41.5s-6.5 31.834 -6.5 48.501c0 27.333 3.5 52.833 10.5 76.5s17.5 44.334 31.5 62.001s31.333 31.667 52 42s44.334 15.5 71.001 15.5
c42 0 71.833 -11.667 89.5 -35s26.5 -53.666 26.5 -90.999c0 -28 -3.5 -54.167 -10.5 -78.5s-17.167 -45.5 -30.5 -63.5s-30.166 -32 -50.499 -42s-44.166 -15 -71.499 -15zM103.996 -17.0029l466 638h49l-465 -638h-50zM195.996 334.997c26 0 46.333 5.66797 61 17.001
s25.834 25.166 33.501 41.499s12.5 33.333 14.5 51s3 32.5 3 44.5c0 23.333 -5.66699 44.166 -17 62.499s-30.666 27.5 -57.999 27.5c-22 0 -40.333 -5.33301 -55 -16s-26.334 -23.667 -35.001 -39s-14.834 -32 -18.501 -50s-5.5 -34.333 -5.5 -49
c0 -23.333 5.83301 -44.166 17.5 -62.499s31.5 -27.5 59.5 -27.5zM488.996 -12.002c-22 0 -40.335 3.49902 -55.002 10.499s-26.5 16.333 -35.5 28s-15.5 25.167 -19.5 40.5s-6 31.333 -6 48c0 27.333 3.5 53 10.5 77s17.5 45 31.5 63s31.333 32.167 52 42.5
s44.334 15.5 71.001 15.5c41.333 0 70.833 -12 88.5 -36s26.5 -54.667 26.5 -92c0 -28 -3.5 -54.167 -10.5 -78.5s-17.333 -45.166 -31 -62.499s-30.667 -31 -51 -41s-44.166 -15 -71.499 -15zM493.994 25.9971c26 0 46.501 5.66699 61.501 17s26.333 25.166 34 41.499
s12.5 33.333 14.5 51s3 32.834 3 45.501c0 24 -5.66699 45.333 -17 64s-30.666 28 -57.999 28c-22 0 -40.333 -5.5 -55 -16.5s-26.334 -24.5 -35.001 -40.5s-14.834 -33 -18.501 -51s-5.5 -34 -5.5 -48c0 -24 5.66699 -45.167 17 -63.5s31 -27.5 59 -27.5zM807.995 -12.0029
c-21.333 0 -39.501 3.49902 -54.501 10.499s-27 16.333 -36 28s-15.5 25.167 -19.5 40.5s-6 31.333 -6 48c0 27.333 3.5 53 10.5 77s17.333 45 31 63s30.667 32.167 51 42.5s43.833 15.5 70.5 15.5c42 0 72 -12 90 -36s27 -54.667 27 -92c0 -28 -3.5 -54.167 -10.5 -78.5
s-17.333 -45.166 -31 -62.499s-30.667 -31 -51 -41s-44.166 -15 -71.499 -15zM813.994 25.9961c26 0 46.333 5.66699 61 17s25.834 25.166 33.501 41.499s12.5 33.333 14.5 51s3 32.834 3 45.501c0 24 -5.66699 45.333 -17 64s-30.666 28 -57.999 28
c-22 0 -40.333 -5.5 -55 -16.5s-26.334 -24.5 -35.001 -40.5s-14.834 -33 -18.501 -51s-5.5 -34 -5.5 -48c0 -24 5.66699 -45.167 17 -63.5s31.333 -27.5 60 -27.5z" />
    <glyph glyph-name="guilsinglleft" unicode="&#x2039;" horiz-adv-x="278" 
d="M138 103l-66 157.999l110 147h57l-95 -139c-3.33301 -4 -5 -7.16699 -5 -9.5s0.666992 -5.16602 2 -8.49902l52 -148h-55z" />
    <glyph glyph-name="guilsinglright" unicode="&#x203a;" horiz-adv-x="278" 
d="M56 103l95.001 144c5.33301 7.33301 6.66602 14 3.99902 20l-52 141h54l66 -153l-107 -152h-60z" />
    <glyph glyph-name="fraction" unicode="&#x2044;" horiz-adv-x="130" 
d="M-171 -12l457 736h48l-456 -736h-49z" />
    <glyph glyph-name="Euro" unicode="&#x20ac;" horiz-adv-x="496" 
d="M54 402l42.0029 -0.000976562c10.667 42 25.667 78.333 45 109s41.833 56 67.5 76s53.834 34.667 84.501 44s62.667 14 96 14c32.667 0 59.834 -3.33301 81.501 -10s37.834 -12 48.501 -16l-18 -126l-32 5l-3 81c0 6.66699 -4.66699 11.334 -14 14.001
c-6.66699 2 -16.5 4.16699 -29.5 6.5s-28.833 3.5 -47.5 3.5c-52.667 0 -99 -15.667 -139 -47s-70.333 -82.666 -91 -153.999h235l-12 -41h-230c-2.66699 -14 -4.83398 -29.333 -6.50098 -46s-2.83398 -31 -3.50098 -43h212l-13 -41h-199
c2 -66.667 17.167 -117.334 45.5 -152.001s67.5 -52 117.5 -52c18.667 0 36.167 1 52.5 3s29.5 5 39.5 9c4 1.33301 6.5 3 7.5 5s2.16699 5 3.5 9l21 81l36 4l-17 -124c-4.66699 -2 -11.834 -4.33301 -21.501 -7s-20.834 -5.5 -33.501 -8.5s-26.834 -5.5 -42.501 -7.5
s-31.834 -3 -48.501 -3c-66.667 0 -117.334 21.5 -152.001 64.5s-54 102.5 -58 178.5h-64l12 41h52c0.666992 12 1.83398 26.333 3.50098 43s4.16699 32 7.5 46h-48z" />
    <glyph glyph-name="afii61352" unicode="&#x2116;" horiz-adv-x="1052" 
d="M650 155h308l-7 -39h-308zM802 205c-44 0 -76.167 11.834 -96.5 35.501s-30.5 56.167 -30.5 97.5c0 30 3.83301 57.5 11.5 82.5s19.167 46.833 34.5 65.5s34.5 33.167 57.5 43.5s49.5 15.5 79.5 15.5c22.667 0 42 -3.33301 58 -10s29.167 -15.667 39.5 -27
s17.833 -24.833 22.5 -40.5s7 -32.167 7 -49.5c0 -66.667 -15.5 -118.834 -46.5 -156.501s-76.5 -56.5 -136.5 -56.5zM808 245.001c40 0 71.667 14 95 42s34.666 71.333 33.999 130c0 30 -7.5 52 -22.5 66s-36.5 21 -64.5 21c-39.333 0 -70.666 -13.5 -93.999 -40.5
s-35 -68.833 -35 -125.5c0 -62 29 -93 87 -93zM478 0.000976562l-248.001 578.006l-73 -520c-1.33301 -8 -1.33301 -13 0 -15s5.66602 -3.66699 12.999 -5l65 -8l-3 -30h-207l2 30l63 7c7.33301 1.33301 11.833 3.16602 13.5 5.49902s3.16699 7.16602 4.5 14.499l72 511
c1.33301 7.33301 1.33301 12.166 0 14.499s-5.66602 4.16602 -12.999 5.49902l-60 7l4 31h155l238 -572l69 515c1.33301 7.33301 1.33301 12.166 0 14.499s-5.66602 4.16602 -12.999 5.49902l-61 7l4 30h209l-4 -30l-67 -8c-7.33301 -1.33301 -12 -3 -14 -5
s-3.66699 -6.66699 -5 -14l-79 -569h-65z" />
    <glyph glyph-name="trademark" unicode="&#x2122;" horiz-adv-x="818" 
d="M159 348v30l64 5v302h-94l-11 -58h-31v97h319v-97h-30l-10 58h-97v-302l70 -5v-30h-180zM728 348v29l52 5v256l-109 -209h-35l-108 208v-255l56 -5v-29h-144v29l44 5v305l-44 5v32h92l123 -244l126 244h87v-32l-44 -5v-305l46 -5v-29h-142z" />
    <glyph glyph-name="partialdiff" unicode="&#x2202;" horiz-adv-x="565" 
d="M459 330c4 20 7.16699 43.002 9.5 69.002s3.5 53 3.5 81c0 18.667 -2 36.834 -6 54.501s-10.5 33.5 -19.5 47.5s-21 25.167 -36 33.5s-33.5 12.5 -55.5 12.5c-30 0 -59.667 -5.33301 -89 -16s-54.333 -21.667 -75 -33l-19 37c28 16 58.5 29.167 91.5 39.5
s64.5 15.5 94.5 15.5c34.667 0 62.5 -6.5 83.5 -19.5s37.333 -29.5 49 -49.5s19.334 -42.167 23.001 -66.5s5.5 -47.833 5.5 -70.5c0 -51.333 -5.33301 -105 -16 -161s-28.167 -107.5 -52.5 -154.5s-55.833 -85.667 -94.5 -116s-86 -45.5 -142 -45.5
c-27.333 0 -50.833 4 -70.5 12s-35.834 19.167 -48.501 33.5s-22 31.166 -28 50.499s-9 40.333 -9 63c0 35.333 5.5 68.833 16.5 100.5s26.667 59.5 47 83.5s45 43.167 74 57.5s61.5 21.5 97.5 21.5c20 0 38.333 -2.33301 55 -7s32 -10.834 46 -18.501
s26.5 -16.334 37.5 -26.001s20.167 -19.167 27.5 -28.5zM446 280.002c-5.33301 8 -12.832 16.999 -22.499 26.999s-21.334 19.333 -35.001 28s-29 15.834 -46 21.501s-35.5 8.5 -55.5 8.5c-32 0 -59.167 -7 -81.5 -21s-40.5 -31.667 -54.5 -53s-24.167 -44.333 -30.5 -69
s-9.5 -47.667 -9.5 -69c0 -36.667 8.66699 -66.167 26 -88.5s44 -33.5 80 -33.5s67.333 8.5 94 25.5s49.167 38 67.5 63s33 52 44 81s18.833 55.5 23.5 79.5z" />
    <glyph glyph-name="product" unicode="&#x220f;" horiz-adv-x="759" 
d="M440 -176l6.00195 33.0059l64 7c7.33301 1.33301 12 3.16602 14 5.49902s3.66699 7.16602 5 14.499l110 797h-393l-110 -796c-1.33301 -8 -1.33301 -13 0 -15s5.66602 -3.66699 12.999 -5l66 -8l-5 -33h-211l5 33l64 7c7.33301 1.33301 12 3.16602 14 5.49902
s3.66699 7.16602 5 14.499l108 777c1.33301 7.33301 1.5 12.166 0.5 14.499s-5.16699 4.16602 -12.5 5.49902l-62 7l4 36h652l-5 -36l-68 -8c-7.33301 -1.33301 -12 -3 -14 -5s-3.66699 -6.66699 -5 -14l-108 -776c-1.33301 -8 -1.33301 -13 0 -15
s5.66602 -3.66699 12.999 -5l66 -8l-5 -33h-211z" />
    <glyph glyph-name="summation" unicode="&#x2211;" horiz-adv-x="627" 
d="M-16 -176l5 35l299 427l-161 399l5 39h514l-20 -137l-37 2l-3 79c-0.666992 8.66699 -6 13 -16 13h-386l159 -403l-294 -416h406c5.33301 0 9 0.5 11 1.5s3.66699 4.16699 5 9.5l28 87h37l-18 -136h-534z" />
    <glyph glyph-name="minus" unicode="&#x2212;" horiz-adv-x="570" 
d="M105 297l8 50h370l-8 -50h-370z" />
    <glyph glyph-name="radical" unicode="&#x221a;" horiz-adv-x="544" 
d="M239 0l-102.002 241.999c-1.33301 3.33301 -3.16602 5.83301 -5.49902 7.5s-6.16602 1.83398 -11.499 0.500977l-65 -22l-10 36l119 52l109 -262l279 688l47 -11l-297 -731h-63z" />
    <glyph glyph-name="infinity" unicode="&#x221e;" horiz-adv-x="683" 
d="M207 450c19.333 0 36.167 -2.33008 50.5 -6.99707s27.5 -11.334 39.5 -20.001s23.167 -18.5 33.5 -29.5s20.833 -23.167 31.5 -36.5l33 36c10.667 11.333 21.834 21.166 33.501 29.499s24.334 15 38.001 20s28.5 7.5 44.5 7.5c16.667 0 32.834 -2.5 48.501 -7.5
s29.5 -12.5 41.5 -22.5s21.667 -22.5 29 -37.5s11 -32.5 11 -52.5c0 -44.667 -13 -79 -39 -103s-58 -36 -96 -36c-17.333 0 -33.333 2.5 -48 7.5s-28 11.5 -40 19.5s-23.167 17.167 -33.5 27.5s-20.166 20.833 -29.499 31.5c-8 -10 -17.167 -20 -27.5 -30
s-21.833 -19.167 -34.5 -27.5s-26.667 -15.166 -42 -20.499s-31.666 -8 -48.999 -8c-18 0 -34.833 2.66699 -50.5 8s-29.334 13.166 -41.001 23.499s-20.834 23.666 -27.501 39.999s-10 35.5 -10 57.5c0 20 3.66699 38 11 54s17.166 29.667 29.499 41s26.666 20 42.999 26
s33.166 9 50.499 9zM209.001 236.003c24.667 0 46.834 8.66699 66.501 26s37.5 36 53.5 56c-16.667 23.333 -34.167 44 -52.5 62s-40.833 27 -67.5 27c-22.667 0 -42.334 -7 -59.001 -21s-25 -35.667 -25 -65c0 -27.333 7 -48.333 21 -63s35 -22 63 -22zM514.001 404.003
c-23.333 0 -43.999 -7.5 -61.999 -22.5s-39 -36.833 -63 -65.5c17.333 -24 35.666 -43.667 54.999 -59s40.333 -23 63 -23s41.667 9 57 27s23 39 23 63c0 22 -5.83301 40.833 -17.5 56.5s-30.167 23.5 -55.5 23.5z" />
    <glyph glyph-name="integral" unicode="&#x222b;" horiz-adv-x="546" 
d="M142 -129c25.333 -12.667 52.3301 -19 80.9971 -19c29.333 0 48.333 6.5 57 19.5s12.334 32.833 11.001 59.5l-56 666c-2 24 0.166992 44.333 6.5 61s15.5 30 27.5 40s26 17.333 42 22s32.667 7 50 7c18 0 34.5 -2.16699 49.5 -6.5s28.167 -9.16602 39.5 -14.499l-16 -41
c-25.333 13.333 -52 20 -80 20c-20 0 -37 -6.83301 -51 -20.5s-20 -33.834 -18 -60.501l56 -666c4 -46.667 -4.5 -79.667 -25.5 -99s-51.5 -29 -91.5 -29c-17.333 0 -35.666 2.16699 -54.999 6.5s-33.666 9.5 -42.999 15.5z" />
    <glyph glyph-name="approxequal" unicode="&#x2248;" horiz-adv-x="530" 
d="M493 318c-10.667 -26 -23.5 -48.001 -38.5 -66.001s-37.167 -27 -66.5 -27c-18 0 -37 2.5 -57 7.5s-39.833 10.5 -59.5 16.5s-38.667 11.5 -57 16.5s-34.833 7.5 -49.5 7.5c-16.667 0 -30.667 -5 -42 -15s-24.666 -24.667 -39.999 -44l-33 15
c17.333 26.667 34.666 48.334 51.999 65.001s40.333 25 69 25c19.333 0 38.5 -2.5 57.5 -7.5s38 -10.5 57 -16.5s37.333 -11.5 55 -16.5s34.5 -7.5 50.5 -7.5c17.333 0 30.333 5 39 15s17.667 25 27 45zM519 492.999c-5.33301 -12.667 -11.001 -24.834 -17.001 -36.501
s-13 -21.667 -21 -30s-17.333 -15 -28 -20s-23.667 -7.5 -39 -7.5c-18 0 -37 2.5 -57 7.5s-39.833 10.667 -59.5 17s-38.667 12 -57 17s-34.833 7.5 -49.5 7.5c-16.667 0 -30.5 -5 -41.5 -15s-24.167 -24.667 -39.5 -44l-35 15c17.333 26.667 35 48.334 53 65.001
s41.333 25 70 25c19.333 0 38.5 -2.5 57.5 -7.5s37.833 -10.5 56.5 -16.5s36.834 -11.5 54.501 -16.5s34.5 -7.5 50.5 -7.5c17.333 0 30.333 5 39 15s17.667 25 27 45z" />
    <glyph glyph-name="notequal" unicode="&#x2260;" horiz-adv-x="570" 
d="M230 238l56 92h-170l9 52h200l69 104h59l-70 -104h107l-8 -52h-138l-57 -92h183l-8 -52h-214l-63 -95h-57l63 95h-94l7 52h126z" />
    <glyph glyph-name="lessequal" unicode="&#x2264;" horiz-adv-x="570" 
d="M101 247l11 62l384 163l17 -43l-366 -152l325 -142l-21 -42zM69 0l7 50h370l-7 -50h-370z" />
    <glyph glyph-name="greaterequal" unicode="&#x2265;" horiz-adv-x="570" 
d="M490 310l-11 -62l-384 -162l-17 43l366 152l-325 141l21 42zM463 50l-7 -50h-370l7 50h370z" />
    <glyph glyph-name="lozenge" unicode="&#x25ca;" horiz-adv-x="524" 
d="M206 -17l-111 324l202 324h49l113 -324l-204 -324h-49zM403 307l-90 264l-163 -264l89 -263z" />
    <glyph glyph-name="breve.cyr" 
d="M416 704c-12.667 -40 -33.167 -71.833 -61.5 -95.5s-66.833 -35.5 -115.5 -35.5c-43.333 0 -75.5 12.667 -96.5 38s-33.5 56.333 -37.5 93l44 16c2 -15.333 4.83301 -29.5 8.5 -42.5s9.16699 -24.333 16.5 -34s16.833 -17.167 28.5 -22.5s26.167 -8 43.5 -8
c32 0 58 8.5 78 25.5s36 43.833 48 80.5z" />
    <glyph glyph-name="hyphen.case" horiz-adv-x="311" 
d="M32 322l8 51h271l-8 -51h-271z" />
    </font>
</defs>
</svg>
