<?xml version="1.0" standalone="no"?>
<!DOCTYPE svg PUBLIC "-//W3C//DTD SVG 1.1//EN" "http://www.w3.org/Graphics/SVG/1.1/DTD/svg11.dtd" >
<svg>
<metadata>
Created by FontForge 20090914 at Mon May  1 15:26:14 2017
 By www-data
Copyright (c) 2010 by TypeTogether. All rights reserved.This font is ONLY licensed for use when accessed from the Extensis WebINK font service. Any other use of this font file is illegal under United States and international copyright laws. Please respect the rights of the people who design and license fonts.
</metadata>
<defs>
<font id="AdelleCyrillic-Heavy" horiz-adv-x="500" >
  <font-face 
    font-family="Adelle Cyrillic"
    font-weight="900"
    font-stretch="normal"
    units-per-em="1000"
    panose-1="2 0 5 3 0 0 0 2 0 4"
    ascent="755"
    descent="-245"
    x-height="527.998"
    cap-height="724"
    bbox="-173 -276 1169 970"
    underline-thickness="50"
    underline-position="-50"
    unicode-range="U+000D-U+25CA"
  />
<missing-glyph 
 />
    <glyph glyph-name=".notdef" 
 />
    <glyph glyph-name="NULL" horiz-adv-x="0" 
 />
    <glyph glyph-name="NULL" horiz-adv-x="0" 
 />
    <glyph glyph-name="nonmarkingreturn" unicode="&#xd;" 
 />
    <glyph glyph-name="space" unicode=" " horiz-adv-x="182" 
 />
    <glyph glyph-name="exclam" unicode="!" horiz-adv-x="321" 
d="M74 206l-22 331v187h221v-187l-22 -331h-177zM268 81c0 -30 -8.5 -52.999 -25.5 -68.999s-43.5 -24 -79.5 -24c-36.667 0 -63.5 7.66699 -80.5 23s-25.5 38.666 -25.5 69.999c0 30 8.5 53 25.5 69s43.833 24 80.5 24c36 0 62.5 -8 79.5 -24s25.5 -39 25.5 -69z" />
    <glyph glyph-name="quotedbl" unicode="&#x22;" horiz-adv-x="459" 
d="M23 447v259h180v-259h-180zM256 447v259h180v-259h-180z" />
    <glyph glyph-name="numbersign" unicode="#" horiz-adv-x="607" 
d="M283 0l15 103h-52l-15 -103h-136l15 103h-84l28 137h77l12 78h-85l28 137h77l14 88h136l-14 -88h52l15 88h135l-14 -88h88l-27 -137h-81l-12 -78h88l-27 -137h-82l-15 -103h-136zM331 318h-52l-12 -78h52z" />
    <glyph glyph-name="dollar" unicode="$" horiz-adv-x="534" 
d="M511 214c0 -57.333 -14.5 -102.336 -43.5 -135.003s-65.833 -55 -110.5 -67v-92h-193v84c-23.333 2 -46.666 5.66699 -69.999 11s-45 12.666 -65 21.999v176l152 -10l10 -63c0.666992 -6 2.16699 -10.167 4.5 -12.5s5.5 -4.16602 9.5 -5.49902c11.333 -4 27 -6 47 -6
s36.5 4.83301 49.5 14.5s19.5 23.5 19.5 41.5c0 16.667 -7.33301 29.334 -22 38.001s-33 16.167 -55 22.5l-72 21c-26 7.66699 -50 18.334 -72 32.001s-40.333 32 -55 55s-22 53.5 -22 91.5c0 56 14.5 99.833 43.5 131.5s65.833 53.834 110.5 66.501v85h193v-76
c17.333 -2 35.333 -5 54 -9s42 -9.66699 70 -17v-179l-151 7l-11 62c-1.33301 7.33301 -3.33301 12 -6 14s-7.33398 3.66699 -14.001 5c-6 1.33301 -11.833 2 -17.5 2h-15.5c-18 0 -33.5 -3.83301 -46.5 -11.5s-19.5 -19.5 -19.5 -35.5c0 -14.667 7.33301 -26.167 22 -34.5
s33 -15.833 55 -22.5l72 -22.5c26 -8.33301 50 -19.833 72 -34.5s40.333 -33.667 55 -57s22 -54 22 -92z" />
    <glyph glyph-name="percent" unicode="%" horiz-adv-x="932" 
d="M196 257c-33.333 0 -61.167 4.50098 -83.5 13.501s-40.333 21.5 -54 37.5s-23.5 34.667 -29.5 56s-9 44.333 -9 69c0 58 14.333 103.667 43 137s75.667 50 141 50c63.333 0 108.5 -15.5 135.5 -46.5s40.5 -73.5 40.5 -127.5c0 -58.667 -15 -104.834 -45 -138.501
s-76.333 -50.5 -139 -50.5zM181.999 -11.999l374 632h191l-373 -632h-192zM201.999 361.001c8.66699 0 15.833 5.16699 21.5 15.5s8.5 32.166 8.5 65.499c0 30 -2.83301 49.667 -8.5 59s-13.167 14 -22.5 14c-8 0 -15.167 -4.33301 -21.5 -13s-9.5 -28.667 -9.5 -60
c0 -33.333 3 -55.166 9 -65.499s13.667 -15.5 23 -15.5zM728.998 -11.999c-33.333 0 -61.3311 4.50098 -83.998 13.501s-40.834 21.5 -54.501 37.5s-23.5 34.667 -29.5 56s-9 44.333 -9 69c0 58 14.5 103.667 43.5 137s76.167 50 141.5 50c63.333 0 108.333 -15.5 135 -46.5
s40 -73.5 40 -127.5c0 -58.667 -14.833 -104.834 -44.5 -138.501s-75.834 -50.5 -138.501 -50.5zM734 92.002c9.33301 0 16.666 5.16699 21.999 15.5s8 32.166 8 65.499c0 30 -2.66699 49.667 -8 59s-12.666 14 -21.999 14c-8 0 -15.167 -4.33301 -21.5 -13
s-9.5 -28.667 -9.5 -60c0 -33.333 2.83301 -55.166 8.5 -65.499s13.167 -15.5 22.5 -15.5z" />
    <glyph glyph-name="ampersand" unicode="&#x26;" horiz-adv-x="728" 
d="M492 0l-35.9971 40c-50 -34.667 -113.333 -52 -190 -52c-34.667 0 -66.5 4.33301 -95.5 13s-53.833 21.834 -74.5 39.501s-36.834 39.5 -48.501 65.5s-17.5 56 -17.5 90c0 42 11.167 79.667 33.5 113s53.166 62 92.499 86c-12 17.333 -20.333 34.833 -25 52.5
s-7 34.5 -7 50.5c0 63.333 20.167 110.166 60.5 140.499s93.833 45.5 160.5 45.5c41.333 0 80.333 -5.16699 117 -15.5s65.667 -22.5 87 -36.5v-180l-147 5l-13 67c-2 7.33301 -5.66699 11.333 -11 12c-3.33301 0.666992 -6.33301 1 -9 1h-7c-24 0 -36 -13 -36 -39
c0 -11.333 3.33301 -23.166 10 -35.499s13 -22.166 19 -29.499l94 -112l17 66h201v-100l-46 -9c-6 -1.33301 -10 -2.83301 -12 -4.5s-3.66699 -5.83398 -5 -12.501c-3.33301 -14 -7.33301 -27.5 -12 -40.5s-10.334 -26.833 -17.001 -41.5l54 -60
c2 -2 4.33301 -3.83301 7 -5.5s6.66699 -2.83398 12 -3.50098l55 -8v-102h-211zM241.003 279c-7.33301 -6.66699 -14.002 -15.167 -20.002 -25.5s-9 -24.5 -9 -42.5c0 -24 6.83301 -42.5 20.5 -55.5s31.834 -19.5 54.501 -19.5c9.33301 0 19.333 1.5 30 4.5
s21.334 8.16699 32.001 15.5z" />
    <glyph glyph-name="quotesingle" unicode="'" horiz-adv-x="226" 
d="M23 447v259h180v-259h-180z" />
    <glyph glyph-name="parenleft" unicode="(" horiz-adv-x="412" 
d="M208 -188c-24 28 -46.667 59.6719 -68 95.0049s-40.166 73.166 -56.499 113.499s-29.333 82.5 -39 126.5s-14.5 88.333 -14.5 133c0 47.333 4.66699 92.666 14 135.999s22.166 84.833 38.499 124.5s36 77.667 59 114s48.167 71.166 75.5 104.499l157 -92
c-42 -56.667 -72 -115.834 -90 -177.501s-27 -131.5 -27 -209.5c0 -40.667 2.33301 -77.667 7 -111s11.667 -65 21 -95s20.833 -58.833 34.5 -86.5s29.5 -55.834 47.5 -84.501z" />
    <glyph glyph-name="parenright" unicode=")" horiz-adv-x="412" 
d="M192 -188l-156.002 92.9961c43.333 58.667 74 119.334 92 182.001s27 131.334 27 206.001c0 42 -2.5 80 -7.5 114s-12.167 65.833 -21.5 95.5s-20.666 57.834 -33.999 84.501s-28.666 53.667 -45.999 81l159 91c23.333 -28 45.666 -59.5 66.999 -94.5s40 -72.5 56 -112.5
s28.833 -81.833 38.5 -125.5s14.5 -88.167 14.5 -133.5c0 -47.333 -4.66699 -92.666 -14 -135.999s-22.333 -85 -39 -125s-36.667 -78.333 -60 -115s-48.666 -71.667 -75.999 -105z" />
    <glyph glyph-name="asterisk" unicode="*" horiz-adv-x="482" 
d="M76 450l44 61l94 46l-103 -22l-72 23l41 129l72 -24l72 -75l-51 92v75h135v-75l-50 -92h-34l-10 -31l27 -19l-10 -105l-44 -63zM295 370l-43 63l-11 105l27 19l-10 31l72 75l72 24l41 -129l-72 -23l-103 22l94 -46l45 -61z" />
    <glyph glyph-name="plus" unicode="+" horiz-adv-x="570" 
d="M206 114v134h-120v153h120v130h156v-130h121v-153h-121v-134h-156z" />
    <glyph glyph-name="comma" unicode="," horiz-adv-x="286" 
d="M78 -97l24.998 109.999c2 6.66699 0 11 -6 13l-47 13l22 134c22.667 0 44.334 -0.666992 65.001 -2s38.834 -5.16602 54.501 -11.499s28.167 -15.5 37.5 -27.5s14 -28.667 14 -50c0 -13.333 -2.83301 -28 -8.5 -44s-11.167 -30 -16.5 -42l-52 -117z" />
    <glyph glyph-name="hyphen" unicode="-" horiz-adv-x="321" 
d="M25 207v165h271v-165h-271z" />
    <glyph glyph-name="period" unicode="." horiz-adv-x="301" 
d="M256 81c0 -30 -8.49902 -52.999 -25.499 -68.999s-43.5 -24 -79.5 -24c-36.667 0 -63.5 7.66699 -80.5 23s-25.5 38.666 -25.5 69.999c0 30 8.5 53 25.5 69s43.833 24 80.5 24c35.333 0 61.666 -8 78.999 -24s26 -39 26 -69z" />
    <glyph glyph-name="slash" unicode="/" horiz-adv-x="505" 
d="M10 -92l283 847h192l-282 -847h-193z" />
    <glyph glyph-name="zero" unicode="0" horiz-adv-x="614" 
d="M300 -12c-50.667 0 -93.499 6.49902 -128.499 19.499s-63.333 32.5 -85 58.5s-37.334 58.167 -47.001 96.5s-14.5 82.833 -14.5 133.5c0 100 22.833 175.5 68.5 226.5s118.834 76.5 219.501 76.5c51.333 0 94.666 -6.5 129.999 -19.5s63.833 -32.333 85.5 -58
s37.167 -57 46.5 -94s14 -79.5 14 -127.5c0 -105.333 -22.833 -183.666 -68.5 -234.999s-119.167 -77 -220.5 -77zM308.001 129.999c8.66699 0 16.335 1.99805 23.002 5.99805s12.5 11.833 17.5 23.5s8.83301 28.334 11.5 50.001s4 50.167 4 85.5
c0 34 -1.16699 61.333 -3.5 82s-5.83301 36.834 -10.5 48.501s-10.334 19.334 -17.001 23.001s-14.334 5.5 -23.001 5.5s-16.667 -2 -24 -6s-13.5 -11.667 -18.5 -23s-9 -27.333 -12 -48s-4.5 -47.667 -4.5 -81c0 -34.667 1.16699 -62.834 3.5 -84.501
s5.83301 -38.5 10.5 -50.5s10.5 -20.167 17.5 -24.5s15.5 -6.5 25.5 -6.5z" />
    <glyph glyph-name="one" unicode="1" horiz-adv-x="427" 
d="M32 0l-0.000976562 103.999l71 7c7.33301 0.666992 11.833 2.33398 13.5 5.00098s2.5 7.66699 2.5 15v304c0 5.33301 -0.666992 9.83301 -2 13.5s-4.66602 6.16699 -9.99902 7.5l-79 20l15 107h287v-452c0 -8 0.833008 -13 2.5 -15s6.16699 -3.66699 13.5 -5l76 -7v-104
h-390z" />
    <glyph glyph-name="two" unicode="2" horiz-adv-x="564" 
d="M31 0v124.003l130 130l63.5 64.5c16.333 17 29.166 31.5 38.499 43.5s15.833 22.333 19.5 31s5.5 18 5.5 28c0 7.33301 -1.83301 14.666 -5.5 21.999s-12.167 11 -25.5 11c-16.667 0 -28.167 -5.33301 -34.5 -16s-9.5 -30.334 -9.5 -59.001l-188 15c0 44 8 79.5 24 106.5
s36.333 47.667 61 62s52 24 82 29s59.333 7.5 88 7.5c41.333 0 76 -4 104 -12s50.5 -19.333 67.5 -34s29.167 -31.834 36.5 -51.501s11 -41.5 11 -65.5c0 -20.667 -3 -39.667 -9 -57s-14.167 -34 -24.5 -50s-22.666 -31.5 -36.999 -46.5l-45.5 -48.5l-108 -108h88
c6.66699 0 11 4.33301 13 13l12 63h146v-202h-503z" />
    <glyph glyph-name="three" unicode="3" horiz-adv-x="550" 
d="M394 268c41.333 -5.33301 73.834 -20.8359 97.501 -46.5029s35.5 -61.5 35.5 -107.5c0 -36 -6.83301 -66.667 -20.5 -92s-32.5 -45.666 -56.5 -60.999s-52 -26.5 -84 -33.5s-66.333 -10.5 -103 -10.5c-54 0 -104.667 8.5 -152 25.5s-86 41.5 -116 73.5l106 117
c17.333 -16.667 36.5 -31.5 57.5 -44.5s48.167 -19.5 81.5 -19.5c23.333 0 42.333 4.5 57 13.5s22 26.167 22 51.5c0 22 -5.5 37.167 -16.5 45.5s-26.167 12.5 -45.5 12.5c-14 0 -26.833 -0.666992 -38.5 -2s-24.834 -3.66602 -39.501 -6.99902v132l39 5
c28 3.33301 49.833 12 65.5 26s23.5 36.333 23.5 67c0 10 -2.16699 19.333 -6.5 28s-15.166 13 -32.499 13s-29.5 -5 -36.5 -15s-10.5 -30 -10.5 -60l-190 15c0 44 7.5 79.5 22.5 106.5s34.333 47.833 58 62.5s50.167 24.334 79.5 29.001s58.333 7 87 7
c83.333 0 142.666 -13.667 177.999 -41s53 -71.666 53 -132.999c0 -22 -3.5 -41.833 -10.5 -59.5s-16 -32.834 -27 -45.501s-23.333 -23 -37 -31s-27.167 -13.667 -40.5 -17v-4z" />
    <glyph glyph-name="four" unicode="4" horiz-adv-x="612" 
d="M325 -67v111h-292v141l181 427l169 -74l-155 -334h97v126l189 31v-157h77v-160h-76v-111h-190z" />
    <glyph glyph-name="five" unicode="5" horiz-adv-x="574" 
d="M229 420l-11.0039 -94l4 -3c10.667 6.66699 25.167 14 43.5 22s43.5 12 75.5 12c59.333 0 106.333 -16.667 141 -50s52 -85.333 52 -156c0 -31.333 -5.5 -61.166 -16.5 -89.499s-27.667 -53.166 -50 -74.499s-50.166 -38.333 -83.499 -51s-72 -19 -116 -19
c-62 0 -116.167 8.66699 -162.5 26s-83.5 42.333 -111.5 75l103 116c18 -16.667 38.667 -31.667 62 -45s52 -20 86 -20c26.667 0 46.834 7 60.501 21s20.5 32.667 20.5 56c0 15.333 -2.33301 27.166 -7 35.499s-10.167 14.666 -16.5 18.999s-13.166 7 -20.499 8
s-13.666 1.5 -18.999 1.5c-12.667 0 -25.167 -3.16699 -37.5 -9.5s-22.833 -15.833 -31.5 -28.5l-134 53l24 358h253c7.33301 0 12 4.33301 14 13l13 55l122 9v-240h-257z" />
    <glyph glyph-name="six" unicode="6" horiz-adv-x="587" 
d="M360 455c0 27.333 -2.66895 46.165 -8.00195 56.498s-18.666 15.5 -39.999 15.5s-37.833 -10.167 -49.5 -30.5s-18.5 -56.166 -20.5 -107.499c16 6 34.167 10.833 54.5 14.5s41.5 5.5 63.5 5.5c28 0 54.5 -3.16699 79.5 -9.5s47 -16.833 66 -31.5
s34.167 -34.334 45.5 -59.001s17 -55.667 17 -93c0 -44 -7.33301 -80.667 -22 -110s-34.167 -52.833 -58.5 -70.5s-52.5 -30 -84.5 -37s-65.667 -10.5 -101 -10.5c-51.333 0 -94.5 7.83301 -129.5 23.5s-63.167 37.834 -84.5 66.501s-36.666 63.167 -45.999 103.5
s-14 85.5 -14 135.5c0 38 4.33301 77.333 13 118s23.834 77.834 45.501 111.501s50.667 61.5 87 83.5s82.166 33 137.499 33c28 0 56.5 -2.33301 85.5 -7s55.333 -13.667 79 -27s43 -32 58 -56s22.5 -55.667 22.5 -95zM241.998 265.999
c1.33301 -44 6.16602 -76.332 14.499 -96.999s24.833 -31 49.5 -31c11.333 0 20.166 2.33301 26.499 7s11 10.5 14 17.5s5 14.667 6 23s1.5 16.166 1.5 23.499c0 25.333 -3.66699 43.333 -11 54s-21.333 16 -42 16c-9.33301 0 -19.166 -1.33301 -29.499 -4
s-20.166 -5.66699 -29.499 -9z" />
    <glyph glyph-name="seven" unicode="7" horiz-adv-x="548" 
d="M126 -67c6 68 18 129.329 36 183.996s38.167 102.334 60.5 143.001s44.333 74.334 66 101.001s38.834 46.334 51.501 59.001h-140c-7.33301 0 -12 -4 -14 -12l-14 -76l-147 -11v262h523v-143c-60.667 -67.333 -108.334 -143.166 -143.001 -227.499
s-53.667 -177.5 -57 -279.5h-222z" />
    <glyph glyph-name="eight" unicode="8" horiz-adv-x="547" 
d="M432 345c14 -8.66699 27.165 -17.6689 39.498 -27.002s23 -20.166 32 -32.499s16.167 -26.166 21.5 -41.499s8 -33.333 8 -54c0 -35.333 -7 -65.833 -21 -91.5s-33.167 -46.667 -57.5 -63s-53 -28.333 -86 -36s-68.833 -11.5 -107.5 -11.5c-164 0 -246 60 -246 180
c0 18 2.5 34.667 7.5 50s11.5 29.333 19.5 42s17.167 24.167 27.5 34.5s20.833 19.833 31.5 28.5c-20 16 -36.5 35 -49.5 57s-19.5 49.667 -19.5 83c0 32 5.83301 60.5 17.5 85.5s28.334 46 50.001 63s47.334 29.833 77.001 38.5s62.5 13 98.5 13
c70.667 0 126.167 -14.333 166.5 -43s60.5 -71.667 60.5 -129c0 -30 -7 -57.667 -21 -83s-30.333 -46.333 -49 -63zM214.998 258.998c-13.333 -14 -22.498 -27.667 -27.498 -41s-7.5 -25.666 -7.5 -36.999c0 -18.667 5.66699 -33.834 17 -45.501s31.666 -17.5 60.999 -17.5
c26 0 43.667 5 53 15s14 21.667 14 35c0 10.667 -3.33301 20.167 -10 28.5s-15.334 16 -26.001 23s-22.5 13.667 -35.5 20zM307 403.998c21.333 27.333 32 52.332 32 74.999c0 14.667 -4.66699 27.334 -14 38.001s-24.333 16 -45 16c-21.333 0 -35.5 -5 -42.5 -15
s-10.5 -20.667 -10.5 -32c0 -18 7.33301 -33.333 22 -46s34 -24.667 58 -36z" />
    <glyph glyph-name="nine" unicode="9" horiz-adv-x="587" 
d="M122 120c16 -13.333 36.333 -25.6709 61 -37.0039s49.334 -17 74.001 -17c14 0 26.333 1.66699 37 5s19.834 9.83301 27.501 19.5s13.667 22.667 18 39s7.16602 37.5 8.49902 63.5c-13.333 -5.33301 -28.833 -10.166 -46.5 -14.499s-39.834 -6.5 -66.501 -6.5
c-24.667 0 -49.667 3.33301 -75 10s-48 17.834 -68 33.501s-36.333 36.167 -49 61.5s-19 56.333 -19 93c0 39.333 6.33301 73.333 19 102s30.334 52.334 53.001 71.001s49.834 32.667 81.501 42s66.5 14 104.5 14c51.333 0 94.833 -7.66699 130.5 -23s64.667 -37 87 -65
s38.666 -61.333 48.999 -100s15.5 -81.667 15.5 -129c0 -49.333 -4.5 -96 -13.5 -140s-24.833 -82.667 -47.5 -116s-52.834 -59.666 -90.501 -78.999s-85.167 -29 -142.5 -29c-22 0 -44.167 2 -66.5 6s-43.833 9.66699 -64.5 17s-39.5 16 -56.5 26s-31.5 21 -43.5 33z
M348 312.995c-2 44 -7.66797 77.832 -17.001 101.499s-24.666 35.5 -45.999 35.5c-10 0 -18 -2.33301 -24 -7s-10.833 -10.5 -14.5 -17.5s-6 -14.667 -7 -23s-1.5 -16.166 -1.5 -23.499c0 -22.667 3.83301 -41.667 11.5 -57s22.167 -23 43.5 -23c16 0 34.333 4.66699 55 14z
" />
    <glyph glyph-name="colon" unicode=":" horiz-adv-x="301" 
d="M256 81c0 -30 -8.49902 -52.999 -25.499 -68.999s-43.5 -24 -79.5 -24c-36.667 0 -63.5 7.66699 -80.5 23s-25.5 38.666 -25.5 69.999c0 30 8.5 53 25.5 69s43.833 24 80.5 24c35.333 0 61.666 -8 78.999 -24s26 -39 26 -69zM256.001 446.001
c0 -30 -8.49902 -52.999 -25.499 -68.999s-43.5 -24 -79.5 -24c-36.667 0 -63.5 7.66699 -80.5 23s-25.5 38.666 -25.5 69.999c0 30 8.5 53 25.5 69s43.833 24 80.5 24c35.333 0 61.666 -8 78.999 -24s26 -39 26 -69z" />
    <glyph glyph-name="semicolon" unicode=";" horiz-adv-x="286" 
d="M78 -97l24.998 109.999c2 6.66699 0 11 -6 13l-47 13l22 134c22.667 0 44.334 -0.666992 65.001 -2s38.834 -5.16602 54.501 -11.499s28.167 -15.5 37.5 -27.5s14 -28.667 14 -50c0 -13.333 -2.83301 -28 -8.5 -44s-11.167 -30 -16.5 -42l-52 -117zM260.998 445.999
c0 -30 -8.49902 -52.999 -25.499 -68.999s-43.5 -24 -79.5 -24c-36.667 0 -63.5 7.66699 -80.5 23s-25.5 38.666 -25.5 69.999c0 30 8.5 53 25.5 69s43.833 24 80.5 24c35.333 0 61.666 -8 78.999 -24s26 -39 26 -69z" />
    <glyph glyph-name="less" unicode="&#x3c;" horiz-adv-x="570" 
d="M55 204v180l404 129l41 -148l-268 -71l269 -75l-44 -145z" />
    <glyph glyph-name="equal" unicode="=" horiz-adv-x="570" 
d="M85 100v152h398v-152h-398zM85 311v152h398v-152h-398z" />
    <glyph glyph-name="greater" unicode="&#x3e;" horiz-adv-x="570" 
d="M100 74l-44 145l269 75l-268 71l41 148l403 -129v-180z" />
    <glyph glyph-name="question" unicode="?" horiz-adv-x="580" 
d="M129 206v187.002c24 2 48.667 4.5 74 7.5s48.333 8.5 69 16.5s37.667 19.5 51 34.5s20 35.167 20 60.5c0 24 -6 41 -18 51s-25.667 15 -41 15c-7.33301 0 -14.166 -0.333008 -20.499 -1s-13.166 -2 -20.499 -4c-5.33301 -1.33301 -9 -3.33301 -11 -6s-3.33301 -7 -4 -13
l-11 -81l-172 -14v214c51.333 19.333 96.666 32.666 135.999 39.999s78.333 11 117 11c34 0 66.833 -3.16699 98.5 -9.5s59.667 -17.833 84 -34.5s43.666 -39 57.999 -67s21.5 -63.667 21.5 -107c0 -28.667 -3.83301 -56.334 -11.5 -83.001s-20.167 -50.5 -37.5 -71.5
s-40 -38.5 -68 -52.5s-62.333 -22.667 -103 -26v-67h-211zM340 81.002c0 -30 -8.5 -52.999 -25.5 -68.999s-43.5 -24 -79.5 -24c-36.667 0 -63.5 7.66699 -80.5 23s-25.5 38.666 -25.5 69.999c0 30 8.5 53 25.5 69s43.833 24 80.5 24c36 0 62.5 -8 79.5 -24
s25.5 -39 25.5 -69z" />
    <glyph glyph-name="at" unicode="@" horiz-adv-x="853" 
d="M628 -161c-22.667 -10 -50.499 -18.335 -83.499 -25.002s-74.167 -10 -123.5 -10c-55.333 0 -105.166 7.66699 -149.499 23s-82 38 -113 68s-54.833 67 -71.5 111s-25 94.667 -25 152c0 62.667 9.5 119.334 28.5 170.001s45.833 93.667 80.5 129
s76.5 62.666 125.5 81.999s103.5 29 163.5 29c51.333 0 98.166 -7 140.499 -21s78.833 -34.5 109.5 -61.5s54.334 -60.333 71.001 -100s25 -85.5 25 -137.5c0 -88.667 -19.167 -154.167 -57.5 -196.5s-89.833 -63.5 -154.5 -63.5c-23.333 0 -44.333 3.5 -63 10.5
s-34.667 22.167 -48 45.5c-18.667 -20 -37.5 -34.333 -56.5 -43s-38.167 -13 -57.5 -13c-34 0 -62.667 12 -86 36s-35 60 -35 108c0 35.333 5 68.833 15 100.5s24.5 59.834 43.5 84.501s42.333 44.167 70 58.5s59.5 21.5 95.5 21.5c31.333 0 58.5 -3.16699 81.5 -9.5
s44.167 -13.833 63.5 -22.5l-20 -127c-3.33301 -21.333 -6.16602 -40.333 -8.49902 -57s-3.5 -34 -3.5 -52c0 -12.667 2.33301 -22.5 7 -29.5s14.667 -10.5 30 -10.5c16.667 0 29.667 8 39 24c7.33301 14.667 13 33.5 17 56.5s6 49.5 6 79.5s-4.33301 57.833 -13 83.5
s-22.334 47.834 -41.001 66.501s-42.834 33.334 -72.501 44.001s-65.167 16 -106.5 16c-49.333 0 -90.833 -9.16699 -124.5 -27.5s-60.834 -41.833 -81.501 -70.5s-35.5 -60.834 -44.5 -96.501s-13.5 -71.167 -13.5 -106.5c0 -76.667 21 -137 63 -181s104 -66 186 -66
c30 0 58.333 2.83301 85 8.5s53 13.167 79 22.5zM492.001 302.998c-3.33301 2.66699 -7.49902 4.66895 -12.499 6.00195s-9.83301 2 -14.5 2c-10.667 0 -21.5 -3.33301 -32.5 -10s-20.833 -16.834 -29.5 -30.501s-15.834 -30.334 -21.501 -50.001s-8.5 -42.5 -8.5 -68.5
c0 -22 2.5 -36.667 7.5 -44s12.167 -11 21.5 -11c18.667 0 39 9.66699 61 29z" />
    <glyph glyph-name="A" unicode="A" horiz-adv-x="805" 
d="M422 0v103l80 9l-18 49h-216l-17 -49l78 -9v-103h-331v103l46 11c6 1.33301 11.167 3.33301 15.5 6s7.5 7 9.5 13l217 591h238l212 -593c2 -6 5 -10 9 -12s9 -3.66699 15 -5l47 -11v-103h-385zM382 514h-7l-68 -210h140z" />
    <glyph glyph-name="B" unicode="B" horiz-adv-x="667" 
d="M16 0l-0.000976562 103.004l63 7c7.33301 1.33301 11.833 3.16602 13.5 5.49902s2.5 7.16602 2.5 14.499v462c0 7.33301 -0.833008 12.333 -2.5 15s-6.16699 4.33398 -13.5 5.00098l-63 7v105h374c42.667 0 78.334 -4.5 107.001 -13.5s51.5 -21.5 68.5 -37.5
s29 -34.833 36 -56.5s10.5 -44.834 10.5 -69.501c0 -24 -3.5 -45.167 -10.5 -63.5s-16.167 -34.5 -27.5 -48.5s-24.333 -25.5 -39 -34.5s-29.667 -16.167 -45 -21.5v-3c57.333 -6.66699 99 -24.834 125 -54.501s39 -69.5 39 -119.5
c0 -36.667 -7.16699 -67.834 -21.5 -93.501s-34 -46.5 -59 -62.5s-54.333 -27.667 -88 -35s-70.167 -11 -109.5 -11h-360zM334.999 143.004c32 0 55.833 6.16699 71.5 18.5s23.5 34.5 23.5 66.5c0 17.333 -2.33301 31 -7 41s-10.834 17.667 -18.501 23
s-16.667 8.83301 -27 10.5s-21.166 2.5 -32.499 2.5h-34v-162h24zM303.999 435.004c16 0 30.5 0.833984 43.5 2.50098s24.167 5.16699 33.5 10.5s16.5 12.833 21.5 22.5s7.5 22.5 7.5 38.5c0 16.667 -2.66699 29.667 -8 39s-12 16.166 -20 20.499s-17 7 -27 8
s-19.667 1.5 -29 1.5h-15v-143h-7z" />
    <glyph glyph-name="C" unicode="C" horiz-adv-x="681" 
d="M636 46c-16 -8.66699 -34.168 -16.666 -54.501 -23.999s-42 -13.5 -65 -18.5s-46.5 -8.83301 -70.5 -11.5s-47.333 -4 -70 -4c-63.333 0 -117.666 8.33301 -162.999 25s-82.666 41 -111.999 73s-51 71.167 -65 117.5s-21 99.5 -21 159.5c0 54 8 103.833 24 149.5
s40.167 85.167 72.5 118.5s72.666 59.333 120.999 78s104.5 28 168.5 28c19.333 0 39.666 -1.33301 60.999 -4s42.333 -6.5 63 -11.5s40.5 -11.167 59.5 -18.5s35.833 -15.666 50.5 -24.999v-232l-153 12l-15 98c-2 10 -7 16.333 -15 19c-6 1.33301 -14.167 2.5 -24.5 3.5
s-20.166 1.5 -29.499 1.5c-48.667 0 -87.167 -17.333 -115.5 -52s-42.5 -89.667 -42.5 -165c0 -76.667 13.5 -132.667 40.5 -168s63.833 -53 110.5 -53c9.33301 0 19.833 0.5 31.5 1.5s21.167 2.16699 28.5 3.5s12.333 3.16602 15 5.49902s4.66699 8.16602 6 17.499l15 96
h149v-220z" />
    <glyph glyph-name="D" unicode="D" horiz-adv-x="738" 
d="M16 0v104.999l63 7c7.33301 0.666992 11.833 2.33398 13.5 5.00098s2.5 7.66699 2.5 15v461c0 7.33301 -0.833008 12.166 -2.5 14.499s-6.16699 4.16602 -13.5 5.49902l-63 7v104h349c62.667 0 116.667 -8.16699 162 -24.5s82.5 -39.666 111.5 -69.999
s50.5 -67.166 64.5 -110.499s21 -92 21 -146c0 -55.333 -7.5 -106 -22.5 -152s-37.833 -85.333 -68.5 -118s-69.667 -58 -117 -76s-103.333 -27 -168 -27h-332zM326 142.999c38 0 68.667 5.83301 92 17.5s41.333 27.834 54 48.501s21.167 44.667 25.5 72
s6.5 56.666 6.5 87.999c0 36 -2.83301 67.167 -8.5 93.5s-15.334 48.333 -29.001 66s-32.167 30.667 -55.5 39s-52.666 12.5 -87.999 12.5h-11v-437h14z" />
    <glyph glyph-name="E" unicode="E" horiz-adv-x="627" 
d="M16 0v103.001l63 7c7.33301 1.33301 11.833 3.16602 13.5 5.49902s2.5 7.16602 2.5 14.499v463c0 7.33301 -0.833008 12.333 -2.5 15s-6.16699 4.33398 -13.5 5.00098l-63 7v104h562v-239l-153 6l-14 75c-2 8.66699 -7.66699 13 -17 13h-82v-142h202v-151h-202v-142h104
c5.33301 0 9 0.5 11 1.5s3.66699 4.16699 5 9.5l16 88h152v-243h-584z" />
    <glyph glyph-name="F" unicode="F" horiz-adv-x="608" 
d="M16 0v103.001l63 7c7.33301 1.33301 11.833 3.16602 13.5 5.49902s2.5 7.16602 2.5 14.499v463c0 7.33301 -0.833008 12.333 -2.5 15s-6.16699 4.33398 -13.5 5.00098l-63 7v104h558v-239l-153 6l-14 75c-2 8.66699 -7.66699 13 -17 13h-78v-142h198v-151h-198v-154
c0 -8 0.833008 -13 2.5 -15s6.16699 -3.66699 13.5 -5l147 -8v-104h-459z" />
    <glyph glyph-name="G" unicode="G" horiz-adv-x="723" 
d="M673 253c-10.667 -0.666992 -16.001 -5.33398 -16.001 -14.001v-196c-45.333 -21.333 -92.5 -35.833 -141.5 -43.5s-94.833 -11.5 -137.5 -11.5c-68.667 0 -126.334 9.5 -173.001 28.5s-84 45.167 -112 78.5s-48 72.833 -60 118.5s-18 94.834 -18 147.501
c0 54 8 104 24 150s40.167 85.667 72.5 119s73 59.5 122 78.5s106.167 28.5 171.5 28.5c15.333 0 32.5 -1 51.5 -3s38.833 -5.33301 59.5 -10s41.334 -11 62.001 -19s39.667 -17.667 57 -29v-221l-154 13l-14 86c-1.33301 8.66699 -3.16602 14 -5.49902 16
s-6.16602 3.66699 -11.499 5c-7.33301 2 -16 3.33301 -26 4s-19.667 1 -29 1c-25.333 0 -47.5 -5.33301 -66.5 -16s-35 -25.5 -48 -44.5s-22.833 -41.5 -29.5 -67.5s-10 -54.667 -10 -86c0 -33.333 2.66699 -63.666 8 -90.999s13.666 -50.833 24.999 -70.5
s26.5 -34.834 45.5 -45.501s41.833 -16 68.5 -16h17c6 0 12.333 0.333008 19 1c7.33301 0.666992 12 2.66699 14 6s3 8.33301 3 15v82h-86l17 115h341v-105z" />
    <glyph glyph-name="H" unicode="H" horiz-adv-x="828" 
d="M437 0v103.002l63 7c7.33301 1.33301 11.833 3.16602 13.5 5.49902s2.5 7.16602 2.5 14.499v164h-204v-163c0 -8 0.833008 -13 2.5 -15s6.16699 -3.66699 13.5 -5l67 -8v-103h-379v103l63 7c7.33301 1.33301 11.833 3.16602 13.5 5.49902s2.5 7.16602 2.5 14.499v462
c0 7.33301 -0.833008 12.333 -2.5 15s-6.16699 4.33398 -13.5 5.00098l-63 7v105h379v-105l-67 -8c-7.33301 -1.33301 -11.833 -3 -13.5 -5s-2.5 -6.66699 -2.5 -14v-146h204v146c0 7.33301 -0.833008 12.333 -2.5 15s-6.16699 4.33398 -13.5 5.00098l-63 7v105h379v-105
l-67 -8c-7.33301 -1.33301 -11.833 -3 -13.5 -5s-2.5 -6.66699 -2.5 -14v-461c0 -8 0.833008 -13 2.5 -15s6.16699 -3.66699 13.5 -5l67 -8v-103h-379z" />
    <glyph glyph-name="I" unicode="I" horiz-adv-x="417" 
d="M11 0v102.998l73 8c7.33301 0.666992 11.833 2.33398 13.5 5.00098s2.5 7.66699 2.5 15v461c0 7.33301 -0.833008 12.333 -2.5 15s-6.16699 4.33398 -13.5 5.00098l-73 7v105h399v-105l-77 -8c-7.33301 -1.33301 -11.833 -3 -13.5 -5s-2.5 -6.66699 -2.5 -14v-461
c0 -8 0.833008 -13 2.5 -15s6.16699 -3.66699 13.5 -5l77 -8v-103h-399z" />
    <glyph glyph-name="J" unicode="J" horiz-adv-x="529" 
d="M224 593c0 6.66699 -0.99707 11.167 -2.99707 13.5s-6.33301 3.83301 -13 4.5l-95 8v105h411v-105l-67 -8c-7.33301 -1.33301 -11.833 -3 -13.5 -5s-2.5 -6.66699 -2.5 -14v-414c0 -64.667 -16.667 -112.5 -50 -143.5s-87.333 -46.5 -162 -46.5
c-20.667 0 -41.834 1.16699 -63.501 3.5s-42 5.5 -61 9.5s-36 8.66699 -51 14s-26.833 10.666 -35.5 15.999v217l154 -11l10 -71c1.33301 -7.33301 3.66602 -11.666 6.99902 -12.999s8.66602 -2 15.999 -2c6 0 10.667 1.33301 14 4s5 9 5 19v419z" />
    <glyph glyph-name="K" unicode="K" horiz-adv-x="770" 
d="M492 0l-132.001 237l-48 -64v-41c0 -8 0.833008 -13 2.5 -15s6.16699 -3.66699 13.5 -5l67 -8v-104h-379v104l63 7c7.33301 0.666992 11.833 2.33398 13.5 5.00098s2.5 7.66699 2.5 15v462c0 7.33301 -0.833008 12.166 -2.5 14.499s-6.16699 4.16602 -13.5 5.49902l-63 7
v104h379v-104l-67 -8c-7.33301 -1.33301 -11.833 -3 -13.5 -5s-2.5 -6.66699 -2.5 -14v-214l194 232l-62 8v105h299v-105l-34 -5c-9.33301 -1.33301 -15.666 -3.16602 -18.999 -5.49902s-7.33301 -6.5 -12 -12.5l-151 -182l153 -278c4 -7.33301 8 -12.5 12 -15.5
s10.667 -5.16699 20 -6.5l64 -10v-104h-284z" />
    <glyph glyph-name="L" unicode="L" horiz-adv-x="629" 
d="M16 0v104l63 7c7.33301 1.33301 11.833 3.16602 13.5 5.49902s2.5 7.16602 2.5 14.499v462c0 7.33301 -0.833008 12.333 -2.5 15s-6.16699 4.33398 -13.5 5.00098l-63 7v104h395v-104l-83 -8c-7.33301 -0.666992 -11.833 -2.16699 -13.5 -4.5s-2.5 -7.16602 -2.5 -14.499
v-449h103c5.33301 0 9 0.5 11 1.5s3.66699 4.16699 5 9.5l16 109h153v-264h-584z" />
    <glyph glyph-name="M" unicode="M" horiz-adv-x="982" 
d="M583 0v103.002l82 7c7.33301 0.666992 11.833 2.33398 13.5 5.00098s2.5 7.66699 2.5 15v260h-7l-90 -263h-222l-97 257h-7v-253c0 -8 0.833008 -13.167 2.5 -15.5s6.16699 -3.83301 13.5 -4.5l85 -8v-103h-343v103l63 7c7.33301 0.666992 11.833 2.33398 13.5 5.00098
s2.5 7.66699 2.5 15v463c0 7.33301 -0.833008 12.166 -2.5 14.499s-6.16699 4.16602 -13.5 5.49902l-63 7v104h324l151 -426h8l146 426h325v-103l-67 -8c-7.33301 -1.33301 -11.833 -3 -13.5 -5s-2.5 -6.66699 -2.5 -14v-464c0 -6.66699 1 -11.334 3 -14.001
s6.33301 -4.33398 13 -5.00098l67 -8v-103h-387z" />
    <glyph glyph-name="N" unicode="N" horiz-adv-x="831" 
d="M518 0l-272 440v-309c0 -8 0.833008 -13 2.5 -15s6.16699 -3.66699 13.5 -5l67 -8v-103h-313v103l63 7c7.33301 1.33301 11.833 3.16602 13.5 5.49902s2.5 7.16602 2.5 14.499v464c0 7.33301 -0.833008 12.333 -2.5 15s-6.16699 4.33398 -13.5 5.00098l-63 7v103h298
l274 -445v313c0 7.33301 -0.833008 12.333 -2.5 15s-6.16699 4.33398 -13.5 5.00098l-63 7v105h312v-105l-67 -8c-7.33301 -1.33301 -11.833 -3 -13.5 -5s-2.5 -6.66699 -2.5 -14v-592h-220z" />
    <glyph glyph-name="O" unicode="O" horiz-adv-x="747" 
d="M367 -12c-62.667 0 -116.331 9.16699 -160.998 27.5s-81.167 43.666 -109.5 75.999s-49 71 -62 116s-19.5 94.167 -19.5 147.5c0 54 7.5 104.333 22.5 151s37.667 87 68 121s68.5 60.833 114.5 80.5s99.667 29.5 161 29.5c62 0 115.167 -9.66699 159.5 -29
s80.666 -45.666 108.999 -78.999s49.166 -72.333 62.499 -117s20 -92 20 -142c0 -58.667 -7.33301 -111.5 -22 -158.5s-37.167 -87 -67.5 -120s-68.333 -58.5 -114 -76.5s-99.5 -27 -161.5 -27zM376.003 156c19.333 0 37.166 3.17188 53.499 9.50488
s30.333 17.166 42 32.499s20.834 36.166 27.501 62.499s10 59.833 10 100.5c0 38.667 -3 71.167 -9 97.5s-14.5 47.666 -25.5 63.999s-24.5 28.166 -40.5 35.499s-34 11 -54 11c-20.667 0 -39.667 -3.66699 -57 -11s-32.333 -19.333 -45 -36s-22.5 -38.334 -29.5 -65.001
s-10.5 -59 -10.5 -97c0 -40 3.33301 -73 10 -99s16 -46.833 28 -62.5s26.5 -26.667 43.5 -33s35.833 -9.5 56.5 -9.5z" />
    <glyph glyph-name="P" unicode="P" horiz-adv-x="641" 
d="M16 0v104.003l63 7c7.33301 1.33301 11.833 3.16602 13.5 5.49902s2.5 7.16602 2.5 14.499v461c0 7.33301 -0.833008 12.333 -2.5 15s-6.16699 4.33398 -13.5 5.00098l-63 7v105h369c46 0 84.5 -5.66699 115.5 -17s55.833 -26.833 74.5 -46.5
s31.834 -42.334 39.501 -68.001s11.5 -52.834 11.5 -81.501c0 -44 -6.33301 -81.833 -19 -113.5s-30.834 -57.667 -54.501 -78s-52.5 -35.333 -86.5 -45s-72 -14.5 -114 -14.5h-41v-128c0 -8 0.833008 -13.167 2.5 -15.5s6.16699 -3.83301 13.5 -4.5l143 -8v-104h-454z
M315 402.003c8 0 17.167 0.833008 27.5 2.5s20 5.66699 29 12s16.667 15.833 23 28.5s9.5 30 9.5 52c0 20 -3 35.5 -9 46.5s-13.167 19 -21.5 24s-17 8 -26 9s-16.833 1.5 -23.5 1.5h-13v-176h4z" />
    <glyph glyph-name="Q" unicode="Q" horiz-adv-x="746" 
d="M639 -179c-28.667 -15.333 -58.6611 -27.8359 -89.9941 -37.5029s-62.666 -14.5 -93.999 -14.5c-34.667 0 -63.5 4.5 -86.5 13.5s-41.333 21.333 -55 37s-23.334 33.5 -29.001 53.5s-8.5 41 -8.5 63c0 8.66699 0.333008 18 1 28s1.66699 20.333 3 31
c-46.667 8 -86.834 22.333 -120.501 43s-61.167 46.667 -82.5 78s-37 67.333 -47 108s-15 84.334 -15 131.001c0 54 7.5 104.333 22.5 151s37.667 87 68 121s68.5 60.833 114.5 80.5s99.667 29.5 161 29.5c62 0 115.167 -9.66699 159.5 -29s80.666 -45.666 108.999 -78.999
s49.166 -72.333 62.499 -117s20 -92 20 -142c0 -99.333 -21.333 -181.666 -64 -246.999s-108.334 -107 -197.001 -125c-1.33301 -5.33301 -2 -9.83301 -2 -13.5v-10.5c0 -20 3.83301 -34.333 11.5 -43s22.167 -13 43.5 -13c9.33301 0 20.166 1.16699 32.499 3.5
s27.166 6.5 44.499 12.5zM376.006 155.997c19.333 0 37.168 3.17188 53.501 9.50488s30.333 17.166 42 32.499s20.834 36.166 27.501 62.499s10 59.833 10 100.5c0 38.667 -2.83301 71.167 -8.5 97.5s-14 47.666 -25 63.999s-24.5 28.166 -40.5 35.499s-34 11 -54 11
c-20.667 0 -39.834 -3.66699 -57.501 -11s-32.834 -19.333 -45.501 -36s-22.5 -38.334 -29.5 -65.001s-10.5 -59 -10.5 -97c0 -40 3.33301 -73 10 -99s16 -46.833 28 -62.5s26.5 -26.667 43.5 -33s35.833 -9.5 56.5 -9.5z" />
    <glyph glyph-name="R" unicode="R" horiz-adv-x="700" 
d="M426 0l-69.001 235.997c-5.33301 18.667 -11.333 31.334 -18 38.001s-16 10 -28 10v-151c0 -8 1.16699 -13.167 3.5 -15.5s7.16602 -4.16602 14.499 -5.49902l39 -7v-105h-352v105l63 7c7.33301 0.666992 11.833 2.33398 13.5 5.00098s2.5 7.66699 2.5 15v461
c0 7.33301 -0.833008 12.166 -2.5 14.499s-6.16699 4.16602 -13.5 5.49902l-63 7v104h376c45.333 0 83.166 -5.33301 113.499 -16s54.833 -25.167 73.5 -43.5s32 -40 40 -65s12 -51.833 12 -80.5c0 -49.333 -10.167 -88.666 -30.5 -117.999s-49.5 -52 -87.5 -68
c12.667 -6 23.834 -15.167 33.501 -27.5s17.834 -29.166 24.501 -50.499l35 -117c3.33301 -8 7.33301 -13.5 12 -16.5s11.334 -5.16699 20.001 -6.5l62 -10v-105h-274zM315.999 419.997c12 0 23.501 0.666992 34.501 2s20.667 4.83301 29 10.5s15.166 14.167 20.499 25.5
s8 27 8 47c0 26 -5.5 44.667 -16.5 56s-30.167 17 -57.5 17h-23v-158h5z" />
    <glyph glyph-name="S" unicode="S" horiz-adv-x="601" 
d="M397 485l-8.00293 78c-1.33301 7.33301 -3 12 -5 14s-5.66699 3.66699 -11 5c-11.333 1.33301 -20.5 2.16602 -27.5 2.49902s-13.833 0.5 -20.5 0.5c-23.333 0 -41 -5.16699 -53 -15.5s-18 -23.166 -18 -38.499c0 -10.667 3 -19.667 9 -27s14.167 -13.833 24.5 -19.5
s22.333 -10.5 36 -14.5l43.5 -13c23.333 -6.66699 47.5 -14.5 72.5 -23.5s47.833 -21.667 68.5 -38s37.667 -37.5 51 -63.5s20 -59 20 -99c0 -43.333 -7.83301 -80.5 -23.5 -111.5s-37 -56.333 -64 -76s-58.5 -34.167 -94.5 -43.5s-74.333 -14 -115 -14
c-22 0 -45.167 1.33301 -69.5 4s-47.833 6 -70.5 10s-43.5 8.66699 -62.5 14s-34.167 10.666 -45.5 15.999v226h157l21 -100c1.33301 -5.33301 3 -9 5 -11s6 -3.66699 12 -5c4.66699 -0.666992 12.334 -1.5 23.001 -2.5s20.667 -1.5 30 -1.5c30 0 52.333 5.5 67 16.5
s22 25.5 22 43.5c0 12 -3.16699 22 -9.5 30s-15 14.667 -26 20s-23.667 10 -38 14s-29.5 8 -45.5 12c-23.333 6 -47.166 13 -71.499 21s-46.5 19.833 -66.5 35.5s-36.333 36.334 -49 62.001s-19 58.834 -19 99.501c0 41.333 7.16699 77.166 21.5 107.499
s34.166 55.833 59.499 76.5s55.333 36 90 46s72.334 15 113.001 15c44.667 0 86.334 -4.5 125.001 -13.5s72 -19.5 100 -31.5v-220z" />
    <glyph glyph-name="T" unicode="T" horiz-adv-x="738" 
d="M143 0v103.998l103 8c7.33301 0.666992 11.833 2.33398 13.5 5.00098s2.5 7.66699 2.5 15v446h-52c-5.33301 0 -9 -0.5 -11 -1.5s-3.66699 -4.16699 -5 -9.5l-16 -87l-153 -5v249h688v-249l-151 5l-16 87c-1.33301 5.33301 -3 8.5 -5 9.5s-5.66699 1.5 -11 1.5h-51v-446
c0 -7.33301 0.833008 -12.166 2.5 -14.499s6.16699 -3.83301 13.5 -4.5l110 -9v-104h-462z" />
    <glyph glyph-name="U" unicode="U" horiz-adv-x="783" 
d="M516 593c0 7.33301 -0.834961 12.3311 -2.50195 14.998s-6.16699 4.33398 -13.5 5.00098l-63 7v104h343v-104l-67 -8c-7.33301 -1.33301 -11.833 -3 -13.5 -5s-2.5 -6.66699 -2.5 -14v-316c0 -52 -7.16699 -96.333 -21.5 -133s-34.833 -66.5 -61.5 -89.5
s-58.5 -39.833 -95.5 -50.5s-78.167 -16 -123.5 -16c-106.667 0 -184.834 23.333 -234.501 70s-74.5 121.667 -74.5 225v310c0 7.33301 -0.833008 12.333 -2.5 15s-6.16699 4.33398 -13.5 5.00098l-63 7v104h379v-104l-67 -8c-7.33301 -1.33301 -11.833 -3 -13.5 -5
s-2.5 -6.66699 -2.5 -14v-275c0 -24 0.666992 -45.5 2 -64.5s5.5 -35.333 12.5 -49s17.667 -24.167 32 -31.5s34.5 -11 60.5 -11c22.667 0 40.834 2.83301 54.501 8.5s24.334 14.667 32.001 27s12.834 28 15.501 47s4 41.833 4 68.5v280z" />
    <glyph glyph-name="V" unicode="V" horiz-adv-x="778" 
d="M259 0l-185 593c-2 6 -5 10 -9 12s-9 3.66699 -15 5l-45 11l10 103h369v-103l-79 -9l111 -403h13l111 403l-79 9l10 103h303v-103l-42 -11c-6 -1.33301 -11.333 -3.33301 -16 -6s-7.66699 -7 -9 -13l-163 -591h-285z" />
    <glyph glyph-name="W" unicode="W" horiz-adv-x="1093" 
d="M614 0l-63 285.001h-10l-55 -285h-279l-136 588c-1.33301 6.66699 -3 11.167 -5 13.5s-5.66699 4.16602 -11 5.49902l-51 14l10 103h352v-103l-78 -9l77 -417h13l93 407h204l92 -405h13l76 415l-78 9l10 103h301v-103l-50 -13c-6 -1.33301 -10.333 -3.33301 -13 -6
s-4.66699 -7 -6 -13l-121 -589h-285z" />
    <glyph glyph-name="X" unicode="X" horiz-adv-x="847" 
d="M424 0l-0.000976562 102.999l82 9l-107 126l-107 -126l80 -9v-103h-339v102l62 12c8 1.33301 13.833 3.5 17.5 6.5s7.83398 7.16699 12.501 12.5l185 211l-211 249c-5.33301 8.66699 -13.333 14.334 -24 17.001l-57 11l10 103h396v-103l-81 -9l111 -133l118 133l-81 9
l10 103h313v-103l-51 -11c-10.667 -2.66699 -20 -9 -28 -19l-191 -216l209 -244c8.66699 -10 18 -16 28 -18l52 -10v-103h-409z" />
    <glyph glyph-name="Y" unicode="Y" horiz-adv-x="734" 
d="M150 0l-0.000976562 103.996l105 8c7.33301 0.666992 11.833 2.33398 13.5 5.00098s2.5 7.66699 2.5 15v128l-196 333c-3.33301 5.33301 -6.16602 9 -8.49902 11s-6.5 3.66699 -12.5 5l-48 12l10 103h362v-103l-71 -9l86 -171h13l88 171l-71 9l10 103h295v-103l-46 -12
c-6 -1.33301 -10.333 -3.66602 -13 -6.99902s-5.66699 -7.66602 -9 -12.999l-172 -328v-129c0 -7.33301 0.833008 -12.166 2.5 -14.499s6.16699 -3.83301 13.5 -4.5l113 -9v-104h-467z" />
    <glyph glyph-name="Z" unicode="Z" horiz-adv-x="700" 
d="M51 0v134l332 445h-142c-5.33301 0 -9 -0.5 -11 -1.5s-3.66699 -4.16699 -5 -9.5l-19 -92l-149 -5v253h582v-138l-324 -442h167c5.33301 0 9 0.5 11 1.5s3.66699 4.16699 5 9.5l19 107h148v-262h-614z" />
    <glyph glyph-name="bracketleft" unicode="[" horiz-adv-x="371" 
d="M50 -143v867h285v-99l-63 -13c-10.667 -2 -16 -9 -16 -21v-601c0 -12 5.33301 -19 16 -21l63 -13v-99h-285z" />
    <glyph glyph-name="backslash" unicode="\" horiz-adv-x="503" 
d="M300 -92l-280 847h192l281 -847h-193z" />
    <glyph glyph-name="bracketright" unicode="]" horiz-adv-x="371" 
d="M36 -143v99l63 13c10.667 2 16 9 16 21v601c0 12 -5.33301 19 -16 21l-63 13v99h285v-867h-285z" />
    <glyph glyph-name="asciicircum" unicode="^" horiz-adv-x="669" 
d="M440 299l-108 195l-105 -195h-197l197 365h213l199 -365h-199z" />
    <glyph glyph-name="underscore" unicode="_" 
d="M0 -181v146h500v-146h-500z" />
    <glyph glyph-name="grave" unicode="`" 
d="M311 557l-181 152l104 95l151 -183z" />
    <glyph glyph-name="a" unicode="a" horiz-adv-x="574" 
d="M345 0l-11.0039 49.9971l-7 2c-14 -14.667 -33 -29 -57 -43s-56.667 -21 -98 -21c-32 0 -57.833 4.83301 -77.5 14.5s-35 22.167 -46 37.5s-18.5 32.5 -22.5 51.5s-6 37.5 -6 55.5c0 50 15.833 86.333 47.5 109s79.834 36.334 144.501 41.001l95 7v56
c0 6 -0.166992 11.833 -0.5 17.5s-1.66602 10.834 -3.99902 15.501s-6 8.5 -11 11.5s-12.167 4.5 -21.5 4.5c-15.333 0 -25.333 -3.83301 -30 -11.5s-7 -22.5 -7 -44.5l-196 14c0 36.667 7.5 66.334 22.5 89.001s34 40.167 57 52.5s48.667 20.5 77 24.5s55.5 6 81.5 6
c40.667 0 75.834 -3 105.501 -9s54.334 -16 74.001 -30s34.167 -33 43.5 -57s14 -54 14 -90v-221c0 -8 0.833008 -13 2.5 -15s6.16699 -3.66699 13.5 -5l45 -8v-104h-228zM306.996 208.997l-23 -2c-16.667 -1.33301 -29 -5.33301 -37 -12s-12 -17.667 -12 -33
c0 -12.667 3.66699 -22.167 11 -28.5s17 -9.5 29 -9.5c9.33301 0 20 2 32 6v79z" />
    <glyph glyph-name="b" unicode="b" horiz-adv-x="622" 
d="M40 0c4.66699 26.667 8.66699 51.999 12 75.999s5 48.333 5 73v458c0 10.667 -4.33301 17.667 -13 21l-50 19l14 108h257v-268l7 -1c18 18.667 37.667 32.167 59 40.5s45.666 12.5 72.999 12.5c26 0 50.833 -4.5 74.5 -13.5s44.667 -24 63 -45s32.833 -48.333 43.5 -82
s16 -75.167 16 -124.5c0 -51.333 -5.33301 -95.166 -16 -131.499s-25.5 -66 -44.5 -89s-41.833 -39.667 -68.5 -50s-56 -15.5 -88 -15.5s-59.667 6.66699 -83 20s-39.666 27.333 -48.999 42l-8 -2l-6 -48h-198zM267 158.999
c4.66699 -3.33301 11.501 -5.99902 20.501 -7.99902s17.833 -3 26.5 -3c19.333 0 34.833 10.333 46.5 31s17.5 50 17.5 88c0 6.66699 -0.5 16.167 -1.5 28.5s-3.5 24.666 -7.5 36.999s-10.333 23 -19 32s-20.667 13.5 -36 13.5c-7.33301 0 -15.333 -1.33301 -24 -4
s-16.334 -6 -23.001 -10v-205z" />
    <glyph glyph-name="c" unicode="c" horiz-adv-x="534" 
d="M502 45c-27.333 -16.667 -58.834 -30.3369 -94.501 -41.0039s-73.5 -16 -113.5 -16c-48 0 -89.5 6.83301 -124.5 20.5s-64 32.5 -87 56.5s-40 52.167 -51 84.5s-16.5 67.5 -16.5 105.5c0 46 7 86.667 21 122s33.667 65 59 89s55.333 42.167 90 54.5s73 18.5 115 18.5
c20.667 0 41 -1.5 61 -4.5s39 -6.83301 57 -11.5s34.333 -10.167 49 -16.5s27 -13.166 37 -20.499v-181l-147 5l-12 67c-1.33301 4.66699 -2.66602 8.5 -3.99902 11.5s-4 5.16699 -8 6.5c-8.66699 2.66699 -19.667 4 -33 4c-8 0 -15.833 -2 -23.5 -6
s-14.5 -10.667 -20.5 -20s-10.833 -21.666 -14.5 -36.999s-5.5 -34.666 -5.5 -57.999c0 -30 2.83301 -54.167 8.5 -72.5s13.167 -32.333 22.5 -42s19.833 -16.167 31.5 -19.5s23.167 -5 34.5 -5c25.333 0 48.5 2.83301 69.5 8.5s38.5 10.834 52.5 15.501z" />
    <glyph glyph-name="d" unicode="d" horiz-adv-x="626" 
d="M393 0l-10.001 49.999l-8 2c-18.667 -20.667 -40.667 -36.5 -66 -47.5s-55 -16.5 -89 -16.5c-30 0 -57.333 4.83301 -82 14.5s-45.667 25.334 -63 47.001s-30.666 50 -39.999 85s-14 77.5 -14 127.5c0 51.333 6.33301 94.666 19 129.999s29.334 63.833 50.001 85.5
s43.667 37.334 69 47.001s50.666 14.5 75.999 14.5c28 0 52 -4 72 -12s39.333 -19 58 -33v113c0 10.667 -4.33301 17.667 -13 21l-51 19l14 108h250v-625c0 -7.33301 0.833008 -12 2.5 -14s6.16699 -3.66699 13.5 -5l45 -7v-104h-233zM354.999 369.999
c-12 6.66699 -24 10 -36 10c-13.333 0 -24.833 -3.16699 -34.5 -9.5s-17.5 -15 -23.5 -26s-10.333 -23.5 -13 -37.5s-4 -28.667 -4 -44s1 -30.5 3 -45.5s5.5 -28.333 10.5 -40s12 -21.167 21 -28.5s20.5 -11 34.5 -11s28 2.66699 42 8v224z" />
    <glyph glyph-name="e" unicode="e" horiz-adv-x="543" 
d="M521 46c-38 -17.333 -75.832 -31.335 -113.499 -42.002s-76.5 -16 -116.5 -16c-50.667 0 -93.667 7.16699 -129 21.5s-63.833 34 -85.5 59s-37.334 54.5 -47.001 88.5s-14.5 71 -14.5 111c0 46 7 85.833 21 119.5s33.167 61.834 57.5 84.501s52.833 39.5 85.5 50.5
s67.334 16.5 104.001 16.5c35.333 0 67.333 -4.83301 96 -14.5s53.167 -24.834 73.5 -45.501s36 -47.167 47 -79.5s16.5 -71.166 16.5 -116.499c0 -5.33301 -0.166992 -13.666 -0.5 -24.999s-1.16602 -23.333 -2.49902 -36h-276c2 -28.667 10 -49 24 -61s33.667 -18 59 -18
c11.333 0 29.666 2 54.999 6s58.666 12.333 99.999 25zM316.001 324.998c0.666992 15.333 0 27.667 -2 37s-5 16.5 -9 21.5s-8.5 8.33301 -13.5 10s-10.167 2.5 -15.5 2.5c-11.333 0 -20.833 -4.5 -28.5 -13.5s-12.167 -28.167 -13.5 -57.5h82z" />
    <glyph glyph-name="f" unicode="f" horiz-adv-x="468" 
d="M14 0l0.000976562 105.001l49 6c7.33301 1.33301 11.833 3.33301 13.5 6s2.5 7.66699 2.5 15v254c0 3.33301 -0.333008 5.83301 -1 7.5s-3 2.5 -7 2.5h-62v132h70v33c0 38 5.66699 70.167 17 96.5s27.5 47.666 48.5 63.999s46.5 28 76.5 35s64 10.5 102 10.5
c26 0 51.5 -2 76.5 -6s47.333 -12 67 -24s35.5 -29 47.5 -51s18 -50.667 18 -86l-195 -23c0.666992 24 -0.5 40.667 -3.5 50s-9.83301 14 -20.5 14s-17.167 -4.66699 -19.5 -14s-3.5 -20 -3.5 -32v-57c0 -3.33301 0.333008 -5.83301 1 -7.5s3 -2.5 7 -2.5h151v-132h-159
v-259c0 -8 1.16699 -13.167 3.5 -15.5s7.16602 -3.83301 14.499 -4.5l127 -13v-104h-421z" />
    <glyph glyph-name="g" unicode="g" horiz-adv-x="594" 
d="M491 420l-4.99902 -5.00098c8 -10 15.667 -23.167 23 -39.5s11 -35.5 11 -57.5c0 -26 -5.83301 -49.167 -17.5 -69.5s-27.5 -37.5 -47.5 -51.5s-43 -24.667 -69 -32s-53.667 -11 -83 -11c-15.333 0 -29 0.5 -41 1.5s-21.667 2.16699 -29 3.5l-32 -34l89 -5l115.5 -7.5
c34.333 -2.33301 63.666 -8.33301 87.999 -18s43.166 -24.667 56.499 -45s20 -49.5 20 -87.5c0 -61.333 -26.5 -107.833 -79.5 -139.5s-125.5 -47.5 -217.5 -47.5c-48 0 -88.333 2.83301 -121 8.5s-59 13.667 -79 24s-34.333 22.833 -43 37.5s-13 31 -13 49
c0 22.667 5.33301 41.5 16 56.5s23 29.5 37 43.5c-17.333 7.33301 -29.333 16.833 -36 28.5s-10 25.167 -10 40.5c0 22.667 9 42.834 27 60.501s43.667 38.5 77 62.5c-28 11.333 -51.5 29.833 -70.5 55.5s-28.5 58.5 -28.5 98.5c0 26.667 5 52 15 76s25.333 45.167 46 63.5
s46.834 32.833 78.501 43.5s68.834 16 111.501 16c21.333 0 40.666 -1 57.999 -3s31.333 -4.66699 42 -8h198v-107zM346.001 338.999c0 22 -5.66699 38.8311 -17 50.498s-25.666 17.5 -42.999 17.5c-16.667 0 -31.167 -5.16699 -43.5 -15.5s-18.5 -28.166 -18.5 -53.499
c0 -17.333 5.16699 -31.5 15.5 -42.5s25.166 -16.5 44.499 -16.5c17.333 0 32 5.33301 44 16s18 25.334 18 44.001zM177.001 -38.0029c-10 -12 -15.002 -23.334 -15.002 -34.001c0 -9.33301 4.83301 -16.666 14.5 -21.999s21.334 -9.33301 35.001 -12
s27.334 -4.16699 41.001 -4.5s24.5 -0.5 32.5 -0.5c23.333 0 43.333 2.66699 60 8s25 14.333 25 27c0 12 -6.16699 19.833 -18.5 23.5s-26.5 6.16699 -42.5 7.5z" />
    <glyph glyph-name="h" unicode="h" horiz-adv-x="619" 
d="M349 0l-0.00195312 339.001c0 14 -1.33301 24.667 -4 32s-9.66699 11 -21 11c-7.33301 0 -15.166 -1.33301 -23.499 -4s-16.166 -5.66699 -23.499 -9v-239c0 -8 0.833008 -13.167 2.5 -15.5s5.83398 -4.16602 12.501 -5.49902l34 -5v-104h-316v104l40 7
c7.33301 1.33301 11.833 3.16602 13.5 5.49902s2.5 7.16602 2.5 14.499v476c0 11.333 -4.33301 18.333 -13 21l-51 19l14 108h258v-270l6 -2c35.333 37.333 80.666 56 135.999 56c50 0 86.5 -13.5 109.5 -40.5s34.5 -69.5 34.5 -127.5v-240c0 -8 0.833008 -13 2.5 -15
s6.16699 -3.66699 13.5 -5l43 -7v-104h-270z" />
    <glyph glyph-name="i" unicode="i" horiz-adv-x="336" 
d="M276 693c0 -37.333 -10 -66.166 -30 -86.499s-49 -30.5 -87 -30.5c-37.333 0 -66.166 10.167 -86.499 30.5s-30.5 49.166 -30.5 86.499c0 36.667 10.167 64.834 30.5 84.501s49.166 29.5 86.499 29.5c38 0 67 -9.83301 87 -29.5s30 -47.834 30 -84.501zM14 0v104.002
l36 7c7.33301 1.33301 11.833 3.16602 13.5 5.49902s2.5 7.16602 2.5 14.499v249c0 11.333 -4.33301 18.333 -13 21l-51 19l14 108h261v-397c0 -8 0.833008 -13 2.5 -15s6.16699 -3.66699 13.5 -5l37 -7v-104h-316z" />
    <glyph glyph-name="j" unicode="j" horiz-adv-x="332" 
d="M64 380c0 10 -4.66602 16.9971 -13.999 20.9971l-48 19l14 108h259v-568c0 -33.333 -4.83301 -61.666 -14.5 -84.999s-23.334 -42.333 -41.001 -57s-39 -25.167 -64 -31.5s-53.167 -9.5 -84.5 -9.5c-25.333 0 -48.833 2.33301 -70.5 7s-41 10.334 -58 17.001
s-31.167 13.334 -42.5 20.001s-19 11.667 -23 15l50 108c7.33301 -3.33301 18.833 -7.83301 34.5 -13.5s32.5 -8.5 50.5 -8.5c6.66699 0 13.167 0.333008 19.5 1s11.833 3.33398 16.5 8.00098s8.5 11.667 11.5 21s4.5 22.666 4.5 39.999v388zM274.001 692.997
c0 -37.333 -10.167 -66.166 -30.5 -86.499s-49.5 -30.5 -87.5 -30.5c-36.667 0 -65.167 10.167 -85.5 30.5s-30.5 49.166 -30.5 86.499c0 36.667 10.167 64.834 30.5 84.501s48.833 29.5 85.5 29.5c38 0 67.167 -9.83301 87.5 -29.5s30.5 -47.834 30.5 -84.501z" />
    <glyph glyph-name="k" unicode="k" horiz-adv-x="649" 
d="M405 0l-103.998 240.002l-24 -24v-85c0 -8 0.833008 -13 2.5 -15s6.16699 -3.66699 13.5 -5l38 -7v-104h-318v104l37 7c7.33301 1.33301 11.833 3.16602 13.5 5.49902s2.5 7.16602 2.5 14.499v476c0 10.667 -4.33301 17.667 -13 21l-51 19l14 108h261v-372l154 145h165
v-104l-47 -7c-6.66699 -1.33301 -11.334 -2.83301 -14.001 -4.5s-6.33398 -5.16699 -11.001 -10.5l-51 -49l104 -227c3.33301 -7.33301 7.33301 -12 12 -14s10.667 -3.66699 18 -5l38 -5v-102h-240z" />
    <glyph glyph-name="l" unicode="l" horiz-adv-x="336" 
d="M13 0v104.002l37 7c7.33301 1.33301 11.833 3.16602 13.5 5.49902s2.5 7.16602 2.5 14.499v476c0 10.667 -4.33301 17.667 -13 21l-51 19l14 108h261v-624c0 -8 0.833008 -13 2.5 -15s6.16699 -3.66699 13.5 -5l38 -7v-104h-318z" />
    <glyph glyph-name="m" unicode="m" horiz-adv-x="866" 
d="M596 0v344.005c0 15.333 -1.66699 25.333 -5 30s-8.66602 7 -15.999 7c-8.66699 0 -19.667 -3.33301 -33 -10v-240c0 -8.66699 0.833008 -14.334 2.5 -17.001s6.16699 -4.66699 13.5 -6l18 -4v-104h-245v342c0 15.333 -1.83301 25.5 -5.5 30.5s-9.16699 7.5 -16.5 7.5
c-9.33301 0 -20 -3 -32 -9v-240c0 -8.66699 0.666992 -14.5 2 -17.5s5.66602 -5.16699 12.999 -6.5l18 -3v-104h-300v104l40 7c7.33301 1.33301 11.833 3.16602 13.5 5.49902s2.5 7.16602 2.5 14.499v249c0 11.333 -4.33301 18.333 -13 21l-51 19l14 108h220l8 -44h7
c18 16 38.5 29.167 61.5 39.5s48.5 15.5 76.5 15.5c30 0 55.5 -4.5 76.5 -13.5s37.5 -23.5 49.5 -43.5c6 5.33301 13.667 11.166 23 17.499s20.333 12.5 33 18.5s26.667 11 42 15s31.333 6 48 6c50 0 86.833 -13.333 110.5 -40s35.5 -69.334 35.5 -128.001v-240
c0 -8 0.833008 -13 2.5 -15s6.16699 -3.66699 13.5 -5l43 -7v-104h-270z" />
    <glyph glyph-name="n" unicode="n" horiz-adv-x="619" 
d="M349 0v336.004c0 17.333 -2.16699 29.166 -6.5 35.499s-11.833 9.5 -22.5 9.5c-11.333 0 -25.666 -4 -42.999 -12v-238c0 -8 1 -13.333 3 -16s6.66699 -4.66699 14 -6l25 -5v-104h-309v104l40 7c7.33301 1.33301 11.833 3.16602 13.5 5.49902s2.5 7.16602 2.5 14.499v249
c0 11.333 -4.33301 18.333 -13 21l-50 19l14 108h219l8 -44h7c23.333 17.333 48.166 30.833 74.499 40.5s55.833 14.5 88.5 14.5c50 0 86.833 -13.333 110.5 -40s35.5 -69.334 35.5 -128.001v-240c0 -8 0.833008 -13 2.5 -15s6.16699 -3.66699 13.5 -5l43 -7v-104h-270z" />
    <glyph glyph-name="o" unicode="o" horiz-adv-x="594" 
d="M293 -12c-48.667 0 -90.6699 6.33398 -126.003 19.001s-64.166 31 -86.499 55s-38.833 53 -49.5 87s-16 72.333 -16 115c0 41.333 5.83301 79 17.5 113s29.334 63 53.001 87s53.667 42.5 90 55.5s78.833 19.5 127.5 19.5c50 0 92.5 -6.66699 127.5 -20
s63.5 -31.833 85.5 -55.5s38 -51.834 48 -84.501s15 -68.667 15 -108c0 -42.667 -5.66699 -81.5 -17 -116.5s-28.666 -64.833 -51.999 -89.5s-53 -43.667 -89 -57s-78.667 -20 -128 -20zM297.997 128.001c8 0 15.8311 1.99902 23.498 5.99902s14.167 11.167 19.5 21.5
s9.66602 24.5 12.999 42.5s5 41 5 69c0 26 -1.5 47.5 -4.5 64.5s-7.16699 30.167 -12.5 39.5s-11.666 15.833 -18.999 19.5s-15 5.5 -23 5.5s-15.833 -1.66699 -23.5 -5s-14.5 -9.66602 -20.5 -18.999s-10.833 -22.5 -14.5 -39.5s-5.5 -39.167 -5.5 -66.5s1.5 -50 4.5 -68
s7.33301 -32.167 13 -42.5s12.334 -17.5 20.001 -21.5s15.834 -6 24.501 -6z" />
    <glyph glyph-name="p" unicode="p" horiz-adv-x="625" 
d="M2 -212v105.001l38 6c7.33301 1.33301 12.5 3.33301 15.5 6s4.5 8 4.5 16v459c0 10.667 -4.33301 17.667 -13 21l-50 19l14 108h218l9 -44l7 -2c28 21.333 56.167 36.166 84.5 44.499s54.166 12.5 77.499 12.5c28 0 53.833 -4.5 77.5 -13.5s44.334 -24 62.001 -45
s31.5 -48.333 41.5 -82s15 -75.167 15 -124.5c0 -52.667 -5.33301 -97.167 -16 -133.5s-25.167 -65.833 -43.5 -88.5s-39.833 -39.167 -64.5 -49.5s-50.667 -15.5 -78 -15.5c-23.333 0 -47.333 4.16699 -72 12.5s-46 19.5 -64 33.5v-110c0 -8 1 -13.167 3 -15.5
s6.66699 -3.83301 14 -4.5l114 -11v-104h-394zM269 157.001c9.33301 -3.33301 18.166 -6.00098 26.499 -8.00098s17.166 -3 26.499 -3c21.333 0 36.333 11 45 33s13 51.333 13 88c0 34.667 -5.33301 61.834 -16 81.501s-26.667 29.5 -48 29.5
c-7.33301 0 -15.166 -1 -23.499 -3s-16.166 -5 -23.499 -9v-209z" />
    <glyph glyph-name="q" unicode="q" horiz-adv-x="608" 
d="M261 -212l-0.000976562 105l98 8c15.333 0.666992 23 6.33398 23 17.001v128l-7 3c-18 -18 -38.5 -32.667 -61.5 -44s-51.5 -17 -85.5 -17c-30 0 -57.667 5 -83 15s-47.166 26 -65.499 48s-32.666 50.333 -42.999 85s-15.5 76.667 -15.5 126
c0 51.333 6.66699 94.666 20 129.999s30.666 63.833 51.999 85.5s45 37.334 71 47.001s51.667 14.5 77 14.5c28 0 53.167 -5.33301 75.5 -16s42.5 -24.667 60.5 -42l17 47h178c-2 -31.333 -3.83301 -62.833 -5.5 -94.5s-2.5 -61.834 -2.5 -90.501v-425
c0 -7.33301 0.833008 -12 2.5 -14s6.16699 -3.66699 13.5 -5l45 -7v-104h-364zM353.999 370c-15.333 6.66699 -29.666 10 -42.999 10c-12 0 -22.167 -3.16699 -30.5 -9.5s-15.166 -15 -20.499 -26s-9.33301 -23.667 -12 -38s-4 -29.5 -4 -45.5
c0 -16.667 0.833008 -32.334 2.5 -47.001s4.66699 -27.5 9 -38.5s10.666 -19.833 18.999 -26.5s19.166 -10 32.499 -10c8.66699 0 16.667 0.833008 24 2.5s15 3.83398 23 6.50098v222z" />
    <glyph glyph-name="r" unicode="r" horiz-adv-x="513" 
d="M10 0l-0.00292969 105.001l40 7c7.33301 1.33301 11.833 3.16602 13.5 5.49902s2.5 7.16602 2.5 14.499v248c0 10.667 -4.33301 17.667 -13 21l-51 19l14 108h219l15 -92h10c16.667 33.333 35.667 58.833 57 76.5s49 26.5 83 26.5c7.33301 0 15.333 -0.333008 24 -1
s17.334 -1.5 26.001 -2.5s16.834 -2.16699 24.501 -3.5s13.834 -2.66602 18.501 -3.99902v-211l-169 5l-8 35c-2.66699 9.33301 -7 14 -13 14c-3.33301 0 -7.5 -0.833008 -12.5 -2.5s-9.5 -3.5 -13.5 -5.5v-228c0 -8 1 -13.333 3 -16s6.66699 -4 14 -4l104 -11v-104h-388z
" />
    <glyph glyph-name="s" unicode="s" horiz-adv-x="515" 
d="M331 375l-4.99805 25c-1.33301 4.66699 -2.66602 7.66699 -3.99902 9s-3.66602 2.66602 -6.99902 3.99902c-12 4 -28 6 -48 6c-13.333 0 -25.166 -1.66699 -35.499 -5s-15.5 -10.666 -15.5 -21.999c0 -14 8.83301 -23.667 26.5 -29s39.167 -10.666 64.5 -15.999
c20.667 -4 42.167 -8.83301 64.5 -14.5s42.833 -14.5 61.5 -26.5s34 -28.167 46 -48.5s18 -47.166 18 -80.499c0 -32 -6 -60 -18 -84s-29 -43.667 -51 -59s-48.333 -26.833 -79 -34.5s-64.667 -11.5 -102 -11.5c-50 0 -93.667 4 -131 12s-65 16.667 -83 26v128l147 -9l6 -30
c1.33301 -6 3 -10 5 -12s5.33301 -3.66699 10 -5c11.333 -3.33301 29.666 -5 54.999 -5c37.333 0 56 11.667 56 35c0 7.33301 -2.5 13.333 -7.5 18s-12 8.5 -21 11.5s-19.5 5.5 -31.5 7.5s-24.667 4 -38 6c-20.667 3.33301 -41.834 8 -63.501 14s-41.5 15.167 -59.5 27.5
s-32.833 29.333 -44.5 51s-17.5 49.834 -17.5 84.501c0 33.333 6.66699 62.166 20 86.499s31.166 44.166 53.499 59.499s48.166 26.666 77.499 33.999s60 11 92 11c21.333 0 42.666 -1 63.999 -3s41.333 -4.5 60 -7.5s35.5 -6.5 50.5 -10.5s26.833 -7.66699 35.5 -11v-140z
" />
    <glyph glyph-name="t" unicode="t" horiz-adv-x="463" 
d="M445 36c-23.333 -12.667 -52.333 -23.834 -87 -33.501s-68 -14.5 -100 -14.5c-35.333 0 -65 3.66699 -89 11s-43.5 18.666 -58.5 33.999s-25.667 34.833 -32 58.5s-9.5 51.834 -9.5 84.501v210c0 3.33301 -0.333008 5.83301 -1 7.5s-3 2.5 -7 2.5h-68v122
c50 5.33301 87.333 22.333 112 51s39.667 72.334 45 131.001h130v-162c0 -6.66699 3.33301 -10 10 -10h134v-132h-144v-182c0 -28 3.33301 -47.667 10 -59s23 -17 49 -17c12 0 24.833 1.33301 38.5 4s25.167 5.66699 34.5 9z" />
    <glyph glyph-name="u" unicode="u" horiz-adv-x="619" 
d="M386 0l-7 42.001l-7 2c-20 -16 -42.167 -29.333 -66.5 -40s-57.166 -16 -98.499 -16c-50 0 -86.833 13.667 -110.5 41s-35.5 70.333 -35.5 129v235c0 8 -0.833008 12.833 -2.5 14.5s-6.16699 3.16699 -13.5 4.5l-45 5l13 111h259v-338c0 -17.333 1.83301 -29.5 5.5 -36.5
s11.5 -10.5 23.5 -10.5c9.33301 0 17.5 1.16699 24.5 3.5s13.167 5.16602 18.5 8.49902v238c0 8 -0.833008 12.833 -2.5 14.5s-6.16699 3.16699 -13.5 4.5l-26 5l13 111h240v-398c0 -5.33301 0.666992 -9.33301 2 -12s5.66602 -4.66699 12.999 -6l46 -7v-105h-230z" />
    <glyph glyph-name="v" unicode="v" horiz-adv-x="667" 
d="M209 0l-149.001 394.001c-3.33301 6 -6.16602 10 -8.49902 12s-6.5 3.66699 -12.5 5l-41 9l20 108h330v-108l-59 -8l69 -205h12l74 205l-62 8l15 108h272v-108l-38 -6c-6 -1.33301 -11 -2.83301 -15 -4.5s-7.33301 -5.83398 -10 -12.501l-151 -397h-246z" />
    <glyph glyph-name="w" unicode="w" horiz-adv-x="917" 
d="M537 0l-56 273.001h-10l-49 -273h-250l-111 392c-1.33301 6 -3.33301 10 -6 12s-7 3.66699 -13 5l-44 11l20 108h305v-110l-47 -6l47 -202h12l64 306h201l68 -307h10l44 203l-49 6l15 110h231v-108l-36 -7c-5.33301 -1.33301 -9.83301 -3.33301 -13.5 -6
s-6.5 -7.33398 -8.5 -14.001l-104 -393h-220z" />
    <glyph glyph-name="x" unicode="x" horiz-adv-x="631" 
d="M295 0l0.000976562 103l29 9l-41 55l-58 -54l40 -9v-104h-249v103l34 7c6 1.33301 11.333 3.16602 16 5.49902s9.66699 6.16602 15 11.499l121 116l-135 150c-4.66699 5.33301 -8.33398 9 -11.001 11s-7 4 -13 6l-37 11l10 107h314v-107l-32 -8l46 -53l58 53l-42 8
l10 107h238v-107l-44 -10c-6 -2 -10.333 -4.33301 -13 -7l-12 -12l-113 -108l133 -154c4.66699 -5.33301 9.16699 -9.66602 13.5 -12.999s9.5 -5.66602 15.5 -6.99902l33 -6v-104h-326z" />
    <glyph glyph-name="y" unicode="y" horiz-adv-x="657" 
d="M123 -212l-0.000976562 107.001l78 10c9.33301 1.33301 16.333 3.5 21 6.5s8.66699 8.16699 12 15.5l27 57l-201 410c-2 6 -4.5 10 -7.5 12s-7.5 3.66699 -13.5 5l-41 9l20 108h319v-108l-59 -8l87 -189h12l76 189l-62 8l15 108h253v-108l-32 -6
c-5.33301 -1.33301 -10.166 -2.83301 -14.499 -4.5s-7.83301 -5.83398 -10.5 -12.501l-195 -490l111 -13v-106h-395z" />
    <glyph glyph-name="z" unicode="z" horiz-adv-x="547" 
d="M32 0v114l236 293h-79c-7.33301 0 -12 -4.33301 -14 -13l-12 -48l-144 -9v191h478v-116l-229 -292h79c8.66699 0 14 4.33301 16 13l12 64l149 6v-203h-492z" />
    <glyph glyph-name="braceleft" unicode="{" horiz-adv-x="384" 
d="M334 -151c-50 -0.666992 -91.833 1.33398 -125.5 6.00098s-60.667 12.667 -81 24s-35 26.833 -44 46.5s-13.5 44.5 -13.5 74.5c0 14.667 0.833008 28.5 2.5 41.5l5 40c1.66699 13.667 3.33398 28.5 5.00098 44.5s2.5 34 2.5 54s-3.66699 34.167 -11 42.5
s-22 13.833 -44 16.5v99c22 2.66699 36.667 8.16699 44 16.5s11 22.5 11 42.5s-0.833008 38 -2.5 54s-3.33398 30.833 -5.00098 44.5l-5 40c-1.66699 13 -2.5 26.5 -2.5 40.5c0 30 4.5 54.833 13.5 74.5s23.667 35.167 44 46.5s47.333 19.333 81 24s75.5 6.66699 125.5 6
l10 -102c-20 -5.33301 -34.333 -12.5 -43 -21.5s-13 -25.833 -13 -50.5c0 -25.333 3 -50.333 9 -75s9 -51 9 -79c0 -28.667 -4.5 -52 -13.5 -70s-23.833 -31.667 -44.5 -41c20.667 -9.33301 35.5 -22.833 44.5 -40.5s13.5 -40.834 13.5 -69.501c0 -28 -3 -54.333 -9 -79
s-9 -50 -9 -76c0 -24.667 4.33301 -41.5 13 -50.5s23 -16.167 43 -21.5z" />
    <glyph glyph-name="bar" unicode="|" horiz-adv-x="312" 
d="M60 -143v898h192v-898h-192z" />
    <glyph glyph-name="braceright" unicode="}" horiz-adv-x="384" 
d="M40 -49c20 5.33301 34.333 12.499 43 21.499s13 25.833 13 50.5c0 26 -3 51.333 -9 76s-9 51 -9 79c0 28.667 4.5 51.834 13.5 69.501s23.833 31.167 44.5 40.5c-20.667 9.33301 -35.5 23 -44.5 41s-13.5 41.333 -13.5 70c0 28 3 54.333 9 79s9 49.667 9 75
c0 24.667 -4.33301 41.5 -13 50.5s-23 16.167 -43 21.5l10 102c50 0.666992 91.833 -1.33301 125.5 -6s60.667 -12.667 81 -24s35 -26.833 44 -46.5s13.5 -44.5 13.5 -74.5c0 -14 -0.833008 -27.5 -2.5 -40.5l-5 -40c-1.66699 -13.667 -3.33398 -28.5 -5.00098 -44.5
s-2.5 -34 -2.5 -54s3.66699 -34.167 11 -42.5s22 -13.833 44 -16.5v-99c-22 -2.66699 -36.667 -8.16699 -44 -16.5s-11 -22.5 -11 -42.5s0.833008 -38 2.5 -54s3.33398 -30.833 5.00098 -44.5l5 -40c1.66699 -13 2.5 -26.833 2.5 -41.5c0 -30 -4.5 -54.833 -13.5 -74.5
s-23.667 -35.167 -44 -46.5s-47.333 -19.333 -81 -24s-75.5 -6.66699 -125.5 -6z" />
    <glyph glyph-name="asciitilde" unicode="~" horiz-adv-x="566" 
d="M539 455c-9.33301 -62 -24.4971 -105.833 -45.4971 -131.5s-48.5 -38.5 -82.5 -38.5c-18 0 -36.667 2.33301 -56 7s-38.333 10 -57 16s-36.834 11.333 -54.501 16s-33.834 7 -48.501 7c-16 0 -29.5 -2.33301 -40.5 -7s-21.167 -16.667 -30.5 -36l-97 49
c4 21.333 10.333 41.666 19 60.999s19.167 36.333 31.5 51s26.333 26.334 42 35.001s32.167 13 49.5 13c19.333 0 38.166 -2.33301 56.499 -7s36.333 -10 54 -16s35 -11.333 52 -16s33.5 -7 49.5 -7c15.333 0 26.833 2.66699 34.5 8s14.5 17.333 20.5 36z" />
    <glyph glyph-name="uni00A0" unicode="&#xa0;" horiz-adv-x="182" 
 />
    <glyph glyph-name="sterling" unicode="&#xa3;" horiz-adv-x="574" 
d="M23 0l-19.0029 121.003c11.333 3.33301 21.333 7.16602 30 11.499s15.834 11.166 21.501 20.499s9.83398 21.833 12.501 37.5s4 36.5 4 62.5v9h-60v148h60v20c0 26.667 3 53.834 9 81.501s18.167 52.667 36.5 75s44.333 40.666 78 54.999s78.167 21.5 133.5 21.5
c27.333 0 54.666 -2.33301 81.999 -7s51.833 -13.5 73.5 -26.5s39.334 -31.5 53.001 -55.5s20.5 -55.667 20.5 -95l-190 -24c0 25.333 -2 43.166 -6 53.499s-15.333 15.5 -34 15.5c-10.667 0 -19.167 -2.66699 -25.5 -8s-11.166 -12 -14.499 -20s-5.33301 -16.667 -6 -26
s-1 -18 -1 -26v-34h110v-148h-110c0 -25.333 -5.16699 -50.333 -15.5 -75s-23.5 -45 -39.5 -61h151c7.33301 0 12 4.33301 14 13l15 73h146v-212h-529z" />
    <glyph glyph-name="currency" unicode="&#xa4;" horiz-adv-x="570" 
d="M447 -13l-83.002 83c-14.667 -6.66699 -31 -12 -49 -16s-37 -6 -57 -6c-21.333 0 -41 2 -59 6s-34.333 9.66699 -49 17l-83 -84l-104 105l83 88c-6 15.333 -10.333 31.5 -13 48.5s-4 33.5 -4 49.5c0 15.333 1.33301 31.166 4 47.499s7.33398 31.5 14.001 45.5l-81 86
l107 106l80 -80c32 16.667 69 25 111 25c20 0 39.5 -1.83301 58.5 -5.5s36.167 -9.16699 51.5 -16.5l77 76l103 -104l-77 -82c6 -14 10.167 -29 12.5 -45s3.5 -32.333 3.5 -49s-1.66699 -34.167 -5 -52.5s-8.66602 -35.166 -15.999 -50.499l82 -86zM261.998 191
c23.333 0 40.834 8.5 52.501 25.5s17.5 37.5 17.5 61.5c0 26.667 -6 47.5 -18 62.5s-30 22.5 -54 22.5c-23.333 0 -40.833 -7.83301 -52.5 -23.5s-17.5 -36.167 -17.5 -61.5c0 -24 5.66699 -44.5 17 -61.5s29.666 -25.5 54.999 -25.5z" />
    <glyph glyph-name="brokenbar" unicode="&#xa6;" horiz-adv-x="312" 
d="M60 -143v388h192v-388h-192zM60 420v335h192v-335h-192z" />
    <glyph glyph-name="section" unicode="&#xa7;" horiz-adv-x="597" 
d="M60 36l147 -9.00195l9 -45c0.666992 -3.33301 1.66699 -6 3 -8s4.33301 -4 9 -6c5.33301 -2.66699 12 -4.66699 20 -6s20.333 -2 37 -2c38.667 0 58 11.333 58 34c0 8 -2.83301 14.5 -8.5 19.5s-13.167 9.5 -22.5 13.5s-20.333 7.5 -33 10.5s-26 5.83301 -40 8.5
c-20 4.66699 -40.667 10 -62 16s-40.666 14.833 -57.999 26.5s-31.5 26.667 -42.5 45s-16.5 41.833 -16.5 70.5c0 33.333 7.16699 61 21.5 83s31.166 41.333 50.499 58c-15.333 12.667 -27.666 28.334 -36.999 47.001s-14 41 -14 67c0 30 6.16699 56.167 18.5 78.5
s29.166 41 50.499 56s46.166 26.167 74.499 33.5s58.5 11 90.5 11c21.333 0 42.666 -1 63.999 -3s41.333 -4.5 60 -7.5s35.334 -6.5 50.001 -10.5s26.334 -7.66699 35.001 -11v-150l-147 8l-6 36c-0.666992 7.33301 -5 12.333 -13 15c-7.33301 2.66699 -14.333 4.5 -21 5.5
s-16 1.5 -28 1.5c-13.333 0 -25.333 -2.83301 -36 -8.5s-16 -13.834 -16 -24.501c0 -13.333 9.5 -23 28.5 -29s41.833 -12.333 68.5 -19c20 -4.66699 40.833 -10.667 62.5 -18s41.5 -17.166 59.5 -29.499s32.667 -28 44 -47s17 -43.167 17 -72.5
c0 -28 -5.33301 -53.667 -16 -77s-25.667 -42 -45 -56c12 -11.333 21.667 -24.666 29 -39.999s11 -33.666 11 -54.999c0 -64.667 -21.167 -112.167 -63.5 -142.5s-101.166 -45.5 -176.499 -45.5c-25.333 0 -50 1.33301 -74 4s-45.667 6 -65 10s-35.833 8.16699 -49.5 12.5
s-22.834 8.16602 -27.501 11.499v140zM242 294.998c-5.33301 -5.33301 -9.83301 -11.0029 -13.5 -17.0029s-5.5 -13.333 -5.5 -22c0 -11.333 7 -20.166 21 -26.499s31.667 -12.166 53 -17.499l50 -14c16.667 10 25 22.333 25 37c0 10 -6.5 17.833 -19.5 23.5
s-30.167 11.834 -51.5 18.501z" />
    <glyph glyph-name="dieresis" unicode="&#xa8;" 
d="M226 672c0 -25.333 -7.83301 -45.833 -23.5 -61.5s-36.5 -23.5 -62.5 -23.5c-25.333 0 -46.166 7.83301 -62.499 23.5s-24.5 36.167 -24.5 61.5c0 26 8.16699 46.5 24.5 61.5s37.166 22.5 62.499 22.5c26 0 46.833 -7.5 62.5 -22.5s23.5 -35.5 23.5 -61.5zM441 672
c0 -25.333 -7.83301 -45.833 -23.5 -61.5s-36.5 -23.5 -62.5 -23.5s-47 7.83301 -63 23.5s-24 36.167 -24 61.5c0 26 8 46.5 24 61.5s37 22.5 63 22.5s46.833 -7.5 62.5 -22.5s23.5 -35.5 23.5 -61.5z" />
    <glyph glyph-name="copyright" unicode="&#xa9;" horiz-adv-x="778" 
d="M728 326c0 -50.667 -8.33008 -96.835 -24.9971 -138.502s-39.834 -77.167 -69.501 -106.5s-65.334 -52.166 -107.001 -68.499s-87.5 -24.5 -137.5 -24.5c-56 0 -105 8.33301 -147 25s-77.333 39.5 -106 68.5s-50.167 63.167 -64.5 102.5s-21.5 82 -21.5 128
c0 53.333 8.83301 100.833 26.5 142.5s42 76.834 73 105.501s67.167 50.667 108.5 66s85.666 23 132.999 23c52 0 98.833 -7.66699 140.5 -23s77 -37 106 -65s51.333 -61.833 67 -101.5s23.5 -84.167 23.5 -133.5zM391.003 80.999c74 0 131.833 21.168 173.5 63.501
s62.5 100.833 62.5 175.5c0 38 -5.83301 71.667 -17.5 101s-28 54 -49 74s-46 35.167 -75 45.5s-60.5 15.5 -94.5 15.5s-65.5 -5.33301 -94.5 -16s-54.167 -26.334 -75.5 -47.001s-38 -46.167 -50 -76.5s-18 -64.833 -18 -103.5c0 -72.667 20.833 -129.5 62.5 -170.5
s100.167 -61.5 175.5 -61.5zM515.003 156c-13.333 -8 -31.1689 -14 -53.502 -18s-43.5 -6 -63.5 -6c-34 0 -62.833 4.5 -86.5 13.5s-42.667 21.5 -57 37.5s-24.833 35.167 -31.5 57.5s-10 46.833 -10 73.5c0 60.667 15.667 107.5 47 140.5s78 49.5 140 49.5
c22.667 0 44.667 -2.16699 66 -6.5s38 -8.83301 50 -13.5v-117h-66l-4 52c-13.333 5.33301 -28 8 -44 8c-26.667 0 -46.5 -8.16699 -59.5 -24.5s-19.5 -44.833 -19.5 -85.5c0 -14 1.16699 -27.5 3.5 -40.5s6.5 -24.5 12.5 -34.5s14.333 -18 25 -24s24.334 -9 41.001 -9
s30.334 2.66699 41.001 8l8 51h61v-112z" />
    <glyph glyph-name="guillemotleft" unicode="&#xab;" horiz-adv-x="495" 
d="M97 103l-84 152l89 153h162l-85 -141c-2.66699 -4 -4 -7.16699 -4 -9.5s1 -5.5 3 -9.5l79 -145h-160zM308 103l-84 152l89 153h162l-85 -141c-2.66699 -4 -4 -7.16699 -4 -9.5s1 -5.5 3 -9.5l79 -145h-160z" />
    <glyph glyph-name="logicalnot" unicode="&#xac;" horiz-adv-x="570" 
d="M332 152v95h-256v153h397v-248h-141z" />
    <glyph glyph-name="uni00AD" unicode="&#xad;" horiz-adv-x="311" 
d="M25 207v165h271v-165h-271z" />
    <glyph glyph-name="registered" unicode="&#xae;" horiz-adv-x="463" 
d="M428 480c0 -28.667 -4.83301 -55.001 -14.5 -79.001s-23.334 -44.5 -41.001 -61.5s-38.5 -30.333 -62.5 -40s-50.333 -14.5 -79 -14.5c-32 0 -60.167 4.83301 -84.5 14.5s-44.666 23 -60.999 40s-28.833 36.833 -37.5 59.5s-13 47.334 -13 74.001
c0 30 5.16699 57.167 15.5 81.5s24.333 45 42 62s38.5 30 62.5 39s49.667 13.5 77 13.5c30 0 57.167 -4.5 81.5 -13.5s45 -21.833 62 -38.5s30 -36.667 39 -60s13.5 -49 13.5 -77zM370 476.999c0 45.333 -13.001 79.666 -39.001 102.999s-59 35 -99 35
c-19.333 0 -37.333 -3.16699 -54 -9.5s-31.334 -15.5 -44.001 -27.5s-22.5 -26.833 -29.5 -44.5s-10.5 -37.5 -10.5 -59.5c0 -42 12.333 -75 37 -99s58.334 -36 101.001 -36s76.334 12.333 101.001 37s37 58.334 37 101.001zM259.999 383.999l-16.999 59
c-1.33301 5.33301 -3.16602 8.83301 -5.49902 10.5s-5.83301 2.5 -10.5 2.5h-8v-33c0 -4 2 -6.33301 6 -7l13 -2v-30h-90v30l13 2c3.33301 0.666992 5 3 5 7v111c0 4 -1.66699 6.33301 -5 7l-13 2v32h90c28 0 47.167 -5.5 57.5 -16.5s15.5 -23.5 15.5 -37.5
c0 -13.333 -3.33301 -24.166 -10 -32.499s-14.334 -13.833 -23.001 -16.5c3.33301 -1.33301 6.66602 -3.33301 9.99902 -6s6.33301 -7.33398 9 -14.001l10 -30c1.33301 -3.33301 4 -5.33301 8 -6l13 -2v-30h-68zM233 492.999c8 0 14.166 1.50098 18.499 4.50098
s6.5 9.16699 6.5 18.5s-2.66699 15.166 -8 17.499s-10.666 3.5 -15.999 3.5h-15v-44h14z" />
    <glyph glyph-name="macron" unicode="&#xaf;" 
d="M86 587v130h327v-130h-327z" />
    <glyph glyph-name="degree" unicode="&#xb0;" horiz-adv-x="304" 
d="M152 623c11.333 0 21.5 4.83203 30.5 14.499s13.5 20.5 13.5 32.5s-4.5 22.5 -13.5 31.5s-19.167 13.5 -30.5 13.5c-10.667 0 -20.667 -4.5 -30 -13.5s-14 -20.167 -14 -33.5c0 -11.333 4.33301 -21.666 13 -30.999s19 -14 31 -14zM278 669.999
c0 -18 -3.16699 -34.8311 -9.5 -50.498s-15.166 -29 -26.499 -40s-24.666 -19.667 -39.999 -26s-32 -9.5 -50 -9.5c-36.667 0 -66.834 11.5 -90.501 34.5s-35.5 52.5 -35.5 88.5c0 19.333 3.33301 36.666 10 51.999s15.834 28.666 27.501 39.999s25.167 20 40.5 26
s31.333 9 48 9c17.333 0 33.666 -3 48.999 -9s28.666 -14.5 39.999 -25.5s20.333 -24 27 -39s10 -31.833 10 -50.5z" />
    <glyph glyph-name="plusminus" unicode="&#xb1;" horiz-adv-x="570" 
d="M86 0v152h397v-152h-397zM206 139v109h-120v153h120v130h156v-130h121v-153h-121v-109h-156z" />
    <glyph glyph-name="mu" unicode="&#xb5;" horiz-adv-x="629" 
d="M388 0l-8.00098 42l-6 1c-13.333 -15.333 -29.666 -27.5 -48.999 -36.5s-39 -15.167 -59 -18.5l16 -164h-220v704h211v-335c0 -20.667 2.5 -34 7.5 -40s12.5 -9 22.5 -9c5.33301 0 12 1 20 3s15.667 4.66699 23 8v373h211v-398c0 -5.33301 0.666992 -9.33301 2 -12
s5.33301 -4.66699 12 -6l47 -7v-105h-230z" />
    <glyph glyph-name="paragraph" unicode="&#xb6;" horiz-adv-x="727" 
d="M453 -133l-0.00195312 661h-56v-661h-221v87l63 7c7.33301 1.33301 12 3.5 14 6.5s3 7.5 3 13.5v181c-78 4 -134.333 26.667 -169 68s-52 96.333 -52 165c0 46 7.33301 84.833 22 116.5s34.834 57.5 60.501 77.5s55.834 34.333 90.501 43s72 13 112 13h357v-104l-67 -8
c-7.33301 -1.33301 -11.833 -3 -13.5 -5s-2.5 -6.66699 -2.5 -14v-533c0 -8 1 -13 3 -15s6.33301 -3.66699 13 -5l67 -8v-86h-224z" />
    <glyph glyph-name="periodcentered" unicode="&#xb7;" horiz-adv-x="283" 
d="M247 338c0 -30 -8.5 -52.999 -25.5 -68.999s-43.5 -24 -79.5 -24c-36.667 0 -63.5 7.66699 -80.5 23s-25.5 38.666 -25.5 69.999c0 30 8.5 53 25.5 69s43.833 24 80.5 24c36 0 62.5 -8 79.5 -24s25.5 -39 25.5 -69z" />
    <glyph glyph-name="cedilla" unicode="&#xb8;" 
d="M139 -190c3.33301 -0.666992 6.50195 -1.00098 9.50195 -1.00098h9.5c25.333 0 42.333 4.5 51 13.5s13 20.167 13 33.5c0 15.333 -6.5 25.166 -19.5 29.499s-26.833 6.83301 -41.5 7.5l17 137l86 -8l-9 -68c8.66699 -2 18 -5.16699 28 -9.5s19.167 -10.166 27.5 -17.499
s15.166 -16.833 20.499 -28.5s8 -25.5 8 -41.5c0 -17.333 -3.33301 -34 -10 -50s-16.834 -30.167 -30.501 -42.5s-31 -22.166 -52 -29.499s-46.167 -11 -75.5 -11c-9.33301 0 -18.5 0.5 -27.5 1.5s-12.833 1.5 -11.5 1.5z" />
    <glyph glyph-name="guillemotright" unicode="&#xbb;" horiz-adv-x="495" 
d="M27 103l79 147c2 4 3 7.16699 3 9.5s-1.33301 5.5 -4 9.5l-85 139h162l89 -152l-84 -153h-160zM238 103l79 147c2 4 3 7.16699 3 9.5s-1.33301 5.5 -4 9.5l-85 139h162l89 -152l-84 -153h-160z" />
    <glyph glyph-name="multiply" unicode="&#xd7;" horiz-adv-x="570" 
d="M285 212l-92 -92l-111 110l93 92l-93 92l111 111l92 -92l93 92l110 -111l-92 -92l92 -92l-110 -110z" />
    <glyph glyph-name="divide" unicode="&#xf7;" horiz-adv-x="570" 
d="M378 138c0 -26 -7.5 -46.501 -22.5 -61.501s-38.5 -22.5 -70.5 -22.5s-55.667 7.33301 -71 22s-23 35.334 -23 62.001c0 23.333 7.66699 43.166 23 59.499s39 24.5 71 24.5s55.5 -8.16699 70.5 -24.5s22.5 -36.166 22.5 -59.499zM86 244.999v152h397v-152h-397z
M378 502.999c0 -25.333 -7.5 -45.668 -22.5 -61.001s-38.5 -23 -70.5 -23s-55.667 7.33301 -71 22s-23 35.334 -23 62.001c0 23.333 7.66699 43.166 23 59.499s39 24.5 71 24.5s55.5 -8.16699 70.5 -24.5s22.5 -36.166 22.5 -59.499z" />
    <glyph glyph-name="florin" unicode="&#x192;" horiz-adv-x="599" 
d="M342 263l-26 -154.998c-8 -49.333 -19.5 -89.5 -34.5 -120.5s-33.333 -55.167 -55 -72.5s-46.667 -29 -75 -35s-60.166 -9 -95.499 -9c-36 0 -71.167 5.66699 -105.5 17s-62.166 25.666 -83.499 42.999l54 123c18.667 -13.333 38.167 -24 58.5 -32s39.166 -12 56.499 -12
c12 0 22.667 0.666992 32 2s17.833 4.83301 25.5 10.5s14.167 14.667 19.5 27s10 29.5 14 51.5l28 152c1.33301 6.66699 -1 10 -7 10h-88l20 122h98l12 71c6.66699 38 15.667 70.167 27 96.5s25.666 47.666 42.999 63.999s38.5 28.166 63.5 35.499s54.833 11 89.5 11
c34 0 69.167 -4 105.5 -12s71.833 -21.667 106.5 -41l-26 -164l-129 12l-1 57c-0.666992 3.33301 -1.5 6 -2.5 8s-3.83301 3.66699 -8.5 5c-11.333 3.33301 -22 5 -32 5c-12.667 0 -23 -3.66699 -31 -11s-13.667 -21.666 -17 -42.999l-13 -84
c-0.666992 -6.66699 2 -10 8 -10h109l-20 -122h-120z" />
    <glyph glyph-name="circumflex" unicode="&#x2c6;" 
d="M355 556l-105 85l-105 -85l-75 65l118 136h124l118 -136z" />
    <glyph glyph-name="caron" unicode="&#x2c7;" 
d="M189 574l-119 135l75 66l106 -85l104 85l75 -66l-117 -135h-124z" />
    <glyph glyph-name="uni02C9" unicode="&#x2c9;" 
d="M86 587v130h327v-130h-327z" />
    <glyph glyph-name="breve" unicode="&#x2d8;" 
d="M427 703c-12 -46 -31.5 -80.834 -58.5 -104.501s-66.5 -35.5 -118.5 -35.5s-91.667 11.833 -119 35.5s-46.666 58.5 -57.999 104.5l96 35c7.33301 -21.333 18.166 -36.666 32.499 -45.999s30.5 -14 48.5 -14s33.5 4.5 46.5 13.5s24.5 24.5 34.5 46.5z" />
    <glyph glyph-name="dotaccent" unicode="&#x2d9;" 
d="M368 698c0 -37.333 -10.167 -66.166 -30.5 -86.499s-49.5 -30.5 -87.5 -30.5c-37.333 0 -66 10.167 -86 30.5s-30 49.166 -30 86.499c0 36.667 10 64.834 30 84.501s48.667 29.5 86 29.5c38 0 67.167 -9.83301 87.5 -29.5s30.5 -47.834 30.5 -84.501z" />
    <glyph glyph-name="ring" unicode="&#x2da;" 
d="M383 667c0 -36 -11.668 -64.167 -35.001 -84.5s-52.666 -30.5 -87.999 -30.5c-36.667 0 -66.834 10 -90.501 30s-35.5 47 -35.5 81c0 18.667 3.33301 35.167 10 49.5s15.834 26.5 27.501 36.5s25.167 17.667 40.5 23s31.333 8 48 8c34 0 63 -10 87 -30s36 -47.667 36 -83
zM259.999 624c11.333 0 20.666 3.33301 27.999 10s11 17.667 11 33c0 14.667 -3.66699 25.334 -11 32.001s-16.666 10 -27.999 10c-13.333 0 -23.833 -3.33301 -31.5 -10s-11.5 -17.334 -11.5 -32.001c0 -15.333 4 -26.333 12 -33s18.333 -10 31 -10z" />
    <glyph glyph-name="ogonek" unicode="&#x2db;" 
d="M378 -215c-24.667 -11.333 -49.001 -19.333 -73.001 -24s-45.333 -7 -64 -7c-43.333 0 -74 9.33301 -92 28s-27 42 -27 70c0 20.667 4.83301 40 14.5 58s21.334 34.333 35.001 49s28.167 27.5 43.5 38.5s28.666 19.833 39.999 26.5l90 -21
c-7.33301 -6.66699 -15.666 -14.667 -24.999 -24s-18 -19.333 -26 -30s-14.833 -21.167 -20.5 -31.5s-8.5 -19.833 -8.5 -28.5c0 -7.33301 1.5 -13 4.5 -17s8.83301 -6 17.5 -6c5.33301 0 13.333 1 24 3s21.667 4.66699 33 8z" />
    <glyph glyph-name="tilde" unicode="&#x2dc;" 
d="M417 642c-9.33301 -20.667 -19.001 -37.498 -29.001 -50.498s-23.667 -19.5 -41 -19.5c-15.333 0 -32.166 2.16699 -50.499 6.5s-40.166 10.166 -65.499 17.499l-31.5 10c-11 3.33301 -18.167 5 -21.5 5s-5.83301 -0.833008 -7.5 -2.5l-8.5 -8.5l-23 -25l-75 44l30 59
c8.66699 17.333 19 31.166 31 41.499s25.667 15.5 41 15.5c17.333 0 45.666 -5.66699 84.999 -17c6 -2 12.833 -4 20.5 -6l22 -5.5l19 -4.5c5.66699 -1.33301 9.5 -2 11.5 -2c4 0 8 2.33301 12 7l21 26l83 -42z" />
    <glyph glyph-name="hungarumlaut" unicode="&#x2dd;" 
d="M118 552l-75 65l146 186l104 -93zM334 552l-75 65l146 187l104 -94z" />
    <glyph glyph-name="uni0394" unicode="&#x394;" horiz-adv-x="772" 
d="M0 0l266 724h239l267 -724h-772zM372 493h-10l-107 -324h219z" />
    <glyph glyph-name="uni03A9" unicode="&#x3a9;" horiz-adv-x="826" 
d="M435 0l-0.00195312 239.997c14 6 28 13.667 42 23s26.5 21.333 37.5 36s19.833 32.167 26.5 52.5s10 44.166 10 71.499c0 30.667 -3.16699 55.5 -9.5 74.5s-15 33.833 -26 44.5s-24.167 17.834 -39.5 21.501s-31.666 5.5 -48.999 5.5c-36.667 0 -66.667 -11.333 -90 -34
s-35 -62 -35 -118c0 -36 7.33301 -70 22 -102s38 -56.667 70 -74v-241h-354v188h142l12 -35c1.33301 -5.33301 3 -8.5 5 -9.5s5.66699 -1.5 11 -1.5h50v37c-62 18 -107.333 48.5 -136 91.5s-43 95.833 -43 158.5c0 46.667 7.83301 89 23.5 127s38.334 70.333 68.001 97
s65.834 47.334 108.501 62.001s90.667 22 144 22c118 0 204.667 -24.167 260 -72.5s83 -123.166 83 -224.499c0 -36 -5.83301 -68.167 -17.5 -96.5s-26.834 -53.166 -45.501 -74.499s-40 -39.5 -64 -54.5s-48.333 -26.833 -73 -35.5v-37h49c5.33301 0 9 0.5 11 1.5
s3.66699 4.16699 5 9.5l11 35h142v-188h-351z" />
    <glyph glyph-name="uni03BC" unicode="&#x3bc;" horiz-adv-x="629" 
d="M388 0l-8.00098 42l-6 1c-13.333 -15.333 -29.666 -27.5 -48.999 -36.5s-39 -15.167 -59 -18.5l16 -164h-220v704h211v-335c0 -20.667 2.5 -34 7.5 -40s12.5 -9 22.5 -9c5.33301 0 12 1 20 3s15.667 4.66699 23 8v373h211v-398c0 -5.33301 0.666992 -9.33301 2 -12
s5.33301 -4.66699 12 -6l47 -7v-105h-230z" />
    <glyph glyph-name="pi" unicode="&#x3c0;" horiz-adv-x="676" 
d="M373 0v401h-69v-401h-268v104l41 7c8 1.33301 12.667 3 14 5s2 7.66699 2 17v260c0 7.33301 -0.833008 12.166 -2.5 14.499s-6.16699 4.16602 -13.5 5.49902l-39 7v108h600v-108l-38 -7c-7.33301 -1.33301 -11.833 -3.16602 -13.5 -5.49902s-2.5 -7.16602 -2.5 -14.499
v-262c0 -8 0.833008 -13 2.5 -15s6.16699 -3.66699 13.5 -5l41 -7v-104h-268z" />
    <glyph glyph-name="afii10023" unicode="&#x401;" horiz-adv-x="625" 
d="M289 865c0 -26 -7.83301 -46.667 -23.5 -62s-36.5 -23 -62.5 -23c-25.333 0 -46.166 7.66699 -62.499 23s-24.5 36 -24.5 62c0 25.333 8.16699 45.5 24.5 60.5s37.166 22.5 62.499 22.5c26 0 46.833 -7.5 62.5 -22.5s23.5 -35.167 23.5 -60.5zM504 865
c0 -26 -7.83301 -46.667 -23.5 -62s-36.5 -23 -62.5 -23s-47 7.66699 -63 23s-24 36 -24 62c0 25.333 8 45.5 24 60.5s37 22.5 63 22.5s46.833 -7.5 62.5 -22.5s23.5 -35.167 23.5 -60.5zM16 0v103.001l63 7c7.33301 1.33301 11.833 3.16602 13.5 5.49902
s2.5 7.16602 2.5 14.499v463c0 7.33301 -0.833008 12.333 -2.5 15s-6.16699 4.33398 -13.5 5.00098l-63 7v104h562v-239l-153 6l-14 75c-2 8.66699 -7.66699 13 -17 13h-82v-142h202v-151h-202v-142h104c5.33301 0 9 0.5 11 1.5s3.66699 4.16699 5 9.5l16 88h152v-243h-584z
" />
    <glyph glyph-name="afii10051" unicode="&#x402;" horiz-adv-x="836" 
d="M465 0l-306 -0.00195312v104l73 8c7.33301 0.666992 11.833 2.33398 13.5 5.00098s2.5 7.66699 2.5 15v446h-42c-5.33301 0 -9 -0.5 -11 -1.5s-3.66699 -4.16699 -5 -9.5l-16 -75l-153 -5v237h728v-237l-151 5l-16 75c-1.33301 5.33301 -3 8.5 -5 9.5
s-5.66699 1.5 -11 1.5h-101v-159c13.333 3.33301 31 6.33301 53 9s44.667 4 68 4c32.667 0 63 -4.5 91 -13.5s52.333 -22.5 73 -40.5s36.834 -40.167 48.501 -66.5s17.5 -56.5 17.5 -90.5c0 -22.667 -3 -47.667 -9 -75s-17 -52.666 -33 -75.999s-37.833 -42.833 -65.5 -58.5
s-63.167 -23.5 -106.5 -23.5c-17.333 0 -35.333 1.5 -54 4.5s-37.334 8.16699 -56.001 15.5l19 136c6 -2 12.667 -3.5 20 -4.5s14 -1.5 20 -1.5c21.333 0 37.5 6.83301 48.5 20.5s16.5 31.167 16.5 52.5c0 24.667 -8.16699 42.667 -24.5 54s-37.833 17 -64.5 17
c-6 0 -15 -0.5 -27 -1.5s-23.667 -2.5 -35 -4.5v-276z" />
    <glyph glyph-name="afii10052" unicode="&#x403;" horiz-adv-x="627" 
d="M240 767l-43 87l224 116l59 -126zM16 0v103.001l63 7c7.33301 1.33301 11.833 3.16602 13.5 5.49902s2.5 7.16602 2.5 14.499v463c0 7.33301 -0.833008 12.333 -2.5 15s-6.16699 4.33398 -13.5 5.00098l-63 7v104h589v-259l-153 6l-14 95c-2 8.66699 -7.66699 13 -17 13
h-109v-447c0 -8 0.833008 -13 2.5 -15s6.16699 -3.66699 13.5 -5l147 -8v-104h-459z" />
    <glyph glyph-name="afii10053" unicode="&#x404;" horiz-adv-x="682" 
d="M639 46c-16 -8.66699 -34.167 -16.668 -54.5 -24.001s-41.5 -13.5 -63.5 -18.5s-44.167 -8.83301 -66.5 -11.5s-43.5 -4 -63.5 -4c-66 0 -122.667 8.5 -170 25.5s-86 41.5 -116 73.5s-52 71.167 -66 117.5s-21 99.166 -21 158.499c0 53.333 8.16699 102.833 24.5 148.5
s40.5 85.167 72.5 118.5s72 59.5 120 78.5s103.667 28.5 167 28.5c20 0 40.833 -1.33301 62.5 -4s43 -6.5 64 -11.5s41 -11.167 60 -18.5s35.833 -15.666 50.5 -24.999v-232l-153 12l-16 101c-2 10 -7.66699 15.667 -17 17c-7.33301 1.33301 -15.5 2.33301 -24.5 3
s-18.167 1 -27.5 1c-42 0 -77 -11.5 -105 -34.5s-45.667 -59.167 -53 -108.5h221v-151h-220c8 -48.667 26.167 -84.667 54.5 -108s61.5 -35 99.5 -35c10 0 20 0.333008 30 1s18.667 1.66699 26 3s12.333 3.33301 15 6s4.66699 8.33398 6 17.001l15 96h149v-220z" />
    <glyph glyph-name="afii10054" unicode="&#x405;" horiz-adv-x="601" 
d="M397 485l-8.00293 78c-1.33301 7.33301 -3 12 -5 14s-5.66699 3.66699 -11 5c-11.333 1.33301 -20.5 2.16602 -27.5 2.49902s-13.833 0.5 -20.5 0.5c-23.333 0 -41 -5.16699 -53 -15.5s-18 -23.166 -18 -38.499c0 -10.667 3 -19.667 9 -27s14.167 -13.833 24.5 -19.5
s22.333 -10.5 36 -14.5l43.5 -13c23.333 -6.66699 47.5 -14.5 72.5 -23.5s47.833 -21.667 68.5 -38s37.667 -37.5 51 -63.5s20 -59 20 -99c0 -43.333 -7.83301 -80.5 -23.5 -111.5s-37 -56.333 -64 -76s-58.5 -34.167 -94.5 -43.5s-74.333 -14 -115 -14
c-22 0 -45.167 1.33301 -69.5 4s-47.833 6 -70.5 10s-43.5 8.66699 -62.5 14s-34.167 10.666 -45.5 15.999v226h157l21 -100c1.33301 -5.33301 3 -9 5 -11s6 -3.66699 12 -5c4.66699 -0.666992 12.334 -1.5 23.001 -2.5s20.667 -1.5 30 -1.5c30 0 52.333 5.5 67 16.5
s22 25.5 22 43.5c0 12 -3.16699 22 -9.5 30s-15 14.667 -26 20s-23.667 10 -38 14s-29.5 8 -45.5 12c-23.333 6 -47.166 13 -71.499 21s-46.5 19.833 -66.5 35.5s-36.333 36.334 -49 62.001s-19 58.834 -19 99.501c0 41.333 7.16699 77.166 21.5 107.499
s34.166 55.833 59.499 76.5s55.333 36 90 46s72.334 15 113.001 15c44.667 0 86.334 -4.5 125.001 -13.5s72 -19.5 100 -31.5v-220z" />
    <glyph glyph-name="afii10055" unicode="&#x406;" horiz-adv-x="417" 
d="M11 0v102.998l73 8c7.33301 0.666992 11.833 2.33398 13.5 5.00098s2.5 7.66699 2.5 15v461c0 7.33301 -0.833008 12.333 -2.5 15s-6.16699 4.33398 -13.5 5.00098l-73 7v105h399v-105l-77 -8c-7.33301 -1.33301 -11.833 -3 -13.5 -5s-2.5 -6.66699 -2.5 -14v-461
c0 -8 0.833008 -13 2.5 -15s6.16699 -3.66699 13.5 -5l77 -8v-103h-399z" />
    <glyph glyph-name="afii10056" unicode="&#x407;" horiz-adv-x="417" 
d="M11 0v102.998l73 8c7.33301 0.666992 11.833 2.33398 13.5 5.00098s2.5 7.66699 2.5 15v461c0 7.33301 -0.833008 12.333 -2.5 15s-6.16699 4.33398 -13.5 5.00098l-73 7v105h399v-105l-77 -8c-7.33301 -1.33301 -11.833 -3 -13.5 -5s-2.5 -6.66699 -2.5 -14v-461
c0 -8 0.833008 -13 2.5 -15s6.16699 -3.66699 13.5 -5l77 -8v-103h-399zM188 864.998c0 -26 -7.83301 -46.667 -23.5 -62s-36.5 -23 -62.5 -23c-25.333 0 -46.166 7.66699 -62.499 23s-24.5 36 -24.5 62c0 25.333 8.16699 45.5 24.5 60.5s37.166 22.5 62.499 22.5
c26 0 46.833 -7.5 62.5 -22.5s23.5 -35.167 23.5 -60.5zM403 864.998c0 -26 -7.83301 -46.667 -23.5 -62s-36.5 -23 -62.5 -23s-47 7.66699 -63 23s-24 36 -24 62c0 25.333 8 45.5 24 60.5s37 22.5 63 22.5s46.833 -7.5 62.5 -22.5s23.5 -35.167 23.5 -60.5z" />
    <glyph glyph-name="afii10057" unicode="&#x408;" horiz-adv-x="533" 
d="M228 593c0 6.66699 -0.99707 11.167 -2.99707 13.5s-6.33301 3.83301 -13 4.5l-95 8v105h411v-105l-67 -8c-7.33301 -1.33301 -11.833 -3 -13.5 -5s-2.5 -6.66699 -2.5 -14v-414c0 -64.667 -16.667 -112.5 -50 -143.5s-87.333 -46.5 -162 -46.5
c-20.667 0 -41.834 1.16699 -63.501 3.5s-42 5.5 -61 9.5s-36 8.66699 -51 14s-26.833 10.666 -35.5 15.999v217l154 -11l10 -71c1.33301 -7.33301 3.66602 -11.666 6.99902 -12.999s8.66602 -2 15.999 -2c6 0 10.667 1.33301 14 4s5 9 5 19v419z" />
    <glyph glyph-name="afii10058" unicode="&#x409;" horiz-adv-x="1065" 
d="M90 724l726.998 -0.000976562v-105l-87 -8c-7.33301 -1.33301 -11.833 -3 -13.5 -5s-2.5 -6.66699 -2.5 -14v-170h75c46 0 84.833 -4.33301 116.5 -13s57.334 -21.5 77.001 -38.5s33.834 -37.833 42.501 -62.5s13 -53 13 -85c0 -41.333 -6.66699 -76.166 -20 -104.499
s-32 -51.333 -56 -69s-52.667 -30.334 -86 -38.001s-70 -11.5 -110 -11.5h-348v103l63 7c7.33301 1.33301 11.833 3.16602 13.5 5.49902s2.5 7.16602 2.5 14.499v449h-130c0.666992 -19.333 0.833984 -43.833 0.500977 -73.5s-1.16602 -61 -2.49902 -94
s-3.33301 -65.667 -6 -98s-6.33398 -60.833 -11.001 -85.5c-4.66699 -25.333 -13 -52.5 -25 -81.5s-29.667 -55.667 -53 -80s-53.333 -44.333 -90 -60s-82.667 -23.5 -138 -23.5l-32 183c25.333 2.66699 47 8.33398 65 17.001s33 20.667 45 36s21.333 34.333 28 57
s11.667 49.334 15 80.001c3.33301 31.333 5.16602 66.5 5.49902 105.5s0.5 82.5 0.5 130.5c0 7.33301 -0.833008 12.333 -2.5 15s-6.16699 4.33398 -13.5 5.00098l-63 7v105zM736.998 142.999c25.333 0 44.833 5.83301 58.5 17.5s20.5 30.5 20.5 56.5
c0 15.333 -2.66699 27.5 -8 36.5s-12.166 16 -20.499 21s-17.833 8.33301 -28.5 10s-21.334 2.5 -32.001 2.5h-13v-144h23z" />
    <glyph glyph-name="afii10059" unicode="&#x40a;" horiz-adv-x="1104" 
d="M437 0l-0.00195312 103.002l63 7c7.33301 1.33301 11.833 3.16602 13.5 5.49902s2.5 7.16602 2.5 14.499v157h-204v-156c0 -8 0.833008 -13 2.5 -15s6.16699 -3.66699 13.5 -5l67 -8v-103h-379v103l63 7c7.33301 1.33301 11.833 3.16602 13.5 5.49902
s2.5 7.16602 2.5 14.499v462c0 7.33301 -0.833008 12.333 -2.5 15s-6.16699 4.33398 -13.5 5.00098l-63 7v105h379v-105l-67 -8c-7.33301 -1.33301 -11.833 -3 -13.5 -5s-2.5 -6.66699 -2.5 -14v-170h204v170c0 7.33301 -0.833008 12.333 -2.5 15
s-6.16699 4.33398 -13.5 5.00098l-63 7v105h399v-105l-87 -8c-7.33301 -1.33301 -11.833 -3 -13.5 -5s-2.5 -6.66699 -2.5 -14v-170h95c46 0 84.833 -4.33301 116.5 -13s57.334 -21.5 77.001 -38.5s33.834 -37.833 42.501 -62.5s13 -53 13 -85
c0 -41.333 -6.66699 -76.166 -20 -104.499s-32 -51.333 -56 -69s-52.667 -30.334 -86 -38.001s-70 -11.5 -110 -11.5h-368zM775.998 143.002c25.333 0 44.833 5.83301 58.5 17.5s20.5 30.5 20.5 56.5c0 15.333 -2.66699 27.5 -8 36.5s-12.166 16 -20.499 21
s-17.833 8.33301 -28.5 10s-21.334 2.5 -32.001 2.5h-33v-144h43z" />
    <glyph glyph-name="afii10060" unicode="&#x40b;" horiz-adv-x="881" 
d="M469 422c11.333 2 26.667 4.16504 46 6.49805s42.333 3.5 69 3.5c42 0 76.333 -5.33301 103 -16s47.667 -25 63 -43s25.833 -39.167 31.5 -63.5s8.5 -50.5 8.5 -78.5v-99c0 -7.33301 0.833008 -12 2.5 -14s6.16699 -3.66699 13.5 -5l70 -9v-104h-303v220
c0 25.333 -4.83301 42.166 -14.5 50.499s-23.167 12.5 -40.5 12.5c-7.33301 0 -15.333 -0.5 -24 -1.5s-17 -2.5 -25 -4.5v-145c0 -7.33301 0.833008 -12.166 2.5 -14.499s6.16699 -4.16602 13.5 -5.49902l49 -8v-104h-371v104l73 8
c7.33301 0.666992 11.833 2.33398 13.5 5.00098s2.5 7.66699 2.5 15v446h-42c-5.33301 0 -9 -0.5 -11 -1.5s-3.66699 -4.16699 -5 -9.5l-16 -77l-153 -5v239h728v-239l-151 5l-16 77c-1.33301 5.33301 -3 8.5 -5 9.5s-5.66699 1.5 -11 1.5h-101v-156z" />
    <glyph glyph-name="afii10061" unicode="&#x40c;" horiz-adv-x="801" 
d="M344 767l-43 87l224 116l59 -126zM312 131c0 -8 0.832031 -13.0029 2.49902 -15.0029s6.16699 -3.66699 13.5 -5l70 -8v-103h-382v103l63 8c7.33301 0.666992 11.833 2.33398 13.5 5.00098s2.5 7.66699 2.5 15v461c0 7.33301 -0.833008 12.333 -2.5 15
s-6.16699 4.33398 -13.5 5.00098l-63 7v105h383v-105l-71 -8c-7.33301 -1.33301 -11.833 -3 -13.5 -5s-2.5 -6.66699 -2.5 -14v-151h51c20.667 0 36.5 4.16699 47.5 12.5s20.167 24.833 27.5 49.5l27 94c15.333 52.667 36.833 89.167 64.5 109.5s63.834 30.5 108.501 30.5
c15.333 0 31.833 -1 49.5 -3s36.167 -4.66699 55.5 -8l-8 -135c-12 2 -22.667 3 -32 3c-12.667 0 -22.834 -3 -30.501 -9s-14.167 -17 -19.5 -33l-27 -94c-4 -14.667 -9.5 -26.667 -16.5 -36s-14.5 -17 -22.5 -23s-16.167 -10.667 -24.5 -14s-16.166 -6 -23.499 -8v-3
c19.333 -5.33301 35.666 -14.666 48.999 -27.999s26.333 -32.333 39 -57l79 -155c4 -7.33301 7.83301 -12.666 11.5 -15.999s9.83398 -5.66602 18.501 -6.99902l59 -8v-103h-281c-16 47.333 -32.667 90.166 -50 128.499s-35 75.166 -53 110.499
c-9.33301 18.667 -19.5 31.5 -30.5 38.5s-24.833 10.5 -41.5 10.5h-27v-157z" />
    <glyph glyph-name="afii10062" unicode="&#x40e;" horiz-adv-x="736" 
d="M584 925c-12 -45.333 -32.502 -80.499 -61.502 -105.499s-70.5 -37.5 -124.5 -37.5s-95.167 12.667 -123.5 38s-48.166 60.666 -59.499 105.999l123 37c3.33301 -21.333 9.33301 -39 18 -53s23 -21 43 -21c38.667 0 61.334 24 68.001 72zM417.998 621.001l10.001 103h288
v-103l-42 -11c-8 -2 -14.167 -5.5 -18.5 -10.5s-8.16602 -11.833 -11.499 -20.5l-177 -432c-14.667 -36 -30.334 -64.667 -47.001 -86s-34.667 -37.333 -54 -48s-39.833 -17.5 -61.5 -20.5s-45.167 -4.5 -70.5 -4.5c-12.667 0 -26.834 1 -42.501 3s-31.5 4.83301 -47.5 8.5
s-31.333 8 -46 13s-27 10.5 -37 16.5l52 150c10.667 -6 24.334 -11.333 41.001 -16s33.334 -7 50.001 -7c13.333 0 25.166 2 35.499 6s18.5 13 24.5 27l-171 404c-2.66699 6 -5.83398 10 -9.50098 12s-8.5 3.66699 -14.5 5l-45 11l10 103h349v-103l-70 -9l80 -225h11l79 225
z" />
    <glyph glyph-name="afii10145" unicode="&#x40f;" horiz-adv-x="811" 
d="M509 0c-7.33301 0 -11.832 -1.16406 -13.499 -3.49707s-2.83398 -5.5 -3.50098 -9.5l-19 -151l-138 5l-20 146c-0.666992 8.66699 -5 13 -13 13h-286v105l63 7c7.33301 0.666992 11.833 2.33398 13.5 5.00098s2.5 7.66699 2.5 15v462
c0 7.33301 -0.833008 12.166 -2.5 14.499s-6.16699 4.16602 -13.5 5.49902l-63 7v103h369v-103l-57 -8c-7.33301 -1.33301 -11.833 -3 -13.5 -5s-2.5 -7 -2.5 -15v-448h185v449c0 7.33301 -0.833008 12.166 -2.5 14.499s-6.16699 4.16602 -13.5 5.49902l-53 7v103h369v-103
l-67 -8c-7.33301 -1.33301 -11.833 -3 -13.5 -5s-2.5 -7 -2.5 -15v-461c0 -7.33301 0.833008 -12 2.5 -14s6.16699 -3.66699 13.5 -5l67 -8v-105h-288z" />
    <glyph glyph-name="afii10017" unicode="&#x410;" horiz-adv-x="805" 
d="M422 0v103l80 9l-18 49h-216l-17 -49l78 -9v-103h-331v103l46 11c6 1.33301 11.167 3.33301 15.5 6s7.5 7 9.5 13l217 591h238l212 -593c2 -6 5 -10 9 -12s9 -3.66699 15 -5l47 -11v-103h-385zM382 514h-7l-68 -210h140z" />
    <glyph glyph-name="afii10018" unicode="&#x411;" horiz-adv-x="682" 
d="M311 579l-0.00195312 -156.999h95c46 0 84.833 -4.33301 116.5 -13s57.334 -21.5 77.001 -38.5s33.834 -37.833 42.501 -62.5s13 -53 13 -85c0 -41.333 -6.66699 -76.166 -20 -104.499s-32 -51.333 -56 -69s-52.667 -30.334 -86 -38.001s-70 -11.5 -110 -11.5h-367v105
l63 7c7.33301 0.666992 11.833 2.33398 13.5 5.00098s2.5 7.66699 2.5 15v461c0 7.33301 -0.833008 12.166 -2.5 14.499s-6.16699 4.16602 -13.5 5.49902l-73 7v104h588v-245l-153 7l-14 80c-2 8.66699 -7.66699 13 -17 13h-99zM353.998 143.001
c25.333 0 44.833 5.83301 58.5 17.5s20.5 30.5 20.5 56.5c0 15.333 -2.66699 27.5 -8 36.5s-12.166 16 -20.499 21s-17.833 8.33301 -28.5 10s-21.334 2.5 -32.001 2.5h-33v-144h43z" />
    <glyph glyph-name="afii10019" unicode="&#x412;" horiz-adv-x="674" 
d="M16 0l-0.000976562 103.004l63 7c7.33301 1.33301 11.833 3.16602 13.5 5.49902s2.5 7.16602 2.5 14.499v462c0 7.33301 -0.833008 12.333 -2.5 15s-6.16699 4.33398 -13.5 5.00098l-63 7v105h374c42.667 0 78.334 -4.5 107.001 -13.5s51.5 -21.5 68.5 -37.5
s29 -34.833 36 -56.5s10.5 -44.834 10.5 -69.501c0 -24 -3.5 -45.167 -10.5 -63.5s-16.167 -34.5 -27.5 -48.5s-24.333 -25.5 -39 -34.5s-29.667 -16.167 -45 -21.5v-3c57.333 -6.66699 99 -24.834 125 -54.501s39 -69.5 39 -119.5
c0 -36.667 -7.16699 -67.834 -21.5 -93.501s-34 -46.5 -59 -62.5s-54.333 -27.667 -88 -35s-70.167 -11 -109.5 -11h-360zM334.999 143.004c32 0 55.833 6.16699 71.5 18.5s23.5 34.5 23.5 66.5c0 17.333 -2.33301 31 -7 41s-10.834 17.667 -18.501 23
s-16.667 8.83301 -27 10.5s-21.166 2.5 -32.499 2.5h-34v-162h24zM303.999 435.004c16 0 30.5 0.833984 43.5 2.50098s24.167 5.16699 33.5 10.5s16.5 12.833 21.5 22.5s7.5 22.5 7.5 38.5c0 16.667 -2.66699 29.667 -8 39s-12 16.166 -20 20.499s-17 7 -27 8
s-19.667 1.5 -29 1.5h-15v-143h-7z" />
    <glyph glyph-name="afii10020" unicode="&#x413;" horiz-adv-x="627" 
d="M16 0v103.001l63 7c7.33301 1.33301 11.833 3.16602 13.5 5.49902s2.5 7.16602 2.5 14.499v463c0 7.33301 -0.833008 12.333 -2.5 15s-6.16699 4.33398 -13.5 5.00098l-63 7v104h589v-259l-153 6l-14 95c-2 8.66699 -7.66699 13 -17 13h-109v-447
c0 -8 0.833008 -13 2.5 -15s6.16699 -3.66699 13.5 -5l147 -8v-104h-459z" />
    <glyph glyph-name="afii10021" unicode="&#x414;" horiz-adv-x="813" 
d="M511 144l-0.00195312 435.002h-128v-123c0 -26.667 -0.666992 -53 -2 -79s-4.66602 -51.833 -9.99902 -77.5s-13.166 -51.334 -23.499 -77.001s-24.5 -51.834 -42.5 -78.501h206zM79.998 152.002c18.667 21.333 34.167 42.8311 46.5 64.498s22.166 45.334 29.499 71.001
s12.5 54.167 15.5 85.5s4.5 67 4.5 107v112c0 7.33301 -0.833008 12.333 -2.5 15s-6.16699 4.33398 -13.5 5.00098l-63 7v105h704v-105l-67 -8c-7.33301 -1.33301 -11.833 -3 -13.5 -5s-2.5 -6.66699 -2.5 -14v-440h78v-308l-151 10l-23 134c-0.666992 8 -5 12 -13 12h-400
c-7.33301 0 -11.666 -4 -12.999 -12l-23 -134l-151 -10v308h58z" />
    <glyph glyph-name="afii10022" unicode="&#x415;" horiz-adv-x="625" 
d="M16 0v103.001l63 7c7.33301 1.33301 11.833 3.16602 13.5 5.49902s2.5 7.16602 2.5 14.499v463c0 7.33301 -0.833008 12.333 -2.5 15s-6.16699 4.33398 -13.5 5.00098l-63 7v104h562v-239l-153 6l-14 75c-2 8.66699 -7.66699 13 -17 13h-82v-142h202v-151h-202v-142h104
c5.33301 0 9 0.5 11 1.5s3.66699 4.16699 5 9.5l16 88h152v-243h-584z" />
    <glyph glyph-name="afii10024" unicode="&#x416;" horiz-adv-x="1144" 
d="M753 724l-0.00195312 -105.003l-56 -8c-7.33301 -1.33301 -11.833 -3 -13.5 -5s-2.5 -6.66699 -2.5 -14v-151h21c20.667 0 35.167 4.33301 43.5 13s16.833 25 25.5 49l33 94c18 51.333 40.167 87.5 66.5 108.5s61.833 31.5 106.5 31.5
c15.333 0 31.833 -1.16699 49.5 -3.5s36.167 -5.16602 55.5 -8.49902l-8 -134c-12 2 -22.667 3 -32 3c-12.667 0 -22.834 -3 -30.501 -9s-14.167 -17 -19.5 -33l-32 -94c-9.33301 -28.667 -21.833 -48.5 -37.5 -59.5s-30.5 -18.167 -44.5 -21.5v-3
c19.333 -5.33301 35.666 -14.666 48.999 -27.999s26.333 -32.333 39 -57l77 -151c4 -7.33301 8 -13.333 12 -18s10.333 -7.66699 19 -9l60 -8v-103h-281c-16 47.333 -32.667 90.166 -50 128.499s-35 75.166 -53 110.499c-9.33301 18.667 -17.5 31.5 -24.5 38.5
s-16.167 10.5 -27.5 10.5h-17v-157c0 -8 0.833008 -13 2.5 -15s6.16699 -3.66699 13.5 -5l56 -8v-103h-362v103l56 8c7.33301 1.33301 11.833 3 13.5 5s2.5 7 2.5 15v157h-13c-13.333 0 -24.166 -3.83301 -32.499 -11.5s-17.166 -20.167 -26.499 -37.5
c-17.333 -32 -34.333 -68 -51 -108s-33 -83.667 -49 -131h-281v103l59 9c8.66699 1.33301 14.667 4 18 8s7 9.66699 11 17l80 152c13.333 24.667 26.5 43.667 39.5 57s29.167 22.666 48.5 27.999v3c-17.333 4.66699 -33.166 12.834 -47.499 24.501s-26.5 31.5 -36.5 59.5
l-33 91c-6 16 -12.667 27 -20 33s-17 9 -29 9c-8 0 -18 -1 -30 -3l-8 135c21.333 3.33301 41 6 59 8s34.667 3 50 3c23.333 0 43.5 -2.16699 60.5 -6.5s31.833 -11.666 44.5 -21.999s23.667 -24.166 33 -41.499s18 -38.666 26 -63.999l32 -100
c8 -24.667 17.333 -41.167 28 -49.5s26.334 -12.5 47.001 -12.5h21v151c0 7.33301 -0.833008 12 -2.5 14s-6.16699 3.66699 -13.5 5l-56 8v105h362z" />
    <glyph glyph-name="afii10025" unicode="&#x417;" horiz-adv-x="634" 
d="M219 158c1.33301 -5.33301 2.99902 -9.17285 4.99902 -11.5059s6 -4.16602 12 -5.49902c4.66699 -1.33301 12.334 -2.16602 23.001 -2.49902s20.667 -0.5 30 -0.5c29.333 0 52.666 6.83301 69.999 20.5s26 33.167 26 58.5c0 16 -2.66699 28.5 -8 37.5
s-12 15.833 -20 20.5s-16.833 7.66699 -26.5 9s-18.834 2 -27.501 2h-114v151h57c24 0 44.167 2.33301 60.5 7s29.5 10.834 39.5 18.501s17.167 16.667 21.5 27s6.5 21.166 6.5 32.499c0 26 -7 44.333 -21 55s-33.667 16 -59 16c-8.66699 0 -16.167 -0.166992 -22.5 -0.5
s-13.833 -1.5 -22.5 -3.5c-4.66699 -1.33301 -8 -3 -10 -5s-3.66699 -5.66699 -5 -11l-15 -78l-153 -12v189c14 7.33301 30.333 14.833 49 22.5s39.167 14.667 61.5 21s46 11.5 71 15.5s50.5 6 76.5 6c49.333 0 90.833 -4.16699 124.5 -12.5s61 -20.333 82 -36
s36.167 -34.667 45.5 -57s14 -47.833 14 -76.5c0 -24.667 -3.66699 -46.667 -11 -66s-16.833 -36.166 -28.5 -50.499s-24.834 -26.166 -39.501 -35.499s-29.334 -16.666 -44.001 -21.999v-4c14.667 -4.66699 30.334 -10.667 47.001 -18s32 -17.5 46 -30.5
s25.5 -29.333 34.5 -49s13.5 -44.167 13.5 -73.5c0 -37.333 -7.5 -69.666 -22.5 -96.999s-36.333 -50 -64 -68s-61.5 -31.333 -101.5 -40s-85 -13 -135 -13c-18.667 0 -39.667 1.16699 -63 3.5s-46.166 5.33301 -68.499 9s-43.166 8 -62.499 13s-34.666 10.5 -45.999 16.5
v206h154z" />
    <glyph glyph-name="afii10026" unicode="&#x418;" horiz-adv-x="843" 
d="M456 0v103.002l73 7c7.33301 1.33301 11.833 3.16602 13.5 5.49902s2.5 7.16602 2.5 14.499v315l-7 -1l-240 -444h-282v103l63 7c7.33301 1.33301 11.833 3.16602 13.5 5.49902s2.5 7.16602 2.5 14.499v464c0 7.33301 -0.833008 12.333 -2.5 15
s-6.16699 4.33398 -13.5 5.00098l-63 7v103h375v-105l-77 -8c-7.33301 -1.33301 -11.833 -3 -13.5 -5s-2.5 -6.66699 -2.5 -14v-282l7 1l224 413h298v-103l-63 -7c-7.33301 -0.666992 -11.833 -2.33398 -13.5 -5.00098s-2.5 -7.66699 -2.5 -15v-464
c0 -7.33301 0.833008 -12.166 2.5 -14.499s6.16699 -4.16602 13.5 -5.49902l63 -7v-103h-371z" />
    <glyph glyph-name="afii10027" unicode="&#x419;" horiz-adv-x="843" 
d="M503 961c-6.66699 -48 -29.332 -72.001 -67.999 -72.001c-20 0 -34.333 7 -43 21s-14.667 31.667 -18 53l-123 -37c11.333 -45.333 31.166 -80.666 59.499 -105.999s69.5 -38 123.5 -38s95.5 12.5 124.5 37.5s49.5 60.167 61.5 105.5zM456.002 -0.000976562v103.002l73 7
c7.33301 1.33301 11.833 3.16602 13.5 5.49902s2.5 7.16602 2.5 14.499v315l-7 -1l-240 -444h-282v103l63 7c7.33301 1.33301 11.833 3.16602 13.5 5.49902s2.5 7.16602 2.5 14.499v464c0 7.33301 -0.833008 12.333 -2.5 15s-6.16699 4.33398 -13.5 5.00098l-63 7v103h375
v-105l-77 -8c-7.33301 -1.33301 -11.833 -3 -13.5 -5s-2.5 -6.66699 -2.5 -14v-282l7 1l224 413h298v-103l-63 -7c-7.33301 -0.666992 -11.833 -2.33398 -13.5 -5.00098s-2.5 -7.66699 -2.5 -15v-464c0 -7.33301 0.833008 -12.166 2.5 -14.499
s6.16699 -4.16602 13.5 -5.49902l63 -7v-103h-371z" />
    <glyph glyph-name="afii10028" unicode="&#x41a;" horiz-adv-x="801" 
d="M312 131c0 -8 0.832031 -13.0029 2.49902 -15.0029s6.16699 -3.66699 13.5 -5l70 -8v-103h-382v103l63 8c7.33301 0.666992 11.833 2.33398 13.5 5.00098s2.5 7.66699 2.5 15v461c0 7.33301 -0.833008 12.333 -2.5 15s-6.16699 4.33398 -13.5 5.00098l-63 7v105h383v-105
l-71 -8c-7.33301 -1.33301 -11.833 -3 -13.5 -5s-2.5 -6.66699 -2.5 -14v-151h51c20.667 0 36.5 4.16699 47.5 12.5s20.167 24.833 27.5 49.5l27 94c15.333 52.667 36.833 89.167 64.5 109.5s63.834 30.5 108.501 30.5c15.333 0 31.833 -1 49.5 -3s36.167 -4.66699 55.5 -8
l-8 -135c-12 2 -22.667 3 -32 3c-12.667 0 -22.834 -3 -30.501 -9s-14.167 -17 -19.5 -33l-27 -94c-4 -14.667 -9.5 -26.667 -16.5 -36s-14.5 -17 -22.5 -23s-16.167 -10.667 -24.5 -14s-16.166 -6 -23.499 -8v-3c19.333 -5.33301 35.666 -14.666 48.999 -27.999
s26.333 -32.333 39 -57l79 -155c4 -7.33301 7.83301 -12.666 11.5 -15.999s9.83398 -5.66602 18.501 -6.99902l59 -8v-103h-281c-16 47.333 -32.667 90.166 -50 128.499s-35 75.166 -53 110.499c-9.33301 18.667 -19.5 31.5 -30.5 38.5s-24.833 10.5 -41.5 10.5h-27v-157z
" />
    <glyph glyph-name="afii10029" unicode="&#x41b;" horiz-adv-x="828" 
d="M169 592c0 7.33301 -0.832031 12.332 -2.49902 14.999s-6.16699 4.33398 -13.5 5.00098l-63 7v105h727v-105l-67 -8c-7.33301 -1.33301 -11.833 -3 -13.5 -5s-2.5 -6.66699 -2.5 -14v-461c0 -8 0.833008 -13 2.5 -15s6.16699 -3.66699 13.5 -5l67 -8v-103h-369v103l53 7
c7.33301 1.33301 11.833 3.16602 13.5 5.49902s2.5 7.16602 2.5 14.499v449h-150c0.666992 -19.333 1 -43.833 1 -73.5s-0.5 -61 -1.5 -94s-2.83301 -65.667 -5.5 -98s-6.33398 -60.833 -11.001 -85.5c-4.66699 -25.333 -13.167 -52.5 -25.5 -81.5
s-30.166 -55.667 -53.499 -80s-53.5 -44.333 -90.5 -60s-83.167 -23.5 -138.5 -23.5l-32 183c25.333 2.66699 47 8.33398 65 17.001s33 20.667 45 36s21.333 34.333 28 57s11.667 49.334 15 80.001c3.33301 31.333 5.16602 66.5 5.49902 105.5s0.5 82.5 0.5 130.5z" />
    <glyph glyph-name="afii10030" unicode="&#x41c;" horiz-adv-x="982" 
d="M583 0v103.002l82 7c7.33301 0.666992 11.833 2.33398 13.5 5.00098s2.5 7.66699 2.5 15v260h-7l-90 -263h-222l-97 257h-7v-253c0 -8 0.833008 -13.167 2.5 -15.5s6.16699 -3.83301 13.5 -4.5l85 -8v-103h-343v103l63 7c7.33301 0.666992 11.833 2.33398 13.5 5.00098
s2.5 7.66699 2.5 15v463c0 7.33301 -0.833008 12.166 -2.5 14.499s-6.16699 4.16602 -13.5 5.49902l-63 7v104h324l151 -426h8l146 426h325v-103l-67 -8c-7.33301 -1.33301 -11.833 -3 -13.5 -5s-2.5 -6.66699 -2.5 -14v-464c0 -6.66699 1 -11.334 3 -14.001
s6.33301 -4.33398 13 -5.00098l67 -8v-103h-387z" />
    <glyph glyph-name="afii10031" unicode="&#x41d;" horiz-adv-x="827" 
d="M437 0v103.002l63 7c7.33301 1.33301 11.833 3.16602 13.5 5.49902s2.5 7.16602 2.5 14.499v164h-204v-163c0 -8 0.833008 -13 2.5 -15s6.16699 -3.66699 13.5 -5l67 -8v-103h-379v103l63 7c7.33301 1.33301 11.833 3.16602 13.5 5.49902s2.5 7.16602 2.5 14.499v462
c0 7.33301 -0.833008 12.333 -2.5 15s-6.16699 4.33398 -13.5 5.00098l-63 7v105h379v-105l-67 -8c-7.33301 -1.33301 -11.833 -3 -13.5 -5s-2.5 -6.66699 -2.5 -14v-146h204v146c0 7.33301 -0.833008 12.333 -2.5 15s-6.16699 4.33398 -13.5 5.00098l-63 7v105h379v-105
l-67 -8c-7.33301 -1.33301 -11.833 -3 -13.5 -5s-2.5 -6.66699 -2.5 -14v-461c0 -8 0.833008 -13 2.5 -15s6.16699 -3.66699 13.5 -5l67 -8v-103h-379z" />
    <glyph glyph-name="afii10032" unicode="&#x41e;" horiz-adv-x="753" 
d="M370 -12c-62.667 0 -116.331 9.16699 -160.998 27.5s-81.167 43.666 -109.5 75.999s-49 71 -62 116s-19.5 94.167 -19.5 147.5c0 54 7.5 104.333 22.5 151s37.667 87 68 121s68.5 60.833 114.5 80.5s99.667 29.5 161 29.5c62 0 115.167 -9.66699 159.5 -29
s80.666 -45.666 108.999 -78.999s49.166 -72.333 62.499 -117s20 -92 20 -142c0 -58.667 -7.33301 -111.5 -22 -158.5s-37.167 -87 -67.5 -120s-68.333 -58.5 -114 -76.5s-99.5 -27 -161.5 -27zM379.003 156c19.333 0 37.166 3.17188 53.499 9.50488
s30.333 17.166 42 32.499s20.834 36.166 27.501 62.499s10 59.833 10 100.5c0 38.667 -3 71.167 -9 97.5s-14.5 47.666 -25.5 63.999s-24.5 28.166 -40.5 35.499s-34 11 -54 11c-20.667 0 -39.667 -3.66699 -57 -11s-32.333 -19.333 -45 -36s-22.5 -38.334 -29.5 -65.001
s-10.5 -59 -10.5 -97c0 -40 3.33301 -73 10 -99s16 -46.833 28 -62.5s26.5 -26.667 43.5 -33s35.833 -9.5 56.5 -9.5z" />
    <glyph glyph-name="afii10033" unicode="&#x41f;" horiz-adv-x="808" 
d="M428 0v103.003l53 7c7.33301 1.33301 11.833 3.16602 13.5 5.49902s2.5 7.16602 2.5 14.499v449h-185v-448c0 -8 0.833008 -13 2.5 -15s6.16699 -3.66699 13.5 -5l57 -8v-103h-369v103l63 7c7.33301 1.33301 11.833 3.16602 13.5 5.49902s2.5 7.16602 2.5 14.499v462
c0 7.33301 -0.833008 12.333 -2.5 15s-6.16699 4.33398 -13.5 5.00098l-63 7v105h781v-105l-67 -8c-7.33301 -1.33301 -11.833 -3 -13.5 -5s-2.5 -6.66699 -2.5 -14v-461c0 -8 0.833008 -13 2.5 -15s6.16699 -3.66699 13.5 -5l67 -8v-103h-369z" />
    <glyph glyph-name="afii10034" unicode="&#x420;" horiz-adv-x="640" 
d="M16 0v104.003l63 7c7.33301 1.33301 11.833 3.16602 13.5 5.49902s2.5 7.16602 2.5 14.499v461c0 7.33301 -0.833008 12.333 -2.5 15s-6.16699 4.33398 -13.5 5.00098l-63 7v105h369c46 0 84.5 -5.66699 115.5 -17s55.833 -26.833 74.5 -46.5
s31.834 -42.334 39.501 -68.001s11.5 -52.834 11.5 -81.501c0 -44 -6.33301 -81.833 -19 -113.5s-30.834 -57.667 -54.501 -78s-52.5 -35.333 -86.5 -45s-72 -14.5 -114 -14.5h-41v-128c0 -8 0.833008 -13.167 2.5 -15.5s6.16699 -3.83301 13.5 -4.5l143 -8v-104h-454z
M315 402.003c8 0 17.167 0.833008 27.5 2.5s20 5.66699 29 12s16.667 15.833 23 28.5s9.5 30 9.5 52c0 20 -3 35.5 -9 46.5s-13.167 19 -21.5 24s-17 8 -26 9s-16.833 1.5 -23.5 1.5h-13v-176h4z" />
    <glyph glyph-name="afii10035" unicode="&#x421;" horiz-adv-x="680" 
d="M639 46c-16 -8.66699 -34.168 -16.666 -54.501 -23.999s-42 -13.5 -65 -18.5s-46.5 -8.83301 -70.5 -11.5s-47.333 -4 -70 -4c-63.333 0 -117.666 8.33301 -162.999 25s-82.666 41 -111.999 73s-51 71.167 -65 117.5s-21 99.5 -21 159.5c0 54 8 103.833 24 149.5
s40.167 85.167 72.5 118.5s72.666 59.333 120.999 78s104.5 28 168.5 28c19.333 0 39.666 -1.33301 60.999 -4s42.333 -6.5 63 -11.5s40.5 -11.167 59.5 -18.5s35.833 -15.666 50.5 -24.999v-232l-153 12l-15 98c-2 10 -7 16.333 -15 19c-6 1.33301 -14.167 2.5 -24.5 3.5
s-20.166 1.5 -29.499 1.5c-48.667 0 -87.167 -17.333 -115.5 -52s-42.5 -89.667 -42.5 -165c0 -76.667 13.5 -132.667 40.5 -168s63.833 -53 110.5 -53c9.33301 0 19.833 0.5 31.5 1.5s21.167 2.16699 28.5 3.5s12.333 3.16602 15 5.49902s4.66699 8.16602 6 17.499l15 96
h149v-220z" />
    <glyph glyph-name="afii10036" unicode="&#x422;" horiz-adv-x="738" 
d="M143 0v103.998l103 8c7.33301 0.666992 11.833 2.33398 13.5 5.00098s2.5 7.66699 2.5 15v446h-52c-5.33301 0 -9 -0.5 -11 -1.5s-3.66699 -4.16699 -5 -9.5l-16 -87l-153 -5v249h688v-249l-151 5l-16 87c-1.33301 5.33301 -3 8.5 -5 9.5s-5.66699 1.5 -11 1.5h-51v-446
c0 -7.33301 0.833008 -12.166 2.5 -14.499s6.16699 -3.83301 13.5 -4.5l110 -9v-104h-462z" />
    <glyph glyph-name="afii10037" unicode="&#x423;" horiz-adv-x="736" 
d="M418 621l10.001 103h288v-103l-42 -11c-8 -2 -14.167 -5.5 -18.5 -10.5s-8.16602 -11.833 -11.499 -20.5l-177 -432c-14.667 -36 -30.334 -64.667 -47.001 -86s-34.667 -37.333 -54 -48s-39.833 -17.5 -61.5 -20.5s-45.167 -4.5 -70.5 -4.5
c-12.667 0 -26.834 1 -42.501 3s-31.5 4.83301 -47.5 8.5s-31.333 8 -46 13s-27 10.5 -37 16.5l52 150c10.667 -6 24.334 -11.333 41.001 -16s33.334 -7 50.001 -7c13.333 0 25.166 2 35.499 6s18.5 13 24.5 27l-171 404c-2.66699 6 -5.83398 10 -9.50098 12
s-8.5 3.66699 -14.5 5l-45 11l10 103h349v-103l-70 -9l80 -225h11l79 225z" />
    <glyph glyph-name="afii10038" unicode="&#x424;" horiz-adv-x="911" 
d="M234 360c0 -25.333 10.5 -43.5 31.5 -54.5s52.5 -16.833 94.5 -17.5v156c-48 -1.33301 -81 -9.33301 -99 -24s-27 -34.667 -27 -60zM559 131c0 -8 0.835938 -13.002 2.50293 -15.002s6.16699 -3.66699 13.5 -5l77 -8v-103h-389v103l73 8
c7.33301 0.666992 11.833 2.33398 13.5 5.00098s2.5 7.66699 2.5 15v11c-36.667 2 -74.834 5 -114.501 9s-75.667 12.833 -108 26.5s-59 34 -80 61s-31.5 64.5 -31.5 112.5c0 34.667 5.5 66.167 16.5 94.5s29.5 52.833 55.5 73.5s60.333 37.167 103 49.5
s95.667 19.5 159 21.5v15c0 7.33301 -0.833008 12.333 -2.5 15s-6.16699 4.33398 -13.5 5.00098l-73 7v105h389v-105l-77 -8c-7.33301 -1.33301 -11.833 -3 -13.5 -5s-2.5 -6.66699 -2.5 -14v-15c37.333 -2 75.666 -5 114.999 -9s75.166 -12.833 107.499 -26.5
s59 -34 80 -61s31.5 -64.5 31.5 -112.5c0 -34.667 -5.5 -66.167 -16.5 -94.5s-29.5 -52.833 -55.5 -73.5s-60.333 -37.167 -103 -49.5s-95.667 -19.5 -159 -21.5v-11zM677.003 371.998c0 25.333 -10.5 43.5 -31.5 54.5s-52.5 16.833 -94.5 17.5v-156
c48 1.33301 81 9.33301 99 24s27 34.667 27 60z" />
    <glyph glyph-name="afii10039" unicode="&#x425;" horiz-adv-x="847" 
d="M424 0l-0.000976562 102.999l82 9l-107 126l-107 -126l80 -9v-103h-339v102l62 12c8 1.33301 13.833 3.5 17.5 6.5s7.83398 7.16699 12.501 12.5l185 211l-211 249c-5.33301 8.66699 -13.333 14.334 -24 17.001l-57 11l10 103h396v-103l-81 -9l111 -133l118 133l-81 9
l10 103h313v-103l-51 -11c-10.667 -2.66699 -20 -9 -28 -19l-191 -216l209 -244c8.66699 -10 18 -16 28 -18l52 -10v-103h-409z" />
    <glyph glyph-name="afii10040" unicode="&#x426;" horiz-adv-x="799" 
d="M703 152l78 0.00292969v-308l-151 10l-23 134c-0.666992 8 -5 12 -13 12h-579v105l63 7c7.33301 0.666992 11.833 2.33398 13.5 5.00098s2.5 7.66699 2.5 15v462c0 7.33301 -0.833008 12.166 -2.5 14.499s-6.16699 4.16602 -13.5 5.49902l-63 7v103h364v-103l-52 -8
c-7.33301 -1.33301 -11.833 -3 -13.5 -5s-2.5 -7 -2.5 -15v-448h175v449c0 7.33301 -0.833008 12.166 -2.5 14.499s-6.16699 4.16602 -13.5 5.49902l-48 7v103h364v-103l-67 -8c-7.33301 -1.33301 -11.833 -3 -13.5 -5s-2.5 -7 -2.5 -15v-441z" />
    <glyph glyph-name="afii10041" unicode="&#x427;" horiz-adv-x="729" 
d="M427 592c0 7.33301 -1 11.9971 -3 13.9971s-5 3.66699 -9 5l-39 8v105h341v-105l-57 -8c-7.33301 -1.33301 -11.833 -3 -13.5 -5s-2.5 -6.66699 -2.5 -14v-461c0 -8 0.833008 -13 2.5 -15s6.16699 -3.66699 13.5 -5l57 -8v-103h-469v103l163 8
c7.33301 0.666992 11.833 2.33398 13.5 5.00098s2.5 7.66699 2.5 15v118c-21.333 -3.33301 -41.666 -5.5 -60.999 -6.5s-36.333 -1.5 -51 -1.5c-54 0 -96.333 6.5 -127 19.5s-53.834 29.333 -69.501 49s-25.5 40.834 -29.5 63.501s-6 43.334 -6 62.001v157
c0 7.33301 -0.833008 12 -2.5 14s-6.16699 3.66699 -13.5 5l-47 8v105h327v-105l-35 -8c-4 -1.33301 -7 -3 -9 -5s-3 -6.66699 -3 -14v-137c0 -10.667 0.833008 -20.167 2.5 -28.5s5.33398 -15.333 11.001 -21s13.667 -10 24 -13s23.833 -4.5 40.5 -4.5
c4.66699 0 11.167 0.333008 19.5 1s18.166 1.66699 29.499 3v200z" />
    <glyph glyph-name="afii10042" unicode="&#x428;" horiz-adv-x="1073" 
d="M689 621l-28 -7c-6 -1.33301 -10.167 -3.16602 -12.5 -5.49902s-3.5 -7.16602 -3.5 -14.499v-449h116v448c0 8 -1 13 -3 15s-6.33301 3.66699 -13 5l-32 8v103h344v-103l-63 -7c-7.33301 -1.33301 -11.833 -3.16602 -13.5 -5.49902s-2.5 -7.16602 -2.5 -14.499v-462
c0 -7.33301 0.833008 -12.333 2.5 -15s6.16699 -4.33398 13.5 -5.00098l63 -7v-105h-1041v105l63 7c7.33301 0.666992 11.833 2.33398 13.5 5.00098s2.5 7.66699 2.5 15v462c0 7.33301 -0.833008 12.166 -2.5 14.499s-6.16699 4.16602 -13.5 5.49902l-63 7v103h344v-103
l-32 -8c-6.66699 -1.33301 -11 -3 -13 -5s-3 -7 -3 -15v-448h116v449c0 7.33301 -1.16699 12.166 -3.5 14.499s-6.5 4.16602 -12.5 5.49902l-28 7v103h305v-103z" />
    <glyph glyph-name="afii10043" unicode="&#x429;" horiz-adv-x="1073" 
d="M1056 152v-308.001l-151 10l-23 134c-0.666992 8 -5 12 -13 12h-853v105l63 7c7.33301 0.666992 11.833 2.33398 13.5 5.00098s2.5 7.66699 2.5 15v462c0 7.33301 -0.833008 12.166 -2.5 14.499s-6.16699 4.16602 -13.5 5.49902l-63 7v103h344v-103l-32 -8
c-6.66699 -1.33301 -11 -3 -13 -5s-3 -7 -3 -15v-448h116v449c0 7.33301 -1.16699 12.166 -3.5 14.499s-6.5 4.16602 -12.5 5.49902l-28 7v103h305v-103l-28 -7c-6 -1.33301 -10.167 -3.16602 -12.5 -5.49902s-3.5 -7.16602 -3.5 -14.499v-449h116v448c0 8 -1 13 -3 15
s-6.33301 3.66699 -13 5l-32 8v103h344v-103l-63 -7c-7.33301 -1.33301 -11.833 -3.16602 -13.5 -5.49902s-2.5 -7.16602 -2.5 -14.499v-442h78z" />
    <glyph glyph-name="afii10044" unicode="&#x42a;" horiz-adv-x="833" 
d="M43 724l552.998 -0.00195312v-104l-93 -8c-7.33301 -0.666992 -11.833 -2.16699 -13.5 -4.5s-2.5 -7.5 -2.5 -15.5v-150h71c46 0 84.833 -5 116.5 -15s57.334 -24 77.001 -42s33.834 -39.833 42.501 -65.5s13 -54.5 13 -86.5c0 -41.333 -6.66699 -76.666 -20 -105.999
s-32 -53.5 -56 -72.5s-52.667 -32.833 -86 -41.5s-70 -13 -110 -13h-343v105l63 7c7.33301 0.666992 11.833 2.33398 13.5 5.00098s2.5 7.66699 2.5 15v446h-53c-5.33301 0 -9 -0.5 -11 -1.5s-3.66699 -4.16699 -5 -9.5l-16 -97h-143v254zM505.998 142.998
c25.333 0 44.833 6.16699 58.5 18.5s20.5 34.166 20.5 65.499c0 18 -2.66699 32.167 -8 42.5s-12.166 18.333 -20.499 24s-17.833 9.33398 -28.5 11.001s-21.334 2.5 -32.001 2.5h-9v-164h19z" />
    <glyph glyph-name="afii10045" unicode="&#x42b;" horiz-adv-x="1028" 
d="M311 442h70.998c46 0 84.833 -5 116.5 -15s57.334 -24 77.001 -42s33.834 -39.833 42.501 -65.5s13 -54.5 13 -86.5c0 -41.333 -6.66699 -76.666 -20 -105.999s-32 -53.5 -56 -72.5s-52.667 -32.833 -86 -41.5s-70 -13 -110 -13h-343v105l63 7
c7.33301 0.666992 11.833 2.33398 13.5 5.00098s2.5 7.66699 2.5 15v461c0 7.33301 -0.833008 12.166 -2.5 14.499s-6.16699 4.16602 -13.5 5.49902l-73 7v104h414v-104l-93 -8c-7.33301 -0.666992 -11.833 -2.16699 -13.5 -4.5s-2.5 -7.5 -2.5 -15.5v-150zM329.998 143
c25.333 0 44.833 6.16699 58.5 18.5s20.5 34.166 20.5 65.499c0 18 -2.66699 32.167 -8 42.5s-12.166 18.333 -20.499 24s-17.833 9.33398 -28.5 11.001s-21.334 2.5 -32.001 2.5h-9v-164h19zM626.998 0v102.998l73 8c7.33301 0.666992 11.833 2.33398 13.5 5.00098
s2.5 7.66699 2.5 15v461c0 7.33301 -0.833008 12.333 -2.5 15s-6.16699 4.33398 -13.5 5.00098l-73 7v105h399v-105l-77 -8c-7.33301 -1.33301 -11.833 -3 -13.5 -5s-2.5 -6.66699 -2.5 -14v-461c0 -8 0.833008 -13 2.5 -15s6.16699 -3.66699 13.5 -5l77 -8v-103h-399z" />
    <glyph glyph-name="afii10046" unicode="&#x42c;" horiz-adv-x="657" 
d="M311 442h70.998c46 0 84.833 -5 116.5 -15s57.334 -24 77.001 -42s33.834 -39.833 42.501 -65.5s13 -54.5 13 -86.5c0 -41.333 -6.66699 -76.666 -20 -105.999s-32 -53.5 -56 -72.5s-52.667 -32.833 -86 -41.5s-70 -13 -110 -13h-343v105l63 7
c7.33301 0.666992 11.833 2.33398 13.5 5.00098s2.5 7.66699 2.5 15v461c0 7.33301 -0.833008 12.166 -2.5 14.499s-6.16699 4.16602 -13.5 5.49902l-73 7v104h414v-104l-93 -8c-7.33301 -0.666992 -11.833 -2.16699 -13.5 -4.5s-2.5 -7.5 -2.5 -15.5v-150zM329.998 143
c25.333 0 44.833 6.16699 58.5 18.5s20.5 34.166 20.5 65.499c0 18 -2.66699 32.167 -8 42.5s-12.166 18.333 -20.499 24s-17.833 9.33398 -28.5 11.001s-21.334 2.5 -32.001 2.5h-9v-164h19z" />
    <glyph glyph-name="afii10047" unicode="&#x42d;" horiz-adv-x="694" 
d="M55 679c16 9.33301 34.168 17.498 54.501 24.498s41.5 13 63.5 18s44.167 8.83301 66.5 11.5s43.5 4 63.5 4c66 0 122.667 -7.83301 170 -23.5s86 -39 116 -70s52 -69.167 66 -114.5s21 -97.666 21 -156.999c0 -56 -8.66699 -107.5 -26 -154.5
s-42.666 -87.5 -75.999 -121.5s-74.5 -60.5 -123.5 -79.5s-105.167 -28.5 -168.5 -28.5c-20 0 -40.833 1.33301 -62.5 4s-43 6.5 -64 11.5s-40.833 11.167 -59.5 18.5s-35.667 15.666 -51 24.999v220h153l16 -101c1.33301 -6 3.16602 -10 5.49902 -12
s6.16602 -3.66699 11.499 -5c14 -2.66699 31.333 -4 52 -4c41.333 0 77.833 11.667 109.5 35s51.167 59.333 58.5 108h-211v151h210c-8 48.667 -26.167 84.667 -54.5 108s-61.5 35 -99.5 35c-10 0 -20 -0.333008 -30 -1s-18.667 -1.66699 -26 -3
s-12.333 -3.16602 -15 -5.49902s-4.66699 -8.16602 -6 -17.499l-15 -96h-149v220z" />
    <glyph glyph-name="afii10048" unicode="&#x42e;" horiz-adv-x="1058" 
d="M390 446c7.33301 42.667 19.501 81.8311 36.501 117.498s39.167 66.334 66.5 92.001s59.833 45.667 97.5 60s80.5 21.5 128.5 21.5c57.333 0 106.166 -9.66699 146.499 -29s73.5 -45.666 99.5 -78.999s45 -72.333 57 -117s18 -92 18 -142
c0 -58.667 -6.83301 -111.5 -20.5 -158.5s-34.167 -87 -61.5 -120s-62 -58.5 -104 -76.5s-91.667 -27 -149 -27c-52 0 -97.167 7.5 -135.5 22.5s-70.5 36 -96.5 63s-46 59.333 -60 97s-23 78.834 -27 123.501h-74v-163c0 -8 0.833008 -13 2.5 -15s6.16699 -3.66699 13.5 -5
l72 -8v-103h-384v103l63 7c7.33301 1.33301 11.833 3.16602 13.5 5.49902s2.5 7.16602 2.5 14.499v462c0 7.33301 -0.833008 12.333 -2.5 15s-6.16699 4.33398 -13.5 5.00098l-63 7v105h384v-105l-72 -8c-7.33301 -1.33301 -11.833 -3 -13.5 -5s-2.5 -6.66699 -2.5 -14v-146
h78zM714.001 155.997c16.667 0 31.5 3.1709 44.5 9.50391s23.833 17.166 32.5 32.499s15.167 36.166 19.5 62.499s6.5 59.833 6.5 100.5c0 38.667 -1.83301 71.167 -5.5 97.5s-9.5 47.666 -17.5 63.999s-18.333 28.166 -31 35.499s-27.667 11 -45 11
c-36.667 0 -64.5 -15.667 -83.5 -47s-28.5 -85.333 -28.5 -162c0 -40 2.16699 -73 6.5 -99s11 -46.833 20 -62.5s20.333 -26.667 34 -33s29.5 -9.5 47.5 -9.5z" />
    <glyph glyph-name="afii10049" unicode="&#x42f;" horiz-adv-x="739" 
d="M427 578h-36.001c-23.333 0 -42.666 -6 -57.999 -18s-23 -32.667 -23 -62c0 -18.667 2.66699 -33.5 8 -44.5s12.333 -19.5 21 -25.5s18.5 -9.83301 29.5 -11.5s22.5 -2.5 34.5 -2.5h24v164zM236.999 337c-20 4.66699 -38.998 11.6689 -56.998 21.002
s-33.833 21.166 -47.5 35.499s-24.5 31.666 -32.5 51.999s-12 43.5 -12 69.5c0 44 8.16699 79.667 24.5 107s37 48.5 62 63.5s52.667 25.167 83 30.5s59.833 8 88.5 8h376v-104l-63 -7c-7.33301 -1.33301 -11.833 -3.16602 -13.5 -5.49902s-2.5 -7.16602 -2.5 -14.499v-461
c0 -7.33301 0.833008 -12.333 2.5 -15s6.16699 -4.33398 13.5 -5.00098l63 -7v-105h-352v105l39 7c7.33301 1.33301 12.166 3.16602 14.499 5.49902s3.5 7.5 3.5 15.5v151h-7c-15.333 0 -26.666 -3.83301 -33.999 -11.5s-15.333 -21.167 -24 -40.5
c-17.333 -40 -32.833 -78.167 -46.5 -114.5s-27.167 -75.5 -40.5 -117.5h-263v103l51 8c9.33301 1.33301 15.666 3.5 18.999 6.5s6.66602 8.16699 9.99902 15.5l54 114c9.33301 19.333 20.5 36.5 33.5 51.5s32.167 26.167 57.5 33.5v5z" />
    <glyph glyph-name="afii10065" unicode="&#x430;" horiz-adv-x="574" 
d="M345 0l-11.0039 49.9971l-7 2c-14 -14.667 -33 -29 -57 -43s-56.667 -21 -98 -21c-32 0 -57.833 4.83301 -77.5 14.5s-35 22.167 -46 37.5s-18.5 32.5 -22.5 51.5s-6 37.5 -6 55.5c0 50 15.833 86.333 47.5 109s79.834 36.334 144.501 41.001l95 7v56
c0 6 -0.166992 11.833 -0.5 17.5s-1.66602 10.834 -3.99902 15.501s-6 8.5 -11 11.5s-12.167 4.5 -21.5 4.5c-15.333 0 -25.333 -3.83301 -30 -11.5s-7 -22.5 -7 -44.5l-196 14c0 36.667 7.5 66.334 22.5 89.001s34 40.167 57 52.5s48.667 20.5 77 24.5s55.5 6 81.5 6
c40.667 0 75.834 -3 105.501 -9s54.334 -16 74.001 -30s34.167 -33 43.5 -57s14 -54 14 -90v-221c0 -8 0.833008 -13 2.5 -15s6.16699 -3.66699 13.5 -5l45 -8v-104h-228zM306.996 208.997l-23 -2c-16.667 -1.33301 -29 -5.33301 -37 -12s-12 -17.667 -12 -33
c0 -12.667 3.66699 -22.167 11 -28.5s17 -9.5 29 -9.5c9.33301 0 20 2 32 6v79z" />
    <glyph glyph-name="afii10066" unicode="&#x431;" horiz-adv-x="579" 
d="M288 -12c-53.333 0 -97.335 8.49414 -132.002 25.4941s-62 40.167 -82 69.5s-34 64.333 -42 105s-12 84.334 -12 131.001c0 52 5 100.833 15 146.5s26.167 86.334 48.5 122.001s51.833 65.334 88.5 89.001s81.334 39.167 134.001 46.5c21.333 3.33301 38 5.5 50 6.5
s21.333 2.33301 28 4s11.167 3.83398 13.5 6.50098s4.5 7 6.5 13l146 6c1.33301 -8 2.33301 -15.833 3 -23.5s1 -15.167 1 -22.5c0 -83.333 -43.667 -130.333 -131 -141c-48.667 -6 -89.334 -11.333 -122.001 -16s-59.667 -11.667 -81 -21s-38 -22.333 -50 -39
s-22 -39.667 -30 -69l6 -2c18.667 28 43.834 50.667 75.501 68s70.834 26 117.501 26c40 0 74.167 -6 102.5 -18s51.5 -29 69.5 -51s31.333 -48.5 40 -79.5s13 -65.5 13 -103.5c0 -42 -5.16699 -80.167 -15.5 -114.5s-26.5 -63.666 -48.5 -87.999
s-50.5 -43.166 -85.5 -56.499s-77.167 -20 -126.5 -20zM343.998 258.994c0 23.333 -1.16699 42.5039 -3.5 57.5039s-5.66602 27 -9.99902 36s-9.66602 15.167 -15.999 18.5s-13.166 5 -20.499 5s-14.333 -1.5 -21 -4.5s-12.334 -8.83301 -17.001 -17.5
s-8.33398 -20.834 -11.001 -36.501s-4 -35.834 -4 -60.501c0 -26 1.16699 -47.333 3.5 -64s5.66602 -29.834 9.99902 -39.501s9.66602 -16.334 15.999 -20.001s13.166 -5.5 20.499 -5.5s14.333 1.66699 21 5s12.334 9.83301 17.001 19.5s8.33398 23 11.001 40
s4 39.167 4 66.5z" />
    <glyph glyph-name="afii10067" unicode="&#x432;" horiz-adv-x="586" 
d="M289 118c22 0 37.5 4 46.5 12s13.5 20.667 13.5 38c0 20.667 -6.16699 33.667 -18.5 39s-25.5 8 -39.5 8h-24v-97h22zM286 323c14 0 25.833 2.83105 35.5 8.49805s14.5 17.834 14.5 36.501c0 8.66699 -1.5 15.5 -4.5 20.5s-6.83301 8.83301 -11.5 11.5
s-9.66699 4.33398 -15 5.00098s-10.333 1 -15 1h-23v-83h19zM340 527.998c72.667 0 123.999 -11.6631 153.999 -34.9961s45 -54.666 45 -93.999c0 -18.667 -3 -34.667 -9 -48s-13.833 -24.833 -23.5 -34.5s-20.667 -17.5 -33 -23.5s-25.166 -11 -38.499 -15v-4
c50 -5.33301 85.667 -18.833 107 -40.5s32 -49.5 32 -83.5c0 -28.667 -6.66699 -52.667 -20 -72s-31.333 -34.833 -54 -46.5s-49 -19.834 -79 -24.501s-61.667 -7 -95 -7h-317v104l41 7c7.33301 1.33301 11.833 3.16602 13.5 5.49902s2.5 7.16602 2.5 14.499v266
c0 7.33301 -0.833008 12.166 -2.5 14.499s-6.16699 4.16602 -13.5 5.49902l-41 7v104h331z" />
    <glyph glyph-name="afii10068" unicode="&#x433;" horiz-adv-x="514" 
d="M494 299l-143 5.00391l-13 82c-1.33301 7.33301 -2.83301 12.5 -4.5 15.5s-6.16699 4.5 -13.5 4.5h-41v-275c0 -8 0.833008 -13.5 2.5 -16.5s6.16699 -4.83301 13.5 -5.5l93 -5v-104h-377v104l41 7c7.33301 1.33301 11.833 3.16602 13.5 5.49902s2.5 7.16602 2.5 14.499
v266c0 7.33301 -0.833008 12.166 -2.5 14.499s-6.16699 4.16602 -13.5 5.49902l-41 7v104h483v-229z" />
    <glyph glyph-name="afii10069" unicode="&#x434;" horiz-adv-x="671" 
d="M398 132v264.002h-82v-74c0 -38.667 -3.83301 -73.334 -11.5 -104.001s-18.167 -59.334 -31.5 -86.001h125zM193 0.00195312c-7.33301 0 -11.833 -1.5 -13.5 -4.5s-3.16699 -8.16699 -4.5 -15.5l-16 -105l-144 -10v281h58c20 24.667 33.833 54.5 41.5 89.5
s11.5 72.833 11.5 113.5v48c0 7.33301 -0.833008 12.166 -2.5 14.499s-6.16699 4.16602 -13.5 5.49902l-41 7v104h587v-104l-41 -7c-7.33301 -1.33301 -11.833 -3.16602 -13.5 -5.49902s-2.5 -7.16602 -2.5 -14.499v-251h57v-281l-144 10l-16 105
c-1.33301 7.33301 -2.83301 12.5 -4.5 15.5s-6.16699 4.5 -13.5 4.5h-285z" />
    <glyph glyph-name="afii10070" unicode="&#x435;" horiz-adv-x="543" 
d="M521 46c-38 -17.333 -75.832 -31.335 -113.499 -42.002s-76.5 -16 -116.5 -16c-50.667 0 -93.667 7.16699 -129 21.5s-63.833 34 -85.5 59s-37.334 54.5 -47.001 88.5s-14.5 71 -14.5 111c0 46 7 85.833 21 119.5s33.167 61.834 57.5 84.501s52.833 39.5 85.5 50.5
s67.334 16.5 104.001 16.5c35.333 0 67.333 -4.83301 96 -14.5s53.167 -24.834 73.5 -45.501s36 -47.167 47 -79.5s16.5 -71.166 16.5 -116.499c0 -5.33301 -0.166992 -13.666 -0.5 -24.999s-1.16602 -23.333 -2.49902 -36h-276c2 -28.667 10 -49 24 -61s33.667 -18 59 -18
c11.333 0 29.666 2 54.999 6s58.666 12.333 99.999 25zM316.001 324.998c0.666992 15.333 0 27.667 -2 37s-5 16.5 -9 21.5s-8.5 8.33301 -13.5 10s-10.167 2.5 -15.5 2.5c-11.333 0 -20.833 -4.5 -28.5 -13.5s-12.167 -28.167 -13.5 -57.5h82z" />
    <glyph glyph-name="afii10072" unicode="&#x436;" horiz-adv-x="947" 
d="M368 328l-0.00488281 56c0 12 -4.33301 19.667 -13 23l-41 17l14 104h251v-200h21c16 0 27.333 4.66699 34 14s12.667 22.333 18 39l19 65c9.33301 32 25.333 55.5 48 70.5s51 22.5 85 22.5c16 0 34.333 -1.83301 55 -5.5s38.667 -8.16699 54 -13.5l-17 -125
c-7.33301 2 -14 3.33301 -20 4s-11.667 1 -17 1c-18.667 0 -31 -10 -37 -30l-14 -44c-4 -12 -9.5 -22.167 -16.5 -30.5s-16.5 -14.833 -28.5 -19.5v-4c17.333 -4.66699 30.333 -12.667 39 -24s16.667 -25 24 -41l36 -76c3.33301 -7.33301 7 -12.166 11 -14.499
s9.66699 -4.16602 17 -5.49902l47 -7v-104h-236c-11.333 34.667 -21.666 64.667 -30.999 90l-25 67c-8 20 -15.667 33.333 -23 40s-16.666 10 -27.999 10h-15v-76c0 -8 0.833008 -13.333 2.5 -16s6.16699 -4.66699 13.5 -6l27 -5v-104h-301v104l31 5
c7.33301 1.33301 11.833 3.5 13.5 6.5s2.5 8.16699 2.5 15.5v76h-15c-11.333 0 -21.166 -4 -29.499 -12s-16.5 -22 -24.5 -42l-25 -65c-9.33301 -24 -19.666 -53.333 -30.999 -88h-233v104l47 7c7.33301 1.33301 13 3.16602 17 5.49902s7.66699 7.16602 11 14.499l36 76
c7.33301 16 15.333 29.667 24 41s21.667 19.333 39 24v4c-13.333 5.33301 -23.5 13.5 -30.5 24.5s-12.5 22.5 -16.5 34.5l-12 36c-7.33301 19.333 -20.333 29 -39 29c-5.33301 0 -10.666 -0.333008 -15.999 -1s-11.666 -2 -18.999 -4l-16 124
c15.333 6 33.166 10.833 53.499 14.5s38.5 5.5 54.5 5.5c38.667 0 68 -7 88 -21s34.667 -37 44 -69l20 -68c5.33301 -17.333 11.333 -30.5 18 -39.5s18 -13.5 34 -13.5h21z" />
    <glyph glyph-name="afii10073" unicode="&#x437;" horiz-adv-x="517" 
d="M259 539c42 0 77.333 -3.1709 106 -9.50391s51.667 -15.333 69 -27s29.833 -25.834 37.5 -42.501s11.5 -35.334 11.5 -56.001c0 -18.667 -3.16699 -35.167 -9.5 -49.5s-14.166 -26.5 -23.499 -36.5s-19.666 -18.167 -30.999 -24.5s-21.666 -11.166 -30.999 -14.499v-4
c13.333 -2.66699 26.333 -6.5 39 -11.5s24.334 -11.833 35.001 -20.5s19.167 -20 25.5 -34s9.5 -32 9.5 -54c0 -30.667 -7.66699 -56.5 -23 -77.5s-34.833 -38.167 -58.5 -51.5s-50 -23 -79 -29s-57.5 -9 -85.5 -9c-46 0 -90 6.16699 -132 18.5s-76.667 28.833 -104 49.5
l63 125c6 -3.33301 14.333 -7.66602 25 -12.999s23.167 -10.5 37.5 -15.5s30.166 -9.33301 47.499 -13s35.333 -5.5 54 -5.5c21.333 0 35.833 3 43.5 9s11.5 13.333 11.5 22c0 7.33301 -1.33301 13 -4 17s-5.83398 6.83301 -9.50098 8.5s-7.5 2.66699 -11.5 3
s-7.33301 0.5 -10 0.5h-109v132h54c17.333 0 31.333 1.5 42 4.5s19 6.66699 25 11s10 9.33301 12 15s3 10.834 3 15.501c0 11.333 -3.33301 20.666 -10 27.999s-18.334 11 -35.001 11c-3.33301 0 -7.33301 -0.166992 -12 -0.5s-9.66699 -1.16602 -15 -2.49902
c-6.66699 -1.33301 -11 -6.66602 -13 -15.999l-8 -36l-151 -5v141c11.333 5.33301 25.166 10.833 41.499 16.5s34.166 10.834 53.499 15.501s39.333 8.33398 60 11.001s40.334 4 59.001 4z" />
    <glyph glyph-name="afii10074" unicode="&#x438;" horiz-adv-x="673" 
d="M10 0v104l41 7c7.33301 1.33301 11.833 3.16602 13.5 5.49902s2.5 7.16602 2.5 14.499v266c0 7.33301 -0.833008 12.166 -2.5 14.499s-6.16699 4.16602 -13.5 5.49902l-41 7v104h302v-104l-37 -7c-7.33301 -1.33301 -11.833 -3 -13.5 -5s-2.5 -7 -2.5 -15v-163h4l166 294
h234v-104l-41 -7c-7.33301 -1.33301 -11.833 -3.16602 -13.5 -5.49902s-2.5 -7.16602 -2.5 -14.499v-266c0 -7.33301 0.833008 -12.166 2.5 -14.499s6.16699 -4.16602 13.5 -5.49902l41 -7v-104h-302v104l37 7c7.33301 1.33301 11.833 3 13.5 5s2.5 7 2.5 15v133h-4
l-146 -264h-254z" />
    <glyph glyph-name="afii10075" unicode="&#x439;" horiz-adv-x="673" 
d="M10 0v104l41 7c7.33301 1.33301 11.833 3.16602 13.5 5.49902s2.5 7.16602 2.5 14.499v266c0 7.33301 -0.833008 12.166 -2.5 14.499s-6.16699 4.16602 -13.5 5.49902l-41 7v104h302v-104l-37 -7c-7.33301 -1.33301 -11.833 -3 -13.5 -5s-2.5 -7 -2.5 -15v-163h4l166 294
h234v-104l-41 -7c-7.33301 -1.33301 -11.833 -3.16602 -13.5 -5.49902s-2.5 -7.16602 -2.5 -14.499v-266c0 -7.33301 0.833008 -12.166 2.5 -14.499s6.16699 -4.16602 13.5 -5.49902l41 -7v-104h-302v104l37 7c7.33301 1.33301 11.833 3 13.5 5s2.5 7 2.5 15v133h-4
l-146 -264h-254zM351 667c19.333 0 34.167 5.83301 44.5 17.5s18.166 33.5 23.499 65.5l115 -29c-9.33301 -51.333 -29 -90.5 -59 -117.5s-72 -40.5 -126 -40.5c-54.667 0 -97 13.333 -127 40s-48.667 65 -56 115l120 34c2.66699 -28.667 8.83398 -50 18.501 -64
s25.167 -21 46.5 -21z" />
    <glyph glyph-name="afii10076" unicode="&#x43a;" horiz-adv-x="656" 
d="M410 0c-11.333 34.667 -21.834 64.6689 -31.501 90.002l-25.5 67c-8 20 -16 33.333 -24 40s-18.667 10 -32 10h-19v-76c0 -8 0.833008 -13 2.5 -15s6.16699 -3.66699 13.5 -5l37 -7v-104h-321v104l41 7c7.33301 1.33301 11.833 3.16602 13.5 5.49902
s2.5 7.16602 2.5 14.499v266c0 7.33301 -0.833008 12.166 -2.5 14.499s-6.16699 4.16602 -13.5 5.49902l-41 7v104h321v-104l-37 -7c-7.33301 -1.33301 -11.833 -3 -13.5 -5s-2.5 -7 -2.5 -15v-69h21c21.333 0 36.166 5.83301 44.499 17.5s14.166 23.5 17.499 35.5l17 57
c10.667 36 27.334 61.833 50.001 77.5s51 23.5 85 23.5c16 0 33 -1.66699 51 -5s37.333 -8 58 -14l-17 -125c-7.33301 2 -13.833 3.33301 -19.5 4s-11.167 1 -16.5 1c-10 0 -18.167 -2.5 -24.5 -7.5s-11.166 -13.5 -14.499 -25.5l-12 -40
c-7.33301 -25.333 -22.666 -42.333 -45.999 -51v-4c17.333 -4.66699 30.333 -12.667 39 -24s16.667 -25 24 -41l36 -76c3.33301 -7.33301 7 -12.166 11 -14.499s9.66699 -4.16602 17 -5.49902l47 -7v-104h-236z" />
    <glyph glyph-name="afii10077" unicode="&#x43b;" horiz-adv-x="676" 
d="M322 396c0 -4.66699 -0.167969 -15.1709 -0.500977 -31.5039s-1.16602 -34.666 -2.49902 -54.999s-3.33301 -41.166 -6 -62.499s-6 -40 -10 -56s-10.5 -36 -19.5 -60s-23 -47 -42 -69s-44.333 -40.667 -76 -56s-72.167 -22.333 -121.5 -21l-34 175
c42.667 3.33301 72.834 17 90.501 41s28.167 60.333 31.5 109c1.33301 22.667 2.16602 40.667 2.49902 54s0.5 24.333 0.5 33c0 7.33301 -0.833008 12.166 -2.5 14.499s-6.16699 4.16602 -13.5 5.49902l-41 7v104h587v-104l-41 -7
c-7.33301 -1.33301 -11.833 -3.16602 -13.5 -5.49902s-2.5 -7.16602 -2.5 -14.499v-266c0 -7.33301 0.833008 -12.166 2.5 -14.499s6.16699 -4.16602 13.5 -5.49902l41 -7v-104h-317v104l33 5c7.33301 1.33301 11.833 3.33301 13.5 6s2.5 8 2.5 16v265h-75z" />
    <glyph glyph-name="afii10078" unicode="&#x43c;" horiz-adv-x="784" 
d="M11 0v104l41 7c7.33301 1.33301 11.833 3.16602 13.5 5.49902s2.5 7.16602 2.5 14.499v266c0 7.33301 -0.833008 12.166 -2.5 14.499s-6.16699 4.16602 -13.5 5.49902l-41 7v104h296l85 -238h4l88 238h289v-104l-41 -7
c-7.33301 -1.33301 -11.833 -3.16602 -13.5 -5.49902s-2.5 -7.16602 -2.5 -14.499v-266c0 -7.33301 0.833008 -12.166 2.5 -14.499s6.16699 -4.16602 13.5 -5.49902l41 -7v-104h-327v104l61 7c7.33301 1.33301 11.833 3.16602 13.5 5.49902s2.5 7.16602 2.5 14.499v153h-4
l-52 -146h-182l-56 146h-4v-153c0 -7.33301 0.833008 -12.166 2.5 -14.499s6.16699 -4.16602 13.5 -5.49902l61 -7v-104h-291z" />
    <glyph glyph-name="afii10079" unicode="&#x43d;" horiz-adv-x="689" 
d="M411 338v59c0 8 -0.833008 13 -2.5 15s-6.16699 3.66699 -13.5 5l-35 7v104h319v-104l-41 -7c-7.33301 -1.33301 -11.833 -3.16602 -13.5 -5.49902s-2.5 -7.16602 -2.5 -14.499v-266c0 -7.33301 0.833008 -12.166 2.5 -14.499s6.16699 -4.16602 13.5 -5.49902l41 -7v-104
h-319v104l35 7c7.33301 1.33301 11.833 3 13.5 5s2.5 7 2.5 15v72h-133v-72c0 -8 0.833008 -13 2.5 -15s6.16699 -3.66699 13.5 -5l35 -7v-104h-319v104l41 7c7.33301 1.33301 11.833 3.16602 13.5 5.49902s2.5 7.16602 2.5 14.499v266
c0 7.33301 -0.833008 12.166 -2.5 14.499s-6.16699 4.16602 -13.5 5.49902l-41 7v104h319v-104l-35 -7c-7.33301 -1.33301 -11.833 -3 -13.5 -5s-2.5 -7 -2.5 -15v-59h133z" />
    <glyph glyph-name="afii10080" unicode="&#x43e;" horiz-adv-x="594" 
d="M293 -12c-48.667 0 -90.6699 6.33398 -126.003 19.001s-64.166 31 -86.499 55s-38.833 53 -49.5 87s-16 72.333 -16 115c0 41.333 5.83301 79 17.5 113s29.334 63 53.001 87s53.667 42.5 90 55.5s78.833 19.5 127.5 19.5c50 0 92.5 -6.66699 127.5 -20
s63.5 -31.833 85.5 -55.5s38 -51.834 48 -84.501s15 -68.667 15 -108c0 -42.667 -5.66699 -81.5 -17 -116.5s-28.666 -64.833 -51.999 -89.5s-53 -43.667 -89 -57s-78.667 -20 -128 -20zM297.997 128.001c8 0 15.8311 1.99902 23.498 5.99902s14.167 11.167 19.5 21.5
s9.66602 24.5 12.999 42.5s5 41 5 69c0 26 -1.5 47.5 -4.5 64.5s-7.16699 30.167 -12.5 39.5s-11.666 15.833 -18.999 19.5s-15 5.5 -23 5.5s-15.833 -1.66699 -23.5 -5s-14.5 -9.66602 -20.5 -18.999s-10.833 -22.5 -14.5 -39.5s-5.5 -39.167 -5.5 -66.5s1.5 -50 4.5 -68
s7.33301 -32.167 13 -42.5s12.334 -17.5 20.001 -21.5s15.834 -6 24.501 -6z" />
    <glyph glyph-name="afii10081" unicode="&#x43f;" horiz-adv-x="661" 
d="M651 528v-104l-41 -7c-7.33301 -1.33301 -11.833 -3.16602 -13.5 -5.49902s-2.5 -7.16602 -2.5 -14.499v-266c0 -7.33301 0.833008 -12.166 2.5 -14.499s6.16699 -4.16602 13.5 -5.49902l41 -7v-104h-307v104l23 5c7.33301 1.33301 11.833 3.33301 13.5 6s2.5 8 2.5 16
v265h-105v-265c0 -8 0.833008 -13.333 2.5 -16s6.16699 -4.66699 13.5 -6l23 -5v-104h-307v104l41 7c7.33301 1.33301 11.833 3.16602 13.5 5.49902s2.5 7.16602 2.5 14.499v266c0 7.33301 -0.833008 12.166 -2.5 14.499s-6.16699 4.16602 -13.5 5.49902l-41 7v104h641z" />
    <glyph glyph-name="afii10082" unicode="&#x440;" horiz-adv-x="625" 
d="M2 -212v105.001l38 6c7.33301 1.33301 12.5 3.33301 15.5 6s4.5 8 4.5 16v459c0 10.667 -4.33301 17.667 -13 21l-50 19l14 108h218l9 -44l7 -2c28 21.333 56.167 36.166 84.5 44.499s54.166 12.5 77.499 12.5c28 0 53.833 -4.5 77.5 -13.5s44.334 -24 62.001 -45
s31.5 -48.333 41.5 -82s15 -75.167 15 -124.5c0 -52.667 -5.33301 -97.167 -16 -133.5s-25.167 -65.833 -43.5 -88.5s-39.833 -39.167 -64.5 -49.5s-50.667 -15.5 -78 -15.5c-23.333 0 -47.333 4.16699 -72 12.5s-46 19.5 -64 33.5v-110c0 -8 1 -13.167 3 -15.5
s6.66699 -3.83301 14 -4.5l114 -11v-104h-394zM269 157.001c9.33301 -3.33301 18.166 -6.00098 26.499 -8.00098s17.166 -3 26.499 -3c21.333 0 36.333 11 45 33s13 51.333 13 88c0 34.667 -5.33301 61.834 -16 81.501s-26.667 29.5 -48 29.5
c-7.33301 0 -15.166 -1 -23.499 -3s-16.166 -5 -23.499 -9v-209z" />
    <glyph glyph-name="afii10083" unicode="&#x441;" horiz-adv-x="534" 
d="M502 45c-27.333 -16.667 -58.834 -30.3369 -94.501 -41.0039s-73.5 -16 -113.5 -16c-48 0 -89.5 6.83301 -124.5 20.5s-64 32.5 -87 56.5s-40 52.167 -51 84.5s-16.5 67.5 -16.5 105.5c0 46 7 86.667 21 122s33.667 65 59 89s55.333 42.167 90 54.5s73 18.5 115 18.5
c20.667 0 41 -1.5 61 -4.5s39 -6.83301 57 -11.5s34.333 -10.167 49 -16.5s27 -13.166 37 -20.499v-181l-147 5l-12 67c-1.33301 4.66699 -2.66602 8.5 -3.99902 11.5s-4 5.16699 -8 6.5c-8.66699 2.66699 -19.667 4 -33 4c-8 0 -15.833 -2 -23.5 -6
s-14.5 -10.667 -20.5 -20s-10.833 -21.666 -14.5 -36.999s-5.5 -34.666 -5.5 -57.999c0 -30 2.83301 -54.167 8.5 -72.5s13.167 -32.333 22.5 -42s19.833 -16.167 31.5 -19.5s23.167 -5 34.5 -5c25.333 0 48.5 2.83301 69.5 8.5s38.5 10.834 52.5 15.501z" />
    <glyph glyph-name="afii10084" unicode="&#x442;" horiz-adv-x="635" 
d="M616 528v-229l-133 5l-13 82c-1.33301 7.33301 -2.83301 12.5 -4.5 15.5s-6.16699 4.5 -13.5 4.5h-26v-275c0 -7.33301 0.833008 -12.333 2.5 -15s6.16699 -4.33398 13.5 -5.00098l81 -7v-104h-405v104l81 7c7.33301 0.666992 11.833 2.33398 13.5 5.00098
s2.5 7.66699 2.5 15v275h-26c-7.33301 0 -11.833 -1.5 -13.5 -4.5s-3.16699 -8.16699 -4.5 -15.5l-13 -82l-133 -5v229h591z" />
    <glyph glyph-name="afii10085" unicode="&#x443;" horiz-adv-x="657" 
d="M422 -54c-13.333 -33.333 -27 -60.998 -41 -82.998s-30 -39.5 -48 -52.5s-38.333 -22.167 -61 -27.5s-49 -8 -79 -8c-27.333 0 -56.5 4.16699 -87.5 12.5s-58.167 19.166 -81.5 32.499l43 134c15.333 -8 33 -15.5 53 -22.5s39.667 -10.5 59 -10.5
c20 0 35.5 3.66699 46.5 11s21.167 21 30.5 41l5 11l-201 410c-2 6 -4.5 10 -7.5 12s-7.5 3.66699 -13.5 5l-41 9l20 108h319v-108l-59 -8l88 -202h8l79 202l-62 8l15 108h253v-108l-32 -6c-9.33301 -1.33301 -15.5 -3.83301 -18.5 -7.5s-5.83301 -8.83398 -8.5 -15.501z
" />
    <glyph glyph-name="afii10086" unicode="&#x444;" horiz-adv-x="853" 
d="M324 607c0 5.33301 -0.667969 9.66797 -2.00098 13.001s-4.66602 6 -9.99902 8l-52 19l13 108h256v-224c56 -2 103.667 -9.33301 143 -22s71.333 -30.167 96 -52.5s42.5 -49 53.5 -80s16.5 -66.167 16.5 -105.5c0 -53.333 -8.16699 -97.5 -24.5 -132.5
s-38.5 -63.333 -66.5 -85s-60.833 -37.5 -98.5 -47.5s-77.5 -16.667 -119.5 -20v-65c0 -8 1.5 -13.333 4.5 -16s8.16699 -4.66699 15.5 -6l38 -6v-105h-321v105l38 6c7.33301 1.33301 12.5 3.33301 15.5 6s4.5 8 4.5 16v67c-56 2 -103.667 9.33301 -143 22
s-71.333 30.167 -96 52.5s-42.5 49.166 -53.5 80.499s-16.5 66.333 -16.5 105c0 53.333 8.16699 97.5 24.5 132.5s38.5 63.333 66.5 85s60.833 37.5 98.5 47.5s77.5 16.667 119.5 20v74zM235.999 250.002c0 -22 1.83203 -40.168 5.49902 -54.501s9.33398 -25.5 17.001 -33.5
s17 -13.667 28 -17s23.5 -5.33301 37.5 -6v238c-12 0 -23.333 -1.66699 -34 -5s-20 -9.5 -28 -18.5s-14.333 -21.667 -19 -38s-7 -38.166 -7 -65.499zM616.998 269.001c0 22 -1.83203 40.166 -5.49902 54.499s-9.33398 25.5 -17.001 33.5s-17 13.667 -28 17
s-23.5 5.33301 -37.5 6v-238c12 0 23.333 1.66699 34 5s20 9.5 28 18.5s14.333 21.833 19 38.5s7 38.334 7 65.001z" />
    <glyph glyph-name="afii10087" unicode="&#x445;" horiz-adv-x="631" 
d="M295 0l0.000976562 103l29 9l-41 55l-58 -54l40 -9v-104h-249v103l34 7c6 1.33301 11.333 3.16602 16 5.49902s9.66699 6.16602 15 11.499l121 116l-135 150c-4.66699 5.33301 -8.33398 9 -11.001 11s-7 4 -13 6l-37 11l10 107h314v-107l-32 -8l46 -53l58 53l-42 8
l10 107h238v-107l-44 -10c-6 -2 -10.333 -4.33301 -13 -7l-12 -12l-113 -108l133 -154c4.66699 -5.33301 9.16699 -9.66602 13.5 -12.999s9.5 -5.66602 15.5 -6.99902l33 -6v-104h-326z" />
    <glyph glyph-name="afii10088" unicode="&#x446;" horiz-adv-x="661" 
d="M15 0v104.002l41 7c7.33301 1.33301 11.833 3.16602 13.5 5.49902s2.5 7.16602 2.5 14.499v266c0 7.33301 -0.833008 12.166 -2.5 14.499s-6.16699 4.16602 -13.5 5.49902l-41 7v104h302v-104l-18 -4c-7.33301 -1.33301 -11.833 -3.5 -13.5 -6.5s-2.5 -8.5 -2.5 -16.5
v-265h95v265c0 8 -0.833008 13.5 -2.5 16.5s-6.16699 5.16699 -13.5 6.5l-18 4v104h302v-104l-41 -7c-7.33301 -1.33301 -11.833 -3.16602 -13.5 -5.49902s-2.5 -7.16602 -2.5 -14.499v-251h57v-281l-144 10l-16 105c-1.33301 7.33301 -2.83301 12.5 -4.5 15.5
s-6.16699 4.5 -13.5 4.5h-453z" />
    <glyph glyph-name="afii10089" unicode="&#x447;" horiz-adv-x="631" 
d="M353 397c0 8 -0.666992 13.5 -2 16.5s-5 5.16699 -11 6.5l-16 4v104h287v-104l-31 -6c-7.33301 -1.33301 -11.833 -3.33301 -13.5 -6s-2.5 -7.66699 -2.5 -15v-266c0 -7.33301 0.833008 -12.333 2.5 -15s6.16699 -4.66699 13.5 -6l31 -6v-104h-391v104l117 7
c7.33301 0.666992 11.833 2.16699 13.5 4.5s2.5 7.5 2.5 15.5v41c-13.333 -4 -29.833 -7.16699 -49.5 -9.5s-36.834 -3.5 -51.501 -3.5c-44.667 0 -80 5 -106 15s-45.667 22.5 -59 37.5s-21.666 31.333 -24.999 49s-5 34.167 -5 49.5v87c0 7.33301 -1 12.5 -3 15.5
s-6.33301 5.16699 -13 6.5l-21 5v104h277v-104l-16 -4c-6 -1.33301 -9.66699 -3.5 -11 -6.5s-2 -8.5 -2 -16.5v-68c0 -11.333 2.33301 -21 7 -29s16.667 -12 36 -12c9.33301 0 17.333 0.833008 24 2.5s12.667 3.5 18 5.5v101z" />
    <glyph glyph-name="afii10090" unicode="&#x448;" horiz-adv-x="897" 
d="M15 0v104l31 5c7.33301 1.33301 11.833 3.5 13.5 6.5s2.5 8.16699 2.5 15.5v266c0 7.33301 -0.833008 12.5 -2.5 15.5s-6.16699 5.16699 -13.5 6.5l-31 5v104h277v-104l-16 -4c-6 -1.33301 -9.66699 -3.5 -11 -6.5s-2 -8.5 -2 -16.5v-265h85v265
c0 8 -0.666992 13.5 -2 16.5s-5 5.16699 -11 6.5l-16 4v104h259v-104l-16 -4c-6 -1.33301 -9.66699 -3.5 -11 -6.5s-2 -8.5 -2 -16.5v-265h85v265c0 8 -0.666992 13.5 -2 16.5s-5 5.16699 -11 6.5l-16 4v104h277v-104l-31 -5c-7.33301 -1.33301 -11.833 -3.5 -13.5 -6.5
s-2.5 -8.16699 -2.5 -15.5v-266c0 -7.33301 0.833008 -12.5 2.5 -15.5s6.16699 -5.16699 13.5 -6.5l31 -5v-104h-867z" />
    <glyph glyph-name="afii10091" unicode="&#x449;" horiz-adv-x="897" 
d="M882 146v-281l-144 10l-16 105c-1.33301 7.33301 -2.83301 12.5 -4.5 15.5s-6.16699 4.5 -13.5 4.5h-689v104l31 5c7.33301 1.33301 11.833 3.5 13.5 6.5s2.5 8.16699 2.5 15.5v266c0 7.33301 -0.833008 12.5 -2.5 15.5s-6.16699 5.16699 -13.5 6.5l-31 5v104h277v-104
l-16 -4c-6 -1.33301 -9.66699 -3.5 -11 -6.5s-2 -8.5 -2 -16.5v-265h85v265c0 8 -0.666992 13.5 -2 16.5s-5 5.16699 -11 6.5l-16 4v104h259v-104l-16 -4c-6 -1.33301 -9.66699 -3.5 -11 -6.5s-2 -8.5 -2 -16.5v-265h85v265c0 8 -0.666992 13.5 -2 16.5s-5 5.16699 -11 6.5
l-16 4v104h277v-104l-31 -5c-7.33301 -1.33301 -11.833 -3.5 -13.5 -6.5s-2.5 -8.16699 -2.5 -15.5v-251h47z" />
    <glyph glyph-name="afii10092" unicode="&#x44a;" horiz-adv-x="706" 
d="M423 227v-94.999h20c14 0 25.333 3.66699 34 11s13 19.666 13 36.999c0 19.333 -5.16699 32 -15.5 38s-20.833 9 -31.5 9h-20zM22 528.001h484v-104l-67 -7c-7.33301 -1.33301 -11.833 -3 -13.5 -5s-2.5 -7 -2.5 -15v-54h65c30 0 57.5 -2.16699 82.5 -6.5
s46.5 -12.333 64.5 -24s32 -27.667 42 -48s15 -46.166 15 -77.499c0 -27.333 -4.33301 -52.5 -13 -75.5s-22 -42.667 -40 -59s-41.167 -29.166 -69.5 -38.499s-62.5 -14 -102.5 -14h-312v104l41 7c7.33301 1.33301 11.833 3.16602 13.5 5.49902s2.5 7.16602 2.5 14.499v275
h-26c-7.33301 0 -11.833 -1.5 -13.5 -4.5s-3.16699 -8.16699 -4.5 -15.5l-13 -81l-133 -6v229z" />
    <glyph glyph-name="afii10093" unicode="&#x44b;" horiz-adv-x="899" 
d="M279 227v-94.999h20c14 0 25.333 3.66699 34 11s13 19.666 13 36.999c0 19.333 -5.16699 32 -15.5 38s-20.833 9 -31.5 9h-20zM279 343.001l65 0.00195312c30 0 57.5 -2.16699 82.5 -6.5s46.5 -12.333 64.5 -24s32 -27.667 42 -48s15 -46.166 15 -77.499
c0 -27.333 -4.33301 -52.5 -13 -75.5s-22 -42.667 -40 -59s-41.167 -29.166 -69.5 -38.499s-62.5 -14 -102.5 -14h-312v104l41 7c7.33301 1.33301 11.833 3.16602 13.5 5.49902s2.5 7.16602 2.5 14.499v266c0 7.33301 -0.833008 12.166 -2.5 14.499
s-6.16699 4.16602 -13.5 5.49902l-51 7v104h361v-104l-67 -7c-7.33301 -1.33301 -11.833 -3 -13.5 -5s-2.5 -7 -2.5 -15v-54zM889 424.003l-41 -7c-7.33301 -1.33301 -11.833 -3.16602 -13.5 -5.49902s-2.5 -7.16602 -2.5 -14.499v-266
c0 -7.33301 0.833008 -12.166 2.5 -14.499s6.16699 -4.16602 13.5 -5.49902l41 -7v-104h-325v104l41 7c7.33301 1.33301 11.833 3.16602 13.5 5.49902s2.5 7.16602 2.5 14.499v266c0 7.33301 -0.833008 12.166 -2.5 14.499s-6.16699 4.16602 -13.5 5.49902l-41 7v104h325
v-104z" />
    <glyph glyph-name="afii10094" unicode="&#x44c;" horiz-adv-x="562" 
d="M279 227v-94.999h20c14 0 25.333 3.66699 34 11s13 19.666 13 36.999c0 19.333 -5.16699 32 -15.5 38s-20.833 9 -31.5 9h-20zM279 343.001l65 0.00195312c30 0 57.5 -2.16699 82.5 -6.5s46.5 -12.333 64.5 -24s32 -27.667 42 -48s15 -46.166 15 -77.499
c0 -27.333 -4.33301 -52.5 -13 -75.5s-22 -42.667 -40 -59s-41.167 -29.166 -69.5 -38.499s-62.5 -14 -102.5 -14h-312v104l41 7c7.33301 1.33301 11.833 3.16602 13.5 5.49902s2.5 7.16602 2.5 14.499v266c0 7.33301 -0.833008 12.166 -2.5 14.499
s-6.16699 4.16602 -13.5 5.49902l-51 7v104h361v-104l-67 -7c-7.33301 -1.33301 -11.833 -3 -13.5 -5s-2.5 -7 -2.5 -15v-54z" />
    <glyph glyph-name="afii10095" unicode="&#x44d;" horiz-adv-x="559" 
d="M329 333c-9.33301 24.667 -22.502 41.8369 -39.502 51.5039s-35.5 14.5 -55.5 14.5c-13.333 0 -24.333 -1.33301 -33 -4c-6.66699 -2 -10.667 -8 -12 -18l-7 -56l-147 -6v171c10 7.33301 22.833 14.166 38.5 20.499s33.5 11.833 53.5 16.5s41.333 8.5 64 11.5
s45.334 4.5 68.001 4.5c94 0 165 -21.667 213 -65s72 -106.333 72 -189c0 -38 -4.66699 -74.833 -14 -110.5s-25.5 -67.334 -48.5 -95.001s-53.667 -49.834 -92 -66.501s-86.5 -25 -144.5 -25c-40 0 -80.333 4.5 -121 13.5s-77 23.833 -109 44.5l49 133
c29.333 -13.333 54.833 -23.333 76.5 -30s45.167 -10 70.5 -10c26.667 0 50.334 3.66699 71.001 11s35.667 22.666 45 45.999h-115v137h117z" />
    <glyph glyph-name="afii10096" unicode="&#x44e;" horiz-adv-x="877" 
d="M345 343c12 59.333 39.3311 106.839 81.998 142.506s102.334 53.5 179.001 53.5c47.333 0 87.333 -6.66699 120 -20s59 -31.833 79 -55.5s34.5 -51.834 43.5 -84.501s13.5 -68.667 13.5 -108c0 -42.667 -5 -81.5 -15 -116.5s-25.833 -64.833 -47.5 -89.5
s-49.167 -43.667 -82.5 -57s-73.666 -20 -120.999 -20c-80 0 -140 18.667 -180 56s-64.667 88.666 -74 153.999h-64v-67c0 -8 0.833008 -13 2.5 -15s6.16699 -3.66699 13.5 -5l42 -7v-104h-326v104l41 7c7.33301 1.33301 11.833 3.16602 13.5 5.49902
s2.5 7.16602 2.5 14.499v266c0 7.33301 -0.833008 12.166 -2.5 14.499s-6.16699 4.16602 -13.5 5.49902l-41 7v104h326v-104l-42 -7c-7.33301 -1.33301 -11.833 -3 -13.5 -5s-2.5 -7 -2.5 -15v-54h67zM600.998 128.006c7.33301 0 14.002 1.99902 20.002 5.99902
s11.333 11.167 16 21.5s8.33398 24.5 11.001 42.5s4 41 4 69c0 26 -1.16699 47.5 -3.5 64.5s-5.83301 30.167 -10.5 39.5s-9.83398 15.833 -15.501 19.5s-12.167 5.5 -19.5 5.5c-6.66699 0 -13.334 -1.66699 -20.001 -5s-12.5 -9.66602 -17.5 -18.999s-9 -22.5 -12 -39.5
s-4.5 -39.167 -4.5 -66.5s1.33301 -50 4 -68s6.16699 -32.167 10.5 -42.5s9.66602 -17.5 15.999 -21.5s13.5 -6 21.5 -6z" />
    <glyph glyph-name="afii10097" unicode="&#x44f;" horiz-adv-x="633" 
d="M353 194l-13.001 -0.000976562c-11.333 0 -20.166 -2.83301 -26.499 -8.5s-12.166 -15.167 -17.499 -28.5c-8 -19.333 -15.833 -41.666 -23.5 -66.999s-15.834 -55.333 -24.501 -90h-236v104l47 7c7.33301 1.33301 13 3.16602 17 5.49902s7.66699 7.16602 11 14.499
l19 49c12.667 33.333 36.334 54.666 71.001 63.999v4c-12 3.33301 -24.5 8 -37.5 14s-24.833 14.167 -35.5 24.5s-19.334 23.333 -26.001 39s-10 34.5 -10 56.5c0 17.333 3.16699 34.666 9.5 51.999s17.333 33 33 47s36.667 25.333 63 34s59.833 13 100.5 13h347v-104
l-41 -7c-7.33301 -1.33301 -11.833 -3.16602 -13.5 -5.49902s-2.5 -7.16602 -2.5 -14.499v-266c0 -7.33301 0.833008 -12.166 2.5 -14.499s6.16699 -4.16602 13.5 -5.49902l41 -7v-104h-311v104l27 5c7.33301 1.33301 11.833 3.33301 13.5 6s2.5 8 2.5 16v63z
M352.999 316.999v89.001h-29c-8.66699 0 -18.5 -2.5 -29.5 -7.5s-16.5 -16.167 -16.5 -33.5c0 -18.667 4.83301 -31.334 14.5 -38.001s21.5 -10 35.5 -10h25z" />
    <glyph glyph-name="afii10071" unicode="&#x451;" horiz-adv-x="543" 
d="M521 46c-38 -17.333 -75.832 -31.335 -113.499 -42.002s-76.5 -16 -116.5 -16c-50.667 0 -93.667 7.16699 -129 21.5s-63.833 34 -85.5 59s-37.334 54.5 -47.001 88.5s-14.5 71 -14.5 111c0 46 7 85.833 21 119.5s33.167 61.834 57.5 84.501s52.833 39.5 85.5 50.5
s67.334 16.5 104.001 16.5c35.333 0 67.333 -4.83301 96 -14.5s53.167 -24.834 73.5 -45.501s36 -47.167 47 -79.5s16.5 -71.166 16.5 -116.499c0 -5.33301 -0.166992 -13.666 -0.5 -24.999s-1.16602 -23.333 -2.49902 -36h-276c2 -28.667 10 -49 24 -61s33.667 -18 59 -18
c11.333 0 29.666 2 54.999 6s58.666 12.333 99.999 25zM316.001 324.998c0.666992 15.333 0 27.667 -2 37s-5 16.5 -9 21.5s-8.5 8.33301 -13.5 10s-10.167 2.5 -15.5 2.5c-11.333 0 -20.833 -4.5 -28.5 -13.5s-12.167 -28.167 -13.5 -57.5h82zM252.001 671.999
c0 -25.333 -7.83301 -45.833 -23.5 -61.5s-36.5 -23.5 -62.5 -23.5c-25.333 0 -46.166 7.83301 -62.499 23.5s-24.5 36.167 -24.5 61.5c0 26 8.16699 46.5 24.5 61.5s37.166 22.5 62.499 22.5c26 0 46.833 -7.5 62.5 -22.5s23.5 -35.5 23.5 -61.5zM467.001 671.999
c0 -25.333 -7.83301 -45.833 -23.5 -61.5s-36.5 -23.5 -62.5 -23.5s-47 7.83301 -63 23.5s-24 36.167 -24 61.5c0 26 8 46.5 24 61.5s37 22.5 63 22.5s46.833 -7.5 62.5 -22.5s23.5 -35.5 23.5 -61.5z" />
    <glyph glyph-name="afii10099" unicode="&#x452;" horiz-adv-x="618" 
d="M277 130c0 -8 0.830078 -13.166 2.49707 -15.499s5.83398 -4.16602 12.501 -5.49902l34 -5v-104h-316v104l40 7c7.33301 1.33301 11.833 3.16602 13.5 5.49902s2.5 7.16602 2.5 14.499v372h-60v105h60v6c-1.33301 9.33301 -5.66602 15.333 -12.999 18l-51 19l14 104h258
v-147h138v-105h-138v-94l6 -2c16 16 35.5 29.5 58.5 40.5s48.167 16.5 75.5 16.5c36.667 0 67.167 -7 91.5 -21s43.666 -33.5 57.999 -58.5s24.5 -54.667 30.5 -89s9 -71.5 9 -111.5c0 -73.333 -6 -135.666 -18 -186.999s-29.667 -93.333 -53 -126
s-52.166 -56.334 -86.499 -71.001s-74.166 -22 -119.499 -22c-15.333 0 -32.333 1.33301 -51 4s-36.667 7.33398 -54 14.001l17 151c16.667 -3.33301 31.334 -5 44.001 -5c15.333 0 29.5 2.66699 42.5 8s24.167 16.166 33.5 32.499s16.666 39.5 21.999 69.5s8 69.667 8 119
c0 42.667 -4.33301 73.667 -13 93s-25.667 29 -51 29c-19.333 0 -35 -3.33301 -47 -10v-153z" />
    <glyph glyph-name="afii10100" unicode="&#x453;" horiz-adv-x="514" 
d="M199 557l-74 64l152 183l103 -95zM494 299l-143 5.00391l-13 82c-1.33301 7.33301 -2.83301 12.5 -4.5 15.5s-6.16699 4.5 -13.5 4.5h-41v-275c0 -8 0.833008 -13.5 2.5 -16.5s6.16699 -4.83301 13.5 -5.5l93 -5v-104h-377v104l41 7
c7.33301 1.33301 11.833 3.16602 13.5 5.49902s2.5 7.16602 2.5 14.499v266c0 7.33301 -0.833008 12.166 -2.5 14.499s-6.16699 4.16602 -13.5 5.49902l-41 7v104h483v-229z" />
    <glyph glyph-name="afii10101" unicode="&#x454;" horiz-adv-x="571" 
d="M357 333l-0.00488281 -137.001h-125c9.33301 -23.333 24.333 -38.666 45 -45.999s44.334 -11 71.001 -11c25.333 0 48.833 3.33301 70.5 10s47.167 16.667 76.5 30l49 -123c-32 -21.333 -68.333 -38 -109 -50s-81 -18 -121 -18c-58 0 -106.167 6.83301 -144.5 20.5
s-69 32.5 -92 56.5s-39.167 52.167 -48.5 84.5s-14 67.5 -14 105.5c0 46 7.66699 86.667 23 122s36.833 65 64.5 89s60.834 42.167 99.501 54.5s81.334 18.5 128.001 18.5c20.667 0 41 -1.5 61 -4.5s39 -6.83301 57 -11.5s34.333 -10.167 49 -16.5s27 -13.166 37 -20.499
v-171l-147 8l-7 54c-1.33301 4.66699 -2.66602 8.5 -3.99902 11.5s-4 5.16699 -8 6.5c-8.66699 2.66699 -19.667 4 -33 4c-20 0 -40.167 -4.83301 -60.5 -14.5s-35.166 -26.834 -44.499 -51.501h127z" />
    <glyph glyph-name="afii10102" unicode="&#x455;" horiz-adv-x="515" 
d="M331 375l-4.99805 25c-1.33301 4.66699 -2.66602 7.66699 -3.99902 9s-3.66602 2.66602 -6.99902 3.99902c-12 4 -28 6 -48 6c-13.333 0 -25.166 -1.66699 -35.499 -5s-15.5 -10.666 -15.5 -21.999c0 -14 8.83301 -23.667 26.5 -29s39.167 -10.666 64.5 -15.999
c20.667 -4 42.167 -8.83301 64.5 -14.5s42.833 -14.5 61.5 -26.5s34 -28.167 46 -48.5s18 -47.166 18 -80.499c0 -32 -6 -60 -18 -84s-29 -43.667 -51 -59s-48.333 -26.833 -79 -34.5s-64.667 -11.5 -102 -11.5c-50 0 -93.667 4 -131 12s-65 16.667 -83 26v128l147 -9l6 -30
c1.33301 -6 3 -10 5 -12s5.33301 -3.66699 10 -5c11.333 -3.33301 29.666 -5 54.999 -5c37.333 0 56 11.667 56 35c0 7.33301 -2.5 13.333 -7.5 18s-12 8.5 -21 11.5s-19.5 5.5 -31.5 7.5s-24.667 4 -38 6c-20.667 3.33301 -41.834 8 -63.501 14s-41.5 15.167 -59.5 27.5
s-32.833 29.333 -44.5 51s-17.5 49.834 -17.5 84.501c0 33.333 6.66699 62.166 20 86.499s31.166 44.166 53.499 59.499s48.166 26.666 77.499 33.999s60 11 92 11c21.333 0 42.666 -1 63.999 -3s41.333 -4.5 60 -7.5s35.5 -6.5 50.5 -10.5s26.833 -7.66699 35.5 -11v-140z
" />
    <glyph glyph-name="afii10103" unicode="&#x456;" horiz-adv-x="336" 
d="M276 693c0 -37.333 -10 -66.166 -30 -86.499s-49 -30.5 -87 -30.5c-37.333 0 -66.166 10.167 -86.499 30.5s-30.5 49.166 -30.5 86.499c0 36.667 10.167 64.834 30.5 84.501s49.166 29.5 86.499 29.5c38 0 67 -9.83301 87 -29.5s30 -47.834 30 -84.501zM14 0v104.002
l36 7c7.33301 1.33301 11.833 3.16602 13.5 5.49902s2.5 7.16602 2.5 14.499v249c0 11.333 -4.33301 18.333 -13 21l-51 19l14 108h261v-397c0 -8 0.833008 -13 2.5 -15s6.16699 -3.66699 13.5 -5l37 -7v-104h-316z" />
    <glyph glyph-name="afii10104" unicode="&#x457;" horiz-adv-x="336" 
d="M127 668c0 -25.333 -7.83301 -45.833 -23.5 -61.5s-36.5 -23.5 -62.5 -23.5c-25.333 0 -46.166 7.83301 -62.499 23.5s-24.5 36.167 -24.5 61.5c0 26 8.16699 46.5 24.5 61.5s37.166 22.5 62.499 22.5c26 0 46.833 -7.5 62.5 -22.5s23.5 -35.5 23.5 -61.5zM336 668
c0 -25.333 -7.83301 -45.833 -23.5 -61.5s-36.5 -23.5 -62.5 -23.5s-47 7.83301 -63 23.5s-24 36.167 -24 61.5c0 26 8 46.5 24 61.5s37 22.5 63 22.5s46.833 -7.5 62.5 -22.5s23.5 -35.5 23.5 -61.5zM14 0v104.002l36 7c7.33301 1.33301 11.833 3.16602 13.5 5.49902
s2.5 7.16602 2.5 14.499v249c0 11.333 -4.33301 18.333 -13 21l-51 19l14 108h261v-397c0 -8 0.833008 -13 2.5 -15s6.16699 -3.66699 13.5 -5l37 -7v-104h-316z" />
    <glyph glyph-name="afii10105" unicode="&#x458;" horiz-adv-x="333" 
d="M64 380c0 10 -4.66602 16.9971 -13.999 20.9971l-48 19l14 108h259v-568c0 -33.333 -4.83301 -61.666 -14.5 -84.999s-23.334 -42.333 -41.001 -57s-39 -25.167 -64 -31.5s-53.167 -9.5 -84.5 -9.5c-25.333 0 -48.833 2.33301 -70.5 7s-41 10.334 -58 17.001
s-31.167 13.334 -42.5 20.001s-19 11.667 -23 15l50 108c7.33301 -3.33301 18.833 -7.83301 34.5 -13.5s32.5 -8.5 50.5 -8.5c6.66699 0 13.167 0.333008 19.5 1s11.833 3.33398 16.5 8.00098s8.5 11.667 11.5 21s4.5 22.666 4.5 39.999v388zM274.001 692.997
c0 -37.333 -10.167 -66.166 -30.5 -86.499s-49.5 -30.5 -87.5 -30.5c-36.667 0 -65.167 10.167 -85.5 30.5s-30.5 49.166 -30.5 86.499c0 36.667 10.167 64.834 30.5 84.501s48.833 29.5 85.5 29.5c38 0 67.167 -9.83301 87.5 -29.5s30.5 -47.834 30.5 -84.501z" />
    <glyph glyph-name="afii10106" unicode="&#x459;" horiz-adv-x="887" 
d="M604 219v-87.001h20c14 0 25.333 3.33301 34 10s13 18.667 13 36c0 10 -1.5 17.667 -4.5 23s-6.66699 9.33301 -11 12s-9.33301 4.33398 -15 5.00098s-11.167 1 -16.5 1h-20zM336 -0.000976562l-0.00488281 103.998l41 7c7.33301 1.33301 11.833 3.16602 13.5 5.49902
s2.5 7.16602 2.5 14.499v265h-72c0 -4.66699 -0.166992 -15.167 -0.5 -31.5s-1.16602 -34.666 -2.49902 -54.999s-3.16602 -41.166 -5.49902 -62.499s-5.5 -40 -9.5 -56s-10.667 -36 -20 -60s-23.666 -47 -42.999 -69s-45.166 -40.667 -77.499 -56
s-73.166 -22.333 -122.499 -21l-34 175c42.667 3.33301 72.834 17 90.501 41s28.167 60.333 31.5 109c1.33301 22.667 2.16602 40.667 2.49902 54s0.5 24.333 0.5 33c0 7.33301 -0.833008 12.166 -2.5 14.499s-6.16699 4.16602 -13.5 5.49902l-41 7v104h587v-104l-41 -7
c-7.33301 -1.33301 -11.833 -3.16602 -13.5 -5.49902s-2.5 -7.16602 -2.5 -14.499v-54h65c30 0 57.5 -2.16699 82.5 -6.5s46.5 -12.333 64.5 -24s32 -27.667 42 -48s15 -46.166 15 -77.499c0 -27.333 -4.33301 -52.5 -13 -75.5s-22 -42.667 -40 -59
s-41.167 -29.166 -69.5 -38.499s-62.5 -14 -102.5 -14h-312z" />
    <glyph glyph-name="afii10107" unicode="&#x45a;" horiz-adv-x="875" 
d="M675 424l-67 -6.99805c-7.33301 -1.33301 -11.833 -3 -13.5 -5s-2.5 -7 -2.5 -15v-54h65c30 0 57.5 -2.16699 82.5 -6.5s46.5 -12.333 64.5 -24s32 -27.667 42 -48s15 -46.166 15 -77.499c0 -27.333 -4.33301 -52.5 -13 -75.5s-22 -42.667 -40 -59
s-41.167 -29.166 -69.5 -38.499s-62.5 -14 -102.5 -14h-293v104l22 4c7.33301 1.33301 11.833 3.5 13.5 6.5s2.5 8.5 2.5 16.5v88h-103v-88c0 -8 0.833008 -13.5 2.5 -16.5s6.16699 -5.16699 13.5 -6.5l22 -4v-104h-306v104l41 7
c7.33301 1.33301 11.833 3.16602 13.5 5.49902s2.5 7.16602 2.5 14.499v266c0 7.33301 -0.833008 12.166 -2.5 14.499s-6.16699 4.16602 -13.5 5.49902l-41 7v104h306v-104l-22 -4c-7.33301 -1.33301 -11.833 -3.5 -13.5 -6.5s-2.5 -8.5 -2.5 -16.5v-54h103v54
c0 8 -0.833008 13.5 -2.5 16.5s-6.16699 5.16699 -13.5 6.5l-22 4v104h332v-104zM592 219.002v-87.001h20c14 0 25.333 3.33301 34 10s13 18.667 13 36c0 10 -1.5 17.667 -4.5 23s-6.66699 9.33301 -11 12s-9.33301 4.33398 -15 5.00098s-11.167 1 -16.5 1h-20z" />
    <glyph glyph-name="afii10108" unicode="&#x45b;" horiz-adv-x="619" 
d="M274 502l-0.00292969 -91.999l6 -2c35.333 37.333 80.666 56 135.999 56c50 0 86.5 -13.5 109.5 -40.5s34.5 -69.5 34.5 -127.5v-165c0 -8 0.833008 -13 2.5 -15s6.16699 -3.66699 13.5 -5l43 -7v-104h-270v264c0 14 -1.33301 24.667 -4 32s-9.66699 11 -21 11
c-7.33301 0 -15.166 -1.33301 -23.499 -4s-16.166 -5.66699 -23.499 -9v-164c0 -8 0.833008 -13.167 2.5 -15.5s5.83398 -4.16602 12.501 -5.49902l34 -5v-104h-316v104l40 7c7.33301 1.33301 11.833 3.16602 13.5 5.49902s2.5 7.16602 2.5 14.499v371h-60v108h60
c-1.33301 9.33301 -5.66602 15.333 -12.999 18l-51 19l14 108h258v-145h138v-108h-138z" />
    <glyph glyph-name="afii10109" unicode="&#x45c;" horiz-adv-x="656" 
d="M494 709l-103 95l-152 -183l74 -64zM410 0c-11.333 34.667 -21.834 64.6689 -31.501 90.002l-25.5 67c-8 20 -16 33.333 -24 40s-18.667 10 -32 10h-19v-76c0 -8 0.833008 -13 2.5 -15s6.16699 -3.66699 13.5 -5l37 -7v-104h-321v104l41 7
c7.33301 1.33301 11.833 3.16602 13.5 5.49902s2.5 7.16602 2.5 14.499v266c0 7.33301 -0.833008 12.166 -2.5 14.499s-6.16699 4.16602 -13.5 5.49902l-41 7v104h321v-104l-37 -7c-7.33301 -1.33301 -11.833 -3 -13.5 -5s-2.5 -7 -2.5 -15v-69h21
c21.333 0 36.166 5.83301 44.499 17.5s14.166 23.5 17.499 35.5l17 57c10.667 36 27.334 61.833 50.001 77.5s51 23.5 85 23.5c16 0 33 -1.66699 51 -5s37.333 -8 58 -14l-17 -125c-7.33301 2 -13.833 3.33301 -19.5 4s-11.167 1 -16.5 1c-10 0 -18.167 -2.5 -24.5 -7.5
s-11.166 -13.5 -14.499 -25.5l-12 -40c-7.33301 -25.333 -22.666 -42.333 -45.999 -51v-4c17.333 -4.66699 30.333 -12.667 39 -24s16.667 -25 24 -41l36 -76c3.33301 -7.33301 7 -12.166 11 -14.499s9.66699 -4.16602 17 -5.49902l47 -7v-104h-236z" />
    <glyph glyph-name="afii10110" unicode="&#x45e;" horiz-adv-x="657" 
d="M422 -54c-13.333 -33.333 -27 -60.998 -41 -82.998s-30 -39.5 -48 -52.5s-38.333 -22.167 -61 -27.5s-49 -8 -79 -8c-27.333 0 -56.5 4.16699 -87.5 12.5s-58.167 19.166 -81.5 32.499l43 134c15.333 -8 33 -15.5 53 -22.5s39.667 -10.5 59 -10.5
c20 0 35.5 3.66699 46.5 11s21.167 21 30.5 41l5 11l-201 410c-2 6 -4.5 10 -7.5 12s-7.5 3.66699 -13.5 5l-41 9l20 108h319v-108l-59 -8l88 -202h8l79 202l-62 8l15 108h253v-108l-32 -6c-9.33301 -1.33301 -15.5 -3.83301 -18.5 -7.5s-5.83301 -8.83398 -8.5 -15.501z
M360 667.002c19.333 0 34.167 5.83301 44.5 17.5s18.166 33.5 23.499 65.5l115 -29c-9.33301 -51.333 -29 -90.5 -59 -117.5s-72 -40.5 -126 -40.5c-54.667 0 -97 13.333 -127 40s-48.667 65 -56 115l120 34c2.66699 -28.667 8.83398 -50 18.501 -64s25.167 -21 46.5 -21z
" />
    <glyph glyph-name="afii10193" unicode="&#x45f;" horiz-adv-x="661" 
d="M431 0c-7.33301 0 -11.833 -1.5 -13.5 -4.5s-3.16699 -8.16699 -4.5 -15.5l-13 -125l-146 6l-17 119c-1.33301 7.33301 -2.83301 12.5 -4.5 15.5s-6.16699 4.5 -13.5 4.5h-209v104l41 7c7.33301 1.33301 11.833 3.16602 13.5 5.49902s2.5 7.16602 2.5 14.499v266
c0 7.33301 -0.833008 12.166 -2.5 14.499s-6.16699 4.16602 -13.5 5.49902l-41 7v104h307v-104l-23 -5c-7.33301 -1.33301 -11.833 -3.33301 -13.5 -6s-2.5 -8 -2.5 -16v-265h105v265c0 8 -0.833008 13.333 -2.5 16s-6.16699 4.66699 -13.5 6l-23 5v104h307v-104l-41 -7
c-7.33301 -1.33301 -11.833 -3.16602 -13.5 -5.49902s-2.5 -7.16602 -2.5 -14.499v-266c0 -7.33301 0.833008 -12.166 2.5 -14.499s6.16699 -4.16602 13.5 -5.49902l41 -7v-104h-220z" />
    <glyph glyph-name="afii10050" unicode="&#x490;" horiz-adv-x="624" 
d="M312 579v-446.999c0 -8 0.833008 -13 2.5 -15s6.16699 -3.66699 13.5 -5l147 -8v-104h-459v103l63 7c7.33301 1.33301 11.833 3.16602 13.5 5.49902s2.5 7.16602 2.5 14.499v463c0 7.33301 -0.833008 12.333 -2.5 15s-6.16699 4.33398 -13.5 5.00098l-63 7v104h398
c9.33301 0 15 4.33301 17 13l14 85l153 10v-253h-286z" />
    <glyph glyph-name="afii10098" unicode="&#x491;" horiz-adv-x="503" 
d="M303 528c7.33301 0 11.833 1.50391 13.5 4.50391s3.16699 8.16699 4.5 15.5l13 72l153 5v-229h-208v-265c0 -8 0.833008 -13.5 2.5 -16.5s6.16699 -4.83301 13.5 -5.5l93 -5v-104h-377v104l41 7c7.33301 1.33301 11.833 3.16602 13.5 5.49902s2.5 7.16602 2.5 14.499v266
c0 7.33301 -0.833008 12.166 -2.5 14.499s-6.16699 4.16602 -13.5 5.49902l-41 7v104h292z" />
    <glyph glyph-name="thinspace" unicode="&#x2009;" horiz-adv-x="125" 
 />
    <glyph glyph-name="endash" unicode="&#x2013;" 
d="M0 207v145h499v-145h-499z" />
    <glyph glyph-name="emdash" unicode="&#x2014;" horiz-adv-x="1000" 
d="M0 207v145h1000v-145h-1000z" />
    <glyph glyph-name="quoteleft" unicode="&#x2018;" horiz-adv-x="251" 
d="M196 522c-20.667 0 -40.832 0.666992 -60.499 2s-36.834 5 -51.501 11s-26.5 14.667 -35.5 26s-13.5 27 -13.5 47c0 12.667 2.16699 25.667 6.5 39s9.83301 27.333 16.5 42l44 101l83 -23l-19 -104c-0.666992 -6.66699 1.33301 -10.667 6 -12l44 -12z" />
    <glyph glyph-name="quoteright" unicode="&#x2019;" horiz-adv-x="256" 
d="M71 544l19 103c0.666992 6.66699 -1.66602 11 -6.99902 13l-43 12l20 118c21.333 0 41.666 -0.833008 60.999 -2.5s36.333 -5.5 51 -11.5s26.5 -14.667 35.5 -26s13.5 -27 13.5 -47c0 -12 -2 -24.833 -6 -38.5s-9.33301 -27.5 -16 -41.5l-45 -101z" />
    <glyph glyph-name="quotesinglbase" unicode="&#x201a;" horiz-adv-x="273" 
d="M82 -126l18.001 103c2 6.66699 0.333008 11 -5 13l-45 12l20 118c21.333 0 41.666 -0.833008 60.999 -2.5s36.5 -5.5 51.5 -11.5s27 -14.667 36 -26s13.5 -27 13.5 -47c0 -12 -2.16699 -24.833 -6.5 -38.5s-9.83301 -27.5 -16.5 -41.5l-44 -101z" />
    <glyph glyph-name="quotedblleft" unicode="&#x201c;" horiz-adv-x="454" 
d="M196 522c-20.667 0 -40.832 0.666992 -60.499 2s-36.834 5 -51.501 11s-26.5 14.667 -35.5 26s-13.5 27 -13.5 47c0 12.667 2.16699 25.667 6.5 39s9.83301 27.333 16.5 42l44 101l83 -23l-19 -104c-0.666992 -6.66699 1.33301 -10.667 6 -12l44 -12zM399.002 522
c-20.667 0 -40.832 0.666992 -60.499 2s-36.834 5 -51.501 11s-26.5 14.667 -35.5 26s-13.5 27 -13.5 47c0 12.667 2.16699 25.667 6.5 39s9.83301 27.333 16.5 42l44 101l83 -23l-19 -104c-0.666992 -6.66699 1.33301 -10.667 6 -12l44 -12z" />
    <glyph glyph-name="quotedblright" unicode="&#x201d;" horiz-adv-x="459" 
d="M71 544l19 103c0.666992 6.66699 -1.66602 11 -6.99902 13l-43 12l20 118c21.333 0 41.666 -0.833008 60.999 -2.5s36.333 -5.5 51 -11.5s26.5 -14.667 35.5 -26s13.5 -27 13.5 -47c0 -12 -2 -24.833 -6 -38.5s-9.33301 -27.5 -16 -41.5l-45 -101zM274 544l19 103
c0.666992 6.66699 -1.66602 11 -6.99902 13l-43 12l20 118c21.333 0 41.666 -0.833008 60.999 -2.5s36.333 -5.5 51 -11.5s26.5 -14.667 35.5 -26s13.5 -27 13.5 -47c0 -12 -2 -24.833 -6 -38.5s-9.33301 -27.5 -16 -41.5l-45 -101z" />
    <glyph glyph-name="quotedblbase" unicode="&#x201e;" horiz-adv-x="476" 
d="M82 -126l18.001 103c2 6.66699 0.333008 11 -5 13l-45 12l20 118c21.333 0 41.666 -0.833008 60.999 -2.5s36.5 -5.5 51.5 -11.5s27 -14.667 36 -26s13.5 -27 13.5 -47c0 -12 -2.16699 -24.833 -6.5 -38.5s-9.83301 -27.5 -16.5 -41.5l-44 -101zM285.001 -126l18.001 103
c2 6.66699 0.333008 11 -5 13l-45 12l20 118c21.333 0 41.666 -0.833008 60.999 -2.5s36.5 -5.5 51.5 -11.5s27 -14.667 36 -26s13.5 -27 13.5 -47c0 -12 -2.16699 -24.833 -6.5 -38.5s-9.83301 -27.5 -16.5 -41.5l-44 -101z" />
    <glyph glyph-name="dagger" unicode="&#x2020;" horiz-adv-x="428" 
d="M148 -83v187l-24 216l73 112h34l72 -112l-24 -216v-187h-131zM197 432l-83 -51h-74v134h74l83 -50v-33zM146 561v84h135v-84l-50 -96h-34zM315 381l-84 51v33l84 50h73v-134h-73z" />
    <glyph glyph-name="daggerdbl" unicode="&#x2021;" horiz-adv-x="448" 
d="M241 432l72 -113v-73l-72 -116h-34v-33h34l50 -96v-84h-135v84l51 96l-83 -51h-74v134h74l83 -50l-73 116v73l73 113l-83 -51h-74v134h74l83 -50l-51 96v84h135v-84l-50 -96l84 50h73v-134h-73l-84 51v33h-34v-33h34zM325 46l-84 51v33l84 50h73v-134h-73z" />
    <glyph glyph-name="bullet" unicode="&#x2022;" horiz-adv-x="401" 
d="M366 289c0 -52.667 -14.167 -92.167 -42.5 -118.5s-69.5 -39.5 -123.5 -39.5s-95 13.167 -123 39.5s-42 65.833 -42 118.5s14 92.167 42 118.5s69 39.5 123 39.5s95.167 -13.167 123.5 -39.5s42.5 -65.833 42.5 -118.5z" />
    <glyph glyph-name="ellipsis" unicode="&#x2026;" horiz-adv-x="807" 
d="M245 81c0 -30 -8.49902 -52.999 -25.499 -68.999s-43.5 -24 -79.5 -24c-36.667 0 -63.5 7.66699 -80.5 23s-25.5 38.666 -25.5 69.999c0 30 8.5 53 25.5 69s43.833 24 80.5 24c35.333 0 61.666 -8 78.999 -24s26 -39 26 -69zM508.001 81.001
c0 -30 -8.49902 -52.999 -25.499 -68.999s-43.5 -24 -79.5 -24c-36.667 0 -63.5 7.66699 -80.5 23s-25.5 38.666 -25.5 69.999c0 30 8.5 53 25.5 69s43.833 24 80.5 24c35.333 0 61.666 -8 78.999 -24s26 -39 26 -69zM771.002 81.002
c0 -30 -8.49902 -52.999 -25.499 -68.999s-43.5 -24 -79.5 -24c-36.667 0 -63.5 7.66699 -80.5 23s-25.5 38.666 -25.5 69.999c0 30 8.5 53 25.5 69s43.833 24 80.5 24c35.333 0 61.666 -8 78.999 -24s26 -39 26 -69z" />
    <glyph glyph-name="perthousand" unicode="&#x2030;" horiz-adv-x="1189" 
d="M181 295c-58.667 0 -100.167 13.667 -124.5 41s-36.5 66.333 -36.5 117c0 58 14.5 100.333 43.5 127s70.5 40 124.5 40c55.333 0 96 -13.333 122 -40s39 -66 39 -118c0 -54 -14.5 -95.333 -43.5 -124s-70.5 -43 -124.5 -43zM136 -12l373 632h191l-372 -632h-192zM185 388
c7.33301 0 13.665 4.33301 18.998 13s8 28.667 8 60c0 28 -2.66699 45.833 -8 53.5s-11.666 11.5 -18.999 11.5c-3.33301 0 -6.66602 -0.666992 -9.99902 -2s-6.5 -4.16602 -9.5 -8.49902s-5.33301 -10.833 -7 -19.5s-2.5 -20.334 -2.5 -35.001c0 -30.667 3 -50.5 9 -59.5
s12.667 -13.5 20 -13.5zM649.999 -12c-58.667 0 -100.167 13.667 -124.5 41s-36.5 66.333 -36.5 117c0 58 14.5 100.333 43.5 127s70.5 40 124.5 40c55.333 0 96 -13.333 122 -40s39 -66 39 -118c0 -54 -14.5 -95.333 -43.5 -124s-70.5 -43 -124.5 -43zM654.999 81
c3.33301 0 6.66797 0.833984 10.001 2.50098s6.16602 5.16699 8.49902 10.5s4.33301 12.666 6 21.999s2.5 22 2.5 38c0 28 -2.83301 45.833 -8.5 53.5s-12.167 11.5 -19.5 11.5c-2.66699 0 -5.66699 -0.666992 -9 -2s-6.5 -4.16602 -9.5 -8.49902s-5.33301 -10.833 -7 -19.5
s-2.5 -20.334 -2.5 -35.001c0 -30.667 3 -50.5 9 -59.5s12.667 -13.5 20 -13.5zM1001 -11.999c-58.667 0 -100.167 13.667 -124.5 41s-36.5 66.333 -36.5 117c0 58 14.5 100.333 43.5 127s70.5 40 124.5 40c55.333 0 96 -13.333 122 -40s39 -66 39 -118
c0 -54 -14.5 -95.333 -43.5 -124s-70.5 -43 -124.5 -43zM1006 81.001c3.33301 0 6.66797 0.833984 10.001 2.50098s6.16602 5.16699 8.49902 10.5s4.33301 12.666 6 21.999s2.5 22 2.5 38c0 28 -2.83301 45.833 -8.5 53.5s-12.167 11.5 -19.5 11.5
c-2.66699 0 -5.66699 -0.666992 -9 -2s-6.5 -4.16602 -9.5 -8.49902s-5.33301 -10.833 -7 -19.5s-2.5 -20.334 -2.5 -35.001c0 -30.667 3 -50.5 9 -59.5s12.667 -13.5 20 -13.5z" />
    <glyph glyph-name="guilsinglleft" unicode="&#x2039;" horiz-adv-x="284" 
d="M97 103l-84 152l89 153h162l-85 -141c-2.66699 -4 -4 -7.16699 -4 -9.5s1 -5.5 3 -9.5l79 -145h-160z" />
    <glyph glyph-name="guilsinglright" unicode="&#x203a;" horiz-adv-x="284" 
d="M27 103l79 147c2 4 3 7.16699 3 9.5s-1.33301 5.5 -4 9.5l-85 139h162l89 -152l-84 -153h-160z" />
    <glyph glyph-name="fraction" unicode="&#x2044;" horiz-adv-x="213" 
d="M-173 -17l357 741h191l-356 -741h-192z" />
    <glyph glyph-name="Euro" unicode="&#x20ac;" horiz-adv-x="604" 
d="M297 247c4 -40.667 11.667 -69.3271 23 -85.9941s28.333 -25 51 -25c9.33301 0 17.333 1 24 3c4.66699 1.33301 8 5.66602 10 12.999l18 76l143 5v-192c-10 -6.66699 -23.333 -13.334 -40 -20.001s-35.334 -12.334 -56.001 -17.001s-42 -8.5 -64 -11.5
s-43.333 -4.5 -64 -4.5c-81.333 0 -144.166 21.833 -188.499 65.5s-71.833 108.167 -82.5 193.5h-71l24 151h47c6 47.333 17.667 87.666 35 120.999s38.666 60.666 63.999 81.999s53.5 36.833 84.5 46.5s62.833 14.5 95.5 14.5c20.667 0 41.667 -1.5 63 -4.5
s41.666 -6.83301 60.999 -11.5s37 -10.167 53 -16.5s28.667 -13.166 38 -20.499v-185l-144 5l-14 70c-1.33301 5.33301 -2.66602 9.16602 -3.99902 11.499s-4 4.16602 -8 5.49902c-6 2.66699 -16.333 4 -31 4c-7.33301 0 -14.666 -1.66699 -21.999 -5s-14 -9.5 -20 -18.5
s-11.333 -21.333 -16 -37s-8 -36.167 -10 -61.5h115l-24 -151h-90z" />
    <glyph glyph-name="afii61352" unicode="&#x2116;" horiz-adv-x="1145" 
d="M452 0l-211 385v-264c0 -8 0.833008 -13 2.5 -15s6.16699 -3.66699 13.5 -5l67 -8v-93h-299v93l63 7c7.33301 1.33301 11.833 3.16602 13.5 5.49902s2.5 7.16602 2.5 14.499v396c0 7.33301 -0.833008 12.333 -2.5 15s-6.16699 4.33398 -13.5 5.00098l-63 7v93h278
l210 -388v266c0 7.33301 -0.833008 12.333 -2.5 15s-6.16699 4.33398 -13.5 5.00098l-63 7v95h298v-95l-67 -8c-7.33301 -1.33301 -11.833 -3 -13.5 -5s-2.5 -6.66699 -2.5 -14v-514h-197zM897 205c-34.667 0 -64.334 4.50098 -89.001 13.501s-44.667 21.333 -60 37
s-26.666 34.5 -33.999 56.5s-11 46 -11 72c0 56.667 16.333 101.5 49 134.5s83.334 49.5 152.001 49.5c34.667 0 64 -4.33301 88 -13s43.667 -20.834 59 -36.501s26.5 -34.167 33.5 -55.5s10.5 -45 10.5 -71c0 -56.667 -15.833 -102 -47.5 -136s-81.834 -51 -150.501 -51z
M900 296.001c13.333 0 24.3359 6.16797 33.0029 18.501s13 37.166 13 74.499c0 35.333 -4.16699 58.666 -12.5 69.999s-18.833 17 -31.5 17c-6.66699 0 -12.834 -1.16699 -18.501 -3.5s-10.834 -6.66602 -15.501 -12.999s-8.33398 -15.333 -11.001 -27s-4 -26.5 -4 -44.5
c0 -36.667 4.5 -61.167 13.5 -73.5s20.167 -18.5 33.5 -18.5zM726.003 174.002h350v-106h-350v106z" />
    <glyph glyph-name="trademark" unicode="&#x2122;" horiz-adv-x="878" 
d="M116 348v56l48 5v246h-55l-6 -48h-53v117h324v-117h-53l-5 48h-57v-246l50 -5v-56h-193zM684 348v55l35 5v154l-64 -133h-77l-63 134v-155l39 -5v-55h-151v55l32 5v254l-32 3v59h121l96 -203l99 203h117v-59l-34 -3v-254l36 -5v-55h-154z" />
    <glyph glyph-name="partialdiff" unicode="&#x2202;" horiz-adv-x="590" 
d="M362 373c2 54.667 -5.49707 94.3311 -22.4971 118.998s-42.5 37 -76.5 37c-24.667 0 -48.834 -5.5 -72.501 -16.5s-44.167 -23.833 -61.5 -38.5l-80 122c29.333 23.333 66.166 42.666 110.499 57.999s92.166 23 143.499 23c50.667 0 92.667 -8.5 126 -25.5s60 -40 80 -69
s34 -62.667 42 -101s12 -78.833 12 -121.5c0 -53.333 -4.5 -102.666 -13.5 -147.999s-24.5 -84.666 -46.5 -117.999s-51.167 -59.333 -87.5 -78s-81.833 -28 -136.5 -28c-36.667 0 -70.5 4.33301 -101.5 13s-57.833 22 -80.5 40s-40.167 40.5 -52.5 67.5
s-18.5 58.833 -18.5 95.5c0 35.333 5.33301 66.333 16 93s25.167 48.667 43.5 66s40.333 30.333 66 39s53.5 13 83.5 13c27.333 0 51 -4.16699 71 -12.5s36.667 -19.166 50 -32.499zM347.003 266.997c-9.33301 5.33301 -19.332 9.33398 -29.999 12.001s-19.334 4 -26.001 4
c-20 0 -33.667 -6.16699 -41 -18.5s-11 -30.166 -11 -53.499c0 -6.66699 0.333008 -14.334 1 -23.001s2.5 -16.834 5.5 -24.501s8 -14.167 15 -19.5s16.5 -8 28.5 -8c21.333 0 36 10.833 44 32.5s12.667 54.5 14 98.5z" />
    <glyph glyph-name="product" unicode="&#x220f;" horiz-adv-x="800" 
d="M421 -176v103.003l63 7c7.33301 1.33301 11.833 3.16602 13.5 5.49902s2.5 7.16602 2.5 14.499v618h-204v-617c0 -8 0.833008 -13 2.5 -15s6.16699 -3.66699 13.5 -5l67 -8v-103h-379v103l63 7c7.33301 1.33301 11.833 3.16602 13.5 5.49902s2.5 7.16602 2.5 14.499v638
c0 7.33301 -0.833008 12.333 -2.5 15s-6.16699 4.33398 -13.5 5.00098l-63 7v105h800v-105l-67 -8c-7.33301 -1.33301 -11.833 -3 -13.5 -5s-2.5 -6.66699 -2.5 -14v-637c0 -8 0.833008 -13 2.5 -15s6.16699 -3.66699 13.5 -5l67 -8v-103h-379z" />
    <glyph glyph-name="summation" unicode="&#x2211;" horiz-adv-x="627" 
d="M-3 -176v110l219 328l-217 360v102h570v-239l-153 6l-14 75c-2 8.66699 -7.66699 13 -17 13h-124l161 -288l-197 -299h198c5.33301 0 9 0.5 11 1.5s3.66699 4.16699 5 9.5l16 88h152v-267h-610z" />
    <glyph glyph-name="minus" unicode="&#x2212;" horiz-adv-x="570" 
d="M87 248v153h397v-153h-397z" />
    <glyph glyph-name="radical" unicode="&#x221a;" horiz-adv-x="617" 
d="M241 0l-108.999 188c-2.66699 4 -4.83398 6.5 -6.50098 7.5s-5.16699 0.833008 -10.5 -0.5l-62 -10l-53 115l197 96l107 -211l148 564l165 -41l-190 -708h-186z" />
    <glyph glyph-name="infinity" unicode="&#x221e;" horiz-adv-x="677" 
d="M337 235c-15.333 -17.333 -34.835 -31.6631 -58.502 -42.9961s-50.834 -17 -81.501 -17c-22 0 -42.667 2.83301 -62 8.5s-36 14.5 -50 26.5s-25 27.333 -33 46s-12 41.334 -12 68.001c0 24 4.33301 45.167 13 63.5s20.334 33.666 35.001 45.999
s31.834 21.666 51.501 27.999s40.167 9.5 61.5 9.5c30.667 0 57.167 -6 79.5 -18s41.5 -26 57.5 -42c18.667 16 39.5 30 62.5 42s50.5 18 82.5 18c22 0 42.333 -2.83301 61 -8.5s34.834 -14.667 48.501 -27s24.5 -27.833 32.5 -46.5s12 -41 12 -67
c0 -24.667 -4.16699 -46.334 -12.5 -65.001s-19.5 -34.334 -33.5 -47.001s-30.5 -22.334 -49.5 -29.001s-39.5 -10 -61.5 -10c-30 0 -57.5 6.5 -82.5 19.5s-45.167 27.833 -60.5 44.5zM273.998 324.003c-13.333 13.333 -24.668 23.167 -34.001 29.5s-21 9.5 -35 9.5
s-25.5 -3.5 -34.5 -10.5s-13.5 -17.167 -13.5 -30.5c0 -10 4.33301 -19.167 13 -27.5s19.667 -12.5 33 -12.5c22.667 0 46.334 14 71.001 42zM412.996 329.004c10 -11.333 20.167 -21.168 30.5 -29.501s23.166 -12.5 38.499 -12.5c14 0 24 3.83301 30 11.5
s9 16.834 9 27.501c0 14 -3.5 23.833 -10.5 29.5s-16.167 8.5 -27.5 8.5s-23.666 -4.16699 -36.999 -12.5s-24.333 -15.833 -33 -22.5z" />
    <glyph glyph-name="integral" unicode="&#x222b;" horiz-adv-x="428" 
d="M67 -38c24 -10 43.667 -15.001 59 -15.001c10 0 16.833 3.83301 20.5 11.5s4.16699 26.167 1.5 55.5l-50 562c-2.66699 32.667 1.16602 58.834 11.499 78.501s23.333 34.834 39 45.501s32.5 17.834 50.5 21.501s33 5.5 45 5.5c28.667 0 54.667 -2 78 -6
s48.666 -10.667 75.999 -20l-31 -125c-12 5.33301 -23 9.16602 -33 11.499s-18.667 3.5 -26 3.5c-10 0 -17 -4.16699 -21 -12.5s-4.33301 -26.5 -1 -54.5l50 -562c2.66699 -33.333 -1.16602 -59.833 -11.499 -79.5s-23.333 -34.834 -39 -45.501s-32.5 -17.667 -50.5 -21
s-33 -5 -45 -5c-28.667 0 -54.667 2 -78 6s-48.666 10.667 -75.999 20z" />
    <glyph glyph-name="approxequal" unicode="&#x2248;" horiz-adv-x="570" 
d="M514 507c-2.66699 -18.667 -6.33008 -36.667 -10.9971 -54s-11 -32.833 -19 -46.5s-18 -24.667 -30 -33s-27 -12.5 -45 -12.5s-36.667 1.66699 -56 5s-38.333 6.83301 -57 10.5l-54.5 10.5c-17.667 3.33301 -33.834 5 -48.501 5c-10.667 0 -18.834 -2 -24.501 -6
s-11.834 -12.333 -18.501 -25l-94 43c14.667 40 30.834 71.5 48.501 94.5s42.5 34.5 74.5 34.5c19.333 0 38.166 -1.66699 56.499 -5s36.333 -7 54 -11s35 -7.66699 52 -11s33.5 -5 49.5 -5c7.33301 0 13 2.5 17 7.5s8 12.833 12 23.5zM514.004 304
c-2.66699 -18.667 -6.32715 -36.6689 -10.9941 -54.002s-11 -32.666 -19 -45.999s-18 -24.166 -30 -32.499s-27 -12.5 -45 -12.5s-36.667 1.5 -56 4.5s-38.333 6.5 -57 10.5s-36.834 7.5 -54.501 10.5s-33.834 4.5 -48.501 4.5c-10.667 0 -18.834 -2 -24.501 -6
s-11.834 -12.333 -18.501 -25l-94 43c15.333 40 31.666 71.5 48.999 94.5s42 34.5 74 34.5c19.333 0 38.166 -1.66699 56.499 -5s36.333 -7 54 -11s35 -7.66699 52 -11s33.5 -5 49.5 -5c7.33301 0 13 2.5 17 7.5s8.33301 12.833 13 23.5z" />
    <glyph glyph-name="notequal" unicode="&#x2260;" horiz-adv-x="570" 
d="M293 100l-23 -75h-143l24 75h-66v152h116l19 59h-135v152h185l25 76h137l-24 -76h75v-152h-123l-19 -59h142v-152h-190z" />
    <glyph glyph-name="lessequal" unicode="&#x2264;" horiz-adv-x="570" 
d="M89 276v180l398 129v-154l-233 -60l232 -68v-157zM89 0v152h397v-152h-397z" />
    <glyph glyph-name="greaterequal" unicode="&#x2265;" horiz-adv-x="570" 
d="M84 146v157l232 68l-233 54v160l398 -129v-180zM84 0v152h397v-152h-397z" />
    <glyph glyph-name="lozenge" unicode="&#x25ca;" horiz-adv-x="570" 
d="M212 -17l-154 324l154 324h146l154 -324l-154 -324h-146zM364 307l-79 162l-79 -162l79 -173z" />
    <glyph glyph-name="breve.cyr" 
d="M252 667c19.333 0 34.167 5.83301 44.5 17.5s18.166 33.5 23.499 65.5l115 -29c-9.33301 -51.333 -29 -90.5 -59 -117.5s-72 -40.5 -126 -40.5c-54.667 0 -97 13.333 -127 40s-48.667 65 -56 115l120 34c2.66699 -28.667 8.83398 -50 18.501 -64s25.167 -21 46.5 -21z
" />
    <glyph glyph-name="hyphen.case" horiz-adv-x="311" 
d="M25 267v165h271v-165h-271z" />
    </font>
</defs>
</svg>
